<?xml version="1.0" encoding="UTF-8"?>
<svg id="Layer_1" data-name="Layer 1" xmlns="http://www.w3.org/2000/svg" viewBox="0 0 120 120">
  <defs>
    <style>
      .cls-1 {
        fill: #254e9b;
      }
    </style>
  </defs>
  <path class="cls-1" d="m11.27,82.47h-5.08v-45.06h44.7c19.61,0,22.7,17.62,22.7,17.62l11-17.62h11.53l21.08,34.17-6.6,10.89h-27.79v-5.44h31.08l-23.55-39.63s-15.52,27-18.85,32.26c-3.33,5.26-9.59,12.8-20.31,12.8h-16.6v-26.83h5.26v21.39h12.1c5.35,0,16.83-4.56,16.83-17.45s-12.27-16.92-16.31-16.92H11.27v39.8h0Zm1.75,0v-19.11h19.64v5.26h-14.38v13.85h-5.26,0Zm19.64-21.39v-5.44h-14.38v-5.77h33.08c4.96,0,10.22,4.01,10.22,9.89s-5.32,9.91-9.12,9.91h-5.16v-14.03h-5.44v19.29h10.59c6.71,0,14.47-5.82,14.47-14.99s-7.05-15.34-15.49-15.34H13.03v16.48h19.64,0Zm33.58,21.39l24.11-39.8,19.81,32.26h-27.35v-5.26h17.71l-10.17-16.57-16.74,29.37h-7.37Z"/>
</svg>