<?xml version="1.0" encoding="UTF-8"?>
<svg id="Layer_1" data-name="Layer 1" xmlns="http://www.w3.org/2000/svg" viewBox="0 0 120 120">
  <defs>
    <style>
      .cls-1 {
        fill: #034887;
      }
    </style>
  </defs>
  <path class="cls-1" d="m50.49,87.9c.61-2.05-2.35-2.8-3.9-3.81-16.62-10.74-16.98-38.46.03-49.61,1.93-1.26,3.78-2.64,5.66-3.96-11.46.8-21.83,4.38-30.48,11.99-11.07,9.73-11.27,23.02-.54,33.08,6.77,6.34,14.99,9.8,23.95,11.69,1.83.38,4.95,1.72,5.28.63Z"/>
  <path class="cls-1" d="m88.98,59.28c.08,12.73-6.16,21.61-16.55,28.31,10.33-1.05,19.6-4.25,27.28-11.19,11.3-10.22,11.21-24.08-.21-34.22-6.22-5.52-13.53-8.87-21.63-10.6-1.77-.38-3.53-1.01-5.78-.1,10.98,6.29,16.82,15.24,16.89,27.81Z"/>
  <path class="cls-1" d="m53.61,42.74h16.11c-3.65-1.95-3.33-4.67-3.3-7.34.11-8.56.2-17.12.26-25.68.01-1.91-.02-3.79,2.57-5.31h-15.21c2.52,1.37,2.26,3.66,2.26,5.88-.01,8.34-.04,16.68,0,25.02.01,2.65.25,5.3-2.7,7.44Z"/>
  <path class="cls-1" d="m77.76,109.46c-4.28-9.76-8.71-19.46-13.14-29.15-.47-1.03-.62-2.39-2.07-2.96-1.4,2.54-5.55,9.74-6.33,11.3-3.33,6.69-6.35,13.17-9.64,19.69-1.63,3.24-2.83,6.96-6.93,7.99h12.11c-5.44-1.7-5.46-1.75-3.72-5.92q3-7.19,10.85-7.19h1.34c7.5,0,7.37.05,10.27,6.95,1.28,3.03,1.64,5.26-2.18,6.19h15.76c-3.43-1.19-4.97-3.84-6.32-6.89Zm-12.62-7.65c-3.56.05-7.13-.1-10.68.08-2.58.13-2.45-.81-1.55-2.64,1.84-3.76,4.59-9.81,6.4-13.68,3.51,4.57,4.9,10.17,7.32,15.27.57,1.21-.85.97-1.49.98Z"/>
  <path class="cls-1" d="m98.67,95.86c.2-.24.38-.49.6-.71,2.5-2.41,2.75-4.66.71-6.52-2.17-1.98-6.89-1.84-8.49.23-.51.67-.76,1.35-.35,2.14.33.65.88.98,1.63.87.68-.1.93-.64.86-1.2-.22-1.74.48-2.56,2.23-2.29,1.71.26,2.27,1.47,2.49,3.05.41,2.9-2.06,3.47-3.95,4.65,4.22,1.44,5.57,3.62,4.3,6.62-.63,1.5-1.87,2.2-3.41,2.19-.87,0-1.83-.28-1.77-1.51.05-1.04.12-2.06-1.31-2.21-.91-.09-1.58.37-1.78,1.16-.32,1.28.56,2.06,1.51,2.7,2.62,1.76,7.16.97,9.06-1.55,2.03-2.68,1.42-4.7-2.34-7.63Z"/>
</svg>