<?xml version="1.0" encoding="UTF-8"?>
<svg id="Layer_1" data-name="Layer 1" xmlns="http://www.w3.org/2000/svg" viewBox="0 0 120 120">
  <defs>
    <style>
      .cls-1 {
        fill: #346051;
      }

      .cls-1, .cls-2 {
        fill-rule: evenodd;
      }

      .cls-2 {
        fill: #2c578d;
      }
    </style>
  </defs>
  <path class="cls-2" d="m30.92,23.65l-.13,19.5c0,8.2-4.84,11.3-11.29,11.3-5.65,0-12.78-2.42-12.78-10.89v-19.9c0-1.08-.67-1.75-1.48-2.15h9.14c-.67.4-1.48,1.08-1.48,2.15v20.03c0,3.36,1.21,8.07,7.4,8.07,5.65,0,7.66-3.77,7.66-8.47v-19.63c0-1.08-.67-1.75-1.34-2.15h5.51c-.67.4-1.21,1.08-1.21,2.15h0Zm12.91,30.79c-4.3,0-7.53-1.48-9.14-2.29l-.27-8.07c.94,3.36,3.76,7.93,8.74,7.93,4.71,0,6.19-3.5,6.19-5.78,0-4.57-4.17-5.24-8.47-7.53-4.44-2.42-6.32-4.97-6.32-8.61,0-6.45,6.05-9.14,10.35-9.14,1.61,0,4.84.4,7.26,1.88l.13,6.99c-.67-2.55-3.36-6.32-7.93-6.32-3.63,0-4.98,2.55-4.98,4.57,0,2.96,2.02,4.03,6.45,6.05,4.44,2.15,9.14,3.63,9.14,10.35,0,5.92-5.25,9.95-11.16,9.95h0Zm26.49-.4h-12.24c.67-.54,1.21-1.21,1.21-2.15v-28.24c0-1.08-.54-1.75-1.21-2.15h12.64c15.73,0,18.83,11.16,18.83,15.73,0,8.34-6.32,16.81-19.23,16.81h0Zm-.54-30.12c-1.21,0-3.63,0-4.44.13v27.43h3.9c10.76,0,13.72-7.26,13.72-14.25,0-5.65-3.36-13.31-13.18-13.31Zm38.32,30.12c1.21-.67,1.48-1.34,1.21-2.42-.13-.4-1.48-3.36-2.82-6.59h-11.56c-1.48,3.23-2.69,6.05-2.69,6.59-.4,1.08-.27,1.75,1.08,2.42h-6.59c1.34-.94,1.75-1.48,2.29-2.42.81-1.75,13.45-31.06,13.45-31.06,0,0,12.64,29.31,13.45,31.06.54,1.08.81,1.48,2.42,2.42h-10.22Zm-7.53-23.13s-3.23,8.07-4.71,11.56h9.55c-2.15-5.24-4.84-11.56-4.84-11.56Z"/>
  <path class="cls-1" d="m116.84,58.61s-69.38-1.75-110.4,20.17c0,0,43.57-17.21,110.4-15.6v-4.57Zm-110.4,0s23.4.13,37.92,5.65c0,0-29.85-2.56-37.92-1.21v-4.44h0Zm0,7.53s16.67-.67,26.76.27c0,0-24.34,2.96-26.76,4.17v-4.44h0Z"/>
  <path class="cls-1" d="m105.41,66.94h-.4c-20.17.4-62.39,2.82-98.56,15.6v15.33h110.53v-30.93s-4.3-.13-11.56,0h0Z"/>
</svg>