<?xml version="1.0" encoding="UTF-8"?>
<svg id="Layer_1" data-name="Layer 1" xmlns="http://www.w3.org/2000/svg" xmlns:xlink="http://www.w3.org/1999/xlink" viewBox="0 0 120 120">
  <defs>
    <style>
      .cls-1 {
        fill: url(#linear-gradient-4);
      }

      .cls-1, .cls-2, .cls-3, .cls-4, .cls-5, .cls-6, .cls-7 {
        fill-rule: evenodd;
      }

      .cls-2 {
        fill: #fff;
      }

      .cls-3 {
        fill: url(#linear-gradient-2);
      }

      .cls-4 {
        fill: url(#linear-gradient);
      }

      .cls-5 {
        fill: #068457;
      }

      .cls-6 {
        fill: #723b10;
      }

      .cls-8 {
        fill: none;
        stroke: #fff;
        stroke-linejoin: round;
        stroke-width: 3.23px;
      }

      .cls-7 {
        fill: url(#linear-gradient-3);
      }
    </style>
    <linearGradient id="linear-gradient" x1="79.85" y1="450.08" x2="102.22" y2="478.79" gradientTransform="translate(0 542) scale(1 -1)" gradientUnits="userSpaceOnUse">
      <stop offset="0" stop-color="#fff" stop-opacity=".34"/>
      <stop offset="1" stop-color="#fff" stop-opacity=".1"/>
    </linearGradient>
    <linearGradient id="linear-gradient-2" x1="23.98" y1="341.03" x2="47.76" y2="371.33" gradientTransform="translate(-42.23 407.58) rotate(15.15) scale(1 -1)" xlink:href="#linear-gradient"/>
    <linearGradient id="linear-gradient-3" x1="16.28" y1="245.63" x2="39.05" y2="272.94" gradientTransform="translate(-61.91 286.45) rotate(27.65) scale(1 -1)" xlink:href="#linear-gradient"/>
    <linearGradient id="linear-gradient-4" x1="20.1" y1="133.52" x2="42.42" y2="157.99" gradientTransform="translate(-33.65 159.51) rotate(39.37) scale(1 -1)" xlink:href="#linear-gradient"/>
  </defs>
  <path class="cls-6" d="m115.07,60.6c0,29.99-24.3,54.3-54.28,54.31-29.99,0-54.3-24.3-54.31-54.28,0,0,0-.02,0-.03C6.48,30.62,30.79,6.31,60.78,6.31s54.3,24.31,54.3,54.3h0Z"/>
  <g>
    <path class="cls-2" d="m109.21,60.6c0,26.75-21.68,48.43-48.43,48.43S12.35,87.35,12.35,60.6,34.03,12.17,60.78,12.17s48.43,21.68,48.43,48.43Z"/>
    <path class="cls-5" d="m109.21,60.6c0,26.73-21.7,48.43-48.43,48.43S12.35,87.34,12.35,60.6h96.87Z"/>
    <path class="cls-4" d="m68.6,108.58l34.32-44.82-37.79,44.85"/>
    <path class="cls-3" d="m44.73,105.21l56.75-42.81-59.15,41.29"/>
    <path class="cls-7" d="m26.44,94.46l72.93-31.63-74.94,29.62"/>
    <path class="cls-1" d="m16.68,78.4l82.38-16.19-83.94,13.82"/>
  </g>
  <path class="cls-8" d="m109.21,60.6c0,26.75-21.68,48.43-48.43,48.43S12.35,87.35,12.35,60.6,34.03,12.17,60.78,12.17s48.43,21.68,48.43,48.43Z"/>
  <g>
    <path class="cls-5" d="m32.76,34.32h4.89v15.61s.01,1.49,1.49,1.49,1.7-1.47,1.7-1.47v-15.61h4.76v15.62s.02,5.22-6.37,5.22-6.47-5.21-6.47-5.21v-15.64Zm22.28,6.46h4.42s.38-6.46-6.1-6.46c-1.77,0-3.52.76-4.45,1.77-1.01,1.09-1.5,2.18-1.5,4.06,0,1.47.16,3.69,3.95,5.83,2.33,1.31,3.69,2.28,3.69,3.66s-.77,1.87-1.84,1.87c-1.44,0-1.62-1.54-1.62-1.72,0-.21-.03-1.72-.03-1.72h-4.57s-.84,7.1,6.1,7.1,6.37-5.19,6.37-6.28c0-3.48-1.69-4.62-4.38-6.13-2.2-1.24-3.3-1.98-3.3-3.21s.83-1.57,1.5-1.57c1.8,0,1.78,1.68,1.78,1.86,0,.16.03.98-.01.94h0Zm6.45-6.46h6.72c1.84,0,5.8.63,5.8,4.56v11.77c0,2.92-2.62,4.52-5.41,4.52h-7.1v-20.85Zm4.8,3.83h1.56c.87,0,1.35.4,1.35,2.89v7.45c0,1.85-.07,2.86-1.26,2.86h-1.65v-13.2Zm13.91,17.02h-4.64l4.4-20.85h5.59l4.51,20.79h-4.91l-.57-3.81h-3.61l-.76,3.87Zm1.28-7.57h2.55l-1.19-9.41-1.36,9.41Z"/>
    <path class="cls-2" d="m61.84,82.13h-3.49l3.3-15.64h4.2l3.38,15.6h-3.69l-.43-2.86h-2.71l-.57,2.9h0Zm.96-5.68h1.92l-.9-7.06-1.02,7.06h0Zm-33.73-9.96h1.85c2.16,0,3.9,1.71,3.9,3.84v7.95c0,2.13-1.74,3.84-3.9,3.84h-1.85c-2.16,0-3.9-1.71-3.9-3.84v-7.95c0-2.13,1.74-3.84,3.9-3.84Zm.92,2.61c.68,0,1.23.57,1.23,1.27v7.88c0,.7-.55,1.27-1.23,1.27s-1.23-.57-1.23-1.27v-7.88c0-.7.55-1.27,1.23-1.27Zm10.12,6.86v6.17h-3.65v-15.64h5.64c2.19,0,3.99.94,3.99,4.24s-1.65,3.2-1.65,3.6c0,.56,1.61-.45,1.61,3.99,0,3.57.54,3.22.54,3.51s-.02.29-.02.29h-4.13v-4.45c0-1.43-.84-1.71-2.34-1.71h0Zm-.06-2.99v-3.67c.79,0,2.4-.31,2.4,1.8s-1.14,1.87-2.4,1.87Zm13.65,3.33h-1.27v-2.59h4.88v8.16h-2.57v-1.35s-.69,1.62-3.23,1.62-3.95-1.73-3.95-3.8v-8.42c0-1.99,2.19-3.42,4.84-3.42s4.77,1.47,4.77,3.35,0,2.14,0,2.14h-3.53v-1.73c0-.68-.77-1.17-1.19-1.17s-1.32.3-1.32,1.3v7.5c0,.9.36,1.54,1.25,1.54s1.38-.75,1.38-1.43,0-1.8-.04-1.69h0Zm19.89-2.11v7.9h-3.38v-15.6h3.76l2.65,8.63v-8.59h3.34v15.6h-3.88l-2.5-7.93h0Zm8.14-7.7h3.53v15.64h-3.53v-15.64Zm11.44,5.56h3.53v-2.29c0-1.35-1.31-3.27-5.11-3.27s-4.49,2.67-4.49,3.87v7.78c0,1.47.65,3.98,4.61,3.98s5.18-2.48,5.18-3.38v-2.74h-3.69v2.29c0,.59-.57,1.13-1.23,1.13s-1.23-.38-1.23-1.13v-7.93c0-.71.35-1.07,1.23-1.07.76,0,1.21.68,1.21,1.18s.02,1.62-.02,1.58h0Z"/>
  </g>
</svg>