<?xml version="1.0" encoding="UTF-8"?>
<svg id="Layer_1" data-name="Layer 1" xmlns="http://www.w3.org/2000/svg" viewBox="0 0 120 120">
  <defs>
    <style>
      .cls-1 {
        fill: #0b9dda;
      }
    </style>
  </defs>
  <path id="path6" class="cls-1" d="m62.2,2.32c-3.37,0-1.95,5.02-1.69,6.67,0,.07.26,11.36.34,13.95.53-.15,1.01-.26,1.54-.38l1.01-.26c.04-2.51.3-13.27.3-13.35.22-1.73,1.99-6.64-1.5-6.64Zm2.63,5.44l-.04.15c-.04.26-.11.49-.15.71,5.81.56,11.25,3.11,15.41,7.2l-2.93,2.92.11-.52-.37-.19-.49.04.11-.34-.34-1.2-.71-.79-2.29-1.2-.19.22-.41.12c.79,1.12,1.2,2.48,1.2,3.83v.52l1.13,1.43-.53.11.34.53-1.01,1.01-.42-.75c-.19.53-.45,1.05-.75,1.5l.23.19-3.11,3.08c-.19-.19-.37-.34-.56-.53-.3.15-.6.26-.9.38l.26.18-.15.15-.37.19-.15.38-.23-.23-.64.23.19.3.45-.12.3.04.04-.15.22-.11.08-.11.41-.12h.3l.19.15-1.2,1.24-.08-.11-1.27.23-.3.3-.27.03.79-.75-.3-.15-.75.98.23-.04v.38l.26.11.04.37-.45-.07-.45.07-1.13-.56s-.08,3-.08,4.5c2.63.9,5.44,2.17,5.44,5.55.04,1.42-.71,2.78-1.91,3.56l-.07.04-.08.07c-1.05.71-2.44,1.09-3.64,1.46l-.04,2.36c1.91.94,4.2,2.32,3.98,6.22-.04.98-.41,1.24-.71,1.31-1.12.26-2.29.45-3.41.53v.86c4.95-.34,9.6-2.4,13.2-5.81l3.08,3.08c-9.86,9.53-25.5,9.53-35.4.08l3.08-3.08c3.56,3.34,8.17,5.36,13.05,5.74v-.86c-4.65-.38-9-2.29-12.38-5.51l.79-.82,1.13.11.6-.64,1.57.08.23-.57-.07-.22c2.32,1.76,5.1,2.89,8.02,3.19v-.87c-3.23-.38-6.23-1.72-8.63-3.94l3.08-3.08c.75.67,1.58,1.24,2.51,1.69.08-.3.15-.56.3-.82-.79-.41-1.54-.9-2.18-1.46l3.08-3.07c.49.38,1.05.71,1.61.9v-.94c-.38-.15-.71-.37-1.01-.6l.86-.87c-.3-.08-.6-.19-.9-.3l-.6.6c-.3-.34-.56-.71-.75-1.09-.53-.22-1.05-.49-1.54-.83-1.8-1.09-2.89-3.08-2.85-5.21-.04-1.42.38-2.85,1.24-3.98l-3.08-3.07c2.25-2.18,5.14-3.56,8.21-4.05v-.86c-3.3.49-6.41,1.99-8.81,4.31l-.53-.53c-.11.19-.26.45-.41.79l.34.34c-2.74,2.89-4.28,6.71-4.35,10.68h-4.39c.08-5.14,2.06-10.05,5.62-13.8l1.39,1.39h.19c.26-.04.56-.11.79-.23l-1.76-1.76c.94-.9,1.95-1.73,3.04-2.44.07-.23.11-.45.23-.64.19-.3.41-.6.67-.9-1.65.9-3.15,2.02-4.5,3.34l-3.08-3.08c4.13-4.01,9.49-6.52,15.26-7.12,0-.11-.04-.19-.04-.19-.04-.23-.07-.41-.11-.67-14.59,1.5-25.12,14.51-23.59,29.06,1.43,13.46,12.75,23.7,26.29,23.66,14.63,0,26.48-11.89,26.44-26.51,0-13.58-10.28-24.94-23.78-26.33h0Zm-22.39,1.05c-4.76,1.01-8.74,5.21-9.83,10.38,1.5-1.76,4.09-2.77,5.55-4.5,1.46-1.76,1.95-4.16,4.28-5.89Zm39.37,0c2.33,1.73,2.81,4.12,4.28,5.89,1.46,1.76,4.01,2.77,5.51,4.54-1.09-5.17-5.06-9.41-9.79-10.42Zm-16.09,1.65l-.34.22-.75-.07v.19c.49.04.97.07,1.35.15l.64-.04.64.04.26-.23-.49-.22-1.31-.04Zm-1.2,1.27c0,.41-.04,1.35-.04,1.35,0,.3-.04,1.39-.04,1.61.3.04.64.07.94.11,2.81.67,3.83,2.29,3.83,3.86,0,2.59-2.21,3.56-4.91,4.31l-.9.22c-.83.19-1.69.41-2.51.64-.3.07-.6.15-.9.26-3,.9-5.59,2.36-5.59,6.07s2.96,5.06,5.85,5.96c0-1.05-.04-2.14-.08-3.19-1.31-.6-2.17-1.39-2.17-2.7s.82-2.06,2.06-2.63c.26-.11.56-.23.9-.34.71-.26,1.54-.45,2.36-.67l.9-.23c4.05-.98,8.62-2.25,8.59-7.69,0-2.74-1.99-5.74-6.82-6.79-.49-.07-.97-.15-1.46-.19h0Zm-4.8.42c-.9.3-1.8.64-2.66,1.09-.94.3-2.29.37-3.68,1.87-.45.52-.86,1.09-1.28,1.65-.41.6-.45,1.58-.75,2.06-.45.75-.34,1.2-.34,1.2-.08.34-.26.68-.48.94-.45.52-1.13.79-1.8.67.64.3,1.5-.11,1.5-.11-.15.41-.26.83-.34,1.24.71-1.61,1.35-2.17,1.57-2.36.3.07.94.04,2.1-.64,1.31-.75,3.3-1.99,3.86-2.78.6-.79,1.39-1.43,2.33-1.76,0-1.12-.04-2.17-.04-3.07h0Zm-26.36.97c-6.34,4.73-3.64,12.3-3.98,14.7,3.26-7.09,8.1-5.59,10.17-12.3-1.2,2.03-6.49,2.89-8.93,8.17,1.27-3.15.64-7.95,2.74-10.58Zm57.56,0c2.14,2.59,1.5,7.43,2.74,10.58-2.47-5.29-7.76-6.15-8.92-8.25,2.06,6.75,6.9,5.25,10.16,12.3-.34-2.36,2.36-9.98-3.98-14.63Zm-16.57.98l-.45.34.56.3.64.45.08-.38-.26-.41-.57-.3Zm-20.02,1.84l.94.04-1.09,1.16-.68.15.83-1.35Zm-10.62.49l3.08,3.07c-3.71,3.86-5.81,9.04-5.89,14.4h-4.35c.08-6.56,2.63-12.79,7.16-17.47Zm36.98.07c4.5,4.69,7.01,10.91,7.09,17.4h-4.35c-.04-3.22-.79-6.41-2.25-9.3l.04-.08.3.15.08-.22-.79-1.35-.94-1.28-1.09-.9c-.38-.45-.75-.9-1.16-1.35l3.08-3.08Zm-16.31,1.76v.86c1.24.19,2.44.52,3.56.97.15-.26.26-.52.3-.78-1.24-.52-2.55-.86-3.86-1.05Zm-36.15,1.16c-5.81,8.21.34,13.12.56,16.12,1.46-5.74,4.95-5.77,7.2-13.35-.6.83-1.01,1.2-2.59,2.47-2.36,1.87-4.01,4.54-4.58,7.5.15-3.68-2.1-8.92-.6-12.75Zm67.84,0c1.5,3.82-.75,9.07-.64,12.75-.6-2.96-2.21-5.63-4.58-7.5-1.58-1.31-1.99-1.65-2.59-2.47,2.25,7.57,5.74,7.61,7.24,13.35.22-2.96,6.38-7.87.57-16.12h0Zm-46.2,2.55c-.19.04-.34.08-.53.04l.42.45c.04-.15.07-.34.11-.49h0Zm25.27.11l1.05.04.26.3-.11.45,1.46.9.3-.03,1.84,2.14.75-.27c1.2,2.59,1.83,5.44,1.87,8.29h-4.35c0-1.12-.15-2.21-.41-3.3l.18-.27.27-1.39-.19-1.46-.53-1.69-1.2-1.76.3.15.15-.15-.97-.68-.08.23.98,1.38.56,1.13.38,1.13.11.75.19,1.27-.38.04s-.41-.79-.56-1.12l.19-.3-.38-.53v-.49l-.26-.34-.34.04c-.11-.23-.23-.45-.38-.64l.23.12.07-.08-.11-.26.3-.15-.11-.15-.41.15.15-.68-.27-.15-.22.53c-.49-.71-1.01-1.39-1.58-2.03l1.24-1.13Zm-24.08,1.69l3.08,3.08c-.64.71-1.2,1.5-1.61,2.36h-.23l-.45.11h-.15l-.45.41.6-.07.52-.12-.11.15-.45.3h-.22l-.68.53-.64-.07-.94,1.76.19.34-.52.6-.08.75h-1.95c.04-3.79,1.5-7.39,4.09-10.13h0Zm22.24.12c.71.79,1.35,1.65,1.91,2.55l-.38.11.04.68,1.12.71c.3.64.53,1.27.72,1.95l-.19.3-.41.3-.12.64-.3.15-.22.3-.23-.11h-.41l.23-.34.18-.86.3-.19-.82-.79-.6.23-.15.6-.38.41-.41-.34-.15-.37.22-.15.12.22.18-.07-.07-.38h-.26v.15l-.19.04-.94-1.13-.34-.26.11-.11.3-.11-.3-.12s-.34.08-.37.08l.19.26h-.49c-.3-.49-.6-.9-.98-1.28l3.08-3.07Zm.53,1.24l-.68.33-.22.42-.15.37.3.49-.12.22-.41.15.04.34.75-.22.22-.45-.52-.68.26-.41.71.49.12-.12-.15-.11-.15-.3.3-.15-.3-.37Zm-10.54,2.43c-.79.19-1.58.41-2.33.68.04,1.35.23,11.36.23,12.45.37-.11.75-.26,1.08-.33.26-.08.49-.15.75-.23,0-.71.22-10.76.26-12.56Zm6.34,0c.3.34.56.68.83,1.05l-.15.48-.41-.3-.34.08.15.3h.15l-.19.45-.11-.19-.49-.15.37-.07v-.08l-.37-.26.11-.83.45-.49Zm-9.6,1.01c-.75.45-1.12.98-1.16,1.69,0,.75.45,1.24,1.24,1.69v-.34l-.49-.53.26-.48.23-.08c-.04-.86-.04-1.8-.04-1.95h-.04Zm-35.25.04c-2.36,9.98,3.94,11.14,5.59,15.34-.26-6,3.56-7.2,3.26-14.06-1.69,3.26-4.35,4.01-4.05,10.73-1.42-5.96-4.84-8.21-4.8-12Zm74.7,0c.04,3.82-3.37,6.04-4.8,12.04.3-6.79-2.33-7.5-4.05-10.77-.34,6.86,3.53,8.06,3.26,14.06,1.61-4.16,7.95-5.36,5.59-15.34h0Zm-22.65,1.5c.07.22.11.45.19.67l-.42,1.24v.41l.53-.86c.11.75.19,1.54.23,2.29h-3.83l-.08-.34.45-.33.08-.23.18-.15.53-.07.04-.23-.45-.23.79-.41.78-.11.19-.38.45-.26.19-.37.15-.64Zm-26.44,1.95l.93.15.15.15c-.07.49-.11,1.01-.15,1.5h-1.05l-.49-.64.08-.86.53-.3Zm13.65,2.29c-.04.86-.04,2.1-.08,2.96,1.01.38,1.69.87,1.69,1.65,0,.98-1.01,1.5-1.76,1.8-.3.11-.75.26-.9.3-.6.19-1.2.37-1.8.6-.3.11-.6.22-.9.37-.98.52-2.06,1.31-2.06,2.66,0,1.5,1.09,2.29,2.18,2.93,0-.26-.04-2.55-.04-2.59.04-.45.45-.75.83-.9.56-.26,1.16-.49,1.76-.68.34-.11.6-.22.9-.3,2.21-.68,4.76-1.5,4.76-4.2s-2.18-3.79-4.58-4.61h0Zm-22.28.37h4.35c0,.41.04.83.11,1.28l-.53.11-.11.53-1.13,1.43.04,1.95-1.12.37h-.64c-.6-1.84-.9-3.71-.98-5.66h0Zm36.45,0h4.35c-.15,5.1-2.17,9.94-5.74,13.58l-.6-.6.34-.37-.34-1.69-.23-.08.15-.3-.71-.22-.15.6-.07.75-.15.15-1.31-1.31c2.74-2.85,4.31-6.57,4.46-10.5h0Zm5.17,0h4.35c-.15,6.45-2.74,12.64-7.27,17.25l-3.04-3.08c3.71-3.83,5.85-8.89,5.96-14.18h0Zm-46.84.04h4.35c.04,1.88.38,3.79.94,5.59l-.27-.04-.26-.26-1.24-.12.38.53-1.13-.23.3-.26-.26-.26-.83.34-.3.52.12,1.24.93,2.25.45.71.27.08-.72-1.35-.15-.68.15-.15-.11-.37.41.07.68.98.15.07v-.71l.26.15.08.38.67.18.3-.22.12.07v.53l.3.37.37.08.83,1.35.49.15.15-.64c.86,1.39,1.84,2.7,3,3.86l-3.08,3.08c-4.58-4.61-7.2-10.8-7.35-17.29h0Zm10.43,0h1.31l-.3,1.05.38.42-.41.63h-.72l-.04-.03c-.11-.68-.19-1.39-.22-2.06h0Zm2.44,0h1.01l.15.3-.22,1.02-.11.18.37.83-.26.15-.19-.23-.07.08.18.49.3.56h.15l.08-.52-.15-.19v-.34l-.04-.71.23-1.28-.23-.34h.71c.15,2.59,1.2,5.03,3,6.9l-3.08,3.04c-.3-.34-.64-.67-.9-1.01l.15-1.09-.45-1.05-.12-1.65-.52-1.01.11-.64-.64-1.2-.52-.26.22-.64-.22-.49.22-.56h.6l.23-.34Zm24.53.04h3.34c-.15,3.71-1.65,7.24-4.2,9.9l-.45-.45.18-.6-.33-1.35-.68,1.01-.41-.41.3-.41.41-.83-.15-.23.26-.6-.04-.56-.15-.56-.37-.12-.15.3-.23-.08c.34-.49.64-1.05.9-1.58l.38-.15.23-.3.11.12.26-.3-.22-.27.18-.04.34.15h.68l.41-.23,1.05-.3-.19-.34-.07-.41.56.26.23-.11-.12-.45-.71.26-.75-.15-.6-1.2Zm-21.75.49l.64.67h.6l.78.53.23-.11.56.41-.26.19.64.41-.04-.45.34-.56.37.37.38.53-.68.19.3.6.45-.27-.07-.18.34-.23.18-.94c.26.56.6,1.09,1.01,1.54l-3.08,3.08c-1.5-1.57-2.44-3.6-2.7-5.77h0Zm-18.86,1.72c-.22,3.56-2.63,5.29-1.01,11.78-2.81-5.51-7.16-7.57-8.44-11.32.08,10.31,8.36,11.85,10.46,14.7-1.76-6.56,1.35-8.85-1.01-15.15Zm57.6,0c-2.36,6.3.75,8.59-1.01,15.15,2.1-2.85,10.39-4.39,10.46-14.7-1.27,3.79-5.62,5.81-8.44,11.32,1.61-6.49-.79-8.21-1.01-11.78Zm-26.92,1.28c0,.19-.04,1.05-.04,1.5.49-.26.83-.49.83-.86,0-.23-.3-.45-.71-.64h-.08Zm5.17,4.13l.79.56.6.3.3.3-.15.15-.94-.26-.3.11-.52-.41-.49-.19c.26-.19.49-.37.71-.56h0Zm-6.19,1.91s-.34.11-.53.19c-.11.04-.45.19-.67.26-.23.08-.49.19-.49.27,0,0,.22,11.55.22,11.77,0,2.36,1.2,2.4,1.2,0,0-.15.26-12.49.26-12.49h0Zm-27.75.45c.6,2.74-1.13,6.75,1.61,10.54-2.81-3.15-8.81-3.97-11.25-8.77,3.04,11.74,10.99,9.34,14.55,11.89-2.93-4.24-.53-7.05-4.91-13.65Zm53.74,0c-4.39,6.6-1.99,9.41-4.91,13.65,3.6-2.55,11.51-.15,14.55-11.89-2.44,4.8-8.4,5.62-11.21,8.77,2.74-3.79,1.01-7.76,1.57-10.54h0Zm-48.63.6l.78,1.23.04-.18-.37-.87-.45-.18Zm32.77.48l3.08,3.08c-1.12,1.09-2.4,2.06-3.79,2.85l.41-.86-.15-.37.6-.53v-.3l-.52-.34.41-.86.64-.83-.64-.67h-.49l-.3-.49c.26-.22.52-.45.75-.68h0Zm-26.02,1.13l.98.56.19.15-.72.72c-.34-.34-.64-.67-.94-1.05l.49-.38Zm16.69.41l-.04,1.73c1.35.67,2.62,1.65,3.15,3.45.22-3-1.46-4.27-3.11-5.17h0Zm-24.34,4.35c1.46,2.25-.04,5.06,4.58,9.41-4.5-2.66-10.76-1.54-13.76-5.1,5.18,9.9,14.25,5.85,16.8,7.09-2.44-3.38-.79-5.29-7.61-11.4Zm45.38,0c-6.86,6.11-5.18,8.02-7.65,11.4,2.59-1.24,11.66,2.81,16.8-7.09-2.96,3.6-9.22,2.44-13.72,5.1,4.61-4.39,3.11-7.2,4.58-9.41Zm-29.52,10.76c-2.55.08-5.06.49-7.5,1.13-4.12,1.09-7.69,1.95-10.8.37,2.96,2.62,6.45,3.6,11.48,3.04,4.16-.45,7.54-2.55,11.48-2.51h.15c-2.48,1.24-4.69,2.96-6.49,5.06l1.91.26s1.98-4.01,6.6-5.06c4.61,1.05,6.6,5.06,6.6,5.06l1.91-.26c-1.8-2.1-4.01-3.83-6.49-5.06h.15c3.94-.04,7.31,2.06,11.48,2.51,5.03.53,8.48-.41,11.48-3.04-3.11,1.57-6.68.71-10.8-.37-2.44-.64-4.95-1.05-7.5-1.13-2.33-.04-4.65.34-6.83,1.16-2.17-.83-4.5-1.2-6.82-1.16h0Zm-13.54,12.67v16.53h2.75v-16.53h-2.75Zm11.15,0v6.83h-.03c-.51-1.15-1.66-1.88-2.93-1.81-2.45,0-3.93,2.15-3.93,5.86,0,3.14,1.18,5.83,3.99,5.83,1.75,0,2.57-.97,3.02-1.93h.06c0,.57.03,1.18.09,1.75h2.57c-.06-.63-.09-1.3-.09-1.93v-14.6h-2.75Zm43.88,0v16.53h2.72v-16.53h-2.72Zm11.73,0v16.53h2.72v-6.62c0-1.45.51-2.66,1.93-2.66,1.12,0,1.57.73,1.57,2.48v6.8h2.72v-7.31c0-2.3-.78-4.2-3.35-4.2-1.69,0-2.33.94-2.81,1.63h-.06v-6.65h-2.72Zm-101.93,1.15l3.14,15.41h3.33l2.42-12.63h.03l2.33,12.63h3.38l3.18-15.41h-2.57l-2.27,11.88h-.03l-2.3-11.88h-3.45l-2.33,11.88h-.03l-2.18-11.88h-2.66Zm57.2,0v15.38h2.84v-6.8h4.56v6.83h2.81v-15.41h-2.81v6.26h-4.56v-6.26h-2.84Zm41.58.85l-2.72.85h-.03v2.36h-1.81v2h1.81v6.19c0,2.39,1.15,3.33,3.17,3.33.63,0,1.27-.12,1.85-.36v-1.93c-.3.15-.67.24-1.03.24-.79,0-1.24-.36-1.24-1.57v-5.92h2.27v-2h-2.27v-3.17Zm-77,2.99c-2.3,0-4.98,1.21-5.01,5.83,0,4.74,2.69,5.86,5.01,5.86s4.99-1.08,4.99-5.86-2.66-5.83-4.99-5.83Zm61.56,0c-1.24,0-2.48.3-3.6.84l.18,2.18c.91-.7,1.99-1.08,3.11-1.11,1.57,0,2.11,1.06,2.11,2.18v.42h-.55c-3.48,0-5.98.79-5.98,3.87,0,2.12,1.63,3.32,3.39,3.32,1.63,0,2.48-.79,3.17-1.72h.03c-.03.51.03,1.03.15,1.54h2.48c-.09-.66-.15-1.33-.15-2v-4.96c0-2.84-.82-4.56-4.35-4.56h0Zm-49.8.03c-1.72,0-2.57,1.36-2.9,2.24h-.03c0-.7-.06-1.39-.09-2.09h-2.48c.06.63.09,1.24.09,1.88l.03,9.52h2.72v-6.23c0-2.12,1.24-2.81,2.36-2.81.24,0,.52.06.76.12v-2.57c-.15-.03-.3-.06-.45-.06h0Zm39.92,0c-2.9,0-4.69,2.63-4.69,6.02,0,3.05,1.6,5.68,5.26,5.68,1.15,0,2.33-.24,3.38-.72l-.09-2.12c-.51.36-1.33.88-2.99.88-2.12,0-2.9-1.18-2.9-3.11h6.56v-.55c0-4.65-2.08-6.07-4.53-6.07h0Zm-.03,1.85c1.24,0,1.91,1.03,1.91,3.02h-3.93c0-1.51.57-3.02,2.02-3.02h0Zm-51.65.09c1.78,0,2.18,1.99,2.18,3.9s-.42,3.93-2.18,3.93-2.18-2.03-2.18-3.93.39-3.9,2.18-3.9Zm22.4.06c1.51,0,2.11,1.6,2.11,3.81s-.54,3.86-2.15,3.86-2-1.3-2.03-3.93c0-2.27.55-3.75,2.06-3.75h0Zm40.7,3.96h.27v.66c0,2.02-.6,3.24-2.23,3.24h-.22c-.91-.06-1.6-.85-1.54-1.75,0-1.66,1.39-2.15,3.71-2.15h0Zm-31.49,9.1v2.69h2.84v-2.69h-2.84Zm32.31,0v2.69h2.81v-2.69h-2.81Zm-79.45.57c-3.2,0-6.14,2.39-6.14,7.92s2.93,7.92,6.14,7.92,6.14-2.39,6.14-7.92-2.93-7.92-6.14-7.92Zm75.52,1.09l-2.72.85-.03,2.33h-1.81v2h1.81v6.23c0,2.36,1.15,3.29,3.18,3.29.63.03,1.27-.09,1.84-.36v-1.93c-.3.18-.66.24-1.03.24-.79,0-1.24-.36-1.24-1.57v-5.89h2.26v-2h-2.26v-3.17Zm-75.52,1.09c1.78,0,3.23,1.48,3.23,5.74s-1.45,5.77-3.23,5.77-3.23-1.54-3.23-5.77,1.45-5.74,3.23-5.74Zm29.52,1.9c-1.24,0-2.48.28-3.59.85l.18,2.17c.91-.7,2-1.09,3.11-1.12,1.57,0,2.11,1.06,2.11,2.18v.42h-.54c-3.48,0-5.99.79-5.99,3.87,0,2.12,1.63,3.33,3.38,3.33,1.63,0,2.48-.79,3.18-1.72h.03c-.03.51.03,1.03.15,1.54h2.48c-.09-.66-.15-1.33-.15-2v-4.96c0-2.84-.82-4.56-4.35-4.56h0Zm35.96,0c-1.24,0-2.48.28-3.59.85l.18,2.17c.91-.7,2-1.09,3.11-1.12,1.57,0,2.11,1.06,2.11,2.18v.42h-.55c-3.48,0-5.98.79-5.98,3.87,0,2.12,1.63,3.33,3.39,3.33,1.63,0,2.48-.79,3.17-1.72h.03c-.03.51.03,1.03.15,1.54h2.48c-.09-.66-.15-1.33-.15-2v-4.96c0-2.84-.82-4.56-4.35-4.56h0Zm23.27,0c-2.3,0-4.98,1.24-5.01,5.83,0,4.77,2.69,5.86,5.01,5.86s4.99-1.09,4.99-5.86-2.66-5.83-4.99-5.83Zm-76.06.03c-1.69,0-2.57,1.36-2.9,2.24h-.03c0-.7-.06-1.39-.09-2.09h-2.48c.06.63.09,1.24.09,1.88v9.52h2.72v-6.22c0-2.12,1.24-2.81,2.36-2.81.27,0,.54.06.78.12v-2.57c-.15-.03-.3-.06-.45-.06h0Zm5.26,0c-2.99,0-4.11,2.75-4.11,5.89,0,4.59,2.39,5.65,3.96,5.65,1.78,0,2.54-1.06,2.99-1.93h.03v1.09c0,1.78-.43,3.56-2.99,3.56-1.18-.03-2.33-.36-3.35-.96l-.12,2.42c1.24.45,2.56.69,3.89.69,4.17,0,5.26-2.5,5.26-6.07v-8.37c0-.6.06-1.18.09-1.78h-2.48c-.03.57-.09,1.15-.09,1.75h-.09c-.57-1-1.33-1.93-2.99-1.93h0Zm23.75,0c-1.84,0-2.63,1.21-3.02,1.9h-.03c0-.57-.06-1.18-.09-1.75h-2.57c.06.63.09,1.24.09,1.88v9.46h2.72v-6.62c0-1.45.51-2.66,1.93-2.66,1.12,0,1.57.72,1.57,2.48v6.83h2.75v-7.32c0-2.3-.79-4.2-3.36-4.2h0Zm59.83,0c-1.84,0-2.63,1.21-3.02,1.9h-.03c0-.57-.06-1.18-.09-1.75h-2.57c.06.63.09,1.24.09,1.88l.03,9.46h2.72v-6.62c0-1.45.51-2.66,1.93-2.66,1.12,0,1.57.72,1.57,2.48v6.83h2.72v-7.32c0-2.3-.79-4.2-3.36-4.2h0Zm-54.33.15v11.36h2.72v-11.36h-2.72Zm5.02,0v2.09h4.71l-4.87,6.92h-.03v2.36h7.77v-2.09h-4.93l4.78-6.95v-2.33h-7.43Zm27.29,0l.03,11.36h2.72v-11.36h-2.75Zm9.25,1.78c1.78,0,2.18,1.99,2.18,3.9s-.42,3.93-2.18,3.93-2.17-2.03-2.17-3.93.39-3.9,2.17-3.9Zm-70.11.15c1.3-.03,2.21,1.24,2.21,3.63,0,2.57-.7,3.81-2.42,3.81-.94,0-1.78-1.12-1.78-3.78,0-2.3.54-3.63,2-3.66Zm12.42,3.87h.24l.03.67c0,2.02-.61,3.23-2.24,3.23h-.21c-.91-.06-1.6-.85-1.54-1.75,0-1.66,1.39-2.15,3.72-2.15h0Zm35.96,0h.27v.67c0,2.02-.61,3.23-2.24,3.23h-.21c-.91-.06-1.6-.85-1.54-1.75,0-1.66,1.39-2.15,3.72-2.15h0Z"/>
</svg>