<?xml version="1.0" encoding="UTF-8"?>
<svg id="Layer_1" data-name="Layer 1" xmlns="http://www.w3.org/2000/svg" viewBox="0 0 120 120">
  <defs>
    <style>
      .cls-1 {
        fill: #818282;
      }

      .cls-1, .cls-2 {
        fill-rule: evenodd;
      }

      .cls-2 {
        fill: #5eb34c;
      }
    </style>
  </defs>
  <path class="cls-1" d="m78.72,43.18c-6.26,0-10.92,4.2-10.92,10.58s4.76,10.61,11.07,10.61c2.62,0,5.39-.51,7.74-1.72v-10.61h-8.99l2.18,3.78h2.48v3.85c-1.01.44-2.07.58-3.16.58-3.97,0-6.28-2.6-6.28-6.48,0-3.54,2.4-6.42,6.05-6.42,1.68,0,3.41.57,4.56,1.85l2.97-3.39c-1.99-1.85-5.05-2.61-7.7-2.61Z"/>
  <path class="cls-1" d="m91.3,58.4c1.03,1.22,2.79,2.11,4.39,2.11,1.02,0,2.15-.25,2.66-1.22.61-1.14.12-2.22-.91-2.86-2.05-1.28-4.64-1.17-6.67-3.03-1.79-1.65-2.09-4.7-.92-6.76,1.43-2.51,4.35-3.42,7.09-3.42,2.32,0,4.79.86,6.52,2.41l-2.99,3.16c-.84-1.01-2.31-1.71-3.62-1.71-1.01,0-2.02.21-2.64,1.09-.62.87-.27,2.04.6,2.58,1.91,1.18,4.4,1.23,6.46,2.78,2.23,1.67,2.68,4.71,1.45,7.16-1.35,2.65-4.21,3.69-7.05,3.69-2.66,0-5.58-.9-7.47-2.83l3.08-3.14Z"/>
  <path class="cls-1" d="m54.09,58.4c1.03,1.22,2.79,2.11,4.39,2.11,1.02,0,2.14-.25,2.66-1.22.61-1.14.12-2.22-.91-2.86-2.05-1.28-4.64-1.17-6.67-3.03-1.79-1.65-2.09-4.7-.92-6.76,1.43-2.51,4.35-3.42,7.09-3.42,2.32,0,4.79.86,6.52,2.41l-2.99,3.16c-.84-1.01-2.31-1.71-3.62-1.71-1.01,0-2.02.21-2.64,1.09-.62.87-.27,2.04.6,2.58,1.91,1.18,4.41,1.23,6.46,2.78,2.23,1.67,2.69,4.71,1.45,7.16-1.35,2.65-4.21,3.69-7.04,3.69-2.66,0-5.58-.9-7.48-2.83l3.08-3.14Z"/>
  <path class="cls-2" d="m27.72,36.35l1,6.32c.19.03.38.06.57.1l.2,1.9c.29-.03.59-.05.88-.05v-8.48c-.9,0-1.79.07-2.65.21Zm.42,6.23l-1.29-6.07c-.88.18-1.73.44-2.55.75l2.01,5.24c.21,0,.42,0,.62,0l.82,2.53c.28-.09.56-.17.86-.23l-.47-2.22Zm-2.47-.04l-2.2-4.94c-.81.36-1.6.79-2.34,1.27l2.58,3.98c.22-.05.43-.1.66-.14l1.76,3.04c.26-.15.52-.28.79-.4l-1.25-2.81Zm-2.61.49l-2.66-3.65c-.72.52-1.39,1.1-2.02,1.73l2.7,2.7c.22-.11.43-.21.65-.3l2.96,3.29c.22-.2.45-.39.69-.56l-2.33-3.21Zm-2.62,1.12l-2.67-2.4c-.59.66-1.13,1.36-1.62,2.11l2.42,1.57c.2-.16.4-.32.6-.47l4.34,3.15c.17-.24.36-.47.56-.69l-3.64-3.27Zm2.39,5.08h0s0-.02,0-.02h0s0-.02,0-.02h0s0-.01,0-.01h0s0-.01,0-.01h0s0-.01,0-.01h0s0-.01,0-.01h0s0-.02,0-.02h0s0-.01,0-.01h0s0-.02,0-.02v-.02s.02,0,.02,0h0s0-.02,0-.02h0s0-.01,0-.01h0s-.11.2-.11.2Zm11.05-12.61c-.28-.08-.57-.15-.86-.21-.57-.12-1.16-.2-1.76-.25l-.37,7.04c.17.06.34.12.5.19l-.13,1.27c.3.03.59.08.88.14l.21-.98,1.53-7.19Zm-10.9,12.33h0s0-.01,0-.01h0s0-.01,0-.01h0s0,0,0,0h0s0,0,0,0h0s0,0,0,0h0s0-.01,0-.01h0s0-.02,0-.02h0s0-.02,0-.02h0,0l-.06.1Zm0,0h0s0,0,0,0Zm0,.01h0s0,0,0,0h0s0,0,0,0Zm.07-.12h0l-5.04-2.91-2.3-1.33c-.44.77-.82,1.57-1.15,2.4l1.87.72c.16-.22.32-.43.49-.64l5.71,2.54c.06-.13.13-.27.2-.4h0s0,0,0,0h0c.04-.07.08-.15.12-.22h0s.01-.02.01-.02h0s0,0,0,0l.08-.15Zm-.78,1.6l-6.3-2.05-1.71-.56c-.27.84-.48,1.7-.62,2.59l1.21.2c.1-.26.21-.52.33-.77l6.78,1.44c.05-.14.1-.28.15-.43l.09.03c.04-.15.08-.29.13-.43l-.06-.02Zm-.56,1.73l-7.13-.75-1.05-.11c-.06.58-.09,1.17-.09,1.77,0,.3.01.59.03.89l.6-.03c.03-.29.07-.57.12-.86h7.34c.03-.15.05-.31.09-.46l.32.02c0-.15.02-.29.03-.44l-.25-.03Zm.25,1.8l-.57.06-7.39.78-.48.05c.09.9.25,1.77.48,2.62l.18-.05c-.05-.29-.09-.58-.12-.87l7.28-1.55c0-.16,0-.33.02-.49l.66-.1c-.02-.14-.04-.29-.06-.44Zm-.55,2.56l1.06-.41c-.05-.14-.1-.28-.15-.42l-.96.31-6.99,2.27-.11.04c.19.57.4,1.12.63,1.66h.03s6.55-2.93,6.55-2.93c-.03-.17-.05-.35-.06-.52Zm1.87,1.17c-.08-.12-.16-.25-.23-.38l-1.37.79-5.98,3.45c.3.52.62,1.01.97,1.49l5.32-3.86c-.06-.18-.11-.36-.16-.54l1.46-.95Zm1.11,1.38c-.11-.11-.21-.21-.31-.32l-1.69,1.52-4.61,4.15c.4.44.81.86,1.25,1.25l3.89-4.32c-.1-.18-.19-.36-.28-.54l1.74-1.74Zm1.38,1.11c-.13-.08-.25-.16-.37-.25l-1.81,2.49-3.18,4.37c.48.35.98.67,1.49.97l2.48-4.3c-.14-.17-.28-.34-.42-.51l1.8-2.76Zm1.58.8c-.14-.05-.28-.11-.41-.17l-1.61,3.62-1.84,4.13c.54.24,1.09.45,1.66.64l1.25-3.86c-.19-.14-.37-.29-.55-.44l1.5-3.92Zm1.71.46c-.15-.02-.29-.05-.44-.08l-1.02,4.78-.74,3.51c.57.12,1.16.22,1.75.28l.32-3.1c-.23-.1-.46-.21-.68-.32l.8-5.07Zm2.87,6.29c-.26-.05-.52-.1-.78-.16l-.32-6.01h0v-.03c-.15,0-.3,0-.45,0h0v8.48h0c.6,0,1.19-.03,1.77-.09l-.23-2.2Zm3.27.13c-.28.02-.55.04-.83.05l-1.73-6.45c.3-.04.61-.1.91-.17l-.05-.12-.07-.18c-.41.16-.84.28-1.28.38v.06s.03.09.03.09l1.36,6.39.37,1.76c.58-.12,1.16-.28,1.72-.46l-.44-1.34Zm3.3-.75c-.27.1-.54.19-.81.27l-3.23-6.34c.3-.1.61-.21.9-.33l-.09-.13-.26-.4c-.37.24-.76.45-1.17.64l.1.23.06.13,2.86,6.42.43.97c.54-.24,1.07-.51,1.58-.81l-.37-.64Zm3.06-1.64c-.24.17-.48.34-.73.49l-4.58-5.66c.3-.15.59-.32.87-.5l-.73-.73c-.31.31-.65.6-1.01.86l.33.46.1.13,4.27,5.89.28.39c.48-.35.94-.72,1.38-1.12l-.18-.2Zm1.96-1.77l-5.54-4.49c.28-.21.56-.44.82-.68l-.1-.07-1.19-.78c-.24.37-.51.73-.81,1.05l.75.67.11.1,5.36,4.82.08.08c.2-.22.39-.45.58-.67l-.05-.04Zm-3.93-5.95c.26-.28.51-.57.74-.87l-.08-.03-1.95-.75c-.16.42-.35.82-.58,1.2l1.37.79.1.05,5.88,3.4c.15-.26.29-.52.42-.78l-5.91-3.01Zm1.43-1.84c.22-.35.43-.7.62-1.07h-.03s-2.83-.45-2.83-.45c-.07.44-.17.87-.31,1.29l2.16.7.07.02,5.84,1.9c.09-.28.17-.56.25-.85l-5.76-1.54Zm1.15-2.23c.16-.41.31-.83.43-1.26h0l-3.74.2c0,.15.01.3.01.45,0,.3-.02.59-.05.88l3.06.32h.03s0,0,0,0l5.34.56c.03-.29.05-.59.07-.88l-5.16-.27Zm4.97-3.27l-4.23.67c.08-.47.14-.94.17-1.42l-4.5,1.21c.11.42.2.86.24,1.31l3.95-.41h0l4.49-.47c-.03-.3-.07-.59-.11-.88Zm-.92-3.43l-3.13,1.2c-.03-.51-.08-1.02-.17-1.51l-4.98,2.54c.2.39.37.8.51,1.23l4.65-1.51,3.42-1.11c-.09-.28-.19-.56-.3-.83Zm-3.84-5.91l-1.13,1.13c-.29-.48-.61-.93-.96-1.36l-4.44,5.49c.11.11.21.22.31.33l-.1.1c.22.2.43.41.63.63l.05-.04,4.92-4.43,1.34-1.21c-.2-.22-.4-.43-.61-.64Zm-2.02-1.73c-.24-.17-.48-.34-.73-.5l-.49.75c-.42-.4-.86-.76-1.32-1.1l-3.36,6.59c.12.1.25.19.37.29l-.2.34c.26.15.5.31.74.48l.15-.2,4.21-5.8.62-.86Zm-3.07-1.78c-.27-.12-.54-.23-.82-.34l-.14.35c-.52-.27-1.05-.51-1.6-.71l-1.92,7.15c.15.08.29.16.43.25l-.24.73c.28.09.56.2.83.32l.23-.52,3.02-6.79.2-.45Zm7.32,6.26l-2.04,1.33c-.16-.52-.34-1.02-.56-1.5l-5,4.05h-.01c.1.16.19.28.26.37.17.24.34.49.48.74l5.04-2.91,2.3-1.33c-.15-.26-.3-.51-.46-.76Zm-5.52,14.27l.1.05-.1-.05Zm2.79-3.82h.03s-.03,0-.03,0Z"/>
  <g>
    <path class="cls-1" d="m4.91,77.39c-.29,0-.51-.17-.51-.47s.23-.46.51-.46.51.17.51.46-.22.47-.51.47Zm1.05,3.56v-1.84c-.62,0-1.44.1-1.44.92s.8.92,1.44.92Zm2.81,2.18c-.1.08-.22.12-.36.12s-.26-.04-.36-.12c-.1-.08-.15-.19-.15-.35,0-.14.05-.25.15-.34.1-.09.22-.13.36-.13s.26.04.36.13c.1.09.15.2.15.34,0,.15-.05.27-.15.35Zm1.41,0c-.1.08-.22.12-.36.12s-.26-.04-.36-.12c-.1-.08-.15-.19-.15-.35,0-.14.05-.25.15-.34.1-.09.22-.13.36-.13s.27.04.36.13c.1.09.14.2.14.34,0,.15-.05.27-.15.35Zm.51-2.18h.64v-2.75h.91v.33h1.98c1.22,0,1.73.61,1.73,1.79v1.54H5.83c-1.18,0-2.23-.51-2.23-1.83s1.18-1.83,2.35-1.83v-.33h.91v3.08h.6s1.24,0,1.24,0v-2.75h.91v2.75h1.07Zm1.55-1.52v1.52h2.8v-.67c0-.46-.22-.85-.73-.85h-2.08Zm1.38-1.49c-.3,0-.54-.17-.54-.49s.25-.48.54-.48.53.18.53.48-.23.49-.53.49Zm2.93,5.3l-.07-.91c.23.06.65.13.81-.09.07-.1.11-.26.11-.49v-3.55h.91v3.41c0,.59-.07,1.33-.7,1.58-.29.11-.75.13-1.06.04Zm2.51-2.28h1.86c.59,0,1.01-.27,1.01-.9v-3.95h1.33v.91h-.42v3c0,1.38-.83,1.84-2.11,1.84h-1.55l-.11-.91Zm.55-4.39c0-.55.27-.81.82-.81h.33v.29h-.27c-.23,0-.35.09-.35.33h.83v.49h-1.35v-.3Zm.38.64h.91v3.43h-.91v-3.43Zm4.42-.61h.91v5.28h-.91v-5.28Zm5.77,5.28c-1.27,0-2.09-.47-2.09-1.88v-1.23h.91v1.12c0,.87.42,1.08,1.24,1.08h1.82v-2.75h.91v3.66h-2.8Zm-.32-3.87c-.29,0-.51-.17-.51-.47s.23-.46.51-.46.51.17.51.46-.22.47-.51.47Zm1.41,0c-.29,0-.51-.17-.51-.47s.23-.46.51-.46.51.17.51.46-.22.47-.51.47Zm4.69,2.96h.5c-.04-.14-.04-.28-.04-.42,0-1.08.85-1.99,1.94-1.99s1.98.88,1.98,1.99-.9,1.94-1.98,1.94c-.54,0-1.04-.23-1.42-.62h-2.73v-5.28h.91v4.37h.83Zm2.4.62c.6,0,1.07-.44,1.07-1.05s-.45-1.07-1.07-1.07-1.03.48-1.03,1.07.45,1.05,1.03,1.05Zm8.82-4.04c-.3,0-.53-.17-.53-.49s.25-.48.53-.48.53.18.53.48-.24.49-.53.49Zm4.87,3.42h.51v-4.36h1.33v.91h-.42v4.36h-12.66v-.91h2.27v-.99c0-.81-.47-.85-1.12-.85v-.91c1.34,0,2.03.33,2.03,1.79v.96h.7s3.47,0,3.47,0c.13-.52.24-1.32-.21-1.72-.47-.41-1.23-.27-1.71.04l-.38-.79c.82-.47,2-.64,2.73.1.65.65.66,1.53.5,2.37h.58s.64,0,.64,0v-4.36h.91v4.36h.83Zm5.72-3.56c-.29,0-.51-.17-.51-.47s.23-.46.51-.46.51.17.51.46-.22.47-.51.47Zm1.05,3.56v-1.84c-.62,0-1.44.1-1.44.92s.8.92,1.44.92Zm.36-3.56c-.29,0-.51-.17-.51-.47s.23-.46.51-.46.51.17.51.46-.22.47-.51.47Zm1.15,3.56h1.24v-2.75h.91v3.66h-3.79c-1.18,0-2.22-.51-2.22-1.83s1.18-1.83,2.35-1.83v-.33h.91v3.08h.6Zm.6,2.3c-.28,0-.51-.16-.51-.46s.23-.47.51-.47.51.18.51.47-.22.46-.51.46Zm1.41,0c-.28,0-.51-.16-.51-.46s.23-.47.51-.47.51.18.51.47-.22.46-.51.46Zm.86-2.3h2.27v-.99c0-.46-.22-.85-.73-.85h-.39v-.91h.3c1.22,0,1.73.61,1.73,1.79v1.87h-3.18v-.91Zm4.78-.92c0,.88.78.92,1.44.92v-1.84h-.38c-.53,0-1.05.35-1.05.92Zm4.14-.76l.59,1.68h.78l.59-1.68c-.66-.46-1.31-.48-1.97,0Zm11.4,1.68h.5v-4.36h1.33v.91h-.42v4.36h-1.55c-.42-.02-.8-.15-1.03-.54-.27.4-.74.6-1.39.6-.52,0-1.01-.15-1.3-.62-.34.35-.81.56-1.29.56h-8.07c-.05.63-.29,1.11-.92,1.33-.57.19-1.13.1-1.69-.05l-.07-.92c.42.13.84.2,1.28.14.31-.03.45-.2.49-.5-1.23,0-2.34-.42-2.34-1.83,0-1.26,1.1-1.83,2.23-1.83h1.03v2.75s1.58,0,1.58,0l-.81-2.07c1.37-1.17,2.56-1.31,4,0l-.78,2.06h2.49v-2.42h.91v2.42h.66c.52,0,.86-.27.86-.81v-1.61h.91v1.57c0,.54.25.92.82.92.52,0,.78-.31.78-.82v-2.45h.9v2.34c0,.19-.02.38-.04.57.19.2.49.3.91.3Zm2.94-4.36h.91v5.28h-.91v-5.28Zm5.02.81c-.29,0-.51-.17-.51-.47s.23-.46.51-.46.51.17.51.46-.22.47-.51.47Zm1.05,3.56v-1.84h-.35c-.54,0-1.09.33-1.09.92s.5.92,1.05.92h.4Zm.36-3.56c-.29,0-.51-.17-.51-.47s.23-.46.51-.46.51.17.51.46-.22.47-.51.47Zm1.15,3.56h3.93v-.7c0-.46-.22-.85-.73-.85h-2.72c-.2-.26-.3-.58-.31-.9l1.05-1.91h.98l-1.01,1.91h1.92c1.22,0,1.73.61,1.73,1.79v1.57h-6.48c-1.18,0-2.22-.51-2.22-1.83s1.09-1.83,2.22-1.83h.13v-.33h.91v3.08h.6Zm12.54-3.34c-.28,0-.49-.17-.49-.46s.22-.45.49-.45.5.17.5.45-.22.46-.5.46Zm.69-1.03c-.24,0-.44-.15-.44-.4s.2-.4.44-.4.44.15.44.4-.19.4-.44.4Zm.69,1.03c-.28,0-.49-.17-.49-.46s.22-.45.49-.45.49.17.49.45-.21.46-.49.46Zm3.13,3.34h.51v-4.36h1.33v.91h-.42v4.36h-1.55c-.42-.03-.8-.15-1.03-.54-.27.4-.73.6-1.38.6-.52,0-1.01-.15-1.29-.62-.33.35-.81.56-1.29.56h-4.73c-.03.5-.14.87-.34,1.09-.2.23-.52.34-.95.34-.09,0-.17,0-.25-.02-.08-.01-.15-.03-.21-.04l-.07-.91c.09.02.16.04.23.05.07,0,.13.01.2.01.18,0,.31-.05.38-.15.07-.1.11-.26.11-.49v-3.55h.91v2.75h.7s2.45,0,2.45,0v-2.43h.91v2.43h.66c.52,0,.86-.28.86-.81v-1.61h.91v1.61c0,.52.28.88.82.88s.78-.31.78-.82v-2.45h.9v2.34c0,.2-.01.41-.05.61.22.19.61.26.9.26Zm2.95-4.36h.91v5.28h-.91v-5.28Zm-107.7.81c-.29,0-.51-.17-.51-.47s.23-.46.51-.46.51.17.51.46-.22.47-.51.47Z"/>
    <path class="cls-1" d="m8.31,90.88c-.69-.42-.7-1.42-.04-1.87.51-.36,1.34-.35,1.94-.26,0-.53-.4-.59-.85-.59-.4,0-.92.15-1.29.33l.12-.93c.37-.19.88-.27,1.29-.27.97,0,1.63.41,1.63,1.45v2.13c-.76.29-2.08.46-2.81.01Zm1.9-1.39c-.34-.08-.89-.13-1.22.02-.32.15-.36.57-.02.72.34.15.88.12,1.24,0v-.74Zm4.11-2.07h.91v3.47c-1.24.42-3.23.6-3.23-1.24v-2.24h.91v1.98c0,1,.64.97,1.41.78v-2.76Zm4.35-1.61h.91v5.17c-1.48.41-3.61.26-3.61-1.74,0-1.57,1.35-2.08,2.7-1.89v-1.54Zm-1.74,3.43c0,1.03.95,1.14,1.74.96v-1.94c-.79-.21-1.74-.04-1.74.98Zm4.16-2.39c-.3,0-.54-.17-.54-.49s.25-.48.54-.48.53.18.53.48-.23.49-.53.49Zm-.46.57h.91v3.66h-.91v-3.66Zm6.41,3.74c-1.62,0-2.73-1.11-2.73-2.73s1.11-2.72,2.73-2.72c.62,0,1.39.12,1.93.45l-.36.83c-.45-.27-1.01-.39-1.53-.39-1.11,0-1.78.74-1.78,1.83s.67,1.84,1.78,1.84c.36,0,.75-.08,1.08-.23v-.95h-1.18v-.88h2.12v2.46c-.53.33-1.46.48-2.06.48Zm5.36-2.93c-.27,0-.96-.02-1.22.07v2.78h-.91v-3.57c.76-.14,1.35-.16,2.13-.16v.87Zm2.39,2.93c-1.1,0-1.98-.82-1.98-1.93s.91-1.94,1.98-1.94,1.98.83,1.98,1.94-.89,1.93-1.98,1.93Zm0-.89c.61,0,1.03-.44,1.03-1.04s-.42-1.05-1.03-1.05-1.03.46-1.03,1.05.42,1.04,1.03,1.04Zm4.94-2.85h.91v3.47c-1.24.42-3.23.6-3.23-1.24v-2.24h.91v1.98c0,1,.65.97,1.41.78v-2.76Zm1.97.06c1.28-.23,3.34-.61,3.34,1.31v2.29h-.91v-2.03c0-1.03-.77-.92-1.52-.8v2.83h-.91v-3.6Zm6.71-1.67h.91v5.17c-1.49.41-3.61.26-3.61-1.74,0-1.57,1.35-2.08,2.7-1.89v-1.54Zm-1.74,3.43c0,1.03.95,1.14,1.74.96v-1.94c-.79-.21-1.74-.04-1.74.98Zm5.79.63c.62.35,2.67.82,2.67-.29,0-1.19-3.06-.37-2.89-2.53.13-1.69,2.67-1.53,3.76-.87l-.37.83c-.46-.3-2.3-.78-2.42.1-.15,1.14,2.91.44,2.91,2.47,0,1.89-2.86,1.83-4.03,1.11l.37-.83Zm7.38.08l.4.81c-.51.28-1.02.4-1.6.4-1.12,0-2.01-.79-2.01-1.93s.84-1.94,1.94-1.94c1.29,0,1.94,1.03,1.89,2.24h-2.9c.13.54.58.74,1.1.74.42,0,.82-.07,1.17-.33Zm-1.28-1.85c-.44,0-.84.24-.96.68h1.91c-.1-.48-.49-.68-.95-.68Zm4.74.14c-.27,0-.96-.02-1.22.07v2.78h-.91v-3.57c.76-.14,1.35-.16,2.13-.16v.87Zm1.65,2.85l-1.26-3.66h.96l.93,2.8.93-2.8h.96l-1.26,3.66h-1.25Zm3.56-4.24c-.3,0-.53-.17-.53-.49s.25-.48.53-.48.53.18.53.48-.23.49-.53.49Zm-.45.57h.91v3.66h-.91v-3.66Zm1.65,1.81c0-1.13.85-1.94,1.97-1.94.45,0,.86.09,1.27.3l-.36.82c-.27-.15-.56-.23-.86-.23-.63,0-1.05.42-1.05,1.05s.42,1.04,1.05,1.04c.31,0,.6-.07.86-.23l.36.83c-.41.21-.81.29-1.27.29-1.12,0-1.97-.81-1.97-1.93Zm6.84.71l.4.81c-.51.28-1.02.4-1.6.4-1.12,0-2.01-.79-2.01-1.93s.84-1.94,1.94-1.94c1.29,0,1.94,1.03,1.89,2.24h-2.9c.13.54.58.74,1.1.74.33,0,.83-.1,1.17-.33Zm-1.28-1.85c-.44,0-.84.24-.96.68h1.91c-.1-.48-.49-.68-.95-.68Zm4.14,2.17c.19,0,.68-.02.68-.29,0-.45-1.33-.39-1.87-.81-.51-.4-.45-1.2.06-1.57.64-.48,1.99-.35,2.68.03l-.33.85c-.42-.22-1.12-.35-1.59-.28-.29.04-.36.28-.13.43.63.39,2.15.08,2.15,1.41,0,.89-.95,1.13-1.67,1.13-.51,0-1.19-.12-1.64-.38l.35-.88c.37.24.88.37,1.32.37Zm6.99-3.67c-1.11,0-1.78.74-1.78,1.83s.66,1.84,1.78,1.84c.49,0,.93-.13,1.35-.4l.36.83c-.5.31-1.16.45-1.75.45-1.62,0-2.73-1.11-2.73-2.73s1.11-2.72,2.73-2.72c.59,0,1.24.14,1.75.45l-.36.83c-.41-.25-.86-.39-1.35-.39Zm4.04,4.56c-1.1,0-1.98-.82-1.98-1.93s.89-1.94,1.98-1.94,1.98.83,1.98,1.94-.89,1.93-1.98,1.93Zm0-.89c.61,0,1.03-.44,1.03-1.04s-.42-1.05-1.03-1.05-1.03.45-1.03,1.05.42,1.04,1.03,1.04Zm7.2-1.22c0-.96-.7-1.04-1.41-.71.07.14.1.52.1.68v2.06h-.91v-2.04c0-1.02-.59-.91-1.34-.79v2.82h-.91v-3.59c.67-.12,1.98-.41,2.56.07,1.27-.52,2.83-.42,2.83,1.24v2.29h-.91v-2.04Zm2.81,3.47h-.91v-5.03c.96-.28,2.28-.36,3.05.36.76.71.74,2.04,0,2.76-.57.55-1.39.63-2.14.51v1.4Zm0-2.31c.46.11,1.04.13,1.43-.19.43-.35.44-1.23,0-1.57-.41-.33-.95-.28-1.43-.18v1.94Zm3.8.69c-.69-.41-.7-1.42-.04-1.87.52-.36,1.35-.35,1.94-.26,0-.53-.4-.59-.85-.59-.4,0-.92.15-1.29.33l.12-.93c.37-.19.88-.27,1.3-.27.97,0,1.63.41,1.63,1.45v2.13c-.76.29-2.08.46-2.81.01Zm1.9-1.39c-.34-.08-.89-.13-1.22.02-.32.15-.36.57-.02.72.34.15.88.12,1.24,0v-.74Zm1.89-2.02c.79-.14,2.18-.38,2.84.11.38.29.49.75.49,1.2v2.29h-.91v-2.03c0-.33-.07-.56-.21-.68-.31-.28-.92-.18-1.31-.12v2.83h-.91v-3.6Zm4.29,3.96c.35.15.9.27,1.29.27.48,0,.96-.1.96-.69-1.22.26-2.32.03-2.32-1.42v-2.18h.92v1.92c0,.97.62,1,1.41.77v-2.69h.91v3.39c0,1.32-.5,1.72-1.79,1.74-.39,0-.8-.05-1.17-.16l-.19-.95Zm-108.88-1.57c.39.22.69.31,1.13.38.51.08,1.55.06,1.55-.66,0-.36-.28-.53-.59-.62-.66-.21-1.45-.27-1.94-.81-.37-.41-.48-1.08-.23-1.58.33-.64,1.1-.86,1.78-.86.57,0,1.35.17,1.85.47l-.37.83c-.41-.27-1-.41-1.48-.41-.29,0-.69.07-.86.32-.15.21-.07.51.12.67.32.25,1.25.39,1.71.59.6.26,1,.73,1,1.4,0,1.39-1.54,1.68-2.64,1.54-.45-.06-1-.19-1.39-.43l.37-.83Z"/>
  </g>
</svg>