<?xml version="1.0" encoding="UTF-8"?>
<svg id="Layer_1" data-name="Layer 1" xmlns="http://www.w3.org/2000/svg" viewBox="0 0 120 120">
  <defs>
    <style>
      .cls-1 {
        fill: #b6932d;
      }
    </style>
  </defs>
  <path class="cls-1" d="m78.83,53.75c-.69-.39-1.44-.71-2.2-.96-1.95-.62-4.03-.78-6.07-.44-.89.14-1.78.37-2.63.67l-.26.09c-.48.18-.94.39-1.39.62-.39.21-.78.43-1.19.66-.92.55-1.79,1.15-2.64,1.81-.68-4.67-.76-9.39-.27-14.09,0-.02.02-.02.02-.02h.02c2.09,1.31,1.51,4.99,1.06,6.05t.02.02h.02c1.77-2.04,2.07-4.97.8-7.33-.02-.02.02-.04.04-.02.35.28.67.6.94.96.69.91,1.1,1.99,1.19,3.12.04.46.04.94,0,1.42,0,.11-.02.21-.02.32,0,.02.02.02.02.02h.02c.89-1.72.87-3.78-.02-5.5-.32-.59-.71-1.14-1.19-1.62-.16-.16-.32-.3-.46-.44-.02-.02,0-.04.02-.04.16.04.32.09.46.14.42.14.81.36,1.19.62.75.57,1.33,1.33,1.65,2.22.25.64.37,1.33.37,2.02,0,.02.02.02.02.02.02,0,.02-.02.02-.02.46-1.38.3-2.89-.43-4.15-.41-.66-.98-1.21-1.65-1.6-.37-.23-.76-.41-1.19-.53-.18-.06-.37-.11-.57-.13-.02,0-.02-.04,0-.04.19-.02.37-.04.57-.04.39-.02.8.02,1.19.09.59.11,1.15.32,1.65.66.46.3.84.71,1.1,1.19,0,.02.04,0,.04-.01-.07-.87-.5-1.67-1.15-2.22-.48-.41-1.05-.71-1.65-.87-.39-.11-.78-.16-1.19-.18-.52-.02-1.01.07-1.47.27t-.02-.02v-.02c.37-.51.89-.89,1.51-1.06.39-.13.78-.16,1.19-.14.34.02.66.09.98.23.02.02.04-.02.02-.04-.29-.32-.62-.61-.99-.8-.37-.21-.76-.34-1.19-.39-1.14-.12-2.26.43-2.86,1.42h-.04c-.14-.27-.28-.54-.39-.8-.3-.69-.51-1.42-.64-2.15t-.02-.02s-.02,0-.02.02c-.12.74-.35,1.47-.66,2.16-.12.26-.25.53-.39.8h-.02c-.89-1.44-2.77-1.86-4.21-.98-.32.2-.6.46-.83.76v.04h.02c1.29-.53,2.8-.14,3.66.98v.04h-.02c-1.65-.6-3.5-.14-4.68,1.15-.44.51-.71,1.15-.76,1.84,0,.02.04.04.04.02.19-.34.42-.64.73-.89,1.06-.85,2.43-1.23,3.78-1.01.02,0,.02.02.02.02l-.02.02c-1.7.29-3.12,1.44-3.78,3.02-.37,1.1-.39,2.27-.04,3.37,0,.02.02.02.02.02t.02-.02v-.09c-.04-2.29,1.47-4.31,3.67-4.91t.02.02v.02c-2.29,1.81-2.98,4.97-1.67,7.56,0,.02.01.02.01.02.02,0,.02-.02.02-.02-.37-2.16.42-4.38,2.09-5.8.02-.02.05,0,.04.02-1.3,2.38-.98,5.29.8,7.33.02.02.05,0,.04-.01-.44-1.05-1.03-4.72,1.06-6.05h.04v.02c.5,4.68.41,9.42-.27,14.09-1.58-1.28-3.33-2.31-5.22-3.09-.21-.07-.43-.16-.64-.23-1.58-.53-3.25-.76-4.91-.69-1.76.07-3.5.51-5.08,1.28-.19.11-.37.2-.5.26-.02.02-.04.04-.02.07.02.02.04.04.07.02l.46-.12c1.65-.48,3.37-.64,5.08-.5,1.7.16,3.37.6,4.91,1.33,2.11.99,4.08,2.29,5.85,3.82-1.84,1.79-3.81,3.46-5.85,5-.07.04-.12.07-.19.11-.44-.62-1.31-.74-1.92-.3-.27.19-.44.46-.53.78-.11.41,0,.85.26,1.19.62.64,1.58.78,2.36.36,1.7-.73,3.87-3,6.49-5.4.21-.19.44-.41.68-.6.23.19.44.41.66.6,1.19,1.08,2.29,2.15,3.28,3.05.41.37.8.71,1.19,1.03.51.43,1.06.82,1.65,1.14.78.59,1.86.55,2.63-.06.04-.04.09-.07.12-.11.25-.34.34-.76.27-1.19-.12-.5-.51-.89-1.03-1.01-.53-.12-1.1.09-1.42.53-.19-.11-.39-.21-.57-.34-.57-.41-1.12-.85-1.65-1.33-.37-.32-.76-.67-1.19-1.06-.82-.73-1.7-1.56-2.64-2.38.83-.69,1.72-1.39,2.64-2,.39-.27.78-.51,1.19-.75.53-.32,1.08-.62,1.65-.89.85-.41,1.72-.74,2.63-1.01,1.97-.56,4.03-.69,6.05-.37.73.12,1.46.28,2.17.51.02.02.05,0,.07-.02,0-.11-.02-.14-.04-.14m3.49,28.6h-42.28V16.05h42.28v66.31Z"/>
  <path class="cls-1" d="m24.41,95.66c0,.12-.04.24-.12.33-.09.08-.21.12-.33.12h-1.89c-.57,0-.86-.3-.86-.9v-.04c-.07-.44.23-.85.66-.92.06-.01.14-.01.2,0h.36s.81,0,.81,0v-.81h-1.18c-.46-.01-.9.17-1.21.5-.34.33-.52.79-.51,1.26,0,.32.09.64.26.91h-2.02v-4.62c-.44-.01-.76-.01-.98,0v4.62h-.89l-.21-1.34c-.03-.19-.06-.42-.12-.71-.05-.29-.08-.5-.1-.61h-.99l.42,2.67h-1.41v.78h9.73c.91,0,1.37-.44,1.37-1.32v-4.08h-1v4.18Zm1.87-4.2h.98v5.42h-.98v-5.42Zm4.39,1.23c.36,0,.53-.17.53-.52.03-.25-.15-.48-.41-.52-.04,0-.09,0-.13,0-.28,0-.51.24-.51.52s.24.51.52.51m1.37,0c.36,0,.53-.17.53-.52.03-.25-.16-.48-.41-.52-.04,0-.09,0-.13,0-.28,0-.51.24-.51.52s.23.51.52.51m5.49,0c.35,0,.53-.17.53-.52.03-.25-.15-.48-.41-.52-.04,0-.09,0-.13,0-.29,0-.51.24-.51.52s.23.51.52.51m6.55,0c.35,0,.53-.17.53-.52.03-.25-.15-.48-.41-.52-.04,0-.09,0-.13,0-.28,0-.51.24-.51.52s.24.51.52.51m.62,1.54v.11s0,1.76,0,1.76h-.88c-.57,0-.86-.3-.86-.89v-.04c-.07-.44.23-.85.67-.92.06-.01.14-.01.21,0h.36s.51-.01.51-.01Zm-9.17,1.86c0-.31,0-.62.05-.93.08-.4.38-.7.77-.8.14-.04.27-.05.41-.06.21,0,.47-.01.77-.01s.56,0,.77.01c.14,0,.28.02.41.06.39.09.69.4.77.8.04.31.06.61.05.93h-4.01Zm-4.43,0c-.57,0-.86-.3-.86-.9v-.04c-.07-.44.23-.85.67-.92.06-.01.14-.01.21,0h.36s.5,0,.5,0v1.87s-.87,0-.87,0Zm11.52-2.17c-.34.33-.52.79-.51,1.26,0,.32.09.64.26.91h-2.02v-.16c.02-.46-.03-.93-.16-1.37-.2-.61-.74-1.03-1.37-1.09-.29-.04-.59-.06-.87-.04h-.83c-.29,0-.58.01-.87.04-.26.03-.52.12-.75.27v-2.29h-1v4.64h-1.66v-2.67h-1.73c-.46-.01-.9.17-1.21.5-.34.33-.52.79-.51,1.26,0,1.14.58,1.7,1.72,1.7h14.46v-3.46h-1.73c-.46,0-.91.17-1.23.5m12.22,2.33c-.44,0-.66-.34-.66-1.03s.22-1.03.66-1.03.66.34.66,1.03-.21,1.03-.66,1.03m3.35-.59c0,.12-.04.24-.12.33-.09.08-.21.12-.33.12h-.34c-.23,0-.41,0-.55-.02-.18-.02-.31-.15-.36-.32.05-.17.08-.35.08-.54,0-.47-.18-.93-.51-1.26-.64-.68-1.71-.7-2.39-.06-.01.02-.04.04-.06.06-.33.34-.51.79-.51,1.26,0,.17.02.35.07.51-.04.18-.19.32-.37.34-.18.02-.37.02-.54.02h-.77v-.17c.02-.46-.03-.92-.15-1.37-.2-.61-.74-1.04-1.38-1.09-.29-.03-.58-.04-.87-.04h-.59v.87c.06,0,.12,0,.18,0h.6c.07,0,.13.01.18.01.14,0,.28.02.41.06.39.09.69.41.77.81.04.31.05.61.03.93h-3.49v-4.62h-1v5.4h6.51c.31.01.62-.11.84-.34l.09-.06-.03-.04c.61.7,1.68.76,2.38.15.04-.03.08-.07.11-.11l.08.06c.22.23.53.35.84.34h.83c.91,0,1.37-.44,1.37-1.32v-4.08h-1v4.16Zm3.87-3.48c.01.29.26.51.55.5.27-.01.49-.23.5-.5.03-.25-.15-.49-.41-.52-.05,0-.09,0-.14,0-.25-.03-.48.15-.51.4,0,.04,0,.08,0,.12m1.36,0c.01.29.25.51.54.51.28,0,.5-.24.51-.51.03-.25-.16-.48-.41-.52-.28-.03-.54.15-.64.41,0,.04,0,.08,0,.11m2.71,5.39c-.29.01-.51.25-.49.54.01.28.25.51.54.49.28-.01.49-.24.49-.52.03-.25-.15-.48-.41-.51-.04,0-.09,0-.13,0m1.36,0c-.28,0-.51.24-.51.52,0,.29.24.51.53.51.35,0,.53-.17.53-.52.03-.25-.15-.49-.41-.51-.04,0-.09,0-.14,0m13.07-1.32c-.44,0-.66-.34-.66-1.03s.22-1.03.66-1.03.66.34.66,1.03-.22,1.03-.66,1.03m-17.56-.16c-.57,0-.86-.3-.86-.9v-.04c-.07-.44.22-.85.66-.92.07-.01.14-.01.21,0h.36s.5,0,.5,0v1.87s-.86,0-.86,0Zm20.54.78c.91,0,1.37-.44,1.37-1.32v-4.08h-1v4.18c0,.12-.04.24-.12.33-.09.08-.21.12-.33.12h-.34c-.23,0-.41,0-.54-.02-.18-.03-.32-.15-.36-.32.05-.17.08-.35.08-.54,0-.47-.18-.93-.51-1.26-.64-.68-1.71-.7-2.38-.06-.02.02-.04.04-.06.06-.33.34-.51.79-.51,1.26,0,.17.02.35.07.51-.04.18-.19.32-.37.34-.18.02-.36.02-.54.02h-.79v-4.62h-1v4.62h-1.79v-.65c0-.28-.05-.57-.14-.84-.19-.67-.8-1.13-1.49-1.16-.04,0-.08,0-.12,0h-.15v-.02h-2.75c0-.22,0-.45.03-.67.02-.16.15-.29.31-.31.1-.02.19-.03.29-.03h2.11v-.95h-.18s-2.04-.01-2.04-.01c-.14,0-.27.01-.4.04-.45.1-.81.46-.89.92-.02.13-.04.26-.03.4v1.53c.4,0,.8,0,1.21,0,.34,0,.73,0,1.2,0h.51s.06.01.06.01h0s.24,0,.24,0h0s.12,0,.12,0c.14,0,.26.01.39.04.43.09.77.43.85.86.03.12.05.24.05.37v.44h-6.24v-2.68h-.99v2.67h-1.64v-2.67h-1.73c-.46-.01-.9.17-1.21.5-.34.33-.52.79-.51,1.26,0,1.14.58,1.7,1.73,1.7h15.39c.31.01.62-.11.84-.34l.09-.06-.03-.04c.61.7,1.68.77,2.38.15.04-.04.08-.07.11-.11l.08.06c.22.23.52.35.84.34h.82Zm2.23-5.42h.98v5.42h-.98v-5.42Zm3.88.72c-.04.25.14.48.39.51.04,0,.09,0,.12,0,.36,0,.53-.17.53-.52.03-.25-.15-.48-.41-.52-.25-.09-.53.04-.61.3-.03.07-.04.15-.02.23m1.36,0c.01.29.25.51.54.51.28,0,.49-.24.51-.51.03-.25-.15-.49-.41-.52-.05,0-.09,0-.14,0-.25-.03-.48.15-.51.4,0,.03,0,.07,0,.11m2.95.59h1.1v-.33h-.45c-.08,0-.15-.05-.16-.13h0s0-.12,0-.12c0-.1.09-.17.19-.17.07,0,.14,0,.21,0h.06s0-.26,0-.26c-.12-.06-.27-.07-.4-.04-.25.02-.44.24-.42.49,0,.05.01.09.04.14l.02.09h-.18v.33Zm2.03,5.31c-.03.25.14.48.39.51.04,0,.09,0,.13,0,.35,0,.53-.17.53-.52.03-.25-.15-.48-.41-.51-.05,0-.09,0-.14,0-.25-.03-.48.15-.51.4,0,.04,0,.08,0,.11m1.36,0c.01.29.26.51.54.51.28-.01.49-.24.51-.51.03-.25-.15-.48-.41-.51-.04,0-.09,0-.14,0-.25-.03-.48.15-.51.4,0,.03,0,.07,0,.11m-6.78-1.99c-.57,0-.86-.3-.86-.9v-.04c-.07-.44.23-.85.66-.92.07-.01.14-.01.21,0h.36s.5,0,.5,0v1.87s-.87,0-.87,0Zm10.22-.98c.25-.04.48.13.52.38,0,.04,0,.09,0,.13,0,.21-.12.4-.31.47h-.42c-.19-.07-.32-.26-.31-.47-.03-.25.14-.48.4-.51.04-.01.08-.01.13,0m.54-.72c.14,0,.28.02.42.05.39.1.69.41.77.81.04.28.06.56.05.84h-.58c.06-.15.09-.31.09-.47.06-.63-.42-1.18-1.04-1.23.15,0,.25,0,.29,0m-6.07,2.48h9.53c.91,0,1.37-.44,1.37-1.32v-4.08h-1v4.18c0,.12-.03.24-.12.33-.09.08-.21.12-.33.12h-1.34s0-.17,0-.17c.02-.46-.03-.92-.15-1.37-.2-.61-.74-1.04-1.38-1.1-.29-.03-.58-.04-.87-.04h-.6v.96h.19c-.62.03-1.11.57-1.08,1.19,0,.01,0,.03,0,.04,0,.16.03.33.09.48h-1.87v-2.68h-1v2.67h-1.76v-2.67h-1v2.67h-1.67v-2.67h-1.73c-.46-.01-.9.17-1.21.5-.34.33-.52.79-.51,1.26,0,1.14.58,1.7,1.73,1.7h4.68Zm11.77-5.42h.99v5.42h-.99v-5.42Zm-90.43,10.56h-1.28v1.33h1.28c.25.02.51-.03.73-.14.15-.13.23-.33.2-.53.02-.16-.02-.31-.11-.45-.24-.18-.53-.25-.82-.21m-1.27,4.31h-1.04v-5.25h2.56c.47-.04.94.09,1.31.37.31.32.47.77.42,1.21,0,.81-.33,1.3-.99,1.47l1.22,2.2h-1.17l-1.1-2.05h-1.23v2.05Zm5.66-.75c.22,0,.44-.07.61-.22.24-.25.36-.59.33-.94.02-.32-.08-.63-.27-.89-.16-.19-.4-.29-.65-.28-.26,0-.51.11-.68.31-.35.51-.36,1.19,0,1.7.16.2.41.31.67.31m.01.83c-.59.04-1.16-.21-1.53-.68-.28-.39-.42-.86-.41-1.33-.02-.49.14-.96.45-1.35.36-.44.91-.69,1.49-.65.48-.02.95.16,1.32.48.42.39.64.95.61,1.53.02.52-.16,1.03-.5,1.43-.36.39-.89.6-1.43.58m4.01-.92h.78v-3.01h.96v3.75c0,.99-.45,1.49-1.36,1.48h-1.89v-.79h1.72c.28.04.55-.16.58-.45,0-.05,0-.1,0-.15h-.85c-.4.04-.8-.08-1.13-.32-.28-.31-.42-.73-.38-1.15v-2.38h.94v2.29c-.02.18.02.35.09.51.13.16.34.24.54.21m3.89.07h1.2v-.8h-1.13c-.38,0-.58.14-.58.4-.02.13.04.27.15.34.11.04.24.07.35.06m.33-2.28h-1.61v-.8h1.97c.99,0,1.49.48,1.49,1.44v2.41h-2.57c-.58.05-1.09-.39-1.13-.96,0-.06,0-.11,0-.17-.04-.38.12-.76.44-.99.31-.16.67-.24,1.02-.21h1.27c.02-.21-.05-.41-.19-.56-.22-.13-.46-.18-.69-.16m2.61-2.2h.99v5.25h-.99v-5.25Zm7.88,0v.9h-1.71c-.34-.03-.67.12-.88.39-.27.46-.39.99-.34,1.52-.06.46.06.92.35,1.3.25.19.56.26.88.24h1.71v.91h-1.76c-1.55,0-2.32-.84-2.32-2.53-.05-.69.13-1.38.49-1.96.45-.54,1.15-.83,1.85-.76h1.73Zm2.28,4.49c.22,0,.44-.07.61-.22.24-.25.36-.59.34-.94.02-.32-.08-.63-.27-.89-.16-.19-.4-.29-.65-.28-.26,0-.51.11-.68.31-.35.51-.35,1.19,0,1.7.16.2.4.32.66.31m.01.83c-.59.04-1.16-.21-1.53-.68-.28-.39-.42-.86-.41-1.33-.02-.49.14-.96.45-1.35.36-.44.91-.69,1.49-.65.48-.02.95.16,1.32.48.42.39.64.95.61,1.53.02.52-.16,1.03-.49,1.43-.36.39-.89.61-1.43.58m3.42-.08h-.95v-3.85h3.68c.39-.03.8.08,1.12.31.29.29.44.69.4,1.1v2.44h-.95v-2.31c.02-.19-.02-.36-.11-.53-.13-.14-.32-.21-.51-.18-.08,0-.16,0-.24.02h-.17s-.09,0-.14,0v2.99h-.99v-2.99h-1.13v2.99Zm5.98,0h-.96v-3.85h3.68c.39-.03.79.08,1.12.31.29.29.44.69.39,1.1v2.44h-.96v-2.31c.02-.19-.02-.36-.11-.53-.13-.14-.32-.21-.51-.18-.08,0-.16,0-.24.02h-.17s-.1,0-.14,0v2.99h-.99v-2.99h-1.14v2.99Zm5.04-3.85h.99v3.85h-.99v-3.85Zm0-1.4h.99v.95h-.99v-.95Zm4.18,5.25h-2.46v-.79h2.03c.34,0,.51-.13.51-.39s-.17-.37-.51-.37h-.84c-.31.03-.62-.03-.89-.16-.27-.22-.41-.56-.36-.91,0-.82.43-1.23,1.29-1.23h2.06v.8h-1.7c-.17-.01-.34.01-.49.06-.12.06-.18.18-.16.31,0,.21.15.32.46.32h.88c.79,0,1.2.36,1.21,1.08.02.33-.08.65-.27.91-.18.24-.45.37-.74.36m4.04,0h-2.47v-.79h2.02c.34,0,.51-.13.51-.39s-.17-.37-.51-.37h-.84c-.31.03-.62-.03-.9-.16-.27-.22-.41-.56-.36-.91,0-.82.43-1.23,1.29-1.23h2.06v.8h-1.7c-.16-.01-.34.01-.49.06-.11.06-.18.19-.16.31,0,.21.15.32.45.32h.88c.79,0,1.2.36,1.21,1.08.02.33-.08.65-.27.91-.16.24-.44.37-.72.36m1.63-3.85h.99v3.85h-.99v-3.85Zm0-1.39h.99v.95h-.99v-.95Zm3.43,4.49c.22,0,.44-.07.61-.22.24-.25.36-.59.33-.94.02-.32-.08-.63-.27-.89-.16-.19-.4-.29-.65-.28-.26,0-.51.11-.68.31-.35.51-.35,1.19,0,1.7.17.2.41.31.67.31m.02.83c-.59.04-1.16-.21-1.53-.68-.28-.39-.42-.86-.41-1.33-.02-.49.14-.96.45-1.35.37-.44.91-.69,1.49-.65.48-.02.96.16,1.32.48.42.39.64.95.61,1.53.02.52-.16,1.03-.5,1.43-.37.39-.89.61-1.43.58m3.41-.08h-.95v-3.85h1.8c.42-.03.83.08,1.17.33.26.29.39.69.35,1.09v2.44h-.97v-2.31c.02-.2-.02-.39-.11-.56-.07-.09-.25-.13-.52-.13h-.77v2.99Zm6.71,0h-1v-3.08h-.69v-.77h.69v-.22c-.02-.29.02-.59.12-.86.13-.21.42-.31.88-.31h.92v.76c-.26-.01-.52,0-.79.03-.09.04-.13.2-.13.49v.12h.92v.77h-.92v3.08Zm3-.75c.22,0,.44-.07.61-.22.24-.25.36-.59.33-.94.01-.32-.08-.63-.27-.89-.16-.19-.4-.29-.65-.28-.26,0-.51.11-.68.31-.35.51-.36,1.19,0,1.7.16.2.41.31.67.31m.01.83c-.59.04-1.16-.21-1.53-.68-.28-.39-.42-.86-.41-1.33-.01-.49.14-.96.45-1.35.36-.44.91-.69,1.49-.65.48-.02.95.16,1.32.48.42.39.64.95.61,1.53.02.52-.16,1.03-.49,1.43-.37.39-.9.6-1.43.58m3.41-.08h-.95v-3.85h1.61c.44,0,.73.1.85.28.14.35.19.72.16,1.09v.24h-.91v-.3c0-.29-.03-.45-.1-.5-.22-.07-.44-.09-.66-.07v3.11Zm5.81-2.18h1.49l-.75-2.01-.73,2.01Zm-.77,2.18h-1.11l2.08-5.25h1.11l2.12,5.25h-1.16l-.45-1.26h-2.16l-.43,1.26Zm4.39-5.25h.99v5.25h-.99v-5.25Zm1.76,3.19v-3.18h1.04v3.15c-.02.32.04.65.18.94.23.28.59.42.94.37.3.03.6-.06.84-.25.21-.31.31-.68.27-1.06v-3.15h1.04v3.18c.05.54-.08,1.09-.37,1.55-.32.38-.91.58-1.77.58-.64.07-1.27-.13-1.75-.56-.32-.46-.47-1.02-.41-1.57m5.14-3.19h1v5.25h-1v-5.25Zm3.11,4.48h1.2v-.8h-1.13c-.38,0-.58.14-.58.4-.02.13.04.27.16.34.11.04.23.07.35.06m.33-2.28h-1.61v-.8h1.97c.99,0,1.49.48,1.49,1.44v2.41h-2.57c-.31.02-.61-.09-.83-.31-.21-.23-.32-.52-.31-.83-.04-.38.12-.75.44-.99.31-.16.67-.24,1.03-.21h1.27c.02-.21-.05-.41-.19-.56-.21-.13-.46-.18-.69-.16"/>
</svg>