<?xml version="1.0" encoding="UTF-8"?>
<svg id="Layer_1" data-name="Layer 1" xmlns="http://www.w3.org/2000/svg" viewBox="0 0 120 120">
  <defs>
    <style>
      .cls-1 {
        fill: #b6932d;
      }
    </style>
  </defs>
  <path class="cls-1" d="m8.45,38.6c0-1.72,0-3.45,0-5.18h5.16c0,1.72,0,3.45,0,5.18h-5.16Z"/>
  <path class="cls-1" d="m18.74,33.42h5.17v5.17c-1.72,0-3.45,0-5.17,0v-5.18"/>
  <path class="cls-1" d="m29.03,33.42h5.18c0,1.72,0,3.45,0,5.18h-5.18v-5.18Z"/>
  <path class="cls-1" d="m49.63,54v10.31c-1.71,0-3.43,0-5.14,0v-25.7h5.16v-5.18h-10.3c-.01,12.02,0,24.04,0,36.05h25.74v-15.47h-15.46Zm10.29,10.31c-1.71,0-3.42,0-5.12,0,0-1.71,0-3.42,0-5.12,1.71,0,3.42,0,5.12,0v5.12Z"/>
  <path class="cls-1" d="m54.78,33.42h10.3c0,1.72,0,3.45,0,5.18-1.71,0-3.43,0-5.14,0,0,1.71,0,3.42,0,5.13,1.71,0,3.43,0,5.14,0v5.16c-5.15,0-10.3,0-15.45,0,0-1.72,0-3.44,0-5.16h5.15c0-3.43,0-6.87,0-10.31"/>
  <path class="cls-1" d="m70.22,33.42h5.15c0,12.02,0,24.04,0,36.05h-5.16v-36.05"/>
  <path class="cls-1" d="m80.51,33.42v5.18h20.59v46.29h-5.13v-30.89h-15.46v15.47h10.3v15.42h-5.13v-10.29c-8.58,0-17.17,0-25.76,0v10.29h-5.12v-10.29c-1.72,0-3.44,0-5.17,0v10.28h-5.14v-10.29c-3.43,0-6.85,0-10.28,0v-10.3c-8.59,0-17.17,0-25.76,0v25.77h5.17c0-6.87,0-13.74,0-20.61h5.14v10.29c6.86,0,13.73,0,20.6,0,0,3.44,0,6.88,0,10.33h66.92c0-18.88,0-37.77,0-56.66h-25.75Zm-51.48,41.19c-1.7,0-3.41,0-5.11,0,0-1.71,0-3.43,0-5.14h5.11v5.14Zm51.48,10.28h-15.42v-5.14c5.14,0,10.28,0,15.42,0v5.14Zm10.3-20.59h-5.13c.01-1.71,0-3.41,0-5.11h5.13v5.11Z"/>
  <path class="cls-1" d="m111.4,33.42h5.16v56.66h-5.16v-56.66"/>
  <path class="cls-1" d="m29.03,43.73v10.27h-5.11c0-3.43,0-6.85,0-10.27-5.16,0-10.32,0-15.48,0,0,5.15,0,10.31,0,15.46h25.75v-15.46h-5.18Zm-10.28,10.27h-5.14c0-1.71,0-3.41,0-5.12h5.14v5.12Z"/>
  <path class="cls-1" d="m80.51,48.89v-5.16c1.73,0,3.45,0,5.17,0v5.16h-5.17Z"/>
  <path class="cls-1" d="m90.81,43.72h5.16c0,1.72,0,3.44,0,5.16-1.72,0-3.44,0-5.16,0v-5.16"/>
  <path class="cls-1" d="m18.74,84.89c1.72,0,3.45,0,5.17,0v5.18c-1.72,0-3.45,0-5.17,0v-5.19"/>
  <path class="cls-1" d="m29.03,84.89c1.73,0,3.45,0,5.18,0,0,1.73,0,3.46,0,5.19h-5.18c0-1.73,0-3.46,0-5.19"/>
</svg>