<?xml version="1.0" encoding="UTF-8"?>
<svg id="Layer_1" data-name="Layer 1" xmlns="http://www.w3.org/2000/svg" viewBox="0 0 120 120">
  <defs>
    <style>
      .cls-1, .cls-2 {
        fill-rule: evenodd;
      }

      .cls-1, .cls-3 {
        fill: #058855;
      }

      .cls-2, .cls-4 {
        fill: #9b935f;
      }
    </style>
  </defs>
  <path class="cls-4" d="m39.29,105.63c-.39.24-.94.11-1.14-.35-.11-.25-.04-.13-.06-5.3h1.59v-.59h-1.59v-2.42h-.4c-.29,1.5-.68,2.67-2.23,2.67v.35h1.23c.03,5.08-.06,5.14.08,5.67.17.62.6.98,1.3.98.89,0,1.52-.38,1.91-1.06l-.35-.24c-.1.12-.21.21-.34.29Zm-12.66-8.89c.55,1.02,2.2.03,1.31-.77-.66-.56-1.65.1-1.31.77Zm4.02,3.92c0-.99,2.07-1.67,3.32.36l.52-.46c-.48-.63-1.03-1.14-1.8-1.26-1.87-.3-3.08.72-3.08,1.93,0,1.43,1.3,1.92,2.6,2.52,2.24,1.03.95,2.8-.69,2.33-.63-.19-1.09-.73-1.48-1.27l-.58.52c.36.47.78.85,1.32,1.07.95.41,2.53.32,3.34-.38.76-.65,1.03-2.02.03-2.88-1.11-.98-3.49-1.2-3.49-2.47Zm13.61-1.41c-.82,0-1.56.81-2.03,1.49v-1.34h-1.4v7.09h1.4v-4.91c.16-.26.37-.57.58-.79.38-.39.65-.39,1.1-.15.47.26.99.18,1.24-.01.29-.24.31-.79-.11-1.11-.23-.18-.5-.25-.78-.25Zm-28.2-3.28c-.33.3-.31.73,0,1,.75.66,1.89-.33,1.14-1-.29-.26-.79-.29-1.14,0Zm4.4,4.72v-1.3h-1.41v7.09h1.41v-5.26c1.5-1.45,3.13-1.39,3.13.4v4.85h1.41v-5.09c0-.59-.2-1.13-.52-1.52-1.03-1.25-2.86-.48-4.01.81Zm-11.64,3.66h-.07l-3.58-7.06h-1.58v9.2h.68v-7.48h.11l3.82,7.48h.32l3.77-7.53h.05v7.53h1.55v-9.2h-1.55m14.35,2.37v6.83h1.4v-7.24h-.41m-11.74.4v6.83h1.4v-7.24h-.41m83.66-3.09v10.32h1.41v-10.72h-.4m5.21,9.87c-.4.24-.95.11-1.14-.35-.11-.25-.04-.12-.06-5.3h1.59v-.59h-1.59v-2.42h-.4c-.29,1.51-.69,2.67-2.23,2.67v.35h1.23c.03,5.08-.06,5.14.08,5.67.11.38.32.69.69.86.43.2,1.24.16,1.77-.17.31-.19.56-.45.75-.77l-.35-.24c-.1.12-.21.21-.34.29Zm-8.72-5.87c-.73-.6-2.2-.6-3.06-.39-2.31.57-2.01,2.36-1.02,2.36.54,0,.7-.41.7-.94,0-.27.05-.53.22-.74.33-.39,1.08-.4,1.5-.25.38.14.6.45.71.83.12.45.1,1.35.09,1.26-1.03.26-1.93.5-2.83.98-3.13,1.68-.55,5.4,2.34,3.03.16-.13.32-.26.49-.39v.97h1.41c-.04-5.52.22-6.08-.56-6.72Zm-.85,5.24c-.4.3-.76.58-1.23.72-1.17.35-1.91-.91-1.48-1.7.44-.82,1.83-1.38,2.71-1.66v2.65Zm16.91-4.44c-.71-2.03-2.95-1.49-4.39.13v-4.93h-.4l-1,.4v10.32h1.41v-5.26c1.48-1.43,3.13-1.41,3.13.4v4.85h1.41c-.04-5.13.1-5.25-.14-5.93Zm-55.65-.2c-2.24,2.29-.81,6.28,2.69,6.28s4.97-4.21,2.68-6.38c-1.4-1.31-3.9-1.42-5.37.09Zm4.71,4.13c-.24.85-.87,1.63-1.76,1.63-2.54,0-3.3-4.89-1.29-6.14.7-.43,1.98-.21,2.63.87.57.97.69,2.69.42,3.63Zm-13.31.03l-2.74-5.12h-1.6l3.63,6.75c-.56,1.25-.77,1.87-1.22,2.21-.23.17-.56.14-.71.08-.22-.09-.22-.13-.46-.23-.53-.2-1.19.13-1.19.72,0,1.11,2.49,1.43,3.67-1.21l3.62-8.33h-.75l-2.23,5.12Zm21.34-8.4c-.81-.52-2.35-.57-3.32.46-.96,1.01-.75,2.2-.77,2.82h-1.48v.59h1.48v6.5h1.41v-6.5h1.9v-.59h-1.9c.02-1.34-.12-2.07.27-2.67.15-.24.4-.44.7-.44,1.11,0,.45,1.36,1.49,1.36.83,0,1.01-1.01.21-1.52Zm20.12,8.35c-.32.41-.78.75-1.35.94-1.96.69-3.39-.96-3.39-3.17h5.29c0-2.92-3.82-4.03-5.69-1.87-2.09,2.44-.66,6.27,2.52,6.27,1.47,0,2.97-1.2,3.36-2.64l-.4-.18c-.07.22-.18.43-.34.64Zm-4.55-3.55c.85-1.98,3.34-1.16,3.34.76h-3.52c.02-.28.08-.53.18-.76Zm-4.74.56h-4.62v-4.19h-1.54v9.2h1.54v-4.41h4.62v4.41h1.55v-9.2h-1.55"/>
  <path class="cls-2" d="m85.11,35.27c-12.63,1.82-40.13,25.55-40.13,25.55h11.24c7.14-8.03,17.83-16.59,23.49-20.01,4.53-2.73,7.77-2.87,7.77-2.87,7.07-.66,13.11,5.18,12.33,12.6.93-8.76-3.44-16.9-14.69-15.28Z"/>
  <path class="cls-2" d="m32.7,35.27c-11.25-1.62-15.62,6.52-14.69,15.28-.79-7.43,5.29-13.25,12.33-12.6,0,0,3.24.13,7.77,2.87,5.23,3.16,16.03,11.63,23.49,20.01h11.24s-27.5-23.73-40.13-25.55Z"/>
  <path class="cls-3" d="m58.35,87.11h-5c.01-.09.28-1.43.28-2.62,0-5.94-4.45-8.39-8.79-5.32-3.12,2.2-3.76,4.32-5.66,7.93h-.08v-5.91h-1.55v5.91h-4.52v-.59c0-6.25-4.52-8.47-8.39-8.47h-5.96v1.32c.43-.03,5.5-.05,5.76-.05,7.45,0,6.91,7.69,6.94,7.78H12.26v-9.95c-.45-.05-1.26-.09-1.61-.09-2.82,0-7,2.03-7,6.39,0,3,2.26,4.8,5.13,4.8h.49c.09-.09,1.16-1.24,1.07-1.15h-1.13c-4.5,0-4.99-5.34-2.05-7.65,1.05-.83,2.28-1.12,3.01-1.12h.54v9.92h49.2v-17.74h-1.55v16.59Zm-6.56-.2l-.05.2h-11.08l.07-.32c.97-4.32,4.85-7.67,7.54-7.67.87,0,3.7.41,3.7,5.65,0,.33-.01,1.45-.18,2.14Z"/>
  <circle class="cls-3" cx="11.25" cy="73.43" r="1.18"/>
  <path class="cls-3" d="m64.81,70.52h1.55v17.74h-1.55v-17.74Z"/>
  <circle class="cls-3" cx="78.16" cy="73.44" r="1.18"/>
  <circle class="cls-3" cx="7.72" cy="73.43" r="1.18"/>
  <circle class="cls-3" cx="101.82" cy="73.44" r="1.18"/>
  <path class="cls-3" d="m113.28,77.42c-4.04,0-7.2,2.75-7.2,6.27,0,3.16,2.77,4.78,5.51,4.56.09-.09,1.19-1.23,1.1-1.13h-1.03c-1.96,0-3.93-1.11-3.93-3.6,0-2.23,2.06-4.71,4.81-4.71h.26v9.7c0,1.86-.35,3.58-2.87,3.58-.22,0-.5-.03-.8-.08l-.2,1.19c.37.07.77.12,1.4.12,1.21,0,4.01-.4,4.01-4.14v-11.64c-.43-.06-.78-.09-1.08-.09Zm-12.23,11.81c0,2.04-.82,2.86-2.82,2.86-.21,0-.53-.04-.77-.08l-.19,1.24c3.78.55,5.33-1.13,5.33-3.55v-10.97h-1.55s0,10.49,0,10.49Zm-13.13,0c0,2.04-.82,2.86-2.82,2.86-.21,0-.52-.04-.77-.08l-.19,1.24c3.79.55,5.33-1.14,5.33-3.55v-10.97h-1.55s0,10.49,0,10.49Z"/>
  <circle class="cls-3" cx="81.68" cy="73.44" r="1.18"/>
  <path class="cls-3" d="m94.22,70.52h1.55v17.74h-1.55v-17.74Zm-20.16,13.07c0,2.66,2.2,4.67,5.13,4.67h3.48v-11.1c-5.06-.7-8.61,2.55-8.61,6.43Zm7.06,3.53h-1.48c-5.87,0-4.77-8.77.91-8.77h.57v8.77ZM31.83,42.89l-3.37,3.37-3.37-3.37-3.84,3.83,3.84,3.83,3.37-3.37,3.37,3.37,3.83-3.83m31.61-32.94c3.48.2,6.84,1.72,9.29,4.41-2.84-6.62-10.32-9.79-16.97-7.46-.34-1.24-.61-1.97-.61-1.97,0,0-.27.72-.61,1.97-6.68-2.34-14.16.87-16.97,7.46,2.44-2.69,5.81-4.21,9.29-4.41-4.04,3.12-5.95,8.14-5.12,13.04.66-3.97,3.05-7.35,6.36-9.37-2.52,5.01-1.75,11.07,2.1,15.29-2.26-5.23-1-11.34,3.13-15.24-.09,1.01-.15,2.08-.15,3.18,0,6.58,1.98,11.91,1.98,11.91.01-.1,2.59-7.04,1.83-15.09,4.12,3.9,5.38,10.02,3.12,15.24,3.8-4.15,4.64-10.23,2.1-15.29,3.31,2.01,5.7,5.4,6.36,9.37.82-4.85-1.05-9.9-5.12-13.04Z"/>
  <path class="cls-1" d="m72.2,44.75c-17.19-18.31-26.97-4.19-26.97-4.19,0,0,8.38-8.29,24.32,9.31,7.16,7.91,13.55,11.01,18.71,10.95,3.96-.04,7.59-1.89,10.15-5.9.41-.65.66-1.32.66-1.32-4.61,5.48-10.68,8.38-26.87-8.86Z"/>
</svg>