<svg id="Layer_1" data-name="Layer 1" xmlns="http://www.w3.org/2000/svg" viewBox="0 0 120 120"><path d="M76,50.83a12.64,12.64,0,0,0-2.2-1,13,13,0,0,0-6.07-.44,14.92,14.92,0,0,0-2.63.67l-.26.09a13.35,13.35,0,0,0-1.39.62l-1.19.66a26.23,26.23,0,0,0-2.64,1.81,56.78,56.78,0,0,1-.27-14.09,0,0,0,0,1,0,0h0c2.09,1.32,1.51,5,1.06,6,0,0,0,0,0,0h0a6.5,6.5,0,0,0,.8-7.33s0,0,0,0a5,5,0,0,1,.94,1A5.85,5.85,0,0,1,63.49,42a8.54,8.54,0,0,1,0,1.43c0,.1,0,.21,0,.32h0a6,6,0,0,0,0-5.5,7.14,7.14,0,0,0-1.19-1.61l-.46-.44s0,0,0,0l.46.14a4.5,4.5,0,0,1,1.19.62,4.86,4.86,0,0,1,1.65,2.22,5.56,5.56,0,0,1,.37,2,0,0,0,0,0,0,0,0,0,0,0,0,0,0A5.08,5.08,0,0,0,65.14,37a4.68,4.68,0,0,0-1.65-1.6,4.91,4.91,0,0,0-1.19-.53,3.27,3.27,0,0,0-.56-.12s0,0,0,0a5.25,5.25,0,0,1,.56,0,4.78,4.78,0,0,1,1.19.09,4.23,4.23,0,0,1,1.65.65,3.3,3.3,0,0,1,1.1,1.19s0,0,0,0a3.23,3.23,0,0,0-1.15-2.21,4.11,4.11,0,0,0-1.65-.87,5.44,5.44,0,0,0-1.19-.18,3.53,3.53,0,0,0-1.48.26h0v0a2.7,2.7,0,0,1,1.5-1.06,3.2,3.2,0,0,1,1.19-.15,2.81,2.81,0,0,1,1,.23s0,0,0,0a3.5,3.5,0,0,0-1-.8,3.09,3.09,0,0,0-1.19-.39,3,3,0,0,0-2.85,1.42h0c-.14-.27-.28-.53-.39-.8a9.65,9.65,0,0,1-.64-2.15s0,0,0,0,0,0,0,0A9.56,9.56,0,0,1,57.69,32c-.12.26-.25.53-.39.8h0a3,3,0,0,0-4.2-1,3.2,3.2,0,0,0-.84.76v0h0a3.13,3.13,0,0,1,3.66,1v0h0a4.34,4.34,0,0,0-4.68,1.15,3.16,3.16,0,0,0-.77,1.85s0,0,0,0a3.06,3.06,0,0,1,.73-.88,4.79,4.79,0,0,1,3.77-1,0,0,0,0,1,0,0h0a5,5,0,0,0-3.77,3,5.26,5.26,0,0,0,0,3.37,0,0,0,0,0,0,0s0,0,0,0v-.09a5,5,0,0,1,3.67-4.91s0,0,0,0h0a6.1,6.1,0,0,0-1.67,7.56s0,0,0,0a0,0,0,0,0,0,0,6.25,6.25,0,0,1,2.1-5.8s.05,0,0,0a6.45,6.45,0,0,0,.8,7.32s0,0,0,0c-.45-1.05-1-4.72,1.06-6.05h0v0a56.72,56.72,0,0,1-.27,14.08,21.27,21.27,0,0,0-5.22-3.09c-.21-.06-.42-.15-.63-.23a13.68,13.68,0,0,0-4.92-.69,12.92,12.92,0,0,0-5.07,1.28l-.5.26s0,0,0,.07,0,0,.07,0l.46-.12a14.06,14.06,0,0,1,5.08-.5,14.68,14.68,0,0,1,4.91,1.33,26.25,26.25,0,0,1,5.86,3.82,63.15,63.15,0,0,1-5.86,5l-.19.11a1.38,1.38,0,0,0-2.45.48,1.39,1.39,0,0,0,.26,1.19,2,2,0,0,0,2.37.35c1.7-.73,3.86-3,6.49-5.39.21-.2.44-.41.68-.61l.65.61c1.19,1.08,2.29,2.15,3.28,3.05.41.37.8.71,1.19,1a11.54,11.54,0,0,0,1.65,1.14,2.18,2.18,0,0,0,2.63-.06s.09-.07.12-.11a1.53,1.53,0,0,0,.27-1.18,1.42,1.42,0,0,0-1-1,1.39,1.39,0,0,0-1.42.53,5.3,5.3,0,0,1-.57-.33,18.82,18.82,0,0,1-1.65-1.33c-.37-.32-.76-.67-1.19-1.07-.81-.72-1.7-1.56-2.64-2.37a31.08,31.08,0,0,1,2.64-2c.39-.26.78-.51,1.19-.74a18.61,18.61,0,0,1,1.65-.89,16.41,16.41,0,0,1,2.63-1,13.91,13.91,0,0,1,6-.37A15,15,0,0,1,76,51s.06,0,.07,0,0-.14,0-.14m3.49,28.6H37.25V13.13H79.53Z" fill="#6b7688"/><path d="M21.63,92.73a.46.46,0,0,1-.13.33.5.5,0,0,1-.33.12H19.28c-.57,0-.85-.3-.86-.9v0a.8.8,0,0,1,.67-.92.44.44,0,0,1,.2,0h1.17V90.5H19.28a1.62,1.62,0,0,0-1.21.51,1.73,1.73,0,0,0-.52,1.25,1.68,1.68,0,0,0,.27.92h-2V88.56a7.62,7.62,0,0,0-1,0v4.62h-.9l-.21-1.35c0-.18-.06-.42-.11-.71a6,6,0,0,1-.1-.61h-1l.42,2.67h-1.4V94h9.73a1.19,1.19,0,0,0,1.37-1.32V88.56h-1Zm1.86-4.19h1V94h-1Zm4.39,1.23c.36,0,.54-.17.54-.52a.48.48,0,0,0-.41-.52h-.13a.53.53,0,0,0-.51.52.5.5,0,0,0,.51.51m1.37,0a.46.46,0,0,0,.53-.52.48.48,0,0,0-.4-.52h-.13a.53.53,0,0,0-.52.52.5.5,0,0,0,.52.51m5.49,0a.46.46,0,0,0,.53-.52.48.48,0,0,0-.4-.52h-.13a.53.53,0,0,0-.52.52.5.5,0,0,0,.52.51m6.55,0a.46.46,0,0,0,.53-.52.48.48,0,0,0-.41-.52h-.13a.53.53,0,0,0-.51.52.51.51,0,0,0,.52.51m.62,1.54v1.87H41a.78.78,0,0,1-.86-.89v0a.8.8,0,0,1,.67-.92.44.44,0,0,1,.2,0h.87Zm-9.17,1.86a7,7,0,0,1,0-.92,1,1,0,0,1,.77-.8,1.93,1.93,0,0,1,.42-.06h1.54a1.4,1.4,0,0,1,.41.06,1,1,0,0,1,.77.8,5.62,5.62,0,0,1,.05.92Zm-4.43,0a.78.78,0,0,1-.86-.89v0a.81.81,0,0,1,.67-.92.67.67,0,0,1,.2,0h.86v1.87ZM39.83,91a1.7,1.7,0,0,0-.51,1.26,1.63,1.63,0,0,0,.26.91h-2V93a4.22,4.22,0,0,0-.16-1.37A1.61,1.61,0,0,0,36,90.55a5.14,5.14,0,0,0-.87,0h-.83a8.46,8.46,0,0,0-.87,0,1.7,1.7,0,0,0-.75.27V88.53h-1v4.64H30.06V90.5H28.33a1.62,1.62,0,0,0-1.21.51,1.68,1.68,0,0,0-.51,1.25A1.51,1.51,0,0,0,28.33,94H42.79V90.5H41.06a1.72,1.72,0,0,0-1.23.51m12.22,2.33c-.44,0-.66-.34-.66-1s.22-1,.66-1,.66.34.66,1-.22,1-.66,1m3.35-.6a.5.5,0,0,1-.12.33.5.5,0,0,1-.34.12h-.33l-.55,0a.42.42,0,0,1-.36-.32,1.91,1.91,0,0,0,.08-.54A1.8,1.8,0,0,0,53.27,91,1.7,1.7,0,0,0,50.88,91l-.06.06a1.75,1.75,0,0,0-.5,1.26,1.81,1.81,0,0,0,.07.52.45.45,0,0,1-.37.34,5.06,5.06,0,0,1-.55,0H48.7V93a4.53,4.53,0,0,0-.14-1.37,1.62,1.62,0,0,0-1.38-1.09,6.41,6.41,0,0,0-.88,0h-.59v.87h1a1.4,1.4,0,0,1,.41,0,1,1,0,0,1,.78.81,4.7,4.7,0,0,1,0,.92H44.4V88.57h-1V94h6.51a1.12,1.12,0,0,0,.84-.34l.09-.06,0,0a1.68,1.68,0,0,0,2.38.15.57.57,0,0,0,.11-.11l.09.07a1.08,1.08,0,0,0,.83.34H55a1.2,1.2,0,0,0,1.38-1.32V88.57h-1Zm3.89-3.47a.52.52,0,0,0,1,0,.47.47,0,0,0-.4-.52h-.14a.45.45,0,0,0-.51.4.49.49,0,0,0,0,.12m1.36,0a.53.53,0,0,0,1.05,0,.48.48,0,0,0-.41-.52.64.64,0,0,0-.64.41.2.2,0,0,0,0,.11m2.71,5.4a.51.51,0,0,0,0,1,.52.52,0,0,0,.5-.52.48.48,0,0,0-.41-.51h-.13m1.36,0a.52.52,0,1,0,0,1,.46.46,0,0,0,.53-.52.45.45,0,0,0-.4-.51.65.65,0,0,0-.14,0m13.07-1.32c-.44,0-.66-.34-.66-1s.22-1,.66-1,.66.34.66,1-.22,1-.66,1m-17.56-.16a.78.78,0,0,1-.87-.89v0a.81.81,0,0,1,.67-.92.67.67,0,0,1,.2,0h.86v1.87ZM80.77,94a1.19,1.19,0,0,0,1.37-1.32V88.56h-1v4.17a.42.42,0,0,1-.45.45h-.34l-.54,0a.43.43,0,0,1-.36-.32,1.91,1.91,0,0,0,.08-.54A1.76,1.76,0,0,0,79,91,1.69,1.69,0,0,0,76.64,91l-.06.06a1.76,1.76,0,0,0-.51,1.26,1.81,1.81,0,0,0,.07.52.45.45,0,0,1-.37.34,4.87,4.87,0,0,1-.54,0h-.79V88.56h-1v4.62H71.66v-.65a2.69,2.69,0,0,0-.14-.84A1.6,1.6,0,0,0,70,90.54H67c0-.22,0-.45,0-.67a.37.37,0,0,1,.31-.31l.29,0h2.12v-1H67.53a1.72,1.72,0,0,0-.39,0,1.14,1.14,0,0,0-.89.92,1.75,1.75,0,0,0,0,.4v1.53h3.36a1.72,1.72,0,0,1,.39,0,1.06,1.06,0,0,1,.85.86,1.5,1.5,0,0,1,0,.37V93l0,.19H64.61V90.5h-1v2.67H62V90.5H60.26A1.62,1.62,0,0,0,59,91a1.72,1.72,0,0,0-.51,1.25A1.51,1.51,0,0,0,60.26,94H75.65a1.06,1.06,0,0,0,.83-.34l.09-.06,0,0a1.69,1.69,0,0,0,2.38.16l.11-.11.08.06A1.1,1.1,0,0,0,80,94ZM83,88.54h1V94H83Zm3.88.72a.45.45,0,0,0,.39.51.24.24,0,0,0,.12,0,.46.46,0,0,0,.53-.52.48.48,0,0,0-.4-.52.49.49,0,0,0-.62.3.45.45,0,0,0,0,.23m1.36,0a.53.53,0,0,0,1.05,0,.47.47,0,0,0-.41-.52.23.23,0,0,0-.14,0,.44.44,0,0,0-.5.4.2.2,0,0,0,0,.11m3,.59h1.1v-.33h-.46a.15.15,0,0,1-.16-.12h0v-.11a.19.19,0,0,1,.19-.18h.28v-.27a.62.62,0,0,0-.4,0,.46.46,0,0,0-.42.49.39.39,0,0,0,0,.14l0,.09H91.2Zm2,5.31a.45.45,0,0,0,.39.51.29.29,0,0,0,.13,0,.52.52,0,0,0,.12-1,.2.2,0,0,0-.13,0,.45.45,0,0,0-.51.4.2.2,0,0,0,0,.11m1.36,0a.54.54,0,0,0,.54.51.53.53,0,0,0,.51-.51.46.46,0,0,0-.41-.51.28.28,0,0,0-.13,0,.46.46,0,0,0-.51.4.2.2,0,0,0,0,.11m-6.78-2c-.57,0-.85-.3-.85-.89v0a.8.8,0,0,1,.66-.92.74.74,0,0,1,.21,0h.86v1.87Zm10.23-1a.45.45,0,0,1,.52.38v.13a.5.5,0,0,1-.31.47h-.43a.48.48,0,0,1-.31-.47.45.45,0,0,1,.4-.51H98m.54-.72a1.52,1.52,0,0,1,.42.06,1,1,0,0,1,.77.8,5.92,5.92,0,0,1,0,.84h-.58a1.27,1.27,0,0,0,.09-.47,1.13,1.13,0,0,0-1-1.24h.29M92.51,94H102c.92,0,1.38-.44,1.37-1.32V88.56h-1v4.17a.41.41,0,0,1-.12.33.48.48,0,0,1-.33.12h-1.34V93a4.24,4.24,0,0,0-.14-1.37,1.64,1.64,0,0,0-1.38-1.1,8.44,8.44,0,0,0-.87,0h-.6v1h.19a1.14,1.14,0,0,0-1.08,1.19.06.06,0,0,0,0,0,1.32,1.32,0,0,0,.09.48H95V90.5H94v2.67H92.22V90.5h-1v2.67H89.55V90.5H87.83a1.64,1.64,0,0,0-1.22.51,1.72,1.72,0,0,0-.51,1.25A1.52,1.52,0,0,0,87.83,94Zm11.78-5.41h1V94h-1ZM13.85,99.1H12.57v1.33h1.28a1.44,1.44,0,0,0,.74-.14.59.59,0,0,0,.2-.53.65.65,0,0,0-.11-.45,1.11,1.11,0,0,0-.83-.21m-1.27,4.31h-1V98.16H14.1a1.9,1.9,0,0,1,1.32.37,1.53,1.53,0,0,1,.42,1.21,1.32,1.32,0,0,1-1,1.47l1.22,2.2H14.9l-1.1-2H12.57Zm5.65-.75a1,1,0,0,0,.61-.22,1.22,1.22,0,0,0,.33-.94,1.36,1.36,0,0,0-.27-.89.8.8,0,0,0-.65-.28.86.86,0,0,0-.68.31,1.51,1.51,0,0,0,0,1.7.84.84,0,0,0,.66.32m0,.83a1.77,1.77,0,0,1-1.52-.68,2.1,2.1,0,0,1-.41-1.33,2,2,0,0,1,.45-1.35,1.76,1.76,0,0,1,1.48-.65,1.88,1.88,0,0,1,1.32.48,1.91,1.91,0,0,1,.61,1.53,2.06,2.06,0,0,1-.5,1.42,1.84,1.84,0,0,1-1.43.58m4-.92H23v-3h1v3.75c0,1-.45,1.49-1.36,1.48H20.74V104h1.71a.52.52,0,0,0,.58-.46.33.33,0,0,0,0-.14h-.84a1.71,1.71,0,0,1-1.13-.33,1.51,1.51,0,0,1-.38-1.15V99.55h.94v2.29a1,1,0,0,0,.09.52.61.61,0,0,0,.54.21m3.89.07h1.2v-.8H26.21c-.38,0-.58.13-.58.4a.36.36,0,0,0,.16.34.7.7,0,0,0,.35.06m.33-2.29H24.86v-.79h2q1.5,0,1.5,1.44v2.41H25.75a1.05,1.05,0,0,1-1.13-1,.49.49,0,0,1,0-.17,1.08,1.08,0,0,1,.44-1,2,2,0,0,1,1-.21h1.27a.68.68,0,0,0-.18-.56,1.33,1.33,0,0,0-.7-.16m2.62-2.19h1v5.25h-1Zm7.88,0v.89H35.26a1.06,1.06,0,0,0-.89.39A2.6,2.6,0,0,0,34,101a1.74,1.74,0,0,0,.35,1.3,1.23,1.23,0,0,0,.87.24H37v.91H35.22c-1.55,0-2.32-.84-2.32-2.52a3.32,3.32,0,0,1,.49-2,2.16,2.16,0,0,1,1.85-.76Zm2.28,4.5a.92.92,0,0,0,.6-.22,1.26,1.26,0,0,0,.34-.94,1.36,1.36,0,0,0-.27-.89.82.82,0,0,0-.65-.28.86.86,0,0,0-.68.31,1.51,1.51,0,0,0,0,1.7.83.83,0,0,0,.66.32m0,.83a1.79,1.79,0,0,1-1.53-.68,2.09,2.09,0,0,1-.4-1.33,2,2,0,0,1,.44-1.35,1.79,1.79,0,0,1,1.49-.65,1.85,1.85,0,0,1,1.92,2,2,2,0,0,1-.49,1.42,1.82,1.82,0,0,1-1.43.58m3.42-.08h-1V99.56H45.4a1.71,1.71,0,0,1,1.12.31,1.37,1.37,0,0,1,.4,1.1v2.44H46V101.1a.86.86,0,0,0-.11-.52.57.57,0,0,0-.51-.18h-.54v3h-1v-3H42.69Zm6,0h-.95V99.56h3.68a1.71,1.71,0,0,1,1.12.31,1.37,1.37,0,0,1,.4,1.1v2.44h-1V101.1a.86.86,0,0,0-.1-.52.57.57,0,0,0-.51-.18h-.55v3h-1v-3H48.66Zm5-3.85h1v3.85h-1Zm0-1.4h1v1h-1Zm4.18,5.25H55.41v-.79h2c.34,0,.52-.13.52-.39s-.18-.37-.52-.37h-.83a1.85,1.85,0,0,1-.9-.16,1,1,0,0,1-.36-.91q0-1.23,1.29-1.23h2v.8H57a1.32,1.32,0,0,0-.49.06.31.31,0,0,0-.17.32c0,.21.15.32.46.32h.87c.8,0,1.21.36,1.22,1.08a1.42,1.42,0,0,1-.27.91.91.91,0,0,1-.75.36m4.05,0H59.45v-.8h2q.51,0,.51-.39c0-.25-.17-.37-.51-.37h-.84a1.76,1.76,0,0,1-.9-.16,1,1,0,0,1-.35-.91c0-.81.43-1.22,1.28-1.22h2.06v.79H61a1.15,1.15,0,0,0-.49.07.31.31,0,0,0-.16.31c0,.21.15.32.45.32h.88c.79,0,1.2.36,1.21,1.08a1.4,1.4,0,0,1-.27.91.86.86,0,0,1-.72.37m1.62-3.85h1v3.85h-1Zm0-1.4h1v1h-1Zm3.44,4.5a1,1,0,0,0,.61-.22,1.25,1.25,0,0,0,.33-.94,1.37,1.37,0,0,0-.28-.89.8.8,0,0,0-.64-.28.84.84,0,0,0-.68.31,1.53,1.53,0,0,0,0,1.7.88.88,0,0,0,.67.32m0,.83a1.78,1.78,0,0,1-1.53-.68,2.16,2.16,0,0,1-.41-1.33,2.06,2.06,0,0,1,.45-1.35A1.78,1.78,0,0,1,67,99.48a1.91,1.91,0,0,1,1.32.48,1.94,1.94,0,0,1,.6,1.53,2.1,2.1,0,0,1-.49,1.42,1.85,1.85,0,0,1-1.43.58m3.4-.08h-1V99.56h1.81a1.75,1.75,0,0,1,1.17.32,1.44,1.44,0,0,1,.35,1.09v2.44h-1V101.1a1,1,0,0,0-.11-.55c-.07-.09-.24-.13-.51-.13h-.78Zm6.73,0h-1v-3.09h-.68v-.76h.68v-.22a2,2,0,0,1,.13-.87c.13-.21.42-.31.88-.31H78v.76a5.09,5.09,0,0,0-.78,0c-.09,0-.13.2-.13.49v.12H78v.77h-.91Zm3-.75a.92.92,0,0,0,.6-.22,1.22,1.22,0,0,0,.33-.94,1.36,1.36,0,0,0-.27-.89.8.8,0,0,0-.65-.28.82.82,0,0,0-.67.31,1.51,1.51,0,0,0,0,1.7.86.86,0,0,0,.67.32m0,.83a1.79,1.79,0,0,1-1.53-.68,2.16,2.16,0,0,1-.41-1.33,2.11,2.11,0,0,1,.45-1.35,1.78,1.78,0,0,1,1.49-.65,1.91,1.91,0,0,1,1.32.48,1.94,1.94,0,0,1,.6,1.53,2.05,2.05,0,0,1-.49,1.42,1.89,1.89,0,0,1-1.43.58m3.4-.08h-1V99.56H84.2c.44,0,.73.09.85.28a2.38,2.38,0,0,1,.16,1.09v.23H84.3v-.3c0-.28,0-.45-.1-.5a1.66,1.66,0,0,0-.66-.07Zm5.81-2.18h1.48l-.75-2Zm-.77,2.18H87.47l2.09-5.25h1.11l2.12,5.25H91.63l-.46-1.26H89ZM93,98.16h1v5.25H93Zm1.76,3.18V98.16h1v3.15a1.84,1.84,0,0,0,.18,1,1,1,0,0,0,.93.37,1.13,1.13,0,0,0,.84-.26,1.59,1.59,0,0,0,.27-1.06V98.16h1v3.18a2.54,2.54,0,0,1-.37,1.55,2.2,2.2,0,0,1-1.77.58,2.27,2.27,0,0,1-1.75-.55,2.33,2.33,0,0,1-.41-1.58m5.14-3.18h1v5.25h-1Zm3.11,4.48h1.21v-.8h-1.14c-.38,0-.58.13-.58.4a.34.34,0,0,0,.16.34.7.7,0,0,0,.35.06m.33-2.29H101.7v-.79h2q1.5,0,1.5,1.44v2.41h-2.58a1.18,1.18,0,0,1-.83-.31,1.11,1.11,0,0,1-.3-.83,1.09,1.09,0,0,1,.43-1,2.05,2.05,0,0,1,1-.21h1.27a.72.72,0,0,0-.18-.56,1.33,1.33,0,0,0-.7-.16" fill="#6b7688"/></svg>