<svg id="Layer_1" data-name="Layer 1" xmlns="http://www.w3.org/2000/svg" viewBox="0 0 120 120"><path d="M5.36,37.26V32.08h5.16v5.18Z" fill="#6b7688"/><path d="M15.66,32.08h5.17v5.17H15.66V32.08" fill="#6b7688"/><path d="M25.94,32.08h5.18v5.18H25.94Z" fill="#6b7688"/><path d="M46.54,52.67V63H41.4V37.26h5.16V32.08H36.26q0,18,0,36.05H62V52.67ZM56.83,63H51.71c0-1.71,0-3.41,0-5.12h5.12Z" fill="#6b7688"/><path d="M51.7,32.08H62c0,1.72,0,3.45,0,5.18H56.85q0,2.57,0,5.13H62v5.16H46.54V42.39h5.15c0-3.44,0-6.87,0-10.31" fill="#6b7688"/><path d="M67.14,32.08h5.15q0,18,0,36.06H67.14V32.08" fill="#6b7688"/><path d="M77.42,32.08v5.18H98v46.3H92.88V52.67H77.42V68.13h10.3V83.56H82.59V73.27H56.83V83.56H51.71V73.27H46.54V83.56H41.4V73.27H31.12V63H5.36V88.74h5.17c0-6.87,0-13.74,0-20.61h5.14V78.42h20.6c0,3.44,0,6.88,0,10.32h66.92q0-28.32,0-56.66ZM25.94,73.27H20.83c0-1.71,0-3.42,0-5.14h5.11ZM77.42,83.56H62V78.42H77.42ZM87.72,63H82.59c0-1.7,0-3.4,0-5.11h5.13Z" fill="#6b7688"/><path d="M108.32,32.08h5.15V88.74h-5.15V32.08" fill="#6b7688"/><path d="M25.94,42.39V52.67H20.83c0-3.43,0-6.85,0-10.28H5.36q0,7.72,0,15.46H31.12V42.39ZM15.66,52.67H10.52c0-1.71,0-3.41,0-5.12h5.14Z" fill="#6b7688"/><path d="M77.42,47.55V42.39h5.17v5.16Z" fill="#6b7688"/><path d="M87.72,42.39h5.16v5.16H87.72V42.39" fill="#6b7688"/><path d="M15.66,83.55h5.17v5.18H15.66V83.55" fill="#6b7688"/><path d="M25.94,83.55c1.73,0,3.45,0,5.18,0v5.19H25.94V83.55" fill="#6b7688"/></svg>