<svg id="Layer_1" data-name="Layer 1" xmlns="http://www.w3.org/2000/svg" viewBox="0 0 120 120"><path d="M97.54,103.42c1.27-1.11,2.66-2.2,3.9-3.44A11.19,11.19,0,0,0,105,92.46a10.17,10.17,0,0,0-2.2-6.57,22.45,22.45,0,0,0-7-6A51.38,51.38,0,0,0,80.05,74.1c-3.63-.74-7.32-1.16-11-1.72l-.8-.12c.31-.13.48-.21.65-.27a5.18,5.18,0,0,0-1.69-10.1c-1.6,0-3.19,0-4.95,0,5.16-9.61,4.35-18.65-2.21-27.2-6.55,8.54-7.37,17.56-2.21,27.2-1.55,0-3,0-4.4,0a8.11,8.11,0,0,0-1.84.21,5.13,5.13,0,0,0-3.83,4.64,5.19,5.19,0,0,0,3.41,5.19l.78.26c-2.39.31-4.67.54-6.93.9-7.48,1.19-14.73,3.12-21.32,7a21.72,21.72,0,0,0-6.66,5.74,10.18,10.18,0,0,0-.5,12,18.39,18.39,0,0,0,4.7,5,2.53,2.53,0,0,1,.59.54c-4.22-1.85-8.16-4-9.53-8.94a10.21,10.21,0,0,1,1-7.56c1.2-2.33,2.58-4.57,4-6.81Q38.39,45.66,59.56,11.22c.15-.25.32-.5.55-.87.23.34.41.59.57.85l34.7,56.48q5,8.2,10.08,16.4a17.45,17.45,0,0,1,2.65,6.41,9.1,9.1,0,0,1-2.52,8.06A20.63,20.63,0,0,1,97.54,103.42Z" fill="#6b7688"/><path d="M75.4,96H90.92l0-.22a6.36,6.36,0,0,0-.58-.3L79.93,90.81A5.88,5.88,0,0,1,77.1,88.6a3.46,3.46,0,0,1,1.74-5.32,8,8,0,0,1,2.69-.51c3.14-.07,6.28,0,9.42,0a3.16,3.16,0,0,1,3.38,3.16H81.48l0,.2c.25.12.49.26.75.37l10.92,4.81a5.44,5.44,0,0,1,2.61,2.1,3.61,3.61,0,0,1-1,5,6.05,6.05,0,0,1-3.53,1c-3.41,0-6.82.07-10.23,0C78.51,99.34,76.78,98,75.4,96Z" fill="#6b7688"/><path d="M50.16,99.35a7.93,7.93,0,0,1-7.29-3.27,1.37,1.37,0,0,0-1.36-.76c-3.3,0-6.61,0-9.91,0a1.41,1.41,0,0,0-1.06.5c-1.72,2.77-4.41,3.44-7.58,3.65.2-.37.3-.59.42-.8Q28,91,32.61,83.4a1.18,1.18,0,0,1,1.16-.67c1.9,0,3.79,0,5.69,0a1.1,1.1,0,0,1,1.11.61q4.65,7.72,9.31,15.43C50,99,50.06,99.15,50.16,99.35Zm-9.8-7.42-3.75-6.29-3.75,6.29Z" fill="#6b7688"/><path d="M72.43,96.23C71,97.92,69.32,99.32,67,99.38c-3.31.08-6.61,0-9.91,0a3.22,3.22,0,0,1-3.41-3.2c-.11-2.54-.06-5.09-.07-7.63,0-1.68,0-3.36,0-5,0-.6.19-.8.8-.78,1.32,0,2.65,0,4,0,.64,0,.84.18.83.82,0,3.65,0,7.31,0,11,0,1.59-.23,1.45,1.49,1.46H72.35Z" fill="#6b7688"/></svg>