<svg width="120" height="120" viewBox="0 0 120 120" fill="none" xmlns="http://www.w3.org/2000/svg">
<path d="M26.5308 57.9531C26.5778 57.9531 26.5778 57.9531 26.5778 58.0002L26.5308 57.9531Z" fill="#6B7688"/>
<path d="M96.2917 57.9538C96.2917 57.9538 94.8334 58.0009 93.14 58.0009V51.6975C93.093 50.4274 93.0459 48.6398 92.9989 45.4881C93.2341 43.8417 93.6574 42.2424 94.269 40.7371C94.9746 39.0907 95.2568 38.338 95.1157 37.0209C95.1627 35.8919 94.8334 33.8692 92.7637 33.3047H95.7272C96.0095 33.681 95.9624 35.5156 95.8683 36.033C95.7743 36.4564 95.7743 36.8798 95.8213 37.3031C95.8213 39.0436 95.7272 40.5959 95.7272 42.3364C95.6802 43.3713 95.7743 44.4062 95.9154 45.3941C96.1035 46.2878 95.8213 47.8872 95.9624 48.781C96.2447 49.9099 96.3387 56.6367 96.2917 57.9538Z" fill="#6B7688"/>
<path d="M89.3768 45.1118C89.7061 46.476 89.565 48.1694 89.4709 49.3455C89.1416 52.262 89.0005 54.8021 88.9064 57.6246C88.9064 57.7657 88.7183 57.8598 88.4831 57.9068C87.9186 57.9538 85.9429 58.189 85.9429 58.189C85.8958 56.8719 85.7077 53.0146 85.6606 51.9797C85.6136 50.9448 85.5195 48.4046 85.3313 45.6763C85.3313 45.0177 86.131 44.5944 86.2251 44.4062C86.9778 43.4184 86.8837 42.0072 86.8837 41.4427C86.8837 40.8782 86.8837 34.3396 86.3192 34.3396C85.7547 34.3396 86.2251 42.0072 85.3784 42.0072C84.5317 42.0072 85.1902 34.6218 84.6257 34.6218C84.0613 34.6218 84.4376 41.9601 83.8261 42.0072C83.2145 42.0542 83.4497 39.9844 83.4497 38.9495C83.4497 37.115 83.5438 34.6689 83.4968 34.1044C83.4497 33.5399 83.8261 33.3047 84.2965 33.3047L89.7061 33.3517C89.9413 35.7508 89.2827 37.6794 89.612 40.0785C89.8002 41.866 88.9535 43.2772 89.3768 45.1118Z" fill="#6B7688"/>
<path d="M54.7551 50.2396C54.8491 52.6386 54.708 55.3199 54.661 58.1423H49.9569C50.051 56.6841 49.9099 52.5916 49.8158 51.886C49.8629 50.71 49.4865 48.1227 49.5336 44.7829C49.5336 44.1243 49.3925 43.9361 50.3803 43.3717C52.7794 42.8072 54.661 40.7844 54.4258 38.2443C54.3317 36.0804 53.0616 34.0106 51.133 33.2109H53.8613C54.4258 33.258 54.6139 33.4461 54.661 34.0577C54.708 34.9985 54.5669 35.5159 54.708 36.4097C55.0373 39.4203 54.3317 42.5249 54.661 45.5355C54.8491 47.1819 54.708 48.5931 54.7551 50.2396Z" fill="#6B7688"/>
<path d="M62.6578 35.2809C62.7048 34.6223 62.7048 34.3871 62.7048 34.1049C62.7048 33.9167 62.5637 33.9167 62.4226 33.8227C62.2815 33.7286 61.5759 33.5875 61.3407 33.5404C61.1055 33.4934 60.8232 33.4463 60.588 33.4463C59.8824 33.4463 59.1298 33.2111 58.3771 33.2582C58.3301 33.2582 58.3301 33.2582 58.3301 33.3052C58.1419 33.4463 58.0008 33.6345 58.0008 33.8697C57.9067 34.4812 58.0949 35.0457 58.0008 36.2217C57.9067 37.3977 58.0008 40.5494 58.0008 41.3021C57.9538 47.041 58.283 47.1351 58.1419 51.6039C58.0949 52.827 58.1419 54.0971 58.283 55.3201C58.4242 56.0728 58.4712 56.8724 58.4242 57.6251C58.3771 57.8603 58.5182 58.0955 58.7534 58.1425H58.8005C60.0235 58.1896 62.5637 58.0014 62.5637 58.0014C62.7048 57.3899 62.7519 56.7313 62.7048 56.0728C62.6578 55.5083 62.7989 54.6145 62.7989 54.0971C62.7989 53.4855 62.846 52.874 62.7989 52.2625C62.7048 50.6161 62.7048 48.9697 62.7519 47.3232C62.893 43.1837 62.5167 40.7376 62.6578 36.6451V35.2809Z" fill="#6B7688"/>
<path d="M80.2039 57.578C80.1568 57.8602 79.9687 58.0484 79.6864 58.1425H78.9808C79.263 58.0013 79.4042 57.7191 79.4983 57.1076C79.5453 56.3079 79.5453 55.5552 79.4042 54.7556C79.3101 54.0029 78.9338 51.2746 78.7456 50.1456C78.4634 49.2989 77.5696 47.8406 76.817 47.6525C76.0643 47.4643 75.8291 47.2291 75.8291 46.3824C75.9232 45.959 76.6288 34.2459 76.5347 33.2111C77.3344 33.164 78.1341 33.164 78.9338 33.2111C79.3571 33.2111 79.5923 33.4463 79.5453 33.7285C79.4983 34.4812 79.5923 35.2808 79.7805 36.0335C80.0627 37.2565 80.1098 38.5266 80.0157 39.7497C79.7805 44.1715 80.2979 44.2656 80.2039 50.0515C80.2039 50.8042 80.345 53.9559 80.1568 55.1319C80.0627 56.3549 80.345 56.9194 80.2039 57.578Z" fill="#6B7688"/>
<path d="M26.5308 57.9531C26.5778 57.9531 26.5778 57.9531 26.5778 58.0002L26.5308 57.9531Z" fill="#6B7688"/>
<path d="M31.611 55.1789C31.4699 56.3549 31.7522 56.9194 31.611 57.5309C31.564 57.8131 31.3288 58.0483 31.0466 58.0954H30.9525C29.7294 58.1894 28.5064 57.9072 27.2833 57.9072H27.2363C27.2833 56.0726 27.1892 52.1683 27.1892 51.5097C27.2363 50.5689 26.86 48.2639 26.954 45.3004V44.9241C27.0481 44.7359 27.1422 44.5948 27.2833 44.4537C28.13 43.6069 29.1179 43.1365 29.5413 42.2428C29.7765 41.7724 29.8705 41.2079 29.9176 40.6904C30.0117 39.0911 29.5883 37.4917 28.7416 36.1275C28.3182 35.4219 27.7067 34.8104 26.954 34.4341C26.5307 34.34 26.1073 34.34 25.6839 34.5281C24.8372 34.7633 24.1316 35.3749 23.8023 36.1745C23.7553 36.2216 23.7553 36.2686 23.7083 36.3157C23.7553 35.9393 23.8023 35.563 23.7553 35.1867C23.6612 34.5281 23.7553 33.8696 23.9905 33.258C23.9905 33.258 29.6824 33.0699 31.7051 33.1169C31.7051 33.1169 31.7522 44.1714 31.6581 49.9574C31.611 50.8982 31.7522 54.0969 31.611 55.1789Z" fill="#6B7688"/>
<path d="M46.4287 53.5315C46.4758 54.7546 46.4287 57.8592 46.4287 58.1885C46.4287 58.1885 44.5001 58.1885 42.9007 58.1415C43.6534 57.6711 44.3119 57.0596 44.7353 56.2599C45.7702 52.92 43.7474 48.5452 43.4182 47.5104C43.0418 46.3343 42.8537 45.8169 42.4303 44.782C42.1951 44.0294 41.9599 43.3238 41.7717 42.9004C41.6306 42.6182 41.5365 42.2889 41.4895 41.9596C41.5836 40.5013 41.9129 38.6197 41.9129 38.1493C42.0069 37.2085 42.1481 34.8565 42.1481 33.6334C42.2421 33.6334 42.2892 33.5864 42.3833 33.5394C43.8886 32.9278 46.3347 33.5394 46.3347 33.5394C46.3347 33.5394 46.3817 33.6334 46.3817 33.6805C46.4758 34.245 46.5228 34.8095 46.5228 35.3739V36.2677C46.5228 37.2556 46.4758 37.1144 46.5228 38.7608V40.7365C46.5228 41.301 46.4758 41.9126 46.4287 42.5711C46.3817 43.3238 46.3817 44.1705 46.3817 45.1113C46.3817 46.8988 46.5228 48.0748 46.5699 49.2508C46.4287 50.6621 46.3817 52.1203 46.4287 53.5315Z" fill="#6B7688"/>
<path d="M42.3834 56.5432C42.1952 56.8254 41.4896 57.5781 41.4896 57.1077C41.4896 56.6373 41.2544 44.8301 41.2544 44.4538C41.2544 44.3127 41.3955 44.2186 41.4426 44.4538C41.5837 45.1594 41.7248 46.1002 41.8659 46.7117C41.96 47.4174 42.1011 48.123 42.1952 48.6404C42.3363 49.4401 42.4304 50.0987 42.5715 50.7572C42.6186 50.9924 42.6656 51.4158 42.7126 51.698C42.8538 52.4036 42.9008 53.0622 42.9479 53.7678C42.9479 54.6145 42.8538 55.7905 42.3834 56.5432Z" fill="#6B7688"/>
<path d="M42.6656 57.5771C42.5715 57.6241 42.4304 57.7182 42.3834 57.6241C42.3363 57.53 42.2893 57.53 42.3363 57.483C43.136 57.0126 43.5594 55.7895 43.6064 55.3191C43.6535 54.7546 43.6535 54.1902 43.5594 53.6257C43.4653 52.9671 43.3712 52.2145 43.2772 51.4148C43.1831 50.8973 42.9479 50.3328 42.8538 49.8154C42.7127 49.2039 42.5715 48.6394 42.4304 47.7927C42.3363 47.3693 42.2893 46.993 42.2893 46.5696C42.2893 46.4755 42.4775 46.4755 42.5245 46.6637C42.6186 46.9459 42.7127 47.2752 42.8068 47.5575C43.089 48.7335 43.4183 49.8624 43.8416 50.9914C44.0768 51.7441 44.265 52.4967 44.4061 53.2493C44.6413 54.2842 44.4532 55.3662 43.9357 56.307C43.6064 56.8244 43.136 57.2478 42.6656 57.5771Z" fill="#6B7688"/>
<path d="M37.9616 43.8411C37.9146 44.7819 38.1027 45.7698 38.0557 46.6635V46.8987C37.9616 47.6514 37.9616 48.4511 37.9616 49.2037C37.9616 50.1916 38.0557 51.1794 38.0557 52.1673V57.2947C38.0557 57.4828 38.0557 57.6239 38.0087 57.8121C37.9146 58.0473 37.7735 58.1414 37.6323 58.1414L34.8099 58.0944C34.6688 55.6953 34.9981 53.7666 34.8569 51.3676C34.7158 49.58 35.1862 48.1218 34.951 46.3343C34.8569 44.923 34.8099 43.5118 34.904 42.1006C35.0921 39.1841 35.1392 36.6439 35.1862 33.8215C35.1862 33.6804 35.2803 33.5863 35.4214 33.5393C35.9389 33.4452 37.1619 33.0689 37.6323 33.257C38.0087 33.4452 38.1968 33.9626 38.1498 34.7153C38.1027 35.7972 38.1498 37.4436 38.1027 38.5256C38.1027 40.4072 38.0557 42.0065 37.9616 43.8411Z" fill="#6B7688"/>
<path d="M72.6775 53.5328C72.7245 54.7558 72.6775 57.8605 72.7245 58.1898H72.5834C71.9248 58.1898 69.3846 58.1898 66.7974 58.1427C66.6093 57.6253 66.3741 57.1078 66.1389 56.5904C65.6214 55.6966 65.9037 55.1792 66.4681 54.8029C66.7504 54.5677 67.0797 54.4736 67.456 54.5206C68.1145 54.4736 68.2557 54.2384 68.2557 53.9561V53.2976C68.2557 52.2156 68.3027 51.0396 68.3027 50.8985C68.2557 47.4175 68.2557 42.6664 68.2557 42.6664C68.2557 41.2082 68.3027 39.6559 68.3027 37.8683C68.2557 36.7864 67.5501 36.7864 67.3149 36.7864C66.4681 36.7394 65.5744 35.9397 66.2329 34.6696C66.4681 34.2462 66.6563 33.8229 66.8445 33.3525C68.7261 33.2113 70.6077 33.2584 72.4423 33.5406C72.6775 34.1051 72.7715 34.7637 72.7245 35.3752C72.6775 37.445 72.6304 36.6923 72.6775 38.7621C72.7245 40.6907 72.3952 42.3842 72.3952 45.1125C72.3952 46.9001 72.6775 48.0761 72.7245 49.2521C72.7715 50.334 72.6304 51.2748 72.6304 52.8272C72.6304 53.0624 72.6775 53.2976 72.6775 53.5328Z" fill="#6B7688"/>
<path d="M6.30329 75.217L5.64473 74.6055L5.0332 75.217L5.64473 75.8756L6.30329 75.217Z" fill="#6B7688"/>
<path d="M4.13952 74.6055L3.48096 75.217L4.13952 75.8756L4.79809 75.217L4.13952 74.6055Z" fill="#6B7688"/>
<path d="M40.831 71.6895C41.0662 71.6895 41.3014 71.6425 41.5366 71.5954C41.7718 71.5484 41.9599 71.4543 42.1481 71.3132C42.3363 71.1721 42.4774 71.0309 42.6185 70.8428C42.7596 70.6076 42.8067 70.3724 42.8067 70.1372L42.8537 65.0098L42.054 65.1509L42.1011 70.2313C42.1011 70.3253 42.054 70.4194 42.007 70.4665C41.9129 70.5135 41.8188 70.6076 41.7247 70.6546C41.6307 70.7017 41.4895 70.7487 41.3484 70.7487C41.2073 70.7487 41.0662 70.7957 40.9251 70.7957H39.2786C38.9964 70.8428 38.7612 70.7487 38.526 70.6076C38.6671 70.3253 38.7612 70.0431 38.7612 69.7138C38.7612 69.4316 38.7142 69.1493 38.6201 68.9141C38.526 68.6789 38.3849 68.4437 38.2438 68.2556C37.9615 67.8322 37.4911 67.597 36.9737 67.644C36.5503 67.6911 36.1269 67.8792 35.7977 68.1615C35.3273 68.5848 34.9509 69.1023 34.7157 69.6668L34.8098 65.0568L34.0101 65.1979L34.1042 70.7957H28.9298C29.2591 70.4665 29.4002 70.0431 29.4002 69.5727C29.4002 69.3375 29.3531 69.1023 29.3061 68.8671C29.212 68.6319 29.1179 68.4437 29.0238 68.2556C28.9298 68.0674 28.7886 67.9263 28.6005 67.8322C28.4594 67.7381 28.3182 67.644 28.1301 67.644C27.8949 67.644 27.6597 67.7381 27.4715 67.9263C27.2363 68.1144 27.0482 68.3496 26.86 68.6319C26.6248 68.9141 26.4837 69.2434 26.3896 69.6197C26.2485 69.996 26.1544 70.3724 26.1073 70.7957H8.70241C8.37312 70.7957 8.09088 70.7487 7.80864 70.6076C7.5264 70.4194 7.2912 70.1842 7.05599 69.949L6.44447 70.4665C6.82079 70.8898 7.05599 71.1721 7.19711 71.3602C7.2912 71.5013 7.38528 71.6425 7.43232 71.8306C7.43232 71.9717 7.38528 72.1129 7.24415 72.2069C7.10303 72.3481 6.91487 72.4421 6.72671 72.5362C6.49151 72.6303 6.25631 72.7244 6.02111 72.7714C5.73886 72.8185 5.50366 72.8655 5.22142 72.8655C4.75102 72.9125 4.23357 72.7244 3.85725 72.4421C3.52797 72.1599 3.3398 71.7365 3.3398 71.2661C3.3398 70.7017 3.52797 70.0901 3.85725 69.6197L3.3398 69.2904C3.1046 69.6197 2.91644 69.996 2.77532 70.3724C2.6342 70.7487 2.58716 71.125 2.58716 71.5013C2.58716 71.8306 2.6342 72.1599 2.77532 72.4892C2.8694 72.7714 3.05756 73.0066 3.29276 73.1948C3.52797 73.383 3.81021 73.5711 4.09245 73.6652C4.42173 73.7593 4.79806 73.8534 5.12734 73.8534C5.50366 73.8534 5.87998 73.8063 6.20927 73.6652C6.53855 73.5711 6.86783 73.43 7.19711 73.2418C7.47936 73.0537 7.71456 72.8655 7.90272 72.6303C8.04384 72.4421 8.18496 72.2069 8.18496 71.9717C8.18496 71.8777 8.18496 71.7365 8.13792 71.6425C8.27904 71.6895 8.37312 71.7365 8.51425 71.7365C8.65537 71.7365 8.74945 71.7836 8.89057 71.7836H26.1544C26.2014 72.1129 26.2485 72.3951 26.3896 72.6773C26.4837 72.9126 26.6248 73.1948 26.813 73.383C27.0011 73.5711 27.1893 73.7122 27.4245 73.8534C27.6597 73.9474 27.9419 73.9945 28.1771 73.9945C28.3653 73.9945 28.6005 73.9474 28.7886 73.9004C28.9768 73.8063 29.1179 73.7122 29.3061 73.6182C29.4472 73.477 29.5413 73.3359 29.6354 73.1948C29.7295 73.0066 29.7765 72.8185 29.7765 72.6303C29.7765 72.3481 29.6824 72.0658 29.5413 71.8306H35.3743C36.2681 71.8777 37.1618 71.6895 37.9615 71.3132C38.0556 71.4073 38.1497 71.5013 38.2908 71.5954C38.6201 71.7365 38.9494 71.8306 39.3257 71.8306H40.1724L40.831 71.6895ZM26.907 69.902C27.0011 69.6668 27.0952 69.4316 27.2363 69.1964C27.3304 69.0082 27.4715 68.82 27.6126 68.6789C27.7067 68.5378 27.8949 68.4908 28.036 68.4908C28.1301 68.4908 28.2242 68.5378 28.3182 68.5848C28.4123 68.6319 28.4594 68.726 28.5534 68.82C28.6005 68.9141 28.6475 69.0552 28.6946 69.1493C28.7416 69.2904 28.7416 69.3845 28.7416 69.5256C28.7416 69.8549 28.5534 70.1842 28.2712 70.3253C27.8008 70.5605 27.2363 70.6546 26.7189 70.6546C26.7659 70.4664 26.813 70.1842 26.907 69.902ZM28.7416 72.8185C28.5534 72.9596 28.3653 73.0066 28.1301 73.0066C27.8008 73.0066 27.4715 72.8655 27.2363 72.6303C27.0011 72.3481 26.813 72.0188 26.7659 71.6425C27.1893 71.5954 27.6126 71.5013 27.989 71.3602C28.6475 71.5013 28.9768 71.8306 28.9768 72.3481C28.9768 72.5362 28.8827 72.7244 28.7416 72.8185ZM35.2332 70.7487H34.6687C34.9509 70.1372 35.3273 69.6197 35.7506 69.1023C36.0329 68.773 36.4562 68.5848 36.8796 68.5378C37.0207 68.5378 37.1618 68.5848 37.303 68.6319C37.4441 68.6789 37.5382 68.773 37.6322 68.8671C37.7263 68.9612 37.8204 69.1023 37.8674 69.2434C37.9145 69.3845 37.9615 69.5256 37.9615 69.6668C37.9615 70.0431 37.7263 70.3724 37.35 70.4665C36.6444 70.7017 35.9388 70.7957 35.2332 70.7487Z" fill="#6B7688"/>
<path d="M44.9235 71.6893L44.9705 65.0566L44.1238 65.1507L44.2179 71.6893H44.9235Z" fill="#6B7688"/>
<path d="M48.6869 73.1946C48.9221 73.3827 49.2043 73.5709 49.5336 73.665C49.9099 73.7591 50.2863 73.8531 50.6626 73.8531C51.0389 73.8531 51.4152 73.8061 51.7445 73.665C52.0738 73.5709 52.356 73.3827 52.5912 73.1946C52.8264 73.0064 53.0146 72.7712 53.1557 72.489C53.2968 72.2067 53.3439 71.9245 53.3439 71.5952C53.3439 71.407 53.3439 71.2189 53.2968 71.0307L53.1557 70.3251C53.1087 70.0899 53.0146 69.8547 52.9205 69.6195C52.8264 69.3843 52.7324 69.1491 52.6383 68.9609L51.8856 69.3843C51.9797 69.6195 52.0738 69.8547 52.1679 70.0899C52.262 70.3251 52.356 70.5133 52.4031 70.7485C52.4501 70.9366 52.4972 71.1248 52.5442 71.313C52.5912 71.4541 52.5912 71.6422 52.5912 71.7834C52.5912 71.9715 52.5442 72.1126 52.4501 72.2538C52.356 72.3949 52.2149 72.536 52.0268 72.6301C51.8386 72.7242 51.6504 72.8182 51.4152 72.9123C51.18 72.9594 50.8978 73.0064 50.6626 73.0064C50.1922 73.0534 49.6747 72.8653 49.2984 72.583C48.9691 72.3008 48.781 71.8774 48.781 71.407C48.781 70.8426 48.9691 70.231 49.2984 69.7606L48.781 69.4313C48.4987 69.7606 48.3106 70.1369 48.2165 70.5133C48.0754 70.8896 48.0283 71.2659 48.0283 71.6422C48.0283 71.9715 48.0754 72.3008 48.2165 72.583C48.3106 72.7712 48.4987 73.0064 48.6869 73.1946Z" fill="#6B7688"/>
<path d="M51.18 67.7386L50.5685 67.0801L49.9099 67.7386L50.5685 68.3502L51.18 67.7386Z" fill="#6B7688"/>
<path d="M77.3343 67.3148L76.7228 66.6562L76.0642 67.3148L76.7228 67.9734L77.3343 67.3148Z" fill="#6B7688"/>
<path d="M75.7821 71.5008C76.0644 71.4067 76.2996 71.2186 76.4407 70.9834C76.723 71.4538 77.2404 71.689 78.0401 71.689H79.2161C79.4983 71.689 79.7335 71.6419 79.9217 71.6419C80.1099 71.6419 80.3451 71.5949 80.4862 71.5479L80.9095 71.4067C81.1447 71.3127 81.3799 71.0775 81.474 70.8422C81.6152 70.513 81.6622 70.1837 81.6622 69.8074C81.7092 68.9606 81.5681 68.1139 81.2388 67.3613C80.9566 66.6557 80.2039 66.3264 79.4983 66.6086C79.4513 66.6086 79.4043 66.6557 79.4043 66.6557C79.2161 66.7497 79.0279 66.8909 78.8868 67.079C78.7457 67.2672 78.6516 67.4553 78.5575 67.6905C78.4634 67.9257 78.4164 68.208 78.4164 68.4432C78.4164 68.8665 78.5575 69.2429 78.7927 69.5722C79.075 69.8544 79.4513 70.0426 79.8747 69.9955C80.0628 69.9955 80.251 69.9485 80.4391 69.9014C80.6273 69.8544 80.7684 69.7603 80.9095 69.6192V70.3248C80.9095 70.4659 80.6743 70.56 80.251 70.6541C79.5924 70.7482 78.8868 70.7952 78.2282 70.7482H77.993C77.1934 70.7482 76.77 70.513 76.77 70.1366C76.77 69.9955 76.77 69.8074 76.817 69.6662C76.8641 69.384 76.8641 69.1488 76.9111 68.8665L76.2055 68.7725C76.2055 68.8665 76.1585 68.9606 76.1585 69.1017C76.1585 69.2429 76.1114 69.337 76.1114 69.4781C76.1114 69.6192 76.0644 69.7133 76.0644 69.8074C76.0644 69.9014 76.0173 69.9955 76.0173 70.0896C75.9703 70.3248 75.8292 70.513 75.594 70.607C75.2647 70.7011 74.9354 70.7482 74.6061 70.7482H57.6246V70.6541C57.6716 69.9485 57.5305 69.1958 57.1542 68.5843C56.8719 68.1139 56.4015 67.8787 55.8841 67.8787C55.6489 67.8787 55.4137 67.9257 55.2255 68.0198C55.0373 68.1139 54.8492 68.255 54.7081 68.4432C54.5669 68.6313 54.4258 68.8195 54.3788 69.0547C54.2847 69.2899 54.2377 69.5722 54.2377 69.8544C54.1906 70.3248 54.4258 70.8422 54.8021 71.1245C55.2725 71.4538 55.79 71.5949 56.3545 71.5949H56.7308C56.4015 72.3005 55.5548 72.7239 54.2847 72.912L54.661 73.7588C55.3196 73.7117 55.9311 73.4295 56.4485 73.0531C56.919 72.6768 57.2482 72.2064 57.4834 71.689H74.5591C74.9354 71.736 75.3588 71.689 75.7821 71.5008ZM80.5803 69.1958C80.3921 69.2429 80.251 69.2899 80.0628 69.2899C79.8276 69.2899 79.5924 69.2429 79.4043 69.1017C79.2631 68.9606 79.1691 68.7725 79.1691 68.5373C79.1691 68.255 79.2631 68.0198 79.4513 67.8317C79.5924 67.6435 79.8276 67.5494 80.0628 67.5494C80.3451 67.5494 80.5803 67.6905 80.6743 67.9257C80.8625 68.3021 80.9566 68.6784 80.9566 69.1017C80.9095 69.0547 80.7684 69.1018 80.5803 69.1958ZM56.4956 70.7952C55.4607 70.7952 54.9903 70.513 54.9903 69.9014C54.9903 69.6192 55.0844 69.337 55.2255 69.1017C55.3666 68.9136 55.6489 68.7725 55.8841 68.8195C56.2133 68.8195 56.4956 69.0547 56.6367 69.337C56.8719 69.8074 56.966 70.3248 56.919 70.8422L56.4956 70.7952Z" fill="#6B7688"/>
<path d="M80.7213 65.057L80.1097 64.3984L79.4512 65.057L80.1097 65.7156L80.7213 65.057Z" fill="#6B7688"/>
<path d="M86.4132 65.1039L85.8016 64.4453L85.1431 65.1039L85.8016 65.7624L86.4132 65.1039Z" fill="#6B7688"/>
<path d="M87.9656 65.1039L87.307 64.4453L86.6484 65.1039L87.307 65.7624L87.9656 65.1039Z" fill="#6B7688"/>
<path d="M106.688 67.6912L106.829 68.0675C107.346 67.8793 107.864 67.7853 108.428 67.7382L108.522 67.2208C108.428 67.2208 108.334 67.2208 108.24 67.2678C108.146 67.2678 108.005 67.3148 107.911 67.3148C107.769 67.3148 107.581 67.2678 107.487 67.1737C107.393 67.1267 107.346 66.9856 107.346 66.8915C107.346 66.7974 107.393 66.7033 107.487 66.6563C107.675 66.5152 107.958 66.5152 108.146 66.6563L108.334 66.374C108.193 66.1859 108.005 66.0918 107.769 66.0918C107.346 66.0918 106.97 66.4681 106.97 66.8915C106.97 67.1267 107.111 67.3619 107.299 67.456C107.205 67.503 107.158 67.503 107.064 67.5501C106.829 67.6441 106.782 67.6441 106.688 67.6912Z" fill="#6B7688"/>
<path d="M110.639 73.1957L109.98 72.5371L109.369 73.1957L109.98 73.8542L110.639 73.1957Z" fill="#6B7688"/>
<path d="M110.874 73.1957L111.486 73.8542L112.144 73.1957L111.486 72.5371L110.874 73.1957Z" fill="#6B7688"/>
<path d="M113.32 71.5963C113.65 71.5493 113.979 71.4552 114.308 71.3141C114.543 71.4082 114.826 71.5022 115.061 71.5963C115.296 71.6434 115.578 71.6904 115.814 71.6904C116.284 71.7374 116.801 71.5493 117.178 71.267C117.507 70.9848 117.695 70.5144 117.648 70.091C117.648 69.6677 117.601 69.2913 117.46 68.915C117.319 68.5387 117.131 68.2094 116.895 67.8801C116.66 67.5508 116.331 67.2686 116.002 67.0334C115.625 66.7982 115.249 66.563 114.826 66.4219L114.449 67.2216C114.826 67.3627 115.155 67.5508 115.484 67.739C115.766 67.9272 116.049 68.2094 116.284 68.4446C116.472 68.7269 116.66 69.0091 116.801 69.2913C116.942 69.5736 116.99 69.9029 116.99 70.2321C116.99 70.3733 116.895 70.5144 116.66 70.6085C116.378 70.7026 116.096 70.7496 115.814 70.7496H115.343C115.672 70.4203 115.861 69.9969 115.861 69.5265C115.861 69.2913 115.814 69.1032 115.766 68.868C115.672 68.6798 115.578 68.4917 115.437 68.3505C115.296 68.2094 115.155 68.0683 114.967 67.9742C114.779 67.8801 114.59 67.8331 114.402 67.8331C114.214 67.8331 114.026 67.8801 113.838 67.9742C113.65 68.0683 113.509 68.2094 113.367 68.3505C113.226 68.4917 113.132 68.6798 113.038 68.868C112.944 69.0561 112.944 69.2913 112.944 69.5265C112.944 69.9499 113.085 70.3733 113.414 70.7026C113.273 70.7026 113.085 70.7496 112.944 70.7496H112.427C111.627 70.7496 111.204 70.5144 111.204 70.1381C111.204 69.9969 111.204 69.8088 111.251 69.6677C111.298 69.3854 111.298 69.1502 111.345 68.868L110.639 68.7739C110.639 68.868 110.592 68.9621 110.592 69.1032C110.592 69.2443 110.545 69.3384 110.545 69.4795C110.545 69.6206 110.498 69.7147 110.498 69.8088C110.498 69.9029 110.451 70.044 110.451 70.091C110.404 70.3262 110.263 70.5144 110.028 70.6085C109.698 70.7026 109.369 70.7496 109.04 70.7496C108.24 70.7496 107.817 70.5144 107.817 70.1381C107.817 69.9969 107.817 69.8088 107.864 69.6677C107.911 69.3854 107.911 69.1502 107.958 68.868L107.252 68.7739C107.252 68.868 107.205 68.9621 107.205 69.1032C107.205 69.2443 107.158 69.3384 107.158 69.4795C107.158 69.6206 107.111 69.7147 107.111 69.8088C107.111 69.9029 107.064 70.044 107.064 70.091C107.017 70.3262 106.876 70.5144 106.641 70.6085C106.311 70.7026 105.982 70.7496 105.653 70.7496H88.9535C88.7183 70.7966 88.436 70.7026 88.2478 70.5614C88.1067 70.4203 88.0126 70.1851 88.0126 69.9499L88.0597 66.4219L87.26 66.563V67.1745C86.5544 67.3156 85.8958 67.5508 85.3313 67.9742C84.908 68.3035 84.6257 68.7739 84.6257 69.3384C84.6257 69.5265 84.6728 69.7147 84.7669 69.9029C84.8609 70.091 85.0021 70.2321 85.1432 70.3262C85.2843 70.4673 85.4725 70.5614 85.6606 70.6085C85.8488 70.7026 86.084 70.7026 86.3192 70.7026C86.6955 70.7026 87.0248 70.6085 87.3541 70.4674C87.4952 71.22 88.0126 71.6434 89.0005 71.6434H105.418C105.794 71.6434 106.17 71.5963 106.547 71.4552C106.829 71.3611 107.064 71.173 107.205 70.9378C107.487 71.4082 108.005 71.6434 108.804 71.6434C109.181 71.6434 109.557 71.5963 109.933 71.4552C110.216 71.3611 110.451 71.173 110.592 70.9378C110.874 71.4082 111.392 71.6434 112.191 71.6434C112.568 71.7374 112.944 71.6904 113.32 71.5963ZM113.744 69.0091C114.073 68.6798 114.543 68.6798 114.873 69.0091C115.014 69.1502 115.108 69.3854 115.108 69.5736C115.108 70.044 114.826 70.3262 114.261 70.5144C114.026 70.4203 113.791 70.2792 113.65 70.091C113.509 69.9499 113.414 69.7617 113.414 69.5265C113.509 69.3854 113.556 69.1502 113.744 69.0091ZM86.4133 69.9029C86.2721 69.9029 86.131 69.9029 85.9899 69.8558C85.8488 69.8088 85.7547 69.8088 85.6136 69.7617C85.5195 69.7147 85.4254 69.6677 85.3784 69.5736C85.3313 69.4795 85.2843 69.3384 85.2843 69.2443C85.2843 69.1032 85.3313 68.9621 85.4254 68.8209C85.5195 68.6798 85.6606 68.5387 85.8488 68.4917C86.0369 68.3976 86.2251 68.3035 86.4603 68.2565L87.1659 68.1153V69.7617C86.9307 69.8558 86.6485 69.9029 86.4133 69.9029Z" fill="#6B7688"/>
<path d="M4.04558 79.3106C4.23374 79.0754 4.51599 78.8873 4.79823 78.7462C5.12751 78.605 5.45679 78.511 5.83312 78.511C6.06832 78.511 6.30352 78.558 6.53872 78.605C6.72688 78.6521 6.91505 78.7462 7.10321 78.8873C7.24433 78.9814 7.38545 79.1225 7.52657 79.2166C7.66769 79.3106 7.76177 79.4518 7.80881 79.5929L8.51442 78.9814C8.42034 78.8402 8.27922 78.6991 8.13809 78.511C7.99697 78.3228 7.80881 78.1817 7.57361 78.0876C7.33841 77.9465 7.10321 77.8524 6.82096 77.7583C6.49168 77.6642 6.1624 77.6172 5.83312 77.6172C5.36271 77.6172 4.84527 77.7113 4.42191 77.8994C3.99854 78.0876 3.66926 78.3228 3.33998 78.6521C3.01069 78.9814 2.77549 79.4047 2.63437 79.8281C2.44621 80.2985 2.39917 80.7689 2.39917 81.2393C2.39917 81.7567 2.49325 82.2271 2.63437 82.6975C2.82253 83.1209 3.05774 83.4972 3.33998 83.8265C3.99854 84.4851 4.89231 84.8614 5.83312 84.8614C6.1624 84.8614 6.49168 84.8144 6.82096 84.7203C7.10321 84.6262 7.38545 84.4851 7.62065 84.344C7.85585 84.2028 8.04401 84.0617 8.18513 83.8736C8.32626 83.7324 8.46738 83.5913 8.56146 83.4502L7.85585 82.8857C7.76177 82.9798 7.71473 83.0739 7.62065 83.168C7.52657 83.3091 7.38545 83.4032 7.24433 83.4972C7.05617 83.5913 6.868 83.6854 6.67984 83.7795C6.11536 83.9676 5.45679 83.9676 4.89231 83.7324C4.61007 83.5913 4.32783 83.4032 4.13966 83.168C3.9515 82.9328 3.76334 82.6505 3.66926 82.3212C3.57518 81.9919 3.4811 81.6156 3.4811 81.2863C3.4811 80.91 3.52814 80.5807 3.66926 80.2515C3.62222 79.8751 3.76334 79.5458 4.04558 79.3106Z" fill="#6B7688"/>
<path d="M13.7829 84.1558V79.8281H12.8421V82.0861C12.8421 82.3213 12.8421 82.5094 12.795 82.7446C12.748 82.9798 12.6539 83.168 12.5598 83.3562C12.4657 83.5443 12.3246 83.6854 12.1365 83.7795C11.9483 83.8736 11.7131 83.9677 11.4779 83.9677C11.1956 84.0147 10.8664 83.8736 10.6782 83.6384C10.443 83.3562 10.3489 83.0269 10.396 82.6505V79.8281H9.45515V82.6976C9.40811 83.2621 9.59627 83.7795 9.92555 84.2029C10.3019 84.5792 10.8193 84.8144 11.3368 84.7674C11.5249 84.7674 11.7131 84.7203 11.9013 84.6733C12.0424 84.6262 12.2305 84.5792 12.3717 84.4851C12.5128 84.4381 12.6069 84.297 12.7009 84.2029C12.795 84.1088 12.8891 84.0147 12.9361 83.9206L12.9832 84.6262H13.8769V84.1558H13.7829Z" fill="#6B7688"/>
<path d="M15.9938 77.7109H15.053V84.6259H15.9938V77.7109Z" fill="#6B7688"/>
<path d="M18.2988 77.8984H17.2639V78.9333H18.2988V77.8984Z" fill="#6B7688"/>
<path d="M18.2516 79.8281H17.3108V84.6262H18.2516V79.8281Z" fill="#6B7688"/>
<path d="M22.109 79.6856C21.9209 79.6856 21.7327 79.7327 21.5445 79.7797C21.4034 79.8268 21.2153 79.8738 21.0741 79.9679C20.933 80.0619 20.8389 80.156 20.7449 80.2501C20.6508 80.3442 20.5567 80.4383 20.5097 80.5324L20.4626 79.8267H19.5688V84.6719H20.5097V82.461C20.5097 82.2258 20.5567 81.9906 20.6037 81.7554C20.6508 81.5202 20.7449 81.332 20.8389 81.1439C20.933 80.9557 21.0741 80.8146 21.2623 80.7205C21.4505 80.6264 21.6857 80.5324 21.9209 80.5324C22.2031 80.4853 22.5324 80.6264 22.7206 80.8616C22.9087 81.1439 23.0028 81.5202 23.0028 81.8495V84.6719H23.9436V81.8024C23.9906 81.238 23.8025 80.7205 23.4732 80.2971C23.1439 79.8738 22.6265 79.6386 22.109 79.6856Z" fill="#6B7688"/>
<path d="M29.071 84.2016V81.3792C29.1181 80.9088 28.9299 80.4384 28.5536 80.1091C28.1302 79.7798 27.6128 79.6387 27.0953 79.6387C26.8601 79.6387 26.6249 79.6387 26.3897 79.6857L25.8253 79.8268C25.6841 79.8739 25.543 79.968 25.4019 80.015C25.3078 80.062 25.2137 80.1561 25.1196 80.2032L25.543 80.8147C25.6841 80.7206 25.8723 80.6265 26.1075 80.4854C26.3897 80.3913 26.672 80.3443 26.9542 80.3443C27.2835 80.3443 27.5657 80.4384 27.848 80.5795C28.0832 80.7676 28.2243 81.0499 28.1773 81.3321V81.5203H26.9542C26.3897 81.4732 25.8253 81.6614 25.4019 81.9907C25.0726 82.32 24.8374 82.7433 24.8374 83.2137C24.8374 83.4489 24.8844 83.6841 24.9785 83.9193C25.0726 84.1075 25.2137 84.2486 25.3548 84.3897C25.543 84.5309 25.7312 84.6249 25.9193 84.672C26.1075 84.719 26.2957 84.7661 26.4838 84.7661C26.8131 84.7661 27.0953 84.719 27.3776 84.5779C27.6598 84.4368 27.895 84.2486 28.0832 84.0134V84.5779H28.9299V84.3427L29.071 84.2016ZM28.1773 82.8845C28.1773 83.0256 28.1302 83.1667 28.0832 83.3078C27.9891 83.4489 27.895 83.5901 27.8009 83.6841C27.6598 83.7782 27.5187 83.8723 27.3776 83.9193C27.1894 83.9664 27.0483 84.0134 26.8601 84.0134C26.5779 84.0134 26.3427 83.9664 26.1075 83.8253C25.9193 83.6841 25.8253 83.496 25.8253 83.2608C25.8253 83.1667 25.8253 83.0256 25.8723 82.9315C25.9193 82.7904 25.9664 82.6963 26.0605 82.6022C26.1545 82.5081 26.2957 82.4141 26.4368 82.367C26.6249 82.32 26.8601 82.2729 27.0483 82.2729H27.7069C27.8009 82.2729 27.895 82.2729 27.9891 82.32C28.0832 82.367 28.1302 82.32 28.1302 82.367V82.8845H28.1773Z" fill="#6B7688"/>
<path d="M32.8342 79.7813C32.646 79.7813 32.4579 79.8283 32.2697 79.8753C32.0816 79.9224 31.9404 80.0165 31.7993 80.1105C31.6582 80.2046 31.5641 80.2987 31.47 80.3928C31.376 80.4868 31.3289 80.5809 31.2348 80.675L31.1878 79.9224H30.3411V84.7205H31.2819V82.1803C31.2819 81.9921 31.3289 81.804 31.376 81.6158C31.47 81.4747 31.5641 81.2865 31.6582 81.1454C31.7993 81.0043 31.9404 80.9102 32.0816 80.8161C32.2697 80.7221 32.4579 80.7221 32.646 80.7221C32.7872 80.7221 32.9753 80.7691 33.1164 80.8161L33.3046 79.9694C33.2105 79.9224 33.1635 79.9224 33.0694 79.9224C33.0224 79.7812 32.9283 79.7813 32.8342 79.7813Z" fill="#6B7688"/>
<path d="M36.1741 83.4502L34.6217 79.8281H33.5398L35.7037 84.5792L35.5625 84.9085C35.4684 85.0966 35.4214 85.2378 35.3744 85.4259C35.3273 85.5671 35.2803 85.6611 35.1862 85.8023C35.1392 85.8963 35.0451 85.9904 34.951 86.0375C34.8569 86.0845 34.7628 86.1315 34.6688 86.1315C34.5747 86.1315 34.4336 86.0845 34.3395 86.0375C34.2454 85.9904 34.1513 85.9434 34.1043 85.8493L33.6809 86.5079L34.1043 86.7901C34.5747 86.9783 35.0451 86.8842 35.4684 86.649C35.6566 86.4608 35.8448 86.2727 35.9859 86.0845C36.127 85.8493 36.2211 85.6141 36.3152 85.3318C36.4093 85.0966 36.5033 84.8614 36.5974 84.6262L38.5261 79.9222H37.4912L36.1741 83.4502Z" fill="#6B7688"/>
<path d="M43.3712 77.7109L40.6428 84.6259H41.6777L42.3833 82.6972H45.2057L45.9113 84.6259H47.0403L44.312 77.7109H43.3712ZM42.7126 81.8505L43.8416 78.8399L44.9705 81.8505H42.7126Z" fill="#6B7688"/>
<path d="M50.3331 79.7813C50.145 79.7813 49.9568 79.8283 49.7687 79.8753C49.5805 79.9224 49.4394 80.0165 49.2983 80.1105C49.1571 80.2046 49.0631 80.2987 48.969 80.3928C48.8749 80.4868 48.8279 80.5809 48.7338 80.675L48.6867 79.9224H47.793V84.7205H48.7338V82.1803C48.7338 81.9921 48.7808 81.804 48.8279 81.6158C48.9219 81.4747 49.016 81.2865 49.1101 81.1454C49.2512 81.0043 49.3923 80.9102 49.5335 80.8161C49.7216 80.7221 49.9098 80.7221 50.0979 80.7221C50.2391 80.7221 50.4272 80.7691 50.5684 80.8161L50.7565 79.9694C50.6624 79.9224 50.6154 79.9224 50.5213 79.9224C50.5213 79.7812 50.4272 79.7813 50.3331 79.7813Z" fill="#6B7688"/>
<path d="M54.2846 83.8734C54.1435 83.9204 53.9553 83.9674 53.8142 83.9674C53.626 83.9674 53.4379 83.8734 53.2967 83.7322C53.1556 83.497 53.0615 83.2148 53.1086 82.9326V80.5805H54.5198V79.8279H53.1086V78.2285H52.1678V79.8279H51.321V80.5805H52.1678V83.0266C52.1207 83.497 52.2619 83.9674 52.5441 84.3438C52.8263 84.626 53.2497 84.8142 53.6731 84.7671C54.1905 84.7671 54.6609 84.579 55.0372 84.2026L54.6139 83.6382C54.5198 83.7793 54.3787 83.8734 54.2846 83.8734Z" fill="#6B7688"/>
<path d="M59.0826 82.2728C58.8945 82.1787 58.7533 82.0846 58.5652 81.9905C58.377 81.8964 58.1418 81.8494 57.9537 81.8024C57.6244 81.7083 57.3421 81.6142 57.0128 81.5201C56.7776 81.4731 56.6365 81.2849 56.6365 81.0497C56.6365 80.8616 56.7306 80.6734 56.9188 80.5793C57.154 80.4852 57.3892 80.4382 57.6244 80.4382C57.8596 80.4382 58.1418 80.4852 58.377 80.5793C58.5652 80.6734 58.7533 80.7675 58.9415 80.9086L59.459 80.2971C59.2237 80.1089 58.9885 79.9678 58.7063 79.8267C58.377 79.7326 58.0007 79.6855 57.6714 79.6855C57.4362 79.6855 57.201 79.7326 56.9658 79.7796C56.7306 79.8267 56.5424 79.9208 56.3543 80.0619C56.1661 80.203 56.025 80.3441 55.9309 80.5323C55.8368 80.7204 55.7898 80.9086 55.7898 81.1438C55.7898 81.332 55.8368 81.5201 55.9309 81.7083C56.025 81.8494 56.1661 82.0376 56.3072 82.1317C56.4954 82.2257 56.6365 82.3198 56.8247 82.4139C57.0129 82.4609 57.201 82.555 57.3892 82.6021C57.6244 82.6491 57.8125 82.6961 58.0477 82.7902C58.1889 82.8373 58.33 82.8843 58.4711 82.9784C58.5652 83.0254 58.6593 83.1195 58.7063 83.2136C58.7533 83.3077 58.7533 83.4017 58.7533 83.4958C58.7533 83.731 58.6122 83.9192 58.4241 83.9662C58.1889 84.0603 57.9066 84.1073 57.6714 84.1073C57.3892 84.1073 57.1069 84.0603 56.8247 83.9662C56.5895 83.8721 56.3543 83.731 56.2132 83.5429L55.6487 84.1544C56.1661 84.6718 56.9188 84.9541 57.6714 84.86C57.9066 84.86 58.1889 84.813 58.4241 84.7659C58.6593 84.7189 58.8474 84.6248 59.0356 84.4837C59.2237 84.3426 59.3649 84.2014 59.506 84.0133C59.6471 83.8251 59.6942 83.6369 59.6942 83.4017C59.6942 83.1665 59.6471 82.9784 59.553 82.7902C59.3649 82.6021 59.2237 82.4609 59.0826 82.2728Z" fill="#6B7688"/>
<path d="M64.069 79.3106C64.2572 79.0754 64.5394 78.8873 64.8217 78.7462C65.151 78.605 65.4802 78.511 65.8566 78.511C66.0918 78.511 66.327 78.558 66.5622 78.605C66.7503 78.6521 66.9385 78.7462 67.1266 78.8873C67.2678 78.9814 67.4089 79.1225 67.55 79.2166C67.6911 79.3106 67.7852 79.4518 67.8323 79.5929L68.5379 78.9814C68.4438 78.8402 68.3027 78.6991 68.1615 78.511C68.0204 78.3228 67.8323 78.1817 67.597 78.0876C67.3618 77.9465 67.1266 77.8524 66.8444 77.7583C66.5151 77.6642 66.1858 77.6172 65.8566 77.6172C65.3862 77.6172 64.8687 77.7113 64.4453 77.8994C64.022 78.0876 63.6927 78.3228 63.3634 78.6521C63.0341 78.9814 62.7989 79.4047 62.6578 79.8281C62.4696 80.2985 62.4226 80.7689 62.4226 81.2393C62.4226 81.7567 62.5167 82.2271 62.6578 82.6975C62.846 83.1209 63.0812 83.4972 63.3634 83.8265C64.022 84.4851 64.9157 84.8614 65.8566 84.8614C66.1858 84.8614 66.5151 84.8144 66.8444 84.7203C67.1266 84.6262 67.4089 84.4851 67.6441 84.344C67.8793 84.2028 68.0675 84.0617 68.2086 83.8736C68.3497 83.7324 68.4908 83.5913 68.5849 83.4502L67.8793 82.8857C67.7852 82.9798 67.7382 83.0739 67.6441 83.168C67.55 83.3091 67.4089 83.4032 67.2678 83.4972C67.0796 83.5913 66.8914 83.6854 66.7033 83.7795C66.1388 83.9676 65.4802 83.9676 64.9157 83.7324C64.6335 83.5913 64.3513 83.4032 64.1631 83.168C63.9749 82.9328 63.7868 82.6505 63.6927 82.3212C63.5986 81.9919 63.5045 81.6156 63.5045 81.2863C63.5045 80.91 63.5516 80.5807 63.6927 80.2515C63.6927 79.8751 63.8338 79.5458 64.069 79.3106Z" fill="#6B7688"/>
<path d="M73.477 80.4382C73.2418 80.203 72.9596 80.0148 72.6773 79.8737C72.348 79.7326 72.0188 79.6855 71.6424 79.6855C71.2661 79.6855 70.9368 79.7326 70.6075 79.8737C70.3253 80.0148 70.0431 80.203 69.8079 80.4382C69.5727 80.6734 69.3845 80.9556 69.2904 81.2379C69.0552 81.8494 69.0552 82.6021 69.2904 83.2136C69.4315 83.4958 69.6197 83.7781 69.8079 84.0133C70.0431 84.2485 70.3253 84.4366 70.6075 84.5778C71.2661 84.813 72.0188 84.813 72.6773 84.5778C72.9596 84.4366 73.2418 84.2485 73.477 84.0133C73.7122 83.7781 73.9004 83.4958 73.9945 83.2136C74.2297 82.6021 74.2297 81.8494 73.9945 81.2379C73.8533 80.9556 73.7122 80.6734 73.477 80.4382ZM73.1477 82.8373C73.1007 83.0254 72.9596 83.2606 72.8184 83.4017C72.6773 83.5429 72.4892 83.684 72.301 83.7781C71.8776 83.9662 71.4072 83.9662 70.9839 83.7781C70.7957 83.684 70.6075 83.5429 70.4664 83.3547C70.3253 83.1665 70.2312 82.9784 70.1371 82.7902C70.0431 82.6021 70.0431 82.3668 70.0431 82.1787C70.0431 81.9435 70.0901 81.7553 70.1371 81.5201C70.1842 81.332 70.3253 81.0968 70.4664 80.9556C70.6075 80.8145 70.7957 80.6734 70.9839 80.5793C71.4072 80.3912 71.8776 80.3912 72.301 80.5793C72.4892 80.6734 72.6773 80.8145 72.8184 81.0027C72.9596 81.1908 73.0536 81.379 73.1477 81.5672C73.2418 81.7553 73.2418 81.9905 73.2418 82.1787C73.1948 82.4139 73.1948 82.6491 73.1477 82.8373Z" fill="#6B7688"/>
<path d="M80.9565 79.6856C80.5801 79.6856 80.2508 79.7797 79.9216 79.9679C79.6393 80.156 79.4041 80.3442 79.216 80.5794C79.0748 80.2972 78.8867 80.0619 78.6515 79.9208C78.3692 79.7797 78.04 79.6856 77.7107 79.6856C77.5225 79.6856 77.3343 79.7327 77.1462 79.7797C77.0051 79.8268 76.8639 79.8738 76.7228 79.9679C76.5817 80.0619 76.4876 80.156 76.3935 80.2501C76.2995 80.3442 76.2524 80.4383 76.1583 80.5324L76.1113 79.8267H75.2175V84.6719H76.1583V82.461C76.1583 82.2258 76.1583 82.0376 76.2054 81.8024C76.2524 81.6143 76.3465 81.3791 76.4406 81.1909C76.5347 81.0028 76.6758 80.8616 76.8639 80.7676C77.0521 80.6735 77.2403 80.5794 77.4755 80.5794C77.7577 80.5794 78.04 80.6735 78.2281 80.9087C78.4163 81.1909 78.5104 81.5672 78.5104 81.8965V84.7189H79.4512V82.0376C79.4512 81.8495 79.4982 81.6613 79.5452 81.4732C79.5923 81.285 79.6864 81.1439 79.8275 81.0028C79.9686 80.8616 80.1097 80.7676 80.2509 80.6735C80.392 80.5794 80.5801 80.5324 80.7683 80.5324C81.0505 80.5324 81.3328 80.6264 81.5209 80.8616C81.7091 81.1439 81.8032 81.5202 81.8032 81.8495V84.6719H82.744V81.8024C82.791 81.238 82.6029 80.7205 82.2736 80.2971C81.9443 79.8738 81.4739 79.6386 80.9565 79.6856Z" fill="#6B7688"/>
<path d="M89.7531 79.6856C89.3768 79.6856 89.0475 79.7797 88.7182 79.9679C88.436 80.156 88.2008 80.3442 88.0126 80.5794C87.8715 80.2972 87.6833 80.0619 87.4481 79.9208C87.1659 79.7797 86.8366 79.6856 86.5073 79.6856C86.3191 79.6856 86.131 79.7327 85.9428 79.7797C85.8017 79.8268 85.6606 79.8738 85.5195 79.9679C85.3783 80.0619 85.2843 80.156 85.1902 80.2501C85.0961 80.3442 85.049 80.4383 84.955 80.5324L84.9079 79.8267H84.0142V84.6719H84.955V82.461C84.955 82.2258 84.955 82.0376 85.002 81.8024C85.049 81.6143 85.1431 81.3791 85.2372 81.1909C85.3313 81.0028 85.4724 80.8616 85.6606 80.7676C85.8487 80.6735 86.0369 80.5794 86.2721 80.5794C86.5543 80.5794 86.8366 80.6735 87.0247 80.9087C87.2129 81.1909 87.307 81.5672 87.307 81.8965V84.7189H88.2478V82.0376C88.2478 81.8495 88.2948 81.6613 88.3419 81.4732C88.3889 81.285 88.483 81.1439 88.6241 81.0028C88.7652 80.8616 88.9064 80.7676 89.0475 80.6735C89.1886 80.5794 89.3768 80.5324 89.5649 80.5324C89.8472 80.5324 90.1294 80.6264 90.3176 80.8616C90.5057 81.1439 90.5998 81.5202 90.5998 81.8495V84.6719H91.5406V81.8024C91.5877 81.238 91.3995 80.7205 91.0702 80.2971C90.7409 79.8738 90.2705 79.6386 89.7531 79.6856Z" fill="#6B7688"/>
<path d="M93.7985 79.8281H92.8577V84.6262H93.7985V79.8281Z" fill="#6B7688"/>
<path d="M93.8454 77.8984H92.8105V78.9333H93.8454V77.8984Z" fill="#6B7688"/>
<path d="M98.4086 82.2728C98.2204 82.1787 98.0793 82.0846 97.8911 81.9905C97.703 81.8964 97.4678 81.8494 97.2796 81.8024C96.9503 81.7083 96.6681 81.6142 96.3388 81.5201C96.1036 81.4731 95.9625 81.2849 95.9625 81.0497C95.9625 80.8616 96.0565 80.6734 96.2447 80.5793C96.4799 80.4852 96.7151 80.4382 96.9503 80.4382C97.1855 80.4382 97.4678 80.4852 97.703 80.5793C97.8911 80.6264 98.1263 80.7675 98.2674 80.9086L98.7849 80.2971C98.5497 80.1089 98.3145 79.9678 98.0322 79.8267C97.703 79.7326 97.3266 79.6855 96.9973 79.6855C96.7621 79.6855 96.5269 79.7326 96.2917 79.7796C96.0565 79.8267 95.8684 79.9208 95.6802 80.0619C95.4921 80.203 95.3509 80.3441 95.2569 80.5323C95.1628 80.7204 95.1157 80.9086 95.1157 81.1438C95.1157 81.332 95.1628 81.5201 95.2569 81.7083C95.3509 81.8964 95.4921 82.0376 95.6332 82.1317C95.8213 82.2257 95.9625 82.3198 96.1506 82.4139C96.3388 82.4609 96.5269 82.555 96.7151 82.6021C96.9503 82.6491 97.1385 82.6961 97.3737 82.7902C97.5148 82.8373 97.6559 82.8843 97.797 82.9784C97.8911 83.0254 97.9852 83.1195 98.0322 83.2136C98.0793 83.3077 98.0793 83.4017 98.0793 83.4958C98.0793 83.731 97.9382 83.9192 97.75 83.9662C97.5148 84.0603 97.2325 84.1073 96.9973 84.1073C96.7151 84.1073 96.4329 84.0603 96.1506 83.9662C95.9154 83.8721 95.6802 83.731 95.5391 83.5429L94.9746 84.1544C95.4921 84.6718 96.2447 84.9541 96.9973 84.86C97.2325 84.86 97.5148 84.813 97.75 84.7659C97.9852 84.7189 98.1734 84.6248 98.3615 84.4837C98.5497 84.3426 98.6908 84.2014 98.8319 84.0133C98.973 83.8251 99.0201 83.6369 99.0201 83.4017C99.0201 83.1665 98.973 82.9784 98.879 82.7902C98.7378 82.6021 98.5497 82.4139 98.4086 82.2728Z" fill="#6B7688"/>
<path d="M103.301 82.2728C103.112 82.1787 102.971 82.0846 102.783 81.9905C102.595 81.8964 102.36 81.8494 102.172 81.8024C101.842 81.7083 101.56 81.6142 101.231 81.5201C100.996 81.4731 100.855 81.2849 100.855 81.0497C100.855 80.8616 100.949 80.6734 101.137 80.5793C101.372 80.4852 101.607 80.4382 101.842 80.4382C102.078 80.4382 102.36 80.4852 102.595 80.5793C102.783 80.6264 103.018 80.7675 103.16 80.9086L103.677 80.2971C103.442 80.1089 103.207 79.9678 102.924 79.8267C102.595 79.7326 102.219 79.6855 101.889 79.6855C101.654 79.6855 101.419 79.7326 101.184 79.7796C100.949 79.8267 100.76 79.9208 100.572 80.0619C100.384 80.203 100.243 80.3441 100.149 80.5323C100.055 80.7204 100.008 80.9086 100.008 81.1438C100.008 81.332 100.055 81.5201 100.149 81.7083C100.243 81.8964 100.384 82.0376 100.525 82.1317C100.713 82.2257 100.855 82.3198 101.043 82.4139C101.231 82.4609 101.419 82.555 101.607 82.6021C101.842 82.6491 102.031 82.6961 102.266 82.7902C102.407 82.8373 102.548 82.8843 102.689 82.9784C102.783 83.0254 102.877 83.1195 102.924 83.2136C102.971 83.3077 102.971 83.4017 102.971 83.4958C102.971 83.731 102.83 83.9192 102.642 83.9662C102.407 84.0603 102.125 84.1073 101.889 84.1073C101.607 84.1073 101.325 84.0603 101.043 83.9662C100.808 83.8721 100.572 83.731 100.431 83.5429L99.8667 84.1544C100.384 84.6718 101.137 84.9541 101.889 84.86C102.125 84.86 102.407 84.813 102.642 84.7659C102.877 84.7189 103.065 84.6248 103.254 84.4837C103.442 84.3426 103.583 84.2014 103.724 84.0133C103.818 83.8251 103.912 83.6369 103.912 83.4017C103.912 83.1665 103.865 82.9784 103.771 82.7902C103.583 82.6021 103.442 82.4609 103.301 82.2728Z" fill="#6B7688"/>
<path d="M105.841 79.8281H104.9V84.6262H105.841V79.8281Z" fill="#6B7688"/>
<path d="M105.888 77.8984H104.853V78.9333H105.888V77.8984Z" fill="#6B7688"/>
<path d="M111.298 80.4382C111.062 80.2029 110.78 80.0148 110.498 79.8737C109.839 79.6385 109.087 79.6385 108.428 79.8737C108.146 80.0148 107.864 80.2029 107.628 80.4382C107.393 80.6734 107.205 80.9556 107.111 81.2378C106.876 81.8494 106.876 82.602 107.111 83.2135C107.252 83.4958 107.44 83.778 107.628 84.0132C107.864 84.2484 108.146 84.4366 108.428 84.5777C109.087 84.8129 109.839 84.8129 110.498 84.5777C110.78 84.4366 111.062 84.2484 111.298 84.0132C111.533 83.778 111.721 83.4958 111.815 83.2135C112.05 82.602 112.05 81.8494 111.815 81.2378C111.721 80.9556 111.533 80.6734 111.298 80.4382ZM110.968 82.8372C110.921 83.0254 110.78 83.2606 110.639 83.4017C110.498 83.5428 110.31 83.6839 110.122 83.778C109.698 83.9662 109.228 83.9662 108.804 83.778C108.616 83.6839 108.428 83.5428 108.287 83.3547C108.146 83.1665 108.052 82.9783 107.958 82.7902C107.864 82.602 107.864 82.3668 107.864 82.1786C107.864 81.9434 107.911 81.7553 107.958 81.5201C108.005 81.3319 108.146 81.0967 108.287 80.9556C108.428 80.8145 108.616 80.6734 108.804 80.5793C109.228 80.3911 109.698 80.3911 110.122 80.5793C110.31 80.6734 110.498 80.8145 110.639 81.0026C110.78 81.1908 110.874 81.379 110.968 81.5671C111.062 81.7553 111.062 81.9905 111.062 82.1786C111.062 82.4138 111.062 82.6491 110.968 82.8372Z" fill="#6B7688"/>
<path d="M115.625 79.6856C115.437 79.6856 115.249 79.7327 115.061 79.7797C114.92 79.8268 114.731 79.8738 114.59 79.9679C114.449 80.0619 114.355 80.156 114.261 80.2501C114.167 80.3442 114.073 80.4383 114.026 80.5324L113.979 79.8267H113.085V84.6719H114.026V82.461C114.026 82.2258 114.073 81.9906 114.12 81.7554C114.167 81.5202 114.261 81.332 114.355 81.1439C114.449 80.9557 114.59 80.8146 114.778 80.7205C114.967 80.6264 115.202 80.5324 115.437 80.5324C115.719 80.4853 116.049 80.6264 116.237 80.8616C116.425 81.1439 116.519 81.5202 116.519 81.8495V84.6719H117.46V81.8024C117.507 81.238 117.319 80.7205 116.989 80.2971C116.66 79.8738 116.143 79.6386 115.625 79.6856Z" fill="#6B7688"/>
</svg>
