<svg width="120" height="120" viewBox="0 0 120 120" fill="none" xmlns="http://www.w3.org/2000/svg">
<path d="M4.79803 88.293C4.79803 86.1291 4.93915 85.7528 5.64476 85.7528V85.5176C5.17436 85.5176 4.75099 85.5646 4.28059 85.5646C3.81018 85.5646 3.43386 85.5176 3.0105 85.5176V85.7528C3.81018 85.7528 3.85722 86.1291 3.85722 88.387V89.8923C3.85722 91.9621 3.62202 92.1032 3.05754 92.1503V92.3855C3.52794 92.3855 3.90427 92.3384 4.32763 92.3384C4.75099 92.3384 5.17436 92.3855 5.59772 92.3855V92.1503C5.03323 92.0562 4.79803 92.1032 4.79803 90.5979V88.293Z" fill="#6B7688"/>
<path d="M9.31399 91.1633C9.31399 92.01 9.26695 92.1511 8.93766 92.1511V92.3863C9.26695 92.3863 9.54919 92.3393 9.83143 92.3393C10.1137 92.3393 10.443 92.3863 10.7252 92.3863V92.1511C10.2078 92.1511 10.1137 91.7278 10.1137 91.3514V89.0465C10.2078 88.2938 9.69031 87.5882 8.89062 87.4941H8.84358H8.79654C8.32614 87.4941 7.85574 87.7293 7.52645 88.0586V87.4941H7.43237C6.96197 87.6353 6.49157 87.7293 5.97412 87.7293V87.9645C6.49157 87.9645 6.63269 88.2938 6.63269 89.0935V91.3514C6.63269 92.01 6.63269 92.3393 5.97412 92.3393V92.5745C6.3034 92.5745 6.63269 92.5275 6.96197 92.5275C7.29125 92.5275 7.62053 92.5745 7.94982 92.5745V92.3393C7.62053 92.3393 7.47941 92.1982 7.47941 91.7278V88.529C7.76166 88.2468 8.13798 88.1057 8.5143 88.0586C8.84358 88.0586 9.31399 88.3879 9.31399 89.1406V91.1633Z" fill="#6B7688"/>
<path d="M11.7131 87.5881H11.2427L11.1016 88.0585L11.7131 88.0115V90.8339C11.7131 92.0099 12.2776 92.3392 12.9361 92.3392C13.2654 92.3392 13.5477 92.2451 13.7829 92.0099L13.6417 91.6806C13.5006 91.7277 13.3595 91.7747 13.2184 91.7747C12.6539 91.7747 12.5128 91.2573 12.5128 90.7869V87.9644H12.9832C13.2184 87.9644 13.4536 88.0115 13.6417 88.0115L13.7829 87.5411H12.5128V86.4121H12.3246C12.0894 86.5062 11.9012 86.5062 11.666 86.5062L11.7131 87.5881Z" fill="#6B7688"/>
<path d="M15.1941 89.094C15.1941 88.7177 15.4293 87.8239 16.0878 87.8239C16.5582 87.871 16.9346 88.2473 16.9346 88.7177C16.9346 89.047 16.8405 89.094 16.4642 89.094H15.1941ZM17.499 91.6342C17.2168 91.8224 16.8875 91.9635 16.5112 91.9635C15.7115 91.9635 15.0529 91.0697 15.0529 89.8937V89.3763H17.5931C17.6402 89.2351 17.6402 89.094 17.6402 88.9529C17.6872 88.1062 17.0757 87.4006 16.229 87.3535H16.1349C14.6296 87.3535 14.1592 88.7647 14.1592 89.8937C14.1592 91.352 14.7707 92.3868 16.229 92.3868C16.7464 92.3868 17.2168 92.2457 17.6872 91.9635L17.499 91.6342Z" fill="#6B7688"/>
<path d="M18.7219 91.1636C18.7219 91.7751 18.7219 92.0103 18.1104 92.1515V92.3867C18.5337 92.3867 18.91 92.3396 19.3804 92.3396C19.8508 92.3396 20.2272 92.3867 20.6505 92.3867V92.1515C19.8038 92.1515 19.5686 91.6811 19.5686 90.9755V88.7646C19.7097 88.4353 20.039 88.153 20.4153 88.153C20.6976 88.153 20.7917 88.2942 20.9798 88.2942C21.215 88.2942 21.4973 87.8708 21.4973 87.7297C21.4973 87.5886 21.1209 87.4004 20.8857 87.4004C20.3683 87.4474 19.8508 87.7767 19.6156 88.2471C19.6156 87.9649 19.6156 87.6826 19.6627 87.4004H19.6156C19.1452 87.5415 18.6748 87.6356 18.2044 87.6356V87.8708C18.6278 87.8708 18.816 88.0119 18.816 88.9527V91.2107H18.7219V91.1636Z" fill="#6B7688"/>
<path d="M25.1195 91.1633C25.1195 92.01 25.0725 92.1511 24.7432 92.1511V92.3863C25.0725 92.3863 25.3547 92.3393 25.6369 92.3393C25.9192 92.3393 26.2485 92.3863 26.5307 92.3863V92.1511C26.0133 92.1511 25.9192 91.7278 25.9192 91.3514V89.0465C26.0133 88.2468 25.4488 87.5412 24.6491 87.4941H24.555C24.0846 87.4941 23.6142 87.7293 23.2849 88.0586V87.4941H23.1438C22.6734 87.6353 22.203 87.7293 21.6855 87.7293V87.9645C22.203 87.9645 22.3441 88.2938 22.3441 89.0935V91.3514C22.3441 92.01 22.3441 92.3393 21.6855 92.3393V92.5745C22.0148 92.5745 22.3441 92.5275 22.6734 92.5275C23.0027 92.5275 23.332 92.5745 23.6612 92.5745V92.3393C23.332 92.3393 23.1908 92.1982 23.1908 91.7278V88.529C23.4731 88.2468 23.8494 88.1057 24.2257 88.0586C24.6021 88.0586 25.0254 88.3879 25.0254 89.1406V91.1633H25.1195Z" fill="#6B7688"/>
<path d="M29.6353 91.5866C29.4001 91.7748 29.0708 91.9159 28.7886 91.8689C28.3652 91.9159 27.9419 91.5396 27.9419 91.1162V91.0692C27.9419 90.2224 28.6475 90.0813 29.6353 89.7991V91.5866ZM27.4244 88.8583H27.5655C27.5185 88.3408 27.8948 87.8704 28.4123 87.8234H28.4593H28.6004C29.0708 87.7763 29.4942 88.1056 29.5883 88.576V89.4228C28.9297 89.8461 27.0481 89.9872 27.0481 91.3044C27.0481 92.01 27.4244 92.4804 28.3182 92.4804C28.7886 92.4804 29.212 92.3393 29.5883 92.057L29.6353 92.4333C29.8705 92.3863 30.1528 92.3863 30.388 92.3863H30.9524V92.1981C30.5291 92.1511 30.435 91.8689 30.435 91.4925V89.1405C30.5761 88.3879 30.0587 87.6823 29.306 87.5411H29.259C29.1179 87.4941 28.9768 87.4941 28.7886 87.5411C28.2711 87.5411 27.7537 87.6823 27.2833 87.9645L27.4244 88.8583Z" fill="#6B7688"/>
<path d="M32.1755 87.5881H31.7051L31.564 88.0585L32.2225 88.0115V90.8339C32.2225 92.0099 32.787 92.3392 33.4456 92.3392C33.7749 92.3392 34.0571 92.2451 34.2923 92.0099L34.1512 91.6806C34.0101 91.7277 33.8689 91.7747 33.7278 91.7747C33.1633 91.7747 33.0222 91.2573 33.0222 90.7869V87.9644H33.4926C33.7278 87.9644 33.963 88.0115 34.1041 88.0115L34.2453 87.5411H32.9752V86.4121H32.8341C32.5989 86.5062 32.4107 86.5062 32.1755 86.5062V87.5881Z" fill="#6B7688"/>
<path d="M35.8448 85.5176C35.6096 85.5176 35.3744 85.7057 35.3744 85.988V86.035V86.0821C35.3744 86.3643 35.5626 86.5995 35.8448 86.6465C36.1741 86.5995 36.3622 86.2702 36.2682 85.9409C36.2682 85.7528 36.08 85.5646 35.8448 85.5176ZM34.6217 87.8696C35.0451 87.8696 35.2333 87.9637 35.2333 88.9045V91.1624C35.2333 91.9621 35.1392 92.1503 34.6217 92.1503V92.3855C34.9981 92.3855 35.2803 92.3384 35.6566 92.3384C36.033 92.3384 36.3152 92.3855 36.6445 92.3855V92.1503C36.1741 92.1503 36.08 91.868 36.08 91.5387V88.34C36.08 88.0578 36.08 87.7755 36.127 87.5403H35.9859C35.5155 87.6814 35.0451 87.7755 34.5747 87.7755L34.6217 87.8696Z" fill="#6B7688"/>
<path d="M39.1844 87.7767C40.2664 87.7767 40.3134 89.5642 40.3134 90.0346C40.3134 91.3047 39.9841 91.9633 39.2315 91.9633C38.4788 91.9633 38.1025 90.9284 38.1025 89.6583C38.1025 88.4353 38.4788 87.7767 39.1844 87.7767ZM39.2785 87.4004C38.0084 87.4004 37.2087 88.4353 37.2087 89.9406C37.2087 91.4459 38.0084 92.4808 39.1374 92.4808C40.5956 92.4808 41.2072 91.2577 41.2072 89.9406C41.2072 88.5294 40.5016 87.4004 39.2785 87.4004Z" fill="#6B7688"/>
<path d="M44.9704 91.1633C44.9704 92.01 44.9234 92.1511 44.5941 92.1511V92.3863C44.9234 92.3863 45.2056 92.3393 45.4878 92.3393C45.7701 92.3393 46.0994 92.3863 46.3816 92.3863V92.1511C45.8642 92.1511 45.7701 91.7278 45.7701 91.3514V89.0465C45.8642 88.2468 45.2997 87.5412 44.5 87.4941H44.4059C43.9355 87.4941 43.4651 87.7293 43.1358 88.0586V87.4941H43.0417C42.5713 87.6353 42.1009 87.7293 41.5835 87.7293V87.9645C42.1009 87.9645 42.2421 88.2938 42.2421 89.0935V91.3514C42.2421 92.01 42.2421 92.3393 41.5835 92.3393V92.5745C41.9128 92.5745 42.2421 92.5275 42.5713 92.5275C42.9006 92.5275 43.2299 92.5745 43.5592 92.5745V92.3393C43.2299 92.3393 43.0888 92.1982 43.0888 91.7278V88.529C43.371 88.2468 43.7474 88.1057 44.1237 88.0586C44.5 88.0586 44.9234 88.3879 44.9234 89.1406L44.9704 91.1633Z" fill="#6B7688"/>
<path d="M49.5804 91.5866C49.3452 91.7748 49.0159 91.9159 48.7337 91.8689C48.3103 91.9159 47.8869 91.5396 47.8869 91.1162V91.0692C47.8869 90.2224 48.5925 90.0813 49.5804 89.7991V91.5866ZM47.3695 88.8583H47.5106C47.4636 88.3408 47.8869 87.8704 48.4044 87.8234H48.5455C49.0159 87.7763 49.4393 88.1056 49.5333 88.576V89.4228C48.8748 89.8461 46.9932 89.9872 46.9932 91.3044C46.9932 92.01 47.3695 92.4804 48.2633 92.4804C48.7337 92.4804 49.157 92.3393 49.5333 92.057L49.5804 92.4333C49.8156 92.3863 50.0508 92.3863 50.286 92.3863H50.8505V92.1981C50.5212 92.1981 50.239 91.8689 50.239 91.5396V91.4925V89.1405C50.3801 88.3879 49.8626 87.6823 49.11 87.5411H49.0629C48.9218 87.4941 48.7807 87.4941 48.5925 87.5411C48.0751 87.5411 47.6047 87.6823 47.1343 87.9645L47.3695 88.8583Z" fill="#6B7688"/>
<path d="M51.5091 85.0013C51.9325 85.0013 52.1206 85.0484 52.1206 85.9892V91.0695C52.1206 91.8222 51.8854 92.1515 51.5091 92.1515V92.3867C51.8854 92.3867 52.1677 92.3396 52.497 92.3396C52.8262 92.3396 53.1555 92.3867 53.5319 92.3867V92.1515C53.0615 92.1044 52.9674 91.9163 52.9674 90.9755V86.4596C52.9674 86.3185 53.0144 85.0013 53.0144 84.625H52.7792C52.3558 84.7191 51.9325 84.7661 51.415 84.8602L51.5091 85.0013Z" fill="#6B7688"/>
<path d="M56.0251 85.7061C57.107 85.8001 57.154 86.0824 57.154 86.5058C57.154 86.9291 57.0129 89.4223 56.8718 90.4101C56.7777 91.7743 56.4955 92.0095 55.978 92.1506V92.3858C56.3544 92.3858 56.7307 92.3388 57.154 92.3388C57.5774 92.3388 57.9067 92.3858 58.33 92.3858V92.1976C57.6244 92.1036 57.4363 91.7743 57.4833 90.9746L57.7185 86.9291L60.0705 92.4328H60.635L62.94 86.9291C62.987 87.5877 63.2222 90.3631 63.2222 91.0216C63.2222 91.7743 62.94 92.1036 62.1874 92.1506V92.3858C62.6578 92.3858 63.1752 92.3388 63.6456 92.3388C64.116 92.3388 64.5394 92.3858 65.1039 92.3858V92.1506C64.4923 92.1036 64.3042 91.6332 64.2571 91.0216C64.2101 90.316 63.9749 87.5877 63.9749 87.1173C63.9749 86.3176 64.069 85.7531 65.0098 85.659V85.4238C64.6805 85.4238 64.3983 85.4709 64.0219 85.4709C63.6456 85.4709 63.4104 85.4238 63.0341 85.4238L60.588 91.0216L58.0948 85.4238C57.7185 85.4238 57.4363 85.4709 57.06 85.4709C56.6836 85.4709 56.4014 85.4238 56.0721 85.4238L56.0251 85.7061Z" fill="#6B7688"/>
<path d="M66.2798 89.094C66.2798 88.7177 66.515 87.8239 67.1736 87.8239C67.644 87.871 68.0203 88.2473 68.0203 88.7177C68.0203 89.047 67.9263 89.094 67.5499 89.094H66.2798ZM68.6319 91.6342C68.3496 91.8224 68.0203 91.9635 67.644 91.9635C66.8443 91.9635 66.1858 91.0697 66.1858 89.8937V89.3763H68.7259C68.773 89.2351 68.773 89.094 68.773 88.9529C68.82 88.1062 68.2085 87.4006 67.3618 87.3535H67.2677C65.7624 87.3535 65.292 88.7647 65.292 89.8937C65.292 91.352 65.9506 92.3868 67.3618 92.3868C67.8792 92.3868 68.3496 92.2457 68.82 91.9635L68.6319 91.6342Z" fill="#6B7688"/>
<path d="M72.5361 91.4929C72.3009 91.7281 71.9716 91.8692 71.6423 91.9163C70.8896 91.9163 70.3722 90.9284 70.3722 89.4702C70.3722 88.0119 71.1719 87.7297 71.5012 87.7297C71.8305 87.7297 72.1597 87.9649 72.5831 88.4353L72.5361 91.4929ZM71.7834 85.0013C72.489 84.9543 72.5361 85.0954 72.5361 86.4125V87.7767C72.2068 87.5415 71.8305 87.4004 71.4071 87.3533C70.0429 87.3533 69.4314 88.7646 69.4314 89.7994C69.4314 91.0695 70.09 92.3867 71.266 92.3867C71.7364 92.3867 72.2068 92.1515 72.5361 91.8222C72.5361 92.0103 72.5831 92.1515 72.6301 92.3396C73.1005 92.2926 73.5239 92.2926 74.0884 92.2926V92.0574C73.5239 92.0574 73.4298 91.7751 73.4298 91.2577V84.625H73.2887C72.8183 84.7661 72.3479 84.8132 71.8305 84.8602L71.7834 85.0013Z" fill="#6B7688"/>
<path d="M75.6879 85.5176C75.4527 85.5176 75.2175 85.7057 75.2175 85.988V86.035V86.0821C75.2175 86.3643 75.4527 86.5995 75.7349 86.6465C76.0642 86.5995 76.2524 86.2702 76.1583 85.988C76.1113 85.7528 75.9231 85.5646 75.6879 85.5176ZM74.4648 87.8696C74.8882 87.8696 75.0764 87.9637 75.0764 88.9045V91.2095C75.0764 92.0091 74.9823 92.1973 74.4648 92.1973V92.4325C74.8412 92.4325 75.1234 92.3855 75.4997 92.3855C75.8761 92.3855 76.1583 92.4325 76.5346 92.4325V92.1973C76.0642 92.1973 75.9701 91.9151 75.9701 91.5858V88.387C75.9701 88.1048 75.9701 87.8226 76.0172 87.5874H75.8761C75.4527 87.7285 74.9352 87.7755 74.4648 87.7285V87.8696Z" fill="#6B7688"/>
<path d="M80.3449 91.5873C80.1097 91.7755 79.8274 91.9166 79.5452 91.9166C79.1218 91.9166 78.0399 91.5873 78.0399 89.6587C78.0399 88.6238 78.3692 87.777 79.4511 87.777C80.2978 87.777 80.533 88.2945 80.5801 88.6708H80.8153V87.4478C80.3919 87.3537 79.9215 87.3066 79.4511 87.3066C77.4754 87.3066 77.2402 89.2353 77.2402 89.8939C77.0991 91.0699 77.9458 92.1518 79.1689 92.34C79.1689 92.34 79.1689 92.34 79.2159 92.34H79.31C79.8274 92.2929 80.3449 92.1518 80.8153 91.8225L80.3449 91.5873Z" fill="#6B7688"/>
<path d="M83.7318 91.5866C83.4965 91.7748 83.1673 91.9159 82.885 91.8689C82.4617 91.9159 82.0383 91.5396 82.0383 91.1162V91.0221C82.0383 90.1754 82.7439 90.0343 83.7788 89.752L83.7318 91.5866ZM81.5209 88.8583H81.662C81.6149 88.3408 81.9913 87.8704 82.5087 87.8234H82.5557H82.6969C83.1673 87.7763 83.5906 88.1056 83.6847 88.576V89.4228C83.0261 89.8461 81.1445 89.9872 81.1445 91.3044C81.1445 92.01 81.5209 92.4804 82.4146 92.4804C82.885 92.4804 83.3084 92.3393 83.6847 92.057L83.7318 92.4333C83.967 92.3863 84.2492 92.3863 84.4844 92.3863H85.0489V92.1981C84.6255 92.1511 84.5314 91.8689 84.5314 91.4925V89.1405C84.6726 88.3879 84.1551 87.6823 83.4025 87.5411H83.3554C83.2143 87.4941 83.0732 87.4941 82.885 87.5411C82.3676 87.5411 81.8972 87.6823 81.4268 87.9645L81.5209 88.8583Z" fill="#6B7688"/>
<path d="M85.6605 85.0013C86.1309 85.0013 86.272 85.0484 86.272 85.9892V91.0695C86.272 91.8222 86.0368 92.1515 85.6605 92.1515V92.3867C86.0368 92.3867 86.3191 92.3396 86.6954 92.3396C87.0717 92.3396 87.3539 92.3867 87.6832 92.3867V92.1515C87.2128 92.1044 87.1187 91.9163 87.1187 90.9755V86.4596C87.1187 86.3185 87.1187 85.0013 87.1658 84.625H86.9306C86.5072 84.7191 86.0839 84.7661 85.5664 84.8602C85.6605 84.8132 85.6605 85.0013 85.6605 85.0013Z" fill="#6B7688"/>
<path d="M96.6209 90.4568C96.4797 91.3976 95.633 92.0562 94.6922 91.9621C93.0458 91.9621 91.6346 90.645 91.6346 88.9986C91.6346 88.9986 91.6346 88.9986 91.6346 88.9515V88.6693C91.5875 87.211 92.6695 85.988 94.1277 85.9409C94.1277 85.9409 94.1277 85.9409 94.1748 85.9409H94.504C96.2916 85.9409 96.5738 87.117 96.5738 87.5403H96.809C96.809 86.8818 96.8561 86.1761 96.9031 85.6117C96.3857 85.6117 95.3037 85.5176 94.41 85.5176C91.4464 85.5176 90.6467 87.5874 90.6467 88.8574C90.6467 90.5509 91.7287 92.4796 94.5511 92.4796C95.2096 92.4796 95.8212 92.3855 96.4327 92.1973C96.6679 91.6328 96.809 91.0213 96.9031 90.4568H96.6209Z" fill="#6B7688"/>
<path d="M98.5025 89.094C98.5025 88.7177 98.7377 87.8239 99.3963 87.8239C99.8667 87.871 100.243 88.2473 100.243 88.7177C100.243 89.047 100.149 89.094 99.7726 89.094H98.5025ZM100.855 91.6342C100.572 91.8224 100.243 91.9635 99.8667 91.9635C99.067 91.9635 98.4084 91.0697 98.4084 89.8937V89.3763H100.949C100.996 89.2351 100.996 89.094 100.996 88.9529C101.043 88.1062 100.431 87.4006 99.5844 87.3535H99.4903C97.9851 87.3535 97.5146 88.7647 97.5146 89.8937C97.5146 91.352 98.1262 92.3868 99.5844 92.3868C100.102 92.3868 100.572 92.2457 101.043 91.9635L100.855 91.6342Z" fill="#6B7688"/>
<path d="M104.806 91.1633C104.806 92.01 104.759 92.1511 104.429 92.1511V92.3863C104.759 92.3863 105.041 92.3393 105.323 92.3393C105.605 92.3393 105.935 92.3863 106.217 92.3863V92.1511C105.7 92.1511 105.605 91.7278 105.605 91.3514V89.0465C105.7 88.2938 105.135 87.5882 104.382 87.4941C104.335 87.4941 104.288 87.4941 104.241 87.4941H104.194C103.724 87.4941 103.253 87.7293 102.924 88.0586V87.4941H102.83C102.36 87.6353 101.889 87.7293 101.372 87.7293V87.9645C101.889 87.9645 102.03 88.3409 102.03 89.0935V91.3514C102.03 92.01 102.03 92.3393 101.419 92.3393V92.5745C101.748 92.5745 102.03 92.5275 102.407 92.5275C102.783 92.5275 103.065 92.5745 103.395 92.5745V92.3393C103.065 92.3393 102.924 92.1982 102.924 91.7278V88.529C103.206 88.2468 103.583 88.1057 103.959 88.0586C104.288 88.0586 104.759 88.3879 104.759 89.1406L104.806 91.1633Z" fill="#6B7688"/>
<path d="M107.252 87.5881H106.782L106.64 88.0585L107.252 88.0115V90.8339C107.252 92.0099 107.816 92.3392 108.475 92.3392C108.804 92.3392 109.086 92.2451 109.322 92.0099L109.181 91.6806C109.039 91.7277 108.898 91.7747 108.757 91.7747C108.193 91.7747 108.052 91.2573 108.052 90.7869V87.9644H108.522C108.757 87.9644 108.992 88.0115 109.134 88.0115L109.275 87.5411H108.005V86.4121H107.863C107.628 86.5062 107.44 86.5062 107.205 86.5062L107.252 87.5881Z" fill="#6B7688"/>
<path d="M110.686 89.094C110.686 88.7177 110.921 87.8239 111.58 87.8239C112.05 87.871 112.426 88.2473 112.426 88.7177C112.426 89.047 112.332 89.094 111.956 89.094H110.686ZM113.038 91.6342C112.756 91.8224 112.426 91.9635 112.05 91.9635C111.25 91.9635 110.592 91.0697 110.592 89.8937V89.3763H113.132C113.179 89.2351 113.179 89.094 113.179 88.9529C113.226 88.1062 112.615 87.4006 111.768 87.3535H111.674C110.168 87.3535 109.698 88.7647 109.698 89.8937C109.698 91.352 110.357 92.3868 111.768 92.3868C112.285 92.3868 112.756 92.2457 113.226 91.9635L113.038 91.6342Z" fill="#6B7688"/>
<path d="M114.214 91.1636C114.214 91.7751 114.214 92.0103 113.602 92.1515V92.3867C114.026 92.3867 114.449 92.3396 114.872 92.3396C115.296 92.3396 115.719 92.3867 116.143 92.3867V92.1515C115.296 92.1515 115.061 91.6811 115.061 90.9755V88.7646C115.343 88.3882 115.578 88.153 115.907 88.153C116.19 88.153 116.284 88.2942 116.472 88.2942C116.707 88.2942 116.989 87.8708 116.989 87.7297C116.989 87.5886 116.613 87.4004 116.378 87.4004C115.86 87.4004 115.484 87.7297 115.014 88.2471C115.014 87.9649 115.014 87.6826 115.061 87.4004H114.92C114.449 87.5415 113.979 87.6356 113.508 87.6356V87.8708C113.932 87.8708 114.12 88.0119 114.12 88.9527V91.2107H114.214V91.1636Z" fill="#6B7688"/>
<path d="M45.3469 44.076C45.3469 35.8909 58.5182 28.7408 60.0705 27.9411H59.8353C60.4468 28.2704 74.5589 35.6557 74.5589 44.076V65.4793L74.7941 65.2441H45.1587L45.3939 65.4793V44.076H45.3469ZM45.1587 65.6675H75.0293V44.076C75.0293 35.5146 61.6228 28.3174 60.1175 27.5177L60.0235 27.4707L59.9294 27.5177C58.4241 28.3174 45.0176 35.6087 45.0176 44.076V65.6675H45.1587Z" fill="#6B7688"/>
<path d="M59.9765 36.2684C57.5304 36.2214 55.5077 38.15 55.4136 40.6432C55.4136 40.6902 55.4136 40.6902 55.4136 40.7373V41.0195C55.4606 41.4429 55.5077 41.8192 55.6488 42.2425L55.884 42.9011C55.7899 42.4777 55.7899 42.1014 55.7899 41.6781C56.0251 39.5612 57.8126 37.9619 59.9765 38.0089H60.0706C62.2344 37.9148 64.069 39.5612 64.2572 41.6781C64.2572 42.1014 64.2572 42.4777 64.1631 42.9011L64.3983 42.2896C64.4924 41.9133 64.5394 41.4899 64.5394 41.0665C64.6805 38.6204 62.7989 36.5036 60.3058 36.3625C60.1646 36.2684 60.0706 36.2684 59.9765 36.2684Z" fill="#6B7688"/>
<path d="M64.21 41.7244C64.21 42.0067 64.21 42.2889 64.116 42.5712C64.3512 42.0067 64.4923 41.4422 64.5393 40.8307C64.5393 38.2905 62.4696 36.2207 59.9764 36.2207C57.4362 36.2207 55.3665 38.2905 55.3665 40.7836C55.3665 41.3951 55.5076 42.0067 55.7898 42.5241C55.7428 42.2419 55.7428 41.9596 55.7428 41.6774C55.7428 39.3254 57.6244 37.4438 59.9764 37.4438H60.0705C62.3755 37.4908 64.2571 39.3724 64.21 41.7244Z" fill="#6B7688"/>
<path d="M71.0779 47.04C70.7016 44.5469 68.3966 42.8064 65.8564 43.1357C65.7623 43.1357 65.7153 43.1357 65.6212 43.1827C65.0097 43.3238 64.4452 43.559 63.9277 43.8883L64.0689 44.2176C64.3511 44.1235 64.6333 44.0765 64.8685 43.9824C67.1265 43.6061 69.2903 45.0173 69.7607 47.2752V47.3693C70.043 49.6273 68.5377 51.697 66.2798 52.0734C65.9975 52.1204 65.7153 52.1204 65.433 52.1204L65.386 52.4967C65.9975 52.6378 66.609 52.6849 67.2206 52.5908C69.7607 52.2145 71.4542 49.8625 71.0779 47.3223C71.0779 47.2282 71.0779 47.1341 71.0779 47.04Z" fill="#6B7688"/>
<path d="M69.8078 47.0864C69.3844 44.7814 67.2206 43.2762 64.9156 43.6525C64.6333 43.6995 64.3511 43.7466 64.0688 43.8877C64.5393 43.5584 65.1037 43.2762 65.6682 43.1821C68.1614 42.7587 70.5604 44.4522 70.9838 46.9453C71.4071 49.3914 69.8078 51.6964 67.4087 52.2138H67.2676C66.7031 52.3079 66.0916 52.2609 65.5271 52.1197C65.8093 52.1197 66.0916 52.0727 66.3738 52.0257C68.6788 51.6023 70.2311 49.4384 69.8078 47.0864Z" fill="#6B7688"/>
<path d="M48.8747 47.04C49.2511 44.5469 51.556 42.8064 54.0962 43.1357C54.1903 43.1357 54.2373 43.1357 54.3314 43.1827C54.9429 43.3238 55.5074 43.559 56.0249 43.8883L55.8837 44.2176C55.6015 44.1235 55.3193 44.0765 55.0841 43.9824C52.8261 43.6061 50.6623 45.0173 50.1919 47.2752V47.3693C49.9096 49.6273 51.4149 51.697 53.6728 52.0734C53.9551 52.1204 54.2373 52.1204 54.5196 52.1204L54.5666 52.4967C53.9551 52.6378 53.3436 52.6849 52.732 52.5908C50.0978 52.0734 48.4043 49.6273 48.8747 47.04C48.8747 47.0871 48.8747 47.0871 48.8747 47.04Z" fill="#6B7688"/>
<path d="M50.0508 47.087C50.4741 44.782 52.685 43.2297 54.99 43.6531C55.2722 43.7001 55.5545 43.7471 55.8367 43.8883C55.3663 43.559 54.8018 43.2767 54.2374 43.1827C51.6972 42.7593 49.3452 44.4998 48.9218 46.9929C48.5455 49.439 50.0978 51.744 52.5439 52.2614H52.5909C53.1554 52.3555 53.767 52.3085 54.3314 52.1674C54.0492 52.1674 53.767 52.1203 53.4847 52.0733C51.1797 51.6499 49.6744 49.4861 50.0037 47.1811L50.0508 47.087Z" fill="#6B7688"/>
<path d="M66.4209 61.9515H66.0916C63.5044 61.8104 61.5287 59.5995 61.6698 57.0123C61.7639 55.0836 63.034 53.3902 64.9156 52.7787L64.8686 52.4023C62.0461 52.6375 59.9764 55.0836 60.2116 57.9061C60.3997 60.3522 62.3284 62.2808 64.7745 62.469C65.339 62.516 65.9505 62.4219 66.4679 62.2338L66.4209 61.9515Z" fill="#6B7688"/>
<path d="M66.1386 61.9048C63.4573 61.7637 61.3875 59.4587 61.5286 56.7774V56.7304C61.6227 54.7077 62.9869 52.9672 64.9156 52.3086C62.2343 52.4027 60.1174 54.6136 60.2115 57.2949C60.3056 59.9762 62.5165 62.093 65.1978 61.9989C65.6682 61.9989 66.0916 61.9048 66.562 61.7637C66.4208 61.8578 66.2797 61.9048 66.1386 61.9048Z" fill="#6B7688"/>
<path d="M53.4377 61.9515H53.7669C56.3542 61.8104 58.3299 59.6466 58.2358 57.0593C58.2358 57.0593 58.2358 57.0593 58.2358 57.0123C58.1417 55.0366 56.8246 53.3431 54.943 52.7787L54.99 52.4023C57.7654 52.6846 59.8352 55.0836 59.647 57.9061C59.4588 60.3522 57.5302 62.2808 55.0841 62.469C54.5196 62.516 53.9081 62.4219 53.3906 62.2338L53.4377 61.9515Z" fill="#6B7688"/>
<path d="M53.767 61.9045C56.4483 61.7163 58.5181 59.4114 58.3299 56.7301C58.1888 54.7073 56.8717 53.0139 54.9901 52.4023C57.6714 52.5435 59.7412 54.8955 59.553 57.5768C59.4119 60.0229 57.4832 61.9986 54.9901 62.1397C54.4726 62.1397 53.9081 62.0927 53.4377 61.9045C53.5318 61.9045 53.6259 61.9045 53.767 61.9045Z" fill="#6B7688"/>
<path d="M91.8697 80.6746H78.3221C78.3221 81.0039 78.2751 81.3332 78.228 81.6625L78.181 81.8977L78.1339 81.9918C78.1339 82.0388 78.1339 82.0388 78.0869 82.0858L77.9928 82.321L77.9458 82.4151L77.8987 82.5092C77.6165 83.1207 77.005 83.4971 76.3464 83.4971C76.0171 83.4971 75.7349 83.403 75.4997 83.2148C75.2645 83.0266 75.0293 82.7444 74.9352 82.4622L75.0763 82.3681C75.3115 82.6033 75.6408 82.7444 75.9701 82.7914C76.0642 82.7914 76.1582 82.7914 76.2523 82.7444C76.3464 82.7444 76.3934 82.7444 76.4875 82.6974C76.9109 82.5562 77.1931 82.274 77.2872 81.8506L77.3343 81.6154L77.3813 81.2391V79.8279H76.9109V79.5927L77.052 79.5457L77.3343 79.4045C77.4283 79.3105 77.5695 79.2634 77.6635 79.1223L77.9928 78.6989L78.0869 78.5578L78.181 78.3226L78.4162 78.3697V79.7809H91.2582V79.4045C91.2582 78.9341 90.976 78.9341 90.4585 78.9341H82.1794V77.8522L87.3539 73.1952C87.4009 73.1482 87.4009 73.1011 87.4479 73.1011C87.495 73.1011 87.495 73.1482 87.495 73.1952C87.495 73.2423 87.3539 73.4304 87.2598 73.5715C87.2598 73.6186 86.8364 74.3712 86.8364 74.4653C86.9305 74.6535 86.9775 74.8416 86.9775 75.0298C86.9775 75.3591 86.8834 75.5472 86.7423 75.5472C86.6012 75.5472 86.6953 75.1709 86.4601 75.1709C86.2719 75.2179 86.0838 75.312 85.9426 75.5002L83.2143 77.8522H90.3174C91.4464 77.8522 91.8227 78.1815 91.8227 79.3575L91.8697 80.6746ZM45.582 82.9796C45.7702 83.2148 46.0054 83.403 46.2406 83.5911L46.1935 83.6382L46.2406 83.6852C46.0994 83.8263 45.629 84.3438 45.629 84.3438C45.582 84.2497 44.9234 83.6382 44.9234 83.6382C45.1116 83.45 45.3468 83.2148 45.582 82.9796ZM46.2406 83.6382C46.4758 83.403 46.6639 83.2148 46.8991 83.0266L47.5577 83.7323C47.5577 83.7323 46.9932 84.3438 46.8991 84.4379V84.4849C46.8991 84.4849 46.4287 83.9675 46.2876 83.8263L46.3346 83.7793C46.2876 83.6852 46.2406 83.6852 46.2406 83.6382ZM41.4424 80.3924L41.5365 80.4394V80.6746H39.0434V72.1603L39.2786 72.1133C39.3727 72.2544 39.5138 72.4896 39.6079 72.6307L39.749 72.8659L39.9842 73.1011L40.4076 73.3834L40.6428 73.5245L40.878 73.6186L40.8309 73.8538H40.2194V79.7809H40.972C40.972 79.8749 40.972 80.0161 41.0191 80.1101C41.0191 80.1572 41.0661 80.2042 41.1602 80.3453L41.4895 80.5805L41.4424 80.3924ZM53.0614 81.098L53.767 81.8036L53.0614 82.5092L52.3558 81.8036L53.0614 81.098ZM107.816 80.4394V80.6746H105.323V72.1603L105.558 72.1133C105.653 72.2544 105.794 72.4896 105.888 72.6307L106.029 72.8659L106.264 73.1011L106.64 73.3834L106.876 73.5245L107.111 73.6186L107.064 73.8538H106.452V79.7809H107.205C107.205 79.8749 107.205 80.0161 107.252 80.1101C107.252 80.1572 107.299 80.2042 107.346 80.3453L107.675 80.5805L107.769 80.6276L107.816 80.4394ZM64.9156 79.3105C64.9156 79.2164 64.8686 79.1223 64.7745 79.1223H64.7274H58.3299V79.6868H64.9156V79.3105ZM68.9611 72.1603L69.1963 72.2074V80.6746H49.9097L46.9462 77.7111L46.8051 77.57L46.758 77.664L46.711 77.7111L46.6169 77.8522L46.5699 77.8992L46.5228 78.0404C46.5698 78.1815 46.6169 78.3226 46.758 78.4167C46.8521 78.5108 46.9462 78.5578 47.0403 78.6519C47.1814 78.793 47.3225 78.9812 47.4636 79.1223C47.9811 79.5927 48.3103 80.2513 48.3574 80.9569C48.3574 81.5684 48.0751 82.1329 47.6518 82.5092C47.4636 82.6503 47.2284 82.7914 47.0403 82.9326C46.8051 83.0266 46.6169 83.0737 46.3817 83.0737H45.629C45.2527 83.0266 44.9234 82.8385 44.6412 82.6033C44.1708 82.1799 43.8886 81.6154 43.8886 81.0039V80.7217C43.8886 80.6276 43.8885 80.5335 43.9356 80.4394C43.9356 80.2513 44.0297 80.0631 44.1708 79.922L44.3119 80.0161C44.2178 80.1572 44.1708 80.3453 44.1708 80.5335C44.2178 80.9569 44.453 81.3332 44.7353 81.6154C44.9705 81.8036 45.2527 81.9918 45.535 82.0858C45.6761 82.1329 45.8172 82.1329 45.9583 82.1329H46.2406C46.4758 82.0858 46.711 81.9447 46.8521 81.7566C46.8521 81.7095 46.8521 81.7095 46.8991 81.7095C47.1343 81.4743 47.2755 81.1921 47.2755 80.8628C47.2755 80.5805 47.1814 80.3453 46.9462 80.1572L46.8991 80.1101C46.758 79.969 46.4758 79.6868 46.2406 79.4986L45.9113 79.1693C45.7702 79.0282 45.6761 78.8871 45.535 78.746C45.4879 78.6989 45.4409 78.6519 45.4409 78.6049C45.3468 78.4637 45.2998 78.2756 45.2998 78.0874V77.8522L45.3468 77.7581V77.7111L45.3938 77.664L45.535 77.5229C45.7702 77.2407 45.9583 76.9584 46.1465 76.6292C46.1465 76.5821 46.1935 76.5351 46.1935 76.488C46.2406 76.394 46.2876 76.2528 46.2876 76.1117C46.2876 76.0647 46.2406 76.0176 46.2406 75.9706H46.5228L46.8991 76.3469L50.3801 79.8279H52.8262V78.746H52.4499L52.4029 78.5108C52.6851 78.4167 52.9203 78.2756 53.1085 78.0404C53.2966 77.8052 53.4848 77.57 53.6259 77.2877L53.8611 77.3348V79.8749H57.4362V73.8538H56.9658L56.9187 73.6186L57.201 73.5245L57.4362 73.4304L57.5303 73.3834L57.6243 73.2893H57.6714L57.7184 73.2422L57.8125 73.1482C57.9066 73.0541 57.9536 72.913 58.0947 72.8189C58.1418 72.7718 58.1888 72.6778 58.1888 72.5837L58.2359 72.4426L58.4711 72.4896V78.1345H65.339C65.5742 78.1345 65.7623 78.1815 65.9034 78.3697C66.0446 78.5108 66.1386 78.6519 66.1386 78.8871V79.6868H68.3495V73.8538H67.3617L67.9732 73.4304L68.1143 73.3363L68.2555 73.2422L68.3495 73.1482L68.4907 73.007C68.6318 72.913 68.7729 72.7718 68.867 72.5837L68.9611 72.4426V72.1603ZM100.478 79.6397L100.384 79.4986L100.29 79.4516L100.055 79.3575H99.6314V79.7338L100.478 79.6397ZM104.194 72.1603L104.43 72.2074V80.6746H95.1155C95.1155 81.0039 95.0685 81.3332 95.0214 81.6625L94.9744 81.8977L94.9274 81.9918C94.9274 82.0388 94.9273 82.0388 94.8803 82.0858L94.7862 82.321L94.7392 82.4151L94.6921 82.5092C94.4099 83.1207 93.7984 83.5441 93.1398 83.4971C92.8105 83.4971 92.5283 83.403 92.2931 83.2148C92.0579 83.0266 91.8227 82.7444 91.7286 82.4622L91.8697 82.3681C92.1049 82.6033 92.4342 82.7444 92.7635 82.7914H93.0457C93.1398 82.7914 93.1869 82.7444 93.2809 82.7444C93.6573 82.6033 93.9865 82.274 94.0806 81.8977C94.1277 81.7095 94.1747 81.4743 94.1747 81.2862V79.8279H93.7043L93.6102 79.4986L93.8454 79.4045L94.1277 79.2634C94.2688 79.2164 94.3629 79.1223 94.4569 78.9812L94.7862 78.5578L94.8803 78.4167L94.9744 78.1815H95.2096V79.5927H98.7847V77.664L99.0199 77.617C99.1139 77.8522 99.3491 77.9463 99.4903 78.0874C99.7725 78.1815 99.9607 78.2285 100.196 78.3226C100.431 78.3696 100.666 78.4167 100.901 78.4167C101.278 78.4167 101.466 78.6519 101.56 79.0282L101.654 79.5457H103.489V73.6656H102.501L103.112 73.2422L103.253 73.1482L103.395 73.0541L103.489 72.96L103.63 72.8189C103.771 72.7248 103.912 72.5837 104.006 72.3955L104.1 72.2544L104.194 72.1603ZM72.348 80.3924L72.4421 80.4394V80.6746H69.9489V72.1603L70.1841 72.1133C70.2312 72.3014 70.3723 72.4896 70.5134 72.6307L70.6545 72.8659L70.8897 73.1011L71.3131 73.3834L71.5483 73.5245L71.7835 73.6186L71.7364 73.8538H71.1249V79.7809H71.8776C71.8776 79.8749 71.8776 80.0161 71.9246 80.1101C71.9246 80.1572 71.9717 80.2042 72.0187 80.3453L72.348 80.6276V80.3924ZM25.778 79.0282L25.4958 79.0753C25.4487 79.0753 25.4017 79.1223 25.3546 79.1223C25.2135 79.1693 25.0724 79.2634 24.9783 79.3575L24.9313 79.4516V79.6397H25.778V79.0282ZM26.6247 77.7111H26.8599V81.098C26.8599 81.6154 26.7188 82.0858 26.4366 82.5562C26.2014 82.9796 25.825 83.2619 25.3546 83.403C25.2135 83.45 25.0724 83.45 24.8842 83.45H24.4609C24.2257 83.403 23.9905 83.3089 23.8494 83.0737C23.6142 82.8855 23.426 82.6033 23.2849 82.3681L23.426 82.274C23.6612 82.5092 23.9905 82.6033 24.3198 82.6503H24.4609L24.555 82.6033L24.9313 82.5562C25.0724 82.5092 25.1665 82.4151 25.2606 82.321C25.4017 82.1799 25.5428 81.9447 25.5898 81.7566V81.5214L25.6369 81.2862V80.6746V80.7217H23.8023L23.7553 80.4865V79.969L23.7082 79.6868C23.7082 79.1223 24.0375 78.6519 24.555 78.4637C24.7902 78.4167 25.0254 78.3226 25.2135 78.2285C25.3546 78.1815 25.5428 78.1344 25.731 78.0874L25.8721 78.0404C25.9191 78.0404 25.9662 77.9933 26.1073 77.9463C26.2014 77.8992 26.2955 77.8522 26.3895 77.8052C26.5777 77.8052 26.6247 77.7581 26.6247 77.7111ZM13.9238 82.9796C13.9238 82.9796 14.4413 83.45 14.5824 83.5911L14.5354 83.6382L14.5824 83.6852L13.9238 84.3438L13.2182 83.6382C13.4534 83.45 13.6886 83.2148 13.9238 82.9796ZM37.9615 72.1603L38.1967 72.2074V80.6746H27.1892V80.4394C27.4715 80.3453 27.7537 80.1572 27.9419 79.922L28.083 79.7809L28.2241 79.6397L28.3182 79.4045L28.4123 79.1693H28.6475V79.5927H33.963V79.0753L33.916 79.0282H29.1649L29.1179 78.793C29.259 78.746 29.4001 78.6989 29.5412 78.5578C29.6824 78.5108 29.8235 78.4167 29.9176 78.2756L30.1998 77.8992C30.2939 77.8052 30.3409 77.617 30.435 77.5229H30.6702V77.9463H34.2453C34.4805 77.9463 34.6686 77.9933 34.8098 78.1815C34.9509 78.3226 35.045 78.4637 35.092 78.6989V79.5457H37.3499V73.6656H36.3621L36.9736 73.2422L37.1147 73.1482L37.2559 73.0541L37.3499 72.96L37.4911 72.8189C37.6322 72.6778 37.7733 72.5366 37.9144 72.3955L38.0555 72.2544V72.1603H37.9615ZM14.6294 83.6852L15.1939 83.0266L15.8525 83.7323L15.1469 84.4379V84.4849C15.1469 84.4849 14.6294 83.9675 14.5354 83.8263L14.6294 83.6852ZM77.099 77.8992L76.3934 77.1936L77.099 76.488L77.8046 77.1936L77.099 77.8992ZM23.0497 72.1603L23.2849 72.2074V80.6746H18.2515C18.2515 80.6746 15.8995 78.3696 15.288 77.7111L15.1469 77.57L15.0998 77.664L15.0528 77.7111L14.9587 77.8522L14.9117 77.8992L14.8646 78.0404C14.9117 78.1815 14.9587 78.3226 15.0998 78.4167L15.335 78.6519C15.5702 78.8871 15.7584 79.1223 15.7584 79.1223C16.2759 79.5927 16.6051 80.2513 16.6522 80.9569C16.6522 81.5684 16.417 82.1329 15.9936 82.5092C15.8054 82.6503 15.5702 82.7914 15.335 82.9326C15.1469 83.0266 14.9117 83.0737 14.7235 83.0737H14.065C13.6886 83.0266 13.3594 82.8855 13.0771 82.6033C12.6067 82.1799 12.3245 81.6154 12.3245 81.0039V80.7217C12.3245 80.6276 12.3245 80.5335 12.3715 80.4394C12.4185 80.2513 12.4656 80.1101 12.6067 79.922L12.7478 80.0161C12.6537 80.1572 12.6537 80.3453 12.6067 80.5335C12.6537 80.9569 12.8889 81.3332 13.1712 81.6154C13.4064 81.8506 13.6886 81.9918 14.0179 82.0858C14.159 82.1329 14.3002 82.1329 14.4413 82.1329H14.5824C14.8176 82.0858 15.0528 81.9447 15.1939 81.7566V81.7095C15.4291 81.5214 15.5702 81.1921 15.5702 80.8628C15.5702 80.5805 15.4762 80.3453 15.288 80.1572C15.241 80.1572 15.241 80.1101 15.1939 80.1101C15.0058 79.8749 14.7706 79.6868 14.5824 79.4986L14.2531 79.1693C14.112 79.0282 14.0179 78.8871 13.8768 78.746C13.8298 78.6989 13.7827 78.6519 13.7827 78.6049C13.6886 78.4637 13.6416 78.2756 13.6416 78.0874V77.8522L13.6886 77.7581V77.7111L13.7357 77.664C13.7827 77.617 13.8298 77.57 13.8298 77.5229C14.065 77.2407 14.2531 76.9584 14.3942 76.6292C14.4413 76.5821 14.4413 76.5351 14.4883 76.488C14.5354 76.394 14.5824 76.2528 14.5824 76.1117C14.5824 76.0647 14.5824 76.0176 14.5354 75.9706H14.8176C14.9587 76.0647 15.0528 76.2058 15.1939 76.3469C16.1818 77.2407 18.769 79.8279 18.769 79.8279H22.2029V73.9479H21.2151L21.8266 73.5245L21.9677 73.4304L22.1089 73.3363L22.2029 73.2422L22.3441 73.1011C22.4852 72.96 22.5793 72.8189 22.7204 72.6778L22.8615 72.5366L23.0497 72.1603Z" fill="#6B7688"/>
</svg>
