<svg width="120" height="120" viewBox="0 0 120 120" fill="none" xmlns="http://www.w3.org/2000/svg">
<path d="M70.6546 36.5979C70.4194 36.5508 70.1372 36.5508 69.902 36.5979C69.2905 36.5979 68.6789 36.6919 68.1145 36.9271C67.2207 37.2094 66.374 37.6798 65.6684 38.2913C65.7154 38.1032 65.7624 37.962 65.8095 37.7739C66.374 36.2686 66.0917 34.5751 65.0568 33.3521C64.7276 32.9287 64.3512 32.5524 63.9279 32.2231C63.8808 32.1761 63.8338 32.129 63.7397 32.129C63.5986 32.0349 63.4104 32.082 63.2693 32.2231C62.94 32.5994 62.7048 33.0698 62.4696 33.4932C61.8581 34.9514 61.9992 36.5979 62.893 37.915C63.0341 38.0561 63.1282 38.1972 63.1752 38.3854C62.3285 37.915 61.3877 37.6327 60.4469 37.5387C59.8354 37.4916 59.2238 37.4916 58.6593 37.6327C58.4241 37.6798 58.1419 37.7268 57.9067 37.8209C57.7656 37.8679 57.6715 38.0091 57.7185 38.1502C57.7185 38.1972 57.7185 38.1972 57.7656 38.2443C58.236 38.9028 58.8945 39.4203 59.6002 39.7025C60.4939 40.0788 61.4818 40.22 62.4696 40.1259C62.6107 40.1259 62.7989 40.1259 62.94 40.0318C62.7989 40.0318 62.7048 39.9848 62.6107 39.9848C61.6699 39.8436 60.8232 39.3732 60.1646 38.7147C60.8232 38.5265 61.4818 38.5265 62.1403 38.6206C62.7989 38.7147 63.4575 38.9028 64.069 39.1851C63.6456 38.3854 63.4575 37.5387 63.4575 36.6449C63.5045 36.0804 63.6927 35.5159 63.9749 34.9985C64.3512 35.4219 64.6335 35.8923 64.8687 36.3627C65.1509 37.2564 65.198 38.1972 65.0098 39.138C65.5272 38.7147 66.0917 38.4324 66.7032 38.1502C67.3148 37.915 67.9733 37.7739 68.6319 37.8209C68.1145 38.5736 67.4089 39.138 66.6092 39.5144C66.5151 39.5614 66.421 39.5614 66.3269 39.6084C66.468 39.6084 66.6562 39.6084 66.7973 39.6084C67.7381 39.5144 68.6789 39.1851 69.4786 38.6206C70.1372 38.1502 70.6546 37.5387 70.8898 36.786C70.9839 36.8331 70.8428 36.5979 70.6546 36.5979Z" fill="#6B7688"/>
<path d="M55.5548 54.943C55.4136 54.943 55.3666 55.0371 55.2725 55.0841C54.2847 55.7427 53.1557 56.119 51.9326 56.1661C49.5806 56.2131 47.1345 54.896 46.6171 52.4499C46.4289 51.2739 46.57 50.0508 47.0404 48.9219C47.5579 47.5577 48.2635 46.2876 48.875 44.9705C49.2513 44.1708 49.6277 43.4652 49.9569 42.6655C50.6155 41.2543 50.3803 39.9371 49.5336 38.6671C48.6398 37.3029 47.2286 36.5973 45.5352 36.315C43.3713 35.9387 41.3015 36.315 39.2317 36.9266C36.1741 37.8203 33.4928 39.749 31.6582 42.3832C31.0938 43.23 30.7645 44.2178 30.6704 45.2527C30.5293 46.2406 30.6234 47.2284 30.9997 48.1222C31.6112 49.7215 32.8813 50.6153 34.7159 50.9916C36.7856 51.415 38.9495 50.9916 40.737 49.8156C42.6186 48.6396 44.0769 46.8521 44.7825 44.7823C44.9236 44.3119 45.0177 43.8885 45.0177 43.4181C45.0647 42.6655 44.218 41.8188 43.3243 41.6776C42.8539 41.5836 42.3834 41.6306 41.9601 41.8188L41.4897 41.9599C41.1604 42.101 40.7841 42.0069 40.5489 41.7717C40.2666 41.5365 40.2196 41.1132 40.4548 40.7839C40.8782 40.2194 41.4897 39.8431 42.1953 39.6549C44.2651 39.4197 46.0056 39.9842 46.8052 42.0069C47.2756 43.1829 47.2756 44.453 46.8052 45.629C45.7704 48.7337 43.4183 51.2739 40.4078 52.544C37.1149 53.9081 33.3047 53.4848 30.3882 51.368C29.2592 50.4742 28.5065 49.2041 28.3184 47.7929C27.848 44.5941 29.071 41.8658 31.2349 39.4667C33.5869 36.8795 36.6445 35.2802 40.2196 34.3864C41.6778 34.0571 43.1831 34.0101 44.6414 34.1512C45.6763 34.2453 46.7582 34.4334 47.7461 34.8097C48.9221 35.2331 49.9569 35.9387 50.7566 36.9266C51.5563 37.8203 52.1208 38.8552 52.403 40.0312C52.5442 40.878 52.4971 41.7247 52.2149 42.5244C51.7915 43.7945 51.227 45.0646 50.6155 46.2876C49.9569 47.5106 49.4395 48.7807 49.1102 50.0979C48.9691 50.8035 48.9691 51.5091 49.1102 52.1676C49.3925 53.3907 50.7566 54.2374 52.1208 54.0963C53.6261 53.9081 55.0844 53.2025 56.1663 52.1676C58.2831 50.286 59.6943 48.0281 60.8703 45.629C61.8111 43.8885 62.6578 42.054 63.5987 40.3135C63.9279 39.749 64.6806 39.5138 65.2451 39.8431C65.2921 39.8901 65.3862 39.9371 65.4332 39.9842C65.7625 40.2664 65.8096 40.6898 65.6214 41.0661C65.0099 42.3362 64.3513 43.5593 63.7398 44.8764C61.2937 49.6275 58.6124 54.2845 55.884 58.9415C55.0373 60.3527 54.1906 61.7639 53.3909 63.2221C53.1557 63.6455 52.7323 63.8807 52.2619 63.8337H51.8856C51.0859 63.8337 50.6626 63.3162 51.0389 62.6106C51.2741 62.1402 51.6034 61.6698 51.8856 61.2464C53.0616 59.2707 54.1906 57.3421 55.3666 55.3194C55.4607 55.0841 55.5548 55.0371 55.5548 54.943Z" fill="#6B7688"/>
<path d="M91.5877 50.944C91.5407 50.7088 91.3055 50.5206 91.0703 50.5206C90.8351 50.5206 90.5999 50.6617 90.4117 50.8499C89.565 51.9318 88.436 52.7785 87.1189 53.296C86.2721 53.7193 85.2843 53.8605 84.3435 53.7664C81.8503 53.4371 80.4391 51.1792 81.3329 49.1094C81.9444 47.8393 82.65 46.5692 83.2616 45.2991C84.2024 43.3234 84.955 41.3007 85.8488 39.2779C86.0369 38.8075 86.4133 38.3842 86.4603 37.9138C86.5073 37.5374 86.2251 37.1611 85.8488 37.1141C85.7547 37.1141 85.6606 37.1141 85.5665 37.1611C85.2843 37.2082 85.0491 37.2552 84.7668 37.3493C84.2494 37.5845 83.6379 37.5845 83.1675 37.2552L82.603 37.02C82.1326 36.7848 81.6622 36.5496 81.1447 36.4085C79.075 35.891 76.8641 35.9381 74.8413 36.5496C72.5364 37.2552 70.4195 38.4312 68.585 40.0306C68.4909 40.1247 68.3027 40.1717 68.1616 40.1247C67.8794 40.0306 67.5501 39.9835 67.2208 40.0776C66.8915 40.0776 66.6563 40.3599 66.6563 40.6892C66.6563 40.7832 66.6563 40.8303 66.7034 40.8773C66.7504 41.0184 66.7974 41.1596 66.8915 41.3007C66.9385 41.4888 67.0326 41.677 66.8445 41.8652C66.2329 42.5237 65.7155 43.2293 65.3392 44.029C64.1632 45.9106 63.5046 48.0745 63.4576 50.2854C63.4105 50.991 63.5046 51.7436 63.7398 52.4022C64.4454 54.7072 66.1859 56.3066 69.2906 56.2125C70.7959 56.1654 72.2541 55.7891 73.5712 55.1305C74.5591 54.6131 75.5469 54.0486 76.4407 53.4371C77.1463 52.9196 77.946 52.4963 78.7927 52.214C79.2161 52.0729 79.6394 52.214 79.9217 52.5433C80.1569 52.8256 80.3451 53.1078 80.5332 53.3901C81.0036 54.2838 81.8033 54.9424 82.7441 55.2717C83.6849 55.5539 84.6257 55.695 85.6136 55.601C87.8245 55.4128 89.8943 54.3779 91.3525 52.6844C91.6818 52.12 91.917 51.5555 91.5877 50.944ZM78.2753 49.1564C74.5591 53.1549 69.5258 54.9894 67.0326 53.1549C64.5395 51.3673 65.4333 46.6162 69.1024 42.5237C72.8186 38.4783 77.8519 36.6907 80.3451 38.5253C82.8382 40.3599 81.9915 45.1109 78.2753 49.1564Z" fill="#6B7688"/>
<path d="M46.9934 57.9063C47.0404 57.2948 47.5579 56.7773 48.2165 56.7773C48.828 56.8244 49.2513 57.3889 49.2043 57.9534C49.1573 58.5649 48.5928 58.9882 48.0283 58.9412C47.4168 58.8942 46.9934 58.4708 46.9934 57.9063Z" fill="#6B7688"/>
<path d="M50.145 57.9076C50.1921 57.2961 50.7095 56.7786 51.3681 56.7786C51.9796 56.7316 52.497 57.202 52.5441 57.8135C52.5441 57.8606 52.5441 57.8606 52.5441 57.9076C52.497 58.5191 51.9796 58.9895 51.321 58.9895C50.7565 59.0366 50.2391 58.5662 50.145 57.9076Z" fill="#6B7688"/>
<path d="M5.83309 85.6598L6.63278 87.7296H7.66767L5.17453 81.191H3.99852L1.50538 87.7296H2.49323L3.29291 85.6598H5.83309ZM3.43403 85.0013L4.18668 83.1197C4.3278 82.7433 4.46892 82.32 4.563 81.8966C4.65708 82.2729 4.7982 82.6963 4.93933 83.1197L5.69197 85.0013H3.43403ZM10.443 87.7296V84.9542L12.8891 81.238H11.8072L10.7253 83.0256C10.443 83.543 10.1608 83.9664 9.97265 84.3427C9.73744 83.8723 9.50224 83.4489 9.22 83.0256L8.18511 81.238H7.10318L9.40816 85.0483V87.8237H10.349V87.7296H10.443ZM16.6994 85.6598L17.4991 87.7296H18.534L15.9938 81.191H14.8178L12.3247 87.7296H13.3125L14.1122 85.6598H16.6994ZM14.2533 85.0013L15.006 83.1197C15.1471 82.7433 15.2882 82.32 15.3823 81.8966C15.4764 82.2729 15.6175 82.6963 15.7586 83.1197L16.5113 85.0013H14.2533ZM21.4975 87.4003C22.1091 87.6826 22.7206 87.8237 23.3792 87.8237C25.1196 87.8237 25.9664 86.9299 25.9664 85.9421C25.9664 84.9542 25.3078 84.4838 24.0848 84.0134C23.0499 83.6371 22.6265 83.3549 22.6265 82.7433C22.6265 82.2729 23.0028 81.7555 23.9907 81.7555C24.4611 81.7555 24.9315 81.8496 25.3548 82.0848L25.6371 81.3792C25.1196 81.144 24.5552 81.0499 24.0377 81.0499C22.6265 81.0499 21.6857 81.8025 21.6857 82.7904C21.6857 83.7312 22.4383 84.2486 23.6144 84.6249C24.6022 84.9542 24.9785 85.3306 24.9785 85.895C24.9785 86.5066 24.414 87.024 23.4732 87.024C22.8617 87.024 22.2972 86.8829 21.7798 86.6006L21.4975 87.4003ZM27.2365 87.7296H28.2243V85.0953C28.5065 85.1424 28.7418 85.1424 29.024 85.1424C29.8237 85.1894 30.6704 84.9542 31.2819 84.3897C31.6583 84.0134 31.8464 83.543 31.8464 83.0256C31.8464 82.5081 31.6112 81.9907 31.1879 81.6614C30.7645 81.2851 30.0589 81.0969 29.1181 81.0969C28.5066 81.0969 27.895 81.144 27.3305 81.238L27.2365 87.7296ZM28.1773 81.8496C28.4595 81.8025 28.7418 81.8025 29.071 81.8025C30.153 81.8025 30.8115 82.2259 30.8115 83.0726C30.8115 83.9193 30.1059 84.4368 28.977 84.4368C28.6947 84.4368 28.4595 84.4368 28.1773 84.3897V81.8496ZM36.8327 83.9664H33.9632V81.8496H36.9738V81.144H33.0224V87.6826H37.1149V87.024H33.9162V84.672H36.7857L36.8327 83.9664ZM43.3243 86.8358C42.8068 87.024 42.2894 87.1181 41.7719 87.1181C39.9844 87.1181 38.9495 86.0832 38.9495 84.4838C38.9495 82.7904 40.1255 81.8025 41.819 81.8025C42.3364 81.8025 42.8539 81.8966 43.2772 82.0848L43.5124 81.3792C42.9479 81.191 42.3364 81.0969 41.7719 81.0969C39.514 81.0969 37.9617 82.4611 37.9617 84.5309C37.9617 86.6477 39.514 87.8707 41.6308 87.8707C42.2894 87.9178 42.9479 87.7767 43.5595 87.5415L43.3243 86.8358ZM44.7355 87.7296H45.7233V81.191H44.7355V87.7296ZM51.0859 85.6598L51.8856 87.7296H52.9205L50.4274 81.191H49.2514L46.7582 87.7296H47.7461L48.5457 85.6598H51.0859ZM48.6869 85.0013L49.4395 83.1197C49.5806 82.7433 49.7218 82.32 49.8158 81.8966C49.9099 82.2729 50.051 82.6963 50.1922 83.1197L50.9448 85.0013H48.6869ZM54.0024 87.7296H58.0949V87.024H54.8962V81.238H53.9554V87.7296H54.0024ZM59.1298 87.7296H60.1177V81.191H59.1298V87.7296ZM61.3407 87.4003C61.9523 87.6826 62.5638 87.8237 63.2223 87.8237C64.9628 87.8237 65.8096 86.9299 65.8096 85.9421C65.8096 84.9542 65.151 84.4838 63.928 84.0134C62.8931 83.6371 62.4697 83.3549 62.4697 82.7433C62.4697 82.2729 62.846 81.7555 63.8339 81.7555C64.3043 81.7555 64.7747 81.8496 65.198 82.0848L65.4803 81.3792C64.9628 81.144 64.3984 81.0499 63.8809 81.0499C62.4697 81.0499 61.5289 81.8025 61.5289 82.7904C61.5289 83.7312 62.2815 84.2486 63.4575 84.6249C64.4454 84.9542 64.8217 85.3306 64.8217 85.895C64.8217 86.5066 64.2572 87.024 63.3164 87.024C62.7049 87.024 62.1404 86.8829 61.623 86.6006L61.3407 87.4003ZM68.4909 87.7296H69.4787V81.8966H71.7367V81.144H66.28V81.8966H68.4909V87.7296ZM74.8413 81.191V87.7296H75.8292V84.672H79.4042V87.7296H80.3921V81.191H79.4042V83.9193H75.8292V81.191H74.8413ZM84.908 81.0969C83.1204 81.0028 81.5681 82.4141 81.474 84.2016C81.474 84.2957 81.474 84.3897 81.474 84.4838C81.3799 86.2243 82.7441 87.7296 84.4846 87.8237C84.5787 87.8237 84.6728 87.8237 84.7668 87.8237C86.6485 87.8237 88.2008 86.6006 88.2008 84.3427C88.2949 82.6022 86.9307 81.144 85.1902 81.0499C85.0961 81.0969 85.002 81.0969 84.908 81.0969ZM84.8609 81.7555C86.4132 81.7555 87.2129 83.0726 87.2129 84.4368C87.2129 85.895 86.3662 87.1651 84.8609 87.1651C83.3556 87.1651 82.5089 85.895 82.5089 84.5309C82.5089 83.0726 83.2615 81.7555 84.8609 81.7555ZM89.0946 87.4003C89.7061 87.6826 90.3176 87.8237 90.9762 87.8237C92.7167 87.8237 93.5634 86.9299 93.5634 85.9421C93.5634 84.9542 92.9048 84.4838 91.6818 84.0134C90.6469 83.6371 90.2235 83.3549 90.2235 82.7433C90.2235 82.2729 90.5998 81.7555 91.5877 81.7555C92.0581 81.7555 92.5285 81.8496 92.9519 82.0848L93.2341 81.3792C92.7167 81.144 92.1522 81.0499 91.6347 81.0499C90.2235 81.0499 89.2827 81.8025 89.2827 82.7904C89.2827 83.7312 90.0354 84.2486 91.2114 84.6249C92.1992 84.9542 92.5755 85.3306 92.5755 85.895C92.5755 86.5066 92.0111 87.024 91.0703 87.024C90.4587 87.024 89.8942 86.8829 89.3768 86.6006L89.0946 87.4003ZM94.8335 87.7296H95.8213V85.0953C96.1036 85.1424 96.3388 85.1424 96.621 85.1424C97.4207 85.1894 98.2674 84.9542 98.8789 84.3897C99.2553 84.0134 99.4434 83.543 99.4434 83.0256C99.4434 82.5081 99.2082 81.9907 98.7849 81.6614C98.3615 81.2851 97.6559 81.0969 96.7151 81.0969C96.1036 81.0969 95.492 81.144 94.9276 81.238L94.8335 87.7296ZM95.7272 81.8496C96.0095 81.8025 96.2917 81.8025 96.621 81.8025C97.7029 81.8025 98.3615 82.2259 98.3615 83.0726C98.3615 83.9193 97.6559 84.4368 96.5269 84.4368C96.2447 84.4368 96.0095 84.4368 95.7272 84.3897V81.8496ZM100.619 87.7296H101.607V81.191H100.619V87.7296ZM104.618 87.7296H105.606V81.8966H107.864V81.144H102.407V81.8966H104.618V87.7296ZM111.627 85.6598L112.427 87.7296H113.461L110.968 81.191H109.792L107.299 87.7296H108.287L109.087 85.6598H111.627ZM109.181 85.0013L109.933 83.1197C110.075 82.7433 110.216 82.32 110.31 81.8966C110.404 82.2729 110.545 82.6963 110.686 83.1197L111.439 85.0013H109.181ZM114.496 87.7296H118.589V87.024H115.39V81.238H114.449L114.496 87.7296ZM5.83309 85.6598L6.63278 87.7296H7.66767L5.17453 81.191H3.99852L1.50538 87.7296H2.49323L3.29291 85.6598H5.83309ZM3.43403 85.0013L4.18668 83.1197C4.3278 82.7433 4.46892 82.32 4.563 81.8966C4.65708 82.2729 4.7982 82.6963 4.93933 83.1197L5.69197 85.0013H3.43403ZM10.443 87.7296V84.9542L12.8891 81.238H11.8072L10.7253 83.0256C10.443 83.543 10.1608 83.9664 9.97265 84.3427C9.73744 83.8723 9.50224 83.496 9.22 83.0256L8.18511 81.238H7.10318L9.40816 85.0013V87.7767L10.443 87.7296ZM16.6994 85.6598L17.4991 87.7296H18.534L15.9938 81.191H14.8178L12.3247 87.7296H13.3125L14.1122 85.6598H16.6994ZM14.2533 85.0013L15.006 83.1197C15.1471 82.7433 15.2882 82.32 15.3823 81.8966C15.4764 82.2729 15.6175 82.6963 15.7586 83.1197L16.5113 85.0013H14.2533ZM21.4975 87.4003C22.1091 87.6826 22.7206 87.8237 23.3792 87.8237C25.1196 87.8237 25.9664 86.9299 25.9664 85.9421C25.9664 84.9542 25.3078 84.4838 24.0848 84.0134C23.0499 83.6371 22.6265 83.3549 22.6265 82.7433C22.6265 82.2729 23.0028 81.7555 23.9907 81.7555C24.4611 81.7555 24.9315 81.8496 25.3548 82.0848L25.6371 81.3792C25.1196 81.144 24.5552 81.0499 24.0377 81.0499C22.6265 81.0499 21.6857 81.8025 21.6857 82.7904C21.6857 83.7312 22.4383 84.2486 23.6144 84.6249C24.6022 84.9542 24.9785 85.3306 24.9785 85.895C24.9785 86.5066 24.414 87.024 23.4732 87.024C22.8617 87.024 22.2972 86.8829 21.7798 86.6006L21.4975 87.4003ZM27.2365 87.7296H28.2243V85.0953C28.5065 85.1424 28.7418 85.1424 29.024 85.1424C29.8237 85.1894 30.6704 84.9542 31.2819 84.3897C31.6583 84.0134 31.8464 83.543 31.8464 83.0256C31.8464 82.5081 31.6112 81.9907 31.1879 81.6614C30.7645 81.2851 30.0589 81.0969 29.1181 81.0969C28.5066 81.0969 27.895 81.144 27.3305 81.238L27.2365 87.7296ZM28.1773 81.8496C28.4595 81.8025 28.7418 81.8025 29.071 81.8025C30.153 81.8025 30.8115 82.2259 30.8115 83.0726C30.8115 83.9193 30.1059 84.4368 28.977 84.4368C28.6947 84.4368 28.4595 84.4368 28.1773 84.3897V81.8496ZM36.8327 83.9664H33.9632V81.8496H36.9738V81.144H33.0224V87.6826H37.1149V87.024H33.9162V84.672H36.7857L36.8327 83.9664ZM43.3243 86.8358C42.8068 87.024 42.2894 87.1181 41.7719 87.1181C39.9844 87.1181 38.9495 86.0832 38.9495 84.4838C38.9495 82.7904 40.1255 81.8025 41.819 81.8025C42.3364 81.8025 42.8068 81.8966 43.2772 82.0848L43.5124 81.3792C42.9479 81.144 42.3364 81.0499 41.7719 81.0969C39.514 81.0969 37.9617 82.4611 37.9617 84.5309C37.9617 86.6477 39.514 87.8707 41.6308 87.8707C42.2894 87.9178 42.9479 87.7767 43.5595 87.5415L43.3243 86.8358ZM44.7355 87.7296H45.7233V81.191H44.7355V87.7296ZM51.0859 85.6598L51.8856 87.7296H52.9205L50.4274 81.191H49.2514L46.7582 87.7296H47.7461L48.5457 85.6598H51.0859ZM48.6869 85.0013L49.4395 83.1197C49.5806 82.7433 49.7218 82.32 49.8158 81.8966C49.9099 82.2729 50.051 82.6963 50.1922 83.1197L50.9448 85.0013H48.6869ZM54.0024 87.7296H58.0949V87.024H54.8962V81.238H53.9554L54.0024 87.7296ZM59.1298 87.7296H60.1177V81.191H59.1298V87.7296ZM61.3407 87.4003C61.9523 87.6826 62.5638 87.8237 63.2223 87.8237C64.9628 87.8237 65.8096 86.9299 65.8096 85.9421C65.8096 84.9542 65.151 84.4838 63.928 84.0134C62.8931 83.6371 62.4697 83.3549 62.4697 82.7433C62.4697 82.2729 62.846 81.7555 63.8339 81.7555C64.3043 81.7555 64.7747 81.8496 65.198 82.0848L65.4803 81.3792C64.9628 81.144 64.3984 81.0499 63.8809 81.0499C62.4697 81.0499 61.5289 81.8025 61.5289 82.7904C61.5289 83.7312 62.2815 84.2486 63.4575 84.6249C64.4454 84.9542 64.8217 85.3306 64.8217 85.895C64.8217 86.5066 64.2572 87.024 63.3164 87.024C62.7049 87.024 62.1404 86.8829 61.623 86.6006L61.3407 87.4003ZM68.4909 87.7296H69.4787V81.8966H71.7367V81.144H66.28V81.8966H68.4909V87.7296ZM74.8413 81.191V87.7296H75.8292V84.672H79.4042V87.7296H80.3921V81.191H79.4042V83.9193H75.8292V81.191H74.8413ZM84.908 81.0969C83.1204 81.0028 81.5681 82.4141 81.474 84.2016C81.474 84.2957 81.474 84.3897 81.474 84.4838C81.3799 86.2243 82.6971 87.7296 84.4376 87.8237C84.5787 87.8237 84.6728 87.8237 84.8139 87.8237C86.6955 87.8237 88.2478 86.6006 88.2478 84.3427C88.3419 82.6022 86.9777 81.144 85.2372 81.0499C85.0961 81.0969 85.002 81.0969 84.908 81.0969ZM84.8609 81.7555C86.4132 81.7555 87.2129 83.0726 87.2129 84.4368C87.2129 85.895 86.3662 87.1651 84.8609 87.1651C83.3556 87.1651 82.5089 85.895 82.5089 84.5309C82.5089 83.0726 83.2615 81.7555 84.8609 81.7555ZM89.0946 87.4003C89.7061 87.6826 90.3176 87.8237 90.9762 87.8237C92.7167 87.8237 93.5634 86.9299 93.5634 85.9421C93.5634 84.9072 92.9048 84.4838 91.6818 84.0134C90.6469 83.6371 90.2235 83.3549 90.2235 82.7433C90.2235 82.2729 90.5998 81.7555 91.5877 81.7555C92.0581 81.7555 92.5285 81.8496 92.9519 82.0848L93.2341 81.3792C92.7167 81.144 92.1522 81.0499 91.6347 81.0499C90.2235 81.0499 89.2827 81.8025 89.2827 82.7904C89.2827 83.7312 90.0354 84.2486 91.2114 84.6249C92.1992 84.9542 92.5755 85.3306 92.5755 85.895C92.5755 86.5066 92.0111 87.024 91.0703 87.024C90.4587 87.024 89.8942 86.8829 89.3768 86.6006L89.0946 87.4003ZM94.8335 87.7296H95.8213V85.0953C96.1036 85.1424 96.3388 85.1424 96.621 85.1424C97.4207 85.1894 98.2674 84.9542 98.8789 84.3897C99.2553 84.0134 99.4434 83.543 99.4434 83.0256C99.4434 82.5081 99.2082 81.9907 98.7849 81.6614C98.3615 81.2851 97.6559 81.0969 96.7151 81.0969C96.1036 81.0969 95.492 81.144 94.9276 81.238L94.8335 87.7296ZM95.7272 81.8496C96.0095 81.8025 96.2917 81.8025 96.621 81.8025C97.7029 81.8025 98.3615 82.2259 98.3615 83.0726C98.3615 83.9193 97.6559 84.4368 96.5269 84.4368C96.2447 84.4368 96.0095 84.4368 95.7272 84.3897V81.8496ZM10.9135 74.6994V75.8284C9.59632 75.8284 9.22 75.6402 8.70256 74.9817C8.37327 76.4399 6.91502 77.4278 5.12749 77.4278C3.05771 77.4278 1.36426 76.0166 1.36426 74.0879V73.006H2.58731V73.9938C2.58731 75.4521 3.57516 76.4399 5.12749 76.4399C6.49166 76.4399 7.57359 75.5932 7.57359 74.6524C7.57359 74.0879 7.15022 73.6645 6.58574 73.6175C6.5387 73.6175 6.49166 73.6175 6.44462 73.6175H6.25646V72.6297H6.72686C7.62063 72.5826 8.42031 73.006 8.84368 73.8057C9.31408 74.5583 9.73744 74.8406 10.3019 74.8406H10.8664L10.9135 74.6994ZM6.7739 79.5446H5.55085V78.4627H6.7739V79.5446ZM4.70412 79.5446H3.52811V78.4627H4.70412V79.5446ZM21.0271 75.8284H10.3019V74.6994H11.525C12.1365 74.6994 12.4658 74.3231 12.4658 73.5234V71.877H13.6418V73.1941C14.6296 72.0181 15.8056 71.4066 16.9817 71.4066C18.8162 71.4066 19.757 72.5356 19.757 74.6994H21.0271V75.8284ZM18.487 74.6994V74.3701C18.487 73.1001 17.8284 72.3474 16.8405 72.3474C15.6175 72.3474 14.3474 73.3823 13.6418 74.6524L18.487 74.6994ZM31.1879 75.8284H20.4626V74.6994H21.6857C22.2972 74.6994 22.6265 74.3231 22.6265 73.5234V71.877H23.8496V73.1941C24.8374 72.0181 26.0134 71.4066 27.1894 71.4066C29.024 71.4066 29.9648 72.5356 29.9648 74.6994H31.2349L31.1879 75.8284ZM28.6477 74.6994V74.3701C28.6477 73.1001 27.9891 72.3474 27.0013 72.3474C25.7782 72.3474 24.5081 73.3823 23.8025 74.6524L28.6477 74.6994ZM39.6081 75.8284H30.9056V74.6994H37.162C37.162 74.1349 36.9738 73.6175 36.5975 73.1941C36.1271 72.6767 35.4685 72.3945 34.7629 72.4415C34.4336 72.4415 34.1514 72.4885 33.8221 72.6297C33.4458 72.7708 33.1165 72.9589 32.8343 73.2412C32.6931 73.053 32.505 72.7708 32.2227 72.3944C32.552 72.1122 32.9754 71.877 33.3988 71.6888C33.8692 71.5007 34.3396 71.4066 34.81 71.4066C35.5156 71.4066 36.1741 71.5477 36.7857 71.877C37.7735 72.4415 38.385 73.5234 38.385 74.6994H39.561L39.6081 75.8284ZM35.4215 70.5599H34.1984V69.4779H35.4215V70.5599ZM40.4078 70.5599H39.1847V69.4779H40.4078V70.5599ZM42.4775 70.5599H41.2545V69.4779H42.4775V70.5599ZM44.2651 75.8284H39.2788V74.6994H40.4078C40.69 74.7465 40.9722 74.6054 41.1604 74.3701C41.2545 74.1349 41.3015 73.8997 41.3015 73.6175V71.4066H42.5246V73.5705C42.5716 73.9468 42.4775 74.3701 42.2423 74.6994H44.3121L44.2651 75.8284ZM47.0405 74.0879C47.0405 75.2639 46.4289 75.8284 45.2529 75.8284H43.9828V74.6994H45.0177C45.4411 74.6994 45.6763 74.6054 45.8174 74.3701C45.9115 74.1349 45.9115 73.8997 45.9115 73.6645V69.572H47.1345V74.0879H47.0405ZM49.3454 75.8284H48.1224V69.572H49.3454V75.8284ZM59.5062 75.8284H58.2361C57.3423 75.8754 56.5426 75.2639 56.3074 74.4172C55.9781 74.8876 55.4607 75.1228 54.9432 75.1698C53.7672 75.2169 52.7794 74.3701 52.7323 73.1941C52.7323 73.1001 52.7323 73.006 52.7323 72.9119C52.7323 71.5007 53.6261 70.5599 54.9432 70.5599H57.6245V73.6175C57.5775 74.182 58.0009 74.6994 58.5653 74.7935C58.6594 74.7935 58.7065 74.7935 58.8005 74.7935H59.6002L59.5062 75.8284ZM56.2604 72.7708V71.4066H55.1314C54.3788 71.4066 53.7672 71.9711 53.7202 72.7237C53.7202 72.7708 53.7202 72.8178 53.7202 72.8649C53.6731 73.5705 54.1906 74.182 54.8492 74.229H54.8962C55.7429 74.182 56.3074 73.5234 56.2604 72.7708ZM55.3666 69.7131H54.1436V68.6783H55.3666V69.7131ZM57.4364 69.7131H56.2133V68.6783H57.4364V69.7131ZM62.3756 74.0879C62.3756 75.2639 61.7641 75.8284 60.5881 75.8284H59.271V74.6994H60.3058C60.7292 74.6994 60.9644 74.6054 61.1055 74.3701C61.1996 74.1349 61.1996 73.8997 61.1996 73.6645V71.4066H62.4227V74.0879H62.3756ZM60.2588 77.9452H59.0358V76.8633H60.2588V77.9452ZM62.3286 77.9452H61.1055V76.8633H62.3286V77.9452ZM64.6806 75.8284H63.4575V69.572H64.6806V75.8284ZM65.151 68.8194C64.9628 69.1016 64.7747 69.2427 64.5395 69.2427C64.3513 69.1957 64.1632 69.1016 63.975 69.0075C63.7868 68.8664 63.5516 68.7723 63.3164 68.7723C63.1283 68.7723 62.9401 68.8664 62.846 69.0546L62.7519 68.7253C62.9401 68.4431 63.1283 68.3019 63.3164 68.3019C63.5516 68.349 63.7398 68.396 63.928 68.5371C64.0691 68.6783 64.2572 68.7253 64.4924 68.7723C64.6806 68.7723 64.8688 68.6783 65.0099 68.4901L65.151 68.8194ZM77.4285 74.6994V75.8284C76.1114 75.8284 75.7351 75.6402 75.2176 74.9817C74.8884 76.4399 73.4301 77.4278 71.6426 77.4278C69.5728 77.4278 67.8793 76.0166 67.8793 74.0879V73.006H69.1024V73.9938C69.1024 75.4521 70.0902 76.4399 71.6426 76.4399C73.0067 76.4399 74.0887 75.5932 74.0887 74.6524C74.0887 74.0879 73.6653 73.6645 73.1008 73.6175C73.0538 73.6175 73.0067 73.6175 72.9597 73.6175H72.7715V72.6297H73.2419C74.1357 72.5826 74.9354 73.006 75.3588 73.8057C75.8292 74.5583 76.2525 74.8406 76.817 74.8406H77.3815L77.4285 74.6994ZM81.3799 69.8072H80.1569V68.7723H81.3799V69.8072ZM84.4376 75.8284H83.2145C82.3678 75.8754 81.5681 75.6873 80.8154 75.311C80.0628 75.6873 79.2631 75.8754 78.4164 75.8284H77.0993V74.6994H78.3693C78.6986 74.6994 79.075 74.6994 79.4042 74.6054C79.075 74.3701 78.7927 74.0879 78.6046 73.7116C78.4164 73.3823 78.3693 73.053 78.3693 72.6767C78.3693 72.4415 78.4164 72.2533 78.5105 72.0181C78.9338 71.0773 79.8746 70.5128 80.9095 70.5599C82.1326 70.5599 83.4497 71.3125 83.4497 72.6767C83.4497 73.053 83.3556 73.3823 83.1675 73.7116C82.9793 74.0879 82.6971 74.4172 82.3678 74.6524C82.6971 74.7465 83.0263 74.7465 83.4027 74.7465H84.5316L84.4376 75.8284ZM81.474 73.8997C81.8974 73.6175 82.1796 73.1471 82.1796 72.6297C82.1796 72.3004 82.0855 72.0181 81.8503 71.7829C81.5681 71.5477 81.1918 71.4066 80.8154 71.4066C80.4391 71.4066 80.0628 71.5007 79.7806 71.7829C79.5454 72.0181 79.4513 72.3004 79.4513 72.6297C79.4513 73.1471 79.7335 73.6175 80.1569 73.8997C80.3921 74.0409 80.6273 74.182 80.8625 74.2761C81.0977 74.1349 81.2859 73.9938 81.474 73.8997ZM84.0142 75.8284V74.6994H85.1432C85.7547 74.6994 86.084 74.3231 86.084 73.5234V71.4066H87.307V73.4764C87.3541 73.8527 87.307 74.229 87.1189 74.6054V74.6524H88.2478C88.8594 74.6524 89.1886 74.2761 89.1886 73.5705V71.3596H90.4117V73.4293C90.4587 73.8057 90.3646 74.229 90.1765 74.6054H91.3995C92.0111 74.6054 92.3403 74.229 92.3403 73.5234V71.3125H93.5634V73.3823C93.5634 73.8057 93.4693 74.229 93.2811 74.6054H95.1157V75.7343H84.1553L84.0142 75.8284ZM89.0946 67.9727H90.3176V69.0546H89.0946V67.9727ZM90.1294 69.4779H91.3525V70.5599H90.1294V69.4779ZM88.0597 69.4779H89.2827V70.5599H88.0597V69.4779ZM95.7272 70.5599H94.5512V69.4779H95.7743V70.5599H95.7272ZM97.797 70.5599H96.574V69.4779H97.797V70.5599ZM99.6316 75.8284H94.6453V74.6994H95.7743C96.0565 74.7465 96.3388 74.6054 96.5269 74.3701C96.621 74.1349 96.6681 73.8997 96.6681 73.6175V71.4066H97.8911V73.5705C97.9381 73.9468 97.8441 74.3701 97.6089 74.6994H99.6786L99.6316 75.8284ZM99.2082 75.8284V74.6994H100.337C100.949 74.6994 101.278 74.3231 101.278 73.5234V71.4066H102.501V73.4764C102.548 73.8527 102.501 74.229 102.313 74.6054V74.6524H103.442C104.053 74.6524 104.383 74.2761 104.383 73.5705V71.3596H105.606V73.4293C105.653 73.8057 105.559 74.229 105.371 74.6054H106.594C107.205 74.6054 107.534 74.229 107.534 73.5234V71.3125H108.757V73.3823C108.757 73.8057 108.663 74.229 108.475 74.6054H110.31V75.7343H99.3493L99.2082 75.8284ZM116.143 74.4172C116.143 75.6873 115.155 76.6281 113.744 76.6281C112.991 76.6751 112.285 76.3458 111.815 75.7343H109.886V74.6054H111.345V74.3231C111.345 73.053 112.38 72.1122 113.791 72.1122C115.061 72.1593 116.096 73.1471 116.143 74.4172ZM114.92 74.4172C114.967 73.7586 114.449 73.1471 113.791 73.1471H113.744C113.132 73.1471 112.615 73.6175 112.568 74.2761C112.568 74.3231 112.568 74.3701 112.568 74.4172C112.521 75.0758 113.038 75.6873 113.697 75.6873C113.744 75.6873 113.744 75.6873 113.791 75.6873C114.402 75.6873 114.92 75.1698 114.92 74.5583C114.92 74.5113 114.92 74.4642 114.92 74.4172ZM100.619 87.7296H101.607V81.191H100.619V87.7296ZM104.618 87.7296H105.606V81.8966H107.864V81.144H102.407V81.8966H104.618V87.7296ZM111.627 85.6598L112.427 87.7296H113.461L110.968 81.191H109.792L107.299 87.7296H108.287L109.087 85.6598H111.627ZM109.181 85.0013L109.933 83.1197C110.075 82.7433 110.216 82.32 110.31 81.8966C110.404 82.2729 110.545 82.6963 110.686 83.1197L111.439 85.0013H109.181ZM114.496 87.7296H118.589V87.024H115.39V81.238H114.449L114.496 87.7296Z" fill="#6B7688"/>
</svg>
