<svg width="120" height="120" viewBox="0 0 120 120" fill="none" xmlns="http://www.w3.org/2000/svg">
<path d="M76.3935 32.5996V60.5416H64.3982V58.0014H73.9004V35.0927H55.2253V58.0014H59.7412V60.5416H52.7322V32.5996H76.3935Z" fill="#6B7688"/>
<path d="M51.6504 32.5996V35.0927H46.0996V49.0637H43.6064V32.5996H51.6504Z" fill="#6B7688"/>
<path d="M76.3936 61.623V65.3863H64.4453V62.8931H73.9004V61.623H76.3936Z" fill="#6B7688"/>
<path d="M63.3164 50.1914V65.3855H43.6064V50.1914H51.6504V52.7316H46.1466V62.8923H60.8232V52.7316H56.3073V50.1914H63.3164Z" fill="#6B7688"/>
<path d="M117.648 86.4609H116.99V87.3547H117.648V86.4609Z" fill="#6B7688"/>
<path d="M114.59 82.5098C113.32 82.5098 112.756 83.6387 112.756 84.9559C112.756 86.273 113.32 87.402 114.59 87.402C115.861 87.402 116.425 86.226 116.425 84.9559C116.425 83.6858 115.813 82.5098 114.59 82.5098ZM114.59 86.6493C113.791 86.6493 113.461 85.8496 113.461 84.9559C113.461 84.0621 113.744 83.2624 114.59 83.2624C115.437 83.2624 115.719 84.0621 115.719 84.9559C115.719 85.8496 115.39 86.6493 114.59 86.6493Z" fill="#6B7688"/>
<path d="M110.78 86.6021C109.98 86.6021 109.604 85.8965 109.604 84.9557C109.604 84.0149 109.933 83.3563 110.733 83.3563C111.251 83.3093 111.721 83.7327 111.768 84.2501L112.427 83.9208C112.144 83.027 111.533 82.5566 110.78 82.5566C109.557 82.5566 108.946 83.7326 108.946 85.0027C108.946 86.2728 109.51 87.4488 110.78 87.4488C111.533 87.4488 112.144 86.9784 112.427 86.0847L111.815 85.7554C111.58 86.3669 111.298 86.6021 110.78 86.6021Z" fill="#6B7688"/>
<path d="M105.512 85.4733H106.358C106.358 86.226 105.935 86.6493 105.324 86.6493C104.524 86.6493 104.148 85.8967 104.148 84.9559C104.148 84.0151 104.477 83.2624 105.276 83.2624C105.794 83.2624 106.264 83.6858 106.311 84.2032L106.923 83.8739C106.641 82.9802 106.029 82.5098 105.276 82.5098C104.006 82.5098 103.442 83.6858 103.442 84.9559C103.442 86.226 104.006 87.402 105.276 87.402C105.747 87.402 106.217 87.1197 106.405 86.6493L106.452 87.3079H106.97V84.7207H105.465V85.4733H105.512Z" fill="#6B7688"/>
<path d="M102.125 85.8965L100.525 82.5566H99.8667V87.3548H100.525V83.9679L102.078 87.3548H102.783V82.5566H102.125V85.8965Z" fill="#6B7688"/>
<path d="M98.8789 82.5566H98.1733V87.3077H98.8789V82.5566Z" fill="#6B7688"/>
<path d="M97.3266 84.0147C97.3736 83.3091 96.8562 82.6506 96.1505 82.6035C96.1035 82.6035 96.0565 82.6035 96.0094 82.6035H94.7864V87.3546H95.4449V85.3319H95.9153L96.8562 87.3546H97.6088L96.5269 85.2378C97.0443 85.0026 97.3266 84.5322 97.3266 84.0147ZM96.0565 84.6262H95.4449V83.3562H96.0094C96.3387 83.3562 96.6209 83.5914 96.6209 83.9206C96.6209 83.9677 96.6209 83.9677 96.6209 84.0147C96.668 84.297 96.4328 84.5792 96.0565 84.6262Z" fill="#6B7688"/>
<path d="M93.187 85.4259C93.187 86.1786 93.0459 86.6019 92.4343 86.6019C91.8228 86.6019 91.6817 86.1786 91.6817 85.4259V82.6035H90.9761V85.52C90.9761 86.696 91.3994 87.4487 92.4343 87.4487C93.4692 87.4487 93.8926 86.696 93.8926 85.473V82.6035H93.187V85.4259Z" fill="#6B7688"/>
<path d="M87.448 83.3563H88.624V87.3548H89.3296V83.3563H90.5056V82.5566H87.448V83.3563Z" fill="#6B7688"/>
<path d="M85.6605 86.6021C84.8608 86.6021 84.4845 85.8965 84.4845 84.9557C84.4845 84.0149 84.8138 83.3563 85.6135 83.3563C86.1309 83.3093 86.6013 83.7327 86.6484 84.2501L87.3069 83.9208C87.0247 83.027 86.4132 82.5566 85.6605 82.5566C84.4375 82.5566 83.8259 83.7326 83.8259 85.0027C83.8259 86.2728 84.3904 87.4488 85.6605 87.4488C86.4132 87.4488 87.0247 86.9784 87.3069 86.0847L86.6484 85.7554C86.4602 86.3669 86.1309 86.6021 85.6605 86.6021Z" fill="#6B7688"/>
<path d="M81.7091 82.6035L80.2039 87.3546H80.9565L81.2387 86.3197H82.697L82.9792 87.3546H83.7319L82.2266 82.6035H81.7091ZM81.4739 85.5671L81.9914 83.8266L82.5088 85.5671H81.4739Z" fill="#6B7688"/>
<path d="M78.3223 83.3563H80.345V82.5566H77.6167V87.3548H78.3223V85.332H80.1098V84.5794H78.3223V83.3563Z" fill="#6B7688"/>
<path d="M76.0642 85.4259C76.0642 86.1786 75.9231 86.6019 75.3115 86.6019C74.7 86.6019 74.5589 86.1786 74.5589 85.4259V82.6035H73.8533V85.52C73.8533 86.696 74.2766 87.4487 75.3115 87.4487C76.3464 87.4487 76.7698 86.696 76.7698 85.473V82.6035H76.0642V85.4259Z" fill="#6B7688"/>
<path d="M72.3012 85.8965L70.7018 82.5566H70.0432V87.3548H70.6547V83.9679L72.2541 87.3548H72.9597V82.5566H72.3012V85.8965Z" fill="#6B7688"/>
<path d="M67.456 82.6035L65.9507 87.3546H66.7033L66.9856 86.3197H68.4438L68.7261 87.3546H69.4787L67.9734 82.6035H67.456ZM67.2208 85.5671L67.7382 83.8266L68.2557 85.5671H67.2208Z" fill="#6B7688"/>
<path d="M63.5046 85.9435L62.5167 82.5566H61.5759V87.3548H62.2345V83.7797L63.1753 86.9314H63.8339L64.7747 83.7797V87.3548H65.4332V82.5566H64.4924L63.5046 85.9435Z" fill="#6B7688"/>
<path d="M59.412 84.0147C59.459 83.3091 58.9416 82.6506 58.236 82.6035C58.189 82.6035 58.1419 82.6035 58.0949 82.6035H56.8718V87.3546H57.5304V85.3319H58.0008L58.9416 87.3546H59.6942L58.6594 85.2378C59.1298 85.0026 59.412 84.5322 59.412 84.0147ZM58.1419 84.6262H57.5304V83.3562H58.0478C58.3771 83.3562 58.6594 83.5914 58.7064 83.9206C58.7064 83.9677 58.7064 83.9677 58.7064 84.0147C58.7064 84.297 58.4712 84.5792 58.1419 84.6262Z" fill="#6B7688"/>
<path d="M54.3316 82.5098C53.0616 82.5098 52.4971 83.6387 52.4971 84.9559C52.4971 86.273 53.0616 87.402 54.3316 87.402C55.6017 87.402 56.1662 86.226 56.1662 84.9559C56.1662 83.6858 55.5547 82.5098 54.3316 82.5098ZM54.3316 86.6493C53.532 86.6493 53.2027 85.8496 53.2027 84.9559C53.2027 84.0621 53.4849 83.2624 54.3316 83.2624C55.1784 83.2624 55.4606 84.0621 55.4606 84.9559C55.4606 85.8496 55.1313 86.6493 54.3316 86.6493Z" fill="#6B7688"/>
<path d="M49.4395 87.3548H50.1451V85.332H51.8856V84.5794H50.1451V83.3563H52.1678V82.5566H49.4395V87.3548Z" fill="#6B7688"/>
<path d="M46.4758 84.5794H44.7823V82.5566H44.1238V87.3548H44.7823V85.332H46.4758V87.3548H47.1344V82.5566H46.4758V84.5794Z" fill="#6B7688"/>
<path d="M40.5017 83.3563H41.7248V87.3548H42.3833V83.3563H43.5593V82.5566H40.5017V83.3563Z" fill="#6B7688"/>
<path d="M38.7612 82.6035L37.2559 87.3546H38.0085L38.2907 86.3197H39.749L40.0312 87.3546H40.7839L39.2786 82.6035H38.7612ZM38.526 85.5671L39.0434 83.8266L39.5608 85.5671H38.526Z" fill="#6B7688"/>
<path d="M35.4684 82.5566H34.8098V87.3548H37.1148V86.508H35.4684V82.5566Z" fill="#6B7688"/>
<path d="M32.2696 82.5098C30.9995 82.5098 30.4351 83.6387 30.4351 84.9559C30.4351 86.273 30.9995 87.402 32.2696 87.402C33.5397 87.402 34.1042 86.226 34.1042 84.9559C34.1042 83.6858 33.5397 82.5098 32.2696 82.5098ZM32.2696 86.6493C31.4699 86.6493 31.1407 85.8496 31.1407 84.9559C31.1407 84.0621 31.4229 83.2624 32.2696 83.2624C33.1164 83.2624 33.3986 84.0621 33.3986 84.9559C33.3986 85.8496 33.0693 86.6493 32.2696 86.6493Z" fill="#6B7688"/>
<path d="M27.4246 87.3548H28.0831V85.332H29.8707V84.5794H28.0831V83.3563H30.1059V82.5566H27.4246V87.3548Z" fill="#6B7688"/>
<path d="M26.5308 85.002H24.9785V85.6135H26.5308V85.002Z" fill="#6B7688"/>
<path d="M23.0028 82.5566H22.3442V87.3548H24.6492V86.508H23.0028V82.5566Z" fill="#6B7688"/>
<path d="M19.8041 82.6035L18.2988 87.3546H19.0515L19.3337 86.3197H20.792L21.0742 87.3546H21.8269L20.3216 82.6035H19.8041ZM19.5219 85.5671L20.0393 83.8266L20.5568 85.5671H19.5219Z" fill="#6B7688"/>
<path d="M16.4171 82.5566H15.7585V87.3077H16.4171V82.5566Z" fill="#6B7688"/>
<path d="M13.2184 82.6035L11.7131 87.3546H12.4658L12.748 86.3197H14.2063L14.4885 87.3546H15.2412L13.7359 82.6035H13.2184ZM12.9362 85.5671L13.4536 83.8266L13.9711 85.5671H12.9362Z" fill="#6B7688"/>
<path d="M9.92558 82.5566H9.21997V87.3548H11.5249V86.508H9.92558V82.5566Z" fill="#6B7688"/>
<path d="M6.67985 82.6035L5.17456 87.3546H5.92721L6.25649 86.3197H7.71474L7.99698 87.3546H8.74963L7.24434 82.6035H6.67985ZM6.44465 85.5671L6.9621 83.8266L7.47954 85.5671H6.44465Z" fill="#6B7688"/>
<path d="M5.45679 82.5566H2.39917V83.3563H3.57518V87.3548H4.23374V83.3563H5.45679V82.5566Z" fill="#6B7688"/>
<path d="M116.237 71.1245C116.237 71.3127 116.378 71.5009 116.566 71.5479C116.801 71.5009 116.942 71.2657 116.895 71.0305C116.848 70.8893 116.754 70.7482 116.566 70.7012C116.378 70.7482 116.237 70.8893 116.237 71.1245Z" fill="#6B7688"/>
<path d="M115.813 71.501C116.049 71.454 116.19 71.2188 116.143 70.9836C116.096 70.8425 116.002 70.7013 115.813 70.6543C115.578 70.7013 115.437 70.9365 115.484 71.1717C115.531 71.3599 115.625 71.501 115.813 71.501Z" fill="#6B7688"/>
<path d="M116.19 70.7022C116.378 70.7022 116.519 70.514 116.519 70.2788C116.519 70.0436 116.378 69.8555 116.19 69.8555C115.954 69.9025 115.813 70.1377 115.86 70.3729C115.907 70.5611 116.048 70.6552 116.19 70.7022Z" fill="#6B7688"/>
<path d="M116.99 71.9727V74.701H116.472V72.1138H115.861V74.701H115.343V72.3019H114.779V74.701H100.337V72.349H99.7257V75.924C99.7257 76.1592 99.6316 76.3944 99.3964 76.3944H99.2083V77.1941H99.3964C99.9609 77.1941 100.337 76.5826 100.337 75.924V75.4536H117.131C117.46 75.4536 117.648 75.2184 117.648 74.8421V71.9727H116.99Z" fill="#6B7688"/>
<path d="M97.1854 72.1599H96.715L98.0792 70.1372V69.9961H97.4206L95.9623 72.207V72.9596H97.1854C97.7028 73.0067 98.0321 73.4771 97.9851 73.9945V74.7942H95.539C95.3038 74.7472 95.1627 74.559 95.1627 74.3238V71.9247H94.5511V72.3011C94.363 72.1599 94.1748 72.0659 93.9396 72.0659C93.234 72.0659 92.7166 72.8185 92.7166 73.7123V74.0416C92.7166 74.9353 93.234 75.5939 93.9396 75.5939C94.3159 75.5939 94.6452 75.4057 94.8334 75.1235C94.9275 75.4057 95.2097 75.5939 95.539 75.5939H98.0792C98.4084 75.5939 98.5966 75.3587 98.5966 74.9824V74.0416C98.5966 72.9596 97.938 72.1599 97.1854 72.1599ZM94.5511 73.9475C94.5511 74.3708 94.3159 74.7001 93.9396 74.7001C93.5633 74.7001 93.3281 74.3708 93.3281 73.9475V73.6182C93.3281 73.1478 93.5633 72.7244 93.9396 72.7244C94.3159 72.7244 94.5511 73.1478 94.5511 73.6182V73.9475Z" fill="#6B7688"/>
<path d="M87.0716 71.971H86.8364C86.366 72.018 85.9426 72.3003 85.7074 72.6766V69.666H85.0959V74.6523H80.6271V69.666H79.9685V74.6523H78.228V75.452H79.9685C80.1096 75.452 80.2508 75.3579 80.3448 75.2168C80.3919 75.3579 80.486 75.452 80.6271 75.452H87.9654C88.2947 75.452 88.4828 75.2168 88.4828 74.8405V73.6644C88.4828 72.7707 87.8713 71.971 87.0716 71.971ZM87.8713 74.7464H85.7545V74.4171C85.8015 73.6644 86.366 72.7707 86.9305 72.7707H87.1657C87.6361 72.8177 87.9654 73.2881 87.9183 73.7585L87.8713 74.7464Z" fill="#6B7688"/>
<path d="M79.3571 70.5137H78.7456V74.418H79.3571V70.5137Z" fill="#6B7688"/>
<path d="M76.864 70.889C76.864 70.795 76.9111 70.7009 77.0522 70.6538C77.0992 70.6538 77.1933 70.7009 77.2874 70.795L77.4285 70.4657C77.3345 70.3245 77.1933 70.2305 77.0522 70.2305C76.7229 70.2775 76.4877 70.5597 76.5348 70.889C76.5348 70.9831 76.5348 71.0302 76.5818 71.1242H76.2996V71.5476H77.4756V71.1242H77.0522C76.9111 71.0772 76.864 70.9831 76.864 70.889Z" fill="#6B7688"/>
<path d="M76.6287 74.7465H68.9141C68.7259 74.7465 68.6319 74.6054 68.6319 74.3702C68.6319 74.135 68.7259 74.0409 68.9141 74.0409C69.0082 74.0409 69.1023 74.135 69.1493 74.2291L69.5256 73.3823C69.4786 72.5826 68.773 71.9241 67.9733 71.9711C67.2206 72.0182 66.6091 72.6297 66.5621 73.3823L66.9384 74.2291C67.0325 74.0879 67.1266 74.0409 67.2206 74.0409C67.4088 74.0879 67.5029 74.2291 67.5029 74.4172C67.5029 74.8406 66.5621 74.9817 66.5621 76.1107C66.515 76.7692 66.9854 77.3337 67.597 77.4278C67.7851 77.4278 67.9733 77.3337 68.1615 77.2396L67.8792 76.534C67.7851 76.5811 67.691 76.6281 67.597 76.6281C67.3147 76.6281 67.1266 76.3929 67.1736 76.1107V76.0636C67.1736 75.4521 67.8792 75.4051 68.0203 74.7465H68.0674C68.1144 75.1699 68.4907 75.4992 68.9141 75.4992H76.6758C77.005 75.4992 77.1932 75.2639 77.1932 74.8876V71.9711H76.5817L76.6287 74.7465ZM68.1144 74.0409C68.0674 73.6646 67.7381 73.3353 67.3618 73.2883C67.5029 73.006 67.7851 72.8179 68.1144 72.8179C68.4437 72.8179 68.7259 73.006 68.8671 73.2883C68.4907 73.3353 68.2085 73.6175 68.1144 74.0409Z" fill="#6B7688"/>
<path d="M62.5165 69.7129H61.905V75.4989H62.5165V69.7129Z" fill="#6B7688"/>
<path d="M60.1646 74.7478H58.0007C58.0948 74.5126 58.1418 74.2304 58.1418 73.9952V73.6659C58.1418 72.7721 57.6244 72.0195 56.9188 72.0195C56.2132 72.0195 55.6957 72.7721 55.6957 73.6659V73.9952C55.6957 74.2774 55.7428 74.5126 55.8368 74.7478H46.3347V73.6659C46.3347 72.7721 45.7702 72.0195 45.0646 72.0195C44.359 72.0195 43.8416 72.7721 43.8416 73.6659V73.9952C43.8416 75.1242 44.5942 75.5475 45.4409 75.5475H45.7232V75.5946C45.7232 76.112 45.2998 76.5354 44.7824 76.5824H44.1708V77.3821H44.7824C45.6761 77.288 46.3817 76.4883 46.3347 75.5946H60.2586C60.5879 75.5946 60.7761 75.3594 60.7761 74.983V69.8086H60.1646V74.7478ZM45.7232 74.7478H45.0646C44.6883 74.7478 44.4531 74.4186 44.4531 73.9952V73.6659C44.4531 73.1955 44.7353 72.7721 45.0646 72.7721C45.3939 72.7721 45.7232 73.1955 45.7232 73.6659V74.7478ZM57.5303 73.9481C57.5303 74.3715 57.2481 74.7008 56.9188 74.7008C56.5895 74.7008 56.3073 74.3715 56.3073 73.9481V73.6189C56.3073 73.1485 56.5895 72.7251 56.9188 72.7251C57.2481 72.7251 57.5303 73.1485 57.5303 73.6189V73.9481Z" fill="#6B7688"/>
<path d="M56.9189 71.5022C57.1541 71.5493 57.3893 71.4081 57.4363 71.1729C57.4834 70.9377 57.3422 70.7025 57.107 70.6555C56.8718 70.6085 56.6366 70.7496 56.5896 70.9848C56.5896 71.0318 56.5896 71.0318 56.5896 71.0789C56.5896 71.3141 56.7307 71.5022 56.9189 71.5022Z" fill="#6B7688"/>
<path d="M41.4426 70.5137H40.8311V74.418H41.4426V70.5137Z" fill="#6B7688"/>
<path d="M42.1011 74.748H40.3606V75.5477H42.2422C42.5715 75.5477 42.7126 75.3125 42.7126 74.9362V69.7617H42.1011V74.748Z" fill="#6B7688"/>
<path d="M38.0556 71.5022C38.2908 71.5493 38.526 71.4081 38.573 71.1729C38.6201 70.9377 38.479 70.7025 38.2438 70.6555C38.0086 70.6085 37.7734 70.7496 37.7263 70.9848C37.7263 71.0318 37.7263 71.0318 37.7263 71.0789C37.7263 71.3141 37.8674 71.5022 38.0556 71.5022Z" fill="#6B7688"/>
<path d="M37.9616 71.9727C37.7264 71.9727 37.4912 72.0667 37.3031 72.2079L37.6323 72.9135C37.7264 72.8194 37.8676 72.7723 38.0087 72.7723C38.4791 72.8194 38.8084 73.2427 38.7613 73.7131V74.701H37.209V75.5007H38.8554C39.1847 75.5007 39.3728 75.2655 39.3728 74.8892V73.7131C39.3728 72.8194 38.7143 71.9727 37.9616 71.9727Z" fill="#6B7688"/>
<path d="M32.4579 74.7462H30.4822V69.7599H29.8707V74.7462H21.6386V73.7584C21.6386 72.8176 21.0271 72.0179 20.2274 72.0179H20.0393C19.5218 72.0649 19.0985 72.3942 18.8162 72.8176L18.7692 72.159H18.2517V74.7462H11.1016V71.9708H10.4901V74.6992H9.54927V69.7129H8.93774V74.8873C8.93774 75.3107 9.07887 75.4989 9.40815 75.4989H32.5991C32.9283 75.4989 33.1165 75.2637 33.1165 74.8873V69.7129H32.4579V74.7462ZM21.0271 74.7462H18.8633V74.4169C18.8633 73.6643 19.4748 72.8176 19.9922 72.8176H20.2274C20.6978 72.8646 21.0271 73.335 20.9801 73.8054V74.7462H21.0271Z" fill="#6B7688"/>
<path d="M10.7722 71.5022C11.0074 71.5493 11.2426 71.4081 11.2896 71.1729C11.3366 70.9377 11.1955 70.7025 10.9603 70.6555C10.7251 70.6085 10.4899 70.7496 10.4429 70.9848C10.4429 71.0318 10.4429 71.0318 10.4429 71.0789C10.4429 71.3141 10.584 71.5022 10.7722 71.5022Z" fill="#6B7688"/>
<path d="M6.86801 72.7709C7.15025 72.8179 7.38545 72.9591 7.52657 73.1943L7.85585 72.4886C7.62065 72.2064 7.24433 72.0182 6.86801 71.9712C6.1624 71.9712 5.64496 72.7709 5.64496 73.6176V73.9469C5.64496 74.2291 5.692 74.4643 5.78608 74.6995H5.22159C4.98639 74.6525 4.84527 74.4643 4.89231 74.2291V71.8301H4.23374V72.2064C4.04558 72.0653 3.85742 71.9712 3.62222 71.9712C2.91661 71.9712 2.39917 72.7238 2.39917 73.6176V73.9469C2.39917 74.8407 2.91661 75.4992 3.62222 75.4992C3.99854 75.4992 4.32783 75.3111 4.51599 75.0288C4.61007 75.3111 4.89231 75.4992 5.22159 75.4992H7.76177V74.6995H6.82097C6.44464 74.6525 6.1624 74.3232 6.20944 73.9469C6.20944 73.9469 6.20944 73.9469 6.20944 73.8999V73.5706C6.20944 73.1942 6.49168 72.7709 6.86801 72.7709ZM4.23374 73.9469C4.28079 74.3232 3.99854 74.6525 3.62222 74.6995C3.62222 74.6995 3.62222 74.6995 3.57518 74.6995C3.2459 74.6995 2.96365 74.3703 2.96365 73.9469V73.6176C2.96365 73.1472 3.2459 72.7238 3.57518 72.7238C3.90446 72.7238 4.1867 73.1472 4.1867 73.6176V73.9469H4.23374Z" fill="#6B7688"/>
<path d="M4.04557 71.501C4.28077 71.454 4.42189 71.2188 4.37485 70.9836C4.32781 70.8425 4.23373 70.7013 4.04557 70.6543C3.81037 70.7013 3.66925 70.9365 3.71629 71.1717C3.76333 71.3599 3.85741 71.501 4.04557 71.501Z" fill="#6B7688"/>
<path d="M3.19865 71.501C3.43385 71.454 3.57497 71.2188 3.52793 70.9836C3.48089 70.8425 3.38681 70.7013 3.19865 70.6543C2.96345 70.7013 2.82232 70.9365 2.86936 71.1717C2.9164 71.3599 3.05753 71.501 3.19865 71.501Z" fill="#6B7688"/>
</svg>
