<svg width="120" height="120" viewBox="0 0 120 120" fill="none" xmlns="http://www.w3.org/2000/svg">
<path fill-rule="evenodd" clip-rule="evenodd" d="M27.0482 67.5038V68.0682C26.766 68.0682 26.4837 68.0212 26.2485 67.9742C26.2015 67.9742 26.1545 67.9742 26.1074 67.9271V66.3748C26.3426 66.61 26.6719 66.7982 26.9541 66.9863C26.9541 66.9393 26.9541 66.8922 26.9071 66.8452C26.9071 66.8452 26.4367 66.4689 26.1074 66.1866V64.8225C26.3897 65.0577 26.6719 65.2458 26.9541 65.434C26.9541 65.3869 26.9541 65.3399 26.9071 65.2929C26.9071 65.2929 26.4367 64.9165 26.1074 64.6343V61.5767C26.3426 61.8119 26.6719 62 26.9541 62.1882C26.9541 62.1412 26.9541 62.0941 26.9071 62.0471C26.9071 62.0471 26.4367 61.6708 26.1074 61.3885V60.0243C26.3426 60.2595 26.6719 60.4477 26.9541 60.6359C26.9541 60.5888 26.9541 60.5418 26.9071 60.4947C26.6719 60.2595 26.3897 60.0714 26.1074 59.8362V58.5191C26.3426 58.7543 26.6719 58.9424 26.9541 59.1306C26.9541 59.0835 26.9541 59.0365 26.9071 58.9895C26.9071 58.9895 26.4367 58.6131 26.1074 58.3309V56.8256C26.3426 57.0608 26.6719 57.249 26.9541 57.4371C26.9541 57.3901 26.9541 57.343 26.9071 57.296C26.9071 57.296 26.4367 56.9197 26.1074 56.6374V55.2733C26.3426 55.5085 26.6719 55.6966 26.9541 55.8848C26.9541 55.8378 26.9541 55.7907 26.9071 55.7437C26.9071 55.7437 26.4367 55.3673 26.1074 55.0851V52.2156C26.3426 52.4508 26.6719 52.639 26.9541 52.8272C26.9541 52.7801 26.9541 52.7331 26.9071 52.686C26.9071 52.686 26.4367 52.3097 26.1074 52.0275V50.6633C26.3426 50.8985 26.6719 51.0867 26.9541 51.2748C26.9541 51.2278 26.9541 51.1808 26.9071 51.1337C26.9071 51.1337 26.4367 50.7574 26.1074 50.4752V49.158C26.3426 49.3932 26.6719 49.5814 26.9541 49.7695C26.9541 49.7225 26.9541 49.6755 26.9071 49.6284C26.9071 49.6284 26.4367 49.2521 26.1074 48.9699V47.5116C26.3426 47.7468 26.6719 47.935 26.9541 48.1231C26.9541 48.0761 26.9541 48.029 26.9071 47.982C26.9071 47.982 26.4367 47.6057 26.1074 47.3234V45.9593C26.3426 46.1945 26.6719 46.3826 26.9541 46.5708C26.9541 46.5238 26.9541 46.4767 26.9071 46.4297C26.9071 46.4297 26.4367 46.0534 26.1074 45.7711V44.454C26.3897 44.6892 26.6719 44.8773 26.9541 45.0655C26.9541 45.0185 26.9541 44.9714 26.9071 44.9244C26.9071 44.9244 26.4367 44.5481 26.1074 44.2658V43.7954C26.1074 43.7013 26.4837 43.6543 27.0482 43.6543V67.5038Z" fill="#6B7688"/>
<path fill-rule="evenodd" clip-rule="evenodd" d="M27.4246 67.4558L27.3306 43.6533V43.3711H28.2243C28.3654 43.3711 28.5066 43.3711 28.6477 43.4181C28.6947 43.4181 28.7888 43.4181 28.8359 43.4652C28.8829 43.4652 28.9299 43.4652 28.9299 43.5122C28.9299 43.5593 28.977 43.5593 29.024 43.5593V43.6533C28.6007 43.8885 27.4246 44.7353 27.3776 44.7353C27.3306 44.7353 27.3306 44.9234 27.3306 44.9234C27.5658 45.0175 28.7418 44.1708 28.977 43.8415V45.1586C28.5536 45.3938 27.3306 46.2406 27.3306 46.2406C27.2365 46.2876 27.2835 46.4287 27.2835 46.4287C27.5187 46.5228 28.6947 45.6761 28.9299 45.3468V46.711C28.5066 46.9462 27.3306 47.7929 27.2835 47.7929C27.2365 47.7929 27.2365 48.0281 27.2365 47.9811C27.4717 48.0751 28.6477 47.1814 28.8829 46.8991V48.4044C28.4595 48.6396 27.2835 49.4863 27.2365 49.4863C27.1894 49.4863 27.1894 49.6745 27.1894 49.6745C27.4246 49.7686 28.6006 48.8748 28.8359 48.5926V49.9097C28.4125 50.1449 27.2365 50.9916 27.1894 50.9916C27.1424 50.9916 27.1424 51.1798 27.1424 51.1798C27.3776 51.2739 28.5536 50.4272 28.7888 50.0979V51.462C28.3654 51.6972 27.1894 52.544 27.1424 52.544C27.0954 52.544 27.0954 52.7792 27.0954 52.7321C27.3306 52.8262 28.5066 51.9324 28.7418 51.6502V54.6137C28.3184 54.8489 27.1424 55.6957 27.0954 55.6957C27.0483 55.6957 27.0483 55.8838 27.0483 55.8838C27.2835 55.9779 28.4595 55.1312 28.6947 54.8019V56.1661C28.2714 56.4013 27.0954 57.248 27.0483 57.248C27.0013 57.248 27.0013 57.4832 27.0013 57.4362C27.2365 57.5302 28.4125 56.6365 28.6477 56.3542V57.8595C28.2243 58.0947 27.0483 58.9415 27.0013 58.9415C26.9542 58.9415 26.9542 59.1767 26.9542 59.1296C27.1894 59.2237 28.3654 58.3299 28.6006 58.0477V59.3648C28.1773 59.6 27.0013 60.4468 26.9542 60.4468C26.9072 60.4468 26.9072 60.6349 26.9072 60.6349C27.1424 60.729 28.3184 59.8823 28.5536 59.553V60.9172C28.1302 61.1524 26.9542 61.9991 26.9072 61.9991C26.8602 61.9991 26.8602 62.2343 26.8602 62.1872C27.0954 62.2813 28.2714 61.3876 28.5066 61.1053V62.7047C28.0832 62.9399 26.8602 63.7866 26.8602 63.7866C26.7661 63.8337 26.8131 63.9748 26.8131 63.9748C27.0483 64.0689 28.2243 63.2221 28.4595 62.8928V64.257C28.0362 64.4922 26.8602 65.3389 26.8131 65.3389C26.7661 65.3389 26.7661 65.5271 26.7661 65.5271C27.0013 65.6212 28.1773 64.7745 28.4125 64.4452V65.8094C27.9891 66.0446 26.7661 66.8913 26.7661 66.8913C26.672 66.9383 26.719 67.1265 26.719 67.0794C26.9542 67.1735 28.1302 66.2798 28.3654 65.9975V67.8791C28.2714 68.0203 27.6128 68.1143 26.719 68.1143H27.2835V67.691L27.4246 67.4558Z" fill="#6B7688"/>
<path fill-rule="evenodd" clip-rule="evenodd" d="M26.9542 43.654V43.4188C26.625 43.3718 26.2957 43.4188 26.0134 43.5599V44.0303C26.2957 44.2185 26.5779 44.4537 26.8131 44.6889C26.8602 44.7359 26.8602 44.783 26.8602 44.83C26.7661 44.877 26.3427 44.5478 26.0134 44.2185V45.5356C26.3427 45.7708 26.8131 46.1942 26.8131 46.1942C26.8602 46.2412 26.8602 46.2883 26.8602 46.3353C26.7661 46.3823 26.2957 46.0531 26.0134 45.7238V47.0879C26.2957 47.2761 26.5779 47.5113 26.8131 47.7465C26.8602 47.7935 26.8602 47.8406 26.8602 47.8876C26.7661 47.9347 26.2957 47.6054 26.0134 47.2761V48.7344C26.3427 48.9696 26.8131 49.3929 26.8131 49.3929C26.8602 49.44 26.8602 49.487 26.8602 49.534C26.7661 49.5811 26.2957 49.2518 26.0134 48.9225V50.2397C26.2957 50.4278 26.5779 50.663 26.8131 50.8982C26.8602 50.9453 26.8602 50.9923 26.8602 51.0393C26.7661 51.0864 26.2957 50.7571 26.0134 50.4278V51.792C26.3427 52.0272 26.8131 52.4505 26.8131 52.4505C26.8602 52.4976 26.8602 52.5446 26.8602 52.5917C26.7661 52.6387 26.2957 52.3094 26.0134 51.9801V54.9437C26.3427 55.1789 26.8131 55.6023 26.8131 55.6023C26.8602 55.6493 26.8602 55.6963 26.8602 55.7434C26.7661 55.7904 26.2957 55.4611 26.0134 55.1318V56.496C26.2957 56.6842 26.5779 56.9194 26.8131 57.1546C26.8602 57.2016 26.8602 57.2487 26.8602 57.2957C26.7661 57.3427 26.2957 57.0135 26.0134 56.6842V58.1895C26.3427 58.4247 26.8131 58.848 26.8131 58.848C26.8602 58.8951 26.8602 58.9421 26.8602 58.9892C26.7661 59.0362 26.2957 58.7069 26.0134 58.3776V59.6948C26.2957 59.8829 26.5779 60.1181 26.8131 60.3533C26.8602 60.4004 26.8602 60.4474 26.8602 60.4945C26.7661 60.5415 26.2957 60.2122 26.0134 59.8829V61.2471C26.2957 61.4353 26.5779 61.6705 26.8131 61.9057C26.8602 61.9527 26.8602 61.9997 26.8602 62.0468C26.7661 62.0938 26.2957 61.7645 26.0134 61.4353V64.4929C26.2957 64.681 26.5779 64.9162 26.8131 65.1514C26.8602 65.1985 26.8602 65.2455 26.8602 65.2926C26.7661 65.3396 26.3427 65.0103 26.0134 64.681V66.0452C26.3427 66.2804 26.8131 66.7038 26.8131 66.7038C26.8602 66.7508 26.8602 66.7979 26.8602 66.8449C26.7661 66.8919 26.2957 66.5627 26.0134 66.2334V67.7857C26.0605 67.7857 26.1075 67.8328 26.1545 67.8328C26.4368 67.8798 26.672 67.9268 26.9542 67.9268V43.654ZM29.1181 65.9041C28.8829 66.1863 27.6598 67.0801 27.4717 66.986C27.4717 67.0331 27.4246 66.8449 27.5187 66.7979C27.5187 66.7979 28.6947 65.9511 29.1651 65.7159V64.3518C28.9299 64.587 27.7069 65.5278 27.5187 65.4337C27.5187 65.4807 27.4717 65.3396 27.5658 65.2455C28.0832 64.8692 28.6477 64.4929 29.2122 64.1636V62.7994C28.977 63.0346 27.7539 63.9754 27.5658 63.8814C27.5658 63.9284 27.5187 63.7873 27.6128 63.6932C27.6128 63.6932 28.7888 62.8465 29.2592 62.6113V61.0119C29.024 61.2471 27.801 62.1879 27.6128 62.0938C27.6128 62.1409 27.5658 61.9527 27.6598 61.9057C28.1773 61.5293 28.7418 61.153 29.3063 60.8237V59.4596C29.0711 59.6948 27.848 60.6356 27.6598 60.5415C27.6598 60.5885 27.6128 60.4474 27.7069 60.3533C28.2243 59.977 28.7888 59.6007 29.3533 59.2714V57.9072C29.1181 58.1424 27.895 59.0832 27.7069 58.9892C27.7069 59.0362 27.6598 58.848 27.7539 58.801C28.2714 58.4247 28.8359 58.0484 29.4003 57.7191V56.2138C29.1651 56.449 27.9421 57.3898 27.7539 57.2957C27.7539 57.3427 27.7069 57.1546 27.801 57.1075C28.3184 56.7312 28.8829 56.3549 29.4474 56.0256V49.9574C29.2122 50.1926 27.9891 51.1334 27.801 51.0393C27.801 51.0864 27.7539 50.9453 27.848 50.8512C28.3654 50.4749 28.9299 50.0985 29.4944 49.7692V48.4051C29.2592 48.6403 28.0362 49.5811 27.848 49.487C27.848 49.487 27.848 49.3459 27.895 49.2988C28.4125 48.9225 28.977 48.5462 29.5415 48.2169V46.7116C29.3063 46.9468 28.0832 47.8876 27.895 47.7935C27.895 47.8406 27.848 47.6524 27.9421 47.6054C28.4595 47.2291 29.024 46.8527 29.5885 46.5235V45.1122C29.3533 45.3475 28.1302 46.2883 27.9421 46.1942C27.9421 46.1471 27.9421 46.1001 27.9891 46.006C27.9891 46.006 29.1651 45.1593 29.6355 44.9241V43.607C29.4003 43.8422 28.1773 44.783 27.9891 44.6889C27.9891 44.7359 27.9421 44.5948 28.0362 44.5007C28.5536 44.1244 29.1181 43.7481 29.6826 43.4188V43.3718C29.6355 43.3718 29.6355 43.3718 29.5885 43.3247C29.5415 43.3247 29.4944 43.3247 29.4944 43.2777C29.1651 43.2306 28.8829 43.1836 28.5536 43.1836H27.9891V43.4658L28.0832 67.2683V67.8798H28.1773C28.7418 67.9268 29.3063 67.8328 29.8237 67.6446V67.5975L29.1181 65.9041ZM29.0711 54.8026C28.8359 55.0378 27.6128 55.9786 27.4246 55.8845C27.4246 55.9315 27.3776 55.7904 27.4717 55.6963C27.9891 55.32 28.5536 54.9437 29.1181 54.6144L29.0711 54.8026ZM27.4246 52.4976C27.9421 52.1213 28.5066 51.7449 29.0711 51.4157V51.6038C28.8359 51.839 27.6128 52.7798 27.4246 52.6857C27.3776 52.7328 27.3776 52.5446 27.4246 52.4976Z" fill="#6B7688"/>
<path d="M26.0605 55.2254C25.9664 55.0843 25.9194 54.9902 26.0134 54.9902H26.0605" fill="#6B7688"/>
<path fill-rule="evenodd" clip-rule="evenodd" d="M26.9071 63.8331C26.9071 63.786 26.9071 63.739 26.8601 63.6919C26.8601 63.6919 26.3897 63.3156 26.0134 62.9863H25.9663C25.8722 62.9863 25.8722 63.0334 25.9663 63.1745C26.2956 63.5038 26.813 63.8801 26.9071 63.8331Z" fill="#6B7688"/>
<path fill-rule="evenodd" clip-rule="evenodd" d="M26.2015 67.9263C26.1545 67.9263 26.1074 67.9263 26.0604 67.8792V68.0204C26.0133 68.0204 26.0133 68.0204 26.0133 67.9733C25.9663 67.9263 25.9663 67.8792 25.9663 67.8322C25.9663 67.7852 25.9663 67.7852 26.0604 67.7852H26.1074C26.1074 67.8792 26.1545 67.9263 26.2015 67.9263Z" fill="#6B7688"/>
<path fill-rule="evenodd" clip-rule="evenodd" d="M29.1651 67.7373C29.024 67.9255 28.4595 68.0196 27.6598 68.0196H27.1894C26.9072 68.0196 26.672 67.9725 26.4368 67.9255C26.3897 67.9255 26.3427 67.9255 26.3427 67.8784C26.2957 67.8784 26.2957 67.8784 26.2486 67.8314L26.1545 67.7373C26.1545 67.6903 26.2486 67.6432 26.3897 67.5962C26.672 67.5021 26.9542 67.4551 27.2365 67.4551H27.6598C28.3654 67.4551 29.024 67.5492 29.1651 67.7373Z" fill="#6B7688"/>
<path fill-rule="evenodd" clip-rule="evenodd" d="M29.0709 43.5122C28.6005 43.6533 28.083 43.7004 27.5656 43.6533H27.0011C26.6718 43.7004 26.3425 43.6533 26.0603 43.5122C26.3425 43.4181 26.6718 43.3711 27.0011 43.3711H27.5656C28.083 43.3711 28.5534 43.4181 29.0709 43.5122Z" fill="#6B7688"/>
<path d="M26.7659 54.2367C26.7188 54.2367 26.6718 54.2837 26.6248 54.3307L26.5307 54.2367C26.4836 54.1896 26.4836 54.1896 26.4836 54.1426V54.2367C26.4836 54.2367 26.4836 54.1896 26.5307 54.2367L26.6248 54.3307V54.3778H26.5307C26.4836 54.3778 26.4836 54.3778 26.4836 54.3307V54.4248C26.4836 54.3778 26.4836 54.3778 26.5307 54.3778H26.6718C26.7188 54.3778 26.7188 54.3778 26.7188 54.4248V54.3307C26.7188 54.3778 26.7188 54.3778 26.6718 54.3778H26.5777C26.6248 54.3307 26.6718 54.2837 26.7659 54.2367Z" fill="#6B7688"/>
<path d="M26.7189 53.9551C26.6719 53.9551 26.6719 54.0021 26.6248 54.0492C26.6248 54.0962 26.6248 54.0962 26.5778 54.0962C26.5308 54.0962 26.5308 54.0962 26.5308 54.0492C26.5308 54.0021 26.5308 54.0021 26.5778 54.0021H26.5308V54.0492C26.5308 54.0962 26.5778 54.1432 26.6248 54.1432C26.6719 54.1432 26.6719 54.0962 26.7189 54.0492C26.6719 54.0492 26.6719 54.0021 26.7189 53.9551C26.766 54.0021 26.766 54.0021 26.766 54.0492C26.766 54.0962 26.7189 54.1432 26.6719 54.1432H26.7189V54.0492C26.7189 54.0492 26.7189 54.0021 26.7189 53.9551Z" fill="#6B7688"/>
<path d="M26.7188 53.8148L26.7659 53.7207C26.7659 53.7677 26.7188 53.7677 26.7188 53.8148C26.6248 53.8148 26.5777 53.8148 26.4836 53.8618L26.7188 53.9559C26.7659 53.9559 26.7659 53.9559 26.7659 54.0029V53.9089C26.7659 53.9559 26.7659 53.9559 26.7188 53.9559H26.6718L26.7188 53.8148ZM26.6718 53.8618C26.6248 53.8618 26.6248 53.8618 26.5777 53.8148L26.6718 53.7677V53.8618Z" fill="#6B7688"/>
<path d="M28.1771 54.6605V54.5664H28.083V54.8486H28.1771V54.7546H28.5534V54.6605H28.1771Z" fill="#6B7688"/>
<path d="M28.4124 54.2368L28.5535 54.1898V54.0957L28.1301 54.1898V54.425L28.1772 54.472H28.2242L28.5535 54.5661V54.472L28.3183 54.425H28.1301V54.3309L28.3183 54.2839V54.425L28.4124 54.3779V54.2368Z" fill="#6B7688"/>
<path d="M28.5535 53.5316V53.4375L28.1301 53.5316V53.7197H28.2242L28.4594 53.7668L28.1772 53.8138V54.002H28.2712L28.6005 54.0961V54.002L28.2712 53.9079L28.6005 53.8609V53.7197L28.2712 53.6727L28.5535 53.5316Z" fill="#6B7688"/>
<path d="M28.4595 53.1094V53.3446H28.3654V53.1564H28.2713V53.3446H28.2243C28.1773 53.3446 28.1773 53.3446 28.1302 53.2975V53.1094L28.0361 53.1564V53.3446C28.0361 53.3916 28.0361 53.3916 28.0832 53.3916C28.1302 53.4387 28.1302 53.4387 28.1773 53.4387H28.4125C28.4595 53.4387 28.4595 53.4387 28.5065 53.3916C28.5536 53.3446 28.5536 53.3446 28.5536 53.2975V53.1094H28.4595Z" fill="#6B7688"/>
<path d="M28.4595 52.7795V52.9676H28.3654V52.7795H28.2713V52.9676H28.2243C28.1773 52.9676 28.1773 52.9676 28.1302 52.9206V52.7324L28.0361 52.7795V52.9676C28.0361 53.0147 28.0361 53.0147 28.0832 53.0147C28.1302 53.0617 28.1302 53.0617 28.1773 53.0617H28.4125C28.4595 53.0617 28.4595 53.0617 28.5065 53.0147C28.5065 53.0147 28.5536 52.9676 28.5536 52.9206V52.7324L28.4595 52.7795Z" fill="#6B7688"/>
<path d="M28.3653 52.4964V52.5905L28.5535 52.4964V52.4023L28.3653 52.4964ZM28.3653 52.6375H28.1301V52.4964H28.2242V52.6375H28.3653L28.3183 52.4964C28.3183 52.4494 28.3183 52.4494 28.2713 52.4494C28.2242 52.4023 28.2242 52.4023 28.1772 52.4023C28.1301 52.4023 28.0831 52.4023 28.0361 52.4494C27.989 52.4964 27.989 52.4964 27.989 52.5435V52.7316H28.4124V52.6375H28.3653Z" fill="#6B7688"/>
<path fill-rule="evenodd" clip-rule="evenodd" d="M22.156 72.1594C22.0149 72.1594 21.9208 72.2064 21.7327 72.2064V71.8301C21.8738 71.9242 22.0149 72.0653 22.156 72.1594Z" fill="#6B7688"/>
<path fill-rule="evenodd" clip-rule="evenodd" d="M22.7205 71.5481V72.1126C22.6264 72.1126 22.4853 72.1597 22.3912 72.1597C22.2031 72.0185 22.0149 71.8304 21.8267 71.7363C21.7797 71.6893 21.7797 71.6893 21.7327 71.6893V70.3251C22.0149 70.5603 22.2972 70.7484 22.5794 70.9366C22.5794 70.8896 22.5794 70.8425 22.5324 70.7955C22.5324 70.7955 22.0619 70.4192 21.7327 70.1369V67.0793C21.9679 67.3145 22.2972 67.5027 22.5794 67.6908C22.5794 67.6438 22.5794 67.5967 22.5324 67.5497C22.5324 67.5497 22.0619 67.1734 21.7327 66.8911V65.527C21.9679 65.7622 22.2972 65.9503 22.5794 66.1385C22.5794 66.0915 22.5794 66.0444 22.5324 65.9974C22.2972 65.7622 22.0149 65.574 21.7327 65.3388V64.0217C21.9679 64.2569 22.2972 64.445 22.5794 64.6332C22.5794 64.5862 22.5794 64.5391 22.5324 64.4921C22.5324 64.4921 22.0619 64.1158 21.7327 63.8335V62.3282C21.9679 62.5634 22.2972 62.7516 22.5794 62.9397C22.5794 62.8927 22.5794 62.8457 22.5324 62.7986C22.5324 62.7986 22.0619 62.4223 21.7327 62.1401V60.7759C21.9679 61.0111 22.2972 61.1992 22.5794 61.3874C22.5794 61.3404 22.5794 61.2933 22.5324 61.2463C22.5324 61.2463 22.0619 60.87 21.7327 60.5877V57.6242C21.9679 57.8594 22.2972 58.0475 22.5794 58.2357C22.5794 58.1887 22.5794 58.1416 22.5324 58.0946C22.5324 58.0946 22.0619 57.7183 21.7327 57.436V56.0718C21.9679 56.307 22.2972 56.4952 22.5794 56.6834C22.5794 56.6363 22.5794 56.5893 22.5324 56.5423C22.5324 56.5423 22.0619 56.1659 21.7327 55.8837V54.3314C21.9679 54.5666 22.2972 54.7547 22.5794 54.9429C22.5794 54.8958 22.5794 54.8488 22.5324 54.8018C22.5324 54.8018 22.0619 54.4254 21.7327 54.1432V52.6849C21.9679 52.9201 22.2972 53.1083 22.5794 53.2965C22.5794 53.2494 22.5794 53.2024 22.5324 53.1553C22.5324 53.1553 22.0619 52.779 21.7327 52.4968V51.2737C21.9679 51.5089 22.2972 51.6971 22.5794 51.8853C22.5794 51.8382 22.5794 51.7912 22.5324 51.7441C22.5324 51.7441 22.0619 51.3678 21.7327 51.0856V49.7684C22.0149 50.0036 22.2972 50.1918 22.5794 50.38C22.5794 50.3329 22.5794 50.2859 22.5324 50.2388C22.5324 50.2388 22.0619 49.8625 21.7327 49.5803V49.1099C21.7327 49.1099 21.7797 49.0628 21.8267 49.0628C21.8738 49.0628 21.9679 49.0158 22.0619 49.0158C22.2501 48.9687 22.4853 48.9688 22.7205 48.9688V49.204L22.7676 68.4435V71.5481H22.7205Z" fill="#6B7688"/>
<path fill-rule="evenodd" clip-rule="evenodd" d="M23.0968 71.4544V68.2556L23.0498 49.1572V48.875H24.3198C24.4139 48.875 24.461 48.875 24.508 48.922C24.555 48.9691 24.6021 48.922 24.6021 48.9691H24.6962V49.0632C24.2728 49.2984 23.0968 50.1451 23.0498 50.1451C23.0027 50.1451 23.0027 50.3333 23.0027 50.3333C23.2379 50.4273 24.4139 49.5806 24.6491 49.2513V50.5685C24.2258 50.8037 23.0027 51.6504 23.0027 51.6504C22.9086 51.6974 22.9557 51.8385 22.9557 51.8385C23.1909 51.9326 24.3669 51.0859 24.6021 50.7566V52.1208C24.1787 52.356 23.0027 53.2027 22.9557 53.2027C22.9086 53.2027 22.9086 53.4379 22.9086 53.3909C23.1438 53.485 24.3198 52.5912 24.555 52.3089V53.8142C24.1317 54.0494 22.9557 54.8962 22.9086 54.8962C22.8616 54.8962 22.8616 55.0843 22.8616 55.0843C23.0968 55.1784 24.2728 54.2846 24.508 54.0024V55.3195C24.0846 55.5547 22.9086 56.4015 22.8616 56.4015C22.8146 56.4015 22.8146 56.5896 22.8146 56.5896C23.0498 56.6837 24.2258 55.837 24.461 55.5077V56.8719C24.0376 57.1071 22.8616 57.9538 22.8146 57.9538C22.7675 57.9538 22.7675 58.189 22.7675 58.142C23.0027 58.236 24.1787 57.3423 24.4139 57.06V60.0236C23.9906 60.2588 22.8146 61.1055 22.7675 61.1055C22.7205 61.1055 22.7205 61.2937 22.7205 61.2937C22.9557 61.3877 24.1317 60.541 24.3669 60.2117V61.5759C23.9435 61.8111 22.7675 62.6578 22.7205 62.6578C22.6734 62.6578 22.6734 62.893 22.6734 62.846C22.9086 62.9401 24.0846 62.0463 24.3198 61.7641V63.2694C23.8965 63.5046 22.7205 64.3513 22.6734 64.3513C22.6264 64.3513 22.6264 64.5865 22.6264 64.5394C22.8616 64.6335 24.0376 63.7398 24.2728 63.4575V64.7746C23.8494 65.0098 22.6734 65.8566 22.6264 65.8566C22.5794 65.8566 22.5794 66.0447 22.5794 66.0447C22.8146 66.1388 23.9906 65.2921 24.2258 64.9628V66.327C23.8024 66.5622 22.6264 67.4089 22.5794 67.4089C22.5323 67.4089 22.5323 67.6441 22.5323 67.5971C22.7675 67.6911 23.9435 66.7974 24.1787 66.5151V68.1145C23.9906 68.2086 23.7554 68.3497 23.5672 68.4908C23.0968 68.7731 22.5794 69.1964 22.5794 69.1964C22.4853 69.2435 22.5323 69.3846 22.5323 69.3846C22.7675 69.4787 23.9435 68.632 24.1787 68.3027V69.6668C23.7554 69.9021 22.5794 70.7488 22.5323 70.7488C22.4853 70.7488 22.4853 70.9369 22.4853 70.9369C22.7205 71.031 23.8965 70.1843 24.1317 69.855V71.2192C23.8965 71.3603 23.4261 71.6425 23.0498 71.9248C22.8146 71.9718 22.6264 72.0189 22.4382 72.0659L23.0968 71.4544Z" fill="#6B7688"/>
<path fill-rule="evenodd" clip-rule="evenodd" d="M24.4141 71.7375C24.5552 71.6434 24.6963 71.5493 24.7904 71.4082V71.6434L24.4141 71.7375Z" fill="#6B7688"/>
<path fill-rule="evenodd" clip-rule="evenodd" d="M24.7903 71.3605C24.6492 71.5016 24.5551 71.5957 24.414 71.6897C24.5551 71.6427 24.6492 71.5957 24.8373 71.5486L24.7903 71.3605ZM24.7903 69.8081C24.5551 70.0433 23.332 70.9841 23.1439 70.8901C23.1439 70.9371 23.0968 70.796 23.1909 70.7019C23.7084 70.3256 24.2729 69.9492 24.8373 69.62V68.2558C24.6021 68.491 23.3791 69.4318 23.1909 69.3377C23.1909 69.3848 23.1439 69.2436 23.238 69.1496C23.238 69.1496 23.7554 68.7732 24.2258 68.444C24.461 68.2558 24.6962 68.1617 24.8373 68.0676V66.4683C24.6021 66.7035 23.3791 67.6443 23.1909 67.5502C23.1909 67.5972 23.1439 67.4091 23.238 67.362C23.7554 66.9857 24.3199 66.6094 24.8844 66.2801V64.9159C24.6492 65.1511 23.4261 66.0919 23.238 65.9979C23.238 66.0449 23.1909 65.9038 23.285 65.8097C23.8024 65.4334 24.3669 65.0571 24.9314 64.7278V63.3636C24.6962 63.5988 23.4732 64.5396 23.285 64.4455C23.285 64.4926 23.238 64.3044 23.332 64.2574C23.8495 63.881 24.414 63.5047 24.9785 63.1754V61.6701C24.7433 61.9053 23.5202 62.8462 23.332 62.7521C23.332 62.7991 23.285 62.611 23.3791 62.5639C23.8965 62.1876 24.461 61.8113 25.0255 61.482V55.5079C24.7903 55.7431 23.5672 56.6839 23.3791 56.5898C23.3791 56.6368 23.332 56.4957 23.4261 56.4016C23.9436 56.0253 24.5081 55.649 25.0725 55.3197V53.9555C24.8373 54.1907 23.6143 55.1315 23.4261 55.0375C23.4261 55.0375 23.4261 54.8963 23.4732 54.8493C23.9906 54.473 24.5551 54.0966 25.1196 53.7674V52.2621C24.8844 52.4973 23.6613 53.4381 23.4732 53.344C23.4732 53.391 23.4261 53.2029 23.5202 53.1558C24.0377 52.7795 24.6021 52.4032 25.1666 52.0739V50.6627C24.9314 50.8979 23.7084 51.8387 23.5202 51.7446C23.5202 51.6976 23.5202 51.6505 23.5672 51.5565C23.5672 51.5565 24.7433 50.7097 25.2137 50.4745V49.1574C24.9785 49.3926 23.7554 50.3334 23.5672 50.2393C23.5672 50.2864 23.5202 50.1453 23.6143 50.0512C24.1317 49.6749 24.6962 49.2985 25.2607 48.9692V48.9222H25.1666C25.1196 48.9222 25.0725 48.9222 25.0725 48.8752C25.0255 48.8752 24.9314 48.8752 24.8844 48.8281H23.5202V49.1104L23.5672 68.2088V71.972C23.8024 71.9249 23.9906 71.8779 24.1788 71.8309C24.5551 71.5957 24.9785 71.2664 25.2607 71.1253V70.8901L24.7903 69.8081ZM24.7433 60.2119C24.5081 60.4471 23.285 61.3879 23.0968 61.2938C23.0968 61.3409 23.0498 61.1997 23.1439 61.1057C23.6613 60.7293 24.2258 60.353 24.7903 60.0237L24.7433 60.2119ZM23.0968 57.954C23.6143 57.5776 24.1788 57.2013 24.7433 56.872V57.0602C24.5081 57.2954 23.285 58.2362 23.0968 58.1421C23.0968 58.048 23.0968 58.001 23.0968 57.954ZM22.6735 68.9614V68.3969L22.6264 49.1574V48.9222H21.9208C21.8268 48.9222 21.7797 48.9692 21.6856 48.9692C21.5916 48.9692 21.5916 49.0163 21.5916 49.0163V49.4867C21.8738 49.6748 22.156 49.9101 22.3912 50.1453C22.4383 50.1923 22.4383 50.2393 22.4383 50.2864C22.3442 50.3334 21.9208 50.0041 21.5916 49.6748V50.992C21.9208 51.2272 22.3912 51.6505 22.3912 51.6505C22.4383 51.6976 22.4383 51.7446 22.4383 51.7917C22.3442 51.8387 21.8738 51.5094 21.5916 51.1801V52.5443C21.8738 52.7325 22.156 52.9677 22.3912 53.2029C22.4383 53.2499 22.4383 53.297 22.4383 53.344C22.3442 53.391 21.8738 53.0618 21.5916 52.7325V54.1907C21.9208 54.4259 22.3912 54.8493 22.3912 54.8493C22.4383 54.8963 22.4383 54.9434 22.4383 54.9904C22.3442 55.0375 21.8738 54.7082 21.5916 54.3789V55.696C21.8738 55.8842 22.156 56.1194 22.3912 56.3546C22.4383 56.4016 22.4383 56.4487 22.4383 56.4957C22.3442 56.5427 21.8738 56.2135 21.5916 55.8842V57.2483C21.9208 57.4836 22.3912 57.9069 22.3912 57.9069C22.4383 57.954 22.4383 58.001 22.4383 58.048C22.3442 58.0951 21.8738 57.7658 21.5916 57.4365V60.4001C21.9208 60.6353 22.3912 61.0586 22.3912 61.0586C22.4383 61.1057 22.4383 61.1527 22.4383 61.1997C22.3442 61.2468 21.8738 60.9175 21.5916 60.5882V61.9524C21.8738 62.1405 22.156 62.3758 22.3912 62.611C22.4383 62.658 22.4383 62.705 22.4383 62.7521C22.3442 62.7991 21.8738 62.4698 21.5916 62.1406V63.6458C21.9208 63.881 22.3912 64.3044 22.3912 64.3044C22.4383 64.3514 22.4383 64.3985 22.4383 64.4455C22.3442 64.4926 21.8738 64.1633 21.5916 63.834V65.1511C21.8738 65.3393 22.156 65.5745 22.3912 65.8097C22.4383 65.8567 22.4383 65.9038 22.4383 65.9508C22.3442 65.9979 21.8738 65.6686 21.5916 65.3393V66.7035C21.8738 66.8916 22.156 67.1268 22.3912 67.362C22.4383 67.4091 22.4383 67.4561 22.4383 67.5032C22.3442 67.5502 21.8738 67.2209 21.5916 66.8916V69.9492C21.8738 70.1374 22.156 70.3726 22.3912 70.6078C22.4383 70.6549 22.4383 70.7019 22.4383 70.7489C22.3442 70.796 21.9208 70.4667 21.5916 70.1374V71.5016C21.6386 71.5016 21.6386 71.5486 21.6856 71.5486C21.8738 71.6897 22.062 71.8309 22.2501 71.972C22.3442 71.972 22.4853 71.9249 22.5794 71.9249V71.7368L22.6735 68.9614ZM21.7327 71.7838V72.1601C21.8738 72.1601 21.9679 72.1131 22.156 72.1131C22.0149 72.0661 21.8738 71.9249 21.7327 71.7838Z" fill="#6B7688"/>
<path d="M21.7326 60.6825C21.6385 60.5413 21.5915 60.4473 21.6856 60.4473H21.7326" fill="#6B7688"/>
<path fill-rule="evenodd" clip-rule="evenodd" d="M22.5795 69.337C22.5795 69.2899 22.5795 69.2429 22.5324 69.1958C22.5324 69.1958 22.062 68.8195 21.6857 68.4902H21.6387C21.5446 68.4902 21.5446 68.5373 21.6387 68.6784C21.9209 68.9606 22.2502 69.1488 22.5795 69.337Z" fill="#6B7688"/>
<path fill-rule="evenodd" clip-rule="evenodd" d="M24.7432 49.0162C24.2728 49.1573 23.7554 49.2043 23.238 49.1573H22.6735C22.3442 49.2043 22.0149 49.1573 21.7327 49.0162C21.7327 48.9221 22.109 48.8751 22.6735 48.8751H23.238C23.7554 48.828 24.2728 48.8751 24.7432 49.0162Z" fill="#6B7688"/>
<path d="M22.4382 59.6468C22.3912 59.6468 22.3442 59.6939 22.2971 59.7409L22.203 59.6468C22.156 59.5998 22.156 59.5998 22.156 59.5527V59.6468C22.156 59.6468 22.156 59.5998 22.203 59.6468L22.2971 59.7409V59.7879H22.203C22.156 59.7879 22.156 59.7879 22.156 59.7409V59.835C22.156 59.7879 22.156 59.7879 22.203 59.7879H22.3442C22.3912 59.7879 22.3912 59.7879 22.3912 59.835V59.7409C22.3912 59.7879 22.3912 59.7879 22.3442 59.7879H22.2501C22.3442 59.7879 22.3912 59.7409 22.4382 59.6468Z" fill="#6B7688"/>
<path d="M22.3913 59.459C22.3442 59.459 22.3442 59.506 22.2972 59.5531C22.2972 59.6001 22.2972 59.6001 22.2502 59.6001C22.2031 59.6001 22.2031 59.6001 22.2031 59.5531C22.2031 59.506 22.2031 59.506 22.2502 59.506H22.2031V59.5531C22.2031 59.6001 22.2502 59.6471 22.2972 59.6471C22.3442 59.6471 22.3442 59.6001 22.3913 59.5531C22.3442 59.506 22.3442 59.506 22.3913 59.459C22.4383 59.506 22.4383 59.506 22.4383 59.5531C22.4383 59.6001 22.3913 59.6471 22.3442 59.6471H22.3913V59.5531C22.3913 59.506 22.3913 59.459 22.3913 59.459Z" fill="#6B7688"/>
<path d="M22.3912 59.223L22.4382 59.1289C22.4382 59.1759 22.4382 59.1759 22.3912 59.223C22.2971 59.223 22.2501 59.223 22.156 59.27L22.3912 59.3641C22.4382 59.3641 22.4382 59.3641 22.4382 59.4112V59.3171C22.4382 59.3641 22.4382 59.3641 22.3912 59.3641V59.223ZM22.3442 59.3171C22.2971 59.3171 22.2971 59.3171 22.2501 59.27L22.3442 59.223V59.3171Z" fill="#6B7688"/>
<path d="M23.8495 60.0706V59.9766H23.7554V60.2588H23.8495V60.2118H24.2258V60.1177H23.8495V60.0706Z" fill="#6B7688"/>
<path d="M24.0847 59.6468L24.2259 59.5998V59.5527L23.8025 59.6468V59.882L23.8495 59.9291H23.8966L24.2259 60.0231V59.9291L23.9907 59.882H23.8025V59.7879L23.9907 59.7409V59.882L24.0847 59.835V59.6468Z" fill="#6B7688"/>
<path d="M24.2259 59.0355V58.9414L23.8025 59.0355V59.2236H23.8966L24.1318 59.2707L23.8495 59.3177V59.5059H23.9436L24.2729 59.6V59.5059L23.9436 59.4118L24.2729 59.3648V59.1766L23.9436 59.1296L24.2259 59.0355Z" fill="#6B7688"/>
<path d="M24.1317 58.5645V58.7997H24.0847V58.6115H23.9906V58.7997H23.9435C23.8965 58.7997 23.8965 58.7997 23.8495 58.7526V58.5645L23.7554 58.6115V58.7997C23.7554 58.8467 23.7554 58.8467 23.8024 58.8467C23.8495 58.8937 23.8495 58.8937 23.8965 58.8937H24.1317C24.1787 58.8937 24.1787 58.8937 24.2258 58.8467C24.2728 58.7997 24.2728 58.7997 24.2728 58.7526V58.5645H24.1317Z" fill="#6B7688"/>
<path d="M24.1317 58.2363V58.4245H24.0847V58.2834H23.9906V58.4715H23.9435C23.8965 58.4715 23.8965 58.4715 23.8495 58.4245V58.2363L23.7554 58.2834V58.4715C23.7554 58.5186 23.7554 58.5186 23.8024 58.5186C23.8495 58.5656 23.8495 58.5656 23.8965 58.5656H24.1317C24.1787 58.5656 24.1787 58.5656 24.2258 58.5186C24.2258 58.5186 24.2728 58.4715 24.2728 58.4245V58.2834L24.1317 58.2363Z" fill="#6B7688"/>
<path d="M24.0846 58.0946H23.8494V57.9535H23.9435V58.0946H24.0846L24.0375 57.9535C24.0375 57.9064 24.0375 57.9064 23.9905 57.9064C23.9435 57.8594 23.9435 57.8594 23.8964 57.8594C23.8494 57.8594 23.8023 57.8594 23.7553 57.9064C23.7083 57.9535 23.7083 57.9535 23.7083 58.0005V58.1887H24.1316V58.0946H24.0846ZM24.0846 58.0005V58.0946L24.2727 58.0005V57.8594L24.0846 58.0005Z" fill="#6B7688"/>
<path fill-rule="evenodd" clip-rule="evenodd" d="M18.2987 69.0547H17.499V68.4902C17.5931 68.5843 17.7342 68.6784 17.8283 68.7725C17.8753 68.8195 17.9224 68.8666 17.9694 68.8666C18.0165 68.8666 18.0635 68.9136 18.0635 68.9606C18.0635 69.0077 18.1576 69.0077 18.1576 69.0547C18.2046 69.0547 18.2046 69.0547 18.2517 69.1018C18.2517 69.0077 18.2987 69.0077 18.2987 69.0547Z" fill="#6B7688"/>
<path fill-rule="evenodd" clip-rule="evenodd" d="M18.3927 69.008H18.2986C18.2986 68.961 18.2986 68.9139 18.2516 68.8669C18.2516 68.8669 17.7812 68.4906 17.4519 68.2083V66.7031C17.6871 66.9383 18.0164 67.1264 18.2986 67.3146C18.2986 67.2675 18.2986 67.2205 18.2516 67.1735C18.2516 67.1735 17.7812 66.7971 17.4519 66.5149V65.1507C17.6871 65.3859 18.0164 65.5741 18.2986 65.7622C18.2986 65.7152 18.2986 65.6682 18.2516 65.6211C18.2516 65.6211 17.7812 65.2448 17.4519 64.9626V62.0931C17.6871 62.3283 18.0164 62.5165 18.2986 62.7046C18.2986 62.6576 18.2986 62.6105 18.2516 62.5635C18.2516 62.5635 17.7812 62.1872 17.4519 61.9049V60.5408C17.6871 60.776 18.0164 60.9641 18.2986 61.1523C18.2986 61.1052 18.2986 61.0582 18.2516 61.0112C18.2516 61.0112 17.7812 60.6348 17.4519 60.3526V59.0355C17.6871 59.2707 18.0164 59.4588 18.2986 59.647C18.2986 59.6 18.2986 59.5529 18.2516 59.5059C18.2516 59.5059 17.7812 59.1296 17.4519 58.8473V57.3891C17.6871 57.6243 18.0164 57.8124 18.2986 58.0006C18.2986 57.9535 18.2986 57.9065 18.2516 57.8595C18.2516 57.8595 17.7812 57.4831 17.4519 57.2009V55.8367C17.6871 56.0719 18.0164 56.2601 18.2986 56.4482C18.2986 56.4012 18.2986 56.3542 18.2516 56.3071C18.2516 56.3071 17.7812 55.9308 17.4519 55.6486V54.3314C17.7341 54.5666 18.0164 54.7548 18.2986 54.943C18.2986 54.8959 18.2986 54.8489 18.2516 54.8018C18.2516 54.8018 17.7812 54.4255 17.4519 54.1433V53.4847C17.4519 53.4847 17.4989 53.4377 17.546 53.4377C17.6401 53.3906 17.7812 53.3906 17.8753 53.3906H18.3927V69.008Z" fill="#6B7688"/>
<path fill-rule="evenodd" clip-rule="evenodd" d="M20.5097 67.8319C20.0864 68.0671 18.9103 68.9138 18.8633 68.9138C18.8163 68.9608 18.8163 69.0079 18.8163 69.0549L18.7692 53.7197V53.4375H20.0864C20.1804 53.4375 20.2275 53.4375 20.2745 53.4845C20.3216 53.5316 20.3686 53.4845 20.3686 53.5316H20.4627V53.6257C20.0393 53.8609 18.8633 54.7076 18.8163 54.7076C18.7692 54.7076 18.7692 54.8958 18.7692 54.8958C19.0044 54.9898 20.1804 54.1431 20.4156 53.8138V55.131C19.9923 55.3662 18.7692 56.2129 18.7692 56.2129C18.6751 56.2599 18.7222 56.401 18.7222 56.401C18.9574 56.4951 20.1334 55.6484 20.3686 55.3191V56.6833C19.9452 56.9185 18.7692 57.7652 18.7222 57.7652C18.6751 57.7652 18.6751 58.0004 18.6751 57.9534C18.9103 58.0475 20.0864 57.1537 20.3216 56.8714V58.3767C19.8982 58.6119 18.7222 59.4587 18.6751 59.4587C18.6281 59.4587 18.6281 59.6468 18.6281 59.6468C18.8633 59.7409 20.0393 58.8471 20.2745 58.5649V59.882C19.8512 60.1172 18.6751 60.964 18.6281 60.964C18.5811 60.964 18.5811 61.1521 18.5811 61.1521C18.8163 61.2462 19.9923 60.3995 20.2275 60.0702V61.4344C19.8041 61.6696 18.6281 62.5163 18.5811 62.5163C18.534 62.5163 18.534 62.7515 18.534 62.7045C18.7692 62.7985 19.9452 61.9048 20.1804 61.6225V64.5861C19.7571 64.8213 18.5811 65.668 18.534 65.668C18.487 65.668 18.487 65.8562 18.487 65.8562C18.7222 65.9502 19.8982 65.1035 20.1334 64.7742V66.1384C19.71 66.3736 18.534 67.2203 18.487 67.2203C18.4399 67.2203 18.4399 67.4555 18.4399 67.4085C18.6751 67.5026 19.8512 66.6088 20.0864 66.3266L20.5097 67.8319Z" fill="#6B7688"/>
<path fill-rule="evenodd" clip-rule="evenodd" d="M20.5097 68.0195V68.8663C20.0393 68.9603 19.6159 69.0074 19.1455 69.0074C19.1925 68.9603 19.2396 68.9133 19.2866 68.9133L19.663 68.6781C19.8041 68.584 19.8982 68.4429 20.0393 68.3958C20.1804 68.3488 20.2274 68.2547 20.2745 68.1606C20.3686 68.1606 20.4626 68.1136 20.5097 68.0195Z" fill="#6B7688"/>
<path fill-rule="evenodd" clip-rule="evenodd" d="M20.5095 68.0202C20.4625 68.0672 20.4154 68.1143 20.3214 68.1613C20.2273 68.2554 20.1332 68.3024 20.0862 68.3965C19.945 68.4906 19.8039 68.5847 19.7098 68.6787L19.3335 68.914C19.2865 68.961 19.2394 69.008 19.1924 69.008C19.6628 69.008 20.0862 68.9139 20.5566 68.8669L20.5095 68.0202ZM20.5095 66.3267C20.2743 66.5619 19.0513 67.5027 18.8631 67.4087C18.8631 67.4557 18.8161 67.2675 18.9102 67.2205C19.4276 66.8442 19.9921 66.4679 20.5566 66.1386V60.0704C20.3214 60.3056 19.0983 61.2464 18.9102 61.1523C18.9102 61.1993 18.8631 61.0582 18.9572 60.9641C19.4746 60.5878 20.0391 60.2115 20.6036 59.8822V58.518C20.3684 58.7532 19.1454 59.694 18.9572 59.6C18.9572 59.6 18.9572 59.4588 19.0042 59.4118C19.5217 59.0355 20.0862 58.6591 20.6507 58.3299V56.8246C20.4154 57.0598 19.1924 58.0006 19.0042 57.9065C19.0042 57.9535 18.9572 57.7654 19.0513 57.7183C19.5687 57.342 20.1332 56.9657 20.6977 56.6364V55.2252C20.4625 55.4604 19.2394 56.4012 19.0513 56.3071C19.0513 56.2601 19.0513 56.213 19.0983 56.119C19.0983 56.119 20.2743 55.2722 20.7447 55.037V53.7199C20.5095 53.9551 19.2865 54.8959 19.0983 54.8018C19.0983 54.8489 19.0513 54.7078 19.1454 54.6137C19.6628 54.2374 20.2273 53.861 20.7918 53.5317V53.4847H20.6977C20.6507 53.4847 20.6036 53.4847 20.6036 53.4377C20.5566 53.4377 20.4625 53.4377 20.4154 53.3906H19.0513V53.6729L19.0983 69.008C19.0983 68.961 19.0983 68.9139 19.1454 68.8669C19.6628 68.4906 20.2273 68.1143 20.7918 67.785L20.5095 66.3267ZM20.5095 64.7744C20.2743 65.0096 19.0513 65.9504 18.8631 65.8563C18.8631 65.9034 18.8161 65.7622 18.9102 65.6682C19.4276 65.2918 19.9921 64.9155 20.5566 64.5862L20.5095 64.7744ZM18.8161 62.7046C18.8161 62.7517 18.8161 62.5635 18.8631 62.5165C19.3806 62.1401 19.945 61.7638 20.5095 61.4345V61.6227C20.2273 61.9049 19.0042 62.7987 18.8161 62.7046ZM18.2516 69.008C18.2046 69.008 18.2046 68.961 18.1575 68.961L18.0634 68.8669C18.0164 68.8669 17.9693 68.8199 17.9693 68.7728C17.9223 68.7258 17.8753 68.7258 17.8282 68.6787C17.6871 68.5847 17.593 68.4906 17.4989 68.3965V68.961C17.7341 69.0551 17.9693 69.1021 18.2516 69.008ZM18.3927 53.7199V53.4847H17.8753C17.6871 53.4847 17.6401 53.5317 17.546 53.5317C17.4519 53.5317 17.4519 53.5788 17.4519 53.5788V54.0492C17.7341 54.2374 18.0164 54.4726 18.2516 54.7078C18.2986 54.7548 18.2986 54.8018 18.2986 54.8489C18.2046 54.8959 17.7812 54.5666 17.4519 54.2374V55.5545C17.7812 55.7897 18.2516 56.213 18.2516 56.213C18.2986 56.2601 18.2986 56.3071 18.2986 56.3542C18.2046 56.4012 17.7341 56.0719 17.4519 55.7426V57.1068C17.7341 57.295 18.0164 57.5302 18.2516 57.7654C18.2986 57.8124 18.2986 57.8595 18.2986 57.9065C18.2046 57.9535 17.7341 57.6243 17.4519 57.295V58.7532C17.7812 58.9884 18.2516 59.4118 18.2516 59.4118C18.2986 59.4588 18.2986 59.5059 18.2986 59.5529C18.2046 59.6 17.7341 59.2707 17.4519 58.9414V60.2585C17.7341 60.4467 18.0164 60.6819 18.2516 60.9171C18.2986 60.9641 18.2986 61.0112 18.2986 61.0582C18.2046 61.1052 17.7341 60.776 17.4519 60.4467V61.8109C17.7812 62.0461 18.2516 62.4694 18.2516 62.4694C18.2986 62.5165 18.2986 62.5635 18.2986 62.6105C18.2046 62.6576 17.7341 62.3283 17.4519 61.999V64.9626C17.7812 65.1978 18.2516 65.6211 18.2516 65.6211C18.2986 65.6682 18.2986 65.7152 18.2986 65.7622C18.2046 65.8093 17.7341 65.48 17.4519 65.1507V66.5149C17.7341 66.7031 18.0164 66.9383 18.2516 67.1735C18.2986 67.2205 18.2986 67.2675 18.2986 67.3146C18.2046 67.3616 17.7341 67.0323 17.4519 66.7031V68.2083C17.7812 68.4435 18.2516 68.8669 18.2516 68.8669C18.2986 68.9139 18.2986 68.961 18.2986 69.008H18.3927V53.7199Z" fill="#6B7688"/>
<path d="M17.4521 65.245C17.358 65.1038 17.311 65.0098 17.405 65.0098H17.4521" fill="#6B7688"/>
<path fill-rule="evenodd" clip-rule="evenodd" d="M20.4625 53.5787C19.9921 53.7198 19.4746 53.7668 18.9572 53.7198H18.3927C18.0634 53.7668 17.7341 53.7198 17.4519 53.5787C17.4519 53.4846 17.8282 53.4376 18.3927 53.4376H18.9572C19.4746 53.3905 19.9921 53.4376 20.4625 53.5787Z" fill="#6B7688"/>
<path d="M18.2046 64.2562V64.1621C18.1576 64.2091 18.1576 64.2092 18.2046 64.2562C18.1576 64.2562 18.1105 64.3032 18.0635 64.3503L17.9694 64.2562C17.9224 64.2092 17.9224 64.2091 17.9224 64.1621V64.2562C17.9224 64.2562 17.9224 64.2092 17.9694 64.2562L18.0635 64.3503V64.3973H17.9694C17.9224 64.3973 17.9224 64.3973 17.9224 64.3503V64.4444C17.9224 64.3973 17.9224 64.3973 17.9694 64.3973H18.1105C18.1576 64.3973 18.1576 64.3973 18.1576 64.4444V64.3503C18.1576 64.3973 18.1576 64.3973 18.1105 64.3973H18.0164C18.0635 64.3503 18.1576 64.3032 18.2046 64.2562Z" fill="#6B7688"/>
<path d="M18.1105 64.0215C18.0635 64.0215 18.0635 64.0685 18.0164 64.1156C18.0164 64.1626 18.0164 64.1626 17.9694 64.1626C17.9224 64.1626 17.9224 64.1626 17.9224 64.1156C17.9224 64.0685 17.9224 64.0685 17.9694 64.0685H17.9224V64.1156C17.9224 64.1626 17.9694 64.2096 18.0164 64.2096C18.0635 64.2096 18.0635 64.1626 18.1105 64.1156C18.0635 64.0685 18.1105 64.0685 18.1105 64.0215C18.1576 64.0685 18.1576 64.0685 18.1576 64.1156C18.1576 64.1626 18.1105 64.2096 18.0635 64.2096H18.1105V64.1156C18.2046 64.0685 18.1576 64.0215 18.1105 64.0215Z" fill="#6B7688"/>
<path d="M18.1576 63.7874L18.2046 63.6934C18.1576 63.7874 18.1576 63.7874 18.1576 63.7874C18.0635 63.7874 18.0164 63.7874 17.9224 63.8345L18.1576 63.9286C18.2046 63.9286 18.2046 63.9286 18.2046 63.9756V63.8815C18.2046 63.9286 18.2046 63.9286 18.1576 63.9286H18.1105V63.8345C18.1105 63.7874 18.1105 63.7874 18.1576 63.7874ZM18.0635 63.8815C18.0164 63.8815 18.0164 63.8815 17.9694 63.8345L18.0635 63.7874V63.8815Z" fill="#6B7688"/>
<path d="M19.6158 64.68V64.5859H19.5217V64.8682H19.6158V64.7741H19.9921V64.68H19.6158Z" fill="#6B7688"/>
<path d="M19.804 64.2564L19.9451 64.2093V64.1152L19.5217 64.2093V64.4445L19.5688 64.4916H19.6158L19.9451 64.5856V64.4445L19.7099 64.3975H19.5217V64.2564L19.7099 64.2093V64.3504L19.804 64.3034V64.2564Z" fill="#6B7688"/>
<path d="M19.9451 63.598V63.5039L19.5217 63.598V63.7862H19.6158L19.851 63.8332L19.5688 63.8802V64.0684H19.6628L19.9921 64.1625V64.0684L19.6628 63.9743L19.9921 63.9273V63.7862L19.6628 63.7391L19.9451 63.598Z" fill="#6B7688"/>
<path d="M19.898 63.1758V63.411H19.8039V63.2228H19.7098V63.411H19.6628C19.6157 63.411 19.6157 63.411 19.5687 63.3639V63.1758L19.4746 63.2228V63.411C19.4746 63.458 19.4746 63.458 19.5216 63.458C19.5687 63.5051 19.5687 63.5051 19.6157 63.5051H19.8509C19.898 63.5051 19.898 63.5051 19.945 63.458C19.9921 63.411 19.9921 63.411 19.9921 63.3639V63.1758H19.898Z" fill="#6B7688"/>
<path d="M19.898 62.8459V63.034H19.8039V62.8459H19.7098V63.034H19.6628C19.6157 63.034 19.6157 63.034 19.5687 62.987V62.7988L19.4746 62.8459V63.034C19.4746 63.0811 19.4746 63.0811 19.5216 63.0811C19.5687 63.1281 19.5687 63.1281 19.6157 63.1281H19.8509C19.898 63.1281 19.898 63.1281 19.945 63.0811C19.945 63.0811 19.9921 63.034 19.9921 62.987V62.7988L19.898 62.8459Z" fill="#6B7688"/>
<path d="M19.8041 62.5628V62.6569L19.9922 62.5628V62.4688L19.8041 62.5628ZM19.8041 62.704H19.5689V62.5628H19.6629V62.704H19.8041L19.757 62.5628C19.757 62.5158 19.757 62.5158 19.71 62.5158C19.6629 62.4687 19.6629 62.4688 19.6159 62.4688C19.5689 62.4688 19.5218 62.4687 19.4748 62.5158C19.4277 62.5628 19.4277 62.5628 19.4277 62.6099V62.798H19.8511V62.704H19.8041Z" fill="#6B7688"/>
<path d="M6.16224 70.4192L5.50367 69.7606C5.45663 69.6665 5.40959 69.6195 5.36255 69.5254C5.59775 69.9017 5.92703 70.1369 6.16224 70.4192Z" fill="#6B7688"/>
<path d="M44.0297 61.9516C41.5366 73.5705 30.4821 81.4733 19.2395 79.6388C15.194 78.9802 11.5248 77.0515 8.65538 74.135C8.60834 74.088 8.51425 73.9939 8.42017 73.9469C7.24416 72.6768 6.20928 71.3126 5.36255 69.8073C5.55071 70.0425 5.78591 70.2777 6.02111 70.4659L6.06815 70.5129C8.84354 73.1942 12.3716 74.9347 16.1818 75.5462C16.5582 75.6403 16.9815 75.6874 17.3578 75.7344C17.6871 75.7814 17.9694 75.8285 18.2987 75.8285H20.3684C29.8235 75.4051 38.3849 68.3491 40.4547 58.5176C41.96 51.5086 39.7961 44.7348 35.3273 40.1719C36.3622 40.9245 37.303 41.7242 38.1967 42.665L38.2438 42.7121C43.3241 47.275 45.6762 54.4721 44.0297 61.9516Z" fill="#6B7688"/>
<path d="M8.51421 73.9472C7.00891 72.489 5.73882 70.7955 4.75098 68.9609C4.98618 69.2432 5.22138 69.5254 5.50362 69.8077C6.35035 71.313 7.3382 72.7242 8.51421 73.9472Z" fill="#6B7688"/>
<path d="M36.3152 59.9755C34.6688 65.5263 30.3411 69.9011 24.7433 71.5945C24.6022 71.6416 24.5081 71.6886 24.3199 71.7356C24.1318 71.8297 23.8966 71.8768 23.6614 71.9238C23.4262 71.9708 23.238 72.0179 23.0498 72.0649C22.8617 72.112 22.8146 72.112 22.6735 72.159C22.5324 72.206 22.4383 72.206 22.3442 72.206C22.2031 72.206 22.2031 72.2531 22.109 72.2531C22.015 72.2531 21.8738 72.3001 21.6857 72.3001C21.2623 72.3472 20.839 72.3942 20.4626 72.3942C19.8981 72.3942 19.3337 72.3942 18.8162 72.3472C18.6751 72.3472 18.534 72.3472 18.4399 72.3001L17.4991 72.159C17.1228 72.112 16.7935 72.0179 16.4172 71.9238C12.8891 71.0771 9.8315 68.9603 7.76173 65.9497C7.66765 65.8086 7.52652 65.6674 7.47948 65.5263C6.96204 64.7737 6.49164 63.9269 6.16235 63.0802C8.79661 66.7494 12.9832 68.9603 17.4991 69.1484H18.7692V69.1955C18.8633 69.1955 18.9573 69.1484 19.0044 69.1014H19.0514C19.5218 69.1014 19.9452 69.0073 20.4156 68.9603C26.8131 67.9254 31.9875 63.3625 33.8691 57.2002C35.3744 52.308 34.2925 46.9924 31.0467 43.041C31.2819 43.2762 31.5171 43.4173 31.7523 43.6525H31.7994C36.2212 47.3687 38.1968 53.6721 36.3152 59.9755Z" fill="#6B7688"/>
<path d="M19.1454 69.0078C19.0513 69.0549 18.9572 69.0549 18.9102 69.1019V69.0549C18.9572 69.0078 19.0042 69.0078 19.1454 69.0078Z" fill="#6B7688"/>
<path d="M52.3088 56.7316L53.0144 55.3204H54.849C55.2253 55.3204 55.4605 55.0852 55.4605 54.6148C55.4605 53.768 54.9901 53.0154 54.2375 52.6391L54.9431 51.416C56.1191 52.1216 56.8247 53.0624 56.9188 54.2855C56.9188 54.5677 57.0129 54.85 57.154 55.0852C57.3422 55.2263 57.6244 55.3204 57.8596 55.3204H58.7534V56.7316H57.8126C57.2951 56.7316 56.7777 56.5905 56.3543 56.2612C56.025 56.5905 55.5546 56.7786 55.1313 56.7316H52.3088Z" fill="#6B7688"/>
<path d="M58.8004 59.3653C58.377 59.3653 58.0477 59.0831 58.0477 58.6597C58.0477 58.6127 58.0477 58.6127 58.0477 58.5657C58.0007 58.1893 58.2359 57.8601 58.6122 57.813C58.6592 57.813 58.7533 57.813 58.8004 57.813C59.2237 57.813 59.553 58.0953 59.553 58.5186C59.553 58.5657 59.553 58.5657 59.553 58.6127C59.506 59.0831 59.2708 59.3653 58.8004 59.3653ZM58.1418 56.7311V55.3199H59.2237C59.4589 55.3199 59.6941 55.2728 59.8823 55.1317C60.0234 54.9435 60.0704 54.7083 60.0704 54.4731V52.3093L61.5287 51.5566V54.5672C61.6228 55.6492 60.8231 56.637 59.7412 56.7311C59.6471 56.7311 59.506 56.7311 59.4119 56.7311H58.1418ZM60.5879 59.3653C60.1645 59.3653 59.8352 59.0831 59.8352 58.6597C59.8352 58.6127 59.8352 58.6127 59.8352 58.5657C59.7882 58.1893 60.0234 57.8601 60.3997 57.813C60.4468 57.813 60.5409 57.813 60.5879 57.813C61.0113 57.813 61.3405 58.0953 61.3405 58.5186C61.3405 58.5657 61.3405 58.5657 61.3405 58.6127C61.2935 59.0831 61.1053 59.3653 60.5879 59.3653Z" fill="#6B7688"/>
<path d="M62.6577 56.7316L63.3633 55.3204H65.1979C65.5742 55.3204 65.8094 55.0852 65.8094 54.6148C65.8094 53.768 65.339 53.0154 64.5864 52.6391L65.292 51.416C66.468 52.1216 67.1736 53.0624 67.2677 54.2855C67.2677 54.5677 67.3618 54.85 67.5029 55.0852C67.691 55.2263 67.9733 55.3204 68.2085 55.3204H69.1022V56.7316H68.1614C67.644 56.7316 67.1266 56.5905 66.7032 56.2612C66.3739 56.5905 65.9035 56.7786 65.4801 56.7316H62.6577Z" fill="#6B7688"/>
<path d="M76.0644 55.3204H77.0522V56.7316H76.0644C75.5469 56.7316 75.0295 56.6845 74.5591 56.4964C74.1357 56.3553 73.8065 56.1201 73.5242 55.7908C72.4893 56.4023 71.3604 56.7316 70.1373 56.7316H68.4438V55.3204H70.1843C71.4074 55.3674 72.5834 54.944 73.4301 54.0973C72.9127 53.1565 72.2541 52.7331 71.5015 52.7331C70.8429 52.7331 70.2314 53.0624 69.4317 53.768V52.4979C69.9962 51.8394 70.7959 51.416 71.6426 51.416C72.3012 51.416 72.9127 51.6512 73.3831 52.1216C73.9946 52.6391 74.5121 53.2976 74.9354 54.0032V54.6148C74.7943 54.8029 74.6532 54.944 74.465 55.1792C75.0295 55.2733 75.5469 55.3674 76.0644 55.3204Z" fill="#6B7688"/>
<path d="M76.3464 56.7315V55.3203H77.0991C77.3813 55.3203 77.6636 55.2733 77.8517 55.0851C78.0399 54.8499 78.0869 54.5677 78.0869 54.2854V49.9577L79.5452 49.2051V54.2854C79.5922 54.944 79.357 55.6026 78.8396 56.073C78.3692 56.4963 77.8047 56.7315 77.1932 56.6845L76.3464 56.7315Z" fill="#6B7688"/>
<path d="M81.6621 56.7315V49.9577L83.1204 49.2051V56.7315H81.6621Z" fill="#6B7688"/>
<path d="M90.9761 55.3199H92.058V56.7311H90.882C90.6468 56.7311 90.4116 56.684 90.1764 56.637C90.1294 57.2956 89.8001 57.9541 89.2826 58.3775C88.8122 58.7538 88.2478 58.989 87.6362 58.989C87.1188 58.989 86.6484 58.8479 86.178 58.6127V57.3426C86.5543 57.5308 86.9777 57.6719 87.354 57.6719C87.7303 57.7189 88.1066 57.5308 88.3418 57.2485C88.6241 56.9192 88.7182 56.4959 88.6711 56.0725V52.3093L89.6119 51.7918L90.1294 51.5566V54.5202C90.0823 54.7554 90.1764 54.9906 90.3175 55.1788C90.4587 55.3199 90.6939 55.3669 90.9761 55.3199Z" fill="#6B7688"/>
<path d="M95.4921 55.3199H96.574V56.7311H95.398C94.8806 56.7311 94.4102 56.59 93.9868 56.2607C93.5634 56.59 93.093 56.7311 92.5756 56.7311H91.3525V55.3199H92.4345C92.6697 55.3199 92.9049 55.2728 93.093 55.1317C93.2342 54.9435 93.2812 54.7083 93.2812 54.4731V52.3093L94.7394 51.5566V54.5202C94.6924 54.7554 94.7865 54.9906 94.9276 55.1788C95.0217 55.3199 95.2569 55.3669 95.4921 55.3199ZM92.4815 57.813C92.9049 57.813 93.2342 58.0953 93.2342 58.5186C93.2342 58.5657 93.2342 58.5657 93.2342 58.6127C93.2812 58.989 93.046 59.3183 92.6697 59.3653C92.6226 59.3653 92.5286 59.3653 92.4815 59.3653C92.0581 59.3653 91.7289 59.0831 91.7289 58.6597C91.7289 58.6127 91.7289 58.6127 91.7289 58.5657C91.6818 58.1893 91.917 57.8601 92.2933 57.813C92.3404 57.813 92.3874 57.813 92.4815 57.813ZM94.269 57.813C94.6924 57.813 95.0217 58.0953 95.0217 58.5186C95.0217 58.5657 95.0217 58.5657 95.0217 58.6127C95.0687 58.989 94.8335 59.3183 94.4572 59.3653C94.4102 59.3653 94.3161 59.3653 94.269 59.3653C93.8457 59.3653 93.5164 59.0831 93.5164 58.6597C93.5164 58.6127 93.5164 58.6127 93.5164 58.5657C93.4694 58.1893 93.7046 57.8601 94.0809 57.813C94.1279 57.813 94.175 57.813 94.269 57.813Z" fill="#6B7688"/>
<path d="M103.207 55.3193H104.242V56.7305H103.066C102.595 56.7775 102.078 56.5894 101.701 56.3071C101.278 56.7305 100.667 57.0127 100.055 57.0127C99.4435 57.0598 98.8319 56.7775 98.4086 56.3071C98.0323 56.5894 97.5148 56.7305 97.0444 56.7305H95.8684V55.3193H96.9503C97.1855 55.3193 97.4207 55.2722 97.6089 55.1311C97.75 54.943 97.7971 54.7078 97.7971 54.4726V54.1433C97.75 53.3436 98.0323 52.5909 98.5027 52.0265C98.926 51.6031 99.5376 51.3209 100.149 51.3209C100.855 51.2738 101.56 51.6031 101.984 52.1676C102.36 52.7321 102.548 53.3906 102.548 54.0962V54.4255C102.548 54.6607 102.595 54.8959 102.783 55.0841C102.783 55.3193 102.972 55.3193 103.207 55.3193ZM100.055 55.6015C100.667 55.6015 100.949 55.1311 100.949 54.1433C100.949 53.1554 100.667 52.7791 100.055 52.7791C99.4435 52.7791 99.1612 53.2495 99.1612 54.1433C99.1612 55.1311 99.4435 55.6015 100.055 55.6015Z" fill="#6B7688"/>
<path d="M109.322 55.3187H112.521L112.568 56.7299H109.228C108.851 56.7299 108.428 56.6358 108.099 56.4477C107.769 56.6358 107.393 56.7299 106.97 56.7299H103.63V55.3187H106.782C106.499 55.1305 106.217 54.8953 105.935 54.6131C105.794 54.472 105.606 54.2838 105.323 53.9545C105.229 53.8605 105.182 53.8134 105.088 53.7193V53.0137C105.417 52.4963 105.888 52.0729 106.405 51.7907C107.44 51.1792 108.71 51.1792 109.745 51.7907C110.31 52.12 110.78 52.5433 111.109 53.0608V53.7193C110.639 54.3779 109.98 54.8953 109.322 55.3187ZM108.052 54.8013C108.569 54.4249 108.992 53.9545 109.322 53.4371C108.992 53.0608 108.522 52.8256 108.005 52.7785C107.534 52.8256 107.064 53.0608 106.782 53.4371C107.111 53.9545 107.534 54.4249 108.052 54.8013Z" fill="#6B7688"/>
<path d="M111.862 56.7307V55.3195H112.944C113.179 55.3195 113.414 55.2725 113.603 55.1314C113.744 54.9432 113.791 54.708 113.791 54.4728V52.3089L115.249 51.5563V54.5669C115.343 55.6488 114.543 56.6367 113.461 56.7307C113.367 56.7307 113.226 56.7307 113.132 56.7307H111.862ZM112.662 50.4273C112.238 50.4273 111.909 50.1451 111.909 49.7217C111.909 49.6747 111.909 49.6747 111.909 49.6276C111.862 49.2513 112.097 48.922 112.474 48.875C112.521 48.875 112.615 48.875 112.662 48.875C113.085 48.875 113.414 49.1572 113.414 49.5806C113.414 49.6276 113.414 49.6276 113.414 49.6747C113.461 50.051 113.179 50.3803 112.803 50.4273C112.803 50.4273 112.756 50.4273 112.662 50.4273ZM114.496 50.4273C114.073 50.4273 113.744 50.1451 113.744 49.7217C113.744 49.6747 113.744 49.6747 113.744 49.6276C113.697 49.2513 113.932 48.922 114.308 48.875C114.355 48.875 114.449 48.875 114.496 48.875C114.92 48.875 115.249 49.1572 115.249 49.5806C115.249 49.6276 115.249 49.6276 115.249 49.6747C115.296 50.051 115.014 50.3803 114.637 50.4273C114.59 50.4273 114.543 50.4273 114.496 50.4273Z" fill="#6B7688"/>
<path d="M53.5789 66.6093H51.6973V65.5273H56.9658V66.6093H54.9431V71.9719H53.5789V66.6093Z" fill="#6B7688"/>
<path d="M58.9417 65.5273H60.0707L62.4697 71.9719H61.1056C60.9644 71.6426 60.8704 71.1722 60.6822 70.6077H58.3772C58.2831 70.8899 58.142 71.3603 57.9538 71.9719H56.6367L58.9417 65.5273ZM59.5062 67.2678C59.318 67.8323 59.0358 68.5379 58.7535 69.5258H60.3059C60.0236 68.585 59.7414 67.8323 59.5062 67.2678Z" fill="#6B7688"/>
<path d="M66.7973 70.4197C67.1736 69.0085 67.6911 67.3621 68.3496 65.4805H70.2783V71.972H68.9141V66.7035C68.4908 68.4911 67.9733 70.2315 67.3148 71.972H66.1858C65.4331 69.62 64.9157 67.9266 64.5864 66.7506V71.972H63.2693V65.5275H65.1509C65.8095 67.1269 66.3269 68.7733 66.7973 70.4197Z" fill="#6B7688"/>
<path d="M71.7366 65.5273H75.9702V66.6093H73.0537V68.1616H75.4528V69.2435H73.0537V70.937H76.1113V72.0189H71.7366V65.5273Z" fill="#6B7688"/>
<path d="M76.9111 65.5273H81.1448V66.6093H78.2283V68.1616H80.6273V69.2435H78.2283V70.937H81.2859V72.0189H76.9111V65.5273Z" fill="#6B7688"/>
<path d="M82.2737 71.9724V65.5278C82.3678 65.5278 82.65 65.4808 83.0734 65.4338C83.4027 65.3867 83.779 65.3867 84.1083 65.3867C85.7547 65.3867 86.6014 66.0923 86.6014 67.4095C86.6014 68.1621 86.2721 68.8207 85.7076 69.2911C85.9428 69.8556 86.4132 70.7493 86.9307 71.9724H85.5665C85.2372 71.2668 84.8609 70.4671 84.4846 69.6204H84.2023C84.0142 69.6204 83.779 69.6204 83.5908 69.5263V71.9253L82.2737 71.9724ZM83.5908 66.5627V68.5384C83.826 68.5855 84.0612 68.6325 84.2964 68.6325C84.9079 68.6325 85.1902 68.2562 85.1902 67.4565C85.1902 66.7979 84.9079 66.5157 84.2964 66.5157C84.0612 66.4686 83.826 66.4686 83.5908 66.5627Z" fill="#6B7688"/>
<path d="M94.1278 66.0452C93.9866 66.2334 93.8455 66.5156 93.5633 66.8449C93.0929 66.6097 92.6225 66.5156 92.105 66.5156C91.5405 66.5156 91.2583 66.7508 91.2583 67.1742C91.2583 67.3623 91.3524 67.5034 91.4935 67.6446C91.7287 67.8327 92.0109 67.9739 92.2932 68.0209C92.9047 68.2091 93.4222 68.5383 93.8926 68.9617C94.2218 69.291 94.363 69.7143 94.363 70.1377C94.363 70.7492 94.1278 71.3137 93.6574 71.69C93.187 72.0193 92.6695 72.1604 92.105 72.1134C91.2583 72.0664 90.4586 71.8312 89.8 71.3608L90.4116 70.5611C90.882 70.8433 91.3994 70.9844 91.9639 70.9374C92.6695 70.9374 93.0458 70.6551 93.0458 70.0907C93.0458 69.7143 92.6695 69.3851 91.8698 69.1499C90.6468 68.7265 90.0353 68.0679 90.0353 67.1742C90.0353 66.6567 90.2234 66.1863 90.6468 65.9041C91.0701 65.5748 91.6346 65.4337 92.1991 65.4337C92.8106 65.3866 93.5162 65.6218 94.1278 66.0452Z" fill="#6B7688"/>
<path d="M96.6209 66.6093H94.7393V65.5273H100.008V66.6093H97.985V71.9719H96.6209V66.6093Z" fill="#6B7688"/>
<path d="M100.808 65.5273H105.041V66.6093H102.125V68.1616H104.524V69.2435H102.125V70.937H105.182V72.0189H100.808V65.5273Z" fill="#6B7688"/>
<path d="M106.029 65.5273H110.263V66.6093H107.346V68.1616H109.745V69.2435H107.346V70.937H110.404V72.0189H106.029V65.5273Z" fill="#6B7688"/>
<path d="M111.344 71.9719V65.5273H112.662V70.937H115.108V72.0189H111.344V71.9719Z" fill="#6B7688"/>
</svg>
