<svg width="120" height="120" viewBox="0 0 120 120" fill="none" xmlns="http://www.w3.org/2000/svg">
<path d="M108.193 52.1213C106.97 50.616 105.559 49.2989 104.006 48.1229C102.125 46.7117 100.196 45.3946 98.1732 44.2185C96.762 43.4189 94.7393 42.1017 93.7044 44.0304C92.6695 45.959 92.1521 49.0167 92.9047 51.2276C93.3751 52.4977 94.3159 53.6737 95.0686 54.8026C95.9623 56.2138 96.809 57.578 97.7028 58.9892C98.5966 60.4004 99.4903 61.7646 100.29 63.1758C100.431 63.411 100.525 63.6462 100.666 63.9285C100.243 64.3518 99.7726 64.6811 99.2081 64.9163C97.9851 65.3867 96.6209 65.2456 95.4919 64.587C94.457 63.9285 93.4221 62.3291 93.5162 61.059C93.5162 60.9179 93.6103 60.3064 93.281 60.4475C91.3994 61.3883 89.9882 62.9406 88.4829 64.3048C86.9306 65.716 85.096 66.7979 83.1203 67.4095C79.8275 68.3032 75.5468 67.5506 74.653 63.9755C77.0521 62.7054 79.4982 61.2942 82.0854 60.6827C82.6499 60.5416 83.2614 59.1774 83.4966 58.754C83.5907 58.6129 84.3433 56.9665 84.1081 56.9665C81.3798 56.8724 78.6515 56.402 76.0172 55.6494C73.43 54.9438 70.9839 53.8148 68.3496 53.1562C66.3269 52.6388 64.0219 52.4977 62.0462 53.2973C59.9294 54.1911 58.3771 56.5431 57.9067 58.754C57.4833 60.7297 58.2359 62.5643 60.3057 63.1288C61.1054 63.364 62.6577 59.4126 62.4225 59.3655C61.3876 59.0833 60.4939 58.5188 60.1646 57.4369C60.1175 57.2958 60.0705 57.1546 60.0705 57.0135C60.635 56.7783 61.2465 56.5902 61.858 56.5431C62.987 56.402 64.116 56.449 65.1979 56.6842C67.9263 57.1546 70.4664 58.4247 73.1477 59.2244C74.3708 59.5537 75.5938 59.883 76.8639 60.1182C76.7228 60.2123 76.5817 60.2593 76.4406 60.3534C73.7593 61.7176 71.125 63.1288 68.2555 64.0696C62.5637 65.9042 56.5425 66.3746 50.6624 65.3867C46.617 64.7281 40.9721 62.9877 39.655 58.5188C39.5139 58.0955 39.5139 56.0727 39.1846 56.0257C38.7142 55.9316 37.8674 57.6251 37.6793 57.9073C37.2559 58.6599 36.8796 59.4596 36.5033 60.2593C35.9388 61.4824 34.9509 62.4232 33.7279 62.9877C32.2696 63.5992 30.9055 62.9406 29.9176 61.8116C27.4715 58.9892 26.7189 54.8026 26.0603 51.2276C25.684 49.0167 25.3547 46.7587 24.9784 44.5478C24.7902 43.3718 24.555 42.1488 24.3198 40.9728C24.2728 40.5024 24.1787 40.0319 23.9905 39.6086C23.9435 39.4675 23.4731 40.032 23.4261 40.032C22.7675 40.8316 21.8267 42.1958 21.8267 43.2777V43.3718C21.8737 43.7952 21.9208 44.2185 22.0148 44.6419L22.8616 50.0045C23.5672 54.4263 24.555 58.8951 24.8843 63.364C24.9784 64.2107 24.9313 65.0574 24.8373 65.9042V65.9512C24.1317 66.845 23.1438 67.5035 22.0619 67.8799C19.0983 68.8207 15.241 68.3032 13.1713 65.8571C11.5248 63.9285 11.4778 61.2001 11.9482 58.8481C12.2304 57.3898 12.6538 55.9786 13.2653 54.6615C13.4065 54.3322 13.5476 54.097 13.7357 53.6737C13.7357 53.6266 13.7828 53.5796 13.8298 53.5325C13.8769 53.4855 13.8769 53.4855 13.8769 53.4385C13.8298 53.4855 13.8298 53.4855 13.8298 53.5325C13.7828 53.6266 13.6887 53.7677 13.6417 53.8618C13.9239 53.3914 14.2061 52.921 14.4413 52.4036C14.4884 52.3095 14.8177 51.6039 14.7236 51.4157C14.5354 50.9924 13.6417 52.4036 13.5946 52.4976C12.4656 54.3793 11.5248 56.355 10.7722 58.4247C9.83138 61.106 9.07874 64.2577 9.7373 67.0802C10.6781 70.9845 13.7357 72.8661 18.6279 72.4428C20.1803 72.3016 23.9905 71.0786 25.9662 66.4216C26.0603 66.1394 26.6248 64.3048 26.7189 64.0225C27.1893 65.3867 28.1301 66.845 29.8706 67.1742C31.9874 67.5506 34.0101 66.845 36.0329 63.0347C36.3151 62.5173 37.1148 60.5416 37.1618 60.4945C37.1618 60.6356 37.1618 60.7297 37.2089 60.8708C37.6793 65.5278 41.1603 68.4443 45.1117 69.4792C52.497 71.4079 58.33 69.8085 63.9278 68.3973C67.2206 67.5976 70.2312 66.1864 73.2418 64.6341C73.3829 64.587 73.477 64.4929 73.6181 64.4459C73.477 65.1986 73.3829 65.9042 73.3359 66.6568C73.1477 68.3973 73.7122 70.5612 75.3586 71.502C77.0991 72.5368 79.4041 72.4898 81.2857 72.0194C83.2614 71.549 85.7075 70.0907 87.2598 68.7736C88.9533 67.3624 90.3645 65.669 92.2932 64.6341C92.4343 66.5157 93.4221 68.3973 95.2567 69.1499C97.4676 70.0437 99.9137 68.7266 100.902 66.7038C101.654 65.1515 102.031 63.4581 102.031 61.7646C102.031 60.4475 101.419 59.3655 100.807 58.2366C99.3022 55.6494 97.6558 53.1562 96.0564 50.6631C95.3978 49.5811 94.5041 48.4992 94.0337 47.3232C94.1748 47.2762 94.3159 47.2762 94.457 47.2762C94.8804 47.3232 95.3508 47.5114 95.7271 47.6995C96.6209 48.1229 97.5147 48.6403 98.3614 49.1578C101.795 51.2276 105.464 53.6737 107.722 57.0135C108.475 58.1895 108.993 59.5067 109.134 60.8708C109.228 61.5294 109.275 62.235 109.275 62.8936C109.275 63.1758 109.228 63.5051 109.228 63.7873C108.287 66.2805 105.841 68.068 103.677 69.3851C103.112 69.7144 102.971 71.3138 102.877 71.9253C102.83 72.1135 102.595 73.7129 103.018 73.4777C105.276 72.1135 107.252 70.4671 108.569 68.1151C110.027 65.5278 110.545 62.282 110.545 59.3185C110.404 56.6842 109.839 54.2381 108.193 52.1213Z" fill="#6B7688"/>
<path d="M13.877 53.4378C13.971 53.2496 14.0651 53.1085 13.877 53.4378V53.4378Z" fill="#6B7688"/>
<path d="M31.0465 68.6781C30.7643 68.4429 29.7764 70.1834 29.6824 70.3715C29.5883 70.5597 28.6004 72.159 28.9297 72.4413L32.1285 74.7933C32.4107 75.0285 33.3986 73.288 33.4926 73.0999C33.5867 72.9117 34.5746 71.3123 34.2453 71.0301C33.2104 70.2304 32.1285 69.4777 31.0465 68.6781Z" fill="#6B7688"/>
<path d="M36.8327 68.2562C36.5504 68.021 35.5626 69.7615 35.4685 69.9496C35.3744 70.1378 34.3866 71.7372 34.7159 72.0194L37.9146 74.3714C38.1968 74.6066 39.1847 72.8661 39.2788 72.678C39.3729 72.4898 40.3607 70.8904 40.0314 70.6082C38.9965 69.8556 37.9146 69.0559 36.8327 68.2562Z" fill="#6B7688"/>
<path d="M65.0569 49.4867C65.3392 49.7219 66.327 47.9814 66.4211 47.7932C66.5152 47.6051 67.503 46.0057 67.1738 45.7234L63.975 43.3714C63.6928 43.1362 62.7049 44.8767 62.6108 45.0649C62.5168 45.253 61.5289 46.8524 61.8582 47.1346C62.8931 47.8873 63.975 48.687 65.0569 49.4867Z" fill="#6B7688"/>
<path d="M86.5074 54.096C86.7896 54.3312 87.7775 52.5908 87.8715 52.4026C87.9656 52.2144 88.9535 50.6151 88.6242 50.3328L85.4254 47.9808C85.1432 47.7456 84.1554 49.4861 84.0613 49.6742C83.9672 49.8624 82.9793 51.4618 83.3086 51.744C84.3435 52.4967 85.4254 53.2964 86.5074 54.096Z" fill="#6B7688"/>
<path d="M35.7976 78.5566H37.5852L39.5138 86.5065H38.0085L37.6792 84.813H35.7506L35.4213 86.5065H33.916L35.7976 78.5566ZM35.9858 83.4959H37.397L36.6914 79.9208L35.9858 83.4959Z" fill="#6B7688"/>
<path d="M40.7371 86.5065V78.5566H42.1953V85.1893H44.7825V86.5065H40.7371Z" fill="#6B7688"/>
<path d="M47.7931 78.5566L49.5336 84.0133V78.5566H50.8507V86.5065H49.2043L47.4167 80.9557V86.5065H46.0996V78.5566H47.7931Z" fill="#6B7688"/>
<path d="M54.0493 78.5566H55.8369L57.7655 86.5065H56.2602L55.931 84.813H54.0023L53.673 86.5065H52.1677L54.0493 78.5566ZM54.2375 83.4959H55.6487L54.9431 79.9208L54.2375 83.4959Z" fill="#6B7688"/>
<path d="M60.3998 78.5568V81.7556L62.2344 78.5568H63.8338L61.8581 81.9437L64.0219 86.4596H62.3755L60.8702 83.2138L60.3528 84.1076V86.4596H58.8945V78.5098H60.3998V78.5568Z" fill="#6B7688"/>
<path d="M65.1038 78.5566H66.562V81.6143H68.2555V78.5566H69.7137V86.5065H68.2555V82.9784H66.562V86.5065H65.1038V78.5566Z" fill="#6B7688"/>
<path d="M75.4527 78.5566V79.8738H72.8655V81.7554H75.3116V83.0725H72.8655V85.1893H75.5468V86.5065H71.4072V78.5566H75.4527Z" fill="#6B7688"/>
<path d="M81.0035 78.5566V79.8738H78.4163V81.7554H80.8624V83.0725H78.4163V85.1893H81.0976V86.5065H76.958V78.5566H81.0035Z" fill="#6B7688"/>
<path d="M82.5559 86.5065V78.5566H84.0142V85.1893H86.6014V86.5065H82.5559Z" fill="#6B7688"/>
<path d="M50.9448 33.6348H52.6383V34.2463H51.6504V34.9049H52.5912V35.5164H51.6504V36.269H52.6853V36.8806H50.9448V33.6348Z" fill="#6B7688"/>
<path d="M53.8142 35.844V35.9381C53.8142 36.1733 53.8612 36.3615 54.0964 36.3615C54.2846 36.3615 54.4257 36.2204 54.4257 36.0322V35.9852C54.4257 35.2796 53.1556 35.7029 53.1556 34.4799C53.1086 34.0095 53.4378 33.5861 53.9082 33.5391C53.9553 33.5391 54.0494 33.5391 54.0964 33.5391C54.802 33.5391 55.0372 33.9154 55.0372 34.4328V34.5269H54.3786C54.3786 34.3858 54.3786 34.2447 54.3316 34.1976C54.2846 34.1506 54.2375 34.1035 54.1434 34.1035C53.9553 34.1035 53.8612 34.1976 53.8612 34.4328C53.8612 35.0914 55.1313 34.7621 55.1313 35.8911C55.1313 36.6437 54.755 36.926 54.1434 36.926C53.626 36.926 53.2026 36.7378 53.2026 36.0792V35.8911L53.8142 35.844Z" fill="#6B7688"/>
<path d="M56.1662 34.2463H55.5547V33.6348H57.4833V34.2463H56.8718V36.8335H56.1662V34.2463Z" fill="#6B7688"/>
<path d="M57.5774 36.0332H58.236V36.8329H57.5774V36.0332Z" fill="#6B7688"/>
<path d="M60.729 34.6226H60.1646V34.1522H60.2586C60.7761 34.1522 60.9172 33.87 60.9172 33.6348H61.3876V36.7865H60.682V34.6226H60.729Z" fill="#6B7688"/>
<path d="M63.1282 36.0809C63.1282 36.1749 63.1282 36.269 63.1753 36.3161C63.2223 36.3631 63.2693 36.4101 63.3634 36.4101C63.5986 36.4101 63.6457 36.222 63.6457 35.5164C63.5516 35.7045 63.3634 35.7986 63.1282 35.7986C62.7048 35.7986 62.4226 35.5164 62.4226 34.8108C62.4226 34.1993 62.6108 33.6348 63.3634 33.6348C64.2101 33.6348 64.3042 34.2463 64.3042 35.1871C64.3042 36.222 64.2572 36.8806 63.3164 36.8806C62.7989 36.8806 62.4697 36.6453 62.4697 36.0809H63.1282ZM63.6457 34.7637C63.6457 34.3874 63.5986 34.1522 63.4105 34.1522C63.2223 34.1522 63.1753 34.3404 63.1753 34.7167C63.1753 35.093 63.2223 35.2812 63.4105 35.2812C63.5986 35.2812 63.6457 35.046 63.6457 34.7637Z" fill="#6B7688"/>
<path d="M66.6561 34.4813C66.6561 34.8577 66.515 35.0929 66.2327 35.1399C66.562 35.1869 66.7031 35.4692 66.7031 35.8925C66.7031 36.41 66.515 36.8804 65.7623 36.8804C65.0097 36.8804 64.8215 36.457 64.8215 35.8925C64.8215 35.5162 64.9627 35.1869 65.2919 35.1399C65.0097 35.0458 64.8686 34.7636 64.9156 34.4813C64.9156 34.0109 65.1508 33.6816 65.8094 33.6816C66.4679 33.6816 66.6561 33.9639 66.6561 34.4813ZM65.5271 35.9396C65.5271 36.2218 65.5742 36.457 65.8094 36.457C66.0446 36.457 66.0916 36.2218 66.0916 35.9396C66.0916 35.6573 66.0446 35.4221 65.8094 35.4221C65.5742 35.4221 65.5271 35.6573 65.5271 35.9396ZM66.0446 34.5284C66.0446 34.2932 65.9975 34.152 65.8094 34.152C65.6212 34.152 65.5742 34.3402 65.5742 34.5284C65.5742 34.8577 65.6683 34.9517 65.8094 34.9517C65.9505 34.9517 66.0446 34.8577 66.0446 34.5284Z" fill="#6B7688"/>
<path d="M68.3967 34.4813C68.3967 34.3872 68.3967 34.2932 68.3497 34.2461C68.3026 34.1991 68.2556 34.152 68.1615 34.152C67.9263 34.152 67.8793 34.3402 67.8793 35.0458C67.9734 34.8577 68.1615 34.7636 68.3967 34.7636C68.8201 34.7636 69.1023 35.0458 69.1023 35.7514C69.1023 36.3629 68.9142 36.9274 68.1615 36.9274C67.3148 36.9274 67.2207 36.3159 67.2207 35.3751C67.2207 34.3402 67.2677 33.6816 68.2086 33.6816C68.726 33.6816 69.0553 33.9168 69.0553 34.4813H68.3967ZM68.4438 35.8925C68.4438 35.5162 68.3967 35.3281 68.2086 35.3281C68.0204 35.3281 67.9734 35.5633 67.9734 35.8455C67.9734 36.2218 68.0204 36.457 68.2086 36.457C68.3967 36.457 68.4438 36.2218 68.4438 35.8925Z" fill="#6B7688"/>
</svg>
