<svg id="Layer_1" data-name="Layer 1" xmlns="http://www.w3.org/2000/svg" viewBox="0 0 120 120"><path d="M10.85,89.38H5.77V44.32h44.7c19.61,0,22.7,17.61,22.7,17.61l11-17.61H95.71l21.07,34.17-6.6,10.89H82.39V84h31.09L89.93,44.32s-15.52,27-18.85,32.26-9.59,12.8-20.31,12.8H34.17V62.55h5.26V83.94h12.1c5.35,0,16.83-4.55,16.83-17.44S56.09,49.58,52.06,49.58H10.85v39.8Zm1.76,0V70.27H32.24v5.26H17.87V89.38ZM32.24,68V62.56H17.87V56.79H51c5,0,10.23,4,10.23,9.89s-5.33,9.9-9.12,9.9H46.9v-14H41.47V81.84H52.06a15,15,0,0,0,14.46-15c0-9.08-7-15.34-15.49-15.34H12.61V68H32.24ZM65.82,89.38l24.11-39.8,19.81,32.26H82.39V76.58H100.1L89.93,60,73.19,89.38Z" fill="#6b7688"/></svg>