<svg id="Layer_1" data-name="Layer 1" xmlns="http://www.w3.org/2000/svg" viewBox="0 0 120 120"><path d="M51.57,88.49c.61-2-2.35-2.8-3.9-3.81-16.62-10.74-17-38.45,0-49.61,1.92-1.26,3.77-2.63,5.66-4-11.46.8-21.83,4.38-30.48,12-11.07,9.73-11.26,23-.54,33.08,6.77,6.34,15,9.8,24,11.68C48.12,88.25,51.25,89.59,51.57,88.49Z" fill="#6b7688"/><path d="M90.07,59.87c.07,12.73-6.16,21.61-16.56,28.31,10.34-1.06,19.61-4.25,27.28-11.2,11.3-10.22,11.21-24.08-.21-34.22A46.51,46.51,0,0,0,79,32.16c-1.77-.37-3.53-1-5.78-.1C84.15,38.35,90,47.3,90.07,59.87Z" fill="#6b7688"/><path d="M54.7,43.33H70.81c-3.65-1.95-3.33-4.67-3.3-7.34q.17-12.84.27-25.68c0-1.9,0-3.79,2.57-5.31H55.13c2.53,1.37,2.27,3.66,2.26,5.88,0,8.34,0,16.68,0,25C57.41,38.54,57.65,41.2,54.7,43.33Z" fill="#6b7688"/><path d="M78.85,110.05c-4.28-9.76-8.71-19.46-13.14-29.15-.47-1-.62-2.4-2.07-3-1.4,2.54-5.55,9.73-6.33,11.3C54,95.93,51,102.41,47.67,108.93c-1.63,3.24-2.83,7-6.93,8H52.85c-5.44-1.7-5.46-1.75-3.72-5.92,3-7.19,3-7.19,10.85-7.19h1.33c7.5,0,7.37,0,10.28,6.94,1.28,3,1.64,5.26-2.19,6.19H85.17C81.74,115.75,80.19,113.1,78.85,110.05ZM66.23,102.4c-3.56,0-7.13-.1-10.69.08-2.58.13-2.45-.81-1.55-2.64,1.85-3.76,4.59-9.81,6.4-13.69,3.52,4.58,4.9,10.18,7.33,15.27C68.29,102.63,66.86,102.39,66.23,102.4Z" fill="#6b7688"/><path d="M99.76,96.45c.2-.24.38-.49.6-.71,2.5-2.41,2.75-4.66.72-6.51s-6.9-1.85-8.49.22a1.87,1.87,0,0,0-.36,2.14,1.47,1.47,0,0,0,1.63.87,1,1,0,0,0,.86-1.2C94.5,89.52,95.2,88.7,97,89s2.27,1.47,2.5,3c.41,2.91-2.06,3.47-4,4.66,4.22,1.44,5.57,3.62,4.3,6.61a3.47,3.47,0,0,1-3.41,2.2c-.87,0-1.83-.28-1.77-1.51,0-1,.12-2.06-1.31-2.21a1.54,1.54,0,0,0-1.78,1.16c-.33,1.28.56,2.06,1.51,2.7a7.3,7.3,0,0,0,9.06-1.55C104.12,101.4,103.52,99.38,99.76,96.45Z" fill="#6b7688"/></svg>