<svg id="Layer_1" data-name="Layer 1" xmlns="http://www.w3.org/2000/svg" viewBox="0 0 120 120"><path d="M58.05,13.35a74.51,74.51,0,0,1-14.68,5.17v26.1a14.69,14.69,0,1,0,29.38,0V18.52A74.69,74.69,0,0,1,58.05,13.35Zm-6.62,8.29a8,8,0,0,1,5.47-1.05,4.82,4.82,0,0,0-2.09-1.18,5.94,5.94,0,0,1,2.66.29,8.3,8.3,0,0,1,.58-1.85,8.77,8.77,0,0,1,.59,1.85,6,6,0,0,1,2.67-.29,4.82,4.82,0,0,0-2.09,1.18,8,8,0,0,1,5.47,1.05,7.91,7.91,0,0,0-4.53.24,6.57,6.57,0,0,1,4.53,3.76,9.38,9.38,0,0,0-4.81-2.35,6.31,6.31,0,0,1,1.56,3.89,7.45,7.45,0,0,0-2.86-3.24c0,.61,0,1.29,0,2.08,0,2.44.07,4.63.16,6.36a2.51,2.51,0,0,1,.68-.17,3.5,3.5,0,0,0-.59.72,3.45,3.45,0,0,1,1.16,0,.06.06,0,0,0,0,0,15.64,15.64,0,0,0-1.91.91,16.08,16.08,0,0,0-2.08-1v0a3.18,3.18,0,0,1,1.27,0,3,3,0,0,0-.57-.69,2.33,2.33,0,0,1,.74.2c.09-1.74.15-3.94.15-6.39,0-.79,0-1.47,0-2.08a7.38,7.38,0,0,0-2.86,3.24,6.31,6.31,0,0,1,1.56-3.89,9.37,9.37,0,0,0-4.8,2.35A6.55,6.55,0,0,1,56,21.88,7.91,7.91,0,0,0,51.43,21.64ZM64.26,52.69a10.63,10.63,0,0,1-2.47-.6,3.43,3.43,0,0,0-3.74.84,3.41,3.41,0,0,0-3.73-.84,10.75,10.75,0,0,1-2.48.6l-1.73-8a6.94,6.94,0,0,0,3.8-.71,3.75,3.75,0,0,1,3-.28,3.2,3.2,0,0,1,1.18,2.22v0a3.24,3.24,0,0,1,1.19-2.22,3.73,3.73,0,0,1,3,.28,7,7,0,0,0,3.8.71Zm2.58-19.26a11,11,0,0,0-1.14.1c-.18,0-.36.06-.56.11s-.39.07-.59.12c0,0,0,0-.06,0a11.61,11.61,0,0,0-1.41.47l-.62.26a14,14,0,0,0-1.56.82l-.17.1-.67.41-.69.46-.43.28,1.52,1c.27-.18.51-.27.64-.18a.28.28,0,0,1,.09.14A.85.85,0,0,1,61,38c.73.48,1,.71,1.21.82a.66.66,0,0,1,.56-.28.61.61,0,0,1,.64.56.54.54,0,0,1-.32.46.84.84,0,0,1-.44.09,4.93,4.93,0,0,1-2.27-1,1.21,1.21,0,0,1-.61.29.42.42,0,0,1-.13,0s-.06-.09-.08-.14a.78.78,0,0,1,.2-.51,1.2,1.2,0,0,0-.17-.11c-.42-.27-.94-.59-1.56-1-.61.41-1.11.73-1.55,1l-.16.11a.81.81,0,0,1,.19.51.31.31,0,0,1-.07.14.42.42,0,0,1-.14,0,1.19,1.19,0,0,1-.6-.29,5,5,0,0,1-2.29,1,.83.83,0,0,1-.43-.09.51.51,0,0,1-.31-.46.6.6,0,0,1,.63-.56.71.71,0,0,1,.58.28c.13-.11.47-.34,1.18-.82a.73.73,0,0,1-.15-.44.21.21,0,0,1,.07-.14c.14-.09.38,0,.66.18l1.5-1-.41-.28c-.25-.17-.47-.32-.7-.46l-.67-.41-.16-.1a15,15,0,0,0-1.56-.82L53,34.26a13.92,13.92,0,0,0-1.36-.47.47.47,0,0,0-.17,0,3.64,3.64,0,0,0-.53-.12c-.19,0-.38-.08-.56-.11a11.11,11.11,0,0,0-1.13-.1h-.1a6.7,6.7,0,0,1,2-.09c.23,0,.48,0,.74.07l.4.06.85.18a1.88,1.88,0,0,1,.45.12,11.94,11.94,0,0,1,2.38.94,7.58,7.58,0,0,1,.68.37c.36.2.73.44,1.11.7l.27.19c.09-.06.2-.12.29-.19.38-.26.74-.5,1.1-.7a7.73,7.73,0,0,1,.69-.37,11.64,11.64,0,0,1,2.37-.94,2.09,2.09,0,0,1,.46-.12l.85-.18.39-.06c.26,0,.52-.06.74-.07a6.65,6.65,0,0,1,2,.09Z" fill="#6b7688"/><path d="M49.28,33.43a11.11,11.11,0,0,1,1.13.1c-.47-.06-.88-.07-1.23-.09Z" fill="#6b7688"/><path d="M53.66,34.52a15,15,0,0,1,1.56.82C54.66,35,54.14,34.74,53.66,34.52Z" fill="#6b7688"/><path d="M60.9,35.34a14,14,0,0,1,1.56-.82C62,34.74,61.46,35,60.9,35.34Z" fill="#6b7688"/><path d="M66.93,33.44c-.35,0-.76,0-1.23.09a11,11,0,0,1,1.14-.1Z" fill="#6b7688"/><path d="M56.46,46.79a1.15,1.15,0,0,0-1.26,1.14,1,1,0,0,0,1.09,1,1.31,1.31,0,0,0,.74-.21c0,.59-.25.94-.87.94a.67.67,0,0,1-.5-.15h-.28v.54a1.91,1.91,0,0,0,.74.14,1.56,1.56,0,0,0,1.67-1.77C57.79,47.32,57.23,46.79,56.46,46.79Zm0,1.65a.47.47,0,0,1-.51-.53c0-.36.15-.63.53-.63s.57.27.59,1A1,1,0,0,1,56.44,48.44Z" fill="#6b7688"/><polygon points="54.69 46.84 54.69 50.16 53.94 50.16 53.94 47.61 53.55 47.82 53.35 47.82 53.35 47.32 54.19 46.84 54.69 46.84" fill="#6b7688"/><path d="M60.35,49.06c0,.72-.57,1.14-1.38,1.14a1.7,1.7,0,0,1-.91-.24v-.53h.28a.82.82,0,0,0,.62.24.58.58,0,0,0,.65-.58c0-.37-.21-.54-.48-.54a.61.61,0,0,0-.52.23h-.45V46.84h2v.57H58.7v.78h0a1.06,1.06,0,0,1,1.63.87Z" fill="#6b7688"/><polygon points="62.72 46.84 62.72 47.46 61.56 50.16 60.85 50.16 60.85 49.87 62.17 47.43 62.17 47.41 60.46 47.41 60.46 46.84 62.72 46.84" fill="#6b7688"/><path d="M104.13,81.55h-2.41v.9h.45a.47.47,0,0,1,.43.38V91h1.84v-9.1c0-.24-.09-.36-.31-.36Z" fill="#6b7688"/><path d="M70.79,83.84H69v-.77a1.11,1.11,0,0,1,.09-.48.6.6,0,0,1,.25-.27,1,1,0,0,1,.38-.12,3.33,3.33,0,0,1,.46,0h.52v-.8h-.77a2.1,2.1,0,0,0-1.34.4,1.58,1.58,0,0,0-.51,1.3v.77H67v.8h3.82Z" fill="#6b7688"/><path d="M99.8,81.53H97.39v.9h.45a.46.46,0,0,1,.43.39v7H95.68a1.44,1.44,0,0,1-1.28-.54,1.64,1.64,0,0,1-.19-.4,4.75,4.75,0,0,0,.21-1.41c0-2.25-1.58-3.68-3.93-3.68A3.21,3.21,0,0,0,87,87.17v.49c0,2.18-1.75,2.15-2.78,2.15H83.6a2,2,0,0,1-.77-.15,1.32,1.32,0,0,1-.5-.43,1.41,1.41,0,0,1-.26-.61,3.1,3.1,0,0,1-.08-.69V81.87c0-.25-.09-.37-.3-.37H79.27v.9h.45a.48.48,0,0,1,.44.39v6a1.3,1.3,0,0,1-.17.78.76.76,0,0,1-.65.22H77a2,2,0,0,1-.77-.14,1.23,1.23,0,0,1-.5-.39,1.89,1.89,0,0,1-.27-.61,2.9,2.9,0,0,1-.08-.74V81.85c0-.24-.09-.36-.3-.36H72.63v.89h.45a.45.45,0,0,1,.43.38v3.89h0v2.16a1.39,1.39,0,0,1-.16.78.81.81,0,0,1-.67.22H66.23c-.69,0-.89,0-.89,0-1.74-.07-2.62-.76-2.62-2a1.62,1.62,0,0,1,.8-1.51v-.66h-1a3.39,3.39,0,0,0-.69,2.19c0,2.06,1.34,3.1,3.55,3.12H72.8s.78,0,1.07-.1a1.74,1.74,0,0,0,1-.59,2,2,0,0,0,.41-1A2.42,2.42,0,0,0,76,90.49a2,2,0,0,0,1.4.48h2.22a3.58,3.58,0,0,0,1-.13,2.06,2.06,0,0,0,.68-.34,1.61,1.61,0,0,0,.43-.56,2.51,2.51,0,0,0,.19-.69,2.4,2.4,0,0,0,.68,1.24,1.94,1.94,0,0,0,1.23.47h.91a3.73,3.73,0,0,0,2.55-.85,5.25,5.25,0,0,0,3,1c1.86,0,3.1-.67,3.69-1.8a2.27,2.27,0,0,0,.66,1.19,1.81,1.81,0,0,0,1.24.49h4.18V81.9C100.1,81.65,100,81.53,99.8,81.53Zm-7.12,6.13c-.06,1.65-.66,2.46-2.47,2.46A2.85,2.85,0,0,1,88,89.26a3,3,0,0,0,.36-1,11.91,11.91,0,0,0,.22-1.55,1.92,1.92,0,0,1,1.87-2.09,2,2,0,0,1,2.16,2.09A5.72,5.72,0,0,1,92.68,87.66Z" fill="#6b7688"/><path d="M20.16,83.86a7.32,7.32,0,0,0-2.69.39v1.5h1.06c.14-.71.71-.93,1.66-.93,1.48,0,2.4.91,2.4,2.75v2.26h-6V91h7.72V87.55c0-2.3-1.65-3.69-4.17-3.69Z" fill="#6b7688"/><path d="M56,84.5v.94h.61a.43.43,0,0,1,.41.37v1.75h0v2.28H55.55a1.94,1.94,0,0,1-.76-.14,1.23,1.23,0,0,1-.5-.39A1.64,1.64,0,0,1,54,88.7,2.71,2.71,0,0,1,54,88V85.44H51.26v.93h.61a.46.46,0,0,1,.41.36v2.12a1.19,1.19,0,0,1-.17.77,1.23,1.23,0,0,1-.8.22H51a1.91,1.91,0,0,1-.76-.14,1.23,1.23,0,0,1-.5-.39,2.39,2.39,0,0,1-.26-.61,3,3,0,0,1-.07-.76V86.35h-2.7v.93h.61a.44.44,0,0,1,.41.38v1.19a1.19,1.19,0,0,1-.17.77.78.78,0,0,1-.64.22H42.13a3.19,3.19,0,0,1-.75-.08c1.9-1.56,2.94-2.42,3.14-2.57a2.6,2.6,0,0,0-1.36-2.11,6.6,6.6,0,0,0-6.82,0,2.66,2.66,0,0,0-1.41,2.13c1.65,1.39,2.67,2.24,3.09,2.57a2.74,2.74,0,0,1-.7.08H32.9V84.5H30.05a4.51,4.51,0,0,0-1.59.28,4.13,4.13,0,0,0-1.32.77,3.64,3.64,0,0,0-.91,1.21,3.7,3.7,0,0,0-.35,1.59,5.32,5.32,0,0,0,.2,1.35,9.5,9.5,0,0,0,.51,1.3h4.2A3.09,3.09,0,0,1,29,92.31v.82h1.41a5.79,5.79,0,0,0,2-2.13H37.6a4.26,4.26,0,0,0,2.1-.63,4.21,4.21,0,0,0,2.21.63H47a3.54,3.54,0,0,0,1-.12,1.72,1.72,0,0,0,.69-.35,1.49,1.49,0,0,0,.43-.54,2.32,2.32,0,0,0,.19-.71,2.43,2.43,0,0,0,.7,1.24,1.92,1.92,0,0,0,1.39.48h.16a2.49,2.49,0,0,0,1.72-.47,2,2,0,0,0,.62-1.25,2.42,2.42,0,0,0,.69,1.24A2,2,0,0,0,56,91h2.65V84.5ZM31.05,89.84h-2.9a3.37,3.37,0,0,1-.33-.88,3.82,3.82,0,0,1-.1-.9,2.53,2.53,0,0,1,.22-1.13,2.45,2.45,0,0,1,.58-.74,1.86,1.86,0,0,1,.71-.4,2.68,2.68,0,0,1,.7-.1h1.12Zm5.53-3a1.69,1.69,0,0,1,.88-1,4.76,4.76,0,0,1,2.29-.5,4.83,4.83,0,0,1,2.3.5,1.48,1.48,0,0,1,.83,1l-3.13,2.65C38.32,88.31,37.29,87.43,36.58,86.82Z" fill="#6b7688"/><path d="M22.64,67.56a1,1,0,0,0,.68-.24.81.81,0,0,0,.27-.62.74.74,0,0,0-.27-.57,1,1,0,0,0-1.35,0,.72.72,0,0,0-.28.57.79.79,0,0,0,.28.62,1,1,0,0,0,.67.24Z" fill="#6b7688"/><path d="M20,67.56a1,1,0,0,0,.68-.24.8.8,0,0,0,.29-.62.73.73,0,0,0-.29-.57,1,1,0,0,0-.68-.25,1,1,0,0,0-.67.25.75.75,0,0,0-.28.57.82.82,0,0,0,.28.62,1,1,0,0,0,.67.24Z" fill="#6b7688"/><path d="M99.94,77.42a1,1,0,0,0-.68.24.79.79,0,0,0,0,1.19,1.08,1.08,0,0,0,1.36,0,.79.79,0,0,0,0-1.19,1,1,0,0,0-.68-.24Z" fill="#6b7688"/><path d="M66.54,69.15A3.2,3.2,0,0,0,63,72.55V73c0,2-1.43,2.12-2.46,2.15H46a4.65,4.65,0,0,1-.75-.06c1.88-1.56,2.93-2.41,3.11-2.56A2.53,2.53,0,0,0,47,70.47a5.9,5.9,0,0,0-3.38-1,6,6,0,0,0-3.39.92,2.64,2.64,0,0,0-1.4,2.11c1.64,1.38,2.65,2.24,3.08,2.56a4.14,4.14,0,0,1-.7.06H24.43V69.3h-1c-.21,0-.53.26-.64.81a3.36,3.36,0,0,0-2.47-.88,3.36,3.36,0,0,0-3.47,3.68c0,2.71,1.71,3.46,3.33,3.46a3.71,3.71,0,0,0,2.55-.93v.73s0,0,0,.06.14.11.29.11H41.5a4.28,4.28,0,0,0,2.1-.63,4.2,4.2,0,0,0,2.19.63h15a3.78,3.78,0,0,0,2.55-.84,5.34,5.34,0,0,0,3,.94c2.7,0,4.08-1.38,4.08-3.62S68.87,69.15,66.54,69.15Zm-43.78,5.5a3.07,3.07,0,0,1-2.06.81c-1,0-2.11-.43-2.11-2.56s1.15-2.64,2.34-2.64a3.34,3.34,0,0,1,1.83.58ZM40.5,72.2a1.66,1.66,0,0,1,.85-1,5.49,5.49,0,0,1,4.58,0,1.51,1.51,0,0,1,.82,1l-3.11,2.62C42.23,73.67,41.2,72.79,40.5,72.2ZM68.72,73c-.06,1.65-.65,2.47-2.47,2.47a3,3,0,0,1-2.17-.86,3,3,0,0,0,.37-1,10.67,10.67,0,0,0,.19-1.54,1.94,1.94,0,0,1,1.9-2.08,2,2,0,0,1,2.15,2.08S68.73,72.67,68.72,73Z" fill="#6b7688"/><path d="M104.66,75.19H104a.42.42,0,0,1-.34-.28l-.6-2.62a4.26,4.26,0,0,0-2.84-2.83,9.28,9.28,0,0,0-1.4-.2h-.22a9.42,9.42,0,0,0-3.59.63l-.15.07V71h.83l.09-.07a5.5,5.5,0,0,1,2.73-.66h.18a2.9,2.9,0,0,1,2.89,2.13l.55,2.76H75.53V67.25c0-.24-.08-.37-.3-.37H72.82v.9h.45a.47.47,0,0,1,.43.38v8.18h31Z" fill="#6b7688"/><path d="M16.61,104.6H17a.33.33,0,0,0,.28-.3V99.71a.33.33,0,0,0-.28-.3h-.38v-.6h2.45v.6h-.74v2.81l2.2-2.31c.28-.3.21-.5-.11-.5h-.16v-.6h2.21v.6H22.2a.8.8,0,0,0-.5.3L20,101.44l1.93,2.86a.55.55,0,0,0,.41.3h.24v.58H20.9v-.55l-1.65-2.46-.93.93v1.5h.74v.58H16.61Z" fill="#6b7688"/><path d="M25.06,104.6a.28.28,0,0,1-.25-.25v-3.51c0-.32,0-.43-.19-.43H23.18V101h.41a.28.28,0,0,1,.25.25v3.06a.3.3,0,0,1-.26.25h-.35v.57h2.18v-.57Zm-.77-5.79a.55.55,0,1,0,.56.54A.54.54,0,0,0,24.29,98.81Z" fill="#6b7688"/><path d="M26,104.6h.36a.27.27,0,0,0,.24-.25v-3.06a.29.29,0,0,0-.24-.26H26v-.62H27.4c.13,0,.23.13.23.59v.12a2.81,2.81,0,0,1,1.87-.76c.68,0,1.24.24,1.24,1.18v2.81a.27.27,0,0,0,.24.25h.3v.58H29.11v-.58h.65v-2.73c0-.59-.26-.74-.74-.74a2.68,2.68,0,0,0-1.39.46v3h.66v.58H26Z" fill="#6b7688"/><path d="M35.69,101h.41v-.63H34.46a3.8,3.8,0,0,0-.59-.06c-1.14,0-1.82.64-1.82,1.53a1.35,1.35,0,0,0,.54,1.13,1.18,1.18,0,0,0-.48.89.69.69,0,0,0,.38.64,1.2,1.2,0,0,0-.83,1.07c0,.65.56,1.14,2,1.14,1.76,0,2.41-.7,2.41-1.62s-.5-1.19-1.44-1.19H33.29c-.29,0-.44-.1-.44-.33a.82.82,0,0,1,.12-.41,2.17,2.17,0,0,0,.9.15c1.12,0,1.82-.59,1.82-1.47a1.13,1.13,0,0,0-.22-.68C35.47,101.1,35.59,101,35.69,101Zm-2.82,3.75h1.54c.53,0,.75.17.75.55s-.44.77-1.44.77-1.17-.27-1.17-.7A.77.77,0,0,1,32.87,104.79Zm1-2a.91.91,0,1,1,.91-.91A.83.83,0,0,1,33.87,102.79Z" fill="#6b7688"/><path d="M39.59,104.94c-.07,0-.12.1-.13.24h-.7v-1.86h.72l.09.77a1.67,1.67,0,0,0,1.33.49c.73,0,1.21-.34,1.21-1,0-.86-.64-1-1.57-1.22-1.12-.31-1.67-.77-1.67-1.85s.85-1.72,2-1.72A2.34,2.34,0,0,1,42,99c.06,0,.12-.11.13-.2h.66v1.68h-.7l-.08-.63a1.53,1.53,0,0,0-1.16-.44c-.66,0-1.12.26-1.12,1s.58.87,1.46,1.1c1.21.33,1.83.72,1.83,1.9s-.74,1.87-2.15,1.87a2.45,2.45,0,0,1-1.32-.3Z" fill="#6b7688"/><path d="M48.05,104.6a.27.27,0,0,1-.29-.29v-2.55c0-1-.65-1.41-1.77-1.41a4.22,4.22,0,0,0-1.86.38v.76h.45a1.72,1.72,0,0,1,1.24-.45c.61,0,1,.22,1,.83v.62a4.55,4.55,0,0,0-1.09-.12c-1.11,0-1.88.45-1.88,1.44a1.36,1.36,0,0,0,1.54,1.42,1.73,1.73,0,0,0,1.46-.65c.07.44.35.65.86.65a1.11,1.11,0,0,0,.62-.15v-.48Zm-1.27-.52a1.48,1.48,0,0,1-1.12.52c-.55,0-.88-.23-.88-.81s.42-.85,1.1-.85a5,5,0,0,1,.9.1Z" fill="#6b7688"/><path d="M49.24,104.06v-2.78A.28.28,0,0,0,49,101h-.35v-.62h1.58v3.34c0,.62.32.77.76.77a2.56,2.56,0,0,0,1.36-.47v-3h-.69v-.62h1.67v3.93a.29.29,0,0,0,.26.26h.36v.58H52.57c-.13,0-.22-.11-.22-.56v-.11a2.69,2.69,0,0,1-1.84.73c-.66,0-1.27-.27-1.27-1.18Z" fill="#6b7688"/><path d="M59.23,104.6a.28.28,0,0,1-.24-.26V99.05c0-.15-.06-.24-.18-.24h-1.5v.6H58v1.5a2,2,0,0,0-1.47-.56c-1,0-2.08.69-2.08,2.5s1,2.38,2,2.38a2,2,0,0,0,1.57-.71c0,.52.08.65.2.65h1.36v-.57ZM58,104a1.77,1.77,0,0,1-1.29.64c-.61,0-1.24-.35-1.24-1.81s.68-1.77,1.37-1.77a1.9,1.9,0,0,1,1.16.39Z" fill="#6b7688"/><path d="M62.14,102.91V99.75a.32.32,0,0,0-.29-.3h-.36v-.6H64v.6h-.8V103c0,1.27.63,1.59,1.54,1.59s1.54-.31,1.54-1.59V99.45h-.8v-.6H67.7v.6h-.36a.34.34,0,0,0-.29.3v3.16a2.11,2.11,0,0,1-2.42,2.37,2.17,2.17,0,0,1-2.49-2.37Z" fill="#6b7688"/><path d="M68,104.63h.35a.27.27,0,0,0,.25-.24v-3.07a.3.3,0,0,0-.25-.25H68v-.62h1.4c.13,0,.23.13.22.59v.12a2.83,2.83,0,0,1,1.87-.76c.69,0,1.25.24,1.25,1.18v2.81a.26.26,0,0,0,.23.24h.3v.59H71.08v-.59h.66v-2.72c0-.59-.27-.74-.75-.74a2.79,2.79,0,0,0-1.39.45v3h.67v.59H68Z" fill="#6b7688"/><path d="M75.57,104.63a.27.27,0,0,1-.26-.25v-3.51c0-.3,0-.41-.17-.41H73.7v.61h.4a.29.29,0,0,1,.24.25v3.06a.28.28,0,0,1-.24.25h-.36v.59h2.18v-.59Zm-.77-5.79a.56.56,0,0,0-.56.56.54.54,0,0,0,.56.54.55.55,0,0,0,.56-.54A.57.57,0,0,0,74.8,98.84Z" fill="#6b7688"/><path d="M76.52,101.36a.4.4,0,0,0-.34-.29H76v-.62h2.1v.62h-.67l1.18,3.19h0l1-2.66c.11-.3.09-.53-.25-.53h-.23v-.62h1.9v.62H80.9a.42.42,0,0,0-.37.3L79,105.22h-.9Z" fill="#6b7688"/><path d="M85.52,102.69c0-1.59-.77-2.29-2.1-2.29a2.24,2.24,0,0,0-2.32,2.45,2.2,2.2,0,0,0,2.42,2.43,3.1,3.1,0,0,0,1.85-.5v-.67h-.54a1.45,1.45,0,0,1-1.23.53c-1,0-1.44-.54-1.47-1.65h3.39Zm-3.38-.29c.1-.94.57-1.4,1.28-1.4s1.09.38,1.12,1.4Z" fill="#6b7688"/><path d="M86.25,104.63h.35a.27.27,0,0,0,.25-.24v-3.07a.3.3,0,0,0-.25-.25h-.39v-.62H87.6c.14,0,.23.12.23.64v.15a1.78,1.78,0,0,1,1.42-.82,1.12,1.12,0,0,1,.27,0v.81h-.19a2.06,2.06,0,0,0-1.5.48v2.89h.75v.59H86.25Z" fill="#6b7688"/><path d="M89.91,105v-1h.59c.11.44.42.62,1.06.62s1-.23,1-.72-.33-.58-1.14-.7c-1-.15-1.49-.46-1.49-1.4s.68-1.41,1.82-1.41a4.24,4.24,0,0,1,1.56.24v.94h-.57c-.1-.35-.36-.53-1-.53s-.92.24-.92.63.25.56,1.08.69c1.09.16,1.6.46,1.6,1.4s-.64,1.5-2,1.5a4.1,4.1,0,0,1-1.66-.27Z" fill="#6b7688"/><path d="M95.89,104.63a.25.25,0,0,1-.24-.25v-3.51c0-.3-.06-.41-.19-.41H94v.61h.41a.29.29,0,0,1,.23.25v3.06a.26.26,0,0,1-.24.25h-.35v.59h2.18v-.59Zm-.76-5.79a.56.56,0,0,0-.56.56.54.54,0,0,0,.56.54.56.56,0,0,0,.56-.54A.57.57,0,0,0,95.13,98.84Z" fill="#6b7688"/><path d="M96.94,104.09v-3h-.61v-.62h.61V99.17h1v1.28H99v.62H97.92V104c0,.54.18.65.66.65h.48v.53a2.22,2.22,0,0,1-.79.12c-.84,0-1.33-.3-1.33-1.19Z" fill="#6b7688"/><path d="M100.32,106.14a2.4,2.4,0,0,0,1.32-1L100,101.36a.4.4,0,0,0-.34-.29h-.17v-.62h2.11v.62h-.7l1.22,2.93,1-2.4c.13-.31.11-.53-.23-.53h-.23v-.62h1.94v.62h-.21a.43.43,0,0,0-.35.3l-1.51,3.48a3.79,3.79,0,0,1-1.39,1.84h-.83Z" fill="#6b7688"/></svg>