<svg xmlns="http://www.w3.org/2000/svg" xmlns:xlink="http://www.w3.org/1999/xlink" viewBox="0 0 120 120"><defs><linearGradient id="linear-gradient" x1="43.44" y1="57.45" x2="76.28" y2="42.33" gradientUnits="userSpaceOnUse"><stop offset="0" stop-color="#606163"/><stop offset="0.25" stop-color="#fff" stop-opacity="0"/><stop offset="0.33" stop-color="#e2e2e3" stop-opacity="0.18"/><stop offset="0.49" stop-color="#989899" stop-opacity="0.64"/><stop offset="0.6" stop-color="#5e5e60"/><stop offset="1" stop-color="#fff" stop-opacity="0.31"/></linearGradient><radialGradient id="radial-gradient" cx="59.86" cy="49.89" r="16.8" gradientUnits="userSpaceOnUse"><stop offset="0" stop-color="silver"/><stop offset="0.36" stop-color="#bebebe"/><stop offset="0.53" stop-color="#b7b6b7"/><stop offset="0.66" stop-color="#aaa"/><stop offset="0.77" stop-color="#989798"/><stop offset="0.86" stop-color="#808081"/><stop offset="0.95" stop-color="#646365"/><stop offset="1" stop-color="#4d4c4e"/></radialGradient></defs><g style="isolation:isolate"><g id="Layer_1" data-name="Layer 1"><path d="M24.12,73.59a.38.38,0,0,0,.39-.38.39.39,0,1,0-.77,0,.37.37,0,0,0,.38.38" fill="#3e3d40"/><path d="M23,73.59a.37.37,0,0,0,.38-.38.39.39,0,1,0-.77,0,.38.38,0,0,0,.39.38" fill="#3e3d40"/><path d="M24.21,76.67a.88.88,0,0,1-.81.68c-.32,0-.8-.34-.8-1.45,0-.78.27-1.5.86-1.5.75,0,.84.72.84,1.36a3.14,3.14,0,0,1-.09.91m4.38-1.59a.39.39,0,0,0,.43.38.43.43,0,0,0,.44-.45,1,1,0,0,0-1.08-.85,1.73,1.73,0,0,0-1.76,1.73,1.7,1.7,0,0,0,.74,1.44h-2c-.36,0-.39-.4-.39-.61v-2a2.16,2.16,0,0,1,0-.55h-.38a.17.17,0,0,0-.05.11.77.77,0,0,1-.08.19l-.13-.08a1.49,1.49,0,0,0-.89-.3,1.62,1.62,0,0,0-1.54,1.72,1.6,1.6,0,0,0,1.38,1.75,1.14,1.14,0,0,0,1.09-.79c0,.69.43.78.94.79h3a1.49,1.49,0,0,0,1.09-.42l-.19-.13a1.11,1.11,0,0,1-.77.27c-.74,0-1.07-.65-1.07-1.53s.36-1.4,1-1.4a.73.73,0,0,1,.7.36H29a.31.31,0,0,0-.36.33" fill="#3e3d40"/><path d="M31,77.61V72.78l-1,.19c.31.11.32.16.32.34v4.3Z" fill="#3e3d40"/><path d="M33.39,74.24l-1,.19c.33.11.34.16.34.34v1.92A2,2,0,0,1,31,78.94l.54,0c1.69,0,1.82-1.5,1.82-2.85Z" fill="#3e3d40"/><path d="M35.15,73.64a.39.39,0,1,0-.39-.39.39.39,0,0,0,.39.39" fill="#3e3d40"/><path d="M37.26,73.31V76.6c0,.45-.18.73-.6.73H35.54a8,8,0,0,0,.08-1.21V74.24l-1,.19c.33.11.33.16.33.34v1.92a2,2,0,0,1-1.69,2.25l.54,0a1.56,1.56,0,0,0,1.68-1.36h1.34a1,1,0,0,0,1.1-1V72.78l-1,.19c.33.11.33.16.33.34" fill="#3e3d40"/><path d="M38.92,73.31v4.3h.66V72.78l-1,.19c.31.11.32.16.32.34" fill="#3e3d40"/><path d="M42.52,76.24c0,.59-.35,1.13-.8,1.13s-.65-.54-.65-1c0-1.13.7-1.88,1.37-1.88h.08Zm-2.11.19a1.22,1.22,0,0,0,1.15,1.18h0a1,1,0,0,0,.93-.54,1.86,1.86,0,0,1-1.62,1.86l-.18,0,.62,0c.81,0,1.83-.32,1.83-2.88V74.27h-.57a2.07,2.07,0,0,0-2.2,2.16" fill="#3e3d40"/><path d="M46.82,77.35c-.61,0-.88-.53-.88-1.47s.27-1.48.88-1.48.86.52.86,1.48-.27,1.47-.86,1.47m0-3.21a1.74,1.74,0,1,0,1.58,1.74,1.63,1.63,0,0,0-1.58-1.74" fill="#3e3d40"/><path d="M52.3,78.3a.37.37,0,0,0-.38.38.39.39,0,1,0,.77,0,.38.38,0,0,0-.39-.38" fill="#3e3d40"/><path d="M51.22,78.3a.38.38,0,0,0-.39.38.39.39,0,1,0,.77,0,.37.37,0,0,0-.38-.38" fill="#3e3d40"/><path d="M56.07,77.67a1.42,1.42,0,0,1-1-.63l0,0a3.35,3.35,0,0,0,.27-.81l0,0c.15-.59.3-1.13.78-1.13h0c.55,0,.81.7.81,1.41s-.4,1.25-.88,1.25M59.5,73.3v3.3c0,.44-.17.73-.57.73h-.58c-.33,0-.6-.32-.73-.67a1.24,1.24,0,0,0,0-.27,1.55,1.55,0,0,0-1.4-1.62c-1.11,0-1.3.69-1.48,1.4a2.58,2.58,0,0,1-.44,1,.81.81,0,0,1-.29.11h-.59c-.53,0-.85-.69-.85-1.16V74.24l-1,.19c.3.11.33.14.33.3v1.9c0,.43-.16.7-.56.7h-.59c-.32,0-.5-.24-.5-.64V72.8l-1.2,0v.25c.43,0,.54.07.54.25v3.31c0,.72.48,1,1.11,1h.77A1.1,1.1,0,0,0,52.63,77a1.15,1.15,0,0,0,.94.59H54a1,1,0,0,0,.79-.32,1.44,1.44,0,0,0,1.23.64,1.49,1.49,0,0,0,1.42-.83,1.17,1.17,0,0,0,1,.51h.54a1,1,0,0,0,1.1-1V72.78l-1,.19c.34.1.35.15.35.33" fill="#3e3d40"/><path d="M61.15,73.31v4.3h.67V72.78l-1,.19c.32.11.32.16.32.34" fill="#3e3d40"/><path d="M64.75,76.24c0,.59-.34,1.13-.79,1.13s-.66-.54-.66-1c0-1.13.71-1.88,1.37-1.88h.08Zm-2.11.19a1.22,1.22,0,0,0,1.16,1.18h0a1,1,0,0,0,.94-.54,1.87,1.87,0,0,1-1.62,1.86L63,79l.62,0c.8,0,1.82-.32,1.82-2.88V74.27h-.57a2.07,2.07,0,0,0-2.2,2.16" fill="#3e3d40"/><path d="M68.59,73.59a.38.38,0,0,0,.39-.38.39.39,0,0,0-.39-.39.38.38,0,0,0-.38.39.37.37,0,0,0,.38.38" fill="#3e3d40"/><path d="M69.68,73.59a.37.37,0,0,0,.38-.38.39.39,0,1,0-.77,0,.38.38,0,0,0,.39.38" fill="#3e3d40"/><path d="M73.34,73.2H73c-.28,0-.47-.35-.47-.57s.09-.33.22-.33a.17.17,0,0,1,.13,0,.37.37,0,0,0-.12.19c0,.11.11.18.25.18s.25,0,.25-.21a.45.45,0,0,0-.5-.4.58.58,0,0,0-.62.61.73.73,0,0,0,.28.48h-.33l-.09.24h1.35Z" fill="#3e3d40"/><path d="M75.35,78.3a.37.37,0,0,0-.38.38.38.38,0,1,0,.76,0,.37.37,0,0,0-.38-.38" fill="#3e3d40"/><path d="M74.27,78.3a.37.37,0,0,0-.39.38.38.38,0,0,0,.39.39.39.39,0,0,0,.38-.39.38.38,0,0,0-.38-.38" fill="#3e3d40"/><path d="M77.79,78.21a.4.4,0,0,0-.39.4.39.39,0,0,0,.78,0,.4.4,0,0,0-.39-.4" fill="#3e3d40"/><path d="M69.77,76.67a.91.91,0,0,1-.82.68c-.31,0-.8-.34-.8-1.45,0-.78.28-1.5.86-1.5.76,0,.84.72.84,1.36a3.62,3.62,0,0,1-.08.91M80,73.31V76.6c0,.45-.17.73-.59.73H79.2c-.53,0-.85-.69-.85-1.16V74.24l-1,.19c.3.11.33.14.33.3v1.9c0,.43-.16.7-.56.7h-.64c-.52,0-.84-.69-.84-1.16V74.24l-1,.19c.3.11.33.14.33.3v1.9c0,.43-.17.7-.57.7H74c-.52,0-.84-.69-.84-1.16V74.24l-1,.19c.3.11.33.14.33.3v1.9c0,.43-.17.7-.57.7H70.88c-.35,0-.39-.4-.39-.6v-2a2.74,2.74,0,0,1,.05-.55h-.38s0,.08,0,.11a.77.77,0,0,1-.08.19l-.13-.08a1.49,1.49,0,0,0-.89-.3,1.62,1.62,0,0,0-1.54,1.72,1.6,1.6,0,0,0,1.38,1.75,1.16,1.16,0,0,0,1.1-.79c0,.69.42.78.93.79h1.19A1.09,1.09,0,0,0,73.18,77a1.15,1.15,0,0,0,.9.58h.48A1.09,1.09,0,0,0,75.67,77a1.17,1.17,0,0,0,.94.59h.65A1.1,1.1,0,0,0,78.38,77a1.13,1.13,0,0,0,.89.58h.33a1,1,0,0,0,1.09-1V72.78l-1,.19c.33.11.33.16.33.34" fill="#3e3d40"/><path d="M81.7,73.31v4.3h.66V72.78l-1,.19c.32.11.33.16.33.34" fill="#3e3d40"/><path d="M86.55,73.44a.39.39,0,1,0-.38-.38.37.37,0,0,0,.38.38" fill="#3e3d40"/><path d="M86,77.35c-.6,0-.87-.53-.87-1.47s.27-1.48.87-1.48.87.52.87,1.48-.27,1.47-.87,1.47m0-3.21a1.74,1.74,0,1,0,1.59,1.74A1.63,1.63,0,0,0,86,74.14" fill="#3e3d40"/><path d="M85.46,73.44a.39.39,0,1,0-.38-.38.37.37,0,0,0,.38.38" fill="#3e3d40"/><path d="M89.27,74.77v1.92a2,2,0,0,1-1.69,2.25l.54,0c1.69,0,1.82-1.5,1.82-2.85V74.24l-1,.19c.33.11.33.16.33.34" fill="#3e3d40"/><path d="M91.6,77.61V72.78l-1,.19c.32.11.33.16.33.34v4.3Z" fill="#3e3d40"/><path d="M93.29,74.73v1.92A2,2,0,0,1,91.6,78.9l.54,0c1.69,0,1.82-1.51,1.82-2.86V74.21l-1,.19c.33.1.33.16.33.33" fill="#3e3d40"/><path d="M93.58,72.67a.39.39,0,0,0-.39.39.39.39,0,1,0,.77,0,.39.39,0,0,0-.38-.39" fill="#3e3d40"/><path d="M96.89,76.24c0,.59-.34,1.13-.79,1.13s-.66-.54-.66-1c0-1.13.71-1.88,1.37-1.88h.08Zm.09-2a2.07,2.07,0,0,0-2.2,2.16,1.22,1.22,0,0,0,1.16,1.18h0a1,1,0,0,0,.94-.54,1.87,1.87,0,0,1-1.62,1.86l-.18,0,.62,0c.8,0,1.82-.32,1.82-2.88V74.27Z" fill="#3e3d40"/><path d="M61.77,92.62a.23.23,0,1,0,0-.45.21.21,0,0,0-.22.23.21.21,0,0,0,.22.22" fill="#59595b"/><path d="M62.4,92.62a.22.22,0,0,0,.22-.22.23.23,0,1,0-.22.22" fill="#59595b"/><path d="M64.23,95.32a.23.23,0,0,0-.23.23.22.22,0,0,0,.23.22.22.22,0,0,0,.22-.22.22.22,0,0,0-.22-.23" fill="#59595b"/><path d="M62.49,93.86a1.89,1.89,0,0,1-.05.53.5.5,0,0,1-.46.39c-.17,0-.46-.18-.46-.83a1.45,1.45,0,0,1,.12-.6.42.42,0,0,1,.37-.26c.42,0,.48.39.48.77M64,93.1h0c.19.07.19.1.19.2v1c0,.27-.1.41-.32.41h-.75c-.15,0-.22-.13-.22-.34V93.3a1.31,1.31,0,0,1,0-.32h-.23a.08.08,0,0,0,0,.06h0a.35.35,0,0,1,0,.11l-.07-.05h0a.88.88,0,0,0-.52-.17.94.94,0,0,0-.89,1,.92.92,0,0,0,.8,1,.66.66,0,0,0,.63-.43c0,.39.27.43.54.43h.83a.55.55,0,0,0,.63-.57V93L64,93.1Z" fill="#59595b"/><path d="M63.6,95.32a.22.22,0,0,0-.22.23.21.21,0,0,0,.22.22.23.23,0,1,0,0-.45" fill="#59595b"/><path d="M66,93h0a.5.5,0,0,0-.39.22c-.2.22-.27.23-.37.24h0l.08.35h0c.23-.34.47-.65.63-.65s.28.4.28,1.09v.53H64.91l.14.17h1.56v-.11c0-.55-.06-1.82-.65-1.83" fill="#59595b"/><path d="M68.29,93.15v1.48a.41.41,0,0,1,0,.12h-.44c-.24,0-.38-.27-.38-.53,0-.65.41-1.08.79-1.08Zm2.67.63a.81.81,0,0,1-.51.76,3.77,3.77,0,0,1-.33-.56,2.39,2.39,0,0,0-.34-.57,1.5,1.5,0,0,1,.7-.2.45.45,0,0,1,.36.16.65.65,0,0,1,.12.41m4.87-1.52h0c.19.07.19.09.19.19v1.9c0,.28-.12.41-.34.41h-.15c-.25,0-.42-.26-.48-.51V93l-.56.11h0c.19.06.19.09.19.19v1.07c0,.27-.12.41-.34.41h-.06a.43.43,0,0,1-.28-.24.83.83,0,0,1-.12-.44v-.95l-.6.11h0c.2.07.2.09.2.17v.94c0,.27-.12.41-.35.41s-.42-.31-.45-.59V93.3l-.58.11h0c.19.06.19.08.19.17v.76c0,.28-.11.41-.33.41H70.84a.36.36,0,0,1-.25-.06c.39-.22.75-.47.8-.83h0s0-.05,0-.07c0-.47-.36-.78-.92-.78a2,2,0,0,0-1,.33l0,0h0l.07.1,0,0,0,0a3.46,3.46,0,0,1,.28.4,3.42,3.42,0,0,0,.43.74,1.22,1.22,0,0,1-.41.08H68.65a6.09,6.09,0,0,0,0-.69V93h-.33a1.3,1.3,0,0,0-.92.34,1.24,1.24,0,0,0-.35.91.68.68,0,0,0,.22.5.66.66,0,0,0,.44.18h.5a1,1,0,0,1-.87.76l-.14,0h0a2.74,2.74,0,0,0,.35,0,1,1,0,0,0,.56-.14l0,0,0,0,.1-.1,0,0a.64.64,0,0,0,.1-.13v0a1.34,1.34,0,0,0,.13-.32h1.33a.78.78,0,0,0,.46-.11h0c.06.05.16.11.49.11h1.17a.61.61,0,0,0,.58-.29.68.68,0,0,0,.6.3.63.63,0,0,0,.6-.36.64.64,0,0,0,.59.36.59.59,0,0,0,.6-.37.7.7,0,0,0,.58.37h.17a.56.56,0,0,0,.64-.57V92.15l-.58.11Z" fill="#59595b"/><path d="M76.8,92.26h0c.18.06.18.09.18.18v2.48h.39V92.15l-.57.11Z" fill="#59595b"/><path d="M79.83,92.62a.23.23,0,1,0,0-.45.22.22,0,0,0-.22.23.22.22,0,0,0,.22.22" fill="#59595b"/><path d="M79.21,92.62a.22.22,0,0,0,.22-.22.22.22,0,0,0-.22-.23.22.22,0,0,0-.23.23.22.22,0,0,0,.23.22" fill="#59595b"/><path d="M81,95.32a.22.22,0,0,0-.22.23.21.21,0,0,0,.22.22.23.23,0,1,0,0-.45" fill="#59595b"/><path d="M81.67,95.32a.23.23,0,0,0-.23.23.22.22,0,0,0,.23.22.21.21,0,0,0,.22-.22.22.22,0,0,0-.22-.23" fill="#59595b"/><path d="M79.93,93.86a1.89,1.89,0,0,1-.05.53.51.51,0,0,1-.46.39c-.17,0-.46-.18-.46-.83a1.31,1.31,0,0,1,.12-.6.42.42,0,0,1,.37-.26c.42,0,.48.39.48.77M83.42,93l-.58.11h0c.2.07.2.1.2.2v1c0,.27-.11.41-.32.41h-.39a.44.44,0,0,1-.36-.23.83.83,0,0,1-.13-.43V93l-.57.11h0c.17.07.18.08.18.17v1.09c0,.27-.1.4-.32.4h-.6c-.15,0-.22-.13-.22-.34V93.3a1.31,1.31,0,0,1,0-.32h-.23l0,.06h0c0,.07,0,.1,0,.11L80,93.1h0a.84.84,0,0,0-.51-.17.93.93,0,0,0-.89,1,.92.92,0,0,0,.8,1A.64.64,0,0,0,80,94.5c0,.39.28.43.55.43h.68a.63.63,0,0,0,.64-.33.66.66,0,0,0,.54.33h.4a.55.55,0,0,0,.63-.57Z" fill="#59595b"/><path d="M82.9,95.32a.23.23,0,1,0,.23.23.23.23,0,0,0-.23-.23" fill="#59595b"/><path d="M87.11,93.78a.81.81,0,0,1-.51.76,3.77,3.77,0,0,1-.33-.56,2.39,2.39,0,0,0-.34-.57,1.5,1.5,0,0,1,.7-.2.45.45,0,0,1,.36.16.65.65,0,0,1,.12.41m1.15-1.52h0c.18.07.18.09.18.19v1.9c0,.28-.11.41-.34.41H87a.36.36,0,0,1-.25-.06c.39-.22.75-.47.8-.83h0s0-.05,0-.07c0-.47-.36-.78-.93-.78a2,2,0,0,0-1,.33l0,0h0l.07.1,0,0,0,0a3.46,3.46,0,0,1,.28.4,3.42,3.42,0,0,0,.43.74,1.26,1.26,0,0,1-.41.08H84.73a4.23,4.23,0,0,0,0-.69V93l-.58.11h0c.19.07.19.1.19.2v1.1a1.47,1.47,0,0,1-.27.89,1.27,1.27,0,0,1-.7.4h0l.31,0a.91.91,0,0,0,1-.79h1.39a.8.8,0,0,0,.46-.11h0c.06.05.16.11.49.11h1.17a.55.55,0,0,0,.63-.57V92.15l-.57.11Z" fill="#59595b"/><path d="M89.22,92.26h0c.18.06.18.09.18.18v2.48h.39V92.15l-.57.11Z" fill="#59595b"/><path d="M91.64,92.62a.22.22,0,0,0,.22-.22.22.22,0,0,0-.22-.23.22.22,0,0,0-.23.23.21.21,0,0,0,.23.22" fill="#59595b"/><path d="M92.26,92.62a.22.22,0,0,0,.22-.22.22.22,0,0,0-.22-.23.23.23,0,1,0,0,.45" fill="#59595b"/><path d="M92.35,93.86a2,2,0,0,1,0,.53.52.52,0,0,1-.47.39c-.17,0-.45-.18-.45-.83a1.31,1.31,0,0,1,.12-.6.4.4,0,0,1,.37-.26c.42,0,.47.39.47.77m2.08-.39h0Zm-.23-.17h0Zm.13.07h0ZM94,93.26Zm5,1c0,.38-.23.71-.5.71A.79.79,0,0,1,98,94.6l0,0a2.76,2.76,0,0,0,.15-.43v-.06c.09-.32.17-.65.45-.65h0c.32,0,.46.41.46.81m2.77,0c0,.38-.23.71-.51.71a.81.81,0,0,1-.57-.36l0,0a1.58,1.58,0,0,0,.15-.43v-.06c.08-.32.17-.65.45-.65h0c.32,0,.47.41.47.81m1.27-2c.19.06.19.09.19.19v1.9c0,.34-.17.41-.32.41h-.33c-.21,0-.35-.19-.42-.38a.76.76,0,0,0,0-.15,1,1,0,0,0-.2-.62.73.73,0,0,0-.61-.32c-.64,0-.75.41-.85.81a1.41,1.41,0,0,1-.25.6.4.4,0,0,1-.16.06h-.29a.49.49,0,0,1-.41-.38s0-.1,0-.15a1.05,1.05,0,0,0-.21-.62.73.73,0,0,0-.6-.32c-.65,0-.75.41-.86.81a1.41,1.41,0,0,1-.25.6.36.36,0,0,1-.15.06h-.28c-.29,0-.48-.39-.48-.66v-2l-.57.11h0c.17.06.18.08.18.17v1.93c0,.27-.1.4-.32.4H95V94a.79.79,0,0,0-.27-.58,1.08,1.08,0,0,0-.62-.31c.42-.12,1-.46,1.06-.68h0l-.29-.4h0a1.21,1.21,0,0,1-.48.7,1.48,1.48,0,0,1-.67.35h-.1l-.1.15H94a.59.59,0,0,1,.52.27.92.92,0,0,1,.15.5v.73H93c-.14,0-.22-.13-.22-.34V93.3a1.31,1.31,0,0,1,0-.32h-.22s0,0,0,.06h0a.62.62,0,0,1-.05.11s0,0-.07-.05h0a.87.87,0,0,0-.51-.17.93.93,0,0,0-.89,1,.92.92,0,0,0,.8,1,.66.66,0,0,0,.62-.43c0,.39.27.43.54.43H96a.62.62,0,0,0,.64-.33.66.66,0,0,0,.55.33h.18a.56.56,0,0,0,.46-.18.82.82,0,0,0,.71.37.85.85,0,0,0,.81-.47.68.68,0,0,0,.6.28h.19a.54.54,0,0,0,.45-.18.84.84,0,0,0,.71.37.87.87,0,0,0,.82-.47.68.68,0,0,0,.59.28h.32a.56.56,0,0,0,.64-.57V92.14l-.6.12Z" fill="#59595b"/><path d="M104.08,92.26h0c.19.06.19.09.19.18v2.48h.39V92.15Z" fill="#59595b"/><path d="M17,92.17h-.28L15.6,93.4V92.16l-.78.1h0v.08h.07a.63.63,0,0,1,.27.06c.05,0,.07.11.07.23V95h.37V93.55h0L16.72,95h.45l-1.26-1.59Z" fill="#59595b"/><path d="M17.72,92.12a.21.21,0,0,0-.17.07.2.2,0,0,0-.07.16.22.22,0,0,0,.07.17.21.21,0,0,0,.17.07.23.23,0,0,0,.17-.07.24.24,0,0,0,.07-.17.24.24,0,0,0-.24-.23" fill="#59595b"/><path d="M17.26,93.08v.08h0l.1,0a.18.18,0,0,1,.09,0,.16.16,0,0,1,.07.07.29.29,0,0,1,0,.14V95h.33V93l-.64.1Z" fill="#59595b"/><path d="M19.62,93a.53.53,0,0,0-.26.06.8.8,0,0,0-.21.15.73.73,0,0,0-.14.18.48.48,0,0,0-.08.16V93l-.64.1h0v.08h0l.1,0a.19.19,0,0,1,.1,0,.27.27,0,0,1,.07.08.29.29,0,0,1,0,.14V95h.33V94a.74.74,0,0,1,0-.23,1.3,1.3,0,0,1,.14-.26.91.91,0,0,1,.18-.21.37.37,0,0,1,.21-.08.29.29,0,0,1,.17,0,.24.24,0,0,1,.08.09.27.27,0,0,1,0,.12,1,1,0,0,1,0,.18V95h.33V93.48a.56.56,0,0,0-.11-.37.47.47,0,0,0-.39-.13" fill="#59595b"/><path d="M21.75,95.77Zm.15-2.11a2,2,0,0,1,0,.25v.2a1,1,0,0,1-.12.48.35.35,0,0,1-.32.2.43.43,0,0,1-.24-.06.65.65,0,0,1-.15-.18A.73.73,0,0,1,21,94.3,2.64,2.64,0,0,1,21,94a1.51,1.51,0,0,1,0-.3,1.19,1.19,0,0,1,.07-.27.46.46,0,0,1,.14-.21.36.36,0,0,1,.23-.08.38.38,0,0,1,.24.08.54.54,0,0,1,.15.18,1,1,0,0,1,.06.25m0-.37h0a.63.63,0,0,0-.19-.21.47.47,0,0,0-.32-.1,1,1,0,0,0-.36.07.73.73,0,0,0-.24.22.84.84,0,0,0-.14.32,1.64,1.64,0,0,0,0,.4,1.12,1.12,0,0,0,.2.7.67.67,0,0,0,.57.28.53.53,0,0,0,.32-.09,1,1,0,0,0,.2-.22h0V95a1.77,1.77,0,0,1,0,.24.8.8,0,0,1-.05.21.43.43,0,0,1-.13.17.43.43,0,0,1-.24.06.56.56,0,0,1-.2,0,.32.32,0,0,1-.13-.07.23.23,0,0,1-.07-.1.5.5,0,0,1,0-.13h-.39a.53.53,0,0,0,.05.19.38.38,0,0,0,.12.16.67.67,0,0,0,.24.11,1.28,1.28,0,0,0,.36,0,1.22,1.22,0,0,0,.41-.06.51.51,0,0,0,.25-.17.53.53,0,0,0,.12-.25,1.37,1.37,0,0,0,0-.31V93.38a.52.52,0,0,1,0-.14.19.19,0,0,1,.07-.08l.09,0h.13V93h-.64Z" fill="#59595b"/><path d="M23.14,94a2.83,2.83,0,0,1,0-.29,1.2,1.2,0,0,1,.08-.27.46.46,0,0,1,.14-.21.36.36,0,0,1,.23-.08.41.41,0,0,1,.22.07.4.4,0,0,1,.15.19,1,1,0,0,1,.08.24,2.46,2.46,0,0,1,0,.26v.17a2.46,2.46,0,0,1,0,.26,1.06,1.06,0,0,1-.09.25.65.65,0,0,1-.15.18.35.35,0,0,1-.23.07.33.33,0,0,1-.22-.08.55.55,0,0,1-.14-.22.89.89,0,0,1-.07-.28,2.46,2.46,0,0,1,0-.26m.62-1.86v.08h0a.39.39,0,0,1,.25.07.46.46,0,0,1,.06.28v.74h0a.7.7,0,0,0-.2-.23.58.58,0,0,0-.35-.1.73.73,0,0,0-.33.08.83.83,0,0,0-.24.22,1.26,1.26,0,0,0-.14.33,1.61,1.61,0,0,0,0,.39,1.26,1.26,0,0,0,.2.73.67.67,0,0,0,.57.28.52.52,0,0,0,.33-.1.69.69,0,0,0,.2-.22h0V95h.33V92.05l-.64.09Z" fill="#59595b"/><path d="M26.29,93.71c0,.1,0,.2,0,.3a2.44,2.44,0,0,1,0,.28.77.77,0,0,1-.07.26.41.41,0,0,1-.15.21.46.46,0,0,1-.27.08.45.45,0,0,1-.26-.08.47.47,0,0,1-.15-.21.79.79,0,0,1-.08-.26c0-.1,0-.19,0-.28a2.91,2.91,0,0,1,0-.31,1.1,1.1,0,0,1,.06-.26.49.49,0,0,1,.16-.21.46.46,0,0,1,.27-.08.42.42,0,0,1,.26.08.49.49,0,0,1,.16.21,1.19,1.19,0,0,1,.07.27M25.8,93a.78.78,0,0,0-.65.27,1.25,1.25,0,0,0-.21.76,1.08,1.08,0,0,0,.23.73.78.78,0,0,0,.64.27.79.79,0,0,0,.64-.26,1.35,1.35,0,0,0,0-1.49A.77.77,0,0,0,25.8,93" fill="#59595b"/><path d="M29.74,93.18a.36.36,0,0,0-.15-.15.7.7,0,0,0-.28,0,.6.6,0,0,0-.24,0,.86.86,0,0,0-.18.14l-.11.15a.8.8,0,0,0-.08.16h0a.58.58,0,0,0-.11-.37A.5.5,0,0,0,28.2,93,.54.54,0,0,0,28,93a.62.62,0,0,0-.18.14.91.91,0,0,0-.13.16l-.07.15V93l-.64.1h0v.08h0l.11,0a.16.16,0,0,1,.09,0,.18.18,0,0,1,.07.08.29.29,0,0,1,0,.14V95h.33V94a.82.82,0,0,1,0-.26,1.23,1.23,0,0,1,.12-.26.74.74,0,0,1,.16-.19.34.34,0,0,1,.19-.07.24.24,0,0,1,.15,0,.24.24,0,0,1,.08.09l0,.12V95h.33V94a.87.87,0,0,1,.05-.28,1.15,1.15,0,0,1,.12-.25.88.88,0,0,1,.16-.17.27.27,0,0,1,.17-.07c.12,0,.2,0,.23.12a1.21,1.21,0,0,1,.05.4V95h.32V93.64a2.26,2.26,0,0,0,0-.27.41.41,0,0,0-.05-.19" fill="#59595b"/><path d="M31.9,94a2.91,2.91,0,0,1,0-.31.77.77,0,0,1,.07-.26.41.41,0,0,1,.15-.21.46.46,0,0,1,.27-.08.42.42,0,0,1,.26.08.49.49,0,0,1,.16.21,1.19,1.19,0,0,1,.07.27,1.51,1.51,0,0,1,0,.3,2.44,2.44,0,0,1,0,.28.77.77,0,0,1-.07.26.41.41,0,0,1-.15.21.46.46,0,0,1-.27.08.45.45,0,0,1-.26-.08.47.47,0,0,1-.15-.21.79.79,0,0,1-.08-.26c0-.1,0-.19,0-.28m.5-1a.78.78,0,0,0-.65.27,1.25,1.25,0,0,0-.21.76,1.14,1.14,0,0,0,.23.73.78.78,0,0,0,.64.27.83.83,0,0,0,.65-.26,1.19,1.19,0,0,0,.21-.75,1.08,1.08,0,0,0-.23-.74A.77.77,0,0,0,32.4,93" fill="#59595b"/><path d="M34,92.67v0Zm.32-.11a.88.88,0,0,1,0-.17.25.25,0,0,1,.08-.12.19.19,0,0,1,.13,0h.07l.08,0,0,0,0,0a.53.53,0,0,1,.06.21h.36a.94.94,0,0,0,0-.16.45.45,0,0,0-.1-.14.54.54,0,0,0-.18-.11.77.77,0,0,0-.27,0,.71.71,0,0,0-.31.06.52.52,0,0,0-.18.18.63.63,0,0,0-.08.23,1.24,1.24,0,0,0,0,.27V93h-.32v.15H34V95h.33V93.18h.56V93h-.56v-.24a1.55,1.55,0,0,1,0-.23" fill="#59595b"/><path d="M37.32,92.13h0Zm.4,1.53a1.13,1.13,0,0,0-.23-.17l-.3-.17a1.91,1.91,0,0,1-.25-.13l-.08,0h0l-.08-.06a.93.93,0,0,1-.13-.15.45.45,0,0,1,0-.2.38.38,0,0,1,.13-.3.61.61,0,0,1,.36-.11,1.36,1.36,0,0,1,.36,0l.32.12h0v-.31h0l-.29-.05h-.33a1.1,1.1,0,0,0-.66.18.62.62,0,0,0-.24.52.73.73,0,0,0,.06.3.82.82,0,0,0,.16.22,1.16,1.16,0,0,0,.21.16l.29.15.25.14.18.13a.51.51,0,0,1,.13.16.46.46,0,0,1,0,.21.47.47,0,0,1-.15.39.63.63,0,0,1-.43.14,1.31,1.31,0,0,1-.38-.06,2.2,2.2,0,0,1-.34-.13h0v.3h0l.29,0a2.31,2.31,0,0,0,.37,0,1.61,1.61,0,0,0,.39,0,.86.86,0,0,0,.32-.15.59.59,0,0,0,.22-.25.71.71,0,0,0,.08-.36.79.79,0,0,0-.06-.32.66.66,0,0,0-.17-.23" fill="#59595b"/><path d="M39.36,94v.24a.57.57,0,0,1,0,.18.65.65,0,0,1-.08.17.53.53,0,0,1-.13.13.35.35,0,0,1-.18,0,.27.27,0,0,1-.23-.11.36.36,0,0,1-.08-.23.31.31,0,0,1,.08-.22.6.6,0,0,1,.21-.14l.23,0,.21,0m.2-.86a.48.48,0,0,0-.2-.14A1,1,0,0,0,39,93a1.11,1.11,0,0,0-.34,0,.57.57,0,0,0-.22.12.52.52,0,0,0-.13.17.58.58,0,0,0,0,.19h.37s0-.08,0-.12a.34.34,0,0,1,.05-.11.18.18,0,0,1,.1-.09.29.29,0,0,1,.17,0,.39.39,0,0,1,.2,0,.27.27,0,0,1,.1.13.47.47,0,0,1,0,.17c0,.06,0,.14,0,.24v.15h0l-.33,0a1.51,1.51,0,0,0-.34.08.79.79,0,0,0-.29.18.52.52,0,0,0,0,.69.45.45,0,0,0,.36.14.63.63,0,0,0,.35-.09,1.57,1.57,0,0,0,.24-.21V95h.33V93.66a1.14,1.14,0,0,0,0-.28.51.51,0,0,0-.1-.21" fill="#59595b"/><path d="M41.28,93.08v.08h0l.11,0a.19.19,0,0,1,.1,0,.27.27,0,0,1,.07.08.52.52,0,0,1,0,.14V94a.75.75,0,0,1,0,.24,1.51,1.51,0,0,1-.12.26.85.85,0,0,1-.17.2.34.34,0,0,1-.19.08.28.28,0,0,1-.27-.14.86.86,0,0,1-.08-.38V93l-.63.1h0v.08h0l.11,0a.18.18,0,0,1,.09,0,.23.23,0,0,1,.07.07.29.29,0,0,1,0,.14v.8a1.57,1.57,0,0,0,0,.32.81.81,0,0,0,.09.25.52.52,0,0,0,.17.16A.79.79,0,0,0,41,95a.6.6,0,0,0,.24-.05.62.62,0,0,0,.18-.14.61.61,0,0,0,.13-.16.51.51,0,0,0,.07-.15V95h.33V93l-.63.1Z" fill="#59595b"/><path d="M43.73,93.91v.17a1.22,1.22,0,0,1,0,.26,1,1,0,0,1-.08.25.65.65,0,0,1-.15.18.37.37,0,0,1-.23.07.36.36,0,0,1-.23-.08.69.69,0,0,1-.14-.22,1.27,1.27,0,0,1-.06-.28,1.18,1.18,0,0,1,0-.26,1.42,1.42,0,0,1,0-.29,1.19,1.19,0,0,1,.07-.27.57.57,0,0,1,.15-.21.33.33,0,0,1,.22-.08.42.42,0,0,1,.23.07.58.58,0,0,1,.15.19,1,1,0,0,1,.07.24,1.22,1.22,0,0,1,0,.26m-.32-1.77v.08h0a.34.34,0,0,1,.24.07.45.45,0,0,1,.07.28v.74h0a.75.75,0,0,0-.21-.23.55.55,0,0,0-.34-.1.7.7,0,0,0-.33.08.64.64,0,0,0-.24.22,1,1,0,0,0-.14.33,1.61,1.61,0,0,0,0,.39,1.19,1.19,0,0,0,.2.73.65.65,0,0,0,.57.28.52.52,0,0,0,.33-.1.66.66,0,0,0,.19-.22h0V95h.32V92.05l-.63.09Z" fill="#59595b"/><path d="M44.43,93.08v.08h0l.11,0a.18.18,0,0,1,.09,0l.07.07a.29.29,0,0,1,0,.14V95h.32V93l-.63.1Z" fill="#59595b"/><path d="M44.89,92.12a.24.24,0,0,0-.18.07.24.24,0,0,0-.07.16.26.26,0,0,0,.07.17.24.24,0,0,0,.18.07.2.2,0,0,0,.16-.07.21.21,0,0,0,.07-.17.24.24,0,0,0-.23-.23" fill="#59595b"/><path d="M48.18,93.87h-.92l.46-1.25Zm-.26-1.71H47.2v.08h0l.25.08a.12.12,0,0,1,.07.11.29.29,0,0,1,0,.09.58.58,0,0,1,0,.13h0L46.6,95h.27L47.2,94h1l.35.92H49l-1.07-2.81Z" fill="#59595b"/><path d="M50.21,93A.6.6,0,0,0,50,93a.51.51,0,0,0-.16.13.8.8,0,0,0-.09.14l-.06.17V93l-.64.1h0v.08h0l.11,0,.09,0s.05,0,.07.08a.26.26,0,0,1,0,.14V95h.33V94a1.7,1.7,0,0,1,0-.22.86.86,0,0,1,.07-.21.43.43,0,0,1,.14-.16.41.41,0,0,1,.23-.06l.11,0h0V93h0Z" fill="#59595b"/><path d="M51.48,94v.24a1.24,1.24,0,0,1,0,.18,1.3,1.3,0,0,1-.08.17.8.8,0,0,1-.13.13.41.41,0,0,1-.18,0,.27.27,0,0,1-.23-.11.36.36,0,0,1,0-.45.56.56,0,0,1,.2-.14l.23,0,.21,0m.21-.86a.46.46,0,0,0-.21-.14,1.11,1.11,0,0,0-.66,0,.62.62,0,0,0-.23.12.66.66,0,0,0-.12.17.67.67,0,0,0,0,.19h.38a.5.5,0,0,1,0-.12.3.3,0,0,1,0-.11.22.22,0,0,1,.1-.09.34.34,0,0,1,.18,0,.33.33,0,0,1,.19,0,.28.28,0,0,1,.11.13.85.85,0,0,1,0,.17v.39h0l-.33,0a1.57,1.57,0,0,0-.33.08.71.71,0,0,0-.29.18.49.49,0,0,0-.12.34.45.45,0,0,0,.14.35.45.45,0,0,0,.36.14.63.63,0,0,0,.35-.09,1.51,1.51,0,0,0,.23-.21V95h.33V93.66a1.14,1.14,0,0,0,0-.28.5.5,0,0,0-.09-.21" fill="#59595b"/><path d="M53.7,94.28a1.1,1.1,0,0,1-.06.26.55.55,0,0,1-.14.22.36.36,0,0,1-.23.08.47.47,0,0,1-.28-.07.4.4,0,0,1-.14-.18.86.86,0,0,1-.06-.23,1.93,1.93,0,0,1,0-.25v-.32a1.54,1.54,0,0,1,0-.19.78.78,0,0,1,.09-.21.5.5,0,0,1,.15-.17.31.31,0,0,1,.2-.07.36.36,0,0,1,.23.08.41.41,0,0,1,.15.21,1.29,1.29,0,0,1,.08.28,2,2,0,0,1,0,.56m.2-1a.72.72,0,0,0-.23-.23.78.78,0,0,0-.35-.08.56.56,0,0,0-.35.1.69.69,0,0,0-.19.23V92.05l-.66.09h0v.08h0a.38.38,0,0,1,.26.07.45.45,0,0,1,.07.28V95h.11l.21-.18A1,1,0,0,0,53,95a.67.67,0,0,0,.3.06.7.7,0,0,0,.6-.27,1.21,1.21,0,0,0,.2-.74,1.61,1.61,0,0,0,0-.39,1,1,0,0,0-.14-.32" fill="#59595b"/><path d="M54.33,93.08v.08h0l.11,0a.18.18,0,0,1,.09,0,.16.16,0,0,1,.07.07.29.29,0,0,1,0,.14V95H55V93l-.64.1Z" fill="#59595b"/><path d="M54.79,92.12a.21.21,0,0,0-.17.07.2.2,0,0,0-.07.16.22.22,0,0,0,.07.17.21.21,0,0,0,.17.07.2.2,0,0,0,.16-.07.21.21,0,0,0,.07-.17.24.24,0,0,0-.23-.23" fill="#59595b"/><path d="M56.55,94v.24a.62.62,0,0,1,0,.18.65.65,0,0,1-.08.17.53.53,0,0,1-.13.13.35.35,0,0,1-.18,0,.27.27,0,0,1-.23-.11.36.36,0,0,1-.08-.23.31.31,0,0,1,.08-.22.6.6,0,0,1,.21-.14l.23,0,.21,0m.3-.65a.51.51,0,0,0-.1-.21.48.48,0,0,0-.2-.14,1,1,0,0,0-.33,0,1.11,1.11,0,0,0-.34,0,.57.57,0,0,0-.22.12.52.52,0,0,0-.13.17.58.58,0,0,0,0,.19h.37s0-.08,0-.12a.34.34,0,0,1,0-.11.18.18,0,0,1,.1-.09.29.29,0,0,1,.17,0,.39.39,0,0,1,.2,0,.27.27,0,0,1,.1.13.47.47,0,0,1,0,.17c0,.06,0,.14,0,.24v.15h0l-.33,0a1.51,1.51,0,0,0-.34.08.79.79,0,0,0-.29.18.52.52,0,0,0,0,.69A.45.45,0,0,0,56,95a.63.63,0,0,0,.35-.09,1.57,1.57,0,0,0,.24-.21V95h.33V93.66a1.14,1.14,0,0,0,0-.28" fill="#59595b"/><path d="M83.81,84.57a.9.9,0,0,1-.64.27.75.75,0,0,1-.36-.1,1,1,0,0,1-.28-.21,1,1,0,0,1-.21-.33.81.81,0,0,1,0-.27.58.58,0,0,1,.13-.38.88.88,0,0,1,.36-.26h0l0,0c.18.19.36.4.53.61l.34.41.06.07a.61.61,0,0,1,.07.1l0,0Zm-.93-2.71a.43.43,0,0,1,.29-.1.53.53,0,0,1,.26.06.32.32,0,0,1,.15.16,1,1,0,0,1,0,.29.63.63,0,0,1-.06.31.67.67,0,0,1-.28.24h0l0,0a2,2,0,0,1-.39-.4.48.48,0,0,1-.09-.26.36.36,0,0,1,.13-.29m2.76,2.62a.22.22,0,0,0-.08.07,1.14,1.14,0,0,1-.23.19.43.43,0,0,1-.42-.07,1.39,1.39,0,0,1-.3-.26l-.07-.09a.24.24,0,0,1-.09-.12v0a7.29,7.29,0,0,1,.51-.61,3,3,0,0,1,.34-.33,1.61,1.61,0,0,1,.28-.15v0a.25.25,0,0,0,0-.08v0h-.47l-.47,0-.12,0v.1a.36.36,0,0,1,.15.1.24.24,0,0,1,.06.15.69.69,0,0,1-.08.25,1.69,1.69,0,0,1-.29.37l0,0,0,0-.1-.12-.32-.4-.19-.21a1.73,1.73,0,0,1-.25-.26l0,0,0,0a.12.12,0,0,1,.08-.06,1,1,0,0,0,.27-.15.74.74,0,0,0,.22-.21.67.67,0,0,0,.06-.28.57.57,0,0,0-.22-.44.89.89,0,0,0-.61-.19H83l-.08,0a.88.88,0,0,0-.48.28.65.65,0,0,0-.16.44.66.66,0,0,0,0,.23.84.84,0,0,0,.09.19l.26.31.05.05-.06,0-.16.07a2.54,2.54,0,0,0-.41.23,1.11,1.11,0,0,0-.32.37.85.85,0,0,0-.11.44.86.86,0,0,0,.26.63,1.27,1.27,0,0,0,.85.24A1.9,1.9,0,0,0,84,84.72l0,0,0,0a2.14,2.14,0,0,0,.53.37,1,1,0,0,0,.39.08.76.76,0,0,0,.37-.07.94.94,0,0,0,.31-.28.66.66,0,0,0,.1-.26.08.08,0,0,0,0,0,.09.09,0,0,0-.06,0" fill="#3e3d40"/><path d="M7.12,82c0-.54-.08-.52-.57-.62v-.13H7.87L9,84.43H9l1.13-3.22h.78v3.93h-.58V81.67h0L9.13,85.14H8.72L7.5,81.7h0v3.44H7.12Z" fill="#3e3d40"/><path d="M11.79,81.53a.37.37,0,0,1,.73,0,.37.37,0,0,1-.37.37.36.36,0,0,1-.36-.37m.06,1.65c0-.4-.09-.5-.45-.52v-.11l1-.19v2.78h-.58Z" fill="#3e3d40"/><path d="M13.29,83.18c0-.4-.1-.5-.46-.52v-.11l1-.19v.75h0a1.16,1.16,0,0,1,1-.75c.52,0,.7.37.7.82v2H15V83.63c0-.46,0-.87-.39-.87s-.72.54-.72.95v1.43h-.58Z" fill="#3e3d40"/><path d="M16.34,81.53a.37.37,0,0,1,.37-.36.37.37,0,0,1,.37.36.37.37,0,0,1-.38.37.37.37,0,0,1-.36-.37m.07,1.65c0-.4-.1-.5-.45-.52v-.11l1-.19v2.78h-.58Z" fill="#3e3d40"/><path d="M19.15,82.9a1.25,1.25,0,0,0-.69-.28c-.19,0-.41.07-.41.32,0,.55,1.28.56,1.28,1.46,0,.57-.47.8-1,.8a3,3,0,0,1-.74-.1v-.46a1.33,1.33,0,0,0,.76.3c.37,0,.5-.18.5-.39,0-.57-1.27-.6-1.27-1.41,0-.42.29-.78,1-.78a2.74,2.74,0,0,1,.65.1Z" fill="#3e3d40"/><path d="M21.3,85.15a1.74,1.74,0,0,1-.39,0c-.56,0-.89-.09-.89-.75V82.66h-.45v-.23H20V82l.59-.52v1h.76v.23h-.76v1.7c0,.4,0,.58.47.58a.82.82,0,0,0,.22,0Z" fill="#3e3d40"/><path d="M21.81,83.18c0-.4-.09-.5-.45-.52v-.11l1-.19v.77h0c.08-.27.26-.77.72-.77a1.66,1.66,0,0,1,.32,0v.55a1.46,1.46,0,0,0-.3-.07c-.59,0-.75.46-.75.87v1.4h-.59Z" fill="#3e3d40"/><path d="M25.09,85.36c-.18.46-.39,1-1,1a.78.78,0,0,1-.81-.75h.67c0,.17,0,.43.31.43s.38-.3.46-.51l.08-.19-.94-2.24c-.14-.35-.22-.51-.62-.53v-.11h1l.86,2.14.84-2.14h.33Z" fill="#3e3d40"/><path d="M29.41,85c.57,0,.61-.63.61-1.22s-.05-1.22-.61-1.22-.62.71-.62,1.22,0,1.22.62,1.22m-1.26-1.22c0-1,.41-1.42,1.26-1.42s1.25.58,1.25,1.42-.39,1.42-1.25,1.42-1.26-.6-1.26-1.42" fill="#3e3d40"/><path d="M31.38,82.66h-.47v-.23h.47V82a.86.86,0,0,1,.9-1c.74,0,1,.26,1.06.68h-.65c0-.21-.08-.49-.37-.49s-.36.38-.36.65v.53h.77v.23H32v2.48h-.58Z" fill="#3e3d40"/><path d="M34.86,82c0-.58,0-.58-.55-.67v-.13H37.1v.87H37c0-.47-.24-.59-.63-.59h-.45c-.29,0-.37,0-.37.3V83h.71c.4,0,.44-.26.47-.45h.17v1.23h-.17c0-.32-.12-.51-.47-.51H35.5v1.3c0,.33.08.34.37.34h.65c.33,0,.48-.11.52-.57h.16l0,.85H34.86Z" fill="#3e3d40"/><path d="M37.86,83.18c0-.4-.1-.5-.47-.52v-.11l1-.19v.75h0a1.15,1.15,0,0,1,1-.75c.53,0,.71.37.71.82v2h-.59V83.63c0-.46,0-.87-.39-.87s-.71.54-.71.95v1.43h-.58Z" fill="#3e3d40"/><path d="M40.91,83.07c-.15-.39-.21-.49-.6-.53v-.11h1l.81,2,.79-2h.33l-1,2.71h-.42Z" fill="#3e3d40"/><path d="M43.67,81.53a.37.37,0,0,1,.37-.36.37.37,0,0,1,.37.36.38.38,0,0,1-.38.37.36.36,0,0,1-.36-.37m.06,1.65c0-.4-.09-.5-.44-.52v-.11l1-.19v2.78h-.59Z" fill="#3e3d40"/><path d="M45.14,83.18c0-.4-.09-.5-.46-.52v-.11l1-.19v.77h0c.09-.27.27-.77.73-.77a1.66,1.66,0,0,1,.32,0v.55a1.63,1.63,0,0,0-.3-.07c-.59,0-.76.46-.76.87v1.4h-.58Z" fill="#3e3d40"/><path d="M48.07,85c.57,0,.61-.63.61-1.22s0-1.22-.61-1.22-.62.71-.62,1.22,0,1.22.62,1.22m-1.26-1.22c0-1,.41-1.42,1.26-1.42s1.25.58,1.25,1.42-.39,1.42-1.25,1.42-1.26-.6-1.26-1.42" fill="#3e3d40"/><path d="M50,83.18c0-.4-.1-.5-.47-.52v-.11l1.05-.19v.75h0a1.15,1.15,0,0,1,1-.75c.53,0,.71.37.71.82v2h-.58V83.63c0-.46,0-.87-.39-.87s-.72.54-.72.95v1.43H50Z" fill="#3e3d40"/><path d="M53,83.18c0-.4-.1-.5-.45-.52v-.11l1-.19v.7h0a1.07,1.07,0,0,1,.89-.7.68.68,0,0,1,.72.65h0a1,1,0,0,1,.86-.65c.74,0,.74.68.74,1.09v1.69h-.58V83.55c0-.37,0-.79-.39-.79s-.65.61-.65,1v1.35h-.58V83.63c0-.46,0-.87-.39-.87s-.65.54-.65.95v1.43H53Z" fill="#3e3d40"/><path d="M59.05,83.24c0-.13,0-.68-.51-.68S58,83,58,83.24Zm.53,1.8a2.32,2.32,0,0,1-.82.16,1.34,1.34,0,0,1-1.42-1.51c0-.93.44-1.33,1.22-1.33a1,1,0,0,1,1.07,1.12H58c0,.58.24,1.41,1.06,1.41a1.51,1.51,0,0,0,.54-.1Z" fill="#3e3d40"/><path d="M60.18,83.18c0-.4-.1-.5-.46-.52v-.11l1-.19v.75h0a1.15,1.15,0,0,1,1-.75c.53,0,.71.37.71.82v2h-.58V83.63c0-.46,0-.87-.39-.87s-.72.54-.72.95v1.43h-.58Z" fill="#3e3d40"/><path d="M64.62,85.15a1.81,1.81,0,0,1-.39,0c-.56,0-.89-.09-.89-.75V82.66h-.45v-.23h.45V82l.58-.52v1h.77v.23h-.77v1.7c0,.4,0,.58.48.58a.82.82,0,0,0,.22,0Z" fill="#3e3d40"/><path d="M66.67,82c-.12-.53-.18-.53-.66-.62v-.13h1l.77,3.18h0l.92-3.18h.4l1,3.18h0l.64-3.18h.38l-.82,3.93h-.55l-1-3.11h0L68,85.14h-.54Z" fill="#3e3d40"/><path d="M73,83.84c-.21,0-.89,0-.89.59,0,.27.13.46.35.46s.54-.31.54-.71Zm0,1a.92.92,0,0,1-.75.41.73.73,0,0,1-.78-.67c0-.82,1.16-.89,1.53-.9v-.29c0-.37,0-.78-.37-.78s-.41.34-.41.59h-.69c.07-.38.26-.79,1.1-.79s1,.43,1,1v1.78H73Z" fill="#3e3d40"/><path d="M75.67,85.15a1.81,1.81,0,0,1-.39,0c-.56,0-.89-.09-.89-.75V82.66h-.45v-.23h.45V82l.58-.52v1h.77v.23H75v1.7c0,.4,0,.58.48.58a.82.82,0,0,0,.22,0Z" fill="#3e3d40"/><path d="M77.64,83.24c0-.13,0-.68-.52-.68s-.56.46-.56.68Zm.53,1.8a2.32,2.32,0,0,1-.82.16,1.34,1.34,0,0,1-1.43-1.51c0-.93.44-1.33,1.22-1.33a1,1,0,0,1,1.08,1.12H76.56c0,.58.24,1.41,1.06,1.41a1.58,1.58,0,0,0,.55-.1Z" fill="#3e3d40"/><path d="M78.73,83.18c0-.4-.09-.5-.46-.52v-.11l1-.19v.77h0c.08-.27.26-.77.73-.77a1.63,1.63,0,0,1,.31,0v.55a1.37,1.37,0,0,0-.29-.07c-.59,0-.76.46-.76.87v1.4h-.58Z" fill="#3e3d40"/><path d="M87.93,83.65h1.28L88.55,82ZM88.19,82a3.47,3.47,0,0,0,.1-.34c0-.24-.22-.24-.45-.28v-.13h1.09l1.42,3.93h-.6l-.44-1.22H87.83l-.44,1.22H87Z" fill="#3e3d40"/><path d="M92.29,83.41c0-.37-.18-.73-.54-.73-.53,0-.59.66-.59,1.08s.06,1.06.54,1.06.59-.51.59-.83Zm.58,1.81c0,.6-.11,1.16-1.12,1.16-.72,0-1.22-.16-1.22-.82h.66c0,.25.07.62.54.62s.56-.45.56-.77v-.68h0a.74.74,0,0,1-.73.41c-.73,0-1-.62-1-1.3s.23-1.48,1-1.48a.84.84,0,0,1,.73.4h0v-.33h1v.11c-.18,0-.46,0-.46.42Z" fill="#3e3d40"/><path d="M93.73,83.18c0-.4-.09-.5-.46-.52v-.11l1-.19v.77h0c.08-.27.26-.77.72-.77a1.66,1.66,0,0,1,.32,0v.55a1.63,1.63,0,0,0-.3-.07c-.59,0-.76.46-.76.87v1.4h-.58Z" fill="#3e3d40"/><path d="M95.74,81.53a.37.37,0,0,1,.37-.36.37.37,0,0,1,.37.36.37.37,0,0,1-.38.37.37.37,0,0,1-.36-.37m.07,1.65c0-.4-.09-.5-.45-.52v-.11l1-.19v2.78h-.58Z" fill="#3e3d40"/><path d="M99.08,85.06a1.84,1.84,0,0,1-.83.14A1.29,1.29,0,0,1,97,83.74c0-.8.33-1.38,1.16-1.38.65,0,1.07.33,1.07.8h-.69c0-.24,0-.6-.41-.6s-.49.43-.49,1c0,.86.4,1.34.93,1.34a1.93,1.93,0,0,0,.56-.09Z" fill="#3e3d40"/><path d="M101.27,84.48h0a1,1,0,0,1-.9.72c-.78,0-.78-.76-.78-1.19v-.83c0-.4-.09-.5-.45-.52v-.11l1-.19v1.76c0,.53.2.68.48.68s.63-.49.63-1v-.64c0-.4-.1-.5-.45-.52v-.11l1-.19v2.78h-.58Z" fill="#3e3d40"/><path d="M102.59,81.85c0-.42-.1-.51-.44-.53V81.2l1-.14v4.08h-.58Z" fill="#3e3d40"/><path d="M105.38,85.15a1.74,1.74,0,0,1-.39,0c-.56,0-.88-.09-.88-.75V82.66h-.45v-.23h.45V82l.58-.52v1h.76v.23h-.76v1.7c0,.4,0,.58.48.58a.75.75,0,0,0,.21,0Z" fill="#3e3d40"/><path d="M107.63,84.48h0a1,1,0,0,1-.9.72c-.78,0-.78-.76-.78-1.19v-.83c0-.4-.09-.5-.44-.52v-.11l1-.19v1.76c0,.53.19.68.47.68s.64-.49.64-1v-.64c0-.4-.1-.5-.45-.52v-.11l1-.19v2.78h-.58Z" fill="#3e3d40"/><path d="M109,83.18c0-.4-.1-.5-.46-.52v-.11l1-.19v.77h0c.08-.27.26-.77.73-.77a1.63,1.63,0,0,1,.31,0v.55a1.46,1.46,0,0,0-.3-.07c-.58,0-.75.46-.75.87v1.4H109Z" fill="#3e3d40"/><path d="M112.34,83.24c0-.13,0-.68-.52-.68s-.55.46-.55.68Zm.53,1.8a2.32,2.32,0,0,1-.82.16,1.34,1.34,0,0,1-1.42-1.51c0-.93.44-1.33,1.22-1.33a1,1,0,0,1,1.07,1.12h-1.65c0,.58.23,1.41,1,1.41a1.53,1.53,0,0,0,.55-.1Z" fill="#3e3d40"/><path d="M113.11,89.18c0,.23-38.14.42-53.37.42s-53.37-.19-53.37-.42,38.13-.41,53.37-.41,53.37.18,53.37.41" fill="#707172"/><circle cx="59.86" cy="49.89" r="18.07" fill="#ebecec"/><g style="mix-blend-mode:multiply"><circle cx="59.86" cy="49.89" r="18.07" fill="url(#linear-gradient)"/></g><circle cx="59.86" cy="49.89" r="17.03" fill="#fff"/><circle cx="59.86" cy="49.89" r="16.8" fill="#007a40"/><circle cx="59.86" cy="49.89" r="16.8" fill="url(#radial-gradient)"/><path d="M69.85,57.05a5.35,5.35,0,0,0-2.19-.39c-1.76,0-4.46.55-7.83,3h0l-.07,0c-3.37-2.48-6-3-7.79-3a5.23,5.23,0,0,0-2.18.39c-.05,0-.13.07-.11.15a.13.13,0,0,0,.13.07h.06a5.26,5.26,0,0,1,1.27-.15c2.29,0,5.24,1.72,7.6,3.43-.48.39-1,.82-1.47,1.28l-.16-.13a2.37,2.37,0,0,0-.61-.37.74.74,0,0,0-.36,0,.47.47,0,0,0-.35.53.41.41,0,0,0,.36.41.39.39,0,0,0,.35-.2l.25.22.11.11-.15.13-.34.29a3.33,3.33,0,0,1-.73.49.65.65,0,0,1-.31.08l-.17,0h0l-.11,0h0a.21.21,0,0,0-.2.12.43.43,0,0,0,0,.3.46.46,0,0,0,.11.18,1,1,0,0,0,.64.35h.28a1.93,1.93,0,0,0,.6-.18,4.74,4.74,0,0,0,1-.65l.3-.24.31.29a1.25,1.25,0,0,0,.46.29.47.47,0,0,0,.17,0h.06l.08,0a.44.44,0,0,0,.33-.37.5.5,0,0,0-.19-.49.36.36,0,0,0-.45,0l0,.05c-.08-.07-.15-.16-.23-.24.5-.45,1.1-.91,1.66-1.36.58.45,1.22.91,1.71,1.36-.08.08-.15.17-.23.24l0-.05a.36.36,0,0,0-.45,0,.48.48,0,0,0-.18.49.43.43,0,0,0,.32.37l.08,0H61a.47.47,0,0,0,.17,0,1.39,1.39,0,0,0,.47-.29l.3-.29.3.24a4.74,4.74,0,0,0,1,.65,1.93,1.93,0,0,0,.6.18h.28a1,1,0,0,0,.64-.35.46.46,0,0,0,.11-.18.43.43,0,0,0,0-.3.21.21,0,0,0-.2-.12h-.05l-.11,0h0l-.17,0a.58.58,0,0,1-.3-.08,3.17,3.17,0,0,1-.74-.49l-.34-.29-.15-.13a1.14,1.14,0,0,1,.11-.11l.25-.22a.41.41,0,0,0,.35.2.41.41,0,0,0,.36-.41.47.47,0,0,0-.35-.53.74.74,0,0,0-.36,0,2.37,2.37,0,0,0-.61.37l-.16.13c-.49-.45-1-.89-1.46-1.28,2.36-1.71,5.31-3.43,7.59-3.43a5.26,5.26,0,0,1,1.27.15h.06A.13.13,0,0,0,70,57.2C70,57.12,69.89,57.08,69.85,57.05Z" fill="#fff"/><path d="M60.79,56a8.36,8.36,0,0,0-.48,1.28,5.42,5.42,0,0,1,1.58-.51,3.79,3.79,0,0,0,3-3.57c-.07.14-.26.43-2,.51a3.32,3.32,0,0,0-3.1,1.59,4.44,4.44,0,0,1,.32.89c.94-2.25,3.27-1.94,3.66-2A4.47,4.47,0,0,0,60.79,56Z" fill="#fff"/><path d="M59.76,58.63l.41-.21c-.1-4.41-2.49-4.67-3.65-4.72-1.68-.08-1.87-.37-2-.51a3.81,3.81,0,0,0,3,3.57,3.14,3.14,0,0,1,1.25.42c-.32-2.89-2.71-2.82-3.19-3,.46.1,3.86-.62,3.7,4.27Z" fill="#fff"/><path d="M58.36,45.9a1.53,1.53,0,0,0,1.37,1.58,1.49,1.49,0,0,0,1.38-1.58c0-1.2-1.38-3.51-1.38-3.51S58.29,44.64,58.36,45.9Zm2,1a.94.94,0,0,1-.6.22,1.16,1.16,0,0,1-1.07-1.22,3.2,3.2,0,0,1,.25-.92,1.65,1.65,0,0,0-.08.44,1.42,1.42,0,0,0,1.3,1.5Z" fill="#fff"/><path d="M56,50.57c0,2.52,3.58,3.33,3.58,3.33v-.79c0-2.61-3.58-3.32-3.58-3.32Z" fill="#fff"/><path d="M59.91,53.11v.79s3.58-.81,3.58-3.33v-.78S59.91,50.5,59.91,53.11Z" fill="#fff"/><path d="M56.87,47.74c0,2,2.72,2.7,2.72,2.7v-.63c0-2.13-2.72-2.7-2.72-2.7Z" fill="#fff"/><path d="M59.87,49.81v.63s2.72-.65,2.72-2.7v-.63S59.87,47.68,59.87,49.81Z" fill="#fff"/><path d="M50.21,43.38c2.37-2.37,3.88-2.8,5.77-3.09-1.93,1.23-3.74,4.08-3.18,6.1a11,11,0,0,1,4.46-5,3.76,3.76,0,0,0-.07,4.32A9.18,9.18,0,0,1,59.72,41a9.24,9.24,0,0,1,2.52,4.7,3.72,3.72,0,0,0-.07-4.32,10.93,10.93,0,0,1,4.46,5c.56-2-1.25-4.87-3.18-6.1,1.89.29,3.41.72,5.77,3.09-.78-3.18-3.53-4.28-5.72-4.67,2.41-.21,2.89,0,5,.92-2.32-2.27-3.94-2.69-6.27-2.46a3,3,0,0,1,1.37-.69,3.44,3.44,0,0,0-3.09.38,2.17,2.17,0,0,0-.82-1.46h0a2.17,2.17,0,0,0-.82,1.46,3.44,3.44,0,0,0-3.09-.38,3,3,0,0,1,1.37.69c-2.32-.23-4,.19-6.27,2.46,2.14-.88,2.62-1.13,5-.92C53.74,39.1,51,40.2,50.21,43.38Z" fill="#fff"/></g></g></svg>