<svg id="Layer_1" data-name="Layer 1" xmlns="http://www.w3.org/2000/svg" viewBox="0 0 120 120"><path d="M46.39,89.21a.56.56,0,0,1-.81-.24,28,28,0,0,1,0-3.75h1.13V84.8H45.54V83.09h-.28c-.21,1.06-.48,1.89-1.58,1.89v.24h.87c0,3.59,0,3.64.06,4a.88.88,0,0,0,.92.7,1.47,1.47,0,0,0,1.35-.75L46.63,89A.91.91,0,0,1,46.39,89.21Zm-9-6.28c.38.72,1.55,0,.93-.55C37.9,82,37.2,82.45,37.44,82.93Zm2.84,2.77c0-.7,1.46-1.18,2.35.26l.36-.33a2.09,2.09,0,0,0-1.27-.9c-1.33-.21-2.18.52-2.18,1.37,0,1,.92,1.36,1.83,1.78,1.58.73.68,2-.49,1.65a2.16,2.16,0,0,1-1-.9l-.41.37a2.29,2.29,0,0,0,.93.76,2.59,2.59,0,0,0,2.37-.27,1.35,1.35,0,0,0,0-2C42,86.75,40.28,86.6,40.28,85.7Zm9.63-1c-.59,0-1.11.57-1.44,1v-1h-1v5h1V86.34a3.15,3.15,0,0,1,.41-.55.54.54,0,0,1,.78-.11.83.83,0,0,0,.87,0,.51.51,0,0,0-.08-.79A.88.88,0,0,0,49.91,84.7ZM30,82.38a.46.46,0,0,0,0,.71c.53.46,1.34-.23.81-.71A.63.63,0,0,0,30,82.38Zm3.11,3.34V84.8h-1v5h1V86.1c1.06-1,2.21-1,2.21.29v3.43h1v-3.6a1.7,1.7,0,0,0-.37-1.08C35.18,84.26,33.89,84.8,33.07,85.72Zm-8.22,2.59h-.06l-2.53-5H21.15v6.51h.48V84.53h.07l2.7,5.29h.22l2.67-5.33h0v5.33h1.1V83.31h-1.1M37.48,85v4.83h1V84.7h-.29m-8.3.29v4.83h1V84.7h-.29m59.17-2.18v7.3h1V82.23h-.28m3.68,7a.56.56,0,0,1-.81-.24c-.07-.18,0-.08,0-3.75h1.13V84.8H93.29V83.09H93C92.8,84.16,92.52,85,91.43,85v.24h.87c0,3.6,0,3.64,0,4a.87.87,0,0,0,.49.61,1.55,1.55,0,0,0,1.25-.11,1.58,1.58,0,0,0,.54-.55L94.38,89A.91.91,0,0,1,94.14,89.21ZM88,85.06a2.85,2.85,0,0,0-2.16-.27c-1.64.4-1.42,1.67-.73,1.67.38,0,.5-.29.5-.67a.74.74,0,0,1,.16-.52,1.07,1.07,0,0,1,1.06-.18.83.83,0,0,1,.5.59,4,4,0,0,1,.07.89,8.59,8.59,0,0,0-2,.69C83.15,88.45,85,91.08,87,89.41l.35-.28v.69h1C88.34,85.92,88.52,85.52,88,85.06Zm-.6,3.71a2.63,2.63,0,0,1-.87.5.87.87,0,0,1-1-1.2,3.52,3.52,0,0,1,1.92-1.17Zm12-3.14c-.5-1.44-2.09-1-3.11.09V82.23h-.28l-.71.29v7.3h1V86.1c1-1,2.21-1,2.21.29v3.43h1C99.4,86.19,99.5,86.11,99.33,85.63ZM60,85.48a2.61,2.61,0,0,0,1.9,4.45,2.67,2.67,0,0,0,1.9-4.51A2.78,2.78,0,0,0,60,85.48ZM63.3,88.4a1.41,1.41,0,0,1-1.24,1.16c-1.8,0-2.33-3.46-.92-4.34a1.42,1.42,0,0,1,1.86.61A3.87,3.87,0,0,1,63.3,88.4Zm-9.41,0L52,84.81H50.82l2.57,4.77c-.4.89-.55,1.33-.87,1.57a.57.57,0,0,1-.5,0c-.16-.07-.16-.09-.33-.16a.6.6,0,0,0-.84.51c0,.79,1.76,1,2.59-.85L56,84.81h-.53Zm15.09-6a1.94,1.94,0,0,0-2.35.33,2.53,2.53,0,0,0-.54,2H65v.42h1v4.6h1v-4.6h1.34V84.8H67.09c0-1-.09-1.46.19-1.88a.63.63,0,0,1,.5-.32c.78,0,.32,1,1,1S69.55,82.84,69,82.48Zm14.23,5.91a2,2,0,0,1-.95.67c-1.39.49-2.4-.68-2.4-2.24H83.6a2.28,2.28,0,0,0-4-1.33,2.55,2.55,0,1,0,4.16,2.57l-.29-.12A1.24,1.24,0,0,1,83.21,88.39ZM80,85.88a1.23,1.23,0,0,1,2.37.53H79.87A1.52,1.52,0,0,1,80,85.88Zm-3.35.4H73.37v-3H72.28v6.51h1.09V86.7h3.27v3.12h1.1V83.31h-1.1" fill="#6b7688"/><path d="M78.8,39.45c-8.93,1.29-28.38,18.07-28.38,18.07h7.94A87.52,87.52,0,0,1,75,43.38a12.73,12.73,0,0,1,5.49-2,8,8,0,0,1,8.72,8.91C89.84,44.06,86.76,38.31,78.8,39.45Z" fill="#6b7688" fill-rule="evenodd"/><path d="M41.73,39.45c-8-1.14-11,4.61-10.39,10.81a8,8,0,0,1,8.72-8.91,12.73,12.73,0,0,1,5.49,2A87.51,87.51,0,0,1,62.16,57.52h8S50.66,40.74,41.73,39.45Z" fill="#6b7688" fill-rule="evenodd"/><path d="M59.87,76.11H56.34a11,11,0,0,0,.2-1.85c0-4.2-3.15-5.93-6.22-3.76-2.21,1.56-2.66,3.06-4,5.61h-.05V71.93h-1.1v4.18H42V75.7a5.6,5.6,0,0,0-5.93-6H31.81v.93c.31,0,3.89,0,4.08,0,5.27,0,4.88,5.44,4.9,5.5H27.27v-7C27,69,26.38,69,26.13,69c-2,0-4.95,1.44-4.95,4.52a3.35,3.35,0,0,0,3.63,3.4h.35l.75-.82h-.8c-3.18,0-3.53-3.77-1.45-5.41a3.71,3.71,0,0,1,2.13-.79h.38v7H61V64.38h-1.1ZM55.24,76l0,.14H47.37l.05-.22c.68-3,3.42-5.42,5.33-5.42.61,0,2.62.28,2.62,4A7.69,7.69,0,0,1,55.24,76Z" fill="#6b7688"/><circle cx="26.56" cy="66.44" r="0.83" fill="#6b7688"/><path d="M64.44,64.38h1.09V76.93H64.44Z" fill="#6b7688"/><circle cx="73.88" cy="66.44" r="0.83" fill="#6b7688"/><circle cx="24.06" cy="66.44" r="0.83" fill="#6b7688"/><circle cx="90.62" cy="66.44" r="0.83" fill="#6b7688"/><path d="M98.72,69.26c-2.85,0-5.09,1.95-5.09,4.43,0,2.24,2,3.38,3.9,3.22.06-.06.84-.86.77-.8h-.72a2.53,2.53,0,0,1-2.78-2.54,3.5,3.5,0,0,1,3.4-3.34h.19v6.86c0,1.32-.25,2.53-2,2.53a3.15,3.15,0,0,1-.56-.06l-.14.84a5,5,0,0,0,1,.08,2.63,2.63,0,0,0,2.84-2.92V69.32A6,6,0,0,0,98.72,69.26Zm-8.65,8.35c0,1.44-.58,2-2,2a3.84,3.84,0,0,1-.55-.06l-.13.88c2.67.39,3.77-.8,3.77-2.51V70.19h-1.1Zm-9.28,0c0,1.44-.58,2-2,2a3.71,3.71,0,0,1-.54-.06l-.14.88c2.68.39,3.77-.8,3.77-2.51V70.19H80.79Z" fill="#6b7688"/><circle cx="76.37" cy="66.44" r="0.83" fill="#6b7688"/><path d="M85.24,64.38h1.1V76.93h-1.1ZM71,73.62a3.41,3.41,0,0,0,3.63,3.31h2.46V69.08C73.49,68.58,71,70.88,71,73.62Zm5,2.49h-1c-4.15,0-3.37-6.2.64-6.2H76ZM41.12,44.84l-2.39,2.38-2.38-2.38-2.71,2.71,2.71,2.71,2.38-2.38,2.39,2.38,2.71-2.71m22.36-23.3a9.62,9.62,0,0,1,6.57,3.12,9.63,9.63,0,0,0-12-5.28c-.24-.88-.43-1.39-.43-1.39s-.19.51-.43,1.39a9.62,9.62,0,0,0-12,5.28,9.62,9.62,0,0,1,6.57-3.12,9.6,9.6,0,0,0-3.62,9.22,9.62,9.62,0,0,1,4.49-6.62,9.61,9.61,0,0,0,1.49,10.81A9.61,9.61,0,0,1,59,26.88c-.07.72-.11,1.47-.11,2.25a26.87,26.87,0,0,0,1.4,8.42,27.25,27.25,0,0,0,1.3-10.67,9.63,9.63,0,0,1,2.21,10.78,9.61,9.61,0,0,0,1.48-10.81,9.63,9.63,0,0,1,4.5,6.62A9.61,9.61,0,0,0,66.19,24.25Z" fill="#6b7688"/><path d="M69.66,46.16c-12.15-12.95-19.07-3-19.07-3s5.93-5.86,17.2,6.59c5.06,5.6,9.58,7.78,13.23,7.75a8.39,8.39,0,0,0,7.18-4.18,5.08,5.08,0,0,0,.46-.93C85.41,56.3,81.11,58.35,69.66,46.16Z" fill="#6b7688" fill-rule="evenodd"/></svg>