<svg id="Layer_1" data-name="Layer 1" xmlns="http://www.w3.org/2000/svg" viewBox="0 0 120 120"><g id="g78"><path id="path1" d="M63.59,74.23a3.77,3.77,0,0,0-2.21-.6H57.94a1.1,1.1,0,0,1-.85-.27,1.06,1.06,0,0,1-.26-.79v-.45a.83.83,0,0,1,.92-1H64V68.89H58.13a6.15,6.15,0,0,0-1.48.15,2.48,2.48,0,0,0-1.13.57,2.52,2.52,0,0,0-.67,1.07,5.52,5.52,0,0,0-.2,1.56v.49a2.65,2.65,0,0,0,.9,2.28,3.79,3.79,0,0,0,2.39.62h3.43a1.06,1.06,0,0,1,.74.23.78.78,0,0,1,.24.66v.85c0,.66-.28.92-1,.92H54.9v2.25h6.49a3,3,0,0,0,2.4-.9,3.93,3.93,0,0,0,.72-2.54v-.71a2.48,2.48,0,0,0-.89-2.16" fill="#6b7688"/><path id="path2" d="M87.3,75.31v3H83.6c-.62,0-.87-.26-.87-.92V76.33c0-.68.25-1,.87-1ZM86,68.89H81.23v2.39H86c.89,0,1.28.47,1.28,1.51v.5H83.48a2.51,2.51,0,0,0-2.86,2.14,2,2,0,0,0,0,.64v1.6a3.1,3.1,0,0,0,.7,2.17,2.91,2.91,0,0,0,2.17.76h6V72.73C89.47,70.25,88.28,69,86,69" fill="#6b7688"/><polygon id="polygon2" points="91.7 66.49 92.28 70.73 93.81 70.73 94.38 66.49 91.7 66.49" fill="#6b7688"/><path id="path3" d="M103.14,75.26v3H99.43c-.62,0-.87-.26-.87-.92V76.23c0-.68.25-1,.87-1Zm-1.29-6.42H97.06v2.4h4.79c.89,0,1.29.46,1.29,1.51v.49H99.31a2.51,2.51,0,0,0-2.86,2.14,2,2,0,0,0,0,.64v1.51a3.1,3.1,0,0,0,.7,2.17,2.89,2.89,0,0,0,2.17.74h6V72.61c0-2.46-1.2-3.77-3.47-3.77" fill="#6b7688"/><path id="path4" d="M114.61,71V68.89h-2.7V65.21h-2.24V76.69c0,3.17,1.81,3.85,3.32,3.85h1.57v-2.2h-1.43c-.56,0-1.2-.18-1.2-1.59V71Z" fill="#6b7688"/><path id="path5" d="M35.72,72.49v4.4a1.36,1.36,0,0,1-1.35,1.4H31.64a1.37,1.37,0,0,1-1.37-1.39h0v-4.4a1.38,1.38,0,0,1,1.37-1.4h2.72a1.37,1.37,0,0,1,1.36,1.4M34.36,68.9H31.64A3.59,3.59,0,0,0,28,72.49v4.4a3.6,3.6,0,0,0,3.6,3.6h2.72A3.59,3.59,0,0,0,38,76.89v-4.4a3.58,3.58,0,0,0-3.59-3.59" fill="#6b7688"/><path id="path6" d="M50.63,73.67c0-3.28-2.21-4.79-4.25-4.79h-4.8V80.51h2.19V71.12h2.58a2.2,2.2,0,0,1,2.08,2.12v7.27h2.15V73.67Z" fill="#6b7688"/><path id="path7" d="M25.14,73.69h0a4.4,4.4,0,0,0-3.59-4.79H19.16a4.25,4.25,0,0,0-2.67,1.44,4.26,4.26,0,0,0-3.16-1.45H8.53V80.52h2.18v-9.4h2.58a2.1,2.1,0,0,1,2.07,2.07v7.32h2.18V73.19a2.1,2.1,0,0,1,2.08-2.07h1.2a2.2,2.2,0,0,1,2.06,2.12v7.27h2.17Z" fill="#6b7688"/><path id="path8" d="M77.42,73.69h0c0-3.28-2.22-4.79-4.26-4.79h-2.6V65.21H68.38v15.3h2.18V71.12h2.62a2.21,2.21,0,0,1,2.06,2.12v7.27h2.17Z" fill="#6b7688"/><path id="path9" d="M95.5,40.93c0-1.62-3.38-3.2-3.38-3.2S88.68,41,88.8,41.13l3.8,3.2s2.9-1.8,2.9-3.4" fill="#6b7688"/><path id="path10" d="M75.88,41.13l3.81,3.2s2.89-1.8,2.89-3.4-3.41-3.2-3.41-3.2-3.44,3.31-3.32,3.4" fill="#6b7688"/><path id="path11" d="M74,40.93c0-1.62-3.38-3.2-3.38-3.2s-3.45,3.31-3.32,3.4l3.82,3.2S74,42.53,74,40.93" fill="#6b7688"/><path id="path12" d="M77.39,34.38c0-1.6-3.38-3.18-3.38-3.18s-3.44,3.3-3.32,3.4l3.82,3.19s2.88-1.79,2.88-3.41" fill="#6b7688"/><path id="path13" d="M106.65,57c-3.41,0-3.23-2.9-3.24-4.25v-6.1h5.2c1.8,0,2.4,2.73,2.4,5.92V57l-4.36,0m8-9.57c0-.94-.6-4.34-5.19-4.34h-2.69l-6.87,7.19v6.22a4.38,4.38,0,0,0,.11.94c-2,0-4.37,0-5.55-2a5.4,5.4,0,0,1-.61-2.67V46.88l-3.59,3.7v5.84a6,6,0,0,0,.07.94c-2,0-4.36,0-5.53-2a5.16,5.16,0,0,1-.62-2.67V43.9l-3.59,3.69v8.83a6,6,0,0,0,.07.94,5.11,5.11,0,0,1-2.56-1.2,4.53,4.53,0,0,1-1.67-3.5V45.75l-3.6,3.69v7a4.31,4.31,0,0,0,.11.94,4.85,4.85,0,0,1-2.59-1.2,4.54,4.54,0,0,1-1.68-3.5V43.9L65,47.59v8.83a3.77,3.77,0,0,0,.11.94c-2,0-4.39,0-5.56-2A5.42,5.42,0,0,1,59,52.71V30.27L55.37,34V56.64h0a4.26,4.26,0,0,0,1.75,3.59,6.11,6.11,0,0,0,3.26.82H61.8c.18,0,.54-.38.63-.46.45-.39.88-.82,1.3-1.19A9.26,9.26,0,0,0,64.93,58l.24-.33A4.55,4.55,0,0,0,66.67,60a4.74,4.74,0,0,0,2.85,1.2c.18,0,.55-.38.62-.44.46-.41.89-.84,1.31-1.27a15.06,15.06,0,0,0,1.2-1.35l.24-.34a4.47,4.47,0,0,0,1.48,2.14,4.75,4.75,0,0,0,2.86,1.2c.18,0,.55-.38.62-.44.45-.41.89-.84,1.31-1.27a14.93,14.93,0,0,0,1.19-1.35l.21-.28a3.76,3.76,0,0,0,1.6,2.52,6.16,6.16,0,0,0,3.28.82h1.42c.18,0,.54-.38.62-.46.45-.39.89-.82,1.31-1.19A9.26,9.26,0,0,0,90,58.1l.2-.27h0a3.79,3.79,0,0,0,1.62,2.52,6.14,6.14,0,0,0,3.26.82h1.44c.17,0,.54-.38.61-.46.46-.39.89-.82,1.32-1.19a9.26,9.26,0,0,0,1.2-1.36l.22-.32c.76,2.54,3.84,3.4,6.31,3.4H107l7.6-7.68V47.35" fill="#6b7688"/><path id="path14" d="M31.39,43.62l3.93,3.3s3-1.88,3-3.6S34.75,40,34.75,40s-2.84,2.8-3.35,3.46c0-1.69-3.6-3.32-3.6-3.32s-3.59,3.48-3.5,3.6l4,3.35s2.84-1.76,3-3.41" fill="#6b7688"/><polygon id="polygon14" points="50.34 27.98 52.98 25.35 59.26 27.4 59.55 27.49 63.92 23.24 63.92 21.87 61.06 24.59 54.91 22.53 54.61 22.42 50.34 26.65 50.34 27.98" fill="#6b7688"/><path id="path15" d="M50.5,47.87c-.26-.46-.85-1.33-.85-1.33L45.7,50.38a13,13,0,0,1,1.73,4.68v2.09H16.27c-2.78,0-3.9-.77-3.9-4.59l1.9-2V48.45l-5.7,5.86v2.16a5,5,0,0,0,.81,2.78,4,4,0,0,0,1.94,1.43,11.1,11.1,0,0,0,4,.38H45.61l5.81-5.22V54.18c0-2.15.2-4.36-.9-6.31" fill="#6b7688"/><path id="path16" d="M10.35,93.31h0l-.46-.12L9.33,93a.25.25,0,0,1-.2-.15.45.45,0,0,1,0-.23v-.08a.38.38,0,0,1,.17-.33.78.78,0,0,1,.51-.14,1,1,0,0,1,.58.14.55.55,0,0,1,.18.43h.49a1.07,1.07,0,0,0-.07-.39,1.19,1.19,0,0,0-.18-.29,1.62,1.62,0,0,0-.29-.19,1.83,1.83,0,0,0-.33-.11H9.81a1.37,1.37,0,0,0-.83.24.78.78,0,0,0-.34.65h0a1,1,0,0,0,.14.56.94.94,0,0,0,.53.35l.48.12a3.5,3.5,0,0,1,.55.17.41.41,0,0,1,.21.15.49.49,0,0,1,0,.24v.15a.43.43,0,0,1-.17.32.75.75,0,0,1-.52.14.76.76,0,0,1-.56-.15.48.48,0,0,1-.19-.42V94H8.62v.16a1,1,0,0,0,.07.38,1,1,0,0,0,.19.3,1.12,1.12,0,0,0,.28.18.92.92,0,0,0,.33.11,2.29,2.29,0,0,0,.37,0,1.4,1.4,0,0,0,.84-.24.75.75,0,0,0,.34-.65V94.2a.94.94,0,0,0-.15-.57.93.93,0,0,0-.51-.33" fill="#6b7688"/><path id="path17" d="M16.57,93.77a1,1,0,0,1,.17-.66.67.67,0,0,1,.53-.21h.62v1.79h-.62a.65.65,0,0,1-.53-.19,1,1,0,0,1-.17-.66Zm.35-1.2a.93.93,0,0,0-.31.13.65.65,0,0,0-.25.22.72.72,0,0,0-.18.33,1.24,1.24,0,0,0,0,.47V94a1.19,1.19,0,0,0,0,.46,2.21,2.21,0,0,0,.18.34,1,1,0,0,0,.25.21.91.91,0,0,0,.31.12,1,1,0,0,0,.35,0h1.08V92.51H16.92" fill="#6b7688"/><rect id="rect17" x="19.2" y="91.5" width="0.46" height="3.62" fill="#6b7688"/><rect id="rect18" x="20.52" y="91.5" width="0.46" height="3.62" fill="#6b7688"/><path id="path18" d="M23.42,94.69a.76.76,0,0,1-.49-.14.46.46,0,0,1-.17-.38V94a.5.5,0,0,1,.14-.37.5.5,0,0,1,.4-.14H24v1.2ZM22.9,93a.47.47,0,0,1-.14-.36v-.07a.38.38,0,0,1,.15-.32,1,1,0,0,1,1,0,.34.34,0,0,1,.16.32v.19h.47v-.38a.94.94,0,0,0-.1-.23,1.81,1.81,0,0,0-.18-.23.78.78,0,0,0-.32-.15,1.57,1.57,0,0,0-1,0,.87.87,0,0,0-.33.17,1,1,0,0,0-.18.22,1.09,1.09,0,0,0-.09.23V93a1.2,1.2,0,0,0,.13.21.53.53,0,0,0,.13.13.8.8,0,0,0-.32.72v.16a1.13,1.13,0,0,0,0,.26.77.77,0,0,0,.32.46.81.81,0,0,0,.33.14,1.54,1.54,0,0,0,.43.06h1.08V93.53h.37v-.42H23.39A.82.82,0,0,1,22.9,93" fill="#6b7688"/><polygon id="polygon18" points="27.62 95.08 27.64 95.12 28.08 95.12 29.06 92.44 29.06 95.12 29.55 95.12 29.55 91.72 28.83 91.72 27.86 94.4 26.89 91.75 26.88 91.72 26.17 91.72 26.17 95.12 26.66 95.12 26.66 92.45 27.62 95.08" fill="#6b7688"/><path id="path19" d="M32.13,93.54H30.75a.82.82,0,0,1,.18-.52.58.58,0,0,1,.5-.16A.68.68,0,0,1,32,93a.82.82,0,0,1,.18.52m.23-.74h0a1.13,1.13,0,0,0-.27-.22.84.84,0,0,0-.31-.12,1.56,1.56,0,0,0-.68,0,.84.84,0,0,0-.31.12,1.13,1.13,0,0,0-.27.22.78.78,0,0,0-.16.33,1.55,1.55,0,0,0-.08.47V94a1.38,1.38,0,0,0,.08.45.87.87,0,0,0,.43.56.84.84,0,0,0,.31.12.91.91,0,0,0,.33,0,.86.86,0,0,0,.39,0,.71.71,0,0,0,.32-.14.8.8,0,0,0,.28-.27,1.42,1.42,0,0,0,.15-.42h-.48a.59.59,0,0,1-.21.37.77.77,0,0,1-.45.11.67.67,0,0,1-.51-.18,1,1,0,0,1-.17-.6H32.6v-.38a1.48,1.48,0,0,0-.08-.46.89.89,0,0,0-.16-.34" fill="#6b7688"/><path id="path20" d="M33.72,93.77a1,1,0,0,1,.17-.67.66.66,0,0,1,.52-.2H35v1.79h-.63a.62.62,0,0,1-.52-.19,1,1,0,0,1-.17-.66ZM35,92.48h-1a1.32,1.32,0,0,0-.57.35,1.24,1.24,0,0,0-.18.34,1.19,1.19,0,0,0,0,.46v.29a1.19,1.19,0,0,0,0,.46.9.9,0,0,0,.18.35,1.09,1.09,0,0,0,.26.21.84.84,0,0,0,.31.12H35.5V91.47H35Z" fill="#6b7688"/><rect id="rect20" x="36.35" y="92.48" width="0.46" height="2.64" fill="#6b7688"/><path id="path21" d="M39.44,93.9a1.19,1.19,0,0,1-.16.67.83.83,0,0,1-1,0,1.29,1.29,0,0,1-.14-.67V92.48h-.47V94a2.22,2.22,0,0,0,.06.45,1.35,1.35,0,0,0,.17.34.54.54,0,0,0,.25.22.86.86,0,0,0,.3.12,1.65,1.65,0,0,0,.7,0,1,1,0,0,0,.31-.12.84.84,0,0,0,.24-.22.89.89,0,0,0,.16-.34,1.14,1.14,0,0,0,0-.45V92.48h-.45Z" fill="#6b7688"/><polygon id="polygon21" points="46.83 93.18 46.83 92.15 48.3 92.15 48.3 91.72 46.33 91.72 46.33 95.12 48.3 95.12 48.3 94.69 46.83 94.69 46.83 93.61 48.21 93.61 48.21 93.18 46.83 93.18" fill="#6b7688"/><path id="path22" d="M55.56,93.54H54.18a.82.82,0,0,1,.18-.52.58.58,0,0,1,.5-.16.69.69,0,0,1,.52.16.77.77,0,0,1,.18.52m.23-.74h0a1.13,1.13,0,0,0-.27-.22.84.84,0,0,0-.31-.12,1.56,1.56,0,0,0-.68,0,.84.84,0,0,0-.31.12,1,1,0,0,0-.27.22.94.94,0,0,0-.17.33,1.91,1.91,0,0,0-.07.47V94a1.69,1.69,0,0,0,.07.45.88.88,0,0,0,.44.56.84.84,0,0,0,.31.12.91.91,0,0,0,.33,0,.86.86,0,0,0,.39,0,.77.77,0,0,0,.32-.14.8.8,0,0,0,.28-.27,1.42,1.42,0,0,0,.15-.42h-.48a.59.59,0,0,1-.21.37.79.79,0,0,1-.45.11.67.67,0,0,1-.51-.18,1,1,0,0,1-.17-.6H56v-.38a1.48,1.48,0,0,0-.08-.46.89.89,0,0,0-.16-.34" fill="#6b7688"/><path id="path23" d="M60.4,93.77v.07a1,1,0,0,1-.17.66.64.64,0,0,1-.53.19h-.62V92.9h.62a.65.65,0,0,1,.53.21,1,1,0,0,1,.17.66m.23-.91a1,1,0,0,0-.27-.22,1.26,1.26,0,0,0-.37-.13H58.58V96.1H59v-1h1a1,1,0,0,0,.33-.12,1.71,1.71,0,0,0,.26-.21,1.36,1.36,0,0,0,.24-.81v-.29a1.47,1.47,0,0,0-.07-.46,1.35,1.35,0,0,0-.17-.34" fill="#6b7688"/><rect id="rect23" x="63.46" y="92.48" width="0.46" height="2.64" fill="#6b7688"/><path id="path24" d="M66.25,93.67l-.42-.11-.47-.12a.48.48,0,0,1-.19-.09.49.49,0,0,1,0-.17h0A.3.3,0,0,1,65.3,93a1,1,0,0,1,.46-.08c.6,0,.6.26.6.36h.45a.8.8,0,0,0-.08-.37.72.72,0,0,0-.24-.25l-.34-.14a2.54,2.54,0,0,0-.39,0,1.39,1.39,0,0,0-.75.18.63.63,0,0,0-.31.53h0a.65.65,0,0,0,.54.7l.41.1.47.12a.78.78,0,0,1,.2.11.49.49,0,0,1,0,.17h0c0,.08,0,.35-.55.35s-.6-.28-.6-.36v-.22h-.46v.22a.77.77,0,0,0,.09.36A.53.53,0,0,0,65,95a1,1,0,0,0,.33.13,1.34,1.34,0,0,0,.4,0h.37a.9.9,0,0,0,.32-.13.69.69,0,0,0,.24-.24.81.81,0,0,0,.09-.37h0a.73.73,0,0,0-.13-.46.86.86,0,0,0-.41-.24" fill="#6b7688"/><path id="path25" d="M69.28,93.54H67.9a.77.77,0,0,1,.18-.52.6.6,0,0,1,.51-.16.67.67,0,0,1,.51.16.82.82,0,0,1,.18.52m.23-.74a1,1,0,0,0-.27-.22.84.84,0,0,0-.31-.12,1.56,1.56,0,0,0-.68,0,.84.84,0,0,0-.31.12,1.13,1.13,0,0,0-.27.22,1,1,0,0,0-.18.33,2.52,2.52,0,0,0-.06.47V94a2.22,2.22,0,0,0,.06.45,1.11,1.11,0,0,0,.18.34,1,1,0,0,0,.27.22.84.84,0,0,0,.31.12,1,1,0,0,0,.34,0,.81.81,0,0,0,.38,0,.71.71,0,0,0,.32-.14.73.73,0,0,0,.28-.27,1.42,1.42,0,0,0,.15-.42h-.48a.63.63,0,0,1-.21.37.76.76,0,0,1-.44.11.68.68,0,0,1-.52-.18,1,1,0,0,1-.17-.6h1.85v-.38a1.83,1.83,0,0,0-.07-.46,1.09,1.09,0,0,0-.17-.34" fill="#6b7688"/><path id="path26" d="M72,93.67l-.42-.11-.47-.12a.48.48,0,0,1-.19-.09.49.49,0,0,1,0-.17h0A.3.3,0,0,1,71,93a1,1,0,0,1,.46-.08c.59,0,.59.26.59.36h.46a.8.8,0,0,0-.08-.37.58.58,0,0,0-.24-.25l-.34-.14a2.54,2.54,0,0,0-.39,0,1.39,1.39,0,0,0-.75.18.62.62,0,0,0-.3.53h0a.83.83,0,0,0,.12.46.82.82,0,0,0,.41.24l.41.1.47.12a.78.78,0,0,1,.2.11.49.49,0,0,1,0,.17h0c0,.08,0,.35-.55.35s-.6-.28-.6-.36v-.22h-.46v.22a.77.77,0,0,0,.09.36.64.64,0,0,0,.24.25,1,1,0,0,0,.33.13,1.34,1.34,0,0,0,.4,0h.37a.9.9,0,0,0,.32-.13.69.69,0,0,0,.24-.24.81.81,0,0,0,.09-.37h0a.68.68,0,0,0-.14-.46.79.79,0,0,0-.4-.24" fill="#6b7688"/><path id="path27" d="M75,92.29a.69.69,0,0,1,.56-.2.85.85,0,0,1,.56.17.84.84,0,0,1,.21.55h.49a1.43,1.43,0,0,0-.07-.46.88.88,0,0,0-.48-.54,1.31,1.31,0,0,0-.33-.12,2.36,2.36,0,0,0-.75,0,1.18,1.18,0,0,0-.33.12,1.06,1.06,0,0,0-.29.22,1.7,1.7,0,0,0-.19.35,1.14,1.14,0,0,0,0,.45V94a1.19,1.19,0,0,0,0,.46,1.41,1.41,0,0,0,.19.34,1.06,1.06,0,0,0,.29.22,1.18,1.18,0,0,0,.33.12,2.29,2.29,0,0,0,.37,0,2.59,2.59,0,0,0,.74-.1,1.15,1.15,0,0,0,.51-.3V93.3H75.74v.43h.6v.85a.7.7,0,0,1-.28.12,1.34,1.34,0,0,1-.49,0,.78.78,0,0,1-.56-.2,1,1,0,0,1-.19-.67v-.91a1,1,0,0,1,.19-.68" fill="#6b7688"/><path id="path28" d="M79.38,93.54H78a.77.77,0,0,1,.18-.52.58.58,0,0,1,.5-.16.71.71,0,0,1,.52.16.82.82,0,0,1,.18.52m.22-.74h0a1.09,1.09,0,0,0-.26-.22.84.84,0,0,0-.31-.12h-.68a1,1,0,0,0-.32.12,1.09,1.09,0,0,0-.26.22,1,1,0,0,0-.18.33,1.85,1.85,0,0,0,0,.47V94a1.69,1.69,0,0,0,0,.45,1.11,1.11,0,0,0,.18.34A.92.92,0,0,0,78,95a1,1,0,0,0,.32.12.91.91,0,0,0,.33,0,.86.86,0,0,0,.39,0,.77.77,0,0,0,.32-.14.7.7,0,0,0,.27-.27,1.21,1.21,0,0,0,.16-.42h-.48a.69.69,0,0,1-.21.37.79.79,0,0,1-.45.11.67.67,0,0,1-.51-.18A1,1,0,0,1,78,94h1.84v-.38a1.47,1.47,0,0,0-.07-.46.78.78,0,0,0-.17-.34" fill="#6b7688"/><path id="path29" d="M82.54,92.74a.87.87,0,0,0-.38-.2,2.71,2.71,0,0,0-.57,0h-1v2.64h.45V92.9h.58a2.16,2.16,0,0,1,.36,0,.37.37,0,0,1,.2.12.42.42,0,0,1,.1.17,1.31,1.31,0,0,1,0,.28v1.61h.46V93.53a1.29,1.29,0,0,0,0-.48.71.71,0,0,0-.19-.35" fill="#6b7688"/><path id="path30" d="M85.35,93.54H84a.88.88,0,0,1,.18-.52.65.65,0,0,1,.5-.16.68.68,0,0,1,.52.16.77.77,0,0,1,.18.52m.23-.74h0a1,1,0,0,0-.27-.22.84.84,0,0,0-.31-.12,1.56,1.56,0,0,0-.68,0,.84.84,0,0,0-.31.12,1.13,1.13,0,0,0-.27.22.78.78,0,0,0-.16.33,1.55,1.55,0,0,0-.08.47V94a1.38,1.38,0,0,0,.08.45A.87.87,0,0,0,84,95a.84.84,0,0,0,.31.12.91.91,0,0,0,.33,0,.86.86,0,0,0,.39,0,.75.75,0,0,0,.33-.14.87.87,0,0,0,.27-.27,1.42,1.42,0,0,0,.15-.42H85.3a.59.59,0,0,1-.21.37.77.77,0,0,1-.45.11.67.67,0,0,1-.51-.18A1,1,0,0,1,84,94h1.85v-.38a1.48,1.48,0,0,0-.08-.46.89.89,0,0,0-.16-.34" fill="#6b7688"/><polygon id="polygon30" points="87.03 95.12 87.03 92.9 87.77 92.9 87.77 92.48 86.57 92.48 86.57 95.12 87.03 95.12" fill="#6b7688"/><path id="path31" d="M88.61,93.77a1.15,1.15,0,0,1,.14-.66.68.68,0,0,1,.53-.21H90v1.79h-.62a.65.65,0,0,1-.53-.19,1,1,0,0,1-.16-.66Zm.36-1.2a.85.85,0,0,0-.31.13.62.62,0,0,0-.26.22.72.72,0,0,0-.18.33,1.24,1.24,0,0,0,0,.47V94a1.19,1.19,0,0,0,0,.46,1.24,1.24,0,0,0,.18.34,1.09,1.09,0,0,0,.26.21.84.84,0,0,0,.31.12,1,1,0,0,0,.34,0h1.07V92.51H89" fill="#6b7688"/><rect id="rect31" x="91.25" y="91.5" width="0.46" height="3.62" fill="#6b7688"/><path id="path32" d="M95,94H94l.5-1.58Zm-.24-2.26h-.6l-1.08,3.33v.07h.48l.23-.71h1.3l.23.71h.52l-1.08-3.37Z" fill="#6b7688"/><path id="path33" d="M98.19,93.9a1.19,1.19,0,0,1-.16.67.63.63,0,0,1-.51.18.64.64,0,0,1-.52-.18,1.12,1.12,0,0,1-.14-.67V92.48h-.47V94a1.14,1.14,0,0,0,0,.45.69.69,0,0,0,.17.34.73.73,0,0,0,.24.22.84.84,0,0,0,.31.12,1.61,1.61,0,0,0,.69,0,.79.79,0,0,0,.3-.12.54.54,0,0,0,.25-.22.78.78,0,0,0,.17-.34,1.14,1.14,0,0,0,0-.45V92.48h-.45Z" fill="#6b7688"/><path id="path34" d="M103.22,92.74a.89.89,0,0,0-.37-.2,2.62,2.62,0,0,0-.56,0h-.54v-1h-.46v3.6h.46V92.9h.57a2,2,0,0,1,.35,0,.37.37,0,0,1,.2.12.45.45,0,0,1,.11.17,1.31,1.31,0,0,1,0,.28v1.61h.47V93.53a1.93,1.93,0,0,0,0-.48.92.92,0,0,0-.19-.35" fill="#6b7688"/><path id="path35" d="M106,93.69v.21a1,1,0,0,1-.17.66.82.82,0,0,1-1.06,0,1,1,0,0,1-.16-.66v-.21a.92.92,0,0,1,.16-.64.79.79,0,0,1,1.06,0,1,1,0,0,1,.17.64m.22-.89h0a1.09,1.09,0,0,0-.26-.22,1,1,0,0,0-.32-.12,1.51,1.51,0,0,0-.67,0,1,1,0,0,0-.32.12,1.09,1.09,0,0,0-.26.22,1,1,0,0,0-.18.33,1.89,1.89,0,0,0-.06.47V94a1.68,1.68,0,0,0,.06.45,1.11,1.11,0,0,0,.18.34.92.92,0,0,0,.26.22,1,1,0,0,0,.32.12.91.91,0,0,0,.33,0,1,1,0,0,0,.35,0A1.17,1.17,0,0,0,106,95a1.12,1.12,0,0,0,.26-.22.69.69,0,0,0,.17-.34,1.37,1.37,0,0,0,.07-.45V93.6a1.53,1.53,0,0,0-.07-.47.7.7,0,0,0-.17-.33" fill="#6b7688"/><rect id="rect35" x="109.09" y="92.48" width="0.46" height="2.64" fill="#6b7688"/><polygon id="polygon35" points="111.14 95.12 111.14 92.9 111.57 92.9 111.57 92.48 111.14 92.48 111.14 91.72 110.67 91.72 110.67 92.48 110.25 92.48 110.25 92.9 110.67 92.9 110.67 95.12 111.14 95.12" fill="#6b7688"/><path id="path36" d="M114.11,92.48l-.8,2.13-.79-2.1H112l1,2.5a.31.31,0,0,0,.14.16l-.37,1h.49l1.38-3.6Z" fill="#6b7688"/><polygon id="polygon36" points="107.71 95.12 107.71 92.9 108.46 92.9 108.46 92.48 107.26 92.48 107.26 95.12 107.71 95.12" fill="#6b7688"/><polygon id="polygon37" points="62.08 95.12 62.08 92.9 62.82 92.9 62.82 92.48 61.62 92.48 61.62 95.12 62.08 95.12" fill="#6b7688"/><polygon id="polygon38" points="57.24 95.12 57.24 92.9 57.98 92.9 57.98 92.48 56.78 92.48 56.78 95.12 57.24 95.12" fill="#6b7688"/><polygon id="polygon39" points="100.15 95.12 100.15 92.9 100.58 92.9 100.58 92.48 100.15 92.48 100.15 91.72 99.7 91.72 99.7 92.48 99.27 92.48 99.27 92.9 99.7 92.9 99.7 95.12 100.15 95.12" fill="#6b7688"/><polygon id="polygon40" points="52.84 95.12 52.84 92.9 53.28 92.9 53.28 92.48 52.84 92.48 52.84 91.72 52.38 91.72 52.38 92.48 51.96 92.48 51.96 92.9 52.38 92.9 52.38 95.12 52.84 95.12" fill="#6b7688"/><path id="path40" d="M51,92.74a.79.79,0,0,0-.37-.2,2.62,2.62,0,0,0-.56,0h-1v2.64h.47V92.9h.58a1.93,1.93,0,0,1,.34,0,.37.37,0,0,1,.21.12.59.59,0,0,1,.1.17.66.66,0,0,1,0,.28v1.61h.47V93.53a1.29,1.29,0,0,0,0-.48.82.82,0,0,0-.2-.35" fill="#6b7688"/><path id="path41" d="M63.92,91.83a.23.23,0,0,0-.08-.09.51.51,0,0,0-.3,0,.23.23,0,0,0-.08.09v.29a.16.16,0,0,0,.08.1h.3l.08-.08a.07.07,0,0,0,0-.09v-.14a.06.06,0,0,0,0-.08" fill="#6b7688"/><path id="path42" d="M36.81,91.83s-.06-.06-.09-.09a.48.48,0,0,0-.29,0s-.07.05-.09.09v.31a.34.34,0,0,0,.09.08h.29a.34.34,0,0,0,.09-.08v-.31" fill="#6b7688"/><path id="path43" d="M109.57,91.83s-.06-.06-.09-.09a.51.51,0,0,0-.3,0,.38.38,0,0,0-.09.09v.29a.18.18,0,0,0,.09.1h.28l.09-.08a.14.14,0,0,0,0-.09v-.14a.11.11,0,0,0,0-.08" fill="#6b7688"/><path id="path44" d="M44.08,92.75a.75.75,0,0,0-.35-.21,2.44,2.44,0,0,0-.54,0H40.72v2.64h.47V92.9h1.07v2.22h.45V92.9h.5a2.16,2.16,0,0,1,.36,0,.37.37,0,0,1,.21.12.32.32,0,0,1,.09.17.66.66,0,0,1,0,.28v1.61h.46V93.53a1.93,1.93,0,0,0,0-.48.88.88,0,0,0-.19-.34" fill="#6b7688"/><path id="path45" d="M15.16,92.75a.67.67,0,0,0-.36-.21,2.35,2.35,0,0,0-.53,0H11.8v2.64h.46V92.9h1.08v2.22h.45V92.9h.46a2,2,0,0,1,.35,0,.37.37,0,0,1,.2.12.62.62,0,0,1,.11.17,1.31,1.31,0,0,1,0,.28v1.61h.46V93.53a1.29,1.29,0,0,0,0-.48.91.91,0,0,0-.17-.34" fill="#6b7688"/><rect id="rect45" x="114.13" y="84.68" width="0.48" height="4.67" fill="#6b7688"/><path id="path46" d="M110.07,88.88h-.52a.51.51,0,0,1-.39-.15.57.57,0,0,1-.13-.33v-.19a.61.61,0,0,1,.12-.4.56.56,0,0,1,.78,0,.74.74,0,0,1,.13.48Zm-7.68,0h-.91a.49.49,0,0,1-.39-.16.68.68,0,0,1-.12-.48v-.72a.7.7,0,0,1,.12-.48.51.51,0,0,1,.37-.14h.48a.51.51,0,0,1,.39.14.75.75,0,0,1,.12.48Zm10.24-4.16v4.19h-1.1v-1a3.65,3.65,0,0,0-.08-.74.87.87,0,0,0-.25-.47.94.94,0,0,0-.42-.25,2.56,2.56,0,0,0-.62-.07h-.78v.48h.81a2.54,2.54,0,0,1,.39,0,.68.68,0,0,1,.26.15,1,1,0,0,1,.16.3,2,2,0,0,1,0,.49v1.09h-.47v-.67a1.34,1.34,0,0,0-.06-.4.61.61,0,0,0-.14-.29,1.81,1.81,0,0,0-.23-.18.57.57,0,0,0-.28-.11h-.58a.57.57,0,0,0-.28.11,1,1,0,0,0-.23.18.61.61,0,0,0-.14.29.9.9,0,0,0,0,.4h0a1.57,1.57,0,0,0,0,.53.17.17,0,0,0,.07.13h-1.45V86.46h-.48v2.39H105V86.46h-.48v2.39h-1.64v-1.4a1.41,1.41,0,0,0,0-.41,1,1,0,0,0-.16-.28.63.63,0,0,0-.23-.2.73.73,0,0,0-.26-.09,1.5,1.5,0,0,0-.3,0h-.42a1.22,1.22,0,0,0-.27,0,.86.86,0,0,0-.27.09.69.69,0,0,0-.22.2.78.78,0,0,0-.16.28,1.41,1.41,0,0,0,0,.41v.86a1.34,1.34,0,0,0,0,.4,1.73,1.73,0,0,0,.16.3,1,1,0,0,0,.22.18.59.59,0,0,0,.27.11,1.5,1.5,0,0,0,.3,0h11.62V84.72Z" fill="#6b7688"/><path id="path47" d="M105.22,85.92h0v-.34h-.39a.17.17,0,0,1-.1-.2c0-.11.14-.18.35-.18h.19v-.34H105c-.42,0-.64.17-.65.49a.88.88,0,0,0,0,.23h-.29v.34h1.13Z" fill="#6b7688"/><path id="path48" d="M107.29,90.42h.34a.2.2,0,0,0,.08-.08.09.09,0,0,0,0-.1.22.22,0,0,0,0-.16.07.07,0,0,0,0-.09.2.2,0,0,0-.08-.08.4.4,0,0,0-.34,0,.34.34,0,0,0-.09.08v.35a.34.34,0,0,0,.09.08" fill="#6b7688"/><path id="path49" d="M106.73,90.42s.09,0,.1-.08a.17.17,0,0,0,0-.1.43.43,0,0,0,0-.16.14.14,0,0,0,0-.09s0-.06-.1-.08h-.32s-.09,0-.1.08v.35l.1.08h.32" fill="#6b7688"/><path id="path50" d="M101.94,85.8a.24.24,0,0,0,0,.12.49.49,0,0,0,.17,0,.43.43,0,0,0,.16,0,.16.16,0,0,0,.09-.09.11.11,0,0,0,0-.08.49.49,0,0,0,0-.17.11.11,0,0,0,0-.08.16.16,0,0,0-.09-.09h-.33a.28.28,0,0,0-.1.09v.33" fill="#6b7688"/><path id="path51" d="M101,85.8a.14.14,0,0,0,.1.08.43.43,0,0,0,.16,0,.43.43,0,0,0,.16,0,.2.2,0,0,0,.1-.08v-.09a.43.43,0,0,0,0-.16v-.09a.2.2,0,0,0-.1-.08h-.32a.12.12,0,0,0-.1.08.14.14,0,0,0,0,.09.43.43,0,0,0,0,.16.14.14,0,0,0,0,.09" fill="#6b7688"/><path id="path52" d="M77.31,88.89h-.92a.51.51,0,0,1-.4-.16.88.88,0,0,1-.12-.48v-.72a.87.87,0,0,1,.12-.47.51.51,0,0,1,.37-.15h.41a.52.52,0,0,1,.4.15.8.8,0,0,1,.13.47Zm3.2-4.17v4.19H79.25V84.72h-.48v4.19h-1V87.45a1.41,1.41,0,0,0,0-.41.57.57,0,0,0-.16-.28.8.8,0,0,0-.21-.2.92.92,0,0,0-.28-.09,1.5,1.5,0,0,0-.3,0h-.42a1.22,1.22,0,0,0-.27,0,.86.86,0,0,0-.27.09.69.69,0,0,0-.22.2.64.64,0,0,0-.15.28,1.51,1.51,0,0,0-.06.37h0v.33a1.45,1.45,0,0,1-.21.86.88.88,0,0,1-.73.26h-.57V86.47h-.48v2.39h-2V86.47H71v2.39H70.5a.86.86,0,0,1-.74-.26,1.59,1.59,0,0,1-.22-.93v-1h-.48v1a1.51,1.51,0,0,1-.21.93.87.87,0,0,1-.73.26h-.45V86.68h-.49v2.2H64.93V84.72h-.48V89.4h3.6a1.62,1.62,0,0,0,.44,0,1.37,1.37,0,0,0,.38-.15A1.26,1.26,0,0,0,69.2,89v0a1,1,0,0,0,.31.28,1.32,1.32,0,0,0,.39.15,1.27,1.27,0,0,0,.39,0h4.06a1.62,1.62,0,0,0,.44,0,1.43,1.43,0,0,0,.39-.15,1,1,0,0,0,.26-.24v.12a.84.84,0,0,0,.23.18.6.6,0,0,0,.26.11,1.5,1.5,0,0,0,.3,0h4.6v-4.7Z" fill="#6b7688"/><path id="path53" d="M63.84,84l.45-.35a.76.76,0,0,0,.51.22.81.81,0,0,0,.55-.23V84a.86.86,0,0,1-.58.21.66.66,0,0,1-.48-.17l-.26.19Z" fill="#6b7688"/><path id="path54" d="M63.05,88.88H59.82a.92.92,0,0,1-.73-.27,1.58,1.58,0,0,1-.21-.93v-.56H58.4v.73a2.46,2.46,0,0,0,.07.6,1,1,0,0,0,.53.7,1.8,1.8,0,0,0,.38.16h4.21V86.43h-.48Z" fill="#6b7688"/><path id="path55" d="M69.5,85.46v.35a.23.23,0,0,0,.08.11.5.5,0,0,0,.34,0,.23.23,0,0,0,.09-.08V85.5a.26.26,0,0,0-.09-.09.5.5,0,0,0-.34,0,.28.28,0,0,0-.1.09" fill="#6b7688"/><path id="path56" d="M73.38,85.8a.23.23,0,0,0,.09.08.49.49,0,0,0,.17,0,.43.43,0,0,0,.16,0,.11.11,0,0,0,.09-.08.07.07,0,0,0,0-.09.22.22,0,0,0,0-.16.07.07,0,0,0,0-.09.1.1,0,0,0-.09-.08h-.33a.23.23,0,0,0-.09.08v.09a.43.43,0,0,0,0,.16v.09" fill="#6b7688"/><path id="path57" d="M69.1,85.07a.27.27,0,0,0,.1.08h.33a.34.34,0,0,0,.09-.08.17.17,0,0,0,0-.1.11.11,0,0,0,0-.08V84.8a.12.12,0,0,0,0-.08.34.34,0,0,0-.08-.09h-.34a.43.43,0,0,0-.1.09v.35" fill="#6b7688"/><path id="path58" d="M68.56,85.8s.06.07.1.08a.43.43,0,0,0,.16,0,.43.43,0,0,0,.16,0,.13.13,0,0,0,.1-.17.43.43,0,0,0,0-.16.14.14,0,0,0,0-.09.12.12,0,0,0-.1-.08h-.32s-.07.05-.1.08v.34" fill="#6b7688"/><path id="path59" d="M61.19,85.8a.12.12,0,0,0,.1.08.38.38,0,0,0,.15,0,.49.49,0,0,0,.17,0s.07,0,.1-.08v-.09a.43.43,0,0,0,0-.16v-.09s-.06-.07-.1-.08h-.32s-.09,0-.1.08a.14.14,0,0,0,0,.09.43.43,0,0,0,0,.16.14.14,0,0,0,0,.09" fill="#6b7688"/><path id="path60" d="M60.24,85.8a.18.18,0,0,0,.09.08.49.49,0,0,0,.17,0,.43.43,0,0,0,.16,0,.2.2,0,0,0,.1-.08v-.34a.2.2,0,0,0-.1-.08h-.33a.18.18,0,0,0-.09.08v.34" fill="#6b7688"/><rect id="rect60" x="55.73" y="84.68" width="0.48" height="4.67" fill="#6b7688"/><path id="path61" d="M52.62,88.88H50.41V87.47A1.82,1.82,0,0,1,52.2,87a.74.74,0,0,1,.46.62Zm-5.14-.29a1.47,1.47,0,0,1-.45-.41,1.37,1.37,0,0,1-.28-1.2,3.29,3.29,0,0,1,1.13-.09c.44.07.48.3.46.49a1.89,1.89,0,0,1-.86,1.21m6.74-3.87v4.19H53.1v-1.2a1.19,1.19,0,0,0-.72-1.06,2,2,0,0,0-2,.31V86.5h-.48v2.4h-1.1a2.88,2.88,0,0,1-.78-.11,2.24,2.24,0,0,0,.85-1.33.89.89,0,0,0-.78-1H48a3.81,3.81,0,0,0-1.46.14H46.4v.12a1.88,1.88,0,0,0,.3,1.7,1.85,1.85,0,0,0,.39.4H45v-2.4h-.57v2.4H42.62v-2.4h-.48v2.4a2.09,2.09,0,0,1,0,.5.86.86,0,0,1-.15.32.5.5,0,0,1-.23.18,1.67,1.67,0,0,1-.32.08v.52l.37-.06a1.43,1.43,0,0,0,.34-.14.9.9,0,0,0,.27-.28,1,1,0,0,0,.17-.42v-.19h4.22a1.27,1.27,0,0,0,.69-.21,3.48,3.48,0,0,0,1.28.21h5.9V84.72Z" fill="#6b7688"/><path id="path62" d="M47.17,85.8a.16.16,0,0,0,.08.08.49.49,0,0,0,.17,0,.49.49,0,0,0,.17,0,.23.23,0,0,0,.09-.08v-.34a.23.23,0,0,0-.09-.08h-.34a.16.16,0,0,0-.08.08v.34" fill="#6b7688"/><path id="path63" d="M40.1,85.8a.16.16,0,0,0,.08.08.49.49,0,0,0,.17,0,.49.49,0,0,0,.17,0,.23.23,0,0,0,.09-.08v-.34a.23.23,0,0,0-.09-.08h-.34a.16.16,0,0,0-.08.08.14.14,0,0,0,0,.09.43.43,0,0,0,0,.16.14.14,0,0,0,0,.09" fill="#6b7688"/><path id="path64" d="M39.15,85.8s.06.07.1.08a.49.49,0,0,0,.17,0,.28.28,0,0,0,.2,0,.24.24,0,0,0,0-.12.14.14,0,0,0,0-.09.43.43,0,0,0,0-.16.14.14,0,0,0,0-.09.16.16,0,0,0-.08-.08H39.2s-.07.05-.1.08v.34" fill="#6b7688"/><path id="path65" d="M45,90.42h.34a.2.2,0,0,0,.08-.08.09.09,0,0,0,0-.1.22.22,0,0,0,0-.16.07.07,0,0,0,0-.09.2.2,0,0,0-.08-.08H45a.34.34,0,0,0-.09.08v.35a.34.34,0,0,0,.09.08" fill="#6b7688"/><path id="path66" d="M44.41,90a.34.34,0,0,0-.09-.08H44a.09.09,0,0,0-.09.08.14.14,0,0,0,0,.09.43.43,0,0,0,0,.16.17.17,0,0,0,0,.1.34.34,0,0,0,.09.08h.33a.34.34,0,0,0,.09-.08v-.1a.43.43,0,0,0,0-.16V90" fill="#6b7688"/><path id="path67" d="M39.16,87.53a.74.74,0,0,1,.14-.47.48.48,0,0,1,.36-.15h.43a.5.5,0,0,1,.38.15.73.73,0,0,1,.13.47v1.36h-.92a.46.46,0,0,1-.38-.16.75.75,0,0,1-.14-.48Zm0,1.69a.57.57,0,0,0,.27.11,1.5,1.5,0,0,0,.3,0h1.4V87.45a1.41,1.41,0,0,0,0-.41.62.62,0,0,0-.14-.28,2.05,2.05,0,0,0-.23-.2.92.92,0,0,0-.28-.09,1.5,1.5,0,0,0-.3,0h-.56a1.31,1.31,0,0,0-.28,0,.8.8,0,0,0-.26.09,1.43,1.43,0,0,0-.23.2.62.62,0,0,0-.14.28.94.94,0,0,0,0,.41v.86a.9.9,0,0,0,0,.4,1.17,1.17,0,0,0,.14.3,1.3,1.3,0,0,0,.23.18" fill="#6b7688"/><rect id="rect67" x="97.89" y="84.68" width="0.48" height="4.67" fill="#6b7688"/><path id="path68" d="M85.16,85.8a.2.2,0,0,0,.1.08.43.43,0,0,0,.16,0,.49.49,0,0,0,.17,0,.13.13,0,0,0,.08-.08v-.34a.13.13,0,0,0-.08-.08h-.33a.2.2,0,0,0-.1.08v.34" fill="#6b7688"/><path id="path69" d="M84.19,85.8a.12.12,0,0,0,.09.08.49.49,0,0,0,.17,0,.43.43,0,0,0,.16,0,.11.11,0,0,0,.09-.08.07.07,0,0,0,0-.09.22.22,0,0,0,0-.16.07.07,0,0,0,0-.09.1.1,0,0,0-.09-.08h-.33a.11.11,0,0,0-.09.08.14.14,0,0,0,0,.09.43.43,0,0,0,0,.16.14.14,0,0,0,0,.09" fill="#6b7688"/><path id="path70" d="M94,88.61a1.21,1.21,0,0,1-.48-.42A1.47,1.47,0,0,1,93.3,87a3,3,0,0,1,1.11-.1c.5.08.48.34.47.44a2,2,0,0,1-.88,1.2m2.4-3.93V88.8H95.33a3.94,3.94,0,0,1-.77-.07,2.53,2.53,0,0,0,.81-1.39c0-.24,0-.82-.87-1a3.7,3.7,0,0,0-1.45.15h-.12v.12a2,2,0,0,0,.26,1.72,2,2,0,0,0,.37.39H91.67v-4h-.52V89.4h2.23a1.45,1.45,0,0,0,.68-.19,4.45,4.45,0,0,0,1.2.21h1.61v-4.7Z" fill="#6b7688"/><path id="path71" d="M88.42,88.73a.74.74,0,0,1-.12-.48v-.72a.72.72,0,0,1,.12-.47.48.48,0,0,1,.37-.15h.42a.45.45,0,0,1,.38.15.74.74,0,0,1,.14.47v1.36h-1a.47.47,0,0,1-.38-.16m-4.1,0a.8.8,0,0,1-.12-.48v-.72a.79.79,0,0,1,.12-.47.51.51,0,0,1,.37-.15h.52a.52.52,0,0,1,.4.15.8.8,0,0,1,.13.47v1.36h-.93a.51.51,0,0,1-.39-.16m5.88.63V87.45a.94.94,0,0,0,0-.41.62.62,0,0,0-.14-.28,1.1,1.1,0,0,0-.23-.2.86.86,0,0,0-.27-.09,1.5,1.5,0,0,0-.3,0h-.56a1.31,1.31,0,0,0-.28,0,.86.86,0,0,0-.27.09,1.37,1.37,0,0,0-.22.2.64.64,0,0,0-.15.28,1.15,1.15,0,0,0,0,.37h0v.27a1.58,1.58,0,0,1-.21.93,1,1,0,0,1-.73.27h-.76V87.45a1.41,1.41,0,0,0,0-.41.78.78,0,0,0-.16-.28.8.8,0,0,0-.21-.2.92.92,0,0,0-.28-.09,1.5,1.5,0,0,0-.3,0h-.42a1.22,1.22,0,0,0-.27,0,.86.86,0,0,0-.27.09.69.69,0,0,0-.22.2.76.76,0,0,0-.15.28,1.41,1.41,0,0,0,0,.41v.86a1.34,1.34,0,0,0,0,.4A1.68,1.68,0,0,0,84,89a1,1,0,0,0,.22.18.64.64,0,0,0,.27.11,1.5,1.5,0,0,0,.3,0h2.14a3.38,3.38,0,0,0,.45,0,1.8,1.8,0,0,0,.38-.16A.92.92,0,0,0,88,88.9V89a1.24,1.24,0,0,0,.22.18.57.57,0,0,0,.27.11h.3Z" fill="#6b7688"/><rect id="rect71" x="32.69" y="84.68" width="0.48" height="4.67" fill="#6b7688"/><path id="path72" d="M15.12,88.88H12.86V87.46A1.85,1.85,0,0,1,14.67,87a.74.74,0,0,1,.45.62Zm-4.51,0H9.66a.48.48,0,0,1-.39-.16.81.81,0,0,1-.13-.48v-.72A.83.83,0,0,1,9.27,87a.51.51,0,0,1,.38-.14h.42a.49.49,0,0,1,.38.14.76.76,0,0,1,.13.48Zm10.06,0h-.45a.89.89,0,0,1-.73-.27,1.59,1.59,0,0,1-.22-.93v-1h-.48v1a1.59,1.59,0,0,1-.22.93.89.89,0,0,1-.73.27h-.45v-2.2h-.48v2.2H15.65v-1.2a1.19,1.19,0,0,0-.73-1.06,2,2,0,0,0-2,.3v-2.2h-.5v4.19H11.08V87.45a.94.94,0,0,0,0-.41.74.74,0,0,0-.22-.28.87.87,0,0,0-.23-.2.84.84,0,0,0-.28-.09,1.31,1.31,0,0,0-.28,0H9.66a1.31,1.31,0,0,0-.28,0,.86.86,0,0,0-.27.09,1.1,1.1,0,0,0-.23.2.62.62,0,0,0-.14.28,1.45,1.45,0,0,0-.06.41v.86a1.34,1.34,0,0,0,.06.4,1.17,1.17,0,0,0,.14.3,1,1,0,0,0,.23.18,1.28,1.28,0,0,0,.27.11,1.41,1.41,0,0,0,.29,0h8.16a3.38,3.38,0,0,0,.45,0,1.8,1.8,0,0,0,.38-.16,1.22,1.22,0,0,0,.32-.28v0a1.18,1.18,0,0,0,.31.28,1.88,1.88,0,0,0,.39.16,2.54,2.54,0,0,0,.39,0h1V86.43h-.48Z" fill="#6b7688"/><path id="path73" d="M10.1,85.8a.12.12,0,0,0,.1.08.38.38,0,0,0,.15,0,.49.49,0,0,0,.17,0s.07,0,.1-.08v-.34s-.06-.07-.1-.08H10.2s-.09,0-.1.08a.14.14,0,0,0,0,.09.43.43,0,0,0,0,.16.14.14,0,0,0,0,.09" fill="#6b7688"/><path id="path74" d="M9.16,85.8a.23.23,0,0,0,.09.08.49.49,0,0,0,.17,0,.49.49,0,0,0,.17,0,.14.14,0,0,0,.07-.08v-.34a.14.14,0,0,0-.09-.08H9.24s-.07.05-.1.08v.34" fill="#6b7688"/><path id="path75" d="M26.1,85.8a.2.2,0,0,0,.1.08.43.43,0,0,0,.16,0,.49.49,0,0,0,.17,0,.18.18,0,0,0,.09-.08v-.34a.18.18,0,0,0-.09-.08H26.2a.2.2,0,0,0-.1.08v.34" fill="#6b7688"/><path id="path76" d="M25.17,85.8a.14.14,0,0,0,.07.12.49.49,0,0,0,.17,0,.38.38,0,0,0,.15,0c.05,0,.09,0,.1-.09a.11.11,0,0,0,0-.08.49.49,0,0,0,0-.17.11.11,0,0,0,0-.08s-.05-.07-.1-.09h-.32s-.09,0-.1.09v.08a.49.49,0,0,0,0,.17v.08" fill="#6b7688"/><path id="path77" d="M36,87.8v1.09H35.1a.49.49,0,0,1-.39-.16.74.74,0,0,1-.12-.48v-.72a.72.72,0,0,1,.12-.47.48.48,0,0,1,.37-.15h.42a.5.5,0,0,1,.39.15.68.68,0,0,1,.13.47Zm.48,1.56V87.45a.94.94,0,0,0,0-.41.64.64,0,0,0-.15-.28.7.7,0,0,0-.22-.2.86.86,0,0,0-.27-.09,1.5,1.5,0,0,0-.3,0h-.49a1.31,1.31,0,0,0-.28,0,.73.73,0,0,0-.26.09.63.63,0,0,0-.23.2.76.76,0,0,0-.15.28,1.41,1.41,0,0,0,0,.41v.86a1.34,1.34,0,0,0,0,.4,1.68,1.68,0,0,0,.15.3.84.84,0,0,0,.23.18.56.56,0,0,0,.26.11,1.5,1.5,0,0,0,.3,0H36c0,.69-.39.75-.73.75h-.5v.53h.5a1.12,1.12,0,0,0,1.21-1,1.77,1.77,0,0,0,0-.24" fill="#6b7688"/><path id="path78" d="M29.56,88.89h-.92a.46.46,0,0,1-.38-.16.69.69,0,0,1-.13-.48v-.72a.68.68,0,0,1,.13-.47.46.46,0,0,1,.36-.15H29a.5.5,0,0,1,.39.15.68.68,0,0,1,.13.47ZM23.92,87.8v1.09H23a.53.53,0,0,1-.4-.16.8.8,0,0,1-.12-.48v-.72a.79.79,0,0,1,.12-.47.51.51,0,0,1,.37-.15h.42a.5.5,0,0,1,.4.15.72.72,0,0,1,.12.47Zm7.31-3.08v4.19H30V87.45A1.45,1.45,0,0,0,30,87a.64.64,0,0,0-.15-.28.7.7,0,0,0-.5-.29,1.41,1.41,0,0,0-.29,0h-.42a1.31,1.31,0,0,0-.28,0,.73.73,0,0,0-.26.09.74.74,0,0,0-.23.2.76.76,0,0,0-.15.28,2.29,2.29,0,0,0,0,.37h0v.33a1.45,1.45,0,0,1-.21.86.87.87,0,0,1-.73.26h-.57V86.47h-.47v2.39H24.4V87.45a1.41,1.41,0,0,0,0-.41.78.78,0,0,0-.16-.28.69.69,0,0,0-.22-.2.86.86,0,0,0-.27-.09,1.5,1.5,0,0,0-.3,0H23a1.22,1.22,0,0,0-.27,0,.92.92,0,0,0-.28.09.8.8,0,0,0-.21.2.78.78,0,0,0-.16.28,1.41,1.41,0,0,0,0,.41v.86a1.34,1.34,0,0,0,0,.4,1.73,1.73,0,0,0,.16.3.91.91,0,0,0,.21.18.75.75,0,0,0,.28.11,1.5,1.5,0,0,0,.3,0H24c0,.68-.4.74-.74.74h-.51v.53h.51a1.11,1.11,0,0,0,1.22-1,.67.67,0,0,0,0-.28h2.3a3.38,3.38,0,0,0,.45,0,1.8,1.8,0,0,0,.38-.16.75.75,0,0,0,.26-.24.16.16,0,0,0,.06.12,1,1,0,0,0,.23.18.57.57,0,0,0,.27.11H31.7V84.72Z" fill="#6b7688"/></g></svg>