<svg id="Layer_1" data-name="Layer 1" xmlns="http://www.w3.org/2000/svg" xmlns:xlink="http://www.w3.org/1999/xlink" viewBox="0 0 120 120"><defs><clipPath id="clip-path"><path d="M64.77,47.85c0-.27-.07-.54-.09-.81a10.45,10.45,0,0,1,0-2.68,2.2,2.2,0,0,1,.23-1c.07.31.13.63.2.94A18.47,18.47,0,0,1,65,47.67a1.69,1.69,0,0,0,0,.55l-.21-.37m.84,2.4c.22-.55.3-1.14.49-1.72A21.37,21.37,0,0,0,66.36,45a23.65,23.65,0,0,0-.44-2.8,4.47,4.47,0,0,0-.35-1,4.14,4.14,0,0,1,.51-.75,13.94,13.94,0,0,1,.77,4.29,2.53,2.53,0,0,1,.1,1.06,20.65,20.65,0,0,1-.5,3.66A8.8,8.8,0,0,1,66,51a4.79,4.79,0,0,1-.37-.71m-2-9.18.37-.94a2.87,2.87,0,0,1,.32,1A6.38,6.38,0,0,0,64,42a6.49,6.49,0,0,0-.36-.92m3.21,11a15,15,0,0,0,1-3c.11-.51.16-1,.26-1.54a26,26,0,0,0,0-4.14c-.13-.5-.16-1-.26-1.53A20.93,20.93,0,0,0,67,39.44c-.19-.34.11-.67.35-.87a15.43,15.43,0,0,1,1,3.61,8.63,8.63,0,0,0,.17,1.1,19.9,19.9,0,0,1-.46,6.79,11.17,11.17,0,0,1-.89,2.65c-.15-.2-.29-.4-.43-.61M62.4,38.91c.11-.23.22-.47.34-.69.3,0,.37.42.53.62-.14.26-.26.52-.39.79q-.26-.36-.48-.72m2.25,0c.15-.27.3-.53.47-.78a4.23,4.23,0,0,1,.4.83c-.16.21-.31.43-.46.66-.14-.24-.27-.48-.41-.71m-3.18-1.16L61,37.32l.32-.61c0-.05.08-.15.11-.19l.29.22,0,0,.21.31c-.12.23-.23.47-.34.71l-.17,0m4.44-.65a4,4,0,0,1,.62-.62c.11.3.24.6.34.9l-.48.48c-.17-.25-.33-.5-.48-.76m-2.43-.15a4.76,4.76,0,0,1,.47-.73,7.91,7.91,0,0,1,.54.75c-.17.25-.35.49-.53.73-.16-.25-.34-.48-.48-.75M62.1,35.35a5.08,5.08,0,0,1,.54-.77,4.44,4.44,0,0,1,.56.66l-.61.74c-.17-.22-.32-.43-.49-.63m2.65-.16a4,4,0,0,1,.55-.61c.19.25.36.52.55.76l-.59.64c-.16-.27-.35-.52-.51-.79M63.41,33.5l.54-.59a4,4,0,0,1,.61.68l-.56.6a1.37,1.37,0,0,1-.59-.69m-12-6.35a13.93,13.93,0,0,1,2.42.17,16.5,16.5,0,0,1,6.91,2.74A20.73,20.73,0,0,1,63.13,32c-.25.21-.37.72-.73.67a12.21,12.21,0,0,0-2-1.44v0a15.59,15.59,0,0,0-6.57-2.31,18.81,18.81,0,0,0-2-.08c-.38,0-.77.06-1.16.07-.56.11-1.13.14-1.68.3a8.32,8.32,0,0,0-1,.26A5.75,5.75,0,0,0,46.3,30c.19.35.33.71.49,1.07a10.84,10.84,0,0,1,2.89-.87A8.55,8.55,0,0,1,51.42,30a13.52,13.52,0,0,1,3.42.22A13.17,13.17,0,0,1,60,32.34l0,0c.6.44,1.21.89,1.78,1.39-.2.29-.42.58-.63.87-.15-.13-.28-.25-.42-.36a15.29,15.29,0,0,0-3.27-1.79L56.07,32a12.86,12.86,0,0,0-11,2.49,9.78,9.78,0,0,0-1.78,1.74c.31.26.61.49.9.76a12.86,12.86,0,0,1,3.49-2.78,11,11,0,0,1,4.68-1.29c.23,0,.47-.07.71-.08.63.12,1.28.07,1.91.18a11.47,11.47,0,0,1,5.53,2.6c-.15.32-.32.62-.49.92a9.54,9.54,0,0,0-3.56-1.74,10.29,10.29,0,0,0-5.14,0c-.42.12-.83.28-1.25.43a11.14,11.14,0,0,0-6.38,7.32,11.22,11.22,0,0,0,1.13.33c.28-.7.52-1.42.86-2.09a9.74,9.74,0,0,1,5.65-4.73c.42-.11.84-.18,1.26-.3a9.92,9.92,0,0,1,2.61,0c.41.13.85.18,1.26.3a9.43,9.43,0,0,1,3,1.51,2.1,2.1,0,0,0,.06.24c-.29.8-.58,1.6-.82,2.41,0,.18-.07.37-.11.55A20,20,0,0,0,58.09,44a16.3,16.3,0,0,0,0,2.21c0,.81.13,1.61.21,2.42A25.14,25.14,0,0,0,59.12,52c.21.53.36,1.09.6,1.61a9.46,9.46,0,0,1-6.33,2.08c.28.38.6.74.88,1.13a5.41,5.41,0,0,0,1.39-.07,10.85,10.85,0,0,0,4.56-2c.17.28.34.56.52.84a12.71,12.71,0,0,1-2.39,1.65,17.53,17.53,0,0,1-2.64,1c.39.29.8.56,1.19.88a13.69,13.69,0,0,0,4.44-2.44,1.84,1.84,0,0,0,.22.17l.24.52a15.55,15.55,0,0,1-3.65,2.42,8.34,8.34,0,0,0,1.26.56h.26a16.54,16.54,0,0,0,2.91-2.1,8.61,8.61,0,0,0,.55.68c-.67.68-1.44,1.24-2.17,1.85l.39.14c.37,0,.74.12,1.12.15.59-.3,1-1,1.56-1.23a14,14,0,0,0,1.43,1.24c.38-.08.77-.11,1.16-.16l.38-.14a17.79,17.79,0,0,1-4.67-4.92l-.08-.08a19.42,19.42,0,0,1-3-9.25A21.13,21.13,0,0,1,59.42,43,14.39,14.39,0,0,1,60,40.23a13.73,13.73,0,0,1,.55-1.64l.26.21.27.25a20,20,0,0,0-1.1,4.23c-.12,1-.07,2.08-.09,3.11a17.57,17.57,0,0,0,.51,3.54c.22.66.39,1.35.66,2a16.58,16.58,0,0,0,7.35,8.5,9.24,9.24,0,0,0,1.44-.63,15.14,15.14,0,0,1-6.39-5.71A16.52,16.52,0,0,1,61.2,43c.11-.47.17-.94.29-1.4s.24-.83.36-1.23a1,1,0,0,1,.36,1c-.13.48-.23,1-.34,1.42a15.3,15.3,0,0,0,.41,7.39,14.47,14.47,0,0,0,3.49,5.68A14,14,0,0,0,71,59.15c.39-.33.82-.61,1.24-.91a16.77,16.77,0,0,1-2.55-1,12.64,12.64,0,0,1-6.53-8.45A13.09,13.09,0,0,1,63,43.17a16.38,16.38,0,0,1,.41,3.64A9.85,9.85,0,0,0,64,49.38a11,11,0,0,0,7.1,7.08,7.66,7.66,0,0,0,2.65.37c.26-.4.58-.75.87-1.13a10.84,10.84,0,0,1-3.2-.39,11.58,11.58,0,0,1-3.08-1.6,1.34,1.34,0,0,1,.15-.71c.26-.48.36-1,.58-1.54.26-1,.48-2,.66-2.93a18.7,18.7,0,0,0,.18-2.69,11.92,11.92,0,0,0-.07-2.16c0-.42-.06-.83-.11-1.24a22.39,22.39,0,0,0-1.31-4.76,9.33,9.33,0,0,1,4.23-1.92,12,12,0,0,1,2.74,0,9.56,9.56,0,0,1,5.35,2.89,2.65,2.65,0,0,0,.63.62c-.09.19.14.56.36.51v.14A8.44,8.44,0,0,1,83,42.81a1.07,1.07,0,0,0,.7-.12l.48-.11A10.62,10.62,0,0,0,81,37.23,10.42,10.42,0,0,0,77,34.94a10.11,10.11,0,0,0-5.56-.13,15.58,15.58,0,0,0-1.67.56,21.89,21.89,0,0,0-2,1.17,6.21,6.21,0,0,0-.42-.81.79.79,0,0,1,.21-.28,11.29,11.29,0,0,1,4.83-2.31,19.86,19.86,0,0,1,2.17-.3,5.09,5.09,0,0,1,1,.09,9.79,9.79,0,0,1,3.69.84l.06,0,0,.12.23,0a4.69,4.69,0,0,0,1,.62A14.26,14.26,0,0,1,83.75,37a5.23,5.23,0,0,1,.83-.73,12.5,12.5,0,0,0-7.41-4.38,12.78,12.78,0,0,0-10.35,2.62c-.3-.17-.43-.53-.67-.78a13.76,13.76,0,0,1,7-3.49A8.65,8.65,0,0,1,74.88,30a13.26,13.26,0,0,1,3.39.22,12.27,12.27,0,0,1,2.9.87,5.1,5.1,0,0,1,.49-1.06,14.41,14.41,0,0,0-4.38-1.21,16.68,16.68,0,0,0-3.16,0l-.86.13a15.24,15.24,0,0,0-7.47,3.47c-.13.09-.28.31-.44.16a5.3,5.3,0,0,1-.51-.64,16.82,16.82,0,0,1,6.26-3.91,17.45,17.45,0,0,1,4.05-.89c.27,0,.54,0,.81,0h.58V25.91a18,18,0,0,0-12,4.72c-.19.14-.33.48-.59.44a22,22,0,0,0-2.49-2,18.11,18.11,0,0,0-7-2.88,26.83,26.83,0,0,0-3-.28c0,.42,0,.83,0,1.26" fill="#6b7688"/></clipPath></defs><path d="M64.77,47.85c0-.27-.07-.54-.09-.81a10.45,10.45,0,0,1,0-2.68,2.2,2.2,0,0,1,.23-1c.07.31.13.63.2.94A18.47,18.47,0,0,1,65,47.67a1.69,1.69,0,0,0,0,.55l-.21-.37m.84,2.4c.22-.55.3-1.14.49-1.72A21.37,21.37,0,0,0,66.36,45a23.65,23.65,0,0,0-.44-2.8,4.47,4.47,0,0,0-.35-1,4.14,4.14,0,0,1,.51-.75,13.94,13.94,0,0,1,.77,4.29,2.53,2.53,0,0,1,.1,1.06,20.65,20.65,0,0,1-.5,3.66A8.8,8.8,0,0,1,66,51a4.79,4.79,0,0,1-.37-.71m-2-9.18.37-.94a2.87,2.87,0,0,1,.32,1A6.38,6.38,0,0,0,64,42a6.49,6.49,0,0,0-.36-.92m3.21,11a15,15,0,0,0,1-3c.11-.51.16-1,.26-1.54a26,26,0,0,0,0-4.14c-.13-.5-.16-1-.26-1.53A20.93,20.93,0,0,0,67,39.44c-.19-.34.11-.67.35-.87a15.43,15.43,0,0,1,1,3.61,8.63,8.63,0,0,0,.17,1.1,19.9,19.9,0,0,1-.46,6.79,11.17,11.17,0,0,1-.89,2.65c-.15-.2-.29-.4-.43-.61M62.4,38.91c.11-.23.22-.47.34-.69.3,0,.37.42.53.62-.14.26-.26.52-.39.79q-.26-.36-.48-.72m2.25,0c.15-.27.3-.53.47-.78a4.23,4.23,0,0,1,.4.83c-.16.21-.31.43-.46.66-.14-.24-.27-.48-.41-.71m-3.18-1.16L61,37.32l.32-.61c0-.05.08-.15.11-.19l.29.22,0,0,.21.31c-.12.23-.23.47-.34.71l-.17,0m4.44-.65a4,4,0,0,1,.62-.62c.11.3.24.6.34.9l-.48.48c-.17-.25-.33-.5-.48-.76m-2.43-.15a4.76,4.76,0,0,1,.47-.73,7.91,7.91,0,0,1,.54.75c-.17.25-.35.49-.53.73-.16-.25-.34-.48-.48-.75M62.1,35.35a5.08,5.08,0,0,1,.54-.77,4.44,4.44,0,0,1,.56.66l-.61.74c-.17-.22-.32-.43-.49-.63m2.65-.16a4,4,0,0,1,.55-.61c.19.25.36.52.55.76l-.59.64c-.16-.27-.35-.52-.51-.79M63.41,33.5l.54-.59a4,4,0,0,1,.61.68l-.56.6a1.37,1.37,0,0,1-.59-.69m-12-6.35a13.93,13.93,0,0,1,2.42.17,16.5,16.5,0,0,1,6.91,2.74A20.73,20.73,0,0,1,63.13,32c-.25.21-.37.72-.73.67a12.21,12.21,0,0,0-2-1.44v0a15.59,15.59,0,0,0-6.57-2.31,18.81,18.81,0,0,0-2-.08c-.38,0-.77.06-1.16.07-.56.11-1.13.14-1.68.3a8.32,8.32,0,0,0-1,.26A5.75,5.75,0,0,0,46.3,30c.19.35.33.71.49,1.07a10.84,10.84,0,0,1,2.89-.87A8.55,8.55,0,0,1,51.42,30a13.52,13.52,0,0,1,3.42.22A13.17,13.17,0,0,1,60,32.34l0,0c.6.44,1.21.89,1.78,1.39-.2.29-.42.58-.63.87-.15-.13-.28-.25-.42-.36a15.29,15.29,0,0,0-3.27-1.79L56.07,32a12.86,12.86,0,0,0-11,2.49,9.78,9.78,0,0,0-1.78,1.74c.31.26.61.49.9.76a12.86,12.86,0,0,1,3.49-2.78,11,11,0,0,1,4.68-1.29c.23,0,.47-.07.71-.08.63.12,1.28.07,1.91.18a11.47,11.47,0,0,1,5.53,2.6c-.15.32-.32.62-.49.92a9.54,9.54,0,0,0-3.56-1.74,10.29,10.29,0,0,0-5.14,0c-.42.12-.83.28-1.25.43a11.14,11.14,0,0,0-6.38,7.32,11.22,11.22,0,0,0,1.13.33c.28-.7.52-1.42.86-2.09a9.74,9.74,0,0,1,5.65-4.73c.42-.11.84-.18,1.26-.3a9.92,9.92,0,0,1,2.61,0c.41.13.85.18,1.26.3a9.43,9.43,0,0,1,3,1.51,2.1,2.1,0,0,0,.06.24c-.29.8-.58,1.6-.82,2.41,0,.18-.07.37-.11.55A20,20,0,0,0,58.09,44a16.3,16.3,0,0,0,0,2.21c0,.81.13,1.61.21,2.42A25.14,25.14,0,0,0,59.12,52c.21.53.36,1.09.6,1.61a9.46,9.46,0,0,1-6.33,2.08c.28.38.6.74.88,1.13a5.41,5.41,0,0,0,1.39-.07,10.85,10.85,0,0,0,4.56-2c.17.28.34.56.52.84a12.71,12.71,0,0,1-2.39,1.65,17.53,17.53,0,0,1-2.64,1c.39.29.8.56,1.19.88a13.69,13.69,0,0,0,4.44-2.44,1.84,1.84,0,0,0,.22.17l.24.52a15.55,15.55,0,0,1-3.65,2.42,8.34,8.34,0,0,0,1.26.56h.26a16.54,16.54,0,0,0,2.91-2.1,8.61,8.61,0,0,0,.55.68c-.67.68-1.44,1.24-2.17,1.85l.39.14c.37,0,.74.12,1.12.15.59-.3,1-1,1.56-1.23a14,14,0,0,0,1.43,1.24c.38-.08.77-.11,1.16-.16l.38-.14a17.79,17.79,0,0,1-4.67-4.92l-.08-.08a19.42,19.42,0,0,1-3-9.25A21.13,21.13,0,0,1,59.42,43,14.39,14.39,0,0,1,60,40.23a13.73,13.73,0,0,1,.55-1.64l.26.21.27.25a20,20,0,0,0-1.1,4.23c-.12,1-.07,2.08-.09,3.11a17.57,17.57,0,0,0,.51,3.54c.22.66.39,1.35.66,2a16.58,16.58,0,0,0,7.35,8.5,9.24,9.24,0,0,0,1.44-.63,15.14,15.14,0,0,1-6.39-5.71A16.52,16.52,0,0,1,61.2,43c.11-.47.17-.94.29-1.4s.24-.83.36-1.23a1,1,0,0,1,.36,1c-.13.48-.23,1-.34,1.42a15.3,15.3,0,0,0,.41,7.39,14.47,14.47,0,0,0,3.49,5.68A14,14,0,0,0,71,59.15c.39-.33.82-.61,1.24-.91a16.77,16.77,0,0,1-2.55-1,12.64,12.64,0,0,1-6.53-8.45A13.09,13.09,0,0,1,63,43.17a16.38,16.38,0,0,1,.41,3.64A9.85,9.85,0,0,0,64,49.38a11,11,0,0,0,7.1,7.08,7.66,7.66,0,0,0,2.65.37c.26-.4.58-.75.87-1.13a10.84,10.84,0,0,1-3.2-.39,11.58,11.58,0,0,1-3.08-1.6,1.34,1.34,0,0,1,.15-.71c.26-.48.36-1,.58-1.54.26-1,.48-2,.66-2.93a18.7,18.7,0,0,0,.18-2.69,11.92,11.92,0,0,0-.07-2.16c0-.42-.06-.83-.11-1.24a22.39,22.39,0,0,0-1.31-4.76,9.33,9.33,0,0,1,4.23-1.92,12,12,0,0,1,2.74,0,9.56,9.56,0,0,1,5.35,2.89,2.65,2.65,0,0,0,.63.62c-.09.19.14.56.36.51v.14A8.44,8.44,0,0,1,83,42.81a1.07,1.07,0,0,0,.7-.12l.48-.11A10.62,10.62,0,0,0,81,37.23,10.42,10.42,0,0,0,77,34.94a10.11,10.11,0,0,0-5.56-.13,15.58,15.58,0,0,0-1.67.56,21.89,21.89,0,0,0-2,1.17,6.21,6.21,0,0,0-.42-.81.79.79,0,0,1,.21-.28,11.29,11.29,0,0,1,4.83-2.31,19.86,19.86,0,0,1,2.17-.3,5.09,5.09,0,0,1,1,.09,9.79,9.79,0,0,1,3.69.84l.06,0,0,.12.23,0a4.69,4.69,0,0,0,1,.62A14.26,14.26,0,0,1,83.75,37a5.23,5.23,0,0,1,.83-.73,12.5,12.5,0,0,0-7.41-4.38,12.78,12.78,0,0,0-10.35,2.62c-.3-.17-.43-.53-.67-.78a13.76,13.76,0,0,1,7-3.49A8.65,8.65,0,0,1,74.88,30a13.26,13.26,0,0,1,3.39.22,12.27,12.27,0,0,1,2.9.87,5.1,5.1,0,0,1,.49-1.06,14.41,14.41,0,0,0-4.38-1.21,16.68,16.68,0,0,0-3.16,0l-.86.13a15.24,15.24,0,0,0-7.47,3.47c-.13.09-.28.31-.44.16a5.3,5.3,0,0,1-.51-.64,16.82,16.82,0,0,1,6.26-3.91,17.45,17.45,0,0,1,4.05-.89c.27,0,.54,0,.81,0h.58V25.91a18,18,0,0,0-12,4.72c-.19.14-.33.48-.59.44a22,22,0,0,0-2.49-2,18.11,18.11,0,0,0-7-2.88,26.83,26.83,0,0,0-3-.28c0,.42,0,.83,0,1.26" fill="#6b7688"/><g clip-path="url(#clip-path)"><rect x="43.24" y="25.76" width="41.42" height="35.42" transform="translate(-0.19 0.29) rotate(-0.26)" fill="#6b7688"/></g><path d="M93.34,72.09l.09,0a2,2,0,0,1-.06.23l-.06-.08Z" fill="#6b7688"/><path d="M56.22,92.31l0,0a4.83,4.83,0,0,1,0,1.14,3.82,3.82,0,0,1,0-1.12" fill="#6b7688"/><path d="M56.24,93.47a4.07,4.07,0,0,1,0,.78.86.86,0,0,1-.13-.14c0-.21.08-.42.11-.64" fill="#6b7688"/><path d="M52.49,70.57a2.58,2.58,0,0,0-1.88-2,3.23,3.23,0,0,0-1.66.11,4.88,4.88,0,0,0-1.43.88,7.92,7.92,0,0,0-1.42,2c0-.54.06-1.08,0-1.63a2.17,2.17,0,0,1,.08-.84c0-.93.06-1.86.06-2.8h-.83c-.06,2.21,0,4.42,0,6.63H42.37c.06-.25.12-.49.19-.74,0-1.23,0-2.47,0-3.7h-.82c0,1.24.08,2.49-.06,3.72a1.14,1.14,0,0,1-.5.66,10.52,10.52,0,0,1-1.59.06,1.29,1.29,0,0,1-.9-.43c-.42-.51-.51-1.2-.93-1.7a2.62,2.62,0,0,0-1.21-.9,2.86,2.86,0,0,0-1-.08c0,.23,0,.47,0,.71a1.47,1.47,0,0,1,1.37.86,1.78,1.78,0,0,1,.1.94,2.84,2.84,0,0,1-2.3,2.42,3.34,3.34,0,0,1-1.22,0A2.93,2.93,0,0,1,31.42,73l0-.25c-.25-.5-.08-1.08-.25-1.58,0-.28,0-.56,0-.84h-.79a11,11,0,0,0,.07,1.9,3.93,3.93,0,0,0,2.36,3.12,4,4,0,0,0,1.88.19,3.61,3.61,0,0,0,3.13-3.22,2.26,2.26,0,0,0,1.84,1.38c4.35,0,8.7,0,13,0a12.85,12.85,0,0,0-.16-3.16m-.61,2.37c-1.92,0-3.84,0-5.76,0a6,6,0,0,1,2.49-3.33,2.18,2.18,0,0,1,2-.21,2.4,2.4,0,0,1,1.23,2,7.3,7.3,0,0,1,.09,1.55" fill="#6b7688"/><path d="M62.29,70.29v-4H61.5v4.75a2.24,2.24,0,0,1,0,.52,1.2,1.2,0,0,1-.62,1.32c-.83.09-1.68,0-2.53,0,0-1,.05-2,0-2.93a2.56,2.56,0,0,0-.81-1.18,2.23,2.23,0,0,0-2.73.31,2.49,2.49,0,0,0-.79,2,2.56,2.56,0,0,0,1.15,2.33c.7.42,1.56.17,2.33.24a1.43,1.43,0,0,1-1.55,1.15c0,.26,0,.5,0,.76a2.74,2.74,0,0,0,1.55-.49,2.82,2.82,0,0,0,.84-1.39c1-.1,2,0,3-.08a2.46,2.46,0,0,0,.71-.52,5.84,5.84,0,0,0,.29-.73,17.15,17.15,0,0,0,0-2.15M57.43,73a8.89,8.89,0,0,1-1.86-.09,2.27,2.27,0,0,1-.78-2.29c.2-.5.45-1.07,1-1.24a1.45,1.45,0,0,1,1.37.32,1.13,1.13,0,0,1,.28.63c0,.89,0,1.77,0,2.67" fill="#6b7688"/><path d="M63.82,66.31h.8v7.43h-.79c0-2.48,0-4.95,0-7.43" fill="#6b7688"/><path d="M75,66.31H76c-.38.83-.94,1.57-1.34,2.39a7.06,7.06,0,0,1,2.75.29,3.63,3.63,0,0,1,1.72,1.74,6.81,6.81,0,0,1,.35,3h-9.3A2.37,2.37,0,0,1,69,75.34a5.46,5.46,0,0,1-1.27.37c0-.27,0-.55,0-.83h.38l.46-.18a1.63,1.63,0,0,0,.74-1.1c0-1.68,0-3.37,0-5a2.86,2.86,0,0,1,.83-.06c0,1.48,0,3,0,4.45h8.29a3,3,0,0,0-1.17-3.06,2.41,2.41,0,0,0-1.38-.37H73.29c.51-1.1,1.15-2.14,1.73-3.2" fill="#6b7688"/><path d="M94.22,66.31h-.81c0,1.92,0,3.84,0,5.75a2,2,0,0,0-.06.23c-.18.27-.36.61-.73.63-.74,0-1.49,0-2.24,0a4.71,4.71,0,0,0,0-1.59,2.25,2.25,0,0,0-1.79-1.78,2.6,2.6,0,0,0-2,.4,2.8,2.8,0,0,0-1,1.92,3.73,3.73,0,0,0,.09,1c-1,0-2,0-3,0a2.32,2.32,0,0,0,.06-.45V69.08a2.24,2.24,0,0,0-.06-.58c-.27,0-.53,0-.8,0,0,1.67,0,3.34,0,5a1.51,1.51,0,0,1-.9,1.25,2.15,2.15,0,0,1-.71.11,7.06,7.06,0,0,0,0,.8,4.63,4.63,0,0,0,1.26-.35,2.21,2.21,0,0,0,.82-.79c.13-.26.15-.6.36-.81,1.11,0,2.21,0,3.32,0a2.09,2.09,0,0,0,1.94,1,2.12,2.12,0,0,0,2-1h2.73a1.2,1.2,0,0,0,.94-.4c.58-.52.46-1.36.56-2,0-1.37,0-2.73,0-4.1a3.73,3.73,0,0,0-.06-.88m-5,7.08a1.44,1.44,0,0,1-1.89.5,1.78,1.78,0,0,1-.74-1.13A3.2,3.2,0,0,1,86.87,71a1.46,1.46,0,0,1,1.93-.6A1.62,1.62,0,0,1,89.47,72l.08.15c-.13.42,0,.89-.29,1.28" fill="#6b7688"/><path d="M95.79,66.31h.82c0,2.47,0,5,0,7.42h-.79c0-2.48,0-5,0-7.44" fill="#6b7688"/><path d="M41.76,67.71c0-.33,0-.66,0-1h.8v1Z" fill="#6b7688"/><path d="M69.27,66.74a8.43,8.43,0,0,1,.87,0c0,.33,0,.67,0,1a2.22,2.22,0,0,1-.85-.07c0-.3,0-.6,0-.9" fill="#6b7688"/><path d="M33,76.54h.88v.91l-.5,0-.39,0c0-.3,0-.61,0-.92" fill="#6b7688"/><path d="M34.54,76.54l.77,0v.91h-.79c0-.31,0-.62,0-.93" fill="#6b7688"/><path d="M52.2,79.13c0,1.77,0,3.54,0,5.31a1.68,1.68,0,0,1-.26,1,1,1,0,0,1-.83.33H49.06a2.78,2.78,0,0,0,.21-1.06V81.33h-.8v3a2.6,2.6,0,0,1-.23,1.09c-.2.11-.41.2-.62.3-.71,0-1.43,0-2.15,0a4.2,4.2,0,0,0,.07-1.22,3,3,0,0,0-.44-1.23,2.4,2.4,0,0,0-4,.17,3.33,3.33,0,0,0-.31,2.28H38.3c0-.75,0-1.52,0-2.27a2.22,2.22,0,0,0-.62-1.6,2.14,2.14,0,0,0-2-.47,2.48,2.48,0,0,0-1.59,1.41A3.28,3.28,0,0,0,34,84.42a2.42,2.42,0,0,0,1.17,1.83,4.85,4.85,0,0,0,2.28.26,2.35,2.35,0,0,1-.62.87c-.27.2-.64.18-.95.3a2.42,2.42,0,0,0,.08.71,3,3,0,0,0,1.54-.56,2.56,2.56,0,0,0,.67-1c0-.09,0-.24.06-.32,1,0,2,0,3,0l.11.1a2.41,2.41,0,0,0,3.82-.11h6.45a1.61,1.61,0,0,0,1.17-.67A2.2,2.2,0,0,0,53,84.66V79.13ZM37.42,85.71a11.51,11.51,0,0,1-1.76-.06,2.19,2.19,0,0,1-.2-3.37,1.75,1.75,0,0,1,1-.24,1.28,1.28,0,0,1,1,.94c0,.91,0,1.82,0,2.73m7.16-.32a1.46,1.46,0,0,1-.93,1.33,1.51,1.51,0,0,1-1.28-.19,2,2,0,0,1-.62-1.87,1.53,1.53,0,0,1,1.14-1.59,1.34,1.34,0,0,1,1.16.24,2.31,2.31,0,0,1,.53,2.08" fill="#6b7688"/><path d="M54.53,79.13h.79q0,3.69,0,7.38h-.78V79.13" fill="#6b7688"/><path d="M71.58,79.13c.29,0,.59,0,.88,0,0,.1-.07.2-.1.3a2.61,2.61,0,0,1,.07.69c0,1.36,0,2.72,0,4.08-.09.5-.09,1-.15,1.49h2.38a1.75,1.75,0,0,0,.74-.21,1.41,1.41,0,0,0,.29-.79,2.07,2.07,0,0,0,.06-.5c0-1,0-1.92,0-2.88h.79v3.11a3.35,3.35,0,0,1-.22,1.28q4.06,0,8.11,0a4.16,4.16,0,0,0,0-1.22,3,3,0,0,0-1-1.72,2.54,2.54,0,0,0-1.2-.48,2.67,2.67,0,0,0-2.73,1,5.22,5.22,0,0,1-.7-.71,4.08,4.08,0,0,1,4-1,3.63,3.63,0,0,1,2,1.35,4.63,4.63,0,0,1,.69,2.77c.64,0,1.28,0,1.92,0a1.07,1.07,0,0,0,.71-.33c0-.11.1-.22.15-.33a2.53,2.53,0,0,0,.06-.61c0-1,0-2.07,0-3.11h.82c0,1.23,0,2.46,0,3.69-.07.23-.12.46-.17.69.7,0,1.39,0,2.09,0a2.11,2.11,0,0,0,.73-.21c.3-.37.23-.83.33-1.25,0-1.58,0-3.16,0-4.73,0-.13,0-.26,0-.39.23,0,.45,0,.68,0s.1.29.12.43c0,1.59,0,3.18,0,4.76a8.11,8.11,0,0,1-.23,1.38c.75,0,1.49,0,2.23,0a1.08,1.08,0,0,0,.9-1.16c0-1.8,0-3.6,0-5.41h.82c0,1.92,0,3.85,0,5.78,0,.12-.06.24-.08.36a1.68,1.68,0,0,1-.48.86,1.61,1.61,0,0,1-1,.37c-7.67,0-15.35,0-23,0a3.57,3.57,0,0,1-1.91,1.74,4.37,4.37,0,0,1-1.44.11,3.28,3.28,0,0,1-2.3-1.92,8,8,0,0,1-.38-1.2,12.67,12.67,0,0,0-.06-1.85c.28,0,.57,0,.86,0a6.43,6.43,0,0,0,.36,2.86,2.23,2.23,0,0,0,2.41,1.36,2.38,2.38,0,0,0,1.88-1.88,9.59,9.59,0,0,0,.21-1.93c0-1.55,0-3.1,0-4.65" fill="#6b7688"/><path d="M46.94,79.54h.81c0,.34,0,.67,0,1a1.89,1.89,0,0,1-.82-.08c0-.31,0-.61,0-.92" fill="#6b7688"/><path d="M48.47,79.54h.8a6.69,6.69,0,0,1,0,1h-.77Z" fill="#6b7688"/><path d="M81.25,79.54h.8c0,.31,0,.62,0,.93a2,2,0,0,1-.81.06v-1" fill="#6b7688"/><path d="M88.29,80.42a6.61,6.61,0,0,1,0-.89h.8v1c-.26,0-.62.12-.8-.12" fill="#6b7688"/><path d="M63,85.21c0-1,.15-2.15-.49-3a2.15,2.15,0,0,0-1.67-.92c-.24,0-.48.07-.72.14a3,3,0,0,0-.83.54,3.21,3.21,0,0,0-.55,1.11,4.68,4.68,0,0,0,0,1.54,2.2,2.2,0,0,0,2.06,1.73,1.69,1.69,0,0,0,1.43-.57,2.58,2.58,0,0,1-.53,1.47,2,2,0,0,1-1.11.42v.75a2.75,2.75,0,0,0,1.76-.67A3.59,3.59,0,0,0,63,85.21m-1.38.17a2.81,2.81,0,0,1-.81.24,3.47,3.47,0,0,1-.76-.28,2.38,2.38,0,0,1-.53-2.17,1.56,1.56,0,0,1,.67-1,1.26,1.26,0,0,1,1.73.49,2.36,2.36,0,0,1-.3,2.72" fill="#6b7688"/><path d="M31.92,81.34h.81c0,1.64,0,3.28,0,4.92a3.35,3.35,0,0,1-.55,1.35,2.58,2.58,0,0,1-1.11.69l-.73.1c0-.25,0-.49,0-.73a6.3,6.3,0,0,0,.75-.18,1.6,1.6,0,0,0,.84-1.38c0-1.59,0-3.18,0-4.76" fill="#6b7688"/><path d="M74.21,87.31h.87c0,.31,0,.61,0,.92h-.86v-.91" fill="#6b7688"/><path d="M75.74,87.31h.79v.91h-.79v-.92" fill="#6b7688"/><path d="M49.46,92.32a1.45,1.45,0,0,1,1.78-.6c.3,0,.31.36.37.58a1.85,1.85,0,0,0-.68-.56h-.52a1.29,1.29,0,0,0,0,2.34,1,1,0,0,0,.73-.07c.27-.11.36-.42.5-.64,0,.09,0,.26,0,.35-.16.15-.32.3-.48.43a1.44,1.44,0,0,1-1.44-.28c-.46-.38-.34-1-.29-1.55" fill="#6b7688"/><path d="M71.67,91.68a3.51,3.51,0,0,1,1.41.16l.21.39a.83.83,0,0,1-.46.78,4.42,4.42,0,0,1-.63,0l.67-.21a.91.91,0,0,0,0-.94c-.22-.07-.58-.27-.75,0,0,.63,0,1.27,0,1.9a.86.86,0,0,0,.13.43h-.46a.71.71,0,0,0,.13-.44c0-.62,0-1.24,0-1.86l-.21-.19" fill="#6b7688"/><path d="M85.31,94a2.85,2.85,0,0,0-.23-.26c0-.13.08-.26.13-.39a1.4,1.4,0,0,1,0-.54h-.32a2.89,2.89,0,0,1,.08.83,4.42,4.42,0,0,1-1.16-1.12c-.23-.32.07-.89.48-.79s.36.3.52.47c0-.16,0-.42-.18-.49a.89.89,0,0,0-1.12.26,2.28,2.28,0,0,0,.08.73,1,1,0,0,0-.42.84,3.38,3.38,0,0,1,.24.41,1.35,1.35,0,0,0,1.27.16c.31-.24.64.09,1,0L85.31,94m-.72.08c-.33,0-.75.06-1-.25a.77.77,0,0,1,0-1,9.83,9.83,0,0,0,1.17,1.07c-.06.06-.16.17-.22.22" fill="#6b7688"/><path d="M88.55,92c-.55-.46-1.3-.27-2-.29l.18.19c0,.71,0,1.41,0,2.12a1.59,1.59,0,0,0-.21.15c.51.06,1,0,1.52,0l.58-.34A1.34,1.34,0,0,0,88.55,92m.11,1.36A1.22,1.22,0,0,1,88,94a6.47,6.47,0,0,1-1.08.09c0-.7,0-1.41,0-2.11a.26.26,0,0,1,.29-.28,3.66,3.66,0,0,1,1,.22,1.36,1.36,0,0,1,.43,1.42" fill="#6b7688"/><path d="M30.64,91.63c.67.64,1.25,1.38,2,2a6.73,6.73,0,0,0-.12-2l.33,0c-.07.84,0,1.69,0,2.53-.64-.7-1.29-1.38-1.94-2.06a13.35,13.35,0,0,0,0,1.79l.15.22-.44,0,.16-.19c0-.78,0-1.56,0-2.33" fill="#6b7688"/><path d="M35.34,92c.64,0,1.29,0,1.94,0,0,0,0,.15,0,.2a3.53,3.53,0,0,0-.86-.06,19.26,19.26,0,0,0,0,2l-.37,0a11.88,11.88,0,0,0,.07-2,1.56,1.56,0,0,0-.91.11c0-.06,0-.19.06-.26" fill="#6b7688"/><path d="M37.64,92h.66l-.26.14c0,.6,0,1.2,0,1.81l.17.2h-.53l.17-.2c0-.54,0-1.09,0-1.63l-.2-.31" fill="#6b7688"/><path d="M40.79,92.33a1.65,1.65,0,0,0-1.41-.27,1.15,1.15,0,0,0-.71.83.56.56,0,0,0,0,.44c0,.12.06.22.09.34a1.66,1.66,0,0,0,.71.52,1.3,1.3,0,0,0,1.2-.27,1.17,1.17,0,0,0,.1-1.59m-.12,1.35a2.34,2.34,0,0,1-.45.37c-.74.37-1.59-.56-1.25-1.29.08-.39.44-.57.78-.7a1,1,0,0,1,1.06,1,3.65,3.65,0,0,1-.14.57" fill="#6b7688"/><path d="M46.59,92h.61a.55.55,0,0,0-.18.38c0,.56,0,1.11,0,1.67a1.62,1.62,0,0,0,1.12-.22,3,3,0,0,1-.16.31c-.41,0-.83,0-1.24,0a16.65,16.65,0,0,0,.05-2L46.59,92" fill="#6b7688"/><path d="M52.11,92q.7,0,1.41,0l0,.29-.21-.15h-.81c0,.29,0,.59,0,.89a1.69,1.69,0,0,0,.77-.09s0,.14,0,.18c-.26,0-.52,0-.78,0a4.52,4.52,0,0,0,0,.9,1.42,1.42,0,0,0,1.1-.21c-.05.1-.1.21-.14.31-.45,0-.9,0-1.35,0a1.7,1.7,0,0,0,.15-.22V92.17L52.11,92" fill="#6b7688"/><path d="M55.87,92h.51a.41.41,0,0,0-.16.3,3.82,3.82,0,0,0,0,1.12v0c0,.22-.07.43-.11.64-.63-.45-1.07-1.12-1.72-1.55,0,.53,0,1.07,0,1.61h-.27c.14-.72,0-1.46.09-2.19.64.55,1.18,1.19,1.84,1.72,0-.5,0-1,0-1.5L55.87,92" fill="#6b7688"/><path d="M56.67,92c.54,0,1.08,0,1.63,0a.54.54,0,0,1,.4.13,4,4,0,0,0-.92.06,3.44,3.44,0,0,0,0,1.2,1.14,1.14,0,0,0,.11.75l-.39,0a12.52,12.52,0,0,0,.06-2c-.3,0-.64-.08-.9.12,0-.07,0-.2.05-.27" fill="#6b7688"/><path d="M61.2,92c.48.09,1-.1,1.44.14-.35,0-.71,0-1.06,0,0,.31,0,.61,0,.92.27,0,.65.06.78-.25,0,.14,0,.3,0,.45a1.19,1.19,0,0,0-.81-.13v.92c.41,0,1,.09,1.15-.39,0,.16-.11.31-.16.47-.44,0-.89,0-1.33,0,.22-.29.12-.67.14-1s.1-.83-.18-1.16" fill="#6b7688"/><path d="M64.07,92c.42,0,.83,0,1.24,0l.13.21a3.42,3.42,0,0,0-1-.07c0,.31,0,.61,0,.92a2.11,2.11,0,0,0,.79-.12l0,.32c-.24-.2-.56-.12-.84-.13,0,.35,0,.69,0,1l-.33,0a3.31,3.31,0,0,1,.1-.94V93c-.14-.32,0-.68-.16-1" fill="#6b7688"/><path d="M68,92.61c-.16-.43-.65-.56-1-.64a1.63,1.63,0,0,0-1.14.58,3.91,3.91,0,0,0-.07.9,1.27,1.27,0,0,0,1.74.64A1.08,1.08,0,0,0,68,92.61M67.41,94l-.49.17A1,1,0,0,1,66,93.05a1,1,0,0,1,1-1c.2.12.45.18.6.39a1.69,1.69,0,0,1,.23.77,1.53,1.53,0,0,1-.49.78" fill="#6b7688"/><path d="M69.59,93.2a1.28,1.28,0,0,0,.52-.41.66.66,0,0,0-.24-.6c-.41-.29-.94-.12-1.4-.18l.21.18a13.2,13.2,0,0,1-.06,2H69c0-.35,0-.72-.07-1.07l.37.11c.34.38.57,1,1.17,1a3.33,3.33,0,0,1-.87-1M68.93,93c0-.27,0-.55,0-.81h.56a3.55,3.55,0,0,0,.31.23,1,1,0,0,1-.21.7,1.22,1.22,0,0,1-.68-.12" fill="#6b7688"/><path d="M75.78,92h.51a10.1,10.1,0,0,0-.09,2.06c.28,0,.55,0,.82-.06l.3-.25-.21.38c-.46,0-.91,0-1.37,0l.18-.2c0-.59,0-1.18,0-1.77L75.78,92" fill="#6b7688"/><path d="M78,92c.32.59.61,1.2,1,1.77.37-.56.59-1.2,1-1.77a3.2,3.2,0,0,0,.12.7c0,.41.1.82.16,1.23l.13.24h-.41a11.81,11.81,0,0,0-.17-1.56c-.31.53-.55,1.1-.84,1.63-.22-.56-.58-1.06-.82-1.61a6.63,6.63,0,0,0-.16,1.53l-.38,0,.17-.22c.08-.67.19-1.34.3-2" fill="#6b7688"/><path d="M81.06,92c.26,0,.51,0,.77,0v.39c-.1-.17-.22-.36-.44-.35a3.55,3.55,0,0,0-.43.23v.3c.34.28.69.54,1,.84,0,.17,0,.4-.11.54a.86.86,0,0,1-1.16.07V93.7h.09c0,.31.28.38.52.43l.4-.13c0-.13,0-.26,0-.4-.32-.45-1.07-.61-1-1.27Z" fill="#6b7688"/><path d="M91.16,92.14a.36.36,0,0,1,.29-.11h1.62a2,2,0,0,0,.11.2,3.48,3.48,0,0,0-.91,0c0,.62,0,1.23,0,1.85l.21.12a1.75,1.75,0,0,1-.51,0,11.08,11.08,0,0,0,.12-2c-.32,0-.62,0-.93,0" fill="#6b7688"/><path d="M93.45,92c.46.08,1-.11,1.42.12a8.19,8.19,0,0,1-1,0c0,.3,0,.6,0,.9h.61s.08-.16.11-.22l0,.59-.11-.27h-.66v.93c.39,0,.91.07,1.12-.35,0,.14-.09.29-.13.43-.44,0-.87,0-1.3,0a6.65,6.65,0,0,0,.06-2L93.45,92" fill="#6b7688"/><path d="M95.7,92h.76c0,.11,0,.22,0,.33-.14-.13-.27-.33-.48-.31a.4.4,0,0,0-.37.55c.31.35.76.55,1,1a.75.75,0,0,1-1,.64c-.28,0-.34-.26-.32-.49a1.29,1.29,0,0,0,.59.47c.25-.09.6-.23.5-.57-.29-.33-.69-.55-1-.87,0-.14,0-.29,0-.43L95.7,92" fill="#6b7688"/><path d="M35,93.31A12.32,12.32,0,0,0,34.35,92c-.39.69-.65,1.44-1,2.14h.4c-.11-.22,0-.44.09-.66a3.35,3.35,0,0,1,1,0,1.07,1.07,0,0,1,.15.61h.44a5.26,5.26,0,0,1-.44-.85m-1.06,0a7.7,7.7,0,0,1,.45-1c.12.34.26.66.37,1-.27,0-.55,0-.82,0" fill="#6b7688"/><path d="M41.58,92c.61.59,1.25,1.14,1.84,1.74a11.83,11.83,0,0,0,0-1.19c0-.18-.08-.34-.15-.49h.44a.66.66,0,0,0-.14.49c0,.57,0,1.15,0,1.72-.58-.62-1.26-1.15-1.85-1.76,0,.56,0,1.13,0,1.69h-.28a7,7,0,0,0,.07-2.2" fill="#6b7688"/><path d="M45.22,92c-.29.46-.46,1-.7,1.44-.13.26-.18.59-.48.71l.51,0c-.12-.23.05-.45.12-.67.32,0,.64,0,1,0a1.62,1.62,0,0,1,.16.68h.44a17.11,17.11,0,0,1-1-2.17m-.48,1.37c.14-.34.29-.67.46-1,.11.34.24.66.37,1Z" fill="#6b7688"/><path d="M59,92a2.77,2.77,0,0,1,1.37.2,3.66,3.66,0,0,0,.15.43,2.22,2.22,0,0,1-.5.64c.26.31.53.6.79.9-.68,0-.81-.82-1.33-1.11a5.82,5.82,0,0,0,.6,0c.06-.14.13-.28.2-.42-.12-.16-.19-.41-.43-.43a5,5,0,0,0-.55,0c0,.57,0,1.15,0,1.72,0,.06.1.19.14.25l-.38.06c0-.65,0-1.29,0-1.93A2.6,2.6,0,0,1,59,92" fill="#6b7688"/><path d="M74.07,92.34c.1-.09.19-.2.29-.29.23.53.48,1,.71,1.58a1.43,1.43,0,0,0,.36.51l-.54,0a1,1,0,0,0-.13-.68l-.93,0a1.48,1.48,0,0,0-.22.68h-.36A6.89,6.89,0,0,0,74,92.55l.14.21c-.1.19-.18.4-.27.6h.81a8.38,8.38,0,0,0-.4-1l-.08.24c0-.09-.09-.18-.13-.28" fill="#6b7688"/><path d="M90.22,92a23,23,0,0,1-1.09,2.16h.45L89.47,94l.24-.51h1a3.14,3.14,0,0,1,.15.69h.42c-.37-.71-.69-1.45-1-2.18m-.44,1.34c.14-.31.27-.64.4-1,.15.32.28.64.41,1h-.81" fill="#6b7688"/></svg>