<svg id="Layer_1" data-name="Layer 1" xmlns="http://www.w3.org/2000/svg" viewBox="0 0 120 120"><path d="M103.75,95.7H49.11c-2.49,0-5,.07-7.48.09-4,0-8,.07-11.93.13-2,0-4,.07-6,.12l-4.35.12c-.92,0-1.87.09-2.82.12a.3.3,0,0,1,0,.13c.15,0,.27.08.41.1.61,0,1.23.09,1.86.11,1,.05,2,.1,3.06.12l5.24.12c2.71,0,5.43.11,8.14.12,5.87.06,11.76.11,17.63.13q22.09,0,44.18,0h6.88l.64,0V95.7Z" fill="#6b7688"/><path d="M83.72,88.34c-.12.72-.24,1.45-.38,2.19,0,.3-.14.59-.21.91H83c-.35-1.14-.72-2.28-1.08-3.43l-.56,0c-.37,1.19-.74,2.33-1.14,3.61-.14-.68-.26-1.24-.39-1.8s-.21-1.18-.31-1.81h-.68c.27,1.56.55,3.08.87,4.61h.75c.37-1.16.72-2.29,1.09-3.42h.09c.36,1.14.72,2.27,1.08,3.43h.76c.16-.79.31-1.54.43-2.31a13.55,13.55,0,0,0,.37-2.28c-.51,0-.51,0-.58.28" fill="#6b7688"/><path d="M22.27,89.78a10.7,10.7,0,0,1-.07,1.75L20.43,88h-.77a24.93,24.93,0,0,0,.05,4.64l.49,0v-3.5a.36.36,0,0,0,.14,0c.6,1.19,1.2,2.36,1.81,3.55.26,0,.52.07.75-.06V88.06h-.63c0,.61,0,1.17,0,1.72" fill="#6b7688"/><path d="M90.8,91.88a.62.62,0,0,1-.58.45.53.53,0,0,1-.49-.45,2.41,2.41,0,0,1,0-1.59c.13-.34.35-.51.6-.5a.73.73,0,0,1,.51.62,3.25,3.25,0,0,1,.08.45.79.79,0,0,1,0,.23,5.71,5.71,0,0,1-.14.79m.14-2.1a2,2,0,0,1-.21-.15,1.09,1.09,0,0,0-1.73.6A2.81,2.81,0,0,0,89,92a1,1,0,0,0,1.75.53l.16-.11c.17.33.17.33.65.25V88h-.6Z" fill="#6b7688"/><path d="M49.48,88.18a1.77,1.77,0,0,0-1-.19,1.48,1.48,0,0,0-1.57,1.14,3.5,3.5,0,0,0,0,2.47,1.72,1.72,0,0,0,1.47,1.17,2.62,2.62,0,0,0,1.49-.28V91.9a3.41,3.41,0,0,0-.38.21,1.25,1.25,0,0,1-1.9-.89,4.9,4.9,0,0,1-.08-1.62,2.6,2.6,0,0,1,.28-.84.71.71,0,0,1,.75-.4.67.67,0,0,1,.61.52c0,.13.07.27.11.39H50a1,1,0,0,0-.52-1.09" fill="#6b7688"/><path d="M55.29,89.64a2.47,2.47,0,0,0-.37.49c-.08-.32-.14-.47-.19-.63h-.54a13.76,13.76,0,0,0,0,3.17h.6V91.26a1.81,1.81,0,0,1,.3-1,.57.57,0,0,1,.59-.33c.2,0,.34.26.35.58s0,.52,0,.78v1.37h.7c0-.82,0-1.63,0-2.42a.85.85,0,0,0-1.46-.59" fill="#6b7688"/><path d="M37.07,89.48a1.84,1.84,0,0,0-.49.33c-.08.07-.17.18-.28.3,0-.23,0-.4-.07-.59a1.05,1.05,0,0,0-.24-.06l-.32,0v3.17h.6c0-.35,0-.67,0-1a2.84,2.84,0,0,1,.33-1.38c.16-.27.46-.43.65-.35s.33.31.33.57,0,.81,0,1.21a2.62,2.62,0,0,0,.07,1l.61,0c0-.84,0-1.61,0-2.4a.83.83,0,0,0-1.2-.77" fill="#6b7688"/><path d="M33.83,92a.6.6,0,0,1-.54.52.59.59,0,0,1-.6-.5,6.57,6.57,0,0,1-.12-.89h0a4.7,4.7,0,0,1,0-.54,2.47,2.47,0,0,1,.11-.47.55.55,0,0,1,1.05,0,2.79,2.79,0,0,1,.09.34,2.69,2.69,0,0,1,0,1.54m.84-1.18a1.68,1.68,0,0,0-.54-1.12A1.54,1.54,0,0,0,33,89.43a1.16,1.16,0,0,0-1.1.86,2.61,2.61,0,0,0,0,1.54,1.32,1.32,0,0,0,.6.79,1.43,1.43,0,0,0,2.08-.9,3,3,0,0,0,.09-.59h0a2,2,0,0,0,0-.35" fill="#6b7688"/><path d="M25.34,92.25c-.18.08-.35.14-.49,0a.44.44,0,0,1-.13-.54c.14-.34.42-.46,1-.43.1.51,0,.81-.33,1m-.46-2.81a1.48,1.48,0,0,0-.58.28.54.54,0,0,0-.19.65h.61c0-.15,0-.3.11-.36a.76.76,0,0,1,.4-.32.39.39,0,0,1,.42.35,1.27,1.27,0,0,1,.06.79,9.45,9.45,0,0,0-1.3.36A.83.83,0,0,0,24,92.25a.89.89,0,0,0,1.05.49,3.52,3.52,0,0,0,.67-.34c.19.34.19.34.73.18,0-.61,0-1.23,0-1.84-.09-1.19-.28-1.38-1.56-1.3" fill="#6b7688"/><path d="M72.7,92.07a.5.5,0,0,1-.52.41.54.54,0,0,1-.54-.41,3.06,3.06,0,0,1,0-1.87.59.59,0,0,1,.52-.51.63.63,0,0,1,.6.51,6.11,6.11,0,0,1,.16.89,9,9,0,0,1-.2,1m-.36-2.64h-.42a1,1,0,0,0-1,.69,6.7,6.7,0,0,0-.21.91,0,0,0,0,0,0,0c0,.17,0,.36,0,.54a1.26,1.26,0,0,0,1.34,1.17,1.28,1.28,0,0,0,1.41-1.17,6.37,6.37,0,0,0,0-1.07,1.2,1.2,0,0,0-1.21-1.1" fill="#6b7688"/><path d="M40.74,92.16c-.23.21-.48.23-.64,0a.5.5,0,0,1,.06-.7.92.92,0,0,1,.87-.23.89.89,0,0,1-.29.9m0-2.73h-.61c-.49.06-.74.35-.72.92H40a1.89,1.89,0,0,1,.1-.36.38.38,0,0,1,.46-.29A.6.6,0,0,1,41,90a.88.88,0,0,1,0,.82,4.75,4.75,0,0,0-.63.14,2.72,2.72,0,0,0-.63.2.8.8,0,0,0-.42,1,.86.86,0,0,0,1.05.49A4.78,4.78,0,0,0,41,92.4c.2.32.2.32.65.18,0-.75,0-1.52,0-2.28,0-.61-.3-.86-.91-.87" fill="#6b7688"/><path d="M97.9,88a.9.9,0,0,0-1,.84,3.74,3.74,0,0,0-.05.55c-.2.15-.53,0-.53.36l.6.16v2.75h.66v-1.4a4,4,0,0,1,.11-1.39c.21-.2.66.18.75-.36l-.82-.09c-.07-1,.16-1.16,1.14-1,0-.13,0-.23,0-.44-.35,0-.63,0-.89,0" fill="#6b7688"/><path d="M69.43,88a.76.76,0,0,0-.72.63c0,.25-.09.51-.14.75a.24.24,0,0,1-.1,0c-.14,0-.32,0-.34.2s.2.14.32.19l.17.09V91.3a5.26,5.26,0,0,0,.07,1.37h.65V89.9c.3-.18.62,0,.88-.23-.2-.4-.61-.07-.88-.33a.91.91,0,0,1,.19-.84c.3-.27.63-.13,1,0V88a9.69,9.69,0,0,0-1.08,0" fill="#6b7688"/><path d="M61.62,89.67c.28,0,.43.19.54.7H61c.15-.51.35-.7.63-.7M61,90.74h1.82c0-.93-.3-1.29-1.09-1.31h-.29a1.12,1.12,0,0,0-1.11,1,4.07,4.07,0,0,0,0,.78,1.61,1.61,0,0,0,2.34,1.45c.07,0,.11-.16.2-.28C61.48,92.46,61,92,61,90.74" fill="#6b7688"/><path d="M51.93,89.69c.3,0,.45.19.56.68a3,3,0,0,1-.4,0H51.3c.14-.51.35-.74.63-.72m-.63,1h1.82c.05-.91-.3-1.29-1.09-1.31h-.31a1.1,1.1,0,0,0-1.09,1,6.12,6.12,0,0,0,0,.74c0,1.28,1.08,1.93,2.36,1.47.07,0,.09-.16.14-.28-1.23.18-1.82-.35-1.82-1.61" fill="#6b7688"/><path d="M100,89.86a.84.84,0,0,1,.37-.17c.27,0,.46.19.6.68H99.75a.5.5,0,0,1,.21-.51m-.24.88h1.8c.07-.89-.26-1.29-1-1.31h-.37a1.1,1.1,0,0,0-1,.93,6.42,6.42,0,0,0,0,1.24,1.24,1.24,0,0,0,.44.77,1.82,1.82,0,0,0,2,.23.58.58,0,0,0,.07-.21c-1.33,0-1.82-.39-1.82-1.65" fill="#6b7688"/><path d="M58.85,89.43c0-.37,0-.7-.05-1.11-.25.14-.46.27-.65.39,0,.25,0,.45-.06.7a1.69,1.69,0,0,0-.24,0c-.07,0-.19.09-.19.16s.1.17.23.19a2.27,2.27,0,0,1,.22.07v.63c0,.48,0,1,0,1.44a.73.73,0,0,0,.7.8,2.14,2.14,0,0,0,.62,0c.19,0,.24-.17.15-.4l-.4,0a.37.37,0,0,1-.37-.39V89.85a5.2,5.2,0,0,0,.63-.06c.19,0,.25-.1.16-.31l-.77,0" fill="#6b7688"/><path d="M28.46,89.43c0-.37-.06-.7-.07-1-.62.09-.62.53-.6.91-.14.21-.49,0-.47.4l.49.21c0,.67,0,1.33,0,2s.19.8.77.85a3.45,3.45,0,0,0,.64,0v-.38l-.36,0a.38.38,0,0,1-.37-.33,10,10,0,0,1,0-2.19,3.77,3.77,0,0,0,.7,0c.19,0,.22-.12.13-.31l-.83,0" fill="#6b7688"/><path d="M42.92,88.11A37.23,37.23,0,0,0,43,92.67h.58V88.08a.85.85,0,0,0-.65,0" fill="#6b7688"/><path d="M92.8,92.67h.66V88c-.22,0-.42,0-.64,0,0,1.58,0,3.08,0,4.63" fill="#6b7688"/><path d="M87.25,88v4.63h.61a32,32,0,0,0,0-4.63Z" fill="#6b7688"/><path d="M75.28,90.11c0-.23,0-.42-.07-.63a2.75,2.75,0,0,0-.39,0,.85.85,0,0,0-.22,0,17.4,17.4,0,0,0,0,3.17h.55c0-.09,0-.13.07-.18V91.3c0-.84.12-1,.92-1.19a.44.44,0,0,0,.11-.09v-.56c-.53-.07-.7.37-1,.65" fill="#6b7688"/><path d="M64.52,90.09c0-.21-.07-.4-.1-.59h-.6v3.15h.67c0-.49,0-1,0-1.4,0-.79.14-1,1-1.18v-.61c-.49,0-.63.4-.93.63" fill="#6b7688"/><path d="M85.28,89.48c0,.59,0,1.12,0,1.64a6.83,6.83,0,0,0,.07,1.56,5.09,5.09,0,0,0,.58,0,12.38,12.38,0,0,0-.07-3.17Z" fill="#6b7688"/><path d="M95.36,89.44c-.23,0-.42.06-.6.07v3.1a.75.75,0,0,0,.67,0c0-.53,0-1,0-1.56a7.08,7.08,0,0,0-.07-1.58" fill="#6b7688"/><path d="M30.43,89.46c-.05,0-.1,0-.19.05a11,11,0,0,0,.09,3.17l.45-.05a12.36,12.36,0,0,0-.07-3.15,1.19,1.19,0,0,0-.28,0" fill="#6b7688"/><rect x="85.3" y="88.04" width="0.67" height="0.61" fill="#6b7688"/><path d="M94.74,88v.67c.27,0,.48.05.7-.12,0-.18,0-.36,0-.55Z" fill="#6b7688"/><path d="M30.8,88l-.68,0c0,.24,0,.44,0,.65.27,0,.44,0,.65,0Z" fill="#6b7688"/><path d="M39.15,66.2a.55.55,0,0,0,.53-.55.54.54,0,0,0-1.07,0,.55.55,0,0,0,.54.55" fill="#6b7688"/><path d="M47.63,70.82H43.1a4.18,4.18,0,0,1,1-1.82A2.35,2.35,0,0,1,46,68a1.62,1.62,0,0,1,1.29.68,3.28,3.28,0,0,1,.39,1.67,3.39,3.39,0,0,1,0,.45m.93.16c0-.31,0-.56,0-.7a3.75,3.75,0,0,0-.44-2,2.4,2.4,0,0,0-2.24-1.18,3.25,3.25,0,0,0-2.77,1.63V65.3l-1,.3v5.22H40.92v0h-.26a.88.88,0,0,1-1-1V67.09l-1,.28v2.44a.9.9,0,0,1-1,1h-1c-.65,0-.91-.21-1.17-.86l-.44.93a1.33,1.33,0,0,0,1.24.77,1,1,0,0,1-.67.95,3.25,3.25,0,0,1-1,.12c-1.12,0-1.71-.68-1.71-1.84a5.8,5.8,0,0,1,.59-2.38l-1.1.66A4.76,4.76,0,0,0,32,71.08a2.55,2.55,0,0,0,.61,1.79,2.59,2.59,0,0,0,2,.75,3,3,0,0,0,1.81-.47,1.55,1.55,0,0,0,.7-1.47h.61a1.94,1.94,0,0,0,1.44-.54,1.89,1.89,0,0,0,1.42.54h7.93c0-.16,0-.38,0-.7" fill="#6b7688"/><path d="M52.45,70.84h-.9c-.75,0-1.13-.42-1.13-1.24q0-1.53,1-1.53a.88.88,0,0,1,.86.51,3.08,3.08,0,0,1,.12,1Zm3.4-1a.9.9,0,0,1-1,1h-.62v0h-.86c0-.51,0-.93,0-1.24,0-1.58-.65-2.37-1.94-2.37a1.78,1.78,0,0,0-1.56.75,2.68,2.68,0,0,0-.46,1.62A2.05,2.05,0,0,0,50,71.07a2.11,2.11,0,0,0,1.57.61h.79a1.24,1.24,0,0,1-1.19,1.1,3.59,3.59,0,0,1-1.59-.35l.42.93a2.21,2.21,0,0,0,1.19.27,1.94,1.94,0,0,0,1.47-.6,2.38,2.38,0,0,0,.67-1.35H54.9a1.94,1.94,0,0,0,1.4-.51,1.73,1.73,0,0,0,.51-1.3V65.15l-1,.28Z" fill="#6b7688"/><polygon points="57.69 71.68 58.65 71.68 58.65 65.13 57.69 65.42 57.69 71.68" fill="#6b7688"/><path d="M65.34,66.2a.54.54,0,0,0,.53-.55.53.53,0,0,0-1.05,0,.54.54,0,0,0,.52.55" fill="#6b7688"/><path d="M65.89,71.68h7c0-1.16,0-1.81,0-1.94A2.55,2.55,0,0,0,72,68.05a2.61,2.61,0,0,0-1.77-.63,1.71,1.71,0,0,0-.45,0L72,65.15H70.69l-3.16,3.29.67.61A2.25,2.25,0,0,1,70,68.26a1.89,1.89,0,0,1,1.36.49,1.7,1.7,0,0,1,.49,1,5.48,5.48,0,0,1,0,1.1H67.34v0H65.9V67.09l-1,.28v4a1.25,1.25,0,0,1-1.33,1.38,3.22,3.22,0,0,1-1.54-.38l.45.94a1.89,1.89,0,0,0,1.09.29,2.11,2.11,0,0,0,2.28-1.95" fill="#6b7688"/><path d="M81.46,68.88c.72,0,1.07.44,1.07,1.35s-.35,1.35-1.07,1.35-1.07-.46-1.07-1.35.35-1.35,1.07-1.35m-6.95,4.75a2.11,2.11,0,0,0,2.27-1.95h1.47a1.59,1.59,0,0,0,1.27-.51,1.93,1.93,0,0,0,1.94,1.21,1.91,1.91,0,0,0,2-1.35,1.61,1.61,0,0,0,1.3.63v0h.64a2,2,0,0,0,1.41-.51,1.73,1.73,0,0,0,.5-1.3V65.15l-1,.28v4.36c0,.68-.33,1-1,1h-.61v0a1.1,1.1,0,0,1-1.23-1,2.29,2.29,0,0,0-.58-1.31,2.05,2.05,0,0,0-1.47-.46,1.87,1.87,0,0,0-2,1.77,1.06,1.06,0,0,1-1.21,1H76.8V67.09l-1,.28v4a1.25,1.25,0,0,1-1.33,1.38A3.29,3.29,0,0,1,73,72.4l.46.95a2,2,0,0,0,1.09.28" fill="#6b7688"/><polygon points="88.17 65.43 88.17 71.68 89.13 71.68 89.13 65.13 88.17 65.43" fill="#6b7688"/><path d="M19,76.76a.53.53,0,1,0-.52-.53.53.53,0,0,0,.52.53" fill="#6b7688"/><path d="M95.44,76.23a.53.53,0,0,0,.52.53.53.53,0,1,0-.52-.53" fill="#6b7688"/><path d="M98.69,76.23a.53.53,0,1,0,1,0,.53.53,0,0,0-1,0" fill="#6b7688"/><path d="M100.06,76.23a.54.54,0,0,0,.53.53.53.53,0,0,0,0-1.05.55.55,0,0,0-.53.52" fill="#6b7688"/><path d="M79.83,76.23a.53.53,0,1,0,1,0,.53.53,0,0,0-1,0" fill="#6b7688"/><path d="M81.2,76.23a.53.53,0,1,0,1,0,.53.53,0,0,0-1,0" fill="#6b7688"/><path d="M53,76.23a.53.53,0,1,0,1,0,.53.53,0,0,0-1,0" fill="#6b7688"/><path d="M40.29,76.23a.53.53,0,1,0,1.05,0,.53.53,0,0,0-1.05,0" fill="#6b7688"/><path d="M54.39,76.23a.54.54,0,0,0,.53.53.53.53,0,0,0,0-1.05.55.55,0,0,0-.53.52" fill="#6b7688"/><path d="M19.47,79.91A2.22,2.22,0,0,1,19.26,81a.9.9,0,0,1-.82.4.91.91,0,0,1-.84-.4,2.22,2.22,0,0,1-.21-1.11,2,2,0,0,1,.21-1.06.9.9,0,0,1,.84-.41h1Zm4.07.48a.91.91,0,0,1-1,1H21.43a.9.9,0,0,1-1-1V77.67H18.37c-1.3,0-1.95.75-1.95,2.24s.65,2.33,1.95,2.33a1.48,1.48,0,0,0,1.49-.7c.21.47.72.7,1.52.7h1.19a2,2,0,0,0,1.4-.5,1.76,1.76,0,0,0,.51-1.28V77.67l-.94.28Z" fill="#6b7688"/><path d="M22.38,83.15a.53.53,0,0,0-.53.51.53.53,0,1,0,1.06,0,.53.53,0,0,0-.53-.51" fill="#6b7688"/><path d="M23.75,83.15a.52.52,0,0,0-.53.51.54.54,0,0,0,.53.55.54.54,0,0,0,.52-.55.51.51,0,0,0-.52-.51" fill="#6b7688"/><path d="M41.63,80.74a1.3,1.3,0,0,1-.8.68,1.4,1.4,0,0,1-.81-.68,1.86,1.86,0,0,1-.25-1c0-.71.39-1.27,1.06-1.27s1.06.56,1.06,1.27a1.78,1.78,0,0,1-.26,1m-5.36.66H31.75a3.86,3.86,0,0,1,1-1.82,2.29,2.29,0,0,1,1.89-1,1.61,1.61,0,0,1,1.31.67,3.46,3.46,0,0,1,.41,1.66,1.89,1.89,0,0,1-.06.47M45,80.35a.91.91,0,0,1-1,1.05h-.6v0H42.17A2.13,2.13,0,0,0,42.82,80a2.42,2.42,0,0,0-.42-1.56,1.77,1.77,0,0,0-1.57-.74,1.81,1.81,0,0,0-1.58.74,2.41,2.41,0,0,0-.4,1.56,2.2,2.2,0,0,0,.63,1.45H38.23v0h-1a4.69,4.69,0,0,0-.45-2.52,2.37,2.37,0,0,0-2.23-1.16,3.11,3.11,0,0,0-2.75,1.63V75.89l-1,.29V81.4h-2.4V77.67l-1,.28v4a1.26,1.26,0,0,1-1.33,1.37A3.08,3.08,0,0,1,24.6,83l.46,1a2.05,2.05,0,0,0,1.09.29,2.1,2.1,0,0,0,2.27-2H40.23a3,3,0,0,0,.6,0,3.07,3.07,0,0,0,.59,0H44a1.92,1.92,0,0,0,1.38-.5,1.72,1.72,0,0,0,.53-1.28V75.71L45,76Z" fill="#6b7688"/><polygon points="46.82 82.24 47.78 82.24 47.78 75.69 46.82 76.01 46.82 82.24" fill="#6b7688"/><path d="M54,81.44c-.73,0-1.1-.51-1.1-1.53s.37-1.49,1.1-1.49,1.12.51,1.12,1.49-.39,1.53-1.12,1.53m0-3.82a1.92,1.92,0,0,0-1.63.73,2.51,2.51,0,0,0-.44,1.56,2.6,2.6,0,0,0,.44,1.6,1.9,1.9,0,0,0,1.63.73,1.87,1.87,0,0,0,1.63-.73,2.6,2.6,0,0,0,.44-1.6,2.51,2.51,0,0,0-.44-1.56A1.9,1.9,0,0,0,54,77.62" fill="#6b7688"/><path d="M62,83.15a.52.52,0,0,0-.52.51.54.54,0,0,0,.52.55.55.55,0,0,0,.53-.55.53.53,0,0,0-.53-.51" fill="#6b7688"/><path d="M60.59,83.15a.5.5,0,0,0-.51.51.52.52,0,0,0,.51.55.54.54,0,0,0,.52-.55.51.51,0,0,0-.52-.51" fill="#6b7688"/><path d="M71.2,80.35c0,.7-.33,1.05-1,1.05H68.59v-.35a4.89,4.89,0,0,0-.4-2.26,2.2,2.2,0,0,0-2.14-1.12,3.15,3.15,0,0,0-2.22,1l.68.63a2.1,2.1,0,0,1,1.54-.79,1.32,1.32,0,0,1,1.35.86,4.88,4.88,0,0,1,.21,1.68v.37H62.74a.89.89,0,0,1-1-1V77.67l-1,.28v2.44a.91.91,0,0,1-1,1h-.4v0h-1a.43.43,0,0,1-.49-.49V75.69l-1,.32v4.92a1.22,1.22,0,0,0,1.33,1.31h1.56a1.94,1.94,0,0,0,1.44-.52,1.91,1.91,0,0,0,1.42.52h7.57a2,2,0,0,0,1.4-.5,1.78,1.78,0,0,0,.51-1.28V75.71l-1,.3Z" fill="#6b7688"/><polygon points="73.04 82.24 74 82.24 74 75.69 73.04 76.01 73.04 82.24" fill="#6b7688"/><path d="M85,83.15a.5.5,0,0,0-.5.51.52.52,0,0,0,.5.55.54.54,0,0,0,.53-.55.52.52,0,0,0-.53-.51" fill="#6b7688"/><path d="M86.39,83.15a.52.52,0,0,0-.52.51.54.54,0,0,0,.52.55.55.55,0,0,0,.53-.55.53.53,0,0,0-.53-.51" fill="#6b7688"/><path d="M91,82.14c-.72,0-1.08-.44-1.08-1.35s.36-1.35,1.08-1.35S92,79.9,92,80.79s-.36,1.35-1.07,1.35M81.2,79.91A2.38,2.38,0,0,1,81,81a.91.91,0,0,1-.84.4.87.87,0,0,1-.82-.4,2.22,2.22,0,0,1-.21-1.11,2,2,0,0,1,.21-1.06.85.85,0,0,1,.82-.41h1Zm22.53.44q0,1.05-1,1.05h-.6v0h-.3a.9.9,0,0,1-1-1V77.67l-1,.28v2.44a.9.9,0,0,1-1,1h-1a.89.89,0,0,1-1-1V77.67l-1,.28v2.44a.9.9,0,0,1-1,1h-.46v0l-.19,0a1.13,1.13,0,0,1-1.26-1,2.13,2.13,0,0,0-.57-1.31A2,2,0,0,0,91,78.64a1.86,1.86,0,0,0-2,1.78,1.06,1.06,0,0,1-1.21,1h-.26v0h-.26a.89.89,0,0,1-1-1V77.67l-1,.28v2.44a.91.91,0,0,1-1,1h-1a.91.91,0,0,1-1-1V77.67h-2c-1.3,0-1.94.76-1.94,2.24s.64,2.33,1.94,2.33a1.48,1.48,0,0,0,1.49-.7c.21.48.72.7,1.5.7h1.16a1.94,1.94,0,0,0,1.44-.52,1.91,1.91,0,0,0,1.42.52h.63a1.59,1.59,0,0,0,1.26-.5A1.94,1.94,0,0,0,91,83a1.9,1.9,0,0,0,2-1.35,1.62,1.62,0,0,0,1.32.63H95a1.9,1.9,0,0,0,1.44-.52,1.91,1.91,0,0,0,1.42.52h1.09a1.94,1.94,0,0,0,1.45-.52,1.88,1.88,0,0,0,1.4.52h1a2,2,0,0,0,1.4-.5,1.7,1.7,0,0,0,.51-1.28V75.71l-1,.3Z" fill="#6b7688"/><path d="M60.57,100.43a.36.36,0,0,0,.37-.37.38.38,0,0,0-.37-.39.38.38,0,0,0-.39.39.37.37,0,0,0,.39.37" fill="#6b7688"/><path d="M60.56,100.43a.36.36,0,0,0,.37-.37.38.38,0,0,0-.37-.39.37.37,0,0,0-.37.39.35.35,0,0,0,.37.37" fill="#6b7688"/><path d="M60.55,100.43a.37.37,0,0,0,.39-.37.38.38,0,0,0-.39-.39.38.38,0,0,0-.37.39.36.36,0,0,0,.37.37" fill="#6b7688"/><path d="M60.57,100.43a.36.36,0,0,0,.37-.37.38.38,0,0,0-.37-.39.38.38,0,0,0-.39.39.37.37,0,0,0,.39.37" fill="#6b7688"/><path d="M60.57,100.43a.36.36,0,0,0,.37-.37.38.38,0,0,0-.37-.39.38.38,0,0,0-.39.39.37.37,0,0,0,.39.37" fill="#6b7688"/><path d="M60.55,100.43a.37.37,0,0,0,.39-.37.38.38,0,0,0-.39-.39.38.38,0,0,0-.37.39.36.36,0,0,0,.37.37" fill="#6b7688"/><path d="M28.89,105a.37.37,0,0,0-.39.37.38.38,0,0,0,.39.38.38.38,0,0,0,.37-.38.37.37,0,0,0-.37-.37" fill="#6b7688"/><path d="M27.82,105a.36.36,0,0,0-.37.37.37.37,0,0,0,.37.38.39.39,0,0,0,.38-.38.38.38,0,0,0-.38-.37" fill="#6b7688"/><path d="M25.87,103.44a.85.85,0,0,1-.8.65c-.3,0-.77-.32-.77-1.4,0-.77.26-1.47.84-1.47s.8.7.8,1.33a3.67,3.67,0,0,1-.07.89m2.91-1.86v1.79c0,.42-.15.7-.54.7H27c-.35,0-.38-.38-.38-.58v-1.91a2.13,2.13,0,0,1,.05-.54h-.37c-.05,0,0,.09-.05.11s-.07.19-.09.19a.4.4,0,0,0-.12-.09,1.59,1.59,0,0,0-.86-.3,1.61,1.61,0,0,0-1.53,1.68A1.58,1.58,0,0,0,25,104.35a1.15,1.15,0,0,0,1.07-.77c0,.67.4.75.91.77h1.4a1,1,0,0,0,1.07-1v-2.33l-1,.19c.33.11.33.16.33.33" fill="#6b7688"/><path d="M31.83,101.08h0a.9.9,0,0,0-.66.35c-.32.36-.44.4-.63.42l.14.58c.42-.64.8-1.13,1.07-1.13s.47.6.47,1.86v.91H30.06l.23.28h2.63v-.19c0-1.26-.18-3.07-1.09-3.08" fill="#6b7688"/><path d="M38.89,102.74a3.89,3.89,0,0,0-.6-1,2.62,2.62,0,0,1,1.21-.35c.55,0,.83.4.83,1s-.35,1-.88,1.31a5.06,5.06,0,0,1-.56-1m-3.1,1.1a.75.75,0,0,1,0,.23H35c-.42,0-.65-.49-.65-.91,0-1.1.7-1.84,1.33-1.84h.09ZM49,100.15v3.22c0,.44-.18.7-.6.7h-.16v0H48.1c-.42,0-.71-.46-.8-.88v-2.13l-1,.17c.31.11.31.16.31.33v1.82c0,.43-.17.71-.58.71s-.8-.71-.8-1.18v-1.59l-1,.17c.32.13.34.14.34.3v1.59c0,.43-.18.71-.6.71s-.74-.58-.79-1V101.6l-1,.18c.33.1.33.14.33.29v1.3c0,.44-.17.7-.58.7H40.12a.58.58,0,0,1-.44-.12c.63-.35,1.37-.81,1.37-1.52s-.65-1.3-1.56-1.3a3.55,3.55,0,0,0-1.67.54l-.09.07a1.46,1.46,0,0,1,.14.21,4.77,4.77,0,0,1,.51.72,5.4,5.4,0,0,0,.74,1.25,2.19,2.19,0,0,1-.7.15h-2c0-.31,0-.7,0-1.17v-1.81h-.56a2,2,0,0,0-2.14,2.11,1.16,1.16,0,0,0,1.12,1.15h.84a1.73,1.73,0,0,1-1.47,1.28l-.18,0,.6,0a1.57,1.57,0,0,0,1.67-1.35h2.27a1.64,1.64,0,0,0,.79-.19,1.32,1.32,0,0,0,.84.19h2a1,1,0,0,0,1-.51,1.14,1.14,0,0,0,1,.51,1,1,0,0,0,1-.63,1,1,0,0,0,1,.63,1,1,0,0,0,1-.63,1.12,1.12,0,0,0,1,.63h.3a1,1,0,0,0,1.08-1V99.64l-1,.19c.34.11.34.16.34.32" fill="#6b7688"/><path d="M50.56,100.15v4.2h.64V99.64l-1,.19c.32.11.32.16.32.32" fill="#6b7688"/><path d="M57.42,105a.35.35,0,0,0-.36.37.36.36,0,0,0,.36.38.4.4,0,0,0,.39-.38.39.39,0,0,0-.39-.37" fill="#6b7688"/><path d="M58.49,105a.37.37,0,0,0-.38.37.37.37,0,0,0,.38.38.38.38,0,0,0,.37-.38.37.37,0,0,0-.37-.37" fill="#6b7688"/><path d="M55.46,103.44a.85.85,0,0,1-.78.65c-.32,0-.79-.32-.79-1.4,0-.77.26-1.48.84-1.48.73,0,.82.71.82,1.34a3.12,3.12,0,0,1-.09.89m6-2.38-1,.19c.32.11.33.16.33.33v1.79c0,.42-.15.7-.56.7h-.65c-.52,0-.82-.67-.82-1.14v-1.87l-1,.19c.3.11.33.12.33.3v1.84c0,.42-.17.68-.56.68h-1c-.33,0-.39-.38-.39-.58v-1.91a2.78,2.78,0,0,1,.06-.54h-.37c-.06,0,0,.09-.06.11a.51.51,0,0,1-.06.19l-.13-.09a1.49,1.49,0,0,0-2.38,1.39,1.57,1.57,0,0,0,1.35,1.71,1.12,1.12,0,0,0,1.07-.77c0,.67.42.75.91.77h1.17a1.07,1.07,0,0,0,1.09-.58,1.1,1.1,0,0,0,.91.58h.68a.94.94,0,0,0,1.05-1Z" fill="#6b7688"/><path d="M60.58,105a.38.38,0,0,0-.37.39.38.38,0,1,0,.75,0,.38.38,0,0,0-.38-.39" fill="#6b7688"/><path d="M66.31,102.74a5,5,0,0,0-.6-1,2.62,2.62,0,0,1,1.21-.35c.54,0,.82.4.82,1s-.35,1-.87,1.31a4.58,4.58,0,0,1-.56-1M70,100.15v3.22c0,.44-.18.7-.6.7H67.52a.58.58,0,0,1-.43-.12c.64-.35,1.37-.81,1.37-1.52s-.65-1.3-1.56-1.3a3.48,3.48,0,0,0-1.66.54c-.06,0-.07.06-.11.07a.66.66,0,0,1,.16.21,5.6,5.6,0,0,1,.51.72,5.14,5.14,0,0,0,.73,1.25,2.09,2.09,0,0,1-.72.15H63.68a6.38,6.38,0,0,0,.09-1.17v-1.84l-1,.19c.31.11.33.16.33.33v1.86a2,2,0,0,1-1.67,2.21l.55,0a1.51,1.51,0,0,0,1.62-1.32H66a1.55,1.55,0,0,0,.77-.19h0a1.26,1.26,0,0,0,.82.19h2a1,1,0,0,0,1.09-1V99.64l-1,.19c.34.11.34.16.34.32" fill="#6b7688"/><path d="M71.65,100.15v4.2h.65V99.64l-1,.19c.32.11.32.16.32.32" fill="#6b7688"/><path d="M91.88,104.4a1.32,1.32,0,0,1-1-.61l0,0a4.19,4.19,0,0,0,.28-.79l0,0c.13-.58.29-1.11.77-1.11h0c.55,0,.81.69.81,1.39s-.41,1.2-.88,1.2m-4.69,0a1.34,1.34,0,0,1-1-.61l0,0a4,4,0,0,0,.26-.79l0,0c.14-.58.3-1.11.77-1.11h0c.54,0,.8.69.8,1.39s-.4,1.2-.87,1.2m-10.64-1a.85.85,0,0,1-.78.65c-.32,0-.79-.32-.79-1.4,0-.77.26-1.47.84-1.47.73,0,.82.7.82,1.33a2.8,2.8,0,0,1-.09.89m18.7-3.29v3.22c0,.42-.18.7-.56.7h-.57a.84.84,0,0,1-.71-.65,2.26,2.26,0,0,0,0-.26,1.5,1.5,0,0,0-1.36-1.58c-1.09,0-1.26.67-1.44,1.35a2.36,2.36,0,0,1-.44,1,1,1,0,0,1-.28.1h-.47a.86.86,0,0,1-.72-.65,1.14,1.14,0,0,0,0-.26,1.51,1.51,0,0,0-1.37-1.58c-1.08,0-1.26.67-1.43,1.35a2.48,2.48,0,0,1-.44,1,1,1,0,0,1-.28.1h-.46c-.5,0-.82-.67-.82-1.14V99.62l-1,.19c.29.11.31.15.31.3v3.28c0,.42-.16.68-.54.68H81.18v-1.26a1.7,1.7,0,0,0-1.54-1.51c.71-.21,1.77-.77,1.82-1.15L81,99.48c0,.79-1.47,1.77-1.94,1.77h-.18l-.17.26h.68a1.2,1.2,0,0,1,1.14,1.32v1.24H77.64c-.33,0-.37-.38-.37-.58v-1.91a2.64,2.64,0,0,1,0-.54h-.37a.16.16,0,0,0,0,.1.94.94,0,0,1-.08.2l-.12-.09a1.65,1.65,0,1,0-1,3.1,1.11,1.11,0,0,0,1.07-.77c0,.67.42.76.91.77h5.24a1.06,1.06,0,0,0,1.08-.58,1.13,1.13,0,0,0,.93.58h.32A.93.93,0,0,0,86,104a1.35,1.35,0,0,0,1.19.64,1.47,1.47,0,0,0,1.39-.81,1.13,1.13,0,0,0,1,.49h.33a.9.9,0,0,0,.77-.32,1.37,1.37,0,0,0,1.2.64,1.46,1.46,0,0,0,1.38-.81,1.13,1.13,0,0,0,1,.49h.55a1,1,0,0,0,1.07-1V99.64l-1,.17c.33.11.35.16.35.34" fill="#6b7688"/><path d="M96.54,99.83c.32.11.32.16.32.32v4.2h.65V99.64Z" fill="#6b7688"/><path d="M55.07,28a10.18,10.18,0,0,0-3.19,4.15,5.18,5.18,0,0,0-.4,3.31,2.11,2.11,0,0,0,.15-.23A16.71,16.71,0,0,1,53.72,32a12.25,12.25,0,0,1,3-2.71,2.59,2.59,0,0,1,.4-.18,4.78,4.78,0,0,0,.06,5.36,12.32,12.32,0,0,1,3.31-6,12.61,12.61,0,0,1,3.31,6,4.84,4.84,0,0,0,.84-2.69,5.4,5.4,0,0,0-.86-2.75,6.89,6.89,0,0,1,2,1.36,16.19,16.19,0,0,1,3.33,4.26c.1.19.22.4.38.68a1.13,1.13,0,0,0,.1-.33,5.89,5.89,0,0,0-.28-2.43,10.26,10.26,0,0,0-3.46-4.75c-.09-.07-.18-.16-.28-.23a11.17,11.17,0,0,1,2.26.45,13.63,13.63,0,0,1,5,3.32,6.17,6.17,0,0,0-1.57-3.05,9.07,9.07,0,0,0-4.49-2.59l-1-.27a8.5,8.5,0,0,1,3,0c1,.24,1.92.59,3,.94-2.21-2.2-4.66-3.43-7.83-3,.42-.58,1-.67,1.58-.95A4.83,4.83,0,0,0,61.6,23c-.24-.7-.4-1.42-1.08-1.81-.74.41-.88,1.14-1.11,1.81a4.81,4.81,0,0,0-3.92-.44c.58.3,1.17.37,1.59.95-3.26-.46-5.76.86-7.88,3.08a10.35,10.35,0,0,1,6.06-1.1,3.2,3.2,0,0,1-.49.17,14.07,14.07,0,0,0-2.44.84,7.36,7.36,0,0,0-3.83,3.91,3.19,3.19,0,0,0-.32,1.09,12,12,0,0,1,7.33-3.89c-.2.15-.3.26-.44.35" fill="#6b7688"/><path d="M61.72,48a1.46,1.46,0,0,0-2-.18c-.28.18-.52.4-.86.67.32-1,.6-2,.9-2.88.08-.28.17-.57.26-.86a.52.52,0,0,1,.46-.43c.24,0,.38.17.47.38.16.44.31.86.45,1.3.2.61.37,1.24.55,1.86a2.66,2.66,0,0,1,0,.42L61.72,48m3.07-5.73A1.37,1.37,0,0,0,66,42a8.51,8.51,0,0,0,.92-.59,4.54,4.54,0,0,0,1.8-3.16,1.31,1.31,0,0,0-1.1.12,9.23,9.23,0,0,0-3.24,2.25A3.32,3.32,0,0,1,64,41c-.21.12-.42.16-.58-.12.84-3,1.7-5.89,2.54-8.85h-.08c-1.23,2.69-2.44,5.39-3.67,8.09a10,10,0,0,1-.94-.39,1.38,1.38,0,0,0-1.28,0c-.33.15-.67.29-1,.44-.32-.72-.6-1.35-.9-2s-.59-1.32-.89-2-.58-1.27-.86-1.92-.59-1.26-.87-1.9l-.13.06c.83,2.85,1.63,5.71,2.46,8.58-.37.21-.56,0-.76-.23A9.43,9.43,0,0,0,54.81,39a5.7,5.7,0,0,0-2-.84c-.18,0-.32,0-.42.14a5,5,0,0,0,3.15,3.87,1.5,1.5,0,0,0,.7.05c.25,0,.47-.12.73.09,0,.28-.06.56-.08.86a3.12,3.12,0,0,0,.35,2.44,4.55,4.55,0,0,1,.79,1.93c.1.48.15,1,.28,1.46a6.63,6.63,0,0,0,.54,1.91,1.85,1.85,0,0,0,1.7,1,1.76,1.76,0,0,0,1.68-1,4,4,0,0,0,.37-1c.15-.69.26-1.39.38-2.07a5.28,5.28,0,0,1,.79-2.14,2.66,2.66,0,0,0,.46-2.2,1.92,1.92,0,0,1,0-1.3,1.5,1.5,0,0,1,.56,0" fill="#6b7688"/><path d="M73,49.69c-1,.16-2,.3-3,.51a51.56,51.56,0,0,0-8.84,2.54,1.6,1.6,0,0,1-1.27,0,53.75,53.75,0,0,0-11-2.94c-.46-.07-.93-.1-1.4-.15,4.38,1,9.7,3.39,10.7,4.32a36.28,36.28,0,0,0-4.13,2.21A5.38,5.38,0,0,0,55.72,58c.45.3.52.28.94,0,1.16-.86,2.32-1.69,3.47-2.51a2.38,2.38,0,0,1,.41-.23,3.19,3.19,0,0,1,.33.2c1.19.85,2.38,1.71,3.55,2.59.35.24.44.26.81,0a4,4,0,0,0,.49-.35,6.37,6.37,0,0,0,1.17-1.45c0-.09-.07-.14-.1-.16l-4-2.22a39.78,39.78,0,0,1,10.67-4.17,1.29,1.29,0,0,0-.48,0" fill="#6b7688"/><path d="M70.38,43.45c-.42-.42-.6-.4-1,0a3.36,3.36,0,0,1-.79.54,2.15,2.15,0,0,1-2.44-.54c-.31-.32-.64-.39-.82-.2s-.12.53.16.83a3,3,0,0,0,2.78.94,3.45,3.45,0,0,0,1.6-.73,3.3,3.3,0,0,0,4.26,0l.5.31a3.12,3.12,0,0,0,1.67.42,3.32,3.32,0,0,0,2.06-.91,2.55,2.55,0,0,0,.41-.51.33.33,0,0,0-.09-.44.46.46,0,0,0-.38,0,2.44,2.44,0,0,0-.64.44,2.13,2.13,0,0,1-2.82,0,2.6,2.6,0,0,0-.36-.3.6.6,0,0,0-.78,0c-.1.09-.19.19-.29.3a1.89,1.89,0,0,1-1.32.52,2.1,2.1,0,0,1-1.66-.7" fill="#6b7688"/><path d="M44.31,44.91a2.83,2.83,0,0,0,1.12.09,4.39,4.39,0,0,0,1.69-.7,3.29,3.29,0,0,0,4.25,0c.16.12.32.22.49.33a3.11,3.11,0,0,0,3.82-.47,1.09,1.09,0,0,0,.26-.41.64.64,0,0,0,0-.49.4.4,0,0,0-.56,0,2,2,0,0,0-.4.37,2.2,2.2,0,0,1-2.91,0l-.35-.34a.51.51,0,0,0-.7,0c-.12.1-.21.21-.32.3a2,2,0,0,1-1.4.55,2,2,0,0,1-1.59-.7.67.67,0,0,0-.76-.26,1.48,1.48,0,0,0-.36.3,2.22,2.22,0,0,1-3.07,0,2.48,2.48,0,0,0-.6-.39c-.22-.11-.38,0-.4.28a.65.65,0,0,0,.27.58,3.56,3.56,0,0,0,1.57.93" fill="#6b7688"/><path d="M78.63,46.33a.56.56,0,0,0-.66.14l-.34.33a2,2,0,0,1-2.89,0c-.65-.62-.65-.62-1.28,0a2,2,0,0,1-3,0,3.13,3.13,0,0,1-.25-.26.51.51,0,0,0-.75,0,4.72,4.72,0,0,1-.39.38,2,2,0,0,1-2.06.41,2.41,2.41,0,0,1-1-.76.54.54,0,0,0-.7-.12.52.52,0,0,0,0,.7l.09.11a3,3,0,0,0,4.08.51l.37-.27a3.09,3.09,0,0,0,4.24,0,1.89,1.89,0,0,1,.31.22,3,3,0,0,0,3.87-.17,1.91,1.91,0,0,0,.39-.46c.15-.28.14-.56,0-.66" fill="#6b7688"/><path d="M51.35,47.41c.21.14.39.28.58.39a3,3,0,0,0,4-.77.46.46,0,0,0,0-.65.52.52,0,0,0-.67,0c-.07,0-.12.16-.19.23a2,2,0,0,1-3,.1c-.69-.63-.69-.63-1.37,0a1.91,1.91,0,0,1-2.17.46,4.36,4.36,0,0,1-1-.75.52.52,0,0,0-.79,0c-.07.07-.12.16-.19.23a2.09,2.09,0,0,1-3,.08c-.09-.08-.16-.17-.25-.26a.55.55,0,0,0-.73-.14.84.84,0,0,0,.24.9,3,3,0,0,0,3.84.5,5,5,0,0,0,.54-.35,3.27,3.27,0,0,0,2.1.83,3.43,3.43,0,0,0,2.12-.83" fill="#6b7688"/><path d="M60.55,61.5A21.57,21.57,0,1,1,82.12,39.93,21.59,21.59,0,0,1,60.55,61.5m0-44.48A22.92,22.92,0,1,0,83.48,39.93,22.94,22.94,0,0,0,60.55,17" fill="#6b7688"/><path d="M60.55,60.36A20.43,20.43,0,1,1,81,39.93,20.45,20.45,0,0,1,60.55,60.36m0-41.34A20.92,20.92,0,1,0,81.47,39.93,20.93,20.93,0,0,0,60.55,19" fill="#6b7688"/></svg>