<svg id="Layer_1" data-name="Layer 1" xmlns="http://www.w3.org/2000/svg" viewBox="0 0 120 120"><path d="M15.8,25.19a2.28,2.28,0,0,1,.59-.28,5.24,5.24,0,0,1,1,.52l7.71,4.47a.59.59,0,0,1,.38.56c0,3,0,6,0,9,0,.26,0,.61-.22.76s-.65,0-.93-.16c-.55-.31-1.13-.57-1.67-.9a.53.53,0,0,1-.26-.52c0-2.22,0-4.45,0-6.68a2.68,2.68,0,0,0-.74-.5c-1.78-1-3.53-2.07-5.31-3.08-1.91,1.09-3.81,2.21-5.72,3.32-.13.1-.35.18-.32.39,0,2.13,0,4.26,0,6.41,1.16.69,2.33,1.35,3.48,2,.21.13.5.27.47.56,0,.79,0,1.57,0,2.36a.52.52,0,0,1-.85.4q-2.9-1.66-5.77-3.35a.64.64,0,0,1-.42-.64V31c0-.36-.1-.85.31-1.05,2.72-1.6,5.48-3.17,8.2-4.77l0,0Z" fill="#6b7688"/><path d="M27,35.61a.53.53,0,0,1,.84-.29l5.77,3.35a.64.64,0,0,1,.41.64c0,3.13,0,6.26,0,9.38.05.29-.21.49-.43.61q-4.11,2.39-8.21,4.78a.67.67,0,0,1-.77.08c-2.69-1.55-5.37-3.12-8.06-4.66-.29-.2-.77-.34-.74-.77V39.47a.52.52,0,0,1,.79-.49c.69.35,1.36.69,2,1.07.34.18.21.59.24.9V47.3c2,1.17,4,2.36,6.06,3.51,2-1.17,4-2.34,6-3.48,0-2.2,0-4.41,0-6.61-1.24-.73-2.51-1.42-3.74-2.18-.29-.14-.22-.51-.24-.78,0-.71,0-1.41,0-2.1v0Z" fill="#6b7688"/><path d="M22.87,41.25c.29,0,.54.16.8.28.55.3,1.12.56,1.65.89.23.13.16.42.19.63,0,.75,0,1.52,0,2.28a.5.5,0,0,1-.75.38c-.69-.34-1.37-.69-2-1.07-.29-.15-.26-.5-.26-.77,0-.71,0-1.43,0-2.13a.51.51,0,0,1,.42-.5Z" fill="#6b7688"/><path d="M55.85,48.65c1.49-.1,3,0,4.47,0-1.46,1.86-3,3.68-4.49,5.52a19,19,0,0,0-1.24,1.57c1.69,0,3.36,0,5,0a15.41,15.41,0,0,1,3.11.14,6.87,6.87,0,0,1,4.68,3.39,6.62,6.62,0,0,1,.67,4.24,15.28,15.28,0,0,1-.45,1.64H71a3.5,3.5,0,0,0,2.28-.64A3.36,3.36,0,0,0,74.35,62c0-2.08,0-4.16,0-6.25h4.21v6.51a7.52,7.52,0,0,1-.41,2.87,5.63,5.63,0,0,1-2.6,2.9A9.24,9.24,0,0,1,71,69H41.35c-1.52,1.78-3,3.62-4.47,5.42-.16.21-.43.13-.66.15H32c1.46-1.9,3.06-3.68,4.49-5.58a8.56,8.56,0,0,1-5.29-2.43,7.68,7.68,0,0,1,.16-10.88A8.61,8.61,0,0,1,43.47,56a7.59,7.59,0,0,1,1.91,6,8.51,8.51,0,0,1-1,3.08H61.14a2.67,2.67,0,0,0,1.7-.53A2.92,2.92,0,0,0,62.77,60a2.52,2.52,0,0,0-1.51-.48H49.45c0-1-.05-2,0-3.08a11.45,11.45,0,0,1,1-1.22c1.81-2.2,3.59-4.44,5.43-6.62h0ZM36.27,57.22a3.74,3.74,0,0,0-2.55,2.25,4.38,4.38,0,0,0,1.19,5,3.85,3.85,0,0,0,4.92-.23,4.32,4.32,0,0,0-.4-6.44,3.77,3.77,0,0,0-3.16-.57Z" fill="#6b7688"/><path d="M101.87,52.09a2.13,2.13,0,1,1-1.56,2.49,2.12,2.12,0,0,1,1.56-2.47Z" fill="#6b7688"/><path d="M84.3,55.67a8.46,8.46,0,0,1,6.28-2.29,8.34,8.34,0,0,1,6.06,2.91,7.77,7.77,0,0,1,.68,8.84h6.79a3.65,3.65,0,0,0,2.2-.56A3.32,3.32,0,0,0,107.47,62c0-2.08,0-4.15,0-6.23h4.22c0,2.08,0,4.15,0,6.23a6.72,6.72,0,0,1-1.16,4.45A7.33,7.33,0,0,1,104.76,69c-3.5,0-7,0-10.5,0-1.53,1.85-3,3.69-4.52,5.53-1.59,0-3.19,0-4.78,0,1.51-1.87,3-3.7,4.54-5.58a8.29,8.29,0,0,1-5.66-2.79,7.69,7.69,0,0,1,.48-10.48Zm5.11,1.49a3.74,3.74,0,0,0-2.64,2.05,4.35,4.35,0,0,0,1.14,5.26,3.8,3.8,0,0,0,4.9-.3,4.32,4.32,0,0,0-.46-6.42,3.74,3.74,0,0,0-2.94-.59Z" fill="#6b7688"/><path d="M68.8,71.38a2.12,2.12,0,1,1,.85,4.16,2.12,2.12,0,0,1-.85-4.16Z" fill="#6b7688"/><path d="M30.81,80.7c1.52-1.41,3.67-1.65,5.67-1.62s3.94.3,5.35,1.67a5.73,5.73,0,0,1,1.7,4.15v9.27c-1.37,0-2.77,0-4.15,0,0-2.78,0-5.57,0-8.34a3.11,3.11,0,0,0-1.33-2.77A3.83,3.83,0,0,0,34.68,83a3.08,3.08,0,0,0-1.47,2.85v8.31c-1.38.08-2.77,0-4.15,0,0-3,0-6.09,0-9.14a5.89,5.89,0,0,1,1.74-4.35v0Z" fill="#6b7688"/><path d="M68.06,79.48a9.22,9.22,0,0,1,6.77.48,6.75,6.75,0,0,1,3.75,4.62,8.63,8.63,0,0,1-.68,5.87,7.77,7.77,0,0,1-5.14,3.94,8.43,8.43,0,0,1-5.63-.67c0,2,0,4,0,6-1.38,0-2.76,0-4.12,0V87.18a11.15,11.15,0,0,1,.61-3.93,6.39,6.39,0,0,1,4.46-3.77Zm2.32,3.18a3.65,3.65,0,0,0-2.72,1.84,4.5,4.5,0,0,0,1.12,5.71,3.66,3.66,0,0,0,4.67-.45,4.6,4.6,0,0,0,.29-5.71,3.67,3.67,0,0,0-3.36-1.39Z" fill="#6b7688"/><path d="M83.53,80.94A8.73,8.73,0,0,1,90,79.13a10.27,10.27,0,0,1,4.68,1.31l-1.78,3.11a7.22,7.22,0,0,0-3.69-.86A3.76,3.76,0,0,0,86.16,85a4.74,4.74,0,0,0,0,3.36,3.75,3.75,0,0,0,3.23,2.39,6.82,6.82,0,0,0,3.52-.88c.68,1,1.24,2.09,1.83,3.14A10.55,10.55,0,0,1,90,94.55a8.85,8.85,0,0,1-7.65-3.22,7.54,7.54,0,0,1,1.14-10.39Z" fill="#6b7688"/><path d="M102,79.18a8.71,8.71,0,0,1,5.78.83,8.14,8.14,0,0,1,3.7,5.07,7.49,7.49,0,0,1-5.95,9.28,8.77,8.77,0,0,1-6.57-1,7.65,7.65,0,0,1-3.64-5.08,7.86,7.86,0,0,1,.67-5,8,8,0,0,1,6-4.06Zm.53,3.54a3.88,3.88,0,0,0-2.61,2.16,4.42,4.42,0,0,0,1.23,5.23,3.88,3.88,0,0,0,5-.35,4.37,4.37,0,0,0-.46-6.43A3.87,3.87,0,0,0,102.54,82.72Z" fill="#6b7688"/><path d="M46,79.5c1.38,0,2.77,0,4.15,0,0,2.8,0,5.42,0,8.22a3,3,0,0,0,1.38,2.71,3.77,3.77,0,0,0,3.43,0,3.15,3.15,0,0,0,1.36-2.84V79.51c1.39,0,2.79,0,4.18,0,0,3.08,0,5.95,0,9A5.75,5.75,0,0,1,58.6,93a8.8,8.8,0,0,1-6.3,1.62,6.89,6.89,0,0,1-5.24-2.66,6.71,6.71,0,0,1-1-4.19V79.51Z" fill="#6b7688"/></svg>