<svg id="Layer_1" data-name="Layer 1" xmlns="http://www.w3.org/2000/svg" viewBox="0 0 120 120"><path d="M65.41,44.66a1.34,1.34,0,0,1,1.16.58l-.53.25a.9.9,0,0,0-.28-.27.89.89,0,0,0-.81.06.35.35,0,0,0-.18.3c0,.17.15.31.47.42l.43.14a1.78,1.78,0,0,1,.76.42.86.86,0,0,1,.25.61,1,1,0,0,1-.4.8,1.72,1.72,0,0,1-1.91.05,1.14,1.14,0,0,1-.45-.76l.66-.12a.83.83,0,0,0,.15.43.75.75,0,0,0,.59.22.77.77,0,0,0,.5-.16A.54.54,0,0,0,66,47a.57.57,0,0,0-.11-.16l-.19-.13a1.69,1.69,0,0,0-.28-.12L65,46.47c-.58-.2-.88-.49-.88-.89a.77.77,0,0,1,.37-.66,1.55,1.55,0,0,1,.93-.26" fill="#6b7688"/><polygon points="69.51 45.21 68 45.21 68 46.06 69.45 46.06 69.45 46.55 68 46.55 68 48.22 67.36 48.22 67.36 44.73 69.51 44.73 69.51 45.21" fill="#6b7688"/><path d="M71,47.73h.3a3.34,3.34,0,0,0,.7-.08,1.43,1.43,0,0,0,.51-.25,1.12,1.12,0,0,0,.49-.93,1.14,1.14,0,0,0-.48-.93,2.12,2.12,0,0,0-1.25-.33H71Zm-.65.49V44.73h.91a3.89,3.89,0,0,1,1,.11,1.83,1.83,0,0,1,.7.34,1.57,1.57,0,0,1,.41,2.19,1.6,1.6,0,0,1-.41.41,2,2,0,0,1-.7.35,3.81,3.81,0,0,1-1,.1Z" fill="#6b7688"/><path d="M76.3,46.88l-.64-1.19L75,46.88Zm.27.49H74.72l-.48.85h-.7l2.13-3.72,2.06,3.72H77Z" fill="#6b7688"/><path d="M62.27,28.36c-8.09-5.3-23.48,12.25-23.48,12.25v.64l4.75-4.61c9.31-8.13,13.68-3.49,13.68-3.49C63.94,40.41,36.82,58,36.82,58l.1.25C42.8,55.9,55,45.85,55,45.85c14-12.8,7.31-17.46,7.31-17.46" fill="#6b7688"/><path d="M85,31.05V30.8a150.74,150.74,0,0,0-17.41,7.31s-.63-5,8.44-7.68l0-.49s-12.51,2.69-12.85,11c0,0-13.43,9.95-8.63,16.28,0,0,3.87,4.85,15.11-1.62,0,0,7.55-4.61,10.19-6.82l0-.54S65.25,60.27,60.21,53,81.93,31.89,85,31.05" fill="#6b7688"/><path d="M67.34,21.59a3.5,3.5,0,1,0,3.49,3.49,3.49,3.49,0,0,0-3.49-3.49" fill="#6b7688"/><path d="M6.37,76.31c-.09-.1-.16-.18-.16-.54a1.36,1.36,0,0,1,1.36-1.26,2.44,2.44,0,0,1,.75.19l-.17.36a1.21,1.21,0,0,0-.58-.16c-.46,0-1,.38-1,.74s0,.39.12.5.42.16.83.16h.89l-.21.4h-2v-.39Z" fill="#6b7688"/><rect x="9.23" y="70.05" width="0.84" height="6.64" fill="#6b7688"/><path d="M16.65,75.51c0,2.71-1.1,3-3,3h-.93s-.23-.32-.54-.84c1.51,0,2.85.14,3.24-.44a2.55,2.55,0,0,0,.43-1.66c0-1.57-.59-2.9-2-2.87-.94,0-2,.42-2,2.18,0,.76.4,1,1.09,1h2.26l-.58.84H13.31c-1.73,0-2.35-.2-2.35-1.79a3,3,0,0,1,2.86-3c2.07,0,2.83,2,2.83,3.64" fill="#6b7688"/><path d="M17.83,76.7l-.43-.85h3.22c.89,0,1.42.06,1.74-.35a1.61,1.61,0,0,0,.28-1.12c0-.79-1.06-1.63-2.07-1.63-1.42,0-1.79.84-2.18,1.91H17.5s.12-.45.21-.71a2.88,2.88,0,0,1,2.86-2,3,3,0,0,1,3,2.74,2.85,2.85,0,0,1-.29,1.18h.93v.85Z" fill="#6b7688"/><polygon points="25.04 75.85 25.04 70.05 25.88 70.05 25.88 76.69 23.74 76.69 23.74 75.85 25.04 75.85" fill="#6b7688"/><rect x="27.02" y="70.05" width="0.84" height="6.64" fill="#6b7688"/><path d="M34.45,75.51c0,2.71-1.11,3-3.05,3h-.93s-.22-.32-.54-.84c1.51,0,2.84.14,3.25-.44a2.55,2.55,0,0,0,.43-1.66c0-1.57-.6-2.9-2-2.87-.93,0-2,.42-2,2.18,0,.76.4,1,1.09,1h2.25l-.57.84H31.11c-1.74,0-2.35-.2-2.35-1.79a2.94,2.94,0,0,1,2.85-3c2.07,0,2.83,2,2.83,3.64" fill="#6b7688"/><path d="M37.93,76.31c-.09-.1-.16-.18-.16-.54a1.36,1.36,0,0,1,1.37-1.26,2.43,2.43,0,0,1,.76.19l-.17.36a1.22,1.22,0,0,0-.59-.17c-.45,0-1,.39-1,.76s0,.39.12.5.41.16.83.16H40l-.21.39h-2v-.39Z" fill="#6b7688"/><rect x="40.79" y="70.05" width="0.84" height="6.64" fill="#6b7688"/><path d="M45.88,70.73a.57.57,0,0,1-.47.65h0a.58.58,0,1,1-.15-1.15.55.55,0,0,1,.63.48h0m-3.06,6-.43-.84h3.23c.88,0,1.41.07,1.73-.35a1.54,1.54,0,0,0,.28-1.12c0-.79-1.06-1.62-2.07-1.62-1.41,0-1.79.83-2.18,1.9H42.5s.12-.45.21-.71a2.86,2.86,0,0,1,2.85-2,3,3,0,0,1,3,2.75,2.84,2.84,0,0,1-.29,1.17h.92v.84Z" fill="#6b7688"/><path d="M52.51,70.62a.57.57,0,1,1-.64-.5.57.57,0,0,1,.64.5h0m2.39,3.77c0-.78-1-1.62-2.43-1.62-1,0-2.4.84-2.4,1.62,0,.62,0,.86.22,1.12s1.29.36,2.18.36,1.89.06,2.21-.36c.2-.26.22-.5.22-1.12m-6.17,1.46h.85c-.2-.2-.35-.37-.35-1.18a2.52,2.52,0,0,1,.92-1.9h-.87l.76-.84h2.73a3,3,0,0,1,3,2.74c0,.81-.15,1-.36,1.18h.85v.85h-7.5Z" fill="#6b7688"/><polygon points="57.24 75.85 57.24 70.07 58.08 70.07 58.08 75.85 59.14 75.85 59.14 76.7 55.93 76.69 55.93 75.85 57.24 75.85" fill="#6b7688"/><polygon points="60.15 75.85 60.15 70.05 60.99 70.05 60.99 76.69 58.84 76.69 58.84 75.85 60.15 75.85" fill="#6b7688"/><path d="M68.38,70.47a.59.59,0,0,1-.5.64A.57.57,0,0,1,67.73,70a.58.58,0,0,1,.65.49h0m-1.24,0a.56.56,0,0,1-.48.64h0a.58.58,0,0,1-.66-.47.59.59,0,0,1,.47-.67.58.58,0,0,1,.66.48v0m-2,3.92c0,.62-.06.88.15,1.14s1,.32,1.92.32h1.91c.71,0,.32-1.36.32-1.36-.4-1.07-.78-1.72-2.18-1.72-1,0-2.12.84-2.12,1.62m5.17-2.46v3.92H71v.85H65.63A1.92,1.92,0,0,1,64.57,76a1.88,1.88,0,0,1-.24-1.26,3,3,0,0,1,3-2.75,3.08,3.08,0,0,1,2.16.89v-.89Z" fill="#6b7688"/><path d="M74.57,74.13a2.22,2.22,0,0,1,.52,2.05,1.48,1.48,0,0,1-.29.59c-.29.4-.71.84-1.15.59-.68-.4-1.44-.82-1.44-.82l.13-.93a9.86,9.86,0,0,0,1.49.85s.46,0,.46-.88a1.12,1.12,0,0,0-1.07-1.17h-.14c-.72,0-.93.36-1.06,1s0,1-.56,1.25a1.22,1.22,0,0,1-.57.08h-.23v-.84h.23c.16,0,.33,0,.33-.13a1.88,1.88,0,0,1,2-2.1,1.93,1.93,0,0,1,1.33.51" fill="#6b7688"/><polygon points="78 76.69 75.86 76.69 75.86 70.05 76.69 70.05 76.69 75.85 78 75.85 78 76.69" fill="#6b7688"/><path d="M83.81,74.39c0-.78-1-1.62-2.42-1.62-1,0-2.41.84-2.41,1.62,0,.62,0,.86.22,1.12s1.29.36,2.18.36,1.89.06,2.21-.36c.2-.26.22-.5.22-1.12m-6.17,1.46h.86c-.21-.2-.36-.37-.36-1.18a2.56,2.56,0,0,1,.92-1.9H78.2l.75-.84h2.73a3,3,0,0,1,3,2.74c0,.81-.15,1-.36,1.18h.86v.85H77.64Z" fill="#6b7688"/><polygon points="86.15 75.85 86.15 70.05 86.99 70.05 86.99 76.69 84.84 76.69 84.84 75.85 86.15 75.85" fill="#6b7688"/><rect x="88.13" y="70.05" width="0.84" height="6.64" fill="#6b7688"/><path d="M96.13,70.47a.57.57,0,0,1-.52.62.57.57,0,1,1,.52-.67v0m-1.23,0a.57.57,0,0,1-.48.64h0a.59.59,0,0,1-.65-.49.58.58,0,0,1,1.14-.16h0m-2,3.92c0,.62,0,.88.15,1.14s1,.32,1.92.32h1.91c.71,0,.32-1.37.32-1.37-.39-1.06-.77-1.71-2.17-1.71-1,0-2.13.84-2.13,1.62m5.16-2.46v3.92h.67v.85H93.39A1.88,1.88,0,0,1,92.33,76c-.23-.41-.24-.46-.24-1.26a3,3,0,0,1,3-2.75,3.07,3.07,0,0,1,2.15.86v-.88Z" fill="#6b7688"/><path d="M99.47,72.19c-.06-.06-.12-.13-.12-.39a1,1,0,0,1,1-.9,1.78,1.78,0,0,1,.55.14l-.13.25a.79.79,0,0,0-.42-.12c-.33,0-.71.29-.71.55s0,.28.08.35.31.12.6.12h.64l-.15.26H99.33v-.26Zm.26,3.66V73.24h.83v2.61h1.07v.85H98.42v-.85Z" fill="#6b7688"/><path d="M103.94,77.71a.58.58,0,0,1-.49.64h0a.58.58,0,0,1-.17-1.14.58.58,0,0,1,.66.49h0m-1.23,0a.57.57,0,1,1-.65-.5.59.59,0,0,1,.65.49h0m-.2-1.86V73.24h.84v2.61h1.06v.85H101.2v-.85Z" fill="#6b7688"/><path d="M110.17,74.39c0-.73-1.19-1.61-2.13-1.61v3.07c.93,0,1.61,0,1.89-.35s.23-.51.23-1.12m-3-1.56a2,2,0,0,0-1.87,1.56c0,.65,0,.85.22,1.12s1.65.35,1.65.35Zm0-1.2.84-.39v.7a3,3,0,0,1,3,2.74c0,.81-.15,1-.35,1.18h.84v.85H104v-.85h.85c-.2-.2-.35-.37-.35-1.18A3,3,0,0,1,107.21,72Z" fill="#6b7688"/><polygon points="112.47 75.85 112.47 70.05 113.31 70.05 113.31 76.69 111.16 76.69 111.16 75.85 112.47 75.85" fill="#6b7688"/><rect x="114.45" y="70.05" width="0.84" height="6.64" fill="#6b7688"/><path d="M9.84,82.63l-.67.4a1.13,1.13,0,0,0-.35-.43.94.94,0,0,0-1,.08.62.62,0,0,0-.23.49c0,.27.2.48.6.65L8.7,84a2.37,2.37,0,0,1,1,.66,1.52,1.52,0,0,1,.3,1,1.68,1.68,0,0,1-.5,1.26,1.78,1.78,0,0,1-1.28.5A1.68,1.68,0,0,1,7,87a2,2,0,0,1-.58-1.2l.84-.18a1.41,1.41,0,0,0,.2.66.86.86,0,0,0,.75.35.85.85,0,0,0,.65-.26.94.94,0,0,0,.21-1A.77.77,0,0,0,9,85.16,1.21,1.21,0,0,0,8.72,85l-.36-.19-.53-.2A1.54,1.54,0,0,1,6.7,83.14a1.34,1.34,0,0,1,.47-1,1.72,1.72,0,0,1,1.19-.4,1.64,1.64,0,0,1,1.48.93" fill="#6b7688"/><path d="M11.78,85.56a1.26,1.26,0,0,0,.27.81.89.89,0,0,0,.69.32,1,1,0,0,0,.71-.31,1.31,1.31,0,0,0,0-1.61.92.92,0,0,0-.71-.31.88.88,0,0,0-.69.31,1.19,1.19,0,0,0-.27.79m1.92-1.72h.8v3.49h-.8V87a1.56,1.56,0,0,1-2.2,0l-.07-.08A1.93,1.93,0,0,1,11,85.56a1.86,1.86,0,0,1,.47-1.31,1.51,1.51,0,0,1,2.27,0Z" fill="#6b7688"/><path d="M16.9,83.85v2c0,.57.23.86.69.86s.68-.29.68-.86v-2h.81v2a2.15,2.15,0,0,1-.11.71,1.14,1.14,0,0,1-.35.49,1.72,1.72,0,0,1-2.08,0,1.33,1.33,0,0,1-.35-.49,1.91,1.91,0,0,1-.1-.71v-2Z" fill="#6b7688"/><path d="M21.18,85.56a1.2,1.2,0,0,0,.27.81.87.87,0,0,0,.71.32.9.9,0,0,0,.7-.31,1.31,1.31,0,0,0,0-1.61.94.94,0,0,0-1.33-.08.3.3,0,0,0-.08.08,1.19,1.19,0,0,0-.27.79m1.91-4.28h.82v6h-.82V87a1.52,1.52,0,0,1-1.06.46,1.55,1.55,0,0,1-1.19-.52,1.89,1.89,0,0,1-.47-1.36,1.82,1.82,0,0,1,.47-1.3A1.49,1.49,0,0,1,23,84.09a1,1,0,0,1,.15.14Z" fill="#6b7688"/><path d="M26.2,87.33h-.8V83.85h.8Zm-.92-4.92a.51.51,0,0,1,.52-.52.52.52,0,0,1,.52.52.51.51,0,0,1-.15.35.49.49,0,0,1-.36.15.52.52,0,0,1-.52-.52h0" fill="#6b7688"/><polygon points="33.31 82.59 31.38 82.59 31.38 83.91 33.23 83.91 33.23 84.7 31.38 84.7 31.38 87.32 30.56 87.32 30.56 81.81 33.31 81.81 33.31 82.59" fill="#6b7688"/><path d="M35.35,85.56a1.11,1.11,0,0,0,.28.82,1.08,1.08,0,0,0,1.51,0,1.32,1.32,0,0,0,0-1.62,1,1,0,0,0-.76-.3,1,1,0,0,0-.74.3,1.13,1.13,0,0,0-.29.8m-.81,0a1.67,1.67,0,0,1,.54-1.28,1.86,1.86,0,0,1,2.64,2.61,1.86,1.86,0,0,1-1.34.53,1.75,1.75,0,0,1-1.31-.54,1.82,1.82,0,0,1-.53-1.32" fill="#6b7688"/><path d="M40.19,85.56a1.11,1.11,0,0,0,.28.82,1.07,1.07,0,0,0,1.5,0,1.29,1.29,0,0,0,0-1.62,1.09,1.09,0,0,0-1.5,0,1.12,1.12,0,0,0-.28.8m-.83,0a1.74,1.74,0,0,1,.54-1.28,1.88,1.88,0,0,1,2.64,0,1.84,1.84,0,0,1-1.33,3.14,1.74,1.74,0,0,1-1.31-.54,1.79,1.79,0,0,1-.54-1.32" fill="#6b7688"/><path d="M45.17,85.56a1.19,1.19,0,0,0,.26.81.9.9,0,0,0,.71.32,1,1,0,0,0,.71-.31,1.34,1.34,0,0,0,0-1.61.92.92,0,0,0-.71-.31.89.89,0,0,0-.71.31,1.18,1.18,0,0,0-.26.79m1.91-4.28h.8v6h-.8V87a1.52,1.52,0,0,1-1.06.46,1.56,1.56,0,0,1-1.21-.54,2.11,2.11,0,0,1,0-2.63,1.5,1.5,0,0,1,2.12-.17c0,.05.1.09.15.15Z" fill="#6b7688"/><path d="M53.73,83.66l.07,0c.11-.09.21-.16.28-.23a1.29,1.29,0,0,0,.17-.16.57.57,0,0,0,.11-.33.47.47,0,0,0-.15-.35.52.52,0,0,0-.39-.14.57.57,0,0,0-.38.14.44.44,0,0,0-.15.35.71.71,0,0,0,.19.48l.2.25,0,.06m-.18,1.06,0,0a3.94,3.94,0,0,0-.71.57.72.72,0,0,0-.18.46.94.94,0,0,0,.9.9,1.73,1.73,0,0,0,1.11-.63Zm.66-.47,1,1.2,0,0a3.27,3.27,0,0,0,.3-.35c.1-.12.19-.22.28-.35l.54.55a2.82,2.82,0,0,1-.26.34l-.39.43,1,1.28h-1l-.55-.68a2.23,2.23,0,0,1-1.58.79A1.79,1.79,0,0,1,52.32,87a1.61,1.61,0,0,1-.5-1.17,1.63,1.63,0,0,1,.79-1.39l.35-.24h0l.06,0A1.66,1.66,0,0,1,52.49,83a1.19,1.19,0,0,1,.35-.91,1.48,1.48,0,0,1,1.9,0,1.2,1.2,0,0,1,.15,1.51,3.51,3.51,0,0,1-.73.71" fill="#6b7688"/><path d="M61.35,86.54h.38a3.25,3.25,0,0,0,.93-.12,1.88,1.88,0,0,0,1.28-1.86,1.9,1.9,0,0,0-.6-1.46,2.33,2.33,0,0,0-1.62-.51h-.38Zm-.82.79V81.81h1.15A4.19,4.19,0,0,1,63,82a2.41,2.41,0,0,1,.94.55,2.6,2.6,0,0,1,.86,2A2.68,2.68,0,0,1,63,87.17a4.06,4.06,0,0,1-1.3.15Z" fill="#6b7688"/><path d="M66.12,83.85h.81v.29a1.3,1.3,0,0,1,.39-.31.87.87,0,0,1,.42-.1,1.32,1.32,0,0,1,.66.21l-.36.74a.77.77,0,0,0-.44-.17c-.44,0-.66.33-.66,1v1.82h-.8Z" fill="#6b7688"/><path d="M70.36,83.85v2c0,.57.23.86.68.86s.69-.29.69-.86v-2h.81v2a2.45,2.45,0,0,1-.11.71,1.14,1.14,0,0,1-.35.49,1.71,1.71,0,0,1-2.08,0,1.23,1.23,0,0,1-.35-.49,1.91,1.91,0,0,1-.1-.71v-2Z" fill="#6b7688"/><path d="M76.53,85.59a1.17,1.17,0,0,0-.27-.81.89.89,0,0,0-.71-.31.85.85,0,0,0-.71.35,1.42,1.42,0,0,0,0,1.56.85.85,0,0,0,.71.33.87.87,0,0,0,.73-.33,1.21,1.21,0,0,0,.25-.78m.76,1.66c0,.16,0,.3,0,.43s0,.24,0,.33a1.45,1.45,0,0,1-.35.67,1.64,1.64,0,0,1-1.3.55,1.73,1.73,0,0,1-1.15-.38,1.53,1.53,0,0,1-.53-1.06h.8a1,1,0,0,0,.16.4.86.86,0,0,0,.73.32c.59,0,.88-.36.88-1.08v-.51a1.52,1.52,0,0,1-2.25,0,1.94,1.94,0,0,1-.46-1.31,2,2,0,0,1,.43-1.29,1.48,1.48,0,0,1,1.21-.57,1.42,1.42,0,0,1,1.09.5v-.39h.8Z" fill="#6b7688"/><path d="M84.6,85.2l-.82-1.88-.85,1.88ZM85,86H82.58L82,87.33h-.9l2.71-5.87,2.65,5.87h-.91Z" fill="#6b7688"/><path d="M88.2,83.85v2c0,.57.23.86.69.86s.68-.29.68-.86v-2h.81v2a2.15,2.15,0,0,1-.11.71,1.14,1.14,0,0,1-.35.49,1.71,1.71,0,0,1-2.08,0,1.23,1.23,0,0,1-.35-.49,1.91,1.91,0,0,1-.1-.71v-2Z" fill="#6b7688"/><polygon points="92.85 84.59 92.85 87.32 92.04 87.32 92.04 84.59 91.7 84.59 91.7 83.85 92.04 83.85 92.04 82.56 92.85 82.56 92.85 83.85 93.47 83.85 93.47 84.59 92.85 84.59" fill="#6b7688"/><path d="M94.55,81.29h.81v2.83a1.45,1.45,0,0,1,1-.39,1.22,1.22,0,0,1,.94.41,1.62,1.62,0,0,1,.3,1.06v2.13h-.81V85.26a1,1,0,0,0-.14-.6.56.56,0,0,0-.48-.19.67.67,0,0,0-.6.26,1.76,1.76,0,0,0-.16.91v1.69h-.81Z" fill="#6b7688"/><path d="M99.61,85.56a1.22,1.22,0,0,0,.28.82,1.07,1.07,0,0,0,1.51,0,1.32,1.32,0,0,0,0-1.62,1,1,0,0,0-.75-.3,1,1,0,0,0-.75.3,1.18,1.18,0,0,0-.29.8m-.82,0a1.71,1.71,0,0,1,.54-1.28,1.9,1.9,0,0,1,2.64,0,1.84,1.84,0,0,1-1.34,3.14,1.77,1.77,0,0,1-1.31-.54,1.82,1.82,0,0,1-.53-1.32" fill="#6b7688"/><path d="M103.84,83.85h.81v.29a1.48,1.48,0,0,1,.39-.31.86.86,0,0,1,.41-.1,1.32,1.32,0,0,1,.67.21l-.36.74a.8.8,0,0,0-.45-.17c-.43,0-.65.33-.65,1v1.82h-.81Z" fill="#6b7688"/><path d="M108,87.33h-.81V83.85h.8Zm-.92-4.92a.51.51,0,0,1,.51-.52A.54.54,0,0,1,108,82a.51.51,0,0,1,.15.35.51.51,0,0,1-.15.36.49.49,0,0,1-.36.15.47.47,0,0,1-.35-.15.5.5,0,0,1-.15-.38" fill="#6b7688"/><polygon points="110.27 84.59 110.27 87.32 109.46 87.32 109.46 84.59 109.12 84.59 109.12 83.85 109.46 83.85 109.46 82.56 110.27 82.56 110.27 83.85 110.89 83.85 110.89 84.59 110.27 84.59" fill="#6b7688"/><polygon points="113.17 86.68 111.61 83.85 112.54 83.85 113.61 85.85 114.6 83.85 115.5 83.85 112.73 89.22 111.82 89.22 113.17 86.68" fill="#6b7688"/><rect x="6.21" y="79.91" width="108.99" height="0.26" fill="#6b7688"/></svg>