<svg id="Layer_1" data-name="Layer 1" xmlns="http://www.w3.org/2000/svg" viewBox="0 0 120 120"><path d="M24.83,66.21a2.56,2.56,0,0,1,.92-.06l-.86.47.84,0c0,.11,0,.33,0,.44l-1.25,0c.1-.29.05-.7.36-.88" fill="#6b7688"/><path d="M100.31,66.26c.35-.41.68.16.74.5-.35.13-1.22,0-.74-.5" fill="#6b7688"/><path d="M26.54,66.44H27.7v.78l-.37.06c0,1,.06,2,0,3a1.21,1.21,0,0,1-1,1.07,13.33,13.33,0,0,1-2.19.08c0-.27,0-.53,0-.8.77-.11,1.87.33,2.38-.42.16-1.24,0-2.51.07-3.76" fill="#6b7688"/><path d="M11.37,67.18c-.06-.55.51-.4.86-.38,0,.25,0,.5,0,.75-.29-.08-.87.09-.82-.37" fill="#6b7688"/><path d="M12.71,66.86c.4-.44,1.1.24.63.62s-1.1-.23-.63-.62" fill="#6b7688"/><path d="M28.68,66.84h.84c0,1.53,0,3,0,4.58h-.83Z" fill="#6b7688"/><path d="M37.19,66.84H38v3.78h1A2.32,2.32,0,0,1,39.63,69a1.71,1.71,0,1,1,1.59,2.9,2.11,2.11,0,0,1-1.7-.45c-.77,0-1.55,0-2.33-.06Zm3.38,2.53A.94.94,0,0,0,40.35,71a.91.91,0,1,0,.22-1.67" fill="#6b7688"/><path d="M47.86,67.46c.14-.3.32-.79.75-.62a.42.42,0,0,1,.1.78c-.28.13-.58-.09-.85-.16" fill="#6b7688"/><path d="M51.16,66.84H52c0,1.26,0,2.52,0,3.78h1.15V66.84h1.22c-.05.36-.05.77-.42,1,0,1.2,0,2.41,0,3.62-3.67,0-7.34,0-11,0l0-.8h2a6.93,6.93,0,0,0-.09-1.2c-.13-.37-.6-.34-.9-.47,0-.19,0-.57,0-.76.54.09,1.23.07,1.55.62a4.24,4.24,0,0,1,.2,1.81c1.23,0,2.45,0,3.67,0,0-.5.18-1.18-.3-1.52s-1-.06-1.45,0c-.11-.22-.22-.45-.32-.67a2.21,2.21,0,0,1,2.34.07,2.35,2.35,0,0,1,.53,2.11h1c0-1.26,0-2.52,0-3.78" fill="#6b7688"/><path d="M57.2,67.18c-.07-.49.5-.42.83-.42l0,.73c-.3,0-.92.18-.87-.31" fill="#6b7688"/><path d="M58.54,66.87c.32-.42,1,.1.71.49s-1.25,0-.71-.49" fill="#6b7688"/><path d="M80.4,66.84h1.24c0,.36-.06.76-.41,1,0,1.2,0,2.41,0,3.61a4.41,4.41,0,0,1-2.25-.3,2,2,0,0,1-2.34,0,3.15,3.15,0,0,1-1.12.33c-2.3,0-4.61,0-6.91.06-.18.38-.27.88-.7,1a3.1,3.1,0,0,1-1.63.07l0-.81a2.47,2.47,0,0,0,1.65-.18,9.09,9.09,0,0,1-1.53-.49,1.53,1.53,0,0,1-.15-2.4,3.43,3.43,0,0,1,2.36-.47v2.38h1.33l-.72-1.8a3.22,3.22,0,0,1,1.7-.79,2.89,2.89,0,0,1,1.83.78L72,70.62h2.16v-2.1H75c0,.72,0,1.43,0,2.15.38-.08.88,0,1.17-.31a8.91,8.91,0,0,0,.14-1.87l.78.08a10.24,10.24,0,0,0,.05,1.66c.11.59,1.15.64,1.27,0a21.54,21.54,0,0,0,0-2.41h.82c0,.89,0,1.78,0,2.67.38,0,.77.11,1.16.15,0-1.27,0-2.55,0-3.82m-13.89,3c0,.65.73.71,1.21.8,0-.58,0-1.15,0-1.73-.5.11-1.27.25-1.2.93m3.57-.8c.17.52.34,1,.52,1.53h.69l.51-1.53a2.32,2.32,0,0,0-1.72,0" fill="#6b7688"/><path d="M82.52,66.84h.82v4.58h-.82V66.84" fill="#6b7688"/><path d="M86.56,66.87a.45.45,0,0,1,.75.48c-.31.5-1.29,0-.75-.48" fill="#6b7688"/><path d="M87.61,67.17c.1-.3.32-.53.66-.43s.26.5.34.76c-.36,0-.91.17-1-.33" fill="#6b7688"/><path d="M90.15,66.85l.88,0-.87,1.66a6.92,6.92,0,0,1,2.57.22c.85.61.52,1.82.6,2.72-1.76,0-3.51,0-5.26,0a3.27,3.27,0,0,1-1.64-.29,1.56,1.56,0,0,1-.15-2.47,3,3,0,0,1,1.35-.47l.25-.23h.71v2.65h3.94c-.11-.41.09-1.13-.44-1.26a22.19,22.19,0,0,0-2.71-.08c-.34-.91.39-1.66.77-2.43m-3.6,3c0,.64.74.71,1.23.79,0-.57,0-1.15,0-1.73-.49.13-1.28.25-1.22.94" fill="#6b7688"/><path d="M104.35,66.84h1.21c-.06.36-.07.75-.41,1,0,1.21,0,2.43,0,3.64a4,4,0,0,1-2.25-.32,2,2,0,0,1-2.34,0,2.93,2.93,0,0,1-1.27.34c-1.28,0-2.56,0-3.85,0a4,4,0,0,1-.39,1c-.33.28-.81.21-1.21.28l-.06-.76c.26-.07.5-.15.75-.24.12-1.15,0-2.3,0-3.46h.8c0,.79,0,1.59,0,2.38h2.7v-2.1h.81c0,.72,0,1.45,0,2.16.39-.08.9,0,1.18-.34a9.12,9.12,0,0,0,.09-1.81H101a11.9,11.9,0,0,0,.15,2.06c.37,0,.79.19,1.12-.08a11.72,11.72,0,0,0,.11-2.65h.84c0,.89,0,1.77,0,2.66l1.17.16c0-1.27,0-2.55,0-3.82" fill="#6b7688"/><path d="M106.46,66.84h.79c0,1.52,0,3,0,4.57l-.79,0c0-1.54,0-3.08,0-4.62" fill="#6b7688"/><path d="M99.55,67a2.11,2.11,0,0,1,.83,0,3,3,0,0,1,0,.6,6.48,6.48,0,0,1-.76.06c0-.23,0-.46,0-.69" fill="#6b7688"/><path d="M100.88,67.07c.25-.27.83-.11.69.31.08.78-1.36.16-.69-.31" fill="#6b7688"/><path d="M18.89,67.6c0-.48.49-.44.81-.34.05.24.1.48.13.73-.33,0-1,.13-.94-.39" fill="#6b7688"/><path d="M33,67.76c-.13-.55.54-.46.88-.51a6.15,6.15,0,0,1-.09.75c-.28.09-.74.16-.79-.24" fill="#6b7688"/><path d="M34.25,67.26a5.53,5.53,0,0,1,.7.07c.08.21.16.44.22.66l-.92.06v-.79" fill="#6b7688"/><path d="M24.88,67.37h.78v3h-.78c0-1,0-2,0-3" fill="#6b7688"/><path d="M12.61,68.2c0-.06.14-.19.18-.26h.73v2.67h1.55V68.24h.82c0,.79,0,1.59,0,2.38h1.48V68.25l.66,0,.22.29a6.82,6.82,0,0,1,2.55.21c.87.58.53,1.8.6,2.69-2.78,0-5.56,0-8.34,0a3.27,3.27,0,0,1-1.77-.33,1.56,1.56,0,0,1-.16-2.36,2.78,2.78,0,0,1,1.49-.54m-1.16,1.69c0,.63.76.72,1.25.8,0-.58,0-1.15,0-1.73-.5.12-1.29.25-1.24.93m6.72-.55v1.28h2.44c-.09-.4.05-.92-.31-1.2a10.13,10.13,0,0,0-2.13-.08" fill="#6b7688"/><path d="M58.42,68.2l.2-.23h.74v2.64h1.55c0-.8,0-1.59,0-2.38h.8c0,1.05,0,2.12,0,3.18h-3a2.72,2.72,0,0,1-1.59-.35A1.55,1.55,0,0,1,57,68.74a2.83,2.83,0,0,1,1.47-.54m-1.15,1.7c.09.61.76.7,1.26.79V69c-.53.12-1.25.25-1.26.94" fill="#6b7688"/><path d="M22.61,68.24h.81c0,.94,0,1.88,0,2.82a2.21,2.21,0,0,1-.32,1.34c-.33.3-.81.23-1.21.3,0-.26-.06-.51-.08-.77.27-.12.82,0,.77-.48.06-1.07,0-2.14,0-3.21" fill="#6b7688"/><path d="M35.33,68.24h.82v3.18c-1,0-2,0-3,0a1.32,1.32,0,0,1-1.2-1,9.44,9.44,0,0,1-.06-1.68h.78c.08.57-.17,1.35.35,1.76a7.76,7.76,0,0,0,2.31.14V68.24" fill="#6b7688"/><path d="M63.36,68.19c.55.09,1.28.08,1.57.67a7.84,7.84,0,0,1,.2,2.56c-.94,0-1.88,0-2.81,0,0-.26,0-.53.07-.79h1.94a6.52,6.52,0,0,0-.1-1.25c-.17-.32-.6-.29-.89-.41,0-.26,0-.51,0-.77" fill="#6b7688"/><path d="M14.51,71.92c.41-.45,1.11.31.63.61s-1.1-.24-.63-.61" fill="#6b7688"/><path d="M15.64,72.5c0-.28-.07-.7.34-.66.48-.13.51.4.56.73a2.72,2.72,0,0,1-.9-.07" fill="#6b7688"/><path d="M59.85,72.52c.09-.31.16-.7.55-.76a.49.49,0,0,1,.34.77,1.91,1.91,0,0,1-.89,0" fill="#6b7688"/><path d="M61.28,71.92a.49.49,0,0,1,.78.51,2.19,2.19,0,0,1-.87.22,4.55,4.55,0,0,1,.09-.73" fill="#6b7688"/><path d="M10.85,75a3.25,3.25,0,0,1,2.74.08l-.32.74a2.86,2.86,0,0,0-1.79-.22c-.3.06-.48.52-.21.71.66.43,1.58.35,2.11,1a1.25,1.25,0,0,1-.31,1.87,3.54,3.54,0,0,1-2.92,0c.09-.25.18-.5.26-.74a3.41,3.41,0,0,0,2,.18.47.47,0,0,0,.14-.85c-.58-.32-1.28-.34-1.83-.71a1.23,1.23,0,0,1,.09-2" fill="#6b7688"/><path d="M29.64,75.08a3.58,3.58,0,0,1,3,0c-.11.24-.22.48-.32.73a2.72,2.72,0,0,0-2.2-.07,1.67,1.67,0,0,0,0,2.74,2.42,2.42,0,0,0,1.76.07c0-.29,0-.58,0-.87h-1v-.79h1.83c0,.75,0,1.49,0,2.23a3.79,3.79,0,0,1-3,0,2.47,2.47,0,0,1,0-4.1" fill="#6b7688"/><path d="M49.48,74.82h.79c0,1.51,0,3,0,4.55a3.68,3.68,0,0,1-2.41-.2,1.68,1.68,0,0,1-.13-2.66,2.64,2.64,0,0,1,1.76-.42V74.82m-1,2.16a.89.89,0,0,0-.07,1.61,4.39,4.39,0,0,0,1,.11V76.91a5.17,5.17,0,0,0-1,.07" fill="#6b7688"/><path d="M53.26,75.09a3.13,3.13,0,0,1,2.84,0c-.11.25-.21.5-.31.75-.61-.18-1.32-.51-1.93-.16a.41.41,0,0,0-.08.64c.64.39,1.47.37,2,.88a1.27,1.27,0,0,1-.21,2,3.62,3.62,0,0,1-2.92,0c.08-.25.16-.5.25-.75a3.41,3.41,0,0,0,2,.18.48.48,0,0,0,.13-.86A16,16,0,0,1,53.28,77a1.22,1.22,0,0,1,0-1.93" fill="#6b7688"/><path d="M81.09,75.08a3.26,3.26,0,0,1,2.86,0l-.31.75a2.46,2.46,0,0,0-1.93-.14,1.65,1.65,0,0,0,0,2.86,2.5,2.5,0,0,0,1.91-.14c.1.25.2.51.31.76a3.39,3.39,0,0,1-2.82,0,2.47,2.47,0,0,1,0-4.09" fill="#6b7688"/><path d="M23.66,74.83h.83v4.52A3.4,3.4,0,0,1,22,79.14a1.7,1.7,0,0,1,0-2.66,2.81,2.81,0,0,1,1.71-.38c0-.42,0-.85,0-1.27m-1.11,2.23a1,1,0,0,0-.28,1.2c.28.49.91.39,1.39.44,0-.6,0-1.21,0-1.81a3.16,3.16,0,0,0-1.1.17" fill="#6b7688"/><path d="M25.25,75.63c0-.56.57-1,1-.51.18.66-.58.68-1,.51" fill="#6b7688"/><path d="M66.65,75c.63-.48,1.06.73.35.77-.47.16-.78-.58-.35-.77" fill="#6b7688"/><path d="M14.66,76.33c.74-.32,1.89-.4,2.35.4a8.92,8.92,0,0,1,.15,2.53,3.45,3.45,0,0,1-2.45,0,1,1,0,0,1-.1-1.61,3.19,3.19,0,0,1,1.78-.31l-.19-.39a4.8,4.8,0,0,0-1.77.19c.07-.27.14-.54.23-.8m.44,1.85c-.19.73.76.5,1.21.58,0-.27,0-.53,0-.8a2.68,2.68,0,0,0-1.22.22" fill="#6b7688"/><path d="M37.11,76.2a1.73,1.73,0,0,1,2.25,2,1.77,1.77,0,0,1-3,.71,1.7,1.7,0,0,1,.76-2.71m.37.72A.91.91,0,0,0,37,78.41a.89.89,0,1,0,.47-1.49" fill="#6b7688"/><path d="M43.66,76.26c.91-.07,2.2-.49,2.77.48a10.48,10.48,0,0,1,.13,2.69h-.79A12.55,12.55,0,0,0,45.64,77l-1.17,0c0,.83,0,1.67,0,2.51h-.8c0-1,0-2.11,0-3.16" fill="#6b7688"/><path d="M56.92,78.79a1.7,1.7,0,0,1,1.37-2.68c1.09-.09,1.69,1,1.73,2-.89,0-1.79,0-2.68.05.29.23.54.58,1,.58a4.6,4.6,0,0,0,1.15-.23c.1.24.21.48.32.72-.92.36-2.19.53-2.85-.4m.44-1.43a14.43,14.43,0,0,0,1.86,0c-.28-.22-.53-.56-.93-.55s-.64.34-.93.55" fill="#6b7688"/><path d="M68.79,76.33a2.55,2.55,0,0,1,2,0c-.11.23-.21.47-.32.7a3.66,3.66,0,0,0-1.09-.09.92.92,0,0,0-.21,1.62c.4.25.88,0,1.3,0,.11.23.21.47.31.71a2.56,2.56,0,0,1-2,0,1.71,1.71,0,0,1,0-3" fill="#6b7688"/><path d="M71.42,78.81a1.7,1.7,0,0,1,1.38-2.7c1.09-.08,1.66,1,1.72,2-.9,0-1.79,0-2.69.05a1.69,1.69,0,0,0,2.11.35c.11.24.21.48.33.72-.93.36-2.19.53-2.85-.38m.44-1.45a12.7,12.7,0,0,0,1.85,0c-.28-.21-.54-.55-.93-.54s-.64.34-.92.55" fill="#6b7688"/><path d="M75.52,76.29a3.15,3.15,0,0,1,2.22.07l-.29.75a4.48,4.48,0,0,0-1.5-.19l-.08.31c.49.19,1,.24,1.49.47a.91.91,0,0,1,0,1.57,3.27,3.27,0,0,1-2.44-.06c.08-.26.17-.52.26-.78a2.12,2.12,0,0,0,2,0,18.87,18.87,0,0,1-1.78-.64.89.89,0,0,1,.16-1.49" fill="#6b7688"/><path d="M85.42,76.18A1.72,1.72,0,0,1,87.65,78a1.75,1.75,0,0,1-2.92,1,1.7,1.7,0,0,1,.69-2.84m.22.77a.91.91,0,0,0-.2,1.59.89.89,0,1,0,.2-1.59" fill="#6b7688"/><path d="M88.3,76.27a5.27,5.27,0,0,1,2.27,0c.73-.1,1.7-.38,2.22.33a8.41,8.41,0,0,1,.2,2.84h-.81a15.73,15.73,0,0,0-.05-2.17C92,76.76,91.39,77,91,77c0,.82.06,1.65,0,2.48h-.82A5.86,5.86,0,0,0,90,77a5.7,5.7,0,0,0-.92-.07c0,.83,0,1.67,0,2.51H88.3V76.27" fill="#6b7688"/><path d="M93.82,76.24a3.91,3.91,0,0,1,2.3.1,1.7,1.7,0,0,1,.11,2.87,3.32,3.32,0,0,1-1.62.29v1.17h-.79Zm.84.65c0,.6-.06,1.2-.06,1.81.42,0,.91,0,1.27-.24a1,1,0,0,0,.12-1.2c-.31-.42-.88-.31-1.33-.37" fill="#6b7688"/><path d="M97.83,76.29c.78-.17,1.88-.41,2.38.4a9.34,9.34,0,0,1,.15,2.59,3.47,3.47,0,0,1-2.48,0,1,1,0,0,1,.11-1.7,7.09,7.09,0,0,1,1.73-.26c-.58-.58-1.37-.33-2-.13,0-.29.1-.57.15-.85m.38,2.12c.31.45.89.31,1.36.32,0-.19,0-.58,0-.77-.47,0-1.09-.07-1.34.45" fill="#6b7688"/><path d="M101.18,76.26c.9-.07,2.12-.47,2.75.4a9.85,9.85,0,0,1,.15,2.77h-.79a14,14,0,0,0-.07-2.25c-.29-.37-.81-.21-1.21-.26,0,.84,0,1.68,0,2.51h-.83V76.26" fill="#6b7688"/><path d="M106.88,76.21h.79a35.22,35.22,0,0,1-.09,3.71c-.27.86-1.37.8-2.08.72-.5,0-.47-.56-.61-.88.73.14,1.57.36,2.15-.26-.68-.15-1.64.09-2-.63a9.11,9.11,0,0,1-.16-2.66h.84a10,10,0,0,0,.09,2.26,2.55,2.55,0,0,0,1.1.18c0-.81,0-1.63,0-2.44" fill="#6b7688"/><path d="M17.91,76.23h.79a12.21,12.21,0,0,0,.08,2.26c.3.28.75.15,1.11.2,0-.83,0-1.65,0-2.47h.8c0,1,0,2,0,3.06-.85.17-2,.47-2.62-.31a6.7,6.7,0,0,1-.18-2.75" fill="#6b7688"/><path d="M25.38,76.23h.79v3.2h-.79V76.23" fill="#6b7688"/><path d="M33.77,76.28c.61-.06,1.22-.1,1.83-.13,0,.2,0,.59,0,.79l-1.06,0v2.44h-.78c0-1,0-2.1,0-3.14" fill="#6b7688"/><path d="M40,76.23h.81a13,13,0,0,0,.07,2.25c.29.31.75.16,1.12.21,0-.82,0-1.64,0-2.47h.8v3.06a4,4,0,0,1-2,.1,1,1,0,0,1-.72-.78,21,21,0,0,1,0-2.38" fill="#6b7688"/><path d="M60.56,76.28c.61-.06,1.23-.11,1.86-.13v.79l-1.08,0c0,.81,0,1.62,0,2.44h-.78c0-1,0-2.09,0-3.14" fill="#6b7688"/><path d="M62.73,76.23h.85c.24.78.51,1.54.82,2.3.27-.77.53-1.54.79-2.31H66c-.35,1.07-.73,2.13-1.1,3.2H63.83c-.37-1.06-.74-2.12-1.1-3.19" fill="#6b7688"/><path d="M66.52,76.23h.81v3.19h-.82c0-1.06,0-2.13,0-3.19" fill="#6b7688"/><path d="M32.7,33.3,35,33.12v7.07l-.77.05L34,38.77l-.52-.32C33.26,36.73,33,35,32.7,33.3" fill="#6b7688"/><path d="M29.89,34.06c.7-.22,1.41-.43,2.12-.63.48,2.31,1,4.62,1.47,6.93l-.74.18c-.22-.69-.45-1.37-.67-2.06l-.58-.13c-.53-1.44-1.1-2.85-1.6-4.29" fill="#6b7688"/><path d="M35.34,38.89c.11-1.92.22-3.84.31-5.75.74.12,1.47.26,2.21.39-.51,2.33-1,4.68-1.53,7a1.32,1.32,0,0,1-.65-1.23l-.34-.42" fill="#6b7688"/><path d="M37.21,38.6c.43-1.58.87-3.17,1.29-4.75.71.19,1.43.33,2.16.46-.88,2.19-1.91,4.33-2.85,6.5l-.67-.22a4.76,4.76,0,0,1,.07-2" fill="#6b7688"/><path d="M27.23,35.4l2-1.07c1,2.16,1.94,4.33,2.91,6.5l-.71.3c-.47-.82-.95-1.64-1.42-2.47l-.6.06L27.23,35.4" fill="#6b7688"/><path d="M41.09,35.1l1.08.89.45-.59.59.46-4.14,5.71-.53-.37c0-.19-.14-.55-.19-.73q1.38-2.69,2.74-5.37" fill="#6b7688"/><path d="M25,37.24l1.71-1.43q2.06,2.85,4.14,5.69l-.57.53c-.81-.89-1.61-1.79-2.4-2.68l-.74.07c-.73-.71-1.44-1.44-2.14-2.18" fill="#6b7688"/><path d="M39.45,41.62c1.23-1.53,2.46-3.06,3.71-4.56L44,38.17l.9-.91.57.56c-1.79,1.57-3.52,3.21-5.33,4.75-.22-.31-.43-.63-.64-1" fill="#6b7688"/><path d="M23.08,39.54l1.38-1.76,5.21,4.67-.36.69c-1.22-.85-2.42-1.74-3.63-2.62l-.59.35-2-1.33" fill="#6b7688"/><path d="M56.21,39.68a8.53,8.53,0,0,1,9.89.76c-.82.88-1.65,1.73-2.47,2.6-1.21-1.07-3-1.83-4.55-1.06a1.51,1.51,0,0,0-.28,2.64c1.88,1.1,4.3,1.18,5.91,2.77,1.58,1.44,1.57,4,.63,5.76A6.06,6.06,0,0,1,60.24,56a9.31,9.31,0,0,1-6.9-2.3c.85-.88,1.7-1.75,2.56-2.62,1.32,1.24,3.25,2.21,5.05,1.47a1.71,1.71,0,0,0,.37-2.9c-1.81-1.23-4.29-1.19-5.89-2.79a4.78,4.78,0,0,1,.78-7.16" fill="#6b7688"/><path d="M72.45,39.18a10.57,10.57,0,0,1,10.36,1.38Q81.6,42,80.35,43.38A5.73,5.73,0,0,0,76.7,41.9a4.9,4.9,0,0,0-4.87,3.35c-.75,2.23-.25,5.13,1.83,6.48a6.83,6.83,0,0,0,5.61.45c0-1.1,0-2.18,0-3.27h-2l-1.82-3.1c2.49,0,5,0,7.48,0,0,3,0,5.9,0,8.85a15.22,15.22,0,0,1-8.23,1.22,8.68,8.68,0,0,1-5.91-3.61,9.46,9.46,0,0,1-1.16-7.55,8.18,8.18,0,0,1,4.84-5.53" fill="#6b7688"/><path d="M87.1,39.67a8.52,8.52,0,0,1,9.86.77c-.81.87-1.65,1.73-2.47,2.61a4.66,4.66,0,0,0-3.64-1.35c-.9.08-1.93.76-1.84,1.78-.05.74.64,1.2,1.24,1.46,1.84.8,4,1.07,5.47,2.6a4.81,4.81,0,0,1,.75,5.05,5.35,5.35,0,0,1-3.7,3.11,9.32,9.32,0,0,1-8.56-2c.84-.88,1.7-1.74,2.55-2.62,1.32,1.24,3.28,2.23,5.08,1.45a1.7,1.7,0,0,0,.35-2.88c-1.76-1.2-4.12-1.18-5.74-2.64a4.77,4.77,0,0,1,.65-7.32" fill="#6b7688"/><path d="M40.38,42.79c1.41-1.14,2.8-2.29,4.23-3.4L45,40.62l1.8-1.12.21.68c-1.93,1.3-4,2.34-6,3.54l-.65-.93" fill="#6b7688"/><path d="M22.71,40.15c2,1.16,4.05,2.35,6.09,3.5-.09.24-.18.49-.26.74-1.44-.61-2.84-1.31-4.29-1.89-.37-.22-.73,0-1,.22-.49-.17-1-.35-1.44-.53.3-.68.62-1.36.94-2" fill="#6b7688"/><path d="M41.2,44c1.38-.71,2.77-1.42,4.16-2.11,0,.32.1.94.13,1.25l2.58-1,.27.73c-2.24.72-4.48,1.44-6.71,2.18-.15-.35-.29-.71-.43-1.06" fill="#6b7688"/><path d="M21.51,42.85c2.26.72,4.51,1.46,6.77,2.19l-.38.71c-1.84-.41-3.7-.79-5.54-1.19l-.34.62L21,45c.16-.74.33-1.46.51-2.19" fill="#6b7688"/><path d="M41.78,45.37l3.71-1c-.05.39-.09.78-.14,1.17L48.87,45c0,.19,0,.58,0,.77-2.33.21-4.66.48-7,.72,0-.38-.09-.75-.13-1.13" fill="#6b7688"/><path d="M20.89,45.76c2.42.21,4.84.45,7.24.77-.34.24-.58.7-1,.69-1.81.08-3.62,0-5.43,0l-.76.91c0-.8,0-1.6,0-2.41" fill="#6b7688"/><path d="M42,46.84l3.11-.16c-.08.26-.26.77-.35,1,1.41.1,2.82.18,4.23.21,0,.2,0,.57,0,.76-2.34-.21-4.68-.46-7-.73,0-.28,0-.84,0-1.11" fill="#6b7688"/><path d="M20.88,48.68c2.42-.24,4.82-.54,7.24-.74l-.88.92q-2.88.63-5.77,1.23c0,.25-.07.76-.09,1-.19-.8-.35-1.61-.5-2.42" fill="#6b7688"/><path d="M41.59,49.38l.33-1.08,2.36.38c-.17.29-.33.59-.49.89,1.63.45,3.27.85,4.9,1.33-.31.94-1.18.38-1.83.22-1.75-.59-3.52-1.14-5.27-1.74" fill="#6b7688"/><path d="M21.53,51.55c2.33-.72,4.62-1.58,7-2.19l-1.17,1.21c-1.73.87-3.52,1.59-5.28,2.39l-.53-1.41" fill="#6b7688"/><path d="M41.5,49.72l1.71.65-.61.72,4.9,2.5-.39.68c-2-1.19-4.07-2.35-6.1-3.53l.49-1" fill="#6b7688"/><path d="M22.71,54.25c2.18-1.15,4.17-2.66,6.49-3.52-.38.35-.77.7-1.17,1-.05.16-.14.47-.18.62l-4.31,3.13-.83-1.26" fill="#6b7688"/><path d="M40.14,51.93c.23-.3.47-.6.7-.91l1.09.72-.67.57q2.3,1.88,4.61,3.73c-.16.2-.31.41-.46.62-1.77-1.57-3.51-3.16-5.27-4.73" fill="#6b7688"/><path d="M24.42,56.66A61.21,61.21,0,0,1,30,51.83a8.35,8.35,0,0,1-1.47,1.78c0,.13.13.38.17.51a47,47,0,0,1-3.27,3.48c-.37-.29-.71-.62-1-.94" fill="#6b7688"/><path d="M39.06,52.91l.87-.74.61.61-.72.45q1.88,2.3,3.73,4.6l1-.35-1.29,1.17c-1.39-1.91-2.79-3.82-4.16-5.74" fill="#6b7688"/><path d="M29.05,55.27a10,10,0,0,1,2.12-2.5,16.21,16.21,0,0,1-1.5,2.58l.28.53c-.68,1.18-1.37,2.36-2.05,3.55l-1.27-.85c.81-1.1,1.62-2.2,2.42-3.31" fill="#6b7688"/><path d="M37.76,53.57l1.39-.45a10.24,10.24,0,0,0-.76.85c.84,1.63,1.65,3.29,2.53,4.9a6.11,6.11,0,0,1,1.22.43c-.49.27-1,.53-1.49.79-1-2.17-1.95-4.33-2.89-6.52" fill="#6b7688"/><path d="M31.58,54.65a2.94,2.94,0,0,1,.84-1.16c-.28,1.16-.77,2.24-1.15,3.37.64,1.25-.47,2.53-.7,3.77-.46-.19-.92-.39-1.39-.57q1.23-2.7,2.4-5.41" fill="#6b7688"/><path d="M36.37,54.06l1.34-.28-.87.53,1.4,5.18h.7l.36,1.13c-.48.12-1,.26-1.44.39-.51-2.31-1-4.63-1.49-6.94" fill="#6b7688"/><path d="M32.83,57a12.12,12.12,0,0,1,.9-3.19,30.51,30.51,0,0,1-.5,4.35c.79.83.26,2,.25,3L32,61.05c.21-1.36.53-2.69.81-4" fill="#6b7688"/><path d="M34.93,61.28c.1-2.46-.25-5,.21-7.39a46.75,46.75,0,0,1,.43,5.3l.65.19.21,1.85-1.5.05" fill="#6b7688"/></svg>