<svg id="Layer_1" data-name="Layer 1" xmlns="http://www.w3.org/2000/svg" viewBox="0 0 120 120"><g id="Layer_1-2" data-name="Layer 1-2"><path d="M97.17,47.6h-.08V42.91c-.13-.15-1.59-1.79-5.76-1.8-.22,1-1.36,5.55-1.38,5.6l-.08,0s1.19-4.72,1.38-5.64v0h0a10.14,10.14,0,0,1,4.61.92,3.71,3.71,0,0,1,1.26.93h0V47.6Z" fill="#6b7688"/><path d="M97.13,48v.19a.29.29,0,0,0-.21.09,1.22,1.22,0,0,0-.17-.15,5.19,5.19,0,0,0-1.16-.68,7.1,7.1,0,0,0-.81-.3c-.27-.09-.55-.16-.83-.23a14.14,14.14,0,0,0-1.71-.27,14.49,14.49,0,0,0-1.74-.09h-.08v-.08l.84-4.31-.69,4.25c.56,0,1.12,0,1.67,0a14.7,14.7,0,0,1,1.75.23c.29.06.58.12.86.2a6,6,0,0,1,.84.29,5.7,5.7,0,0,1,1.38.78l0,0Z" fill="#6b7688"/><path d="M97.13,48v.23a.29.29,0,0,0-.21.09.28.28,0,0,0-.08.2v.14l-7-1.81.06-.22,6.73,1.74a.37.37,0,0,1,.12-.2.47.47,0,0,1,.33-.17h0Z" fill="#6b7688"/><path d="M97.08,47.6h.09V42.91c.12-.15,1.58-1.79,5.75-1.8.22,1,1.36,5.55,1.38,5.6l.08,0S103.2,42,103,41.05v0h0a10.14,10.14,0,0,0-4.61.92,3.71,3.71,0,0,0-1.26.93h0V47.6Z" fill="#6b7688"/><path d="M97.12,48v.19a.29.29,0,0,1,.21.09,1.22,1.22,0,0,1,.17-.15,5.19,5.19,0,0,1,1.16-.68,7.1,7.1,0,0,1,.81-.3c.27-.09.55-.16.83-.23a14.14,14.14,0,0,1,1.71-.27,14.49,14.49,0,0,1,1.74-.09h.08v-.08L103,42.16l.7,4.25c-.56,0-1.12,0-1.68,0a14.81,14.81,0,0,0-1.74.23c-.29.06-.58.12-.86.2a6,6,0,0,0-.84.29,5.7,5.7,0,0,0-1.38.78l0,0Z" fill="#6b7688"/><path d="M97.12,48v.23a.29.29,0,0,1,.21.09.28.28,0,0,1,.08.2v.14l7-1.81-.06-.22-6.73,1.74a.37.37,0,0,0-.12-.2.47.47,0,0,0-.33-.17h0Z" fill="#6b7688"/><path d="M103.45,52.12q-.33.14-.78.27l-.25.07-.78.21-.12,0-.19,0L100,53l-1,.24-.24.08a5,5,0,0,0-1,.37,6.22,6.22,0,0,0-.91.6c-1,.81,1,3.44,1.26,3.82a12,12,0,0,1-2.8.65l.15-.07a23.74,23.74,0,0,1-1-2.38,6.89,6.89,0,0,1-.33-1.24,1.72,1.72,0,0,1,0-.6.82.82,0,0,1,.1-.26,1.3,1.3,0,0,1,.18-.23,1.77,1.77,0,0,1,.5-.34l.6-.26c.39-.18.8-.34,1.2-.5.81-.31,1.63-.6,2.46-.85.42-.12.84-.24,1.26-.34s.85-.2,1.27-.32q.32-.08.63-.18l.31-.1.08,0,.08-.05a.36.36,0,0,0,.11-.16.34.34,0,0,0-.11-.35c-.1-.07-.2-.11-.3-.17l-.3-.13-.3-.12c-.41-.15-.83-.28-1.25-.4l-1.26-.35c-.84-.21-1.69-.41-2.54-.59.85.19,1.69.41,2.53.64.42.11.84.23,1.25.36s.83.27,1.24.42l.3.12.29.14a1.75,1.75,0,0,1,.27.16.22.22,0,0,1,.08.24.2.2,0,0,1-.08.1.1.1,0,0,1,0,0l-.08,0-.3.1-.63.16c-.42.11-.85.2-1.27.29s-.85.21-1.27.33q-1.26.36-2.49.81l-1.22.48-.61.26a1.94,1.94,0,0,0-.58.38,1.51,1.51,0,0,0-.22.28.85.85,0,0,0-.14.34,1.79,1.79,0,0,0,0,.69,7,7,0,0,0,.31,1.3,24.84,24.84,0,0,0,1,2.38,33.07,33.07,0,0,1-3.52.22,13.58,13.58,0,0,1-.92-4.09,1.7,1.7,0,0,1,0-.39c.09-1,1-1.46,1.92-1.83a6.45,6.45,0,0,1,1-.28c8.61-1.83,7.82-1.7,7.82-1.85,0-.52-10.7-3.31-11.37-3.48,9.89,2.16,12.42,2.88,13.35,3.24a1.18,1.18,0,0,1,.72.76c.14.5-.12.79-.66,1Z" fill="#6b7688"/><path d="M95.34,58.77l-.15.07,0-.05.18,0Z" fill="#6b7688"/><path d="M98.77,53.33v2.84h-1V53.7A4.72,4.72,0,0,1,98.77,53.33Z" fill="#6b7688"/><path d="M100,53v3.16H99V53.26C99.29,53.18,99.61,53.1,100,53Z" fill="#6b7688"/><path d="M103.45,52.12V54.5h-.78V52.39Q103.12,52.26,103.45,52.12Z" fill="#6b7688"/><path d="M102.42,52.46v2h-.78V52.66l.78-.2Z" fill="#6b7688"/><path d="M113.43,44.81a18.74,18.74,0,0,0-1-5.94c-2.13-6.39-7.38-10.09-10.09-11.66a15.45,15.45,0,0,0-1.83-.89,5.85,5.85,0,0,1-3.36-3.59,5.89,5.89,0,0,1-3.37,3.59,18.16,18.16,0,0,0-1.83.89c-2.71,1.57-8,5.27-10.09,11.66a18.74,18.74,0,0,0-1,5.94c0,2.65-.21,21.72,0,21.72h32.65c.2,0,0-19.06,0-21.72Zm-1.15.4V65.48H81.93V45.21a13.45,13.45,0,0,1,.51-3.68,17.46,17.46,0,0,1,3.45-6.66,24.78,24.78,0,0,1,6.21-5.29c2.13-1.21,5-2.31,5-3.81,0,1.5,2.88,2.6,5,3.81a25,25,0,0,1,6.21,5.29,17.53,17.53,0,0,1,3.45,6.66,14,14,0,0,1,.51,3.68Z" fill="#6b7688"/><path d="M97.13,26.81a4.11,4.11,0,0,0,1.75,2.26c1.24.58,7.33,4.35,9.1,7.16s3.19,5.61,3.19,8.4V54a.25.25,0,0,1-.25.25h0a.25.25,0,0,1-.26-.24l-.59-9.15a10.5,10.5,0,0,0-.18-1,15.52,15.52,0,0,0-4.81-8.27,21.12,21.12,0,0,0-5.26-3.82c-1.68-.91-2.69-1.57-2.69-2.32h0c0,.75-1,1.41-2.69,2.32a21.3,21.3,0,0,0-5.26,3.82,15.52,15.52,0,0,0-4.81,8.27,10.5,10.5,0,0,0-.18,1L83.58,54a.25.25,0,0,1-.26.24h0a.25.25,0,0,1-.25-.25V44.63c0-2.79,1.43-5.58,3.19-8.4s7.85-6.58,9.1-7.16a4.11,4.11,0,0,0,1.75-2.26" fill="#6b7688"/><path d="M97.11,32.75c0,1,3.51,2.51,5,3.42,5.11,3.23,5.59,7.12,5.86,8.46.11,1,.51,7.83.51,7.83h.43v-8a12.73,12.73,0,0,0-1.51-4.71c-1.83-3.41-6.53-6.1-8.33-7s-1.93-2-1.93-2-.15,1.18-1.93,2-6.5,3.61-8.33,7a12.79,12.79,0,0,0-1.51,4.71v8h.43s.4-6.82.51-7.83c.27-1.33.75-5.23,5.86-8.46,1.45-.91,5-2.37,5-3.42h0Z" fill="#6b7688"/><path d="M87.89,63.87H87.7a2.19,2.19,0,0,0-.47.05c-.14,0-.2.06-.2.1s.07.23.1.33a1,1,0,0,1,0,.29.41.41,0,0,1,0,.16.33.33,0,0,1-.07.13,2,2,0,0,0-.07-.4,2.33,2.33,0,0,0-.1-.32.7.7,0,0,1,0-.19.61.61,0,0,1,0-.17.64.64,0,0,1,.08-.14.3.3,0,0,1,.16-.12,1.63,1.63,0,0,1,.35-.07c-.08-.1-.15-.16-.21-.16l-.07,0-.1.13-.08,0a1.35,1.35,0,0,1,.16-.34.26.26,0,0,1,.2-.12.35.35,0,0,1,.22.11,3.25,3.25,0,0,1,.28.35v.4h0Z" fill="#6b7688"/><path d="M90,62.46a.51.51,0,0,1-.08.3.5.5,0,0,1-.26.15,1.76,1.76,0,0,1,.09.53,1,1,0,0,1,0,.17c0,.07,0,.15,0,.26h-.09a1.93,1.93,0,0,0,0-.25,1.17,1.17,0,0,0,0-.2s0-.08-.07-.2-.1-.22-.14-.3l-.22-.34.14-.42a.9.9,0,0,0,.19.22.29.29,0,0,0,.2.07q.24,0,.24-.27H90v.28Z" fill="#6b7688"/><path d="M91.45,63.23a2.2,2.2,0,0,1-.06.22,1.94,1.94,0,0,0,0,.24l-.21-.12L91,63.42l.06-.24a1.33,1.33,0,0,1,.08-.24,1.37,1.37,0,0,0,.18.15l.18.14Z" fill="#6b7688"/><path d="M93.12,63.23a2.2,2.2,0,0,1-.06.22s0,.13,0,.24l-.21-.12-.18-.15c0-.12,0-.2,0-.24l.08-.24.18.15.19.14h0Z" fill="#6b7688"/><path d="M95.13,62.38q0,.51-.3.51a.16.16,0,0,1-.1,0,.22.22,0,0,1-.09-.08.47.47,0,0,1-.09.1.33.33,0,0,1-.12,0l0,.22a1.27,1.27,0,0,1,0,.2,1.69,1.69,0,0,1,0,.23c0,.07,0,.16-.07.29h-.08c0-.15,0-.26,0-.34a1.57,1.57,0,0,0,0-.25,1.69,1.69,0,0,0-.11-.32,2.11,2.11,0,0,0-.21-.34l.14-.45a.8.8,0,0,0,.17.23.27.27,0,0,0,.18.07.21.21,0,0,0,.17-.08.34.34,0,0,0,.06-.22h.07a.43.43,0,0,0,.05.17.13.13,0,0,0,.11,0c.09,0,.14-.07.16-.22h.06s0,.06,0,.1,0,.07,0,.1Z" fill="#6b7688"/><path d="M96.37,63.73v-.41h.8v.41Z" fill="#6b7688"/><path d="M98.61,63.87h-.69v-.39h.69Z" fill="#6b7688"/><path d="M99.79,63.57a.7.7,0,0,1,0,.23c0,.1-.07.15-.12.15a.58.58,0,0,1-.2-.06,2.15,2.15,0,0,1-.34-.17.71.71,0,0,1-.23.12.78.78,0,0,1-.22,0h-.13v-.39h.22l.08,0v-.06a.7.7,0,0,1,0-.3.35.35,0,0,1,.16-.21l-.07,0c0-.08,0-.14,0-.19a1.83,1.83,0,0,1,.06-.19,2.26,2.26,0,0,1,.39.37,1.56,1.56,0,0,1,.26.41.75.75,0,0,1,.1.35h0Zm-.57-.34a.22.22,0,0,0,0-.12.07.07,0,0,0-.06,0,.14.14,0,0,0-.11,0,.12.12,0,0,0,0,.08s.05.08.13.12l0,0s0,0,0-.07Zm.4.27a.35.35,0,0,0-.06-.14,1.14,1.14,0,0,0-.15-.17.41.41,0,0,1,0,.1l0,.12a.65.65,0,0,0,.27.11l0,0Z" fill="#6b7688"/><path d="M101.07,63.31a3.58,3.58,0,0,1-.06.55h-.09a2,2,0,0,0,0-.38,1.32,1.32,0,0,0-.09-.32.89.89,0,0,0-.12-.26,3.17,3.17,0,0,0-.2-.29l.18-.45.18.25a2,2,0,0,1,.11.25A1.57,1.57,0,0,1,101,63a1.87,1.87,0,0,1,0,.34Z" fill="#6b7688"/><path d="M102.87,63.45l-.12.42-.38-.07c-.14,0-.21-.1-.21-.19a.35.35,0,0,1,0-.18,1.32,1.32,0,0,1,.23-.29l-.17,0c-.11-.05-.17-.1-.17-.16a.69.69,0,0,1,.16-.33,2.44,2.44,0,0,1,.43-.41l0,.35-.16.06s-.07,0-.07.07l.07.06.18.07.09,0s0,0,0,0,0,.07-.1.14a1.41,1.41,0,0,0-.17.18.32.32,0,0,0-.07.13s.07.06.21.09l.21,0Z" fill="#6b7688"/><path d="M104.58,62.46a.51.51,0,0,1-.08.3.5.5,0,0,1-.26.15,1.76,1.76,0,0,1,.09.53,1,1,0,0,1,0,.17c0,.07,0,.15,0,.26h-.09a1.93,1.93,0,0,0,0-.25,1.17,1.17,0,0,0,0-.2s0-.08-.07-.2-.1-.22-.14-.3l-.22-.34.14-.42a.9.9,0,0,0,.19.22.29.29,0,0,0,.2.07q.24,0,.24-.27h.09v.28Z" fill="#6b7688"/><path d="M106.2,63.45l-.11.42-.38-.07c-.14,0-.21-.1-.21-.19a.48.48,0,0,1,0-.18,2,2,0,0,1,.24-.29l-.17,0c-.11-.05-.17-.1-.17-.16a.6.6,0,0,1,.16-.33,2.74,2.74,0,0,1,.42-.41l0,.35-.15.06s-.07,0-.07.07,0,0,.07.06l.17.07.1,0s0,0,0,0,0,.07-.1.14a.94.94,0,0,0-.17.18c0,.07-.08.11-.08.13s.08.06.22.09l.21,0Z" fill="#6b7688"/><rect x="6.52" y="22.73" width="34.26" height="11.79" fill="#6b7688"/><rect x="17.32" y="30.92" width="12.66" height="35.6" fill="#6b7688"/><path d="M78.47,22.71v29c0,.15,0,.3,0,.45a16,16,0,0,1-2.83,8.64,12.54,12.54,0,0,1-6.29,4.71,25.2,25.2,0,0,1-8.19,1.33,25.73,25.73,0,0,1-7.39-1.07,13.49,13.49,0,0,1-7.89-6.27,15.93,15.93,0,0,1-2-7.34h0V45.63h0V22.71H56.12V48.36a5.56,5.56,0,0,0,5.65,5.57,5.64,5.64,0,0,0,5.47-5.66V22.71H78.47Z" fill="#6b7688"/><path d="M113.52,72.35c-1,0-105.66-.12-107,0l-.08-.57c.75-.12,96.16,0,107,0Z" fill="#6b7688"/><path d="M113.52,97.29c-1,0-105.66-.12-107,0l-.08-.56c.75-.12,96.16,0,107,0Z" fill="#6b7688"/><path d="M19.31,81.32s.06,0,.06,0v1.21s0,.05-.06.05H10.08A2.11,2.11,0,0,1,8.5,82a2.15,2.15,0,0,1-.58-1.6A4.59,4.59,0,0,1,8,79.57a3.48,3.48,0,0,1,.26-.79H9.7a6.2,6.2,0,0,0-.17,1.42,1.14,1.14,0,0,0,.28.81.94.94,0,0,0,.74.31h2.82a2.17,2.17,0,0,1-.52-1.43A2.37,2.37,0,0,1,13.69,78,3.44,3.44,0,0,1,16,77.25H18v4.07Zm-3,0V78.55h-.27a1.62,1.62,0,0,0-1.15.37,1.36,1.36,0,0,0-.4,1,1.27,1.27,0,0,0,.39,1,1.66,1.66,0,0,0,1.13.35Zm-.39-5a.69.69,0,0,1-.53-.21.81.81,0,0,1-.2-.57.83.83,0,0,1,.2-.58.69.69,0,0,1,.53-.21.68.68,0,0,1,.53.21.83.83,0,0,1,.19.57.79.79,0,0,1-.2.57.66.66,0,0,1-.51.21Z" fill="#6b7688"/><path d="M21.16,81.32s.06,0,.06,0v1.21s0,.05-.06.05h-2s-.06,0-.06-.05V81.36s0,0,.06,0Z" fill="#6b7688"/><path d="M23,81.32s.05,0,.05,0v1.21a0,0,0,0,1-.05.05h-2s-.06,0-.06-.05V81.36s0,0,.06,0Z" fill="#6b7688"/><path d="M24.87,81.32s.06,0,.06,0v1.21s0,.05-.06.05h-2s-.06,0-.06-.05V81.36s0,0,.06,0Z" fill="#6b7688"/><path d="M26.72,81.32s.06,0,.06,0v1.21s0,.05-.06.05h-2a0,0,0,0,1-.05-.05V81.36s0,0,.05,0Z" fill="#6b7688"/><path d="M28.58,81.32s.05,0,.05,0v1.21a0,0,0,0,1-.05.05h-2s-.06,0-.06-.05V81.36s0,0,.06,0Z" fill="#6b7688"/><path d="M28.47,82.62s0,0,0-.05V81.36s0,0,0,0h1.36V77.25h1.62v5.38h-3Zm.79-6.78.62-.1a1,1,0,0,1-.35-.3.72.72,0,0,1-.14-.44.88.88,0,0,1,.33-.73,1.37,1.37,0,0,1,.87-.26,1.83,1.83,0,0,1,.89.2l-.22.55a1.3,1.3,0,0,0-.58-.14.54.54,0,0,0-.38.14.48.48,0,0,0-.14.38.51.51,0,0,0,.09.3.69.69,0,0,0,.23.19l.2,0q.54-.09.87-.12v.63c-.25,0-.68.06-1.27.14s-.94.12-1,.14v-.56h0Z" fill="#6b7688"/><path d="M36.42,81.32s.06,0,.06,0v1.21s0,.05-.06.05h-3V74.38h1.62v6.94Z" fill="#6b7688"/><path d="M38.28,81.32s.06,0,.06,0v1.21s0,.05-.06.05h-2s-.06,0-.06-.05V81.36s0,0,.06,0Z" fill="#6b7688"/><path d="M40.13,81.32s.06,0,.06,0v1.21s0,.05-.06.05h-2a0,0,0,0,1-.05-.05V81.36s0,0,.05,0Z" fill="#6b7688"/><path d="M42,81.32s.06,0,.06,0v1.21s0,.05-.06.05H40s-.06,0-.06-.05V81.36s0,0,.06,0Z" fill="#6b7688"/><path d="M41.88,82.62s-.05,0-.05-.05V81.36s0,0,.05,0h1.28V74.38h1.62v4.78a3.15,3.15,0,0,1,2.94-2,2.66,2.66,0,0,1,2,.7A3,3,0,0,1,50.41,80v1.31h1.41s.06,0,.06,0v1.2a.05.05,0,0,1-.06.06H41.88Zm6.91-1.3V80a1.61,1.61,0,0,0-.36-1.16,1.5,1.5,0,0,0-1.12-.37c-1,0-1.82.67-2.53,2v.85h4Z" fill="#6b7688"/><path d="M51.71,82.62s-.05,0-.05-.05V81.36s0,0,.05,0h1.36V74.38h1.62v8.25h-3Z" fill="#6b7688"/><path d="M56.86,74.38h1.61v8.24H56.86Z" fill="#6b7688"/><path d="M70.41,81.32s0,0,0,0v1.21a0,0,0,0,1,0,.05H67.12a3.5,3.5,0,0,1-2.34-.7A2.44,2.44,0,0,1,64,80a2.69,2.69,0,0,1,.38-1.42,2.44,2.44,0,0,1,1.1-1,3.83,3.83,0,0,1,1.69-.34h.31v-.53h1.63v4.6h1.35Zm-3,0V78.55h-.28a1.62,1.62,0,0,0-1.15.37,1.39,1.39,0,0,0-.4,1A1.27,1.27,0,0,0,66,81a1.68,1.68,0,0,0,1.13.35Zm-1-5.28a.71.71,0,0,1-.53-.21.8.8,0,0,1-.19-.57.83.83,0,0,1,.19-.58.69.69,0,0,1,.53-.21.68.68,0,0,1,.53.21.79.79,0,0,1,.19.57.82.82,0,0,1-.2.58.66.66,0,0,1-.52.2Zm1.85,0a.68.68,0,0,1-.53-.21.81.81,0,0,1-.2-.57.79.79,0,0,1,.2-.58.68.68,0,0,1,.53-.21.69.69,0,0,1,.53.21.86.86,0,0,1,.19.58.81.81,0,0,1-.2.57.69.69,0,0,1-.52.21Z" fill="#6b7688"/><path d="M72.26,81.32s.06,0,.06,0v1.21s0,.05-.06.05h-2s-.06,0-.06-.05V81.36s0,0,.06,0Z" fill="#6b7688"/><path d="M74.11,81.32s.06,0,.06,0v1.21s0,.05-.06.05h-2a0,0,0,0,1-.05-.05V81.36s0,0,.05,0Z" fill="#6b7688"/><path d="M76,81.32s0,0,0,0v1.21a0,0,0,0,1,0,.05H74a0,0,0,0,1,0-.05V81.36s0,0,0,0Z" fill="#6b7688"/><path d="M77.82,81.32s.06,0,.06,0v1.21s0,.05-.06.05h-2s-.06,0-.06-.05V81.36s0,0,.06,0Z" fill="#6b7688"/><path d="M79.68,81.32s0,0,0,0v1.21a0,0,0,0,1,0,.05h-2a0,0,0,0,1,0-.05V81.36s0,0,0,0Z" fill="#6b7688"/><path d="M86.23,81.32s0,0,0,0v1.21s0,.05,0,.05H84.85a3.4,3.4,0,0,1-1.06-.17,3.34,3.34,0,0,1-1-.44,3.77,3.77,0,0,1-2,.61H79.57s-.06,0-.06-.05V81.36s0,0,.06,0h1.09a2.61,2.61,0,0,0,.53-.06,1.6,1.6,0,0,0,.48-.15,3.25,3.25,0,0,1-.68-.78,7.26,7.26,0,0,1-.63-1.17A6.18,6.18,0,0,1,80,77.94a4.94,4.94,0,0,1,1.47-.84,4.59,4.59,0,0,1,1.58-.3,5.42,5.42,0,0,1,2.72.65,4.85,4.85,0,0,1-.48,2.16A3.52,3.52,0,0,1,84,81.11a2.12,2.12,0,0,0,1,.21Zm-3.37-.88a2.59,2.59,0,0,0,1.37-2.14A3.2,3.2,0,0,0,83,78.1a2.6,2.6,0,0,0-.75.12,2.26,2.26,0,0,0-.64.29,3.91,3.91,0,0,0,.49,1.13,2.64,2.64,0,0,0,.75.8Z" fill="#6b7688"/><path d="M88.08,81.32s.06,0,.06,0v1.21s0,.05-.06.05h-2a0,0,0,0,1-.05-.05V81.36s0,0,.05,0Z" fill="#6b7688"/><path d="M89.94,81.32s.06,0,.06,0v1.21s0,.05-.06.05H88s-.06,0-.06-.05V81.36s0,0,.06,0Z" fill="#6b7688"/><path d="M91.79,81.32s.06,0,.06,0v1.21s0,.05-.06.05h-2a0,0,0,0,1,0-.05V81.36s0,0,0,0Z" fill="#6b7688"/><path d="M92.91,81.32a3.74,3.74,0,0,1-.29-1.49,3.48,3.48,0,0,1,.16-1,3.54,3.54,0,0,1,.39-.94,4.49,4.49,0,0,1,1.11-.46,3.94,3.94,0,0,1,1-.16,2.8,2.8,0,0,1,1.35.32,2.31,2.31,0,0,1,.94.89,2.7,2.7,0,0,1,.33,1.35,2.81,2.81,0,0,1-.38,1.46,2.62,2.62,0,0,1-1.07,1,3.21,3.21,0,0,1-1.51.36H91.69s-.06,0-.06-.05V81.36s0,0,.06,0Zm1.21-1.27a3.84,3.84,0,0,0,.25,1.27h.4a1.5,1.5,0,0,0,1.1-.44,1.43,1.43,0,0,0,.44-1.07,1.4,1.4,0,0,0-.28-.92.92.92,0,0,0-.74-.34,2.07,2.07,0,0,0-1,.31,4.27,4.27,0,0,0-.16,1.19Z" fill="#6b7688"/><path d="M102.6,81.32s.06,0,.06,0v1.21s0,.05-.06.05h-3V74.38h1.62v6.94Z" fill="#6b7688"/><path d="M104.45,81.32s.06,0,.06,0v1.21s0,.05-.06.05h-2a0,0,0,0,1,0-.05V81.36s0,0,0,0Z" fill="#6b7688"/><path d="M106.31,81.32s.06,0,.06,0v1.21s0,.05-.06.05h-2s0,0,0-.05V81.36s0,0,0,0Z" fill="#6b7688"/><path d="M106.21,82.62s-.06,0-.06-.05V81.36s0,0,.06,0h4.37a2.85,2.85,0,0,1-.66-1.54,2,2,0,0,0-.43-1,1.16,1.16,0,0,0-.87-.3,2.46,2.46,0,0,0-.72.1,3.55,3.55,0,0,0-.72.31l-.49-1.19a4.81,4.81,0,0,1,2.27-.52,2.68,2.68,0,0,1,1.69.49,2.51,2.51,0,0,1,.79,1.6,4.13,4.13,0,0,0,.76,2.09v1.3h-6Zm2.63,2.72a.69.69,0,0,1-.53-.21.81.81,0,0,1-.2-.57.83.83,0,0,1,.2-.58.69.69,0,0,1,.53-.21.68.68,0,0,1,.53.21.93.93,0,0,1,0,1.14.66.66,0,0,1-.51.21Z" fill="#6b7688"/><path d="M10.8,94.2V87.74H8.49V86.43h6.17v1.31H12.37V94.2Z" fill="#6b7688"/><path d="M22.74,94.2H21l-.68-1.77h-3.1l-.64,1.77H15l3-7.77h1.65l3.12,7.77Zm-2.89-3.07-1.07-2.89-1.05,2.89Z" fill="#6b7688"/><path d="M24.39,94.2V86.43H26V94.2Z" fill="#6b7688"/><path d="M28.34,94.2V86.43h5.32v1.31H29.91v1.84h3.24V90.9H29.91v3.3Z" fill="#6b7688"/><path d="M39.7,86.43h1.57v4.21a10.69,10.69,0,0,0,0,1.29,1.28,1.28,0,0,0,.48.77,1.69,1.69,0,0,0,1,.29,1.59,1.59,0,0,0,1-.27,1,1,0,0,0,.41-.67,8.27,8.27,0,0,0,.07-1.32v-4.3h1.57v4.08a10.08,10.08,0,0,1-.13,2,2.19,2.19,0,0,1-.46,1,2.41,2.41,0,0,1-.92.64,5.28,5.28,0,0,1-3.18,0,2.4,2.4,0,0,1-.9-.66,2.08,2.08,0,0,1-.44-.86,8.94,8.94,0,0,1-.16-2V86.43Z" fill="#6b7688"/><path d="M48.42,94.2V86.43H50l3.18,5.18V86.43h1.46V94.2H53l-3.13-5.07V94.2Z" fill="#6b7688"/><path d="M57.06,94.2V86.43h1.57V94.2Z" fill="#6b7688"/><path d="M63,94.2,60.2,86.43h1.7l2,5.75,1.91-5.75h1.66L64.65,94.2Z" fill="#6b7688"/><path d="M69.1,94.2V86.43h5.76v1.31H70.67v1.72h3.9v1.31h-3.9v2.12H75v1.3H69.1Z" fill="#6b7688"/><path d="M77.21,94.2V86.43h3.3a5.61,5.61,0,0,1,1.81.21,1.76,1.76,0,0,1,.9.74,2.24,2.24,0,0,1,.35,1.23,2.09,2.09,0,0,1-.52,1.44,2.45,2.45,0,0,1-1.53.72,3.84,3.84,0,0,1,.84.66,7.92,7.92,0,0,1,.89,1.26l1,1.51H82.32l-1.13-1.69a10.83,10.83,0,0,0-.83-1.14,1.39,1.39,0,0,0-.47-.33A3,3,0,0,0,79.1,91h-.32V94.2Zm1.57-4.49h1.16a6.38,6.38,0,0,0,1.41-.09.78.78,0,0,0,.44-.33,1,1,0,0,0,.16-.58.87.87,0,0,0-.8-.94q-.2,0-1.14,0H78.78v2Z" fill="#6b7688"/><path d="M85.51,91.67,87,91.52a1.87,1.87,0,0,0,.56,1.13,1.69,1.69,0,0,0,1.14.36,1.78,1.78,0,0,0,1.14-.32,1,1,0,0,0,.39-.75.7.7,0,0,0-.17-.47,1.31,1.31,0,0,0-.56-.34l-1.25-.34A4.33,4.33,0,0,1,86.51,90a2,2,0,0,1-.71-1.56,2,2,0,0,1,.34-1.11,2,2,0,0,1,1-.79,3.86,3.86,0,0,1,1.52-.27,3.29,3.29,0,0,1,2.21.64,2.3,2.3,0,0,1,.78,1.71l-1.57.07a1.39,1.39,0,0,0-.44-.86,1.6,1.6,0,0,0-1-.26,1.81,1.81,0,0,0-1.07.28.56.56,0,0,0-.25.48.6.6,0,0,0,.23.47,4.07,4.07,0,0,0,1.44.52,7.76,7.76,0,0,1,1.7.56,2.34,2.34,0,0,1,.86.79,2.28,2.28,0,0,1,.31,1.24,2.36,2.36,0,0,1-.37,1.25,2.25,2.25,0,0,1-1,.87,4.63,4.63,0,0,1-1.69.28,3.42,3.42,0,0,1-2.27-.68,3,3,0,0,1-.94-2h0Z" fill="#6b7688"/><path d="M94,94.2V86.43h1.57V94.2Z" fill="#6b7688"/><path d="M99.65,94.2V87.74H97.34V86.43h6.18v1.31h-2.3V94.2Z" fill="#6b7688"/><path d="M107.44,94.2V90.93l-2.85-4.5h1.84l1.83,3.07,1.79-3.07h1.81L109,90.94V94.2Z" fill="#6b7688"/></g></svg>