<svg id="Layer_1" data-name="Layer 1" xmlns="http://www.w3.org/2000/svg" viewBox="0 0 120 120"><polygon points="24.61 95.22 24.61 75.24 16.71 75.24 16.71 71.17 37.88 71.17 37.88 75.24 30 75.24 30 95.22 24.61 95.22" fill="#6b7688"/><path d="M52.41,72.32H57.8v13a23.69,23.69,0,0,0,.2,4,3.87,3.87,0,0,0,1.64,2.37,6.16,6.16,0,0,0,3.55.9,5.85,5.85,0,0,0,3.45-.85A3.26,3.26,0,0,0,68,89.71a24,24,0,0,0,.24-4.08V72.32h5.38V85a29.33,29.33,0,0,1-.44,6.12,6.44,6.44,0,0,1-1.6,3,8.18,8.18,0,0,1-3.14,2,14.9,14.9,0,0,1-5.13.74,16.14,16.14,0,0,1-5.78-.8,8.27,8.27,0,0,1-3.12-2.07A6.29,6.29,0,0,1,53,91.26a26,26,0,0,1-.54-6.11Z" fill="#6b7688"/><polygon points="86.12 96.37 76.6 72.31 82.43 72.31 89.17 90.12 95.69 72.31 101.4 72.31 91.86 96.37 86.12 96.37" fill="#6b7688"/><rect x="55.96" y="64.56" width="5.85" height="5.84" fill="#6b7688"/><rect x="64.19" y="64.56" width="5.85" height="5.84" fill="#6b7688"/><path d="M92.88,57.12s-13-5.28-26.4-.29c-14.1,5.27-29.9,0-29.9,0L64.46,8,86.77,46.23s-12.29-2.55-20.45,1.06c-7.83,3.48-14.07,1.86-14.07,1.86l2.65-5.84a18.77,18.77,0,0,0,11.06-2c6-3.12,9.66-1.76,9.66-1.76L64.46,20.47,45.88,52.87s11.41,1.33,20.71-2.39S89.43,51,89.43,51Z" fill="#6b7688"/><rect x="7.19" y="103.73" width="110.44" height="1.58" fill="#6b7688"/></svg>