<svg id="Layer_1" data-name="Layer 1" xmlns="http://www.w3.org/2000/svg" viewBox="0 0 120 120"><path d="M32.71,32.51l-.13,18.94c0,8-4.7,11-11,11-5.49,0-12.41-2.35-12.41-10.58V32.51a2.31,2.31,0,0,0-1.44-2.09h8.89a2.53,2.53,0,0,0-1.44,2.09V52c0,3.27,1.17,7.84,7.18,7.84,5.49,0,7.44-3.66,7.44-8.23V32.51a2.43,2.43,0,0,0-1.3-2.09h5.35a2.33,2.33,0,0,0-1.17,2.09ZM45.24,62.42a19.67,19.67,0,0,1-8.88-2.22l-.26-7.84c.92,3.27,3.66,7.71,8.49,7.71,4.57,0,6-3.4,6-5.62,0-4.44-4.05-5.09-8.23-7.31s-6.14-4.83-6.14-8.36c0-6.27,5.88-8.88,10.06-8.88a14.8,14.8,0,0,1,7.05,1.83l.13,6.79c-.65-2.48-3.26-6.14-7.7-6.14-3.53,0-4.83,2.48-4.83,4.44,0,2.88,2,3.92,6.26,5.88s8.89,3.53,8.89,10.06c0,5.74-5.1,9.66-10.85,9.66ZM71,62H59.09a2.67,2.67,0,0,0,1.17-2.09V32.51a2.33,2.33,0,0,0-1.17-2.09H71.36c15.28,0,18.29,10.84,18.29,15.28C89.65,53.8,83.51,62,71,62Zm-.52-29.25c-1.18,0-3.53,0-4.31.13V59.55h3.79c10.44,0,13.32-7.06,13.32-13.85C83.25,40.22,80,32.78,70.45,32.78ZM107.67,62c1.17-.65,1.44-1.31,1.17-2.35-.13-.39-1.43-3.27-2.74-6.4H94.87a40.73,40.73,0,0,0-2.61,6.4c-.39,1-.26,1.7,1,2.35H86.9a6.15,6.15,0,0,0,2.22-2.35c.79-1.7,13.06-30.17,13.06-30.17S114.46,58,115.24,59.68A4.55,4.55,0,0,0,117.59,62Zm-7.31-22.46S97.22,47.4,95.78,50.8h9.28C103,45.7,100.36,39.57,100.36,39.57Z" fill="#6b7688" fill-rule="evenodd"/><path d="M116.16,66.47S48.77,64.77,8.94,86.06c0,0,42.31-16.72,107.22-15.15Zm-107.22,0S31.66,66.6,45.77,72c0,0-29-2.48-36.83-1.17V66.47Zm0,7.31s16.19-.65,26,.26c0,0-23.64,2.88-26,4V73.78Z" fill="#6b7688" fill-rule="evenodd"/><path d="M105.06,74.56h-.4C85.08,75,44.07,77.31,8.94,89.71V104.6H116.29v-30s-4.18-.13-11.23,0Z" fill="#6b7688" fill-rule="evenodd"/></svg>