<svg id="Layer_1" data-name="Layer 1" xmlns="http://www.w3.org/2000/svg" xmlns:xlink="http://www.w3.org/1999/xlink" viewBox="0 0 120 120"><defs><linearGradient id="linear-gradient" x1="80.98" y1="31.51" x2="101.53" y2="57.88" gradientTransform="matrix(1, 0, 0, -1, 0, 121.61)" gradientUnits="userSpaceOnUse"><stop offset="0" stop-color="#fff" stop-opacity="0.34"/><stop offset="1" stop-color="#fff" stop-opacity="0.1"/></linearGradient><linearGradient id="linear-gradient-2" x1="91.2" y1="579.24" x2="113.05" y2="607.07" gradientTransform="matrix(0.97, 0.26, 0.26, -0.97, -167.44, 618.71)" xlink:href="#linear-gradient"/><linearGradient id="linear-gradient-3" x1="6.65" y1="1023.59" x2="27.57" y2="1048.67" gradientTransform="matrix(0.89, 0.46, 0.46, -0.89, -412.24, 979.44)" xlink:href="#linear-gradient"/><linearGradient id="linear-gradient-4" x1="-166.13" y1="1390.78" x2="-145.63" y2="1413.25" gradientTransform="matrix(0.77, 0.63, 0.63, -0.77, -684.89, 1249.67)" xlink:href="#linear-gradient"/></defs><path d="M113.34,61.33a49.87,49.87,0,0,1-99.74,0v0a49.87,49.87,0,1,1,99.74,0Z" fill="#6b7688" fill-rule="evenodd"/><path d="M108,61.33A44.49,44.49,0,1,1,63.47,16.84,44.47,44.47,0,0,1,108,61.33Z" fill="#fff" fill-rule="evenodd"/><path d="M108,61.33a44.49,44.49,0,0,1-89,0Z" fill="#6b7688" fill-rule="evenodd"/><path d="M70.65,105.39l31.52-41.17L67.46,105.41" fill-rule="evenodd" fill="url(#linear-gradient)"/><path d="M48.73,102.3,100.86,63,46.53,100.9" fill-rule="evenodd" fill="url(#linear-gradient-2)"/><path d="M31.93,92.43l67-29.05L30.08,90.59" fill-rule="evenodd" fill="url(#linear-gradient-3)"/><path d="M23,77.67,98.62,62.8,21.52,75.49" fill-rule="evenodd" fill="url(#linear-gradient-4)"/><path d="M108,61.33A44.49,44.49,0,1,1,63.47,16.84,44.47,44.47,0,0,1,108,61.33Z" fill="none" stroke="#fff" stroke-linejoin="round" stroke-width="3.23"/><path d="M37.73,37.19h4.49V51.52a1.36,1.36,0,0,0,1.37,1.37,1.59,1.59,0,0,0,1.56-1.35V37.2h4.38V51.55s0,4.79-5.85,4.79-5.94-4.79-5.94-4.79Zm20.48,5.94h4s.35-5.94-5.61-5.94a5.79,5.79,0,0,0-4.08,1.63,4.9,4.9,0,0,0-1.38,3.72c0,1.35.14,3.4,3.63,5.36C57,49.1,58.21,50,58.21,51.26A1.52,1.52,0,0,1,56.51,53C55.19,53,55,51.56,55,51.4s0-1.58,0-1.58H50.8s-.78,6.52,5.61,6.52c6.21,0,5.85-4.77,5.85-5.77,0-3.19-1.55-4.24-4-5.62-2-1.14-3-1.82-3-3a1.29,1.29,0,0,1,1.37-1.44,1.57,1.57,0,0,1,1.64,1.71,7.73,7.73,0,0,1,0,.87Zm5.92-5.94H70.3c1.69,0,5.33.58,5.33,4.19V52.19c0,2.68-2.41,4.15-5,4.15H64.13Zm4.41,3.51H70c.79,0,1.24.37,1.24,2.65V50.2c0,1.7-.07,2.62-1.16,2.62H68.54ZM81.32,56.34H77.06l4-19.15h5.13l4.14,19.1H85.86l-.52-3.51H82Zm1.17-7h2.35l-1.1-8.64Z" fill="#6b7688" fill-rule="evenodd"/><path d="M64.45,81.1H61.24l3-14.36h3.86l3.11,14.32H67.86l-.4-2.63H65l-.52,2.67Zm.88-5.22h1.76l-.83-6.48-.93,6.48Zm-31-9.14H36a3.54,3.54,0,0,1,3.58,3.53v7.3A3.54,3.54,0,0,1,36,81.1H34.35a3.55,3.55,0,0,1-3.58-3.53v-7.3A3.55,3.55,0,0,1,34.35,66.74Zm.85,2.4a1.14,1.14,0,0,1,1.12,1.16v7.24a1.13,1.13,0,1,1-2.25,0V70.3A1.14,1.14,0,0,1,35.2,69.14Zm9.29,6.29V81.1H41.14V66.74h5.18c2,0,3.67.86,3.67,3.89s-1.52,3-1.52,3.31c0,.51,1.48-.41,1.48,3.66,0,3.27.5,3,.5,3.22s0,.27,0,.27H46.64V77c0-1.31-.77-1.57-2.15-1.57Zm-.05-2.74V69.32c.72,0,2.2-.28,2.2,1.66S45.6,72.69,44.44,72.69ZM57,75.75H55.81V73.37h4.48v7.49H57.92V79.62a3,3,0,0,1-3,1.48,3.39,3.39,0,0,1-3.63-3.49V69.88c0-1.83,2-3.14,4.44-3.14s4.38,1.34,4.38,3.07v2H56.9V70.19a1.22,1.22,0,0,0-1.09-1.07,1.2,1.2,0,0,0-1.22,1.19V77.2c0,.83.34,1.41,1.15,1.41A1.28,1.28,0,0,0,57,77.3a12,12,0,0,0,0-1.55Zm18.27-1.94v7.25h-3.1V66.74h3.45L78,74.67v-7.9h3.06V81.1H77.53l-2.29-7.29Zm7.48-7.07H86V81.1H82.72Zm10.5,5.11h3.25V69.74c0-1.24-1.2-3-4.69-3s-4.13,2.45-4.13,3.55v7.15c0,1.35.6,3.66,4.23,3.66s4.77-2.28,4.77-3.11V75.47H93.26v2.11a1.12,1.12,0,0,1-1.13,1,1,1,0,0,1-1.13-1V70.29c0-.65.32-1,1.13-1a1.13,1.13,0,0,1,1.11,1.09,14,14,0,0,1,0,1.45Z" fill="#fff" fill-rule="evenodd"/></svg>