<svg id="Layer_1" data-name="Layer 1" xmlns="http://www.w3.org/2000/svg" viewBox="0 0 120 120"><path id="path6" d="M59.52,13.75c-2.52,0-1.45,3.75-1.26,5,0,.06.2,8.47.26,10.4.39-.11.75-.19,1.14-.28l.76-.19c0-1.88.22-9.9.22-10C60.81,17.42,62.12,13.75,59.52,13.75Zm2,4.06,0,.11c0,.2-.08.36-.11.53a19,19,0,0,1,11.49,5.37L70.65,26l.08-.39-.27-.14-.37,0,.08-.25-.25-.9-.53-.59-1.7-.89-.14.17-.31.08A5,5,0,0,1,68.13,26v.39L69,27.43l-.39.08.25.39-.75.76-.31-.56a5.58,5.58,0,0,1-.56,1.12l.17.14-2.32,2.29-.42-.39c-.23.11-.45.19-.67.28l.19.14-.11.11-.28.14-.11.28L63.49,32l-.47.17.14.22.33-.08.23,0,0-.12.17-.08L64,32.1l.3-.09h.23l.14.11-.9.93L63.69,33l-.95.17-.23.23-.19,0,.58-.56-.22-.11-.56.73.17,0v.28l.2.08,0,.28-.33,0-.34,0L61,33.63s0,2.24,0,3.36c1.95.67,4,1.62,4,4.14a3.11,3.11,0,0,1-1.43,2.66l0,0-.06.06A10.33,10.33,0,0,1,60.75,45l0,1.76c1.43.7,3.13,1.73,3,4.64,0,.73-.31.92-.53,1a15,15,0,0,1-2.55.39v.65A15.92,15.92,0,0,0,70.46,49l2.29,2.29a19.06,19.06,0,0,1-26.4.06l2.29-2.29a16.06,16.06,0,0,0,9.73,4.28v-.65a15,15,0,0,1-9.22-4.11l.58-.61.84.08.45-.47,1.17.05.17-.42,0-.16a11.92,11.92,0,0,0,6,2.37v-.64a11.39,11.39,0,0,1-6.43-2.94l2.29-2.29A8.14,8.14,0,0,0,56,44.85a2.18,2.18,0,0,1,.22-.62,7.66,7.66,0,0,1-1.62-1.09l2.29-2.29a4.18,4.18,0,0,0,1.2.67v-.7a3.11,3.11,0,0,1-.75-.45l.64-.64c-.22-.06-.45-.14-.67-.22l-.45.45a4.26,4.26,0,0,1-.56-.82,6,6,0,0,1-1.14-.61,4.43,4.43,0,0,1-2.13-3.89,4.61,4.61,0,0,1,.93-3l-2.3-2.29a11.36,11.36,0,0,1,6.13-3v-.64a12,12,0,0,0-6.58,3.22l-.39-.39a5.86,5.86,0,0,0-.3.58l.25.26a11.92,11.92,0,0,0-3.25,8H44.28a15.25,15.25,0,0,1,4.2-10.29l1,1h.14a2.24,2.24,0,0,0,.59-.17l-1.32-1.31a15.88,15.88,0,0,1,2.27-1.82,1.82,1.82,0,0,1,.17-.48,5.53,5.53,0,0,1,.5-.67,15.41,15.41,0,0,0-3.36,2.49l-2.29-2.29a19.2,19.2,0,0,1,11.38-5.32.34.34,0,0,0,0-.14c0-.16-.05-.3-.08-.5a19.35,19.35,0,1,0,4-.08Zm-16.69.78a10,10,0,0,0-7.33,7.75c1.12-1.32,3-2.07,4.14-3.36S43.05,19.88,44.79,18.59Zm29.36,0c1.73,1.29,2.09,3.08,3.18,4.39s3,2.07,4.11,3.38A10,10,0,0,0,74.15,18.59Zm-12,1.23L61.9,20l-.56-.06v.14a8.77,8.77,0,0,1,1,.12l.47,0,.48,0,.19-.17-.36-.17Zm-.89.95c0,.31,0,1,0,1,0,.22,0,1,0,1.2l.7.08c2.1.51,2.85,1.71,2.85,2.89,0,1.92-1.65,2.65-3.66,3.21l-.67.17c-.62.14-1.26.31-1.88.47-.22.06-.44.12-.67.2-2.23.67-4.17,1.76-4.17,4.53S55.91,38.3,58.07,39c0-.79,0-1.6-.06-2.38-1-.45-1.62-1-1.62-2s.61-1.54,1.54-2a5.61,5.61,0,0,1,.67-.25c.53-.2,1.15-.34,1.76-.51l.67-.16c3-.73,6.43-1.68,6.4-5.74,0-2-1.48-4.28-5.08-5.06-.37-.05-.73-.11-1.09-.14Zm-3.58.31a13.18,13.18,0,0,0-2,.81A4.93,4.93,0,0,0,53,23.29c-.33.39-.64.81-1,1.23s-.34,1.17-.56,1.54a1.25,1.25,0,0,0-.25.89,1.8,1.8,0,0,1-.36.7,1.45,1.45,0,0,1-1.35.5,1.5,1.5,0,0,0,1.12-.08,6.65,6.65,0,0,0-.25.92,4.62,4.62,0,0,1,1.17-1.76c.23.06.7,0,1.57-.47A12.18,12.18,0,0,0,56,24.69a3.82,3.82,0,0,1,1.73-1.32c0-.84,0-1.62,0-2.29ZM38,21.81c-4.73,3.52-2.72,9.17-3,11,2.44-5.29,6.05-4.17,7.58-9.17-.89,1.51-4.84,2.15-6.65,6.09C36.93,27.34,36.45,23.76,38,21.81Zm42.92,0c1.59,1.93,1.12,5.53,2,7.88-1.84-3.94-5.79-4.58-6.65-6.15,1.53,5,5.14,3.91,7.57,9.17C83.65,31,85.67,25.27,80.94,21.81Zm-12.36.72-.33.26.41.22.48.34.06-.29-.2-.3ZM53.65,23.9l.7,0-.81.87-.51.11Zm-7.92.37L48,26.56A15.85,15.85,0,0,0,43.64,37.3H40.39A19,19,0,0,1,45.73,24.27Zm27.58.05a19,19,0,0,1,5.28,13H75.35a15.81,15.81,0,0,0-1.68-6.94l0-.05.22.11.06-.17-.59-1-.7-1-.81-.67c-.28-.33-.56-.67-.87-1ZM61.14,25.64v.64A11.74,11.74,0,0,1,63.8,27a1.78,1.78,0,0,0,.22-.59A11.6,11.6,0,0,0,61.14,25.64Zm-26.95.86c-4.34,6.13.25,9.79.42,12,1.09-4.28,3.69-4.31,5.37-10a8.81,8.81,0,0,1-1.93,1.85A9.39,9.39,0,0,0,34.63,36C34.75,33.27,33.07,29.36,34.19,26.5Zm50.58,0c1.12,2.86-.56,6.77-.47,9.51a9.57,9.57,0,0,0-3.41-5.59A9,9,0,0,1,79,28.57c1.67,5.65,4.27,5.68,5.39,10,.17-2.21,4.76-5.87.42-12ZM50.32,28.41a1,1,0,0,1-.39,0l.31.34c0-.11,0-.25.08-.36Zm18.85.08.78,0,.2.22-.09.34,1.1.67.22,0,1.37,1.6.56-.2A15.15,15.15,0,0,1,74.7,37.3H71.46a10.69,10.69,0,0,0-.3-2.46l.13-.2.2-1-.14-1.09L71,31.26l-.9-1.32.23.12.11-.12-.73-.5,0,.17.72,1,.42.84.28.84.09.56.14.95-.28,0s-.31-.59-.42-.84l.14-.22-.28-.4V32l-.2-.25-.25,0a2.52,2.52,0,0,0-.28-.48l.17.09,0-.06-.08-.2.22-.11L70,31l-.31.11.11-.5-.19-.11-.17.39a16,16,0,0,0-1.17-1.51Zm-18,1.26L53.51,32a7.51,7.51,0,0,0-1.2,1.76h-.17l-.34.09h-.11l-.33.3.44,0,.39-.09-.08.11-.33.23h-.17l-.51.39-.47-.05L49.93,36l.14.25-.39.45-.06.56H48.17a11.13,11.13,0,0,1,3-7.55Zm16.58.08a13.89,13.89,0,0,1,1.43,1.9l-.29.09,0,.5.84.53a9.43,9.43,0,0,1,.53,1.46l-.14.22-.3.22-.09.48-.22.11-.17.22-.17-.08h-.31l.17-.25.14-.64.22-.14-.61-.59-.45.17-.11.44-.28.31-.31-.25-.11-.28.17-.11.09.17.13-.06,0-.28h-.2v.11l-.14,0-.7-.84-.25-.19.08-.09.23-.08-.23-.09-.27.06.14.2h-.37a4.76,4.76,0,0,0-.73-1Zm.39.93-.5.25-.17.31-.11.27.22.37-.08.16-.31.12,0,.25.56-.17L68,32l-.39-.51.2-.31.53.37.08-.09-.11-.08-.11-.22.22-.12Zm-7.86,1.81a17.17,17.17,0,0,0-1.73.51c0,1,.17,8.47.17,9.28a7.41,7.41,0,0,1,.81-.25l.56-.17C60.14,41.41,60.3,33.91,60.33,32.57Zm4.73,0a7.9,7.9,0,0,1,.61.79l-.11.36-.3-.23-.26.06.11.22h.12l-.14.34L65,34l-.36-.11.28-.06v0l-.28-.2.08-.62Zm-7.16.76A1.51,1.51,0,0,0,57,34.59c0,.56.34.92.93,1.25v-.25l-.37-.39.2-.36.17-.06c0-.64,0-1.34,0-1.45Zm-26.28,0c-1.77,7.43,2.93,8.3,4.16,11.43-.19-4.47,2.66-5.37,2.44-10.48-1.26,2.43-3.25,3-3,8C34.13,37.86,31.59,36.18,31.62,33.36Zm55.7,0c0,2.85-2.52,4.5-3.58,9,.22-5.06-1.74-5.59-3-8-.26,5.11,2.63,6,2.43,10.48,1.2-3.1,5.93-4,4.17-11.43ZM70.43,34.47c0,.17.08.34.14.51l-.31.92v.31l.39-.65c.08.56.14,1.15.17,1.71H68L67.91,37l.34-.25,0-.17.14-.11.39-.06,0-.17-.33-.17.58-.3.59-.09.14-.28.33-.19.14-.28ZM50.71,35.93l.7.11.11.11c-.05.37-.08.76-.11,1.12h-.78l-.37-.48.06-.64Zm10.18,1.7c0,.65,0,1.57-.06,2.21.76.28,1.26.65,1.26,1.23s-.75,1.12-1.31,1.35l-.67.22c-.45.14-.9.28-1.34.45a5.52,5.52,0,0,0-.67.27,2.4,2.4,0,0,0-1.54,2,2.56,2.56,0,0,0,1.62,2.18c0-.19,0-1.9,0-1.93a.9.9,0,0,1,.62-.67,11.43,11.43,0,0,1,1.31-.5c.25-.09.45-.17.67-.23,1.65-.5,3.55-1.11,3.55-3.13s-1.62-2.82-3.41-3.44Zm-16.61.28h3.25a5.22,5.22,0,0,0,.08,1l-.39.09-.09.39-.84,1.06,0,1.46-.83.27H45a15.37,15.37,0,0,1-.73-4.22Zm27.18,0H74.7A15.07,15.07,0,0,1,70.43,48L70,47.59l.25-.28L70,46.05,69.81,46l.11-.22-.53-.17-.11.45,0,.56-.12.11-1-1a11.9,11.9,0,0,0,3.33-7.83Zm3.86,0h3.24a19,19,0,0,1-5.42,12.87l-2.27-2.3a15.65,15.65,0,0,0,4.45-10.57Zm-34.93,0h3.25a15.18,15.18,0,0,0,.7,4.17l-.2,0L44,41.89,43,41.8l.28.39L42.46,42l.23-.19-.2-.2-.61.26-.23.38.09.93.7,1.68.33.53.2.05-.53-1L42.32,44l.12-.11-.09-.28.31.06.5.72.12.06v-.53l.19.11.06.28.5.14.22-.17.09.06v.39l.22.28.28.06.62,1,.36.11.11-.47a16.37,16.37,0,0,0,2.24,2.88l-2.29,2.29a18.92,18.92,0,0,1-5.49-12.89Zm7.78,0h1l-.23.78.28.31-.3.48h-.54l0,0a13.43,13.43,0,0,1-.17-1.54Zm1.82,0h.75l.11.22-.16.76-.09.14.28.61-.19.12-.14-.17-.06.05.14.37.22.42H51l.06-.39-.11-.14v-.26l0-.53.17-1-.17-.25h.53a8.1,8.1,0,0,0,2.24,5.15l-2.29,2.26c-.23-.25-.48-.5-.67-.75l.11-.81L50.46,43l-.08-1.23L50,41l.08-.48-.48-.89-.39-.2.17-.47-.17-.37.17-.42h.45Zm18.28,0h2.49a11.32,11.32,0,0,1-3.13,7.38L67.3,45l.13-.45-.25-1-.5.76L66.37,44l.23-.31.3-.61-.11-.17.2-.45,0-.42-.11-.42-.28-.08-.11.22-.17-.05A11.51,11.51,0,0,0,67,40.54l.28-.11.17-.23.08.09.2-.22-.17-.2.14,0,.25.12h.5l.31-.17.78-.23-.14-.25,0-.31.42.2.17-.08-.09-.34-.53.2-.56-.12Zm-16.21.36.47.5H53l.58.4.17-.09.42.31-.19.14.47.31,0-.34.26-.42.27.28.29.4-.51.14.22.44.34-.19-.05-.14.25-.17.14-.7a4.38,4.38,0,0,0,.75,1.15l-2.29,2.29a7.52,7.52,0,0,1-2-4.31ZM38,39.62c-.17,2.65-2,3.94-.76,8.78-2.09-4.11-5.33-5.65-6.29-8.44.06,7.69,6.24,8.83,7.81,11C37.43,46,39.75,44.32,38,39.62Zm42.95,0c-1.76,4.7.56,6.4-.75,11.3,1.56-2.13,7.74-3.27,7.8-11-.95,2.82-4.2,4.33-6.29,8.44C82.9,43.56,81.11,42.27,80.94,39.62Zm-20.08,1c0,.14,0,.78,0,1.12.37-.2.62-.37.62-.64s-.22-.34-.53-.48Zm3.86,3.08.59.41.45.23.22.22-.11.11-.7-.19-.22.08-.39-.31-.37-.14c.2-.14.36-.27.53-.41Zm-4.61,1.42-.39.14-.51.2c-.16.05-.36.14-.36.19s.17,8.61.17,8.78c0,1.76.89,1.79.89,0,0-.11.2-9.31.2-9.31Zm-20.69.34c.44,2-.84,5,1.2,7.85-2.1-2.35-6.57-3-8.39-6.54,2.26,8.75,8.19,7,10.85,8.87C40.9,52.43,42.69,50.33,39.42,45.41Zm40.07,0c-3.28,4.92-1.49,7-3.67,10.18,2.69-1.91,8.59-.12,10.85-8.87-1.81,3.58-6.26,4.19-8.36,6.54,2-2.82.76-5.79,1.18-7.85Zm-36.27.45.59.92,0-.14L43.56,46Zm24.44.36L70,48.51a14,14,0,0,1-2.82,2.12l.3-.64-.11-.28.45-.39V49.1l-.39-.25.31-.65.47-.61-.47-.5h-.37l-.22-.37.56-.5Zm-19.41.84.73.42.14.11-.53.53a8.65,8.65,0,0,1-.7-.78Zm12.45.3,0,1.29A4.19,4.19,0,0,1,63,51.22a3.73,3.73,0,0,0-2.32-3.86ZM42.55,50.61c1.09,1.68,0,3.77,3.41,7-3.36-2-8-1.15-10.26-3.81,3.86,7.38,10.62,4.37,12.52,5.29C46.41,56.59,47.64,55.17,42.55,50.61Zm33.83,0c-5.11,4.56-3.86,6-5.7,8.5,1.93-.92,8.69,2.09,12.52-5.29C81,56.51,76.33,55.64,73,57.63,76.41,54.36,75.29,52.26,76.38,50.61Zm-22,8a25.42,25.42,0,0,0-5.59.84c-3.08.81-5.74,1.46-8.06.28,2.21,2,4.81,2.69,8.56,2.27,3.1-.34,5.62-1.9,8.55-1.88H58a15.52,15.52,0,0,0-4.84,3.78l1.42.19a7.76,7.76,0,0,1,4.92-3.77,7.79,7.79,0,0,1,4.93,3.77l1.42-.19A15.52,15.52,0,0,0,61,60.14h.12c2.93,0,5.45,1.54,8.55,1.88,3.75.39,6.32-.31,8.56-2.27-2.32,1.18-5,.53-8-.28a25.6,25.6,0,0,0-5.59-.84,13.86,13.86,0,0,0-5.1.87,13.76,13.76,0,0,0-5.08-.87Zm-10.1,9.45V80.41h2V68.08Zm8.31,0v5.1h0a2.28,2.28,0,0,0-2.19-1.36c-1.82,0-2.92,1.6-2.92,4.38,0,2.34.87,4.34,3,4.34a2.3,2.3,0,0,0,2.25-1.44h0c0,.43,0,.88.06,1.31h1.92c0-.47-.07-1-.07-1.44V68.08Zm32.72,0V80.41h2V68.08Zm8.75,0V80.41h2V75.48c0-1.09.39-2,1.44-2,.84,0,1.18.54,1.18,1.85v5.07h2V75c0-1.72-.58-3.14-2.5-3.14A2.28,2.28,0,0,0,96.13,73h0v-5Zm-76,.86,2.34,11.49h2.48L24.67,71h0l1.73,9.42H29l2.37-11.49H29.41l-1.7,8.85h0L26,68.94H23.41l-1.74,8.85h0L20,68.94Zm42.65,0V80.41h2.12V75.34h3.4v5.09h2.1V68.94h-2.1V73.6h-3.4V68.94Zm31,.63-2,.63h0V72H88.31v1.49h1.35v4.61c0,1.78.86,2.48,2.37,2.48a3.38,3.38,0,0,0,1.37-.27V78.83a1.65,1.65,0,0,1-.77.18c-.58,0-.92-.27-.92-1.17V73.42H93.4V71.94H91.71ZM34.29,71.8c-1.71,0-3.71.9-3.74,4.35s2,4.37,3.74,4.37S38,79.71,38,76.15,36,71.8,34.29,71.8Zm45.91,0a6.28,6.28,0,0,0-2.69.63l.14,1.62A4,4,0,0,1,80,73.22a1.47,1.47,0,0,1,1.58,1.62v.32h-.41c-2.59,0-4.46.59-4.46,2.88a2.43,2.43,0,0,0,2.53,2.48,2.71,2.71,0,0,0,2.36-1.28h0a4.12,4.12,0,0,0,.11,1.15h1.85a12.6,12.6,0,0,1-.11-1.49V75.2c0-2.11-.61-3.4-3.24-3.4Zm-37.14,0a2.35,2.35,0,0,0-2.16,1.67h0c0-.52,0-1-.06-1.55H39c0,.47.07.92.07,1.39l0,7.1h2V75.79c0-1.58.92-2.09,1.75-2.09a2.8,2.8,0,0,1,.57.08V71.87a2,2,0,0,0-.34-.05Zm29.77,0c-2.16,0-3.5,2-3.5,4.49,0,2.28,1.2,4.23,3.93,4.23A6.13,6.13,0,0,0,75.78,80l-.07-1.58a3.49,3.49,0,0,1-2.23.65c-1.58,0-2.16-.88-2.16-2.32h4.89v-.41c0-3.47-1.56-4.53-3.38-4.53Zm0,1.38c.93,0,1.43.77,1.43,2.25H71.3c0-1.12.42-2.25,1.5-2.25Zm-38.51.07c1.33,0,1.63,1.48,1.63,2.9s-.32,2.93-1.63,2.93-1.62-1.51-1.62-2.93S33,73.27,34.29,73.27Zm16.7,0c1.13,0,1.58,1.2,1.58,2.84S52.16,79,51,79s-1.49-1-1.51-2.92c0-1.69.41-2.8,1.53-2.8Zm30.35,3h.21v.5c0,1.51-.45,2.41-1.67,2.41h-.16a1.24,1.24,0,0,1-1.15-1.31c0-1.24,1-1.6,2.77-1.6ZM57.86,83.05v2H60v-2Zm24.09,0v2h2.1v-2Zm-59.24.42c-2.39,0-4.57,1.78-4.57,5.91s2.18,5.9,4.57,5.9,4.58-1.78,4.58-5.9S25.1,83.47,22.71,83.47ZM79,84.29l-2,.63,0,1.73H75.62v1.49H77v4.64c0,1.76.86,2.46,2.37,2.46A3,3,0,0,0,80.71,95V93.53a1.5,1.5,0,0,1-.76.18c-.59,0-.93-.28-.93-1.18V88.14h1.69V86.65H79Zm-56.31.81c1.33,0,2.41,1.1,2.41,4.28s-1.08,4.3-2.41,4.3-2.41-1.15-2.41-4.3S21.38,85.1,22.71,85.1Zm22,1.42a5.81,5.81,0,0,0-2.68.63l.13,1.62a4.06,4.06,0,0,1,2.32-.84,1.47,1.47,0,0,1,1.58,1.63v.31h-.41c-2.59,0-4.46.59-4.46,2.89a2.43,2.43,0,0,0,2.52,2.48A2.72,2.72,0,0,0,46.1,94h0a4.06,4.06,0,0,0,.12,1.15h1.84A12.29,12.29,0,0,1,48,93.61V89.92c0-2.12-.61-3.4-3.24-3.4Zm26.81,0a5.86,5.86,0,0,0-2.68.63L69,88.77a4,4,0,0,1,2.32-.84,1.47,1.47,0,0,1,1.58,1.63v.31h-.41c-2.59,0-4.46.59-4.46,2.89a2.43,2.43,0,0,0,2.52,2.48A2.72,2.72,0,0,0,72.92,94h0a4,4,0,0,0,.11,1.15H74.9a10.56,10.56,0,0,1-.11-1.49V89.92c0-2.12-.61-3.4-3.25-3.4Zm17.35,0c-1.71,0-3.71.92-3.74,4.34,0,3.57,2,4.38,3.74,4.38s3.72-.81,3.72-4.38S90.63,86.52,88.89,86.52Zm-56.72,0A2.37,2.37,0,0,0,30,88.21h0c0-.52,0-1-.07-1.56H28.08c0,.47.06.93.06,1.4v7.1h2V90.51c0-1.58.92-2.1,1.76-2.1a2.2,2.2,0,0,1,.58.09V86.58a1.86,1.86,0,0,0-.34,0Zm3.93,0c-2.23,0-3.07,2-3.07,4.39,0,3.43,1.78,4.22,2.95,4.22a2.35,2.35,0,0,0,2.24-1.44h0v.81c0,1.33-.32,2.65-2.24,2.65a5.09,5.09,0,0,1-2.5-.72l-.08,1.81a8.39,8.39,0,0,0,2.9.51c3.11,0,3.92-1.86,3.92-4.52V88c0-.45,0-.88.07-1.33H38.46c0,.43-.06.86-.06,1.31h-.07a2.4,2.4,0,0,0-2.23-1.44Zm17.71,0A2.47,2.47,0,0,0,51.55,88h0c0-.43,0-.88-.06-1.31H49.55c0,.47.07.93.07,1.4v7h2V90.17c0-1.08.38-2,1.44-2,.83,0,1.17.54,1.17,1.85v5.09h2.05V89.67c0-1.71-.59-3.13-2.5-3.13Zm44.61,0A2.46,2.46,0,0,0,96.17,88h0c0-.43-.05-.88-.07-1.31H94.17c0,.47.07.93.07,1.4l0,7h2V90.17c0-1.08.38-2,1.44-2,.83,0,1.17.54,1.17,1.85v5.09h2V89.67c0-1.71-.59-3.13-2.51-3.13Zm-40.51.11v8.47h2V86.65Zm3.74,0v1.56h3.52l-3.63,5.16h0v1.75h5.8V93.57H63.63l3.56-5.18V86.65Zm20.35,0,0,8.47h2V86.65ZM88.89,88c1.33,0,1.62,1.49,1.62,2.91s-.31,2.93-1.62,2.93-1.62-1.51-1.62-2.93S87.56,88,88.89,88Zm-52.27.11c1,0,1.64.93,1.64,2.71s-.52,2.84-1.8,2.84c-.7,0-1.33-.84-1.33-2.82C35.13,89.11,35.53,88.12,36.62,88.09ZM45.88,91h.18l0,.5c0,1.51-.45,2.4-1.67,2.4h-.16a1.24,1.24,0,0,1-1.15-1.3c0-1.24,1-1.6,2.78-1.6Zm26.81,0h.21v.5c0,1.51-.46,2.4-1.67,2.4h-.16a1.22,1.22,0,0,1-1.15-1.3c0-1.24,1-1.6,2.77-1.6Z" fill="#6b7688"/></svg>