<svg width="24" height="24" viewBox="0 0 24 24" fill="none" xmlns="http://www.w3.org/2000/svg">
<path d="M12 3.59961C15.116 3.59963 17.6504 6.13395 17.6504 9.25C17.6504 12.366 15.116 14.9004 12 14.9004C8.88395 14.9004 6.34963 12.366 6.34961 9.25C6.34961 6.13393 8.88393 3.59961 12 3.59961ZM12 4.81641C9.55561 4.81641 7.56641 6.80561 7.56641 9.25C7.56643 11.6944 9.55563 13.6836 12 13.6836C14.4444 13.6836 16.4336 11.6944 16.4336 9.25C16.4336 6.80563 14.4444 4.81643 12 4.81641Z" fill="white" stroke="white" stroke-width="0.3"/>
<path d="M12 0.849609C16.6322 0.849645 20.3994 4.61873 20.3994 9.25C20.3994 11.6583 19.3736 13.8235 17.7451 15.3564L20.3604 22.3271V22.3281C20.4366 22.5328 20.398 22.7608 20.2617 22.9268L20.1982 22.9932C20.0842 23.0962 19.9393 23.1493 19.792 23.1494C19.6995 23.1494 19.6068 23.1286 19.5195 23.085L16.1689 21.4102L13.7119 23.0479C13.5733 23.1405 13.4052 23.1702 13.2461 23.1357L13.1777 23.1172C12.9996 23.0554 12.8587 22.9142 12.7979 22.7344L12.7969 22.7334L12.0459 20.4814L11.1943 22.7568C11.1294 22.9311 10.988 23.0641 10.8125 23.1211L10.8105 23.1221C10.6361 23.1762 10.4425 23.1516 10.2881 23.0488L7.83008 21.4111L4.48047 23.0859L4.47949 23.0869C4.39307 23.1289 4.30036 23.1494 4.20801 23.1494C4.06055 23.1493 3.91614 23.0962 3.80176 22.9951L3.80078 22.9932C3.61633 22.8257 3.5514 22.5636 3.63867 22.3291V22.3281L6.25293 15.3555C4.62564 13.8234 3.59963 11.6571 3.59961 9.25C3.59961 4.6187 7.36778 0.849609 12 0.849609ZM5.32129 21.3057L7.60254 20.165C7.77277 20.0783 7.97315 20.0812 8.1416 20.1631L8.21191 20.2021V20.2031L10.3242 21.6104L11.4307 18.6621C11.4321 18.6582 11.435 18.655 11.4365 18.6514L11.084 17.5967C9.66892 17.4415 8.36412 16.9312 7.24902 16.1621L5.32129 21.3057ZM16.748 16.1631C15.4936 17.028 13.9967 17.5592 12.3789 17.6318L13.6992 21.5928L15.7861 20.2021C15.9672 20.0807 16.2006 20.0661 16.3955 20.1641L18.6768 21.3047L16.748 16.1631ZM12 2.06641C8.03947 2.06641 4.81641 5.28947 4.81641 9.25C4.81644 13.2105 8.03949 16.4336 12 16.4336C15.9605 16.4336 19.1836 13.2105 19.1836 9.25C19.1836 5.28949 15.9605 2.06644 12 2.06641Z" fill="white" stroke="white" stroke-width="0.3"/>
</svg>
