<svg width="24" height="24" viewBox="0 0 24 24" fill="none" xmlns="http://www.w3.org/2000/svg">
<g clip-path="url(#clip0_18_17073)">
<path d="M8.03711 13.288H15.963L12 6.91602L8.03711 13.288Z" fill="white"/>
<path d="M11.2968 14.6953H7.39127L6.18616 24.0004H8.79634L11.2968 17.6176V14.6953Z" fill="white"/>
<path d="M17.619 13.2893H22.1716L21.9696 12.0007L14.1436 7.70117L17.619 13.2893Z" fill="white"/>
<path d="M10.3068 24.0001H13.6934L12.0001 19.6777L10.3068 24.0001Z" fill="white"/>
<path d="M0.149414 24.0004H4.7682L5.9733 14.6953H1.60802L0.149414 24.0004Z" fill="white"/>
<path d="M22.392 14.6953H18.0267L19.2318 24.0004H23.8506L22.392 14.6953Z" fill="white"/>
<path d="M9.85658 7.70117L2.03048 12.0008L1.82849 13.2894H6.38113L9.85658 7.70117Z" fill="white"/>
<path d="M12.7031 14.6953V17.6176L15.2036 24.0004H17.8138L16.6087 14.6953H12.7031Z" fill="white"/>
<path d="M21.9696 7.9668H20.5634V9.62298L21.9696 10.3956V7.9668Z" fill="white"/>
<path d="M12 4.91836L12.6771 5.29036L12.7031 5.30466V3.58809H17.0048L16.5069 1.79405L17.0048 0H12.7031H12H11.2969V5.30466L11.3229 5.29036L12 4.91836Z" fill="white"/>
<path d="M3.43677 7.9668H2.03052V10.3956L3.43677 9.62298V7.9668Z" fill="white"/>
</g>
<defs>
<clipPath id="clip0_18_17073">
<rect width="24" height="24" fill="white"/>
</clipPath>
</defs>
</svg>
