<?xml version="1.0" encoding="UTF-8"?>
<svg id="Layer_1" xmlns="http://www.w3.org/2000/svg" version="1.1" viewBox="0 0 500 500">
  <!-- Generator: Adobe Illustrator 29.7.1, SVG Export Plug-In . SVG Version: 2.1.1 Build 8)  -->
  <defs>
    <style>
      .st0 {
        fill: #a9bbc1;
      }

      .st1 {
        fill: #e92829;
      }

      .st2 {
        fill: #3c539f;
      }
    </style>
  </defs>
  <path class="st0" d="M249.93,65.48c4.03-.86,8.19,2.75,7.63,6.85,0,4.47-5.44,7.35-9.34,5.36-3.69-1.57-4.79-6.69-2.38-9.75.98-1.28,2.44-2.27,4.09-2.46"/>
  <path class="st0" d="M308.31,75.83c4.49-.45,8.63,4.41,6.64,8.66-1.31,4.97-8.73,5.72-11.45,1.58-2.96-3.8-.03-10,4.81-10.24"/>
  <path class="st0" d="M186.69,76.39c4.2-1.96,9.1,1.89,8.82,6.29,0,4.26-4.99,7.39-8.91,5.78-3.52-1.25-5.31-5.86-3.46-9.1.72-1.42,2.01-2.52,3.55-2.98"/>
  <path class="st0" d="M247.72,88.89c4.71-1.65,10.33,1.11,11.89,5.8,1.74,4.6-.85,10.24-5.55,11.89-4.89,1.99-11.01-.93-12.44-5.97-1.59-4.7,1.28-10.3,6.1-11.72"/>
  <path class="st0" d="M196.01,97.6c4.85-1.11,10.14,2.14,11.18,6.98,1.5,5.36-2.89,11.25-8.47,11.56-4.56.44-9.11-2.88-10-7.34-1.24-4.9,2.28-10.3,7.29-11.2"/>
  <path class="st0" d="M297.24,97.63c5.11-1.6,11.01,2.12,11.83,7.33,1.13,5.11-2.91,10.55-8.16,11.02-5.26.79-10.51-3.56-10.62-8.83-.27-4.27,2.76-8.44,6.95-9.52"/>
  <path class="st0" d="M134.9,106.32c4.07-1.46,8.59,2.18,8.46,6.33.06,3.57-3.45,6.7-7.01,6.37-3.84-.16-7.01-4.3-5.93-8,.49-2.22,2.39-3.94,4.48-4.69"/>
  <path class="st0" d="M358.86,106.29c3.73-1.52,8.25,1.39,8.7,5.27.61,3.73-2.81,7.55-6.63,7.37-3.35-.05-6.46-3.02-6.44-6.37-.12-2.73,1.85-5.32,4.37-6.26"/>
  <path class="st0" d="M247.17,117.81c4.7-1.25,10.01.28,13.32,3.78,3.97,4.02,4.98,10.55,2.36,15.54-2.23,4.42-6.99,7.46-11.99,7.5-4.55.14-9.07-2.14-11.63-5.86-2.81-3.92-3.23-9.34-1.08-13.65,1.71-3.61,5.12-6.35,9.01-7.31"/>
  <path class="st0" d="M151.94,123.17c5.53-1.22,11.35,3.42,11.26,9.04.23,5.14-4.51,9.84-9.72,9.54-5.23.03-9.76-4.89-9.2-10.05.24-4.13,3.55-7.81,7.66-8.54"/>
  <path class="st0" d="M341.25,123.23c5.62-1.96,12.17,2.6,12.28,8.49.43,5.45-4.74,10.44-10.24,9.86-4.52-.37-8.53-4.21-8.68-8.75-.39-4.22,2.54-8.4,6.64-9.59"/>
  <path class="st0" d="M207.55,124.35c5.51-.93,11.56,1.73,14.22,6.67.89,2.29,2.04,4.62,1.87,7.14-.06,4.84-3,9.47-7.33,11.7-3.96,2.13-8.95,2.06-12.9-.06-2.97-1.52-5.14-4.22-6.62-7.13-.93-3.43-.98-7.23.6-10.49,1.82-4.05,5.73-7.11,10.16-7.83"/>
  <path class="st0" d="M288.38,124.33c3.51-.02,7.03,1.33,9.57,3.73,3.36,3.07,5.01,7.93,4.05,12.37-.86,2.41-1.54,5.03-3.48,6.85-2.74,2.92-6.83,4.55-10.85,4.26-4.94-.25-9.59-3.37-11.61-7.84-1.58-3.15-1.58-6.84-.78-10.2,2.11-5.18,7.31-9.24,13.09-9.18"/>
  <path class="st0" d="M174.56,143.9c4.38-.37,9.02,1.39,11.58,5.03,4.84,4.93,4.17,13.54-.74,18.19-3.21,3.27-8.18,4.68-12.66,3.67-2.94-.59-5.49-2.32-7.67-4.28-2.74-3.73-4.01-8.71-2.48-13.19,1.56-5.16,6.56-9.01,11.97-9.42"/>
  <path class="st0" d="M319.79,144.45c4.28-.97,9.02.3,12.22,3.3,3.93,3.58,5.47,9.51,3.63,14.5-.74,2.44-2.69,4.21-4.33,6.06-2.75,2.31-6.49,3.35-10.06,2.99-5.48-.47-10.41-4.59-11.83-9.84-1.33-4.37-.01-9.17,2.65-12.77,2.17-1.99,4.78-3.66,7.72-4.24"/>
  <path class="st0" d="M397.42,152.15c4.32-1.8,9.27,2.34,8.72,6.79-.31,3.88-4.69,6.72-8.41,5.57-3.69-1.03-5.87-5.68-4.05-9.09.68-1.6,2.2-2.58,3.74-3.27"/>
  <path class="st0" d="M95.86,152.65c3.32-1.27,7.46.85,8.44,4.21,1.12,3.21-.99,7.1-4.24,8.11-3.33,1.18-7.42-1.01-8.35-4.37-.97-3.15.99-6.91,4.15-7.94"/>
  <path class="st0" d="M374.84,161.9c4.42-.99,9.24,1.59,10.79,5.81,1.7,4.05-.06,9.11-3.87,11.33-3.28,2.12-7.85,1.81-10.87-.62-3.44-2.63-4.61-7.73-2.57-11.55,1.23-2.55,3.76-4.38,6.52-4.98"/>
  <path class="st0" d="M118.95,162.44c5.52-1.26,11.43,3.36,11.31,9,.28,4.84-3.9,9.34-8.77,9.57-4.77.45-9.4-3.24-10.04-7.92-.88-4.78,2.67-9.78,7.5-10.64"/>
  <path class="st0" d="M147.03,174.46c3.37-.85,7.08-.32,9.95,1.66,3.91,1.8,6.37,5.89,6.86,10.04.61,5.01-1.84,10.26-6.15,12.98-4.28,2.83-10.01,2.76-14.54.57-3.85-2.71-6.86-7.04-6.71-11.87-.23-6.2,4.48-12.07,10.58-13.37"/>
  <path class="st0" d="M345.63,174.42c3.35-.52,6.9.14,9.73,2.03,4.61,2.92,7.16,8.76,5.96,14.08-.66,3.11-2.35,6.15-5.03,7.97-1.9,1.03-3.68,2.43-5.87,2.73-4.57.95-9.54-.74-12.67-4.13-3.56-3.71-4.64-9.46-2.73-14.19,1.02-2.73,3.09-4.9,5.33-6.72,1.54-1.1,3.48-1.34,5.29-1.76"/>
  <path class="st0" d="M147.61,299.27c5.14-.99,10.75,1.18,13.75,5.46,4.13,5.49,3.15,14.03-2.32,18.29-2.1,1.23-4.16,2.78-6.66,3.09-5.1.89-10.6-1.44-13.52-5.67-2.96-4.13-3.27-9.97-.75-14.38.99-1.83,2.53-3.27,4.05-4.67,1.48-1.35,3.55-1.67,5.44-2.13"/>
  <path class="st0" d="M345.12,299.17c3.34-.76,6.96-.07,9.76,1.88,7.37,3.63,8.87,14.46,3.39,20.34-4.17,5.08-11.91,6.01-17.59,3.04-3.82-2.71-6.69-7.06-6.59-11.84-.2-6.33,4.75-12.27,11.03-13.42"/>
  <path class="st0" d="M120.07,319.37c5.16-.54,10.17,3.84,10.19,8.99.41,5.28-4.54,10.13-9.85,9.72-4.89-.06-9.15-4.46-9.08-9.29-.12-4.76,3.92-9.15,8.74-9.42"/>
  <path class="st0" d="M376.5,319.9c5.62-.31,10.65,5.14,9.67,10.67-.57,4.66-5.09,8.48-9.86,8.06-5.03-.07-9.32-4.75-8.99-9.71.09-4.78,4.34-8.98,9.19-9.02"/>
  <path class="st0" d="M320.35,329.17c3.83-.6,7.98.36,10.95,2.88,1.64,1.87,3.62,3.63,4.34,6.08,1.83,4.98.3,10.91-3.64,14.49-3.28,3.07-8.17,4.32-12.54,3.23-2.82-.62-5.28-2.27-7.4-4.17-2.58-3.51-3.92-8.13-2.75-12.4,1.22-5.14,5.78-9.26,11.03-10.11"/>
  <path class="st0" d="M172.32,329.68c4.71-1.21,10.01.3,13.32,3.83,4.82,4.81,5.21,13.46.21,18.28-4.87,6.52-15.76,6.06-20.71-.13-4.48-5.02-4.05-13.05.18-18.07,2.06-1.69,4.34-3.29,6.99-3.91"/>
  <path class="st0" d="M96.97,335.17c4.22-.85,8.25,3.27,7.56,7.38-.47,3.71-4.7,6.41-8.3,5.3-3.53-.91-5.74-5.19-4.36-8.55.74-2.21,2.92-3.59,5.1-4.13"/>
  <path class="st0" d="M398.51,335.69c3-.49,6.31,1.4,7.29,4.28,1.29,3.31-.91,7.43-4.34,8.36-3.24,1.08-7.12-.99-8.11-4.2-1.28-3.55,1.37-7.91,5.15-8.44"/>
  <path class="st0" d="M206.95,349.28c4.57-1.1,9.62.47,12.85,3.82,3.63,3.66,5.02,9.57,2.75,14.29-2.27,7.74-12.58,11.14-19.4,7.06-5.97-3.23-8.52-10.92-6.2-17.14,2.05-3.88,5.55-7.17,9.99-8.04"/>
  <path class="st0" d="M284.63,349.34c5.87-1.83,12.83.89,15.75,6.27.66,1.6,1.33,3.22,1.75,4.91.63,4.27-.93,8.82-4.15,11.77-3.77,3.59-9.7,4.78-14.55,2.78-3.65-1.38-6.41-4.45-8.05-7.89-.96-3.44-.93-7.28.68-10.54,1.6-3.52,4.83-6.22,8.56-7.3"/>
  <path class="st0" d="M248.83,355.84c7.05-1.05,14.26,4.23,15.28,11.22,1.38,6.9-3.59,14.22-10.55,15.59-5.64,1.37-11.94-1.37-14.84-6.34-2.31-3.78-2.58-8.69-.66-12.69,1.91-4.21,6.14-7.23,10.76-7.79"/>
  <path class="st0" d="M150.84,359.06c5.34-1.89,11.62,2.08,12.26,7.63.95,5.31-3.66,10.72-9.1,10.66-4.94.34-9.51-3.87-9.72-8.72-.42-4.2,2.5-8.37,6.56-9.57"/>
  <path class="st0" d="M341.8,359.08c5.51-1.59,11.56,2.92,11.73,8.55.46,5.28-4.36,10.18-9.68,9.93-5.22.02-9.74-4.88-9.23-10.02.15-4,3.29-7.58,7.19-8.47"/>
  <path class="st0" d="M135.48,381.47c3.64-.85,7.61,2.08,7.86,5.77.34,3.36-2.43,6.77-5.85,7.07-3.31.43-6.7-2.21-7.18-5.47-.62-3.28,1.91-6.73,5.17-7.37"/>
  <path class="st0" d="M360.55,381.46c3.96-.43,7.67,3.51,7,7.39-.43,3.32-3.84,6.04-7.23,5.58-3.38-.36-6.2-3.67-5.81-7.04.2-3.07,3-5.66,6.04-5.93"/>
  <path class="st0" d="M197.68,384.2c4.62-.2,8.96,3.4,9.64,7.92,1.08,5.21-3.32,10.7-8.71,10.8-5.23.56-10.14-3.99-10.12-9.15-.22-4.99,4.17-9.51,9.19-9.57"/>
  <path class="st0" d="M297.19,384.69c5.18-1.67,11.11,2.09,11.91,7.39,1.29,5.9-4.4,11.83-10.4,10.97-4.44-.45-8.17-4.32-8.4-8.74-.35-4.28,2.67-8.57,6.9-9.61"/>
  <path class="st0" d="M248.3,393.48c3.19-.79,6.79.1,9.09,2.47,2.76,2.67,3.53,7.08,1.9,10.53-1.61,3.56-5.6,5.86-9.53,5.42-4.63-.33-8.53-4.47-8.55-9.07-.24-4.28,2.92-8.34,7.1-9.36"/>
  <path class="st0" d="M186.6,411.91c2.94-1.18,6.76.24,8.17,3.07,1.75,3.11.18,7.58-3.15,8.94-3.11,1.45-7.31-.11-8.65-3.27-1.54-3.21.23-7.55,3.63-8.74"/>
  <path class="st0" d="M307.06,411.88c4.52-1.73,9.25,2.98,8.27,7.45-.66,3.94-5.56,6.4-9.16,4.62-3.47-1.45-4.98-6.21-2.88-9.32.78-1.43,2.23-2.32,3.77-2.75"/>
  <path class="st0" d="M249.28,422.28c4.03-1.21,8.66,2.09,8.29,6.36.24,4.41-4.85,7.59-8.88,5.95-3.67-1.26-5.2-5.96-3.36-9.23.85-1.47,2.29-2.61,3.94-3.08"/>
  <path class="st1" d="M219.5,167.79c16.49-5.86,34.74-6.66,51.71-2.35-3.26,13.82-6.64,27.6-9.88,41.42-10.37-2.83-21.76-1.93-31.49,2.65-15.41,6.96-26.08,23.06-26.22,39.86-.35,10.91,3.6,21.87,10.72,30.18,6.58,7.75,15.87,13.19,25.92,15.14-3.3,13.81-6.58,27.63-9.93,41.42-15.43-3.37-29.95-10.83-41.49-21.54-15.36-14.06-25.36-33.69-27.64-54.27-2.44-20.57,2.86-41.91,14.63-59.02,10.45-15.39,25.99-27.31,43.65-33.48"/>
  <path class="st2" d="M271.21,165.44c5.16,1.35,10.22,3.09,15.07,5.32-3.44,14.37-6.71,28.77-10.14,43.14-4.49-3.15-9.48-5.62-14.81-7.04,3.25-13.82,6.62-27.6,9.88-41.42"/>
  <path class="st2" d="M290.96,173.05c14.28,7.54,26.4,19.05,34.59,32.88,8.36,14.03,12.66,30.42,12.19,46.72-.35,15.88-5.25,31.61-13.9,44.97-7.48,11.6-17.76,21.42-29.76,28.38-12.4,7.25-26.62,11.39-41.01,12.02-.2-.05-.6-.14-.81-.19,1.48-5.21,2.5-10.55,3.82-15.81,2.18-9.47,4.48-18.92,6.6-28.41,6.63-2.16,12.86-5.63,17.9-10.44,7.23-6.74,12.11-15.91,13.65-25.62,2.42-14.44-2.77-29.92-13.65-39.87,3.27-14.91,6.92-29.74,10.35-44.63"/>
  <path class="st2" d="M232.96,222.97c7.23-6.94,19.57-7.07,27.52-1.26,6.44,4.6,8.95,14.26,4.59,21.05-1.64,2.6-4.16,4.63-7,5.83,3.37,1.04,6.74,2.6,8.94,5.47,3.46,4.19,4.08,9.97,3.24,15.16-1.4,7.75-7.81,14.14-15.4,16.18-5.51,1.39-11.57,1.29-16.82-1-6.78-2.94-11.45-9.8-11.93-17.07,2.78-.44,5.57-.76,8.36-1.16.82,3.73,2.08,7.63,5.03,10.28,2.89,2.63,7.08,3.44,10.89,2.75,5.44-.87,9.99-5.41,11.02-10.74.6-3.24.3-6.74-1.35-9.65-1.89-3.31-5.34-5.72-9.15-6.24-2.81-.48-5.66.05-8.38.74.3-2.38.61-4.76.88-7.16,4.52.06,9.36-.94,12.69-4.17,3.9-4.17,3.37-11.6-1.14-15.14-4.43-3.54-11.58-3.23-15.63.77-2.39,2.37-3.45,5.68-3.99,8.9-2.83-.44-5.64-.91-8.44-1.52.93-4.42,2.71-8.84,6.08-12"/>
  <path class="st2" d="M240.27,294.69c5.57,1.08,11.37,1.17,16.96.15-3.37,14.4-6.78,28.78-10.09,43.19-5.65-.01-11.27-.81-16.81-1.92,3.36-13.79,6.64-27.61,9.93-41.42"/>
</svg>