<?xml version="1.0" encoding="UTF-8"?>
<svg id="Layer_1" data-name="Layer 1" xmlns="http://www.w3.org/2000/svg" viewBox="0 0 120 120">
  <defs>
    <style>
      .cls-1 {
        fill: #88817e;
      }

      .cls-2 {
        fill: #c09778;
      }

      .cls-3 {
        fill: #607576;
      }
    </style>
  </defs>
  <path class="cls-1" d="m110,55.72l8.03,8.25c.06.06.16.02.16-.07v-2.61s0-.05-.03-.07l-3.4-3.47c-.11-.11-.03-.3.13-.3h3.16c.08.01.14-.05.14-.13v-1.75c0-.08-.06-.14-.14-.14h-7.92c-.16,0-.24.18-.13.29"/>
  <path class="cls-3" d="m118.09,67l-5.8-5.7c-.11-.11-.3-.03-.3.12l-.04,10.31c0,.16.19.24.3.13l1.69-1.65s.05-.08.05-.13l.02-3.89c0-.16.19-.23.3-.13l2.97,2.92c.07.07.07.18,0,.25l-3.3,3.19h0s-2.27,2.23-2.27,2.23c-.1.1-.03.26.11.26,1.59,0,3.11-.62,4.25-1.73l.11-.11c1.28-1.25,2.01-2.97,2.01-4.76v-1.1c0-.09-.03-.17-.1-.23"/>
  <path class="cls-3" d="m104.71,52.96l10.57.04c.16,0,.24-.19.12-.3l-1.68-1.64s-.08-.05-.12-.05l-3.99-.02c-.16,0-.24-.19-.12-.3l2.99-2.89c.07-.07.18-.07.25,0l3.27,3.21h0l2.03,2c.06.06.17.02.17-.07,0-1.62-.65-3.17-1.8-4.31l-.11-.11c-1.27-1.25-2.97-1.95-4.75-1.95h-.41c-.15,0-.29.06-.4.16l-6.13,5.93c-.11.11-.04.3.12.3"/>
  <path class="cls-2" d="m100.15,60.86l3.98-3.88c.06-.05.15-.05.2,0l3.53,3.44c.06.06.06.15,0,.21l-3.98,3.88c-.06.05-.15.05-.2,0l-3.53-3.44c-.06-.06-.06-.15,0-.21m3.98-6.01l-6.16,6.01c-.06.06-.06.15,0,.21l5.7,5.56c.06.05.15.05.2,0l6.16-6.01c.06-.06.06-.15,0-.21l-5.7-5.56c-.06-.05-.15-.05-.2,0"/>
  <path class="cls-1" d="m109.2,66.72l-8.25,8.03c-.06.06-.02.16.07.16h2.61s.05,0,.07-.03l3.47-3.4c.11-.11.3-.03.3.13v3.16c-.01.08.05.14.13.14h1.75c.08,0,.14-.06.14-.14v-7.92c0-.16-.18-.24-.29-.13"/>
  <path class="cls-1" d="m98.01,65.77l-8.03-8.25c-.06-.06-.16-.02-.16.07v2.61s0,.05.03.07l3.4,3.47c.11.11.03.3-.13.3h-3.16c-.08-.01-.14.05-.14.13v1.75c0,.08.06.14.14.14h7.92c.16,0,.24-.18.13-.29"/>
  <path class="cls-3" d="m89.93,54.49l5.8,5.7c.11.11.3.03.3-.12l.04-10.31c0-.16-.19-.24-.3-.13l-1.69,1.65s-.05.08-.05.13l-.02,3.89c0,.16-.19.23-.3.13l-2.97-2.92c-.07-.07-.07-.18,0-.25l3.3-3.19h0s2.27-2.23,2.27-2.23c.1-.1.03-.26-.11-.26-1.59,0-3.11.62-4.25,1.73l-.11.11c-1.28,1.25-2.01,2.97-2.01,4.76v1.1c0,.09.03.17.1.23"/>
  <path class="cls-3" d="m103.32,68.53l-10.57-.04c-.16,0-.24.19-.12.3l1.68,1.64s.08.05.12.05l3.99.02c.16,0,.24.19.12.3l-2.99,2.89c-.07.07-.18.07-.25,0l-3.27-3.21h0l-2.03-2c-.07-.06-.17-.02-.17.07,0,1.62.65,3.17,1.8,4.31l.11.11c1.27,1.25,2.97,1.95,4.75,1.95h.41c.15,0,.29-.06.4-.16l6.13-5.93c.11-.11.04-.3-.12-.3"/>
  <path class="cls-1" d="m98.82,54.76l8.25-8.03c.06-.06.02-.16-.07-.16h-2.61s-.05,0-.07.03l-3.47,3.4c-.11.11-.3.03-.3-.13v-3.16c.01-.08-.05-.14-.13-.14h-1.75c-.08,0-.14.06-.14.14v7.92c0,.16.18.24.29.13"/>
  <rect class="cls-3" x="1.81" y="62.91" width=".79" height="6.09"/>
  <polygon class="cls-3" points="5.57 63.6 3.64 63.6 3.64 62.91 8.29 62.91 8.29 63.6 6.36 63.6 6.36 69 5.57 69 5.57 63.6"/>
  <polygon class="cls-3" points="9.32 62.91 10.11 62.91 10.11 65.64 13.63 65.64 13.63 62.91 14.43 62.91 14.43 69 13.63 69 13.63 66.33 10.11 66.33 10.11 69 9.32 69 9.32 62.91"/>
  <path class="cls-3" d="m18.58,66.74h-1.69v2.26h-.79v-6.09h2.59c.3,0,.57.05.81.14.25.09.46.22.64.39.18.17.32.37.42.61.1.24.15.5.15.78,0,.23-.03.44-.09.63-.06.2-.15.37-.26.52-.11.15-.25.29-.41.4-.16.11-.34.2-.54.26l1.44,2.36h-.92l-1.34-2.26Zm.09-.69c.18,0,.34-.03.5-.09.15-.06.28-.14.39-.25.11-.11.2-.23.26-.38.06-.15.09-.32.09-.5s-.03-.35-.1-.5c-.06-.15-.15-.28-.26-.39-.11-.11-.24-.19-.4-.25-.15-.06-.32-.09-.5-.09h-1.76v2.44h1.78Z"/>
  <path class="cls-3" d="m25.67,67.63h-3.08l-.58,1.37h-.84l2.58-6.09h.76l2.58,6.09h-.84l-.58-1.37Zm-2.79-.69h2.5l-1.22-2.89-.03-.11-.03.11-1.22,2.89Z"/>
  <path class="cls-3" d="m31.71,67.63h-3.08l-.58,1.37h-.84l2.58-6.09h.76l2.58,6.09h-.84l-.58-1.37Zm-2.79-.69h2.5l-1.22-2.89-.03-.11-.03.11-1.22,2.89Z"/>
  <path class="cls-3" d="m39.99,67.63h-3.08l-.58,1.37h-.84l2.58-6.09h.76l2.58,6.09h-.84l-.58-1.37Zm-2.79-.69h2.5l-1.22-2.89-.03-.11-.03.11-1.22,2.89Z"/>
  <polygon class="cls-3" points="42.28 62.91 43.07 62.91 43.07 68.31 46.03 68.31 46.03 69 42.28 69 42.28 62.91"/>
  <polygon class="cls-3" points="49.67 67.01 47.58 64.22 47.58 69 46.79 69 46.79 62.91 47.47 62.91 49.79 65.97 52.1 62.91 52.8 62.91 52.8 69 52.01 69 52.01 64.22 49.9 67.01 49.67 67.01"/>
  <path class="cls-3" d="m57.96,67.63h-3.08l-.58,1.37h-.84l2.58-6.09h.76l2.58,6.09h-.84l-.58-1.37Zm-2.79-.69h2.5l-1.22-2.89-.03-.11-.03.11-1.22,2.89Z"/>
  <path class="cls-3" d="m60.08,67.72c.11.05.24.11.39.18.15.07.32.13.5.19.18.06.37.11.57.15.2.04.41.06.63.06.56,0,.98-.1,1.26-.29.28-.2.41-.48.41-.84,0-.19-.04-.34-.13-.47-.09-.13-.21-.23-.36-.32-.15-.09-.33-.16-.54-.22-.21-.06-.43-.11-.68-.15-.14-.02-.29-.05-.45-.08-.16-.03-.32-.07-.47-.12-.16-.05-.31-.11-.45-.18-.14-.07-.27-.16-.38-.27-.11-.11-.2-.23-.26-.38-.07-.14-.1-.31-.1-.51,0-.25.04-.48.12-.7.08-.22.21-.42.4-.58.18-.17.42-.3.72-.4.29-.1.65-.15,1.07-.15.22,0,.44.02.64.06.2.04.4.09.58.14.18.06.36.12.52.19.16.07.31.14.45.21l-.24.67c-.09-.05-.21-.1-.35-.17-.15-.07-.31-.13-.49-.19-.18-.06-.37-.11-.57-.15-.2-.04-.4-.06-.6-.06-.28,0-.51.03-.7.09-.19.06-.34.14-.45.24-.11.1-.19.21-.23.34-.04.13-.07.25-.07.38,0,.17.04.31.12.42.08.11.2.21.35.28.15.07.32.13.53.18.21.04.43.08.68.11.26.04.52.1.77.17s.49.17.69.3c.21.13.37.3.5.51.13.21.19.48.19.8,0,.29-.06.54-.17.77-.12.22-.28.41-.5.57-.22.16-.49.27-.8.36-.31.08-.66.12-1.05.12-.24,0-.46-.02-.69-.05-.22-.03-.43-.08-.63-.13-.2-.06-.38-.12-.55-.19-.17-.07-.32-.15-.46-.24l.28-.68Z"/>
  <polygon class="cls-3" points="65.97 62.91 66.76 62.91 66.76 65.64 70.28 65.64 70.28 62.91 71.08 62.91 71.08 69 70.28 69 70.28 66.33 66.76 66.33 66.76 69 65.97 69 65.97 62.91"/>
  <path class="cls-3" d="m76.46,67.63h-3.08l-.58,1.37h-.84l2.58-6.09h.76l2.58,6.09h-.84l-.58-1.37Zm-2.79-.69h2.5l-1.22-2.89-.03-.11-.03.11-1.22,2.89Z"/>
  <rect class="cls-3" x="78.76" y="62.91" width=".79" height="6.09"/>
  <path class="cls-3" d="m83.61,66.74h-1.69v2.26h-.79v-6.09h2.59c.3,0,.57.05.81.14.25.09.46.22.64.39.18.17.32.37.42.61.1.24.15.5.15.78,0,.23-.03.44-.09.63-.06.2-.15.37-.26.52-.11.15-.25.29-.41.4-.16.11-.34.2-.54.26l1.44,2.36h-.92l-1.34-2.26Zm.09-.69c.18,0,.34-.03.5-.09.15-.06.28-.14.39-.25.11-.11.2-.23.26-.38.06-.15.09-.32.09-.5s-.03-.35-.1-.5c-.06-.15-.15-.28-.26-.39-.11-.11-.24-.19-.4-.25-.15-.06-.32-.09-.5-.09h-1.76v2.44h1.78Z"/>
  <path class="cls-3" d="m6.97,56.45v1.8h-1.27c0,.87-.19,1.53-.58,1.97-.39.45-.95.67-1.67.67-.48,0-.99-.09-1.53-.27l.35-1.58c.37.09.67.13.88.13.25,0,.43-.07.55-.21.11-.14.17-.38.17-.72v-5.84h1.84v4.04h1.27Z"/>
  <path class="cls-3" d="m6.27,56.71c.18-.17.42-.26.7-.26h2.44v1.8h-2.44c-.28,0-.52-.09-.7-.26-.18-.17-.27-.39-.27-.65s.09-.47.27-.65"/>
  <path class="cls-3" d="m8.7,56.71c.18-.17.42-.26.7-.26h2.44v1.8h-2.44c-.28,0-.52-.09-.7-.26-.18-.17-.27-.39-.27-.65s.09-.47.27-.65"/>
  <path class="cls-3" d="m18.72,58.26h-6.88c-.27,0-.5-.09-.69-.26-.19-.17-.29-.39-.29-.64s.1-.46.29-.64c.19-.17.42-.26.69-.26h.84c-.41-.37-.62-.88-.62-1.55s.17-1.24.5-1.74c.33-.5.79-.89,1.38-1.18.58-.28,1.23-.42,1.95-.42.38,0,.8.05,1.26.15.46.1.92.25,1.39.45l-.63,1.64c-.37-.15-.73-.27-1.08-.35-.35-.08-.65-.12-.91-.12-.58,0-1.07.15-1.45.44-.38.29-.57.69-.57,1.18,0,.46.17.83.5,1.09.33.26.84.4,1.51.4h2.81v1.8Z"/>
  <polygon class="cls-3" points="23.36 56.45 23.36 58.26 20.01 58.26 20.01 49.32 21.85 49.32 21.85 56.45 23.36 56.45"/>
  <path class="cls-3" d="m36.02,56.45v1.8h-3.77c-.54,0-.99-.08-1.35-.25-.36-.17-.64-.42-.84-.75-.24.32-.53.56-.86.74-.33.17-.69.26-1.08.26h-4.75c-.28,0-.52-.09-.7-.26-.18-.17-.27-.39-.27-.65s.09-.47.27-.65c.18-.17.42-.26.7-.26h1.52v-4.48h1.84v4.48h1.14c.69,0,1.04-.52,1.04-1.56v-2.92h1.84v2.92c0,.54.1.93.31,1.18.21.25.53.38.96.38h.91v-4.88h1.84v4.88h1.27Z"/>
  <path class="cls-3" d="m42.14,52.03c.5.31.89.73,1.18,1.26.29.53.43,1.12.43,1.76s-.14,1.24-.43,1.72c-.28.48-.66.85-1.13,1.1-.47.25-.99.38-1.55.38-.44,0-.87-.08-1.3-.23-.43-.15-.82-.39-1.19-.69-.24.3-.55.53-.92.69-.37.16-.78.24-1.22.24-.28,0-.51-.09-.69-.27-.19-.18-.28-.4-.28-.66s.09-.47.27-.63c.18-.16.41-.24.71-.24.26,0,.46-.05.6-.14.14-.09.24-.22.3-.38.06-.16.13-.41.21-.75.08-.35.14-.58.17-.68.25-.93.65-1.64,1.19-2.16.54-.51,1.2-.77,1.97-.77.63,0,1.19.15,1.69.46m-.66,4.15c.29-.26.44-.64.44-1.13s-.13-.86-.4-1.17c-.27-.31-.62-.47-1.06-.47-.33,0-.6.11-.81.33-.21.22-.39.58-.55,1.07-.08.24-.14.48-.18.74-.02.06-.03.12-.04.2-.01.08-.03.16-.07.26.24.19.49.33.77.42.28.09.54.14.8.14.45,0,.82-.13,1.11-.4m4.14.27v1.8c-1.09,0-1.87-.24-2.34-.73-.47-.49-.71-1.23-.71-2.22,0-.18,0-.32.01-.41h1.17c0,.46.13.83.39,1.11.3.3.8.45,1.49.45"/>
  <path class="cls-3" d="m47.14,49.32h1.84v8.94h-3.36c-.28,0-.52-.09-.7-.26-.18-.17-.27-.39-.27-.65s.09-.47.27-.65c.18-.17.42-.26.7-.26h1.52v-7.14Z"/>
  <rect class="cls-3" x="50.27" y="49.32" width="1.84" height="8.94"/>
  <path class="cls-3" d="m61.79,56.58v1.64c-.37-.02-.64-.02-.79-.02-.72,0-1.42.07-2.1.2-.68.13-1.47.37-2.37.7l-.48-1.55c.3-.13.57-.24.82-.33-.69-.38-1.03-1.04-1.03-1.96,0-.58.15-1.1.44-1.55.3-.45.69-.79,1.19-1.03.5-.24,1.04-.36,1.63-.36.71,0,1.38.17,2.01.51l-.86,1.5c-.4-.19-.79-.29-1.18-.29-.45,0-.83.13-1.13.39-.3.26-.44.61-.44,1.06,0,.41.14.7.41.88.28.18.63.27,1.07.27h.3c.43-.07.9-.1,1.41-.1.36,0,.72.01,1.1.04"/>
  <rect class="cls-3" x="63.09" y="49.32" width="1.84" height="8.94"/>
  <path class="cls-3" d="m70.63,56.45v1.8h-1.27c0,.87-.19,1.53-.58,1.97-.39.45-.95.67-1.67.67-.48,0-.99-.09-1.53-.27l.35-1.58c.37.09.67.13.88.13.25,0,.43-.07.55-.21.11-.14.17-.38.17-.72v-5.84h1.84v4.04h1.27Z"/>
  <path class="cls-3" d="m69.93,56.71c.18-.17.42-.26.7-.26h2.44v1.8h-2.44c-.28,0-.52-.09-.7-.26-.18-.17-.27-.39-.27-.65s.09-.47.27-.65"/>
  <path class="cls-3" d="m72.36,56.71c.18-.17.42-.26.7-.26h2.44v1.8h-2.44c-.28,0-.52-.09-.7-.26-.18-.17-.27-.39-.27-.65s.09-.47.27-.65"/>
  <path class="cls-3" d="m74.8,56.71c.18-.17.42-.26.7-.26h2.44v1.8h-2.44c-.28,0-.52-.09-.7-.26-.18-.17-.27-.39-.27-.65s.09-.47.27-.65"/>
  <path class="cls-3" d="m79.45,52.41h1.84v5.84h-3.36c-.28,0-.51-.09-.69-.27-.19-.18-.28-.4-.28-.66s.09-.47.27-.63c.18-.16.41-.24.71-.24h1.52v-4.04Z"/>
  <path class="cls-3" d="m85.76,60.82h-2.53v-.77h.28c-.19-.17-.28-.41-.28-.72,0-.37.14-.66.41-.89.28-.23.61-.35,1.01-.35.31,0,.61.07.91.22l-.38.73c-.17-.06-.32-.1-.46-.1-.18,0-.32.04-.44.13-.11.09-.17.21-.17.38s.06.32.19.43c.13.11.29.16.48.16h.97v.77Zm-2.23-12.22h1.84v8.94h-1.84v-8.94Z"/>
  <path class="cls-3" d="m16.99,71.37h1.07c.22,0,.42.03.61.1.18.06.34.16.48.28.13.12.24.27.31.45.07.18.11.38.11.61,0,.22-.03.41-.1.59-.07.18-.16.33-.29.46s-.28.22-.47.29c-.19.07-.4.1-.64.1h-1.07v-2.89Zm1.06,2.56c.18,0,.35-.03.49-.08.14-.05.26-.13.36-.22.1-.1.17-.21.22-.35.05-.14.08-.29.08-.46s-.02-.31-.07-.45c-.05-.14-.12-.26-.21-.36-.09-.1-.21-.18-.36-.23-.14-.06-.31-.08-.5-.08h-.68v2.23h.68Z"/>
  <polygon class="cls-3" points="20.14 71.37 22.06 71.37 22.06 71.7 20.52 71.7 20.52 72.66 21.86 72.66 21.86 72.99 20.52 72.99 20.52 73.92 22.08 73.92 22.08 74.25 20.14 74.25 20.14 71.37"/>
  <polygon class="cls-3" points="24.71 71.37 25.11 71.37 23.89 74.25 23.54 74.25 22.31 71.37 22.71 71.37 23.71 73.75 23.71 73.75 24.71 71.37"/>
  <polygon class="cls-3" points="25.55 71.37 27.46 71.37 27.46 71.7 25.92 71.7 25.92 72.66 27.26 72.66 27.26 72.99 25.92 72.99 25.92 73.92 27.48 73.92 27.48 74.25 25.55 74.25 25.55 71.37"/>
  <polygon class="cls-3" points="28.03 71.37 28.4 71.37 28.4 73.92 29.81 73.92 29.81 74.25 28.03 74.25 28.03 71.37"/>
  <path class="cls-3" d="m29.99,72.81c0-.14.02-.27.06-.4.04-.13.09-.25.16-.36.07-.11.15-.21.24-.3.09-.09.2-.17.31-.23.11-.07.24-.12.37-.15.13-.04.27-.05.41-.05s.28.02.41.05.25.09.37.15c.11.07.22.14.31.23.09.09.18.19.24.3.07.11.12.23.16.36.04.13.06.26.06.4s-.02.27-.06.4c-.04.13-.09.25-.16.36-.07.11-.15.21-.24.3-.09.09-.2.17-.31.23-.11.07-.24.12-.37.15-.13.04-.27.05-.41.05s-.28-.02-.41-.05c-.13-.04-.25-.09-.37-.15-.11-.06-.22-.14-.31-.23-.09-.09-.17-.19-.24-.3-.07-.11-.12-.23-.16-.36-.04-.13-.06-.26-.06-.4m.38,0c0,.11.01.22.04.32.03.1.07.19.12.28.05.09.11.17.18.24.07.07.15.13.24.18.09.05.18.09.28.12.1.03.2.04.31.04s.21-.01.31-.04c.1-.03.19-.07.28-.12.09-.05.17-.11.24-.18.07-.07.13-.15.18-.24.05-.09.09-.18.12-.28.03-.1.04-.21.04-.32,0-.17-.03-.32-.09-.46-.06-.14-.15-.27-.25-.37-.11-.11-.23-.19-.37-.25-.14-.06-.29-.09-.46-.09s-.31.03-.45.09c-.14.06-.27.14-.37.25-.11.11-.19.23-.25.37-.06.14-.09.3-.09.46"/>
  <path class="cls-3" d="m34.06,73.25v1h-.38v-2.89h1.18c.14,0,.27.02.39.07.12.05.22.11.3.2.08.08.15.18.2.3.05.12.07.24.07.38s-.02.26-.07.38c-.05.11-.11.21-.2.3-.08.08-.18.15-.3.2-.12.05-.24.07-.38.07h-.82Zm.8-.33c.08,0,.16-.02.24-.05.07-.03.13-.07.19-.13.05-.05.09-.12.12-.19.03-.07.04-.16.04-.24s-.02-.17-.05-.24c-.03-.07-.07-.14-.13-.2-.05-.06-.12-.1-.19-.13s-.15-.05-.24-.05h-.8v1.23h.8Z"/>
  <polygon class="cls-3" points="37.75 73.31 36.76 71.99 36.76 74.25 36.38 74.25 36.38 71.37 36.71 71.37 37.81 72.82 38.9 71.37 39.23 71.37 39.23 74.25 38.86 74.25 38.86 71.99 37.86 73.31 37.75 73.31"/>
  <polygon class="cls-3" points="39.97 71.37 41.89 71.37 41.89 71.7 40.35 71.7 40.35 72.66 41.69 72.66 41.69 72.99 40.35 72.99 40.35 73.92 41.91 73.92 41.91 74.25 39.97 74.25 39.97 71.37"/>
  <polygon class="cls-3" points="44.92 74.25 44.61 74.25 42.83 72.03 42.83 74.25 42.45 74.25 42.45 71.37 42.77 71.37 44.55 73.6 44.55 71.37 44.92 71.37 44.92 74.25"/>
  <polygon class="cls-3" points="46.33 71.69 45.42 71.69 45.42 71.37 47.63 71.37 47.63 71.69 46.71 71.69 46.71 74.25 46.33 74.25 46.33 71.69"/>
  <path class="cls-3" d="m52.19,73.83h-.47v.17c0,.25-.05.44-.15.57-.1.13-.26.19-.47.19-.12,0-.25-.02-.39-.06l.07-.29c.11.02.2.03.27.03.12,0,.21-.03.26-.1.06-.07.08-.18.08-.34v-2.12h.33v1.64h.47v.31Z"/>
  <path class="cls-3" d="m52.06,73.56s.08-.04.13-.04h.85v.31h-.85c-.06,0-.1-.01-.13-.04-.03-.03-.05-.07-.05-.11s.02-.09.05-.11"/>
  <path class="cls-3" d="m52.91,73.56s.08-.04.13-.04h.85v.31h-.85c-.06,0-.1-.01-.13-.04-.03-.03-.05-.07-.05-.11s.02-.09.05-.11"/>
  <path class="cls-3" d="m53.76,73.56s.08-.04.13-.04h.85v.31h-.85c-.06,0-.1-.01-.13-.04-.03-.03-.05-.07-.05-.11s.02-.09.05-.11"/>
  <path class="cls-3" d="m54.61,73.56s.08-.04.13-.04h.85v.31h-.85c-.06,0-.1-.01-.13-.04-.03-.03-.05-.07-.05-.11s.02-.09.05-.11"/>
  <path class="cls-3" d="m56.28,71.88h.33v1.95h-1.01c-.05,0-.1-.02-.13-.05-.03-.03-.05-.07-.05-.12,0-.05.02-.08.05-.11.03-.03.08-.04.13-.04h.69v-1.64Zm-.48,2.67s-.06-.09-.06-.14.02-.1.06-.14c.04-.04.09-.06.14-.06s.1.02.14.06c.04.04.06.08.06.14s-.02.1-.06.14c-.04.04-.08.06-.14.06s-.1-.02-.14-.06m.68,0s-.06-.09-.06-.14.02-.1.06-.14c.04-.04.09-.06.14-.06s.1.02.14.06c.04.04.06.08.06.14s-.02.1-.06.14c-.04.04-.08.06-.14.06s-.1-.02-.14-.06"/>
  <path class="cls-3" d="m59.7,73.83h-.44c-.04.35-.15.61-.33.79-.18.18-.43.27-.74.27-.15,0-.3-.02-.45-.05v-.31c.16.02.29.03.41.03.25,0,.43-.06.56-.17.13-.12.21-.31.24-.57h-.39c-.31,0-.56-.05-.76-.15-.2-.1-.34-.24-.43-.4-.09-.17-.13-.35-.13-.55s.05-.39.14-.56c.09-.17.24-.31.43-.42.2-.11.45-.16.76-.16h.72v1.93h.42v.31Zm-.74-.31v-1.6h-.41c-.35,0-.6.08-.76.23-.16.15-.24.34-.24.57s.08.42.24.57c.16.15.42.23.77.23h.4Z"/>
  <path class="cls-3" d="m59.57,73.56s.08-.04.13-.04h.85v.31h-.85c-.06,0-.1-.01-.13-.04-.03-.03-.05-.07-.05-.11s.02-.09.05-.11"/>
  <path class="cls-3" d="m64.07,73.34c.11.12.28.17.51.17v.31c-.4,0-.68-.15-.82-.44-.08.14-.2.25-.35.33-.15.07-.33.11-.53.11h-2.34c-.06,0-.1-.01-.13-.04-.03-.03-.05-.07-.05-.11,0-.05.02-.08.05-.11.03-.03.07-.04.13-.05h.38v-2.8h.32v1.71c.12-.26.3-.47.54-.62.24-.15.52-.22.84-.22.25,0,.47.05.66.16.19.1.34.25.45.44.11.19.16.4.16.63s.06.41.17.53m-.67,0c.11-.11.17-.29.17-.53,0-.27-.08-.49-.25-.65-.17-.16-.4-.25-.69-.25-.25,0-.47.06-.68.17-.21.11-.37.26-.5.46s-.19.4-.2.63v.34h1.64c.23,0,.4-.06.52-.17"/>
  <path class="cls-3" d="m64.45,73.56s.08-.04.13-.04h.85v.31h-.85c-.06,0-.1-.01-.13-.04-.03-.03-.05-.07-.05-.11s.02-.09.05-.11"/>
  <path class="cls-3" d="m66.62,73.34c.11.12.28.17.51.17v.31c-.4,0-.68-.15-.82-.44-.08.14-.2.25-.35.33-.15.08-.33.11-.53.11-.05,0-.1-.02-.13-.05-.03-.03-.05-.07-.05-.12,0-.05.02-.08.05-.11s.08-.04.13-.04c.46,0,.69-.23.69-.7v-.94h.33v.94c0,.23.06.41.17.53m-.81-1.97s-.06-.09-.06-.14.02-.1.06-.14c.04-.04.09-.06.14-.06s.1.02.14.06c.04.04.06.08.06.14s-.02.1-.06.14c-.04.04-.08.06-.14.06s-.1-.02-.14-.06m.68,0s-.06-.09-.06-.14.02-.1.06-.14c.04-.04.09-.06.14-.06s.1.02.14.06c.04.04.06.08.06.14s-.02.1-.06.14c-.04.04-.08.06-.14.06s-.1-.02-.14-.06"/>
  <path class="cls-3" d="m67,73.56s.08-.04.13-.04h.85v.31h-.85c-.06,0-.1-.01-.13-.04-.03-.03-.05-.07-.05-.11s.02-.09.05-.11"/>
  <path class="cls-3" d="m69.16,73.34c.11.12.28.17.51.17v.31c-.4,0-.68-.15-.82-.44-.08.14-.2.25-.35.33-.15.08-.33.11-.53.11-.06,0-.1-.01-.13-.04-.03-.03-.05-.07-.05-.11s.02-.09.05-.11c.03-.03.08-.04.13-.04.46,0,.69-.23.69-.7v-2.1h.33v2.1c0,.23.06.41.17.53"/>
  <path class="cls-3" d="m70.36,70.72h.33v3.11h-1.01c-.05,0-.1-.01-.13-.04-.03-.03-.05-.07-.05-.11s.02-.09.05-.11c.03-.03.08-.04.13-.04h.69v-2.8Z"/>
  <rect class="cls-3" x="75.05" y="51.76" width="1.97" height="1.97" transform="translate(-15.03 69.22) rotate(-45)"/>
  <rect class="cls-3" x="73.47" y="49.53" width="1.97" height="1.97" transform="translate(-13.91 67.44) rotate(-45)"/>
  <rect class="cls-3" x="71.91" y="51.76" width="1.97" height="1.97" transform="translate(-15.95 66.99) rotate(-45)"/>
  <rect class="cls-3" x="30.44" y="48.33" width="1.97" height="1.97" transform="translate(-25.67 36.66) rotate(-45)"/>
  <rect class="cls-3" x="28.85" y="46.1" width="1.97" height="1.97" transform="translate(-24.56 34.89) rotate(-45)"/>
  <rect class="cls-3" x="27.29" y="48.33" width="1.97" height="1.97" transform="translate(-26.59 34.44) rotate(-45)"/>
</svg>