<?xml version="1.0" encoding="UTF-8"?>
<svg id="Layer_1" data-name="Layer 1" xmlns="http://www.w3.org/2000/svg" viewBox="0 0 120 120">
  <defs>
    <style>
      .cls-1 {
        fill: #76777a;
      }

      .cls-2 {
        fill: #057398;
      }
    </style>
  </defs>
  <g id="g78">
    <path id="path1" class="cls-1" d="m63.07,74.07c-.67-.44-1.44-.64-2.23-.61h-3.48c-.32.04-.63-.07-.86-.28-.19-.22-.29-.51-.27-.8v-.45c-.04-.28.05-.56.23-.78.19-.17.45-.24.7-.23h6.32v-2.27h-5.93c-.51-.01-1.01.05-1.5.16-.42.08-.81.28-1.14.57-.32.3-.56.68-.68,1.09-.15.51-.22,1.04-.21,1.58v.5c-.08.87.25,1.74.91,2.31.72.47,1.57.69,2.43.63h3.47c.27-.02.53.06.75.23.18.17.27.42.24.67v.86c0,.67-.29.93-1,.93h-6.55v2.27h6.58c.91.08,1.8-.25,2.43-.91.53-.75.79-1.66.73-2.57v-.72c.08-.84-.25-1.65-.9-2.18"/>
    <path id="path2" class="cls-1" d="m87.08,75.17v3.05h-3.75c-.63,0-.89-.27-.89-.93v-1.08c0-.69.25-.98.89-.98l3.75-.05Zm-1.3-6.5h-4.85v2.43h4.85c.9,0,1.3.47,1.3,1.53v.5h-3.87c-1.4-.21-2.69.76-2.9,2.17-.04.22-.04.44-.01.64v1.63c-.05.8.21,1.58.72,2.2.59.55,1.4.83,2.2.76h6.07v-7.96c0-2.51-1.21-3.83-3.51-3.83"/>
    <polygon id="polygon2" class="cls-1" points="91.54 66.23 92.12 70.53 93.67 70.53 94.24 66.23 91.54 66.23"/>
    <path id="path3" class="cls-1" d="m103.11,75.12v3.05h-3.75c-.63,0-.89-.27-.89-.93v-1.13c0-.69.25-.98.89-.98h3.75Zm-1.3-6.5h-4.85v2.43h4.85c.9,0,1.3.47,1.3,1.53v.5h-3.87c-1.4-.21-2.69.76-2.9,2.17-.04.22-.04.44-.01.64v1.53c-.05.8.21,1.58.72,2.2.59.55,1.4.81,2.2.75h6.07v-7.92c0-2.5-1.21-3.82-3.51-3.82"/>
    <path id="path4" class="cls-1" d="m114.73,70.77v-2.11h-2.73v-3.73h-2.27v11.63c0,3.22,1.83,3.9,3.36,3.9h1.59v-2.22h-1.44c-.57,0-1.21-.18-1.21-1.61v-5.85h2.71Z"/>
    <path id="path5" class="cls-1" d="m34.85,72.31v4.45c.01.78-.59,1.41-1.37,1.42h-2.77c-.78-.01-1.4-.63-1.38-1.41h0v-4.47c-.01-.78.61-1.41,1.38-1.42h2.75c.78.01,1.4.64,1.38,1.42m-1.38-3.64h-2.75c-2.01,0-3.64,1.63-3.64,3.64v4.45c0,2.01,1.63,3.64,3.64,3.64h2.75c2.01,0,3.64-1.63,3.64-3.64v-4.45c0-2.01-1.63-3.64-3.64-3.64"/>
    <path id="path6" class="cls-1" d="m49.95,73.5c0-3.33-2.25-4.85-4.31-4.85h-4.85v11.78h2.21v-9.51h2.62c1.15.07,2.06,1,2.1,2.15v7.37h2.18v-6.93h.05Z"/>
    <path id="path7" class="cls-1" d="m24.14,73.53h0c.24-2.32-1.35-4.44-3.64-4.85h-2.41c-1.04.13-2.01.66-2.71,1.46-.81-.92-1.98-1.46-3.2-1.47h-4.85v11.78h2.21v-9.53h2.61c1.15.02,2.08.95,2.1,2.1v7.41h2.21v-7.41c.01-1.15.95-2.09,2.1-2.1h1.21c1.14.07,2.05,1,2.09,2.15v7.37h2.2l.1-6.91Z"/>
    <path id="path8" class="cls-1" d="m77.07,73.53h0c0-3.33-2.25-4.85-4.31-4.85h-2.63v-3.74h-2.21v15.5h2.21v-9.51h2.65c1.14.07,2.05,1.01,2.09,2.15v7.37h2.2v-6.91Z"/>
    <path id="path9" class="cls-2" d="m95.38,40.35c0-1.64-3.42-3.24-3.42-3.24,0,0-3.48,3.35-3.36,3.45l3.85,3.24s2.94-1.82,2.94-3.45"/>
    <path id="path10" class="cls-2" d="m75.52,40.56l3.86,3.24s2.92-1.82,2.92-3.45-3.46-3.24-3.46-3.24c0,0-3.48,3.35-3.36,3.45"/>
    <path id="path11" class="cls-2" d="m73.63,40.35c0-1.64-3.42-3.24-3.42-3.24,0,0-3.49,3.35-3.36,3.45l3.86,3.24s2.92-1.82,2.92-3.45"/>
    <path id="path12" class="cls-2" d="m77.05,33.72c0-1.63-3.42-3.23-3.42-3.23,0,0-3.48,3.35-3.36,3.45l3.86,3.23s2.92-1.81,2.92-3.45"/>
    <path id="path13" class="cls-2" d="m106.67,56.6c-3.45,0-3.26-2.94-3.28-4.31v-6.18h5.27c1.82,0,2.43,2.77,2.43,5.99v4.5h-4.42m8.06-9.71c0-.95-.61-4.39-5.25-4.39h-2.72l-6.95,7.28v6.3c0,.32.04.63.11.95-2.04,0-4.43,0-5.62-2-.44-.84-.66-1.76-.62-2.71v-5.95l-3.64,3.74v5.92c0,.32.02.63.07.95-2.04,0-4.42,0-5.59-2-.45-.83-.67-1.76-.63-2.71v-8.92l-3.64,3.74v8.94c0,.32.02.63.07.95-.96-.15-1.86-.57-2.58-1.21-1.07-.86-1.7-2.17-1.7-3.54v-7l-3.64,3.74v7.07c0,.32.04.63.11.95-.97-.13-1.89-.56-2.62-1.21-1.07-.86-1.7-2.17-1.7-3.54v-8.87l-3.64,3.74v8.94c0,.32.04.63.11.95-2.04,0-4.44,0-5.63-2-.44-.84-.66-1.76-.63-2.71v-22.72l-3.64,3.74v22.96h0c-.05,1.43.62,2.79,1.77,3.64,1.01.57,2.15.86,3.3.83h1.44c.18,0,.55-.39.63-.46.46-.4.9-.84,1.32-1.21s.86-.89,1.21-1.37l.24-.34c.25.9.79,1.7,1.52,2.29.8.72,1.82,1.14,2.89,1.21.18,0,.56-.39.63-.45.46-.41.9-.85,1.32-1.29.42-.44.86-.89,1.21-1.36l.24-.35c.28.86.8,1.61,1.5,2.17.8.72,1.82,1.14,2.89,1.21.18,0,.56-.39.63-.45.46-.41.9-.85,1.32-1.29.42-.44.86-.89,1.21-1.36l.21-.29c.17,1.04.75,1.97,1.63,2.56,1.01.57,2.15.86,3.31.83h1.44c.18,0,.55-.39.63-.46.45-.4.9-.84,1.32-1.21s.86-.89,1.21-1.37l.21-.28h0c.17,1.04.76,1.97,1.64,2.56,1.01.57,2.15.86,3.3.83h1.46c.17,0,.55-.39.62-.46.46-.4.9-.84,1.33-1.21s.85-.89,1.21-1.37c.08-.11.16-.22.23-.33.76,2.57,3.88,3.45,6.38,3.45h.85l7.69-7.78v-6.29"/>
    <path id="path14" class="cls-2" d="m30.46,43.08l3.98,3.34s3.07-1.91,3.07-3.64-3.64-3.4-3.64-3.4c0,0-2.88,2.84-3.4,3.51,0-1.71-3.64-3.36-3.64-3.36,0,0-3.64,3.52-3.54,3.64l4.05,3.4s2.88-1.78,3.06-3.46"/>
    <polygon id="polygon14" class="cls-2" points="49.66 27.24 52.33 24.57 58.69 26.65 58.98 26.75 63.41 22.44 63.41 21.05 60.51 23.81 54.28 21.72 53.98 21.61 49.66 25.9 49.66 27.24"/>
    <path id="path15" class="cls-2" d="m49.82,47.38c-.27-.46-.86-1.35-.86-1.35l-4,3.9c.89,1.44,1.48,3.06,1.76,4.73,0,.74,0,0,0,.72v1.41H15.16c-2.82,0-3.96-.79-3.96-4.65l1.93-1.99v-2.17l-5.78,5.93v2.18c-.01,1,.28,1.98.83,2.82.49.68,1.18,1.18,1.97,1.44,1.3.38,2.67.5,4.02.39h30.7l5.89-5.29v-1.67c0-2.18.19-4.42-.91-6.4"/>
    <path id="path16" class="cls-1" d="m9.16,93.39h0l-.47-.12-.56-.17c-.11,0-.18-.1-.21-.16-.02-.07-.02-.16,0-.23v-.08c0-.13.06-.25.17-.33.16-.11.34-.16.52-.15.21-.01.41.04.58.15.12.11.19.27.18.44h.5c0-.13-.02-.27-.07-.4-.05-.11-.11-.21-.18-.29-.08-.07-.18-.13-.29-.19-.11-.05-.22-.08-.34-.11h-.38c-.3-.01-.59.07-.85.24-.22.15-.34.4-.34.66h0c-.01.21.04.4.15.57.13.18.32.3.53.35l.49.12c.19.05.38.1.56.17.08.04.16.08.21.16.02.08.02.16,0,.24v.15c0,.13-.07.25-.17.33-.15.11-.34.16-.52.15-.21.02-.4-.04-.57-.16-.13-.1-.21-.25-.19-.42v-.16h-.5v.16c0,.13.02.27.07.39.05.11.11.22.19.3.08.07.17.13.28.18.11.05.22.1.34.11.12.01.25.01.38,0,.3.01.59-.07.85-.24.22-.15.34-.39.34-.66v-.08c.01-.21-.04-.4-.15-.57-.12-.17-.32-.29-.52-.34"/>
    <path id="path17" class="cls-1" d="m15.46,93.85c-.02-.23.04-.47.17-.67.13-.15.34-.22.53-.21h.63v1.81h-.63c-.19.02-.4-.05-.53-.19-.13-.19-.19-.44-.17-.67v-.07Zm.35-1.21c-.11.02-.22.07-.32.13-.1.05-.18.12-.25.22-.08.1-.15.22-.18.34-.02.16-.02.32,0,.47v.29c-.02.16-.02.32,0,.47.05.12.11.23.18.34.07.08.16.16.25.22s.21.1.32.12c.12.01.23.01.35,0h1.09v-2.67h-1.44"/>
    <rect id="rect17" class="cls-1" x="18.12" y="91.56" width=".46" height="3.66"/>
    <rect id="rect18" class="cls-1" x="19.45" y="91.56" width=".46" height="3.66"/>
    <path id="path18" class="cls-1" d="m22.39,94.79c-.18.01-.35-.04-.5-.15-.11-.08-.18-.23-.17-.38v-.13c-.01-.15.05-.28.15-.38.11-.1.25-.16.4-.15h.75v1.21l-.63-.04Zm-.52-1.75c-.1-.1-.16-.23-.15-.36v-.07c0-.13.05-.25.16-.33.3-.16.67-.16.97,0,.11.07.17.19.16.33v.19h.47v-.39c-.02-.08-.05-.16-.1-.23-.05-.08-.11-.16-.18-.23-.1-.07-.21-.13-.33-.16-.32-.1-.66-.1-.97,0-.12.04-.23.08-.33.17-.07.06-.13.15-.18.23-.05.07-.07.15-.1.23v.63c.04.07.08.15.13.22.04.05.08.1.13.13-.23.17-.35.45-.33.73v.16c-.01.08-.01.18,0,.27.02.08.06.18.11.25.06.08.13.16.22.21.1.07.21.12.33.15.15.04.29.06.44.06h1.09v-1.61h.38v-.42h-1.43c-.18.01-.35-.04-.5-.13"/>
    <polygon id="polygon18" class="cls-1" points="26.65 95.19 26.66 95.23 27.11 95.23 28.11 92.51 28.11 95.23 28.6 95.23 28.6 91.78 27.88 91.78 26.89 94.5 25.91 91.82 25.9 91.78 25.18 91.78 25.18 95.23 25.68 95.23 25.68 92.52 26.65 95.19"/>
    <path id="path19" class="cls-1" d="m31.21,93.62h-1.4c0-.19.06-.38.18-.52.13-.13.33-.19.51-.17.19-.01.38.05.52.17.12.15.18.33.18.52m.23-.75h0c-.07-.08-.17-.16-.27-.22s-.21-.1-.32-.12c-.23-.05-.46-.05-.69,0-.11.02-.22.06-.32.12s-.19.13-.27.22c-.08.1-.13.22-.17.34-.05.16-.07.32-.07.47v.41c0,.16.02.32.07.46.06.24.22.45.44.57.1.06.21.1.32.12.11.01.23.01.34,0,.13.02.25.02.39,0,.12-.02.23-.07.33-.15.12-.07.21-.16.28-.28.07-.13.13-.28.16-.42h-.49c-.02.15-.1.28-.22.38-.13.08-.29.12-.45.11-.19.01-.39-.05-.52-.18-.12-.17-.18-.39-.17-.61h1.87v-.38c0-.16-.02-.32-.07-.47-.04-.12-.08-.24-.17-.34"/>
    <path id="path20" class="cls-1" d="m32.83,93.85c-.02-.24.04-.49.17-.68.13-.13.33-.21.52-.19h.64v1.81h-.64c-.19.02-.39-.05-.52-.19-.13-.19-.19-.44-.17-.67v-.07Zm1.33-1.3h-.98c-.11.02-.22.07-.32.13s-.19.13-.27.22c-.07.11-.13.22-.18.34-.02.16-.02.32,0,.47v.29c-.02.16-.02.3,0,.46.04.12.1.24.18.35.07.08.17.16.27.22s.21.1.32.12c.11.01.23.01.34,0h1.1v-3.64h-.46v1.03Z"/>
    <rect id="rect20" class="cls-1" x="35.48" y="92.56" width=".46" height="2.67"/>
    <path id="path21" class="cls-1" d="m38.62,93.99c.01.24-.04.47-.16.68-.3.24-.74.24-1.04,0-.11-.21-.17-.45-.15-.68v-1.43h-.47v1.54c0,.16.02.32.06.46.04.12.1.24.17.34.06.1.15.18.25.23.1.06.19.1.3.12.23.05.47.05.7,0,.11-.02.22-.06.32-.12s.18-.13.24-.23c.08-.1.13-.22.17-.34.02-.16.02-.3,0-.46v-1.54h-.46l.06,1.43Z"/>
    <polygon id="polygon21" class="cls-1" points="46.1 93.26 46.1 92.22 47.58 92.22 47.58 91.78 45.59 91.78 45.59 95.23 47.58 95.23 47.58 94.79 46.1 94.79 46.1 93.7 47.5 93.7 47.5 93.26 46.1 93.26"/>
    <path id="path22" class="cls-1" d="m54.94,93.62h-1.4c0-.19.06-.38.18-.52.13-.13.33-.19.51-.17.19-.01.38.05.52.17.12.15.19.33.18.52m.23-.75h0c-.07-.08-.17-.16-.27-.22s-.21-.1-.32-.12c-.23-.05-.46-.05-.69,0-.11.02-.22.06-.32.12-.1.06-.19.13-.27.22-.08.1-.13.22-.17.34-.05.16-.07.32-.07.47v.41c0,.16.02.32.07.46.06.24.22.45.44.57.1.06.21.1.32.12.11.01.23.01.34,0,.13.02.25.02.39,0,.12-.02.23-.07.33-.15.12-.07.21-.16.28-.28.07-.13.13-.28.16-.42h-.49c-.02.15-.1.28-.22.38-.13.08-.29.12-.45.11-.19.01-.39-.05-.52-.18-.12-.17-.18-.39-.17-.61h1.87v-.38c0-.16-.02-.32-.07-.47-.04-.12-.08-.24-.17-.34"/>
    <path id="path23" class="cls-1" d="m59.84,93.85v.07c.02.23-.04.47-.17.67-.13.15-.34.22-.53.19h-.63v-1.81h.63c.19-.01.4.06.53.21.13.19.19.44.17.67m.23-.92c-.07-.08-.17-.16-.27-.22-.12-.06-.24-.11-.38-.13h-1.43v3.64h.46v-1h.63c.11.01.23.01.34,0,.11-.02.23-.06.33-.12s.18-.13.27-.22c.07-.11.13-.22.17-.34.05-.16.07-.32.07-.47v-.29c0-.16-.02-.32-.07-.47-.04-.12-.1-.24-.17-.34"/>
    <rect id="rect23" class="cls-1" x="62.93" y="92.56" width=".46" height="2.67"/>
    <path id="path24" class="cls-1" d="m65.76,93.76l-.42-.11-.47-.12c-.07-.01-.13-.05-.19-.1-.01-.06-.01-.11,0-.17h0c0-.08.06-.17.13-.22.15-.06.3-.1.46-.08.61,0,.61.27.61.36h.46c0-.13-.02-.25-.08-.38-.06-.11-.15-.19-.24-.25l-.34-.13c-.13-.01-.27-.01-.4,0-.27-.01-.52.05-.75.18-.19.11-.32.32-.32.53h0c-.04.34.21.66.55.7l.41.11.47.12c.07.02.15.06.21.11.01.06.01.11,0,.17h0c0,.08,0,.35-.56.35s-.61-.28-.61-.36v-.22h-.46v.22c0,.12.02.25.08.36.05.11.13.19.24.25s.22.11.34.13c.13.02.27.02.4,0,.12.01.25.01.38,0,.11-.02.23-.07.33-.13s.18-.15.24-.24c.06-.12.08-.24.08-.38h0c.01-.17-.04-.33-.13-.46-.11-.12-.25-.21-.41-.24"/>
    <path id="path25" class="cls-1" d="m68.83,93.62h-1.4c-.01-.19.06-.38.18-.52.13-.13.33-.19.51-.17.19-.01.38.05.52.17.12.15.18.33.18.52m.23-.75c-.07-.08-.17-.16-.27-.22-.1-.06-.21-.1-.32-.12-.23-.05-.46-.05-.69,0-.11.02-.22.06-.32.12-.1.06-.19.13-.27.22-.08.1-.15.22-.18.34-.04.16-.06.32-.06.47v.41c0,.16.02.32.06.46.04.12.1.24.18.34.07.1.16.17.27.23.1.06.21.1.32.12.11.01.23.01.34,0,.13.02.25.02.39,0,.12-.02.23-.07.33-.15.12-.07.21-.16.28-.28.07-.13.13-.28.16-.42h-.49c-.02.15-.11.28-.22.38-.13.08-.29.12-.45.11-.19.01-.39-.05-.52-.18-.12-.17-.18-.39-.17-.61h1.87v-.38c0-.16-.02-.32-.07-.47-.04-.12-.08-.24-.17-.34"/>
    <path id="path26" class="cls-1" d="m71.56,93.76l-.42-.11-.47-.12c-.07-.01-.13-.05-.19-.1-.01-.06-.01-.11,0-.17h0c0-.08.06-.17.13-.22.15-.06.3-.1.46-.08.61,0,.61.27.61.36h.46c0-.13-.02-.25-.08-.38-.05-.11-.13-.19-.24-.25l-.34-.13c-.13-.01-.27-.01-.4,0-.27-.01-.52.05-.75.18-.19.11-.3.32-.3.53h0c-.01.16.04.33.12.46.11.12.25.21.41.24l.41.11.47.12c.07.02.15.06.21.11.01.06.01.11,0,.17h0c0,.08,0,.35-.56.35s-.61-.28-.61-.36v-.22h-.46v.22c0,.12.02.25.08.36s.15.19.24.25c.11.06.22.11.34.13.13.02.27.02.4,0,.12.01.25.01.38,0,.11-.02.23-.07.33-.13s.18-.15.24-.24c.06-.12.08-.24.08-.38h0c.01-.17-.04-.33-.13-.46-.11-.12-.25-.21-.41-.24"/>
    <path id="path27" class="cls-1" d="m74.64,92.36c.15-.15.36-.23.57-.21.21-.01.4.05.56.17.13.16.22.35.22.56h.5c0-.16-.02-.32-.07-.46-.04-.12-.11-.24-.19-.34-.08-.08-.18-.16-.29-.21-.11-.06-.22-.1-.34-.12-.24-.05-.51-.05-.75,0-.12.02-.23.06-.34.12s-.21.13-.29.22c-.08.11-.15.23-.19.35-.02.16-.02.3,0,.46v1.21c-.02.16-.02.3,0,.46.05.12.11.24.19.35.08.08.18.16.29.22s.22.1.34.12c.12.01.25.01.38,0,.25,0,.5-.02.74-.1.19-.06.38-.16.52-.3v-1.49h-1.1v.44h.61v.86c-.08.06-.18.1-.28.12-.17.02-.33.02-.5,0-.21.01-.41-.06-.57-.21-.15-.19-.22-.44-.19-.68v-.92c-.02-.24.05-.49.19-.68"/>
    <path id="path28" class="cls-1" d="m79.06,93.62h-1.43c-.01-.19.06-.38.18-.52.13-.13.33-.19.51-.17.19-.01.38.05.52.17.12.15.18.33.18.52m.23-.75h0c-.08-.08-.17-.16-.27-.22-.1-.06-.21-.1-.32-.12-.12-.01-.23-.01-.35,0-.11-.01-.23-.01-.34,0-.11.02-.22.06-.32.12-.1.06-.19.13-.27.22-.08.1-.15.22-.18.34-.02.16-.02.32,0,.47v.41c-.02.16-.02.3,0,.46.04.12.1.24.18.34.07.1.16.17.27.23.1.06.21.1.32.12.11.01.23.01.34,0,.13.02.25.02.39,0,.12-.02.23-.07.33-.15.12-.07.21-.16.28-.28.07-.13.13-.28.16-.42h-.49c-.02.15-.11.28-.22.38-.13.08-.29.12-.45.11-.19.01-.39-.05-.52-.18-.12-.17-.18-.39-.17-.61h1.87v-.38c0-.16-.02-.32-.07-.47-.04-.12-.08-.24-.17-.34"/>
    <path id="path29" class="cls-1" d="m82.25,92.81c-.11-.1-.23-.16-.38-.19-.19-.02-.39-.02-.58,0h-1v2.67h.46v-2.31h.58c.12-.01.24-.01.36,0,.08.01.16.06.21.12.05.05.08.11.1.17.01.1.01.18,0,.28v1.64h.47v-1.58c.02-.16.02-.33,0-.49-.04-.13-.1-.25-.19-.35"/>
    <path id="path30" class="cls-1" d="m85.11,93.62h-1.41c0-.19.07-.38.18-.52.13-.12.33-.18.51-.17.19-.01.38.05.52.17.12.15.19.33.18.52m.23-.75h0c-.07-.08-.17-.16-.27-.22-.1-.06-.21-.1-.32-.12-.23-.05-.46-.05-.69,0-.11.02-.22.06-.32.12-.1.06-.19.13-.27.22-.08.1-.13.22-.17.34-.05.16-.07.32-.07.47v.41c0,.16.02.32.07.46.06.24.22.45.44.57.1.06.21.1.32.12.11.01.23.01.34,0,.13.02.25.02.39,0,.12-.02.24-.07.34-.15.11-.07.21-.17.27-.28.07-.13.13-.28.16-.42h-.49c-.02.15-.1.28-.22.38-.13.08-.29.12-.45.11-.19.01-.39-.05-.52-.18-.12-.17-.18-.39-.17-.61h1.87v-.38c0-.16-.02-.32-.07-.47-.04-.12-.08-.24-.17-.34"/>
    <polygon id="polygon30" class="cls-1" points="86.8 95.23 86.8 92.98 87.56 92.98 87.56 92.56 86.34 92.56 86.34 95.23 86.8 95.23"/>
    <path id="path31" class="cls-1" d="m88.41,93.85c-.02-.23.02-.47.15-.67.13-.15.34-.22.53-.21h.68v1.81h-.63c-.19.02-.4-.05-.53-.19-.13-.19-.19-.44-.17-.67l-.02-.07Zm.36-1.21c-.11.02-.22.07-.32.13-.11.05-.19.12-.27.22-.08.1-.15.22-.18.34-.02.16-.02.32,0,.47v.29c-.02.16-.02.32,0,.47.05.12.11.23.18.34.07.08.17.16.27.22s.21.1.32.12c.11.01.23.01.34,0h1.09v-2.67h-1.43"/>
    <rect id="rect31" class="cls-1" x="91.08" y="91.56" width=".46" height="3.66"/>
    <path id="path32" class="cls-1" d="m94.86,94.07h-1.03l.51-1.6.52,1.6Zm-.24-2.29h-.61l-1.09,3.37v.07h.49l.23-.72h1.32l.23.72h.52l-1.09-3.41v-.04Z"/>
    <path id="path33" class="cls-1" d="m98.1,93.99c.01.24-.04.47-.16.68-.13.13-.33.21-.52.18-.19.02-.39-.05-.52-.18-.11-.21-.17-.45-.15-.68v-1.43h-.47v1.54c-.02.16-.02.3,0,.46.02.12.08.24.17.34.06.1.15.17.24.23.1.06.21.1.32.12.23.05.47.05.7,0,.11-.02.21-.06.3-.12.11-.05.19-.13.25-.23.08-.1.13-.22.17-.34.02-.16.02-.3,0-.46v-1.54h-.46l.12,1.43Z"/>
    <path id="path34" class="cls-1" d="m103.2,92.81c-.11-.1-.23-.16-.38-.19-.19-.02-.38-.02-.57,0h-.55v-1h-.46v3.64h.46v-2.28h.58c.12-.01.23-.01.35,0,.08.01.16.06.21.12.05.05.08.11.11.17.01.1.01.18,0,.28v1.64h.47v-1.58c.02-.16.02-.33,0-.49-.04-.13-.1-.25-.19-.35"/>
    <path id="path35" class="cls-1" d="m106.05,93.78v.21c.02.23-.04.47-.17.67-.3.27-.76.27-1.07,0-.13-.19-.19-.44-.17-.67v-.21c-.02-.23.04-.46.17-.66.3-.27.76-.27,1.07,0,.13.19.19.42.17.66m.23-.91h0c-.08-.08-.17-.16-.27-.22s-.22-.1-.33-.12c-.22-.05-.46-.05-.68,0-.11.02-.22.06-.32.12s-.19.13-.27.22c-.08.1-.15.22-.18.34-.04.16-.06.32-.06.47v.41c0,.16.02.32.06.46.04.12.1.24.18.34.07.1.16.17.27.23.1.06.21.1.32.12.11.01.23.01.34,0,.12.01.23.01.35,0,.11-.02.22-.07.32-.12.1-.06.19-.15.27-.23.08-.1.15-.22.17-.34.05-.15.07-.3.07-.46v-.41c0-.16-.02-.32-.07-.47-.04-.12-.08-.24-.17-.34"/>
    <rect id="rect35" class="cls-1" x="109.15" y="92.56" width=".46" height="2.67"/>
    <polygon id="polygon35" class="cls-1" points="111.22 95.23 111.22 92.98 111.66 92.98 111.66 92.56 111.22 92.56 111.22 91.78 110.75 91.78 110.75 92.56 110.32 92.56 110.32 92.98 110.75 92.98 110.75 95.23 111.22 95.23"/>
    <path id="path36" class="cls-1" d="m114.23,92.56l-.81,2.15-.8-2.12h-.5l.96,2.54c.02.07.08.12.15.16l-.38.97h.5l1.4-3.64-.51-.05Z"/>
    <polygon id="polygon36" class="cls-1" points="107.75 95.23 107.75 92.98 108.5 92.98 108.5 92.56 107.29 92.56 107.29 95.23 107.75 95.23"/>
    <polygon id="polygon37" class="cls-1" points="61.54 95.23 61.54 92.98 62.29 92.98 62.29 92.56 61.08 92.56 61.08 95.23 61.54 95.23"/>
    <polygon id="polygon38" class="cls-1" points="56.64 95.23 56.64 92.98 57.39 92.98 57.39 92.56 56.18 92.56 56.18 95.23 56.64 95.23"/>
    <polygon id="polygon39" class="cls-1" points="100.09 95.23 100.09 92.98 100.53 92.98 100.53 92.56 100.09 92.56 100.09 91.78 99.63 91.78 99.63 92.56 99.19 92.56 99.19 92.98 99.63 92.98 99.63 95.23 100.09 95.23"/>
    <polygon id="polygon40" class="cls-1" points="52.18 95.23 52.18 92.98 52.63 92.98 52.63 92.56 52.18 92.56 52.18 91.78 51.72 91.78 51.72 92.56 51.3 92.56 51.3 92.98 51.72 92.98 51.72 95.23 52.18 95.23"/>
    <path id="path40" class="cls-1" d="m50.31,92.81c-.11-.1-.23-.17-.38-.19-.19-.02-.38-.02-.57,0h-1.01v2.67h.47v-2.31h.58c.12-.01.23-.01.35,0,.08.01.16.06.21.12.05.05.08.11.11.17.01.1.01.18,0,.28v1.64h.47v-1.58c.02-.16.02-.33,0-.49-.04-.13-.11-.25-.21-.35"/>
    <path id="path41" class="cls-1" d="m63.41,91.89s-.05-.06-.08-.08c-.1-.04-.21-.04-.3,0-.04.02-.06.05-.08.08v.3s.05.07.08.1h.3l.08-.08s.01-.06,0-.08v-.15s.01-.06,0-.08"/>
    <path id="path42" class="cls-1" d="m35.96,91.89s-.06-.06-.1-.08c-.1-.04-.19-.04-.29,0-.04.02-.07.05-.1.08v.32s.06.06.1.08h.29s.07-.05.1-.08v-.32"/>
    <path id="path43" class="cls-1" d="m109.63,91.89s-.06-.06-.1-.08c-.1-.04-.21-.04-.3,0-.04.02-.06.05-.08.08v.3s.05.07.08.1h.29l.08-.08s.01-.06,0-.08v-.15s.01-.06,0-.08"/>
    <path id="path44" class="cls-1" d="m43.31,92.82c-.1-.11-.22-.17-.35-.21-.18-.02-.36-.02-.55,0h-2.5v2.67h.47v-2.31h1.08v2.25h.46v-2.25h.51c.12-.01.24-.01.36,0,.08.01.16.06.21.12.05.05.08.11.1.17.01.1.01.18,0,.28v1.64h.46v-1.58c.02-.16.02-.33,0-.49-.04-.13-.1-.24-.19-.34"/>
    <path id="path45" class="cls-1" d="m14.03,92.82c-.1-.11-.22-.18-.36-.21-.18-.02-.35-.02-.53,0h-2.5v2.67h.46v-2.31h1.09v2.25h.46v-2.25h.46c.12-.01.23-.01.35,0,.08.01.16.06.21.12.05.05.08.11.11.17.01.1.01.18,0,.28v1.64h.47v-1.58c.02-.16.02-.33,0-.49-.04-.12-.1-.24-.18-.34"/>
    <rect id="rect45" class="cls-1" x="114.24" y="84.66" width=".49" height="4.73"/>
    <path id="path46" class="cls-1" d="m110.14,88.9h-.53c-.15.01-.29-.05-.39-.15-.08-.1-.12-.22-.13-.34v-.19c-.01-.15.04-.29.12-.4.1-.11.24-.17.39-.16.15-.01.3.05.4.16.1.15.15.32.13.49v.59Zm-7.77,0h-.92c-.15.01-.29-.05-.4-.16-.1-.15-.13-.32-.12-.49v-.73c-.01-.17.02-.34.12-.49.1-.1.23-.15.38-.15h.49c.15-.01.29.04.4.15.1.15.13.32.12.49l-.06,1.37Zm10.36-4.21v4.25h-1.12v-1.04c0-.25-.02-.51-.07-.75-.04-.18-.12-.34-.25-.47-.11-.12-.27-.21-.42-.25-.21-.05-.41-.07-.63-.07h-.79v.49h.83c.13-.01.25-.01.39,0,.1.04.19.08.27.16.07.08.13.19.16.3.02.17.02.33,0,.5v1.1h-.47v-.68c0-.15-.02-.28-.06-.41-.02-.11-.07-.21-.15-.29-.07-.07-.15-.13-.23-.18-.08-.06-.18-.1-.28-.11s-.21-.01-.3,0c-.1-.01-.19-.01-.29,0-.1.01-.19.05-.28.11-.08.05-.17.11-.23.18-.07.08-.12.18-.15.29-.02.13-.02.28,0,.41h0c-.02.18-.02.35,0,.53,0,0,0,.08.07.13h-1.47v-2.43h-.49v2.43h-1.78v-2.43h-.49v2.43h-1.66v-1.42c.02-.13.02-.28,0-.41-.04-.11-.08-.21-.16-.29-.06-.08-.15-.15-.23-.19s-.17-.08-.27-.1c-.1-.01-.21-.01-.3,0h-.42c-.1-.01-.18-.01-.28,0s-.18.05-.27.1-.17.11-.23.19c-.07.08-.12.18-.16.29-.02.13-.02.28,0,.41v.87c-.02.13-.02.27,0,.4.04.11.1.21.16.3.06.07.15.13.23.18.07.06.17.1.27.11s.21.01.3,0h11.77v-4.64h-.51Z"/>
    <path id="path47" class="cls-1" d="m105.23,85.91h0v-.34h-.4c-.07-.04-.12-.12-.1-.21,0-.11.15-.18.35-.18h.19v-.34h-.24c-.42,0-.64.17-.66.5-.01.07-.01.16,0,.23h-.29v.34h1.14Z"/>
    <path id="path48" class="cls-1" d="m107.33,90.47h.34s.06-.05.08-.08c.01-.04.01-.06,0-.1.01-.06.01-.11,0-.17.01-.02.01-.06,0-.08-.02-.04-.05-.06-.08-.08-.11-.05-.23-.05-.34,0-.04.02-.07.05-.1.08v.35s.06.06.1.08"/>
    <path id="path49" class="cls-1" d="m106.76,90.47s.08,0,.1-.08c.01-.04.01-.06,0-.1.01-.06.01-.11,0-.17.01-.02.01-.06,0-.08,0,0,0-.06-.1-.08-.05-.01-.11-.01-.16,0-.06-.01-.11-.01-.17,0,0,0-.08,0-.1.08v.35l.1.08h.33"/>
    <path id="path50" class="cls-1" d="m101.9,85.78s-.01.08,0,.12c.06.01.11.01.17,0,.06.01.11.01.17,0,.04-.01.07-.05.08-.08.01-.02.01-.06,0-.08.01-.06.01-.11,0-.17.01-.02.01-.06,0-.08-.01-.04-.05-.07-.08-.08-.06-.01-.11-.01-.17,0-.06-.01-.11-.01-.17,0-.04.01-.07.05-.1.08v.34"/>
    <path id="path51" class="cls-1" d="m100.91,85.78s.05.07.1.08.11.01.16,0c.06.01.11.01.17,0,.04-.01.07-.05.1-.08v-.08c.01-.06.01-.11,0-.17v-.08s-.06-.07-.1-.08c-.06-.01-.11-.01-.17,0-.05-.01-.11-.01-.16,0s-.08.04-.1.08c-.01.02-.01.06,0,.08-.01.06-.01.11,0,.17-.01.02-.01.06,0,.08"/>
    <path id="path52" class="cls-1" d="m76.96,88.92h-.93c-.15.01-.29-.05-.4-.16-.08-.15-.13-.32-.12-.49v-.73c-.01-.17.04-.34.12-.49.1-.1.23-.15.38-.15h.41c.15-.01.29.04.4.15.1.15.15.32.13.49v1.37Zm3.25-4.22v4.25h-1.27v-4.25h-.49v4.25h-1v-1.48c.02-.13.02-.28,0-.41-.02-.11-.08-.21-.16-.29-.06-.07-.13-.15-.22-.19s-.18-.08-.28-.1c-.1-.01-.21-.01-.3,0h-.42c-.1-.01-.18-.01-.28,0-.1.01-.18.05-.27.1s-.17.11-.23.19c-.07.08-.12.18-.15.29-.04.12-.06.24-.06.38h0v.33c.02.3-.06.61-.22.87-.19.19-.46.3-.74.27h-.57v-2.43h-.49v2.43h-2.06v-2.43h-.49v2.43h-.45c-.28.04-.56-.06-.75-.27-.17-.28-.24-.62-.22-.95v-1h-.49v1c.02.33-.05.67-.22.95-.19.19-.46.3-.74.27h-.45v-2.21h-.5v2.22h-2.28v-4.21h-.49v4.74h3.64c.15.01.3.01.45,0,.13-.04.27-.08.39-.16s.24-.17.33-.28v-.07.07c.08.11.19.21.32.28s.25.12.4.16c.13.01.25.01.39,0h4.11c.15.01.3.01.45,0,.13-.04.27-.08.39-.16.11-.06.19-.15.27-.24v.12c.06.07.15.13.23.18.07.06.17.1.27.11s.21.01.3,0h4.66v-4.76h-.33Z"/>
    <path id="path53" class="cls-1" d="m63.32,83.96l.46-.35c.13.13.32.22.51.22.21,0,.41-.08.56-.23v.39c-.16.13-.36.21-.58.21-.18.01-.35-.05-.49-.17l-.27.19-.19-.25Z"/>
    <path id="path54" class="cls-1" d="m62.52,88.9h-3.26c-.28.04-.55-.07-.74-.27-.17-.28-.24-.62-.22-.95v-.57h-.49v.74c0,.21.02.41.07.61.05.16.11.3.21.44.1.11.21.21.33.28.12.07.25.12.39.16.13.01.27.01.4,0h3.86v-2.91h-.49l-.06,2.48Z"/>
    <path id="path55" class="cls-1" d="m69.05,85.44v.35s.05.08.08.11c.11.05.23.05.34,0,.04-.01.07-.04.1-.07v-.35s-.06-.07-.1-.08c-.11-.05-.23-.05-.34,0-.04.01-.07.05-.1.08"/>
    <path id="path56" class="cls-1" d="m72.98,85.78s.06.07.1.08c.06.01.11.01.17,0,.05.01.11.01.16,0s.08-.04.1-.08c.01-.02.01-.06,0-.08.01-.06.01-.11,0-.17.01-.02.01-.06,0-.08-.01-.05-.05-.07-.1-.08s-.11-.01-.16,0c-.06-.01-.11-.01-.17,0-.04.01-.07.05-.1.08v.08c-.01.06-.01.11,0,.17v.08"/>
    <path id="path57" class="cls-1" d="m68.65,85.04s.06.06.1.08h.34s.06-.05.08-.08c.01-.04.01-.06,0-.1.01-.02.01-.06,0-.08v-.08s-.01-.06-.04-.08c-.02-.04-.05-.06-.08-.08-.06-.01-.11-.01-.17,0-.06-.01-.11-.01-.17,0-.04.02-.07.05-.1.08v.35"/>
    <path id="path58" class="cls-1" d="m68.1,85.78s.06.07.1.08c.06.01.11.01.17,0,.05.01.11.01.16,0s.08-.04.1-.08c.01-.02.01-.06,0-.08.01-.06.01-.11,0-.17.01-.02.01-.06,0-.08-.01-.05-.05-.07-.1-.08s-.11-.01-.16,0c-.06-.01-.11-.01-.17,0-.04.01-.07.05-.1.08v.34"/>
    <path id="path59" class="cls-1" d="m60.64,85.78s.05.07.1.08.11.01.16,0c.06.01.11.01.17,0,.04-.01.07-.05.1-.08v-.08c.01-.06.01-.11,0-.17v-.08s-.06-.07-.1-.08c-.06-.01-.11-.01-.17,0-.05-.01-.11-.01-.16,0s-.08.04-.1.08c-.01.02-.01.06,0,.08-.01.06-.01.11,0,.17-.01.02-.01.06,0,.08"/>
    <path id="path60" class="cls-1" d="m59.68,85.78s.05.07.08.08c.06.01.11.01.17,0,.06.01.11.01.17,0,.04-.01.07-.05.1-.08v-.34s-.06-.07-.1-.08c-.06-.01-.11-.01-.17,0-.06-.01-.11-.01-.17,0-.04.01-.07.05-.08.08v.34"/>
    <rect id="rect60" class="cls-1" x="55.11" y="84.66" width=".49" height="4.73"/>
    <path id="path61" class="cls-1" d="m51.96,88.9h-2.25v-1.42c.47-.47,1.18-.66,1.82-.46.27.11.44.35.46.63l-.04,1.25Zm-5.21-.29c-.18-.11-.34-.24-.46-.41-.28-.34-.38-.79-.28-1.21.38-.1.75-.13,1.14-.1.45.07.49.3.47.5-.11.51-.42.95-.87,1.23m6.82-3.92v4.25h-1.13v-1.21c-.01-.47-.29-.89-.73-1.08-.69-.27-1.47-.15-2.04.32v-.46h-.49v2.43h-1.12c-.27,0-.53-.04-.79-.11.44-.33.75-.81.86-1.35.06-.5-.29-.95-.79-1.01-.04,0-.06,0-.1-.01-.5-.05-1,0-1.48.15h-.12v.12c-.18.59-.07,1.24.3,1.72.11.15.24.29.39.4h-2.14v-2.43h-.57v2.43h-1.82v-2.43h-.49v2.43c.02.17.02.34,0,.51-.02.12-.07.23-.15.33-.06.07-.15.15-.23.18-.11.04-.22.06-.33.07v.53l.38-.06c.12-.04.23-.08.34-.15.11-.07.21-.17.28-.28.08-.13.15-.28.17-.42v-.19h4.27c.25,0,.5-.08.7-.22.41.16.85.23,1.29.22h5.98v-4.67h-.47Z"/>
    <path id="path62" class="cls-1" d="m46.44,85.78s.05.07.08.08c.06.01.11.01.17,0,.06.01.11.01.17,0,.04-.01.07-.05.1-.08v-.34s-.06-.07-.1-.08c-.06-.01-.11-.01-.17,0-.06-.01-.11-.01-.17,0-.04.01-.07.05-.08.08v.34"/>
    <path id="path63" class="cls-1" d="m39.28,85.78s.05.07.08.08c.06.01.11.01.17,0,.06.01.11.01.17,0,.04-.01.07-.05.1-.08v-.34s-.06-.07-.1-.08c-.06-.01-.11-.01-.17,0-.06-.01-.11-.01-.17,0-.04.01-.07.05-.08.08-.01.02-.01.06,0,.08-.01.06-.01.11,0,.17-.01.02-.01.06,0,.08"/>
    <path id="path64" class="cls-1" d="m38.32,85.78s.06.07.1.08c.06.01.11.01.17,0,.06.04.13.05.21.04.01-.04.01-.08,0-.12.01-.02.01-.06,0-.08.01-.06.01-.11,0-.17.01-.02.01-.06,0-.08-.01-.04-.05-.07-.08-.08-.06-.01-.11-.01-.17,0-.06-.01-.11-.01-.17,0-.04.01-.07.05-.1.08v.34"/>
    <path id="path65" class="cls-1" d="m44.21,90.47h.34s.06-.05.08-.08c.01-.04.01-.06,0-.1.01-.06.01-.11,0-.17.01-.02.01-.06,0-.08-.02-.04-.05-.06-.08-.08-.06-.01-.11-.01-.17,0-.06-.01-.11-.01-.17,0-.04.02-.07.05-.1.08v.35s.06.06.1.08"/>
    <path id="path66" class="cls-1" d="m43.65,90.03s-.06-.06-.1-.08c-.06-.01-.11-.01-.17,0-.05-.01-.11-.01-.16,0,0,0-.08,0-.1.08-.01.02-.01.06,0,.08-.01.06-.01.11,0,.17-.01.04-.01.06,0,.1.02.04.06.06.1.08h.33s.07-.05.1-.08v-.1c.01-.06.01-.11,0-.17v-.08"/>
    <path id="path67" class="cls-1" d="m38.34,87.54c-.01-.17.04-.34.13-.49.1-.1.23-.15.36-.15h.44c.15-.01.29.05.39.15.1.15.15.32.13.49v1.37h-.93c-.15.01-.29-.05-.39-.16-.1-.15-.15-.32-.13-.49v-.73Zm0,1.71c.08.06.17.1.27.11s.21.01.3,0h1.42v-1.91c.02-.13.02-.28,0-.41-.02-.11-.07-.21-.15-.29-.07-.07-.15-.13-.23-.19-.08-.05-.18-.08-.28-.1-.1-.01-.21-.01-.3,0h-.57c-.1-.01-.18-.01-.28,0s-.18.05-.27.1c-.08.06-.16.12-.23.19-.07.08-.12.18-.15.29-.02.13-.02.28,0,.41v.87c-.02.13-.02.27,0,.4.04.11.08.21.15.3.07.07.15.13.23.18"/>
    <rect id="rect67" class="cls-1" x="97.8" y="84.66" width=".49" height="4.73"/>
    <path id="path68" class="cls-1" d="m84.91,85.78s.06.07.1.08c.06.01.11.01.17,0,.06.01.11.01.17,0,.04-.01.07-.05.08-.08v-.34s-.05-.07-.08-.08c-.06-.01-.11-.01-.17,0-.06-.01-.11-.01-.17,0-.04.01-.07.05-.1.08v.34"/>
    <path id="path69" class="cls-1" d="m83.93,85.78s.05.07.1.08c.06.01.11.01.17,0,.05.01.11.01.16,0s.08-.04.1-.08c.01-.02.01-.06,0-.08.01-.06.01-.11,0-.17.01-.02.01-.06,0-.08-.01-.05-.05-.07-.1-.08s-.11-.01-.16,0c-.06-.01-.11-.01-.17,0-.05.01-.08.04-.1.08-.01.02-.01.06,0,.08-.01.06-.01.11,0,.17-.01.02-.01.06,0,.08"/>
    <path id="path70" class="cls-1" d="m93.87,88.64c-.19-.1-.36-.24-.49-.42-.24-.35-.33-.79-.23-1.21.36-.1.75-.13,1.13-.1.51.08.49.34.47.45-.13.5-.45.93-.89,1.21m2.43-3.98v4.25h-1.08c-.27,0-.53-.02-.79-.07.42-.36.72-.86.83-1.41,0-.24,0-.84-.89-.97-.5-.05-1,0-1.47.15h-.12v.12c-.17.59-.07,1.24.27,1.75.11.15.23.28.38.39h-1.92v-4.09h-.52v4.74h2.26c.24-.01.49-.07.69-.19.39.13.8.19,1.21.21h1.63v-4.76l-.47-.11Z"/>
    <path id="path71" class="cls-1" d="m88.21,88.76c-.1-.15-.13-.32-.12-.49v-.73c-.01-.17.02-.34.12-.49.1-.1.23-.16.38-.15h.42c.15-.01.29.04.39.15.1.15.15.32.13.49v1.37h-.98c-.15.01-.29-.05-.39-.16m-4.15,0c-.1-.15-.13-.32-.12-.49v-.73c-.01-.17.02-.34.12-.49.1-.1.23-.15.38-.15h.52c.15-.01.29.04.4.15.1.15.15.32.13.49v1.37h-.93c-.15.01-.29-.05-.4-.16m5.96.63v-1.93c.02-.13.02-.28,0-.41-.02-.11-.07-.21-.15-.29-.07-.07-.15-.13-.23-.19-.08-.05-.18-.08-.28-.1-.1-.01-.21-.01-.3,0h-.56c-.1-.01-.19-.01-.29,0-.1.01-.18.05-.27.1-.08.06-.16.12-.23.19-.07.08-.12.18-.15.29-.02.12-.02.25,0,.38h0v.27c.02.33-.05.67-.22.95-.19.19-.46.29-.74.27h-.76v-1.44c.02-.13.02-.28,0-.41-.04-.11-.08-.21-.16-.29-.06-.07-.13-.15-.22-.19s-.18-.08-.28-.1c-.1-.01-.21-.01-.3,0h-.42c-.1-.01-.18-.01-.28,0-.1.01-.18.05-.27.1s-.17.11-.23.19c-.07.08-.12.18-.15.29-.02.13-.02.28,0,.41v.87c-.02.13-.02.27,0,.4.04.11.08.21.15.3.06.07.15.13.23.18.07.06.17.1.27.11s.21.01.3,0h2.17c.15.01.3.01.45,0,.13-.04.27-.08.39-.16.11-.06.21-.15.28-.24v.12c.07.07.15.13.23.18.08.06.17.1.27.11s.21.01.3,0l1.44.05Z"/>
    <rect id="rect71" class="cls-1" x="31.78" y="84.66" width=".49" height="4.73"/>
    <path id="path72" class="cls-1" d="m13.99,88.9h-2.29v-1.43c.49-.47,1.18-.66,1.83-.46.25.11.44.35.46.63v1.26Zm-4.58,0h-.96c-.15.01-.29-.05-.39-.16-.1-.15-.15-.32-.13-.49v-.73c-.01-.17.04-.34.13-.49.1-.1.23-.16.38-.15h.42c.15-.01.29.04.39.15.1.15.15.32.13.49l.02,1.37Zm10.19,0h-.46c-.28.04-.55-.07-.74-.27-.17-.28-.24-.62-.22-.95v-1.01h-.49v1.01c.02.33-.05.67-.22.95-.19.19-.46.3-.74.27h-.46v-2.22h-.49v2.22h-1.27v-1.21c-.02-.47-.3-.89-.74-1.07-.68-.28-1.47-.16-2.04.3v-2.23h-.5v4.25h-1.35v-1.48c.02-.13.02-.28,0-.41-.05-.11-.13-.22-.23-.29-.06-.07-.15-.15-.23-.19s-.18-.08-.28-.1c-.1-.01-.19-.01-.29,0h-.41c-.1-.01-.18-.01-.28,0s-.19.05-.28.1c-.08.06-.16.12-.23.19-.07.08-.12.18-.15.29-.04.13-.06.27-.06.41v.87c0,.13.02.27.06.4.04.11.08.21.15.3.07.07.15.13.23.18s.18.08.28.11c.1.01.19.01.29,0h8.26c.15.01.3.01.45,0,.13-.04.27-.08.39-.16.12-.07.23-.17.33-.28v-.07.07c.08.11.19.21.32.28s.25.12.39.16c.13.01.27.01.4,0h1v-2.9h-.49l.1,2.48Z"/>
    <path id="path73" class="cls-1" d="m8.91,85.78s.05.07.1.08c.05.01.11.01.16,0,.06.01.11.01.17,0,.04-.01.07-.05.1-.08v-.34s-.06-.07-.1-.08c-.06-.01-.11-.01-.17,0-.05-.01-.11-.01-.16,0-.05.01-.08.04-.1.08-.01.02-.01.06,0,.08-.01.06-.01.11,0,.17-.01.02-.01.06,0,.08"/>
    <path id="path74" class="cls-1" d="m7.95,85.78s.06.07.1.08c.06.01.11.01.17,0,.06.01.11.01.17,0,.04-.01.06-.05.07-.08v-.34s-.05-.07-.08-.08c-.06-.01-.11-.01-.17,0-.06-.01-.11-.01-.17,0-.04.01-.07.05-.1.08v.34"/>
    <path id="path75" class="cls-1" d="m25.11,85.78s.06.07.1.08c.06.01.11.01.17,0,.06.01.11.01.17,0,.04-.01.07-.05.08-.08v-.34s-.05-.07-.08-.08c-.06-.01-.11-.01-.17,0-.06-.01-.11-.01-.17,0-.04.01-.07.05-.1.08v.34"/>
    <path id="path76" class="cls-1" d="m24.16,85.78s.02.1.07.12c.06.01.11.01.17,0,.05.01.11.01.16,0s.08-.04.1-.08c.01-.02.01-.06,0-.08.01-.06.01-.11,0-.17.01-.02.01-.06,0-.08-.01-.05-.05-.07-.1-.08s-.11-.01-.16,0c-.06-.01-.11-.01-.17,0-.05.01-.08.04-.1.08v.08c-.01.06-.01.11,0,.17v.08"/>
    <path id="path77" class="cls-1" d="m35.16,87.81v1.1h-.93c-.15.01-.29-.05-.4-.16-.08-.15-.13-.32-.12-.49v-.73c-.01-.17.04-.34.12-.49.1-.1.23-.15.38-.15h.42c.15-.01.29.04.4.15.1.15.15.32.13.49v.27Zm.49,1.58v-1.93c.02-.13.02-.28,0-.41-.02-.11-.08-.21-.16-.29-.06-.07-.13-.15-.22-.19s-.18-.08-.28-.1c-.1-.01-.21-.01-.3,0h-.5c-.1-.01-.18-.01-.28,0s-.18.05-.27.1-.17.11-.23.19c-.07.08-.12.18-.15.29-.02.13-.02.28,0,.41v.87c-.02.13-.02.27,0,.4.04.11.08.21.15.3.06.07.15.13.23.18.07.06.17.1.27.11s.21.01.3,0h.95c0,.7-.4.76-.74.76h-.51v.53h.51c.63.05,1.18-.42,1.23-1.06,0-.08,0-.17-.01-.24"/>
    <path id="path78" class="cls-1" d="m28.62,88.92h-.93c-.15.01-.29-.05-.39-.16-.1-.15-.15-.32-.13-.49v-.73c-.01-.17.04-.34.13-.49.1-.1.23-.16.36-.15h.42c.15-.01.29.04.4.15.1.15.15.32.13.49v1.37Zm-5.72-1.1v1.1h-.92c-.15.01-.29-.05-.4-.16-.1-.15-.13-.32-.12-.49v-.73c-.01-.17.02-.34.12-.49.1-.1.23-.15.38-.15h.42c.15-.01.29.04.4.15.1.15.13.32.12.49v.27Zm7.4-3.12v4.25h-1.21v-1.48c0-.15-.02-.28-.06-.41-.02-.11-.08-.21-.16-.29-.06-.07-.13-.15-.22-.19s-.18-.08-.28-.1c-.1-.01-.21-.01-.3,0h-.42c-.1-.01-.18-.01-.28,0s-.18.05-.27.1-.17.12-.23.19c-.07.08-.12.18-.15.29-.01.12-.01.25,0,.38h0v.33c.02.3-.06.61-.22.87-.19.19-.46.3-.74.27h-.57v-2.43h-.49v2.43h-1.32v-1.43c.02-.13.02-.28,0-.41-.04-.11-.08-.21-.16-.29-.06-.08-.15-.15-.23-.19s-.17-.08-.27-.1c-.1-.01-.21-.01-.3,0h-.42c-.1-.01-.18-.01-.28,0s-.19.05-.28.1-.16.12-.22.19c-.07.08-.12.18-.16.29-.02.13-.02.28,0,.41v.87c-.02.13-.02.27,0,.4.04.11.1.21.16.3.06.07.13.13.22.18.08.06.18.1.28.11s.21.01.3,0h.91c0,.69-.4.75-.74.75h-.52v.53h.52c.62.06,1.16-.39,1.23-1,.01-.1.01-.19-.01-.29h2.33c.15.01.3.01.45,0,.13-.04.27-.08.39-.16.11-.06.19-.15.27-.24,0,0,0,.08.06.12.06.07.15.13.23.18.08.06.17.1.27.11s.21.01.3,0h3.07v-4.65h-.47Z"/>
  </g>
</svg>