<?xml version="1.0" encoding="utf-8"?>
<!-- Generator: Adobe Illustrator 24.3.0, SVG Export Plug-In . SVG Version: 6.00 Build 0)  -->
<svg version="1.1" id="Layer_1" xmlns="http://www.w3.org/2000/svg" xmlns:xlink="http://www.w3.org/1999/xlink" x="0px" y="0px"
	 viewBox="0 0 120 120" style="enable-background:new 0 0 120 120;" xml:space="preserve">
<style type="text/css">
	.st0{fill-rule:evenodd;clip-rule:evenodd;fill:#009FE3;}
</style>
<path class="st0" d="M55.6,7.4c17.1-2,27.7,6.7,35.1,16.5c13.1,17.4,15,49.2,2,69.3c-6.2,9.6-16,18.2-27.7,19.4
	c-17.8,1.9-29.2-7.3-36.5-18.3c-6.1-9.2-10-20.7-10-34.5c0-13,3.8-25.3,10-34.5C34,17,43.4,8.8,55.6,7.4 M54.4,13.9
	C39,17.3,30,34.6,28.2,49.9C35.2,38.2,46.2,30.5,65,30.5c1-0.2,1.3-1,2.3-1.1c1.9,1.7,5.5,0.9,5.7,4c0.1,1.7-1.3,3-2.9,3.1
	c0.9,3.8,0.7,8.6,2,12c1.5-1.7,4.7-1.6,4.3-5.1c1.2-0.9,2.4-1.8,4.3-2c-1.3-1.5-3.6-2.1-4.3-4.3c0.4-5.1-0.4-10.4,6.8-9.7
	C77.9,19.1,67.9,11,54.4,13.9 M83.5,33.9c0.1-0.8-0.1-1.5-0.6-1.7C83.1,32.8,82.5,34.2,83.5,33.9 M60.7,36.2c1.5,2.8,3,5.5,4.9,8
	c-0.1-3-0.7-5.4-0.9-8.3C63.4,36,61.6,35.6,60.7,36.2 M90.1,41.3c-0.7-1.9-1-4.1-2.3-5.4C87.7,38.6,88.5,40.4,90.1,41.3 M67.3,55.3
	c5.7-0.9,11.4-1.8,14.3-5.4c0.4-0.1,0.5-0.5,0.9-0.6c-0.1-0.4-0.5,0-0.6,0.3c-4.4,2.7-8.9,5.4-16.6,4.9c-4.6-4.1-6.5-11-8.6-17.7
	c-7.4,1.5-13.9,5.8-18.8,11.7c-5.2,6.3-11.2,16.4-8.8,26c3.9-3.4,6.7-8,8.8-12.6c0.8-1.7,1.1-3.9,2-5.4c4.3-7.3,17.3,0.3,22.8,1.7
	c1.7,0.4,7.9,1.2,8.6-0.9c-1.7,0.1-4.1,1.8-5.1,0C66.6,56.7,67,56,67.3,55.3 M78.1,45c1.5-0.3,4.1-1,4-2C80.9,43.9,79.1,44,78.1,45
	 M28.2,59.6c2.9-6.1,7.8-11.6,11.1-16.3C34.9,47.9,28.8,52.2,28.2,59.6 M91.2,53.9c-1.8,2.2-4,4.2-6.8,6.3c-2.7,2-5.7,3.1-8.6,4.9
	c-2.7,1.6-4,4.8-6,6.3c-4,2.9-7.9-0.1-11.1-2.3c-0.1,0.8,2.7,1.1,2.6,2.9c-0.7,3.3-4.1,3.9-7.4,4.6c-0.4,4.1,4.5,4.4,6.6,7.4
	c1,1.5,1,3.5,2,5.1c1.6,2.8,8,3.2,8.3,6.3c0.3,3.7-4.9,4.1-4.8,8.6c19.7-5.9,29.7-28.6,26-54.8C91.8,50.9,91.3,52.2,91.2,53.9
	 M45.3,65.6c-1.7,2.3-0.6,3.8-2,5.7c-1,1.5-4.3,3.1-6.3,4.6c-1.9,1.4-5.6,3.4-5.7,5.4c-0.1,1.6,3.1,6.8,4.3,8.6
	c5.2,7.9,12.8,14.4,24.5,14.8c1.8-5.6,0.1-7.7-3.4-10.6C53,91,50.5,88.8,47,85.8c-2.5-2.1-5.3-3.1-4.6-7.4
	c0.7-4.7,5.3-9.5,10.3-11.1C49.4,67.7,47.9,64,45.3,65.6 M59.9,68.4c3.9-0.9,6.8,3.3,9.1,0.3C65.9,70,62.1,65.2,59.9,68.4
	 M41.9,68.4c-0.1,0-2,2.2-1.7,2.6C40.6,70,41.8,69.8,41.9,68.4 M54.4,107C54.5,107.8,55.6,106.7,54.4,107
	c-10.5-3.6-17.9-10.3-23.1-18.8c-1.6-2.5-2.6-6.7-6-7.4C30.3,94.2,38.9,104,54.4,107"/>
</svg>
