<?xml version="1.0" encoding="UTF-8"?>
<svg id="Layer_1" data-name="Layer 1" xmlns="http://www.w3.org/2000/svg" xmlns:xlink="http://www.w3.org/1999/xlink" viewBox="0 0 120 120">
  <defs>
    <style>
      .cls-1 {
        fill: #55b396;
      }

      .cls-2 {
        clip-path: url(#clippath);
      }

      .cls-3 {
        fill: none;
      }

      .cls-4 {
        fill: url(#linear-gradient);
      }
    </style>
    <clipPath id="clippath">
      <path class="cls-3" d="m62.73,47.17c0-.95.12-1.86.34-2.73.17.88.26,1.79.26,2.73,0,.79-.07,1.58-.19,2.35-.02.13-.04.26-.07.38-.22-.87-.34-1.79-.34-2.73m1.09,4.79c.24-.73.42-1.48.55-2.24.14-.85.21-1.7.21-2.55,0-1.68-.27-3.3-.76-4.8.14-.29.3-.58.46-.85.58,1.72.9,3.57.9,5.5,0,1.19-.12,2.36-.36,3.5-.15.74-.36,1.47-.61,2.19-.14-.24-.27-.49-.4-.74m-2.09-9.66c.11-.31.24-.62.37-.92.14.3.26.61.37.92-.14.32-.26.64-.37.97-.11-.33-.23-.66-.37-.97m3.35,11.65c.42-1.03.75-2.1.97-3.19.26-1.23.39-2.49.39-3.76,0-2.39-.45-4.66-1.27-6.74.15-.18.3-.35.46-.52l.07-.08c.86,2.24,1.34,4.69,1.34,7.26,0,1.46-.16,2.9-.46,4.3-.24,1.12-.58,2.22-1.01,3.28-.17-.18-.33-.37-.49-.57m-4.61-13.87c.13-.29.27-.58.41-.86.17.25.34.51.5.78-.15.27-.28.55-.41.84-.16-.26-.32-.51-.5-.75m2.35-.08c.16-.27.32-.53.5-.78.15.28.28.57.41.86-.18.24-.34.49-.5.75-.13-.28-.27-.56-.41-.84m-3.33-1.11c-.15-.16-.3-.31-.46-.46.14-.31.3-.61.45-.91.05.05.09.1.14.15.14.15.28.31.42.47-.16.28-.31.57-.45.87l-.11-.11h0Zm4.67-.76c.14-.16.27-.31.42-.47.05-.05.09-.1.14-.15.16.3.31.6.45.91-.16.15-.31.3-.46.46l-.11.11c-.14-.3-.3-.58-.45-.87m-2.59-.11c.17-.27.35-.54.54-.81.19.26.37.53.54.81-.19.25-.37.5-.54.76-.17-.26-.35-.51-.54-.76m-1.03-1.21c-.13-.14-.27-.28-.41-.41.19-.3.38-.59.58-.88.2.22.4.44.59.67-.2.27-.39.54-.58.83-.06-.07-.12-.14-.19-.2m2.36-.62c.19-.23.39-.45.59-.67.2.29.39.58.58.88-.14.14-.27.27-.41.41-.06.07-.13.13-.19.2-.19-.28-.38-.56-.58-.83m-1.31-1.56l-.12-.12c.2-.25.41-.5.63-.74.21.24.43.49.63.74l-.12.12c-.17.19-.35.37-.51.57-.17-.19-.34-.38-.51-.57m.51-2.68c-3.45-3.38-8.07-5.45-13.15-5.45v1.25c4.74,0,9.06,1.93,12.29,5.1-.23.26-.45.52-.67.78-2.89-2.59-6.64-4.15-10.73-4.15-1.06,0-2.12.11-3.16.32-1.04.21-2.06.53-3.05.95l.49,1.15c.91-.39,1.85-.68,2.8-.87.95-.19,1.92-.29,2.91-.29,3.8,0,7.29,1.47,9.97,3.9-.21.3-.42.61-.62.92-2.34-1.91-5.27-3.05-8.46-3.05-1.94,0-3.84.43-5.58,1.24-1.74.81-3.32,2-4.63,3.51l.95.82c1.19-1.38,2.63-2.46,4.21-3.19,1.58-.73,3.3-1.13,5.05-1.13,2.95,0,5.66,1.08,7.81,2.88-.17.31-.34.63-.5.96-1.81-1.36-4.03-2.16-6.42-2.16s-4.8.86-6.68,2.36c-1.87,1.49-3.3,3.6-3.99,6.1l1.21.33c.61-2.24,1.89-4.12,3.56-5.45,1.66-1.32,3.72-2.08,5.9-2.08s4.25.77,5.89,2.07c-1.03,2.5-1.61,5.26-1.61,8.16s.62,5.87,1.76,8.5c-.81.67-1.7,1.19-2.65,1.56-1.08.42-2.23.64-3.4.64-.2,0-.39,0-.58-.02.31.44.65.86,1.01,1.26,1.18-.05,2.34-.29,3.43-.72.97-.38,1.9-.9,2.74-1.56l.02.04c.16.3.32.6.49.9-.79.69-1.66,1.27-2.57,1.74-.85.43-1.75.76-2.68.98.41.34.84.65,1.28.94.67-.22,1.33-.49,1.96-.81.95-.48,1.85-1.08,2.68-1.78.16.24.32.48.49.71-.55.5-1.13.96-1.74,1.38-.68.46-1.38.86-2.12,1.21.48.24.98.46,1.5.65.46-.25.9-.53,1.33-.82.63-.43,1.23-.9,1.8-1.42.19.24.39.47.6.69-.3.29-.61.58-.92.85-.47.4-.95.77-1.44,1.12.35.08.69.16,1.05.21h.75c.15-.12.3-.25.45-.38.33-.29.66-.58.97-.89.45.44.93.87,1.43,1.27h.75c.35-.06.7-.13,1.05-.21-2.54-1.77-4.59-4.16-5.99-6.91-1.41-2.76-2.18-5.89-2.18-9.13,0-2.57.48-5.02,1.34-7.26l.07.08c.16.17.31.34.46.52-.82,2.08-1.27,4.35-1.27,6.74,0,3.53,1,6.89,2.78,9.7,1.53,2.43,3.63,4.46,6.16,5.85.51-.19,1.01-.4,1.5-.65-2.74-1.27-5-3.33-6.6-5.87-1.65-2.62-2.58-5.75-2.58-9.04,0-1.93.32-3.78.9-5.5.17.27.32.56.46.85-.49,1.5-.76,3.12-.76,4.8,0,3.58,1.22,6.89,3.28,9.47,1.69,2.12,3.95,3.73,6.56,4.57.45-.29.87-.61,1.28-.94-2.75-.65-5.13-2.23-6.86-4.4-1.88-2.35-3-5.4-3-8.69,0-.94.09-1.85.26-2.73.22.87.34,1.79.34,2.73,0,3.23,1.24,6.15,3.24,8.27,1.92,2.03,4.54,3.33,7.45,3.44.36-.4.7-.82,1.01-1.26-.19.01-.39.02-.59.02-2.28,0-4.38-.82-6.04-2.2.55-1.27.97-2.59,1.27-3.94.32-1.5.49-3.03.49-4.57,0-2.9-.57-5.66-1.61-8.16,1.64-1.3,3.68-2.07,5.89-2.07s4.24.76,5.9,2.08c1.67,1.33,2.95,3.21,3.56,5.45l1.2-.33c-.69-2.5-2.12-4.61-3.99-6.1-1.88-1.49-4.21-2.36-6.68-2.36s-4.61.8-6.42,2.16c-.16-.32-.32-.65-.5-.96,2.15-1.8,4.86-2.88,7.81-2.88,1.76,0,3.48.39,5.05,1.13,1.58.74,3.02,1.82,4.21,3.19l.67-.58v-.54c-1.26-1.37-2.74-2.45-4.36-3.21-1.74-.81-3.64-1.24-5.58-1.24-3.18,0-6.12,1.14-8.46,3.05-.2-.31-.4-.62-.62-.92,2.68-2.43,6.16-3.9,9.97-3.9.99,0,1.96.1,2.91.29.95.2,1.89.49,2.8.87l.49-1.15c-.98-.42-2-.74-3.05-.95-1.05-.21-2.1-.32-3.16-.32-4.09,0-7.84,1.56-10.73,4.15-.22-.27-.44-.53-.67-.78,3.23-3.16,7.54-5.1,12.29-5.1v-1.25c-5.08,0-9.7,2.07-13.15,5.45"/>
    </clipPath>
    <linearGradient id="linear-gradient" x1="-1650.55" y1="-9202.4" x2="-1649.7" y2="-9202.4" gradientTransform="translate(81497.22 454183.24) scale(49.35)" gradientUnits="userSpaceOnUse">
      <stop offset="0" stop-color="#66b45b"/>
      <stop offset="1" stop-color="#3f97c6"/>
    </linearGradient>
  </defs>
  <g class="cls-2">
    <rect class="cls-4" x="40.52" y="26.5" width="42.9" height="36.69"/>
  </g>
  <g>
    <g>
      <rect class="cls-1" x="24.37" y="86.68" width="1.08" height="1.29"/>
      <path class="cls-1" d="m23.79,85.53c2.58,0,4.82-2.02,4.82-4.55.34,1.28,1.38,2.06,2.73,2.09h0s16.78,0,16.78,0c.06-.64.09-1.23.09-1.76,0-3.41-1.21-5.14-3.64-5.14-1.97,0-3.99,1.65-5.02,4.15l.24-7.05h-1.11v8.75h-2.09v-.02h-1.97c.2-.41.29-.95.29-1.61v-4.21h-1.06v3.75c0,.7-.08,1.18-.23,1.47-.21.41-.64.62-1.29.62h-.68v-.02h-.32c-1.14,0-1.64-.49-2.2-1.94-.47-1.21-1.74-2.17-2.67-2.17-.55,0-.82.02-.82.03h.02v.95c1.24,0,1.97.7,1.97,2.06,0,1.82-1.77,3.52-3.8,3.52-2.41,0-3.88-1.8-3.88-4.53v-1.32h-1.08v1.51c0,3.03,2.12,5.4,4.91,5.4h0Zm20.69-8.39c1.64,0,2.64,1.53,2.64,3.93,0,.3-.02.62-.05.95h-7.5c.71-2.55,2.99-4.88,4.91-4.88h0Z"/>
      <rect class="cls-1" x="85.65" y="90.64" width="1.06" height="1.27"/>
      <rect class="cls-1" x="42.65" y="90.64" width="1.06" height="1.27"/>
      <rect class="cls-1" x="40.68" y="90.64" width="1.06" height="1.27"/>
      <path class="cls-1" d="m71.09,83.07h12.23v-1.53c0-1.55-.44-2.79-1.33-3.73-.91-.95-2.14-1.42-3.67-1.42h-1.35l1.8-3.11h-1.26c-1,1.79-1.77,3.17-2.32,4.15h3.12c1.29,0,2.26.41,2.91,1.23.56.7.83,1.64.83,2.8,0,.18-.02.36-.03.55h-10.96v-5.82h-1.06v5.79c0,1.79-.71,2.56-2.12,2.56v1.02c1.76-.11,2.79-.92,3.2-2.49h0Z"/>
      <rect class="cls-1" x="70.02" y="73.81" width="1.08" height="1.29"/>
      <rect class="cls-1" x="94.95" y="90.64" width="1.06" height="1.27"/>
      <path class="cls-1" d="m87.54,83.07h4.49c.56.88,1.44,1.32,2.61,1.32s1.97-.44,2.55-1.32h3.32c1.49,0,2.23-.9,2.23-2.67v-7.14h-1.06v6.67c0,.7-.07,1.18-.23,1.46-.21.42-.64.64-1.29.64h-.65v-.02h-1.85c.09-.33.14-.68.14-1.06,0-1-.27-1.82-.8-2.44-.56-.65-1.35-.99-2.34-.99s-1.77.32-2.35.97c-.56.65-.85,1.47-.85,2.47,0,.38.05.73.12,1.05h-3.93v-5.82h-1.06v5.79c0,1.79-.71,2.56-2.12,2.56v1.02c1.76-.11,2.79-.92,3.08-2.49h0Zm5.59-3.8c.35-.53.88-.8,1.56-.8s1.12.24,1.44.74c.27.41.41.95.41,1.64,0,1.73-.64,2.59-1.91,2.59-.65,0-1.15-.24-1.5-.74-.29-.42-.42-.99-.42-1.67,0-.74.14-1.32.42-1.76h0Z"/>
      <rect class="cls-1" x="33.86" y="73.81" width="1.08" height="1.29"/>
      <rect class="cls-1" x="78.43" y="100.81" width="1.06" height="1.27"/>
      <path class="cls-1" d="m104.77,96.69c0,.69-.07,1.17-.22,1.44-.21.42-.63.63-1.27.63h-.7v-.02h-1.95c.19-.4.28-.95.28-1.59v-7.06h-1.05v6.59c0,.69-.07,1.17-.22,1.45-.21.4-.63.61-1.27.61h-.7v-.02h-1.95c.19-.4.28-.95.28-1.59v-4.17h-1.05v3.7c0,.69-.07,1.17-.22,1.45-.21.4-.63.61-1.27.61h-.63v-.02h-1.65v-.46c0-3.12-1.96-5.1-4.95-5.1-1.63,0-2.86.53-3.72,1.59.46.46.76.76.91.93.6-.99,1.54-1.48,2.82-1.48,2.35,0,3.69,1.45,3.69,3.98,0,.16-.02.35-.03.54h-10.7c.19-.4.28-.95.28-1.59v-4.17h-1.05v3.7c0,.69-.07,1.17-.22,1.45-.21.4-.63.61-1.27.61h-.54v-.02h-2.55c.13-.51.19-1.05.19-1.62v-7.03h-1.05v6.82c0,2.65-1.21,4.35-3.18,4.35s-3.19-1.77-3.19-4.35v-1.23h-1.05v1.44c0,2.97,1.78,5.15,4.24,5.15,1.56,0,2.94-.93,3.67-2.49h30.13c1.47,0,2.2-.88,2.2-2.64v-7.06h-1.05v6.59h0Z"/>
      <path class="cls-1" d="m20.98,98.72c0,1.77-.7,2.53-2.1,2.53v1c2.2-.12,3.15-1.29,3.15-3.73v-5.53h-1.05v5.72h0Z"/>
      <rect class="cls-1" x="76.47" y="100.81" width="1.06" height="1.27"/>
      <rect class="cls-1" x="104.76" y="73.27" width="1.06" height="9.81"/>
      <path class="cls-1" d="m47.59,96.69c0,.69-.07,1.17-.22,1.44-.21.42-.63.63-1.27.63h-.7v-.02h-1.95c.2-.4.28-.95.28-1.59v-4.17h-1.05v3.7c0,.69-.07,1.17-.23,1.45-.21.4-.63.61-1.27.61h-.64v-.02h-1.83c.09-.33.13-.68.13-1.05,0-.99-.27-1.8-.79-2.41-.55-.64-1.33-.97-2.31-.97s-1.75.31-2.32.96c-.55.64-.84,1.45-.84,2.44,0,.37.05.72.12,1.03h-1.77v.02h-1.62v-2.79c0-1.98-1.03-3-2.7-3-.85,0-1.57.33-2.16.99-.57.66-.86,1.47-.86,2.44s.27,1.78.81,2.43,1.23.96,2.07.96h1.63c-.26.96-.87,1.45-1.83,1.45h-.13v1c1.72-.11,2.74-.91,3.04-2.46h3.96c.55.87,1.42,1.3,2.58,1.3s1.95-.44,2.52-1.3h8.2c1.47,0,2.2-.88,2.2-2.64v-7.06h-1.05v6.59h0Zm-19.36,2.05l-1.74.02c-.58,0-1.05-.28-1.39-.85-.28-.46-.42-1-.42-1.6s.16-1.09.48-1.56c.36-.53.82-.79,1.39-.79s.97.18,1.27.53c.27.3.4.68.4,1.11v3.16h0Zm7.49,1.41c-.64,0-1.14-.24-1.48-.73-.28-.42-.42-.97-.42-1.65,0-.73.14-1.3.42-1.74.35-.53.87-.79,1.54-.79s1.11.24,1.42.73c.27.4.4.95.4,1.62,0,1.71-.63,2.56-1.89,2.56h0Z"/>
      <rect class="cls-1" x="22.38" y="86.68" width="1.08" height="1.29"/>
      <rect class="cls-1" x="50.65" y="90.1" width="1.05" height="9.7"/>
      <path class="cls-1" d="m58.97,92.95c-1.71,0-2.86,1.38-2.86,3.3s1.21,3.33,2.86,3.33c.86,0,1.44-.28,1.77-.85-.03,1.69-.73,2.53-2.11,2.53v1c2.2-.12,3.16-1.29,3.16-3.73v-2.23c0-1.95-1.18-3.34-2.82-3.34h0Zm.02,5.68c-1.09,0-1.84-1.03-1.84-2.4s.68-2.35,1.77-2.35,1.86,1.06,1.86,2.41-.69,2.34-1.78,2.34h0Z"/>
      <path class="cls-1" d="m57.25,83.07h1.32c1.49,0,2.23-.9,2.23-2.67v-7.14h-1.06v6.67c0,.7-.07,1.18-.23,1.46-.21.42-.64.64-1.29.64h-2.64v-2.82c0-2-1.05-3.03-2.73-3.03-.86,0-1.59.33-2.18,1-.58.67-.86,1.49-.86,2.47s.27,1.8.82,2.46c.55.65,1.24.97,2.09.97h1.65c-.26.97-.88,1.47-1.85,1.47h-.14v1.02c1.74-.11,2.77-.92,3.08-2.49h1.79Zm-2.76-1.06l-1.76.02c-.59,0-1.06-.29-1.41-.86-.29-.47-.42-1.02-.42-1.62s.17-1.11.49-1.58c.36-.53.83-.8,1.41-.8s.99.18,1.29.53c.27.3.41.68.41,1.12v3.2h0Z"/>
      <rect class="cls-1" x="62.83" y="73.27" width="1.06" height="9.81"/>
    </g>
    <path class="cls-1" d="m104.66,107.95c-.15-.12-.18-.25-.18-.37,0-.25.25-.44.56-.44.37,0,.54.15.54.41h.05v-.51h-.16c-.11-.02-.25-.04-.46-.04-.43,0-.78.3-.77.68,0,.16.05.36.22.5l.94.72c.12.11.17.22.17.37,0,.3-.24.51-.62.52-.41.01-.7-.24-.66-.66h-.05c-.07.18-.08.46-.05.58.17.15.53.22.81.22.46,0,.83-.34.83-.75,0-.18-.07-.38-.21-.5l-.95-.73h0Zm-.89,1.25h-.05c-.13.3-.29.52-.74.53h-.73v-1.19h.81c.12,0,.18.09.18.2v.06h.05v-.66h-.05v.06c0,.11-.06.2-.19.2h-.8v-1.19h.97c.14,0,.23.11.23.24v.07h.05v-.53c-.08.03-.34.07-.52.07h-1.37v.05h.07c.15,0,.27.11.27.25v2.22c0,.14-.12.25-.27.25h-.07v.05h1.9l.26-.67h0Zm-4.53-2.14h1.52c.19,0,.44-.04.52-.07v.53h-.05v-.07c0-.13-.09-.24-.23-.24h-.85v2.38c0,.14.13.25.27.25h.05v.05h-.96v-.05h.06c.15,0,.27-.11.27-.25v-2.37h-.85c-.14,0-.23.11-.23.24v.07h-.05v-.53c.08.03.34.07.52.07m-2.38,1.72l.54-1.28.53,1.28h-1.07Zm.59-1.78h-.04c0,.12-.18.48-.18.48l-.97,2.07c-.1.19-.24.27-.37.27h-.04v.05h.89v-.05h-.04c-.11,0-.23-.11-.16-.29l.26-.61h1.19l.26.62c.06.18-.06.28-.16.28h-.04v.05h.96v-.05h-.03c-.12,0-.27-.08-.36-.27l-1.16-2.55h0Zm-4.24-.26h.92c.8,0,1.33.6,1.33,1.5s-.53,1.5-1.33,1.5h-.92v-2.99Zm-.66-.14v.05h.06c.15,0,.3.12.3.27v2.62c0,.16-.14.29-.3.29h-.06v.05h1.58c1,0,1.68-.65,1.68-1.64s-.68-1.64-1.68-1.64h-1.58Zm-2.9,3.18c-.7,0-1.09-.39-1.09-.95,0-.29.09-.55.3-.75.14.19.35.39.6.62.25.23.51.45.9.78-.16.19-.4.31-.7.31m1.43-1.66v-.05h-.94v.05h.07c.15,0,.24.09.3.21.13.26.12.59,0,.87-.4-.33-.65-.57-.85-.74-.48-.43-.74-.73-.74-1.12s.26-.66.62-.66c.4,0,.67.27.67.72h.05l.08-.53c-.16-.2-.48-.33-.79-.33-.58,0-.94.35-.94.8,0,.24.06.44.18.63-.32.16-.57.44-.57.86,0,.7.52,1.1,1.43,1.1.36,0,.66-.12.86-.32.4.31.82.28,1.01.28v-.05c-.3-.02-.57-.26-.82-.47.16-.28.21-.64.14-1.02-.02-.13.04-.21.17-.21h.07Zm-5.59-.17c-.15-.12-.18-.25-.18-.37,0-.25.25-.44.56-.44.37,0,.54.15.54.41h.05v-.51h-.16c-.11-.02-.25-.04-.46-.04-.43,0-.78.3-.77.68,0,.16.05.36.22.5l.94.72c.12.11.17.22.17.37,0,.3-.24.51-.62.52-.41.01-.7-.24-.66-.66h-.05c-.06.18-.07.46-.05.58.17.15.53.22.81.22.46,0,.83-.34.83-.75,0-.18-.07-.38-.21-.5l-.95-.73h0Zm-1.55-.95h-.04l-1.19,2.38-1.23-2.38h-.05l-.36,2.56c-.02.17-.16.27-.32.27h-.07v.05h.87v-.04h-.07c-.1,0-.18-.08-.17-.18l.21-1.88,1.13,2.17h.05c.03-.19.17-.48.17-.48l.88-1.74.25,1.93c.01.1-.08.18-.17.18h-.07v.04h.97v-.05h-.07c-.16,0-.29-.09-.32-.26l-.37-2.57h0Zm-3.45,2.2c-.13.3-.29.52-.74.53h-.73v-2.36c0-.14.13-.25.28-.25h.05v-.05h-.97v.05h.06c.15,0,.28.11.28.25v2.21c0,.14-.12.25-.27.25h-.07v.05h1.9l.26-.67h-.05Zm-4.48-.42h1.07l-.53-1.28-.54,1.28Zm.59-1.78l1.16,2.55c.1.19.24.27.36.27h.03v.05h-.96v-.05h.04c.11,0,.23-.1.16-.28l-.26-.62h-1.18l-.26.61c-.07.19.05.29.16.29h.04v.05h-.89v-.05h.04c.12,0,.27-.08.37-.27l.97-2.07s.17-.36.18-.48h.05Zm-3.57-.4v.05h.06c.16,0,.28.12.3.27v2.62c0,.16-.14.29-.3.29h-.06v.05h1.02v-.05h-.06c-.16,0-.3-.13-.3-.29v-2.8h.54c.4,0,.62.29.63.72,0,.1,0,.22-.03.28-.21.67-.98.5-.98.5v.04c.59.31,1.36-.07,1.36-.78,0-.56-.37-.91-.96-.91h-1.22Zm-4.13.47v.05h.07c.15,0,.26.11.27.24v2.22c0,.14-.12.25-.27.25h-.06v.05h.96v-.05h-.07c-.15,0-.26-.11-.27-.25v-2.36s.27,0,.54,0c.38.02.61.23.62.58,0,.1,0,.2-.03.27-.13.39-.43.4-.69.4-.15,0-.27,0-.27,0v.04c.19,0,.35.16.48.31.04.05.4.58.46.64.15.18.35.41.87.41h.15v-.05c-.26,0-.39-.14-.58-.35-.19-.22-.41-.51-.41-.51-.1-.14-.26-.32-.36-.37.42-.04.73-.37.73-.77,0-.47-.36-.76-.95-.76h-1.18Zm-2,2.73c-.69,0-1.23-.54-1.23-1.33s.54-1.33,1.23-1.33,1.23.54,1.23,1.33-.54,1.33-1.23,1.33m0-2.8c-.87,0-1.58.6-1.58,1.47s.71,1.47,1.58,1.47,1.58-.6,1.58-1.47-.71-1.47-1.58-1.47m-3.3.07h-.64v.05h.07c.15,0,.27.11.27.25v2.22c0,.14-.12.25-.27.25h-.07v.05h.98v-.05h-.07c-.15,0-.27-.11-.27-.25v-1.04h.82c.12,0,.18.09.18.2v.06h.05v-.66h-.05v.06c0,.11-.06.2-.19.2h-.81v-1.19h.99c.14,0,.23.11.23.24v.07h.05v-.53c-.08.03-.34.07-.53.07h-.74Zm-2.21,2.14h-.05c-.13.3-.29.52-.74.53h-.73v-1.19h.81c.12,0,.18.09.18.2v.06h.05v-.66h-.05v.06c0,.11-.06.2-.19.2h-.8v-1.19h.97c.14,0,.23.11.23.24v.07h.05v-.53c-.08.03-.33.07-.52.07h-1.37v.05h.07c.15,0,.27.11.27.25v2.22c0,.14-.12.25-.27.25h-.07v.05h1.9l.26-.67h0Zm-5.09-2.14v.05h.06c.15,0,.26.11.27.24v2.22c0,.14-.12.25-.27.25h-.06v.05h.95v-.05h-.06c-.15,0-.26-.11-.27-.25v-2.36s.27,0,.54,0c.38.02.61.23.62.58,0,.1,0,.2-.03.27-.13.39-.43.4-.69.4-.15,0-.27,0-.27,0v.04c.18,0,.35.16.47.31.04.05.4.58.46.64.15.18.35.41.87.41h.15v-.05c-.26,0-.39-.14-.58-.35-.19-.22-.41-.51-.41-.51-.1-.14-.26-.32-.36-.37.42-.04.73-.37.73-.77,0-.47-.36-.76-.95-.76h-1.17Zm-2.37,0c-.18,0-.44-.04-.52-.07v.53h.05v-.07c0-.13.09-.24.23-.24h.85v2.37c0,.14-.12.25-.28.25h-.05v.05h.96v-.05h-.06c-.15,0-.27-.11-.27-.25v-2.38h.85c.14,0,.23.11.23.24v.07h.05v-.53c-.08.03-.34.07-.52.07h-1.52,0Zm-1.64,0v.05h.08c.14,0,.25.1.26.23v1.94l-2.43-2.29h-.05s.05.26.05.58v2c0,.13-.12.24-.26.24h-.08v.05h.88v-.05h-.08c-.14,0-.26-.11-.26-.24v-1.95l2.43,2.31h.04s-.04-.3-.04-.6v-2c0-.13.12-.23.26-.23h.08v-.05h-.88Zm-2.74,2.14h-.05c-.13.3-.29.52-.74.53h-.73v-1.19h.81c.12,0,.18.09.18.2v.06h.05v-.66h-.05v.06c0,.11-.06.2-.19.2h-.8v-1.19h.97c.14,0,.23.11.23.24v.07h.05v-.53c-.08.03-.33.07-.52.07h-1.37v.05h.07c.15,0,.27.11.27.25v2.22c0,.14-.12.25-.27.25h-.07v.05h1.9l.26-.67h0Zm-2.69-.69c-.11.96-.67,1.29-1.33,1.29-.79-.02-1.32-.63-1.32-1.57s.53-1.55,1.35-1.55c.56,0,1.02.29,1.16.84h.04l-.09-.66c-.27-.18-.65-.31-1.11-.31-1.03,0-1.7.68-1.7,1.7s.69,1.7,1.67,1.71c.65,0,1.07-.29,1.32-.7l.06-.73h-.04Zm-4.6.69c-.13.3-.29.52-.74.53h-.73v-2.36c0-.14.13-.25.28-.25h.06v-.05h-.97v.05h.06c.15,0,.28.11.28.25v2.21c0,.14-.12.25-.27.25h-.06v.05h1.9l.26-.67h-.05,0Zm-4.48-.42l.54-1.28.53,1.28h-1.07Zm.59-1.78h-.04c0,.12-.18.48-.18.48l-.97,2.07c-.1.19-.24.27-.37.27h-.04v.05h.89v-.05h-.04c-.11,0-.23-.11-.16-.29l.26-.61h1.19l.26.62c.06.18-.06.28-.16.28h-.04v.05h.96v-.05h-.03c-.12,0-.27-.08-.36-.27l-1.16-2.55h0Zm-2.62.06v.05h.08c.14,0,.25.1.26.23v1.94l-2.43-2.29h-.05s.05.26.05.58v2c0,.13-.12.24-.26.24h-.08v.05h.88v-.05h-.08c-.14,0-.26-.11-.26-.24v-1.95l2.43,2.31h.04s-.04-.3-.04-.6v-2c0-.13.12-.23.26-.23h.08v-.05h-.88Zm-4.38,2.73c-.69,0-1.23-.54-1.23-1.33s.54-1.33,1.23-1.33,1.23.54,1.23,1.33-.54,1.33-1.23,1.33m0-2.8c-.87,0-1.58.6-1.58,1.47s.71,1.47,1.58,1.47,1.58-.6,1.58-1.47-.71-1.47-1.58-1.47m-2,2.87v-.05h-.06c-.17,0-.31-.11-.32-.25v-2.22c0-.14.15-.25.32-.25h.06v-.05h-1.06v.05h.06c.17,0,.31.11.32.25v2.21c0,.14-.15.25-.32.25h-.06v.05h1.06,0Zm-3.43-2.81h1.52c.19,0,.44-.04.52-.07v.53h-.05v-.07c0-.13-.09-.24-.23-.24h-.85v2.38c0,.14.13.25.27.25h.05v.05h-.96v-.05h.05c.15,0,.27-.11.28-.25v-2.37h-.85c-.14,0-.23.11-.23.24v.07h-.05v-.53c.08.03.34.07.52.07m-2.38,1.72l.54-1.28.53,1.28h-1.07Zm.59-1.78h-.04c0,.12-.18.48-.18.48l-.97,2.07c-.1.19-.24.27-.37.27h-.04v.05h.89v-.05h-.04c-.11,0-.23-.11-.16-.29l.26-.61h1.18l.26.62c.06.18-.06.28-.16.28h-.04v.05h.96v-.05h-.03c-.12,0-.27-.08-.36-.27l-1.16-2.55h0Zm-2.68-.4v.05h.09c.16,0,.29.13.29.28v2.32l-2.55-2.72h-.05s.04.27.04.58v2.43c0,.16-.13.28-.29.28h-.09v.05h.96v-.05h-.09c-.16,0-.28-.12-.29-.28v-2.33l2.55,2.72h.04s-.04-.3-.04-.6v-2.42c0-.16.13-.28.29-.28h.09v-.05h-.96,0Z"/>
  </g>
</svg>