<svg width="24" height="24" viewBox="0 0 24 24" fill="none" xmlns="http://www.w3.org/2000/svg">
<path d="M9.64816 3.4403C7.55137 1.34457 3.4482 1.10156 0.544926 1.10156C0.243983 1.10156 0 1.34555 0 1.64649C0 4.55084 0.243012 8.654 2.33873 10.7508C3.32269 11.6272 4.60886 12.0864 5.92533 12.0314C7.28271 12.0849 8.61088 11.628 9.64816 10.7508C11.2099 9.188 11.4965 5.28866 9.64816 3.4403Z" fill="white"/>
<path d="M23.4551 3.25781C20.5507 3.25781 16.4476 3.50082 14.3507 5.59655C12.498 7.44925 12.789 11.3432 14.3507 12.906C15.3883 13.7833 16.7169 14.2402 18.0746 14.1865C19.391 14.2414 20.6772 13.7822 21.6612 12.906C23.758 10.8092 24 6.70602 24 3.80162C23.9994 3.50113 23.7556 3.25781 23.4551 3.25781Z" fill="white"/>
<path d="M11.4431 22.8987C11.1421 22.8987 10.8981 22.6547 10.8981 22.3537C10.8981 10.7962 6.65984 7.89621 5.06435 6.80528C4.87191 6.68242 4.68969 6.54429 4.51942 6.39226C4.31033 6.17581 4.31636 5.83083 4.53281 5.62174C4.74399 5.41775 5.07876 5.41775 5.28994 5.62174C5.41301 5.7258 5.54338 5.82087 5.68008 5.90618C7.09683 6.87501 10.4339 9.15822 11.588 16.6474C12.4799 12.732 15.1237 9.44465 18.7568 7.73381C19.035 7.60293 19.3671 7.70775 19.5197 7.97467C19.6575 8.21758 19.5724 8.52619 19.3295 8.66407C19.3204 8.66923 19.3111 8.67413 19.3017 8.67873L19.2134 8.72016C13.2391 11.5286 11.9847 17.6839 11.9847 22.3538C11.9847 22.6534 11.7427 22.8968 11.4431 22.8987Z" fill="white"/>
</svg>
