<svg width="24" height="24" viewBox="0 0 24 24" fill="none" xmlns="http://www.w3.org/2000/svg">
<path fill-rule="evenodd" clip-rule="evenodd" d="M2.62861 5.67152L11.6286 2.07152C11.7478 2.02384 11.8739 2 12 2C12.1261 2 12.2522 2.02384 12.3714 2.07152L21.3714 5.67152C21.7511 5.82339 22 6.19109 22 6.6V9.99999L12 5.99999L2 9.99999V6.6C2 6.1911 2.24895 5.82339 2.62861 5.67152ZM12 7.99999L2 12V21C2 21.5523 2.44772 22 3 22H5V16.7808C5 16.3219 5.3123 15.9219 5.75746 15.8106L7.75746 15.3106C8.38861 15.1528 9 15.6302 9 16.2808V22H21C21.5523 22 22 21.5523 22 21V12L12 7.99999Z" fill="white"/>
</svg>
