<svg width="39" height="39" viewBox="0 0 39 39" fill="none" xmlns="http://www.w3.org/2000/svg">
<path d="M0 38.8214L2.74382 28.8578C1.04747 25.9332 0.157584 22.6212 0.166854 19.2354C0.166854 8.62596 8.84327 0 19.4941 0C24.6666 0 29.5239 2.00196 33.1669 5.63686C36.8191 9.27175 38.8307 14.106 38.8214 19.2447C38.8214 29.8541 30.145 38.4801 19.4849 38.4801H19.4756C16.2405 38.4801 13.061 37.6682 10.2337 36.1368L0 38.8214ZM10.725 32.6587L11.309 33.0093C13.7747 34.4669 16.602 35.2327 19.4849 35.2419H19.4941C28.3467 35.2419 35.5585 28.0736 35.5585 19.2539C35.5585 14.9824 33.8899 10.9693 30.8587 7.94326C27.8276 4.91726 23.786 3.25665 19.4941 3.25665C10.6416 3.24742 3.42978 10.4157 3.42978 19.2354C3.42978 22.2522 4.27332 25.1952 5.88624 27.7415L6.2663 28.3503L4.64411 34.2455L10.725 32.6587Z" fill="white"/>
<path d="M0.676758 38.1483L3.32788 28.526C1.68715 25.7122 0.825073 22.5109 0.825073 19.245C0.834342 9.00457 9.20486 0.673828 19.4942 0.673828C24.4905 0.673828 29.1717 2.61121 32.6942 6.11695C36.2167 9.62269 38.154 14.2909 38.154 19.2542C38.154 29.4947 29.7743 37.8254 19.4942 37.8254H19.4849C16.361 37.8254 13.2928 37.0412 10.5675 35.5651L0.676758 38.1483Z" fill="url(#paint0_linear_911_3356)"/>
<path d="M0 38.8214L2.74382 28.8578C1.04747 25.9332 0.157584 22.6212 0.166854 19.2354C0.166854 8.62596 8.84327 0 19.4941 0C24.6666 0 29.5239 2.00196 33.1669 5.63686C36.8191 9.27175 38.8307 14.106 38.8214 19.2447C38.8214 29.8541 30.145 38.4801 19.4849 38.4801H19.4756C16.2405 38.4801 13.061 37.6682 10.2337 36.1368L0 38.8214ZM10.725 32.6587L11.309 33.0093C13.7747 34.4669 16.602 35.2327 19.4849 35.2419H19.4941C28.3467 35.2419 35.5585 28.0736 35.5585 19.2539C35.5585 14.9824 33.8899 10.9693 30.8587 7.94326C27.8276 4.91726 23.786 3.25665 19.4941 3.25665C10.6416 3.24742 3.42978 10.4157 3.42978 19.2354C3.42978 22.2522 4.27332 25.1952 5.88624 27.7415L6.2663 28.3503L4.64411 34.2455L10.725 32.6587Z" fill="url(#paint1_linear_911_3356)"/>
<path fill-rule="evenodd" clip-rule="evenodd" d="M14.6643 11.1901C14.3028 10.3875 13.9228 10.369 13.5798 10.3598C13.3017 10.3506 12.9772 10.3506 12.6528 10.3506C12.3284 10.3506 11.8093 10.4705 11.3643 10.9503C10.9194 11.43 9.67725 12.5924 9.67725 14.9634C9.67725 17.3252 11.4107 19.6131 11.6517 19.936C11.8927 20.2589 14.998 25.2684 19.9017 27.1966C23.9803 28.8018 24.8146 28.4789 25.6952 28.3959C26.5759 28.3129 28.5503 27.2335 28.9582 26.108C29.3568 24.9824 29.3568 24.023 29.2363 23.82C29.1157 23.617 28.7913 23.4971 28.3093 23.2572C27.8273 23.0174 25.4542 21.8549 25.0093 21.6889C24.5643 21.532 24.2399 21.449 23.9247 21.9287C23.6003 22.4085 22.6733 23.4879 22.3952 23.8108C22.1171 24.1337 21.8298 24.1706 21.3478 23.9307C20.8657 23.6908 19.3084 23.1834 17.4638 21.5413C16.027 20.2681 15.0537 18.6905 14.7756 18.2108C14.4975 17.7311 14.7478 17.4728 14.9888 17.2329C15.202 17.0207 15.4708 16.6701 15.7118 16.3934C15.9528 16.1166 16.0362 15.9136 16.1938 15.5907C16.3514 15.2678 16.2773 14.9911 16.1567 14.7512C16.0362 14.5206 15.0907 12.1404 14.6643 11.1901Z" fill="white"/>
<defs>
<linearGradient id="paint0_linear_911_3356" x1="19.4144" y1="38.1465" x2="19.4144" y2="0.672517" gradientUnits="userSpaceOnUse">
<stop stop-color="#20B038"/>
<stop offset="1" stop-color="#60D66A"/>
</linearGradient>
<linearGradient id="paint1_linear_911_3356" x1="19.4145" y1="38.8178" x2="19.4145" y2="0" gradientUnits="userSpaceOnUse">
<stop stop-color="#F9F9F9"/>
<stop offset="1" stop-color="white"/>
</linearGradient>
</defs>
</svg>
