<svg width="24" height="24" viewBox="0 0 24 24" fill="none" xmlns="http://www.w3.org/2000/svg">
<g clip-path="url(#clip0_18_8257)">
<path d="M12 0.424805C18.398 0.424805 23.5752 5.60258 23.5752 12C23.5752 18.398 18.3974 23.5752 12 23.5752C5.602 23.5752 0.424805 18.3975 0.424805 12C0.424805 5.602 5.60254 0.424805 12 0.424805ZM12 2.1084C6.54581 2.1084 2.1084 6.54577 2.1084 12C2.1084 17.4542 6.54581 21.8916 12 21.8916C17.4542 21.8916 21.8916 17.4542 21.8916 12C21.8916 6.54581 17.4542 2.1084 12 2.1084Z" fill="white" stroke="white" stroke-width="0.15"/>
<path d="M11.0586 6.37891C11.5694 6.37891 11.9833 6.79298 11.9834 7.30371V11.6348H14.4736C14.9844 11.6348 15.3994 12.0487 15.3994 12.5596C15.3994 13.0705 14.9845 13.4844 14.4736 13.4844H11.0586C10.5478 13.4843 10.1338 13.0703 10.1338 12.5596V7.30371C10.1339 6.793 10.5479 6.37902 11.0586 6.37891Z" fill="white" stroke="white" stroke-width="0.25"/>
</g>
<defs>
<clipPath id="clip0_18_8257">
<rect width="24" height="24" fill="white"/>
</clipPath>
</defs>
</svg>
