<svg width="1920" height="996" viewBox="0 0 1920 996" fill="none" xmlns="http://www.w3.org/2000/svg">
<g opacity="0.18" clip-path="url(#clip0_18_10881)">
<g opacity="0.5">
<path d="M959.986 397.42L873.023 422.988V503.718C873.023 534.462 888.459 563.159 914.128 580.139L959.986 610.474L1005.84 580.139C1031.51 563.159 1046.95 534.462 1046.95 503.718V422.988L959.986 397.42ZM930.566 524.205L944.701 502.403C938.344 497.718 934.219 490.187 934.219 481.693C934.219 467.484 945.756 455.965 959.987 455.965C974.219 455.965 985.756 467.484 985.756 481.693C985.756 490.188 981.63 497.718 975.273 502.403L989.408 524.205H930.566Z" fill="url(#paint0_linear_18_10881)"/>
<path opacity="0.24" d="M959.987 410.729L883.888 433.103V503.747C883.888 530.65 897.395 555.762 919.857 570.62L959.987 597.165L1000.12 570.62C1022.58 555.761 1036.09 530.65 1036.09 503.747V433.103L959.987 410.729ZM930.567 524.205L944.702 502.403C938.345 497.718 934.219 490.187 934.219 481.693C934.219 467.484 945.756 455.965 959.988 455.965C974.219 455.965 985.756 467.484 985.756 481.693C985.756 490.188 981.63 497.718 975.273 502.403L989.409 524.205H930.567Z" fill="url(#paint1_linear_18_10881)"/>
</g>
<path d="M959.986 638.889C1037.64 638.889 1100.6 576.034 1100.6 498.497C1100.6 420.961 1037.64 358.105 959.986 358.105C882.328 358.105 819.374 420.961 819.374 498.497C819.374 576.034 882.328 638.889 959.986 638.889Z" stroke="url(#paint2_linear_18_10881)" stroke-width="5" stroke-miterlimit="10" stroke-linecap="round" stroke-linejoin="round"/>
<path d="M1063.46 630.371C1034.95 652.698 999.025 666.011 959.986 666.011C939.171 666.011 919.242 662.226 900.85 655.309C861.175 640.386 828.657 610.883 809.848 573.342" stroke="url(#paint3_linear_18_10881)" stroke-width="5" stroke-miterlimit="10" stroke-linecap="round" stroke-linejoin="round"/>
<path d="M1067.64 370.012C1077.35 378.132 1086.13 387.33 1093.79 397.42C1115.11 425.514 1127.76 460.531 1127.76 498.498" stroke="url(#paint4_linear_18_10881)" stroke-width="5" stroke-miterlimit="10" stroke-linecap="round" stroke-linejoin="round"/>
<path d="M792.212 498.498C792.212 447.491 815.045 401.809 851.062 371.085C864.449 359.665 879.658 350.312 896.193 343.52C915.86 335.441 937.402 330.986 959.986 330.986" stroke="url(#paint5_linear_18_10881)" stroke-width="5" stroke-miterlimit="10" stroke-linecap="round" stroke-linejoin="round"/>
<path d="M869.123 622.096C842.49 602.546 822.408 574.62 812.769 542.209" stroke="url(#paint6_linear_18_10881)" stroke-width="5" stroke-miterlimit="10" stroke-linecap="round" stroke-linejoin="round"/>
<path d="M1106.63 544.088C1087.19 606.495 1028.89 651.807 959.986 651.807" stroke="url(#paint7_linear_18_10881)" stroke-width="5" stroke-miterlimit="10" stroke-linecap="round" stroke-linejoin="round"/>
<path d="M959.986 345.189C1027.27 345.189 1084.44 388.396 1105.2 448.536" stroke="url(#paint8_linear_18_10881)" stroke-width="5" stroke-miterlimit="10" stroke-linecap="round" stroke-linejoin="round"/>
<path d="M840.748 401.898C859.215 379.202 884.053 361.88 912.541 352.648" stroke="url(#paint9_linear_18_10881)" stroke-width="5" stroke-miterlimit="10" stroke-linecap="round" stroke-linejoin="round"/>
<g opacity="0.3">
<path d="M959.986 800.617C1127.11 800.617 1262.58 665.351 1262.58 498.493C1262.58 331.635 1127.11 196.369 959.986 196.369C792.867 196.369 657.39 331.635 657.39 498.493C657.39 665.351 792.867 800.617 959.986 800.617Z" stroke="url(#paint10_linear_18_10881)" stroke-width="5" stroke-miterlimit="10" stroke-linecap="round" stroke-linejoin="round"/>
<path d="M1182.65 782.283C1121.31 830.331 1044 858.98 959.987 858.98C915.192 858.98 872.305 850.835 832.726 835.95C747.345 803.835 677.367 740.345 636.889 659.557" stroke="url(#paint11_linear_18_10881)" stroke-width="5" stroke-miterlimit="10" stroke-linecap="round" stroke-linejoin="round"/>
<path d="M1191.66 221.992C1212.56 239.466 1231.44 259.261 1247.93 280.974C1293.81 341.433 1321.04 416.789 1321.04 498.494" stroke="url(#paint12_linear_18_10881)" stroke-width="5" stroke-miterlimit="10" stroke-linecap="round" stroke-linejoin="round"/>
<path d="M598.936 498.494C598.936 388.727 648.072 290.419 725.581 224.301C754.389 199.725 787.119 179.597 822.704 164.981C865.027 147.595 911.384 138.008 959.986 138.008" stroke="url(#paint13_linear_18_10881)" stroke-width="5" stroke-miterlimit="10" stroke-linecap="round" stroke-linejoin="round"/>
<path d="M764.449 764.474C707.135 722.402 663.918 662.305 643.175 592.557" stroke="url(#paint14_linear_18_10881)" stroke-width="5" stroke-miterlimit="10" stroke-linecap="round" stroke-linejoin="round"/>
<path d="M1275.56 596.605C1233.73 730.905 1108.26 828.417 959.984 828.417" stroke="url(#paint15_linear_18_10881)" stroke-width="5" stroke-miterlimit="10" stroke-linecap="round" stroke-linejoin="round"/>
<path d="M959.984 168.578C1104.78 168.578 1227.82 261.56 1272.48 390.981" stroke="url(#paint16_linear_18_10881)" stroke-width="5" stroke-miterlimit="10" stroke-linecap="round" stroke-linejoin="round"/>
<path d="M703.385 290.615C743.125 241.773 796.576 204.496 857.884 184.629" stroke="url(#paint17_linear_18_10881)" stroke-width="5" stroke-miterlimit="10" stroke-linecap="round" stroke-linejoin="round"/>
</g>
<g opacity="0.3">
<path d="M959.982 37.963C1214.73 37.963 1421.24 244.15 1421.24 498.495C1421.24 752.84 1214.73 959.027 959.982 959.027C705.239 959.027 498.729 752.84 498.729 498.495C498.729 244.15 705.239 37.963 959.982 37.963Z" stroke="url(#paint18_linear_18_10881)" stroke-width="5" stroke-miterlimit="10" stroke-linecap="round" stroke-linejoin="round"/>
<path d="M1299.4 65.9104C1205.89 -7.32956 1088.05 -51.0005 959.985 -51.0005C891.703 -51.0005 826.329 -38.5845 765.998 -15.8945C635.851 33.0579 529.181 129.838 467.48 252.984" stroke="url(#paint19_linear_18_10881)" stroke-width="5" stroke-miterlimit="10" stroke-linecap="round" stroke-linejoin="round"/>
<path d="M1313.12 919.963C1344.98 893.327 1373.77 863.154 1398.89 830.056C1468.84 737.898 1510.34 623.031 1510.34 498.486" stroke="url(#paint20_linear_18_10881)" stroke-width="5" stroke-miterlimit="10" stroke-linecap="round" stroke-linejoin="round"/>
<path d="M409.628 498.49C409.628 665.81 484.527 815.662 602.675 916.446C646.589 953.908 696.478 984.589 750.721 1006.87C815.235 1033.37 885.899 1047.98 959.982 1047.98" stroke="url(#paint21_linear_18_10881)" stroke-width="5" stroke-miterlimit="10" stroke-linecap="round" stroke-linejoin="round"/>
<path d="M661.922 93.0536C574.559 157.184 508.682 248.791 477.062 355.109" stroke="url(#paint22_linear_18_10881)" stroke-width="5" stroke-miterlimit="10" stroke-linecap="round" stroke-linejoin="round"/>
<path d="M1441.02 348.941C1377.25 144.226 1186 -4.41259 959.98 -4.41259" stroke="url(#paint23_linear_18_10881)" stroke-width="5" stroke-miterlimit="10" stroke-linecap="round" stroke-linejoin="round"/>
<path d="M959.98 1001.38C1180.69 1001.38 1368.24 859.652 1436.32 662.372" stroke="url(#paint24_linear_18_10881)" stroke-width="5" stroke-miterlimit="10" stroke-linecap="round" stroke-linejoin="round"/>
<path d="M568.841 815.362C629.418 889.812 710.894 946.634 804.346 976.918" stroke="url(#paint25_linear_18_10881)" stroke-width="5" stroke-miterlimit="10" stroke-linecap="round" stroke-linejoin="round"/>
</g>
<g opacity="0.3">
<path d="M331.705 498.494C331.705 152.041 613 -128.814 959.994 -128.814C1306.99 -128.814 1588.28 152.041 1588.28 498.494C1588.28 844.946 1306.99 1125.8 959.994 1125.8C613 1125.8 331.705 844.946 331.705 498.494Z" stroke="url(#paint26_linear_18_10881)" stroke-width="5" stroke-miterlimit="10" stroke-linecap="round" stroke-linejoin="round"/>
<path d="M369.828 36.8851C269.909 164.056 210.33 324.328 210.33 498.492C210.33 591.355 227.269 680.265 258.224 762.315C325.008 939.316 457.042 1084.39 625.047 1168.3" stroke="url(#paint27_linear_18_10881)" stroke-width="5" stroke-miterlimit="10" stroke-linecap="round" stroke-linejoin="round"/>
<path d="M1534.99 18.2227C1498.65 -25.106 1457.49 -64.2614 1412.33 -98.4302C1286.61 -193.555 1129.9 -249.998 959.985 -249.998" stroke="url(#paint28_linear_18_10881)" stroke-width="5" stroke-miterlimit="10" stroke-linecap="round" stroke-linejoin="round"/>
<path d="M959.981 1246.98C1188.25 1246.98 1392.69 1145.12 1530.19 984.433C1581.29 924.71 1623.15 856.86 1653.55 783.089C1689.7 695.35 1709.64 599.247 1709.64 498.492" stroke="url(#paint29_linear_18_10881)" stroke-width="5" stroke-miterlimit="10" stroke-linecap="round" stroke-linejoin="round"/>
<path d="M406.858 903.857C494.349 1022.67 619.325 1112.27 764.372 1155.27" stroke="url(#paint30_linear_18_10881)" stroke-width="5" stroke-miterlimit="10" stroke-linecap="round" stroke-linejoin="round"/>
<path d="M755.963 -155.723C476.676 -68.9946 273.894 191.107 273.894 498.496" stroke="url(#paint31_linear_18_10881)" stroke-width="5" stroke-miterlimit="10" stroke-linecap="round" stroke-linejoin="round"/>
<path d="M1646.06 498.496C1646.06 198.332 1452.7 -56.7426 1183.56 -149.325" stroke="url(#paint32_linear_18_10881)" stroke-width="5" stroke-miterlimit="10" stroke-linecap="round" stroke-linejoin="round"/>
<path d="M1392.28 1030.45C1493.85 948.062 1571.37 837.253 1612.69 710.158" stroke="url(#paint33_linear_18_10881)" stroke-width="5" stroke-miterlimit="10" stroke-linecap="round" stroke-linejoin="round"/>
</g>
</g>
<defs>
<linearGradient id="paint0_linear_18_10881" x1="929.18" y1="592.878" x2="971.259" y2="423.084" gradientUnits="userSpaceOnUse">
<stop stop-color="#5A72C0"/>
<stop offset="1" stop-color="#2F4BA3"/>
</linearGradient>
<linearGradient id="paint1_linear_18_10881" x1="975.747" y1="452.462" x2="910.838" y2="563.388" gradientUnits="userSpaceOnUse">
<stop stop-color="white" stop-opacity="0"/>
<stop offset="1" stop-color="white"/>
</linearGradient>
<linearGradient id="paint2_linear_18_10881" x1="925.501" y1="637.213" x2="994.267" y2="359.731" gradientUnits="userSpaceOnUse">
<stop stop-color="#5A72C0"/>
<stop offset="1" stop-color="#2F4BA3"/>
</linearGradient>
<linearGradient id="paint3_linear_18_10881" x1="921.18" y1="664.093" x2="937.887" y2="596.676" gradientUnits="userSpaceOnUse">
<stop stop-color="#5A72C0"/>
<stop offset="1" stop-color="#2F4BA3"/>
</linearGradient>
<linearGradient id="paint4_linear_18_10881" x1="1083.8" y1="490.179" x2="1111.52" y2="378.311" gradientUnits="userSpaceOnUse">
<stop stop-color="#5A72C0"/>
<stop offset="1" stop-color="#2F4BA3"/>
</linearGradient>
<linearGradient id="paint5_linear_18_10881" x1="848.597" y1="515.048" x2="898.619" y2="313.202" gradientUnits="userSpaceOnUse">
<stop stop-color="#5A72C0"/>
<stop offset="1" stop-color="#2F4BA3"/>
</linearGradient>
<linearGradient id="paint6_linear_18_10881" x1="832.624" y1="615.627" x2="849.219" y2="548.666" gradientUnits="userSpaceOnUse">
<stop stop-color="#5A72C0"/>
<stop offset="1" stop-color="#2F4BA3"/>
</linearGradient>
<linearGradient id="paint7_linear_18_10881" x1="1015.84" y1="668.224" x2="1050.68" y2="527.645" gradientUnits="userSpaceOnUse">
<stop stop-color="#5A72C0"/>
<stop offset="1" stop-color="#2F4BA3"/>
</linearGradient>
<linearGradient id="paint8_linear_18_10881" x1="1024.1" y1="431.015" x2="1042.13" y2="358.281" gradientUnits="userSpaceOnUse">
<stop stop-color="#5A72C0"/>
<stop offset="1" stop-color="#2F4BA3"/>
</linearGradient>
<linearGradient id="paint9_linear_18_10881" x1="868.192" y1="411.275" x2="885.048" y2="343.259" gradientUnits="userSpaceOnUse">
<stop stop-color="#5A72C0"/>
<stop offset="1" stop-color="#2F4BA3"/>
</linearGradient>
<linearGradient id="paint10_linear_18_10881" x1="885.775" y1="797.009" x2="1033.76" y2="199.868" gradientUnits="userSpaceOnUse">
<stop stop-color="#5A72C0"/>
<stop offset="1" stop-color="#2F4BA3"/>
</linearGradient>
<linearGradient id="paint11_linear_18_10881" x1="876.475" y1="854.854" x2="912.43" y2="709.772" gradientUnits="userSpaceOnUse">
<stop stop-color="#5A72C0"/>
<stop offset="1" stop-color="#2F4BA3"/>
</linearGradient>
<linearGradient id="paint12_linear_18_10881" x1="1226.43" y1="480.591" x2="1286.09" y2="239.851" gradientUnits="userSpaceOnUse">
<stop stop-color="#5A72C0"/>
<stop offset="1" stop-color="#2F4BA3"/>
</linearGradient>
<linearGradient id="paint13_linear_18_10881" x1="720.277" y1="534.108" x2="827.924" y2="99.736" gradientUnits="userSpaceOnUse">
<stop stop-color="#5A72C0"/>
<stop offset="1" stop-color="#2F4BA3"/>
</linearGradient>
<linearGradient id="paint14_linear_18_10881" x1="685.905" y1="750.552" x2="721.616" y2="606.453" gradientUnits="userSpaceOnUse">
<stop stop-color="#5A72C0"/>
<stop offset="1" stop-color="#2F4BA3"/>
</linearGradient>
<linearGradient id="paint15_linear_18_10881" x1="1080.18" y1="863.746" x2="1155.15" y2="561.221" gradientUnits="userSpaceOnUse">
<stop stop-color="#5A72C0"/>
<stop offset="1" stop-color="#2F4BA3"/>
</linearGradient>
<linearGradient id="paint16_linear_18_10881" x1="1097.96" y1="353.275" x2="1136.75" y2="196.751" gradientUnits="userSpaceOnUse">
<stop stop-color="#5A72C0"/>
<stop offset="1" stop-color="#2F4BA3"/>
</linearGradient>
<linearGradient id="paint17_linear_18_10881" x1="762.443" y1="310.794" x2="798.717" y2="164.423" gradientUnits="userSpaceOnUse">
<stop stop-color="#5A72C0"/>
<stop offset="1" stop-color="#2F4BA3"/>
</linearGradient>
<linearGradient id="paint18_linear_18_10881" x1="846.862" y1="43.4619" x2="1072.44" y2="953.693" gradientUnits="userSpaceOnUse">
<stop stop-color="#5A72C0"/>
<stop offset="1" stop-color="#2F4BA3"/>
</linearGradient>
<linearGradient id="paint19_linear_18_10881" x1="832.686" y1="-44.7108" x2="887.493" y2="176.44" gradientUnits="userSpaceOnUse">
<stop stop-color="#5A72C0"/>
<stop offset="1" stop-color="#2F4BA3"/>
</linearGradient>
<linearGradient id="paint20_linear_18_10881" x1="1366.12" y1="525.776" x2="1457.07" y2="892.74" gradientUnits="userSpaceOnUse">
<stop stop-color="#5A72C0"/>
<stop offset="1" stop-color="#2F4BA3"/>
</linearGradient>
<linearGradient id="paint21_linear_18_10881" x1="594.59" y1="444.202" x2="758.679" y2="1106.32" gradientUnits="userSpaceOnUse">
<stop stop-color="#5A72C0"/>
<stop offset="1" stop-color="#2F4BA3"/>
</linearGradient>
<linearGradient id="paint22_linear_18_10881" x1="542.197" y1="114.275" x2="596.631" y2="333.927" gradientUnits="userSpaceOnUse">
<stop stop-color="#5A72C0"/>
<stop offset="1" stop-color="#2F4BA3"/>
</linearGradient>
<linearGradient id="paint23_linear_18_10881" x1="1143.19" y1="-58.2655" x2="1257.47" y2="402.879" gradientUnits="userSpaceOnUse">
<stop stop-color="#5A72C0"/>
<stop offset="1" stop-color="#2F4BA3"/>
</linearGradient>
<linearGradient id="paint24_linear_18_10881" x1="1170.3" y1="719.848" x2="1229.43" y2="958.441" gradientUnits="userSpaceOnUse">
<stop stop-color="#5A72C0"/>
<stop offset="1" stop-color="#2F4BA3"/>
</linearGradient>
<linearGradient id="paint25_linear_18_10881" x1="658.865" y1="784.602" x2="714.158" y2="1007.72" gradientUnits="userSpaceOnUse">
<stop stop-color="#5A72C0"/>
<stop offset="1" stop-color="#2F4BA3"/>
</linearGradient>
<linearGradient id="paint26_linear_18_10881" x1="339.207" y1="652.339" x2="1580.56" y2="343.741" gradientUnits="userSpaceOnUse">
<stop stop-color="#5A72C0"/>
<stop offset="1" stop-color="#2F4BA3"/>
</linearGradient>
<linearGradient id="paint27_linear_18_10881" x1="218.911" y1="671.618" x2="520.51" y2="596.641" gradientUnits="userSpaceOnUse">
<stop stop-color="#5A72C0"/>
<stop offset="1" stop-color="#2F4BA3"/>
</linearGradient>
<linearGradient id="paint28_linear_18_10881" x1="997.215" y1="-53.8628" x2="1497.67" y2="-178.276" gradientUnits="userSpaceOnUse">
<stop stop-color="#5A72C0"/>
<stop offset="1" stop-color="#2F4BA3"/>
</linearGradient>
<linearGradient id="paint29_linear_18_10881" x1="885.918" y1="995.428" x2="1788.9" y2="770.948" gradientUnits="userSpaceOnUse">
<stop stop-color="#5A72C0"/>
<stop offset="1" stop-color="#2F4BA3"/>
</linearGradient>
<linearGradient id="paint30_linear_18_10881" x1="435.81" y1="1066.68" x2="735.365" y2="992.216" gradientUnits="userSpaceOnUse">
<stop stop-color="#5A72C0"/>
<stop offset="1" stop-color="#2F4BA3"/>
</linearGradient>
<linearGradient id="paint31_linear_18_10881" x1="200.424" y1="249.327" x2="829.32" y2="92.984" gradientUnits="userSpaceOnUse">
<stop stop-color="#5A72C0"/>
<stop offset="1" stop-color="#2F4BA3"/>
</linearGradient>
<linearGradient id="paint32_linear_18_10881" x1="1261.97" y1="212.463" x2="1587.36" y2="131.572" gradientUnits="userSpaceOnUse">
<stop stop-color="#5A72C0"/>
<stop offset="1" stop-color="#2F4BA3"/>
</linearGradient>
<linearGradient id="paint33_linear_18_10881" x1="1350.32" y1="908.014" x2="1654.6" y2="832.371" gradientUnits="userSpaceOnUse">
<stop stop-color="#5A72C0"/>
<stop offset="1" stop-color="#2F4BA3"/>
</linearGradient>
<clipPath id="clip0_18_10881">
<rect width="1920" height="996" fill="white"/>
</clipPath>
</defs>
</svg>
