<svg width="32" height="32" viewBox="0 0 32 32" fill="none" xmlns="http://www.w3.org/2000/svg">
<path d="M16.0002 30.4016C15.7869 30.4016 15.5722 30.3256 15.4015 30.1736C14.9855 29.8042 5.2002 21.0029 5.2002 12.4802C5.2002 6.48156 10.0455 1.60156 16.0002 1.60156C21.9549 1.60156 26.8002 6.48156 26.8002 12.4802C26.8002 21.0029 17.0149 29.8042 16.5989 30.1749C16.4282 30.3256 16.2135 30.4016 16.0002 30.4016Z" fill="#ED2024"/>
<path d="M16.0001 17.4016C13.0228 17.4016 10.6001 14.9789 10.6001 12.0016C10.6001 9.02423 13.0228 6.60156 16.0001 6.60156C18.9774 6.60156 21.4001 9.02423 21.4001 12.0016C21.4001 14.9789 18.9774 17.4016 16.0001 17.4016Z" fill="white"/>
<path d="M16 32C15.7627 32 15.5253 31.916 15.3347 31.748C14.872 31.336 4 21.5573 4 12.0867C4 5.42133 9.384 0 16 0C22.616 0 28 5.42133 28 12.0867C28 21.5573 17.128 31.336 16.6653 31.7467C16.4747 31.916 16.2373 32 16 32ZM16 2C10.4853 2 6 6.52533 6 12.0867C6 19.3907 13.6667 27.3693 16 29.6267C18.3333 27.3693 26 19.3893 26 12.0867C26 6.52533 21.5147 2 16 2Z" fill="#1A1F2B"/>
<path d="M16.0002 18.6654C12.3242 18.6654 9.3335 15.6747 9.3335 11.9987C9.3335 8.3227 12.3242 5.33203 16.0002 5.33203C19.6762 5.33203 22.6668 8.3227 22.6668 11.9987C22.6668 15.6747 19.6762 18.6654 16.0002 18.6654ZM16.0002 7.33203C13.4268 7.33203 11.3335 9.42536 11.3335 11.9987C11.3335 14.572 13.4268 16.6654 16.0002 16.6654C18.5735 16.6654 20.6668 14.572 20.6668 11.9987C20.6668 9.42536 18.5735 7.33203 16.0002 7.33203Z" fill="#1A1F2B"/>
</svg>
