<svg width="136" height="92" viewBox="0 0 136 92" fill="none" xmlns="http://www.w3.org/2000/svg">
<g clip-path="url(#clip0_979_1190)">
<path d="M44.199 37.4707C43.841 37.4707 43.538 37.3328 43.2075 37.2225C42.2434 36.8916 41.3345 36.4504 40.4806 35.8713C39.6268 35.2923 38.8831 34.6029 38.1945 33.8584C37.3682 32.9393 36.6979 31.919 36.1838 30.7977C35.6513 29.6579 35.2749 28.4538 35.0545 27.1854C34.8892 26.1376 34.8892 25.0622 34.9443 24.0143C34.9994 22.9114 35.2198 21.8635 35.5778 20.8157C36.2389 18.7476 37.3406 16.9829 38.8555 15.5214C39.994 14.4185 41.2794 13.582 42.7117 13.0122C43.2442 12.8099 43.7859 12.6445 44.3367 12.5158C45.2732 12.3228 46.2097 12.1849 47.1738 12.2125C47.5318 12.2401 47.8623 12.2952 48.2204 12.3228C48.6611 12.3779 49.0743 12.4882 49.4874 12.5434C49.5701 12.571 49.6802 12.571 49.7629 12.6537C49.873 12.8743 49.7904 13.0673 49.7353 13.2879C49.3681 14.9424 49.0008 16.5968 48.6336 18.2513C48.606 18.4167 48.606 18.6373 48.3857 18.6925C48.248 18.6649 48.1378 18.6925 48.0001 18.6373C47.4767 18.4719 46.9259 18.4719 46.375 18.527C46.0169 18.527 45.6864 18.6098 45.3559 18.6925C44.7499 18.8579 44.1439 19.1337 43.6206 19.4921C42.6566 20.1539 41.9129 21.0087 41.4171 22.0841C40.8387 23.325 40.6459 24.621 40.8111 25.9721C40.8938 26.5788 41.059 27.1578 41.3069 27.7369C41.7476 28.7847 42.4087 29.6395 43.2625 30.3013C43.9052 30.816 44.6214 31.1745 45.411 31.3767C45.466 31.3767 45.5211 31.3767 45.5487 31.4319C45.6588 31.6249 45.5762 31.7903 45.5487 31.9834C45.1631 33.693 44.7774 35.375 44.3918 37.0846C44.3643 37.2501 44.3092 37.3879 44.199 37.4707Z" fill="#E02626"/>
<path d="M52.4337 13.7598C53.1774 14.1734 53.8384 14.6697 54.4444 15.2212C55.6288 16.269 56.5653 17.5099 57.2814 18.9438C57.8874 20.1019 58.273 21.3427 58.5209 22.6387C58.6586 23.3005 58.6586 23.9899 58.7412 24.6517C58.7596 24.9826 58.7504 25.3318 58.7137 25.6995C58.6586 26.058 58.6586 26.4164 58.6035 26.7749C58.5209 27.4918 58.3556 28.2088 58.1628 28.8981C57.7221 30.3871 57.0335 31.7383 56.1246 32.9791C54.8575 34.6887 53.2875 35.9847 51.387 36.8396C50.423 37.2807 49.4314 37.5565 48.4123 37.6944C48.0542 37.7495 47.6962 37.7495 47.3381 37.8047C47.2279 37.8322 47.1728 37.7495 47.2004 37.6116C47.3473 36.9131 47.5034 36.2145 47.6686 35.516C47.8706 34.5233 48.0726 33.5306 48.2746 32.5379C48.3572 32.1795 48.4674 31.821 48.5225 31.4625C48.5776 31.3247 48.6327 31.2419 48.7704 31.2144C49.0825 31.0857 49.3855 30.9386 49.6793 30.7732C51.4697 29.6978 52.5163 28.0433 52.8193 25.8925C52.957 24.955 52.8744 24.0175 52.599 23.1075C52.3235 22.1148 51.8553 21.2324 51.1667 20.5155C51.0014 20.3225 50.9739 20.157 51.029 19.9364C51.1575 19.3666 51.2769 18.8059 51.387 18.2544C51.6625 16.986 51.9287 15.7267 52.1858 14.4767C52.2409 14.2561 52.296 14.0079 52.4337 13.7598Z" fill="#2B418C"/>
<path d="M91.6283 21.8633C92.2158 21.2751 92.8585 20.788 93.5562 20.402C94.052 20.0987 94.5753 19.9332 95.1261 19.7954C95.5668 19.7127 96.0075 19.7402 96.4757 19.7678C96.9163 19.7678 97.3295 19.9057 97.7426 20.0711C98.3761 20.3468 98.8167 20.8431 99.0371 21.5049C99.3125 22.2493 99.3676 22.9938 99.3125 23.7934C99.2023 24.8411 99.0095 25.8613 98.8167 26.8815C98.6515 27.7638 98.5138 28.6461 98.3485 29.5285C98.2108 30.3832 98.018 31.2379 97.8803 32.0927C97.8069 32.5155 97.7334 32.9382 97.66 33.361C97.66 33.4162 97.6508 33.4713 97.6324 33.5265C97.5773 33.7195 97.5223 33.7746 97.357 33.747C97.0265 33.7195 96.696 33.7195 96.338 33.6643C95.9248 33.6092 95.4842 33.6368 95.0435 33.6643C94.713 33.7011 94.3825 33.7378 94.052 33.7746C93.9051 33.7746 93.85 33.7011 93.8867 33.554C94.1805 31.9365 94.4743 30.3281 94.7681 28.7289C94.8782 27.9844 95.0159 27.2675 95.1261 26.5231C95.2087 26.137 95.2914 25.751 95.3464 25.365C95.4015 24.786 95.4566 24.207 95.374 23.6004C95.3373 23.3798 95.2638 23.1684 95.1537 22.9662C94.9609 22.5526 94.6579 22.3045 94.2723 22.2493C93.7766 22.1942 93.2808 22.1942 92.8126 22.4423C92.3168 22.6905 91.9863 23.1041 91.7385 23.628C91.4079 24.3448 91.1601 25.1169 90.9673 25.8889C90.6368 27.2399 90.444 28.6186 90.1961 29.9972C90.1135 30.4383 90.0033 30.8795 89.9207 31.3207C89.7922 32.0375 89.6636 32.7544 89.5351 33.4713C89.5167 33.5265 89.5076 33.5816 89.5076 33.6368C89.48 33.7195 89.4249 33.7746 89.3423 33.747C89.0393 33.747 88.7088 33.747 88.4059 33.6919C87.8826 33.6368 87.3593 33.6368 86.836 33.6919C86.533 33.747 86.2301 33.747 85.8996 33.7746C85.8169 33.7746 85.7618 33.6919 85.7894 33.5816C85.8445 33.2875 85.8996 32.9842 85.9546 32.6717C86.1566 31.5321 86.3678 30.3924 86.5881 29.2527C86.8084 27.966 87.038 26.6885 87.2767 25.4202C87.5337 23.968 87.7908 22.525 88.0478 21.0913C88.0846 20.8156 88.1305 20.549 88.1855 20.2917C88.2406 20.0711 88.2682 20.0435 88.4885 20.0435C88.6538 20.0435 88.8466 20.0435 89.0393 20.0711C89.7004 20.1446 90.3614 20.1446 91.0224 20.0711C91.2427 20.0435 91.4355 20.0435 91.6558 20.0435C91.766 20.0435 91.8211 20.0987 91.7935 20.209C91.7935 20.3468 91.766 20.4571 91.7385 20.5674C91.665 20.9718 91.6007 21.3762 91.5457 21.7806C91.5181 21.8909 91.5181 21.9185 91.6283 21.8633Z" fill="#2B418C"/>
<path fill-rule="evenodd" clip-rule="evenodd" d="M84.9351 25.4783C84.88 26.2227 84.7699 26.9672 84.5495 27.7116C83.9711 29.7244 82.9246 31.4339 81.272 32.6471C80.0327 33.5294 78.6831 34.0257 77.1958 34.0257C76.6175 34.0257 76.0391 34.0257 75.4607 33.9154C74.6069 33.7224 73.8082 33.4191 73.1472 32.8125C72.4035 32.1784 71.9353 31.3512 71.715 30.3586C71.4947 29.4211 71.5222 28.4561 71.6599 27.4911C71.8802 26.0573 72.3209 24.7062 73.0645 23.4931C74.001 21.949 75.2679 20.8185 76.8929 20.2119C77.7467 19.8811 78.628 19.7156 79.5369 19.7432C80.3632 19.7432 81.1619 19.8535 81.933 20.1292C83.2 20.5979 84.1089 21.4527 84.6322 22.7762C84.9351 23.6585 85.0177 24.5408 84.9351 25.4783ZM81.0517 22.8313C81.0517 22.6107 80.9691 22.3626 80.8865 22.142C80.6661 21.5906 80.2805 21.177 79.6746 21.1218C79.0136 21.0667 78.4352 21.2321 77.9119 21.7008C77.4162 22.142 77.0581 22.721 76.7827 23.3276C76.4522 24.0445 76.2319 24.789 76.0391 25.561C75.7636 26.719 75.5433 27.9046 75.4332 29.0903C75.3781 29.752 75.4056 30.4137 75.5433 31.0755C75.5984 31.3512 75.6535 31.5994 75.7912 31.8475C76.0391 32.2887 76.3696 32.592 76.8653 32.6471C77.3978 32.7206 77.8936 32.5828 78.3526 32.2335C78.7933 31.9027 79.0962 31.4339 79.3716 30.9376C79.7021 30.3126 79.9776 29.6601 80.1979 28.98C80.5284 27.9598 80.8038 26.912 80.9691 25.8367C81.0792 25.2025 81.1619 24.5684 81.1619 23.7964C81.1894 23.5482 81.1068 23.1898 81.0517 22.8313Z" fill="#2B418C"/>
<path fill-rule="evenodd" clip-rule="evenodd" d="M113.002 24.0407C113.002 24.923 112.919 25.8054 112.671 26.6877C112.616 26.9634 112.616 26.9634 112.341 26.9634H105.538C105.455 26.9634 105.345 26.9634 105.263 26.9634C105.152 26.9634 105.097 27.0185 105.07 27.1564C105.042 27.3494 104.987 27.5149 104.96 27.7354C104.877 28.4247 104.794 29.1416 104.932 29.8585C105.125 30.9063 105.648 31.6783 106.64 31.954C107.191 32.0919 107.741 32.147 108.32 32.0643C109.229 31.8989 110.055 31.5404 110.826 31.0166C110.863 30.9982 110.89 30.9798 110.909 30.9614C111.102 30.8511 111.267 30.9063 111.349 31.1268C111.377 31.1544 111.349 31.2096 111.349 31.2371C111.092 31.6967 110.835 32.1562 110.578 32.6158C110.523 32.7261 110.441 32.8088 110.303 32.8915C109.89 33.1672 109.421 33.3878 108.953 33.5532C108.127 33.8565 107.273 34.0495 106.392 34.022C105.621 34.022 104.877 33.9392 104.161 33.7187C102.472 33.1305 101.453 31.9081 101.104 30.0515C100.966 29.3898 100.966 28.7556 100.994 28.0939C101.049 26.798 101.324 25.5572 101.847 24.3716C102.426 22.993 103.28 21.8625 104.436 21.0078C105.263 20.4287 106.144 20.0703 107.108 19.8773C107.907 19.7118 108.678 19.7119 109.477 19.7946C110.248 19.9049 110.991 20.153 111.625 20.6769C112.093 21.0629 112.396 21.5592 112.644 22.1107C112.892 22.7172 112.974 23.379 113.002 24.0407ZM109.284 22.0004C109.229 21.8165 109.155 21.6511 109.063 21.5041C108.926 21.311 108.76 21.1732 108.54 21.1456C107.962 21.0078 107.438 21.2008 106.998 21.5868C106.695 21.8349 106.502 22.1934 106.337 22.5794C105.951 23.3514 105.676 24.1786 105.455 25.0333C105.437 25.1436 105.419 25.2447 105.4 25.3366C105.364 25.4469 105.4 25.5113 105.511 25.5296H107.273C107.824 25.5296 108.384 25.5296 108.953 25.5296C109.146 25.5296 109.146 25.5021 109.201 25.3366C109.219 25.1896 109.247 25.0425 109.284 24.8955C109.311 24.5646 109.366 24.2337 109.394 23.9029C109.449 23.2687 109.449 22.6345 109.284 22.0004Z" fill="#2B418C"/>
<path d="M63.0378 33.6419C61.2567 33.6419 59.4757 33.6419 57.6946 33.6419C57.309 33.6419 57.309 33.6419 57.3917 33.2283C57.4192 32.9802 57.4192 32.7045 57.5294 32.4839C57.6396 32.2357 57.8323 32.0427 58.0251 31.8497C59.1268 30.4987 60.256 29.1752 61.3577 27.8517C62.2666 26.7488 63.1755 25.6459 64.0568 24.543C64.7362 23.7158 65.4064 22.8887 66.0674 22.0615C66.1225 21.988 66.1775 21.9144 66.2326 21.8409C66.2602 21.8133 66.2051 21.7306 66.15 21.7306C66.1316 21.7306 66.1041 21.7306 66.0674 21.7306C64.9657 21.7582 63.864 21.8133 62.7624 21.8409C61.9912 21.8685 61.2475 21.9512 60.5039 22.0063C60.4856 22.0063 60.4764 22.0063 60.4764 22.0063C60.3387 22.0063 60.2836 21.9236 60.3111 21.8133C60.3295 21.7398 60.357 21.6663 60.3937 21.5928C60.559 21.2619 60.5865 20.8759 60.5865 20.4899C60.5865 19.9936 60.6141 20.0487 60.9997 20.0487C64.3598 20.0487 67.7107 20.0487 71.0525 20.0487C71.1351 20.0487 71.1902 20.0487 71.2728 20.0487C71.383 20.0487 71.4289 20.1038 71.4105 20.2141C71.3738 20.4899 71.3279 20.7564 71.2728 21.0137C71.2453 21.1516 71.1902 21.2343 71.1076 21.3446C70.7587 21.7674 70.4007 22.1993 70.0334 22.6405C69.1888 23.6331 68.3534 24.6257 67.5271 25.6183C66.7835 26.4731 66.0674 27.3278 65.3238 28.2101C64.4149 29.3406 63.506 30.4711 62.5971 31.6016C62.542 31.6567 62.4869 31.721 62.4318 31.7946C62.4318 31.8497 62.4319 31.9049 62.4869 31.9049C62.5787 31.9049 62.6614 31.9049 62.7348 31.9049C63.2857 31.9049 63.8089 31.9324 64.3598 31.9049C65.1493 31.8865 65.948 31.8497 66.7559 31.7946C67.4169 31.767 68.0779 31.7119 68.739 31.6567C68.8124 31.6567 68.8858 31.6567 68.9593 31.6567C69.0419 31.6567 69.097 31.7394 69.0695 31.8497C69.0144 31.9876 68.9593 32.1254 68.9042 32.2633C68.8216 32.5942 68.8216 32.9526 68.7665 33.2835C68.7665 33.3662 68.7665 33.4489 68.739 33.5316C68.739 33.6144 68.6839 33.6419 68.6012 33.6419C68.5094 33.6419 68.4084 33.6419 68.2983 33.6419H63.0378Z" fill="#2B418C"/>
<path d="M44.942 23.0548C44.5564 22.9721 44.2259 22.9721 43.8954 22.8618C43.8128 22.8342 43.7577 22.8067 43.7852 22.6964C43.9229 21.9519 44.2259 21.2902 44.8318 20.7939C45.3276 20.4078 45.8784 20.2424 46.4843 20.2148C47.1729 20.2148 47.7788 20.3803 48.3296 20.8214C49.0733 21.4556 49.3487 22.3103 49.211 23.2754C49.1559 23.689 48.9631 24.0474 48.6877 24.2956C48.5224 24.461 48.3572 24.5989 48.1919 24.7367C48.1644 24.8194 48.247 24.8194 48.3021 24.8194C48.3296 24.8746 48.3847 24.8746 48.4398 24.9022C49.1284 25.233 49.4864 25.8396 49.6517 26.6116C49.9271 27.9903 49.1834 29.3689 48.0542 29.9479C47.0903 30.4442 45.8233 30.3891 44.9695 29.8376C44.281 29.3689 43.8678 28.7072 43.7026 27.88C43.6751 27.7697 43.675 27.687 43.675 27.6043C43.675 27.494 43.7301 27.4388 43.8403 27.4112C44.1157 27.3837 44.3911 27.3285 44.6666 27.301C44.7767 27.2734 44.8318 27.3285 44.8869 27.4664C44.942 27.7054 45.0154 27.9443 45.1072 28.1833C45.4102 28.845 45.8784 29.1759 46.5394 29.2035C47.5034 29.2586 48.2746 28.4039 48.3847 27.6043C48.4673 26.9701 48.3572 26.4186 47.9716 25.9499C47.5585 25.4536 47.0076 25.3157 46.4017 25.3709C46.3742 25.3709 46.3466 25.3985 46.3191 25.3985C45.8509 25.5088 45.8784 25.4812 45.9059 25.0125C45.9059 24.9757 45.9059 24.9389 45.9059 24.9022C45.9335 24.7367 45.9335 24.5713 46.0161 24.4334C46.0987 24.2956 46.2915 24.3783 46.4568 24.3507C46.8148 24.2956 47.1729 24.1853 47.4758 23.9647C47.7788 23.7441 47.9441 23.4132 47.9991 23.0548C48.0818 22.4758 47.9441 21.9795 47.4758 21.5935C47.283 21.4556 47.0627 21.3453 46.8148 21.3177C46.7047 21.3177 46.5945 21.3177 46.4843 21.3177C45.8233 21.3453 45.3551 21.7038 45.1348 22.3655C45.0521 22.5861 44.9971 22.8067 44.942 23.0548Z" fill="#2B418C"/>
<path d="M44.198 37.47C44.6203 35.5583 45.0426 33.6466 45.4649 31.7349C45.5016 31.643 45.5292 31.5419 45.5476 31.4316C45.9331 31.4592 46.2912 31.5695 46.6492 31.5419C47.0073 31.5144 47.3653 31.5695 47.7234 31.4592C47.806 31.4316 47.8886 31.5144 47.8611 31.6247C47.8427 31.7533 47.8152 31.8912 47.7785 32.0382C47.6132 32.8286 47.4479 33.6191 47.2827 34.4095C47.044 35.4756 46.8145 36.5417 46.5941 37.6079C46.5391 37.7733 46.484 37.8285 46.3187 37.8285C45.6302 37.7733 44.9692 37.6906 44.3082 37.5527C44.2531 37.5252 44.2255 37.4976 44.198 37.47Z" fill="#2B418C"/>
<path d="M48.3855 18.6985C48.5232 18.1471 48.6609 17.6232 48.7711 17.0718C49.0832 15.6564 49.4045 14.2502 49.7351 12.8532C49.7351 12.7796 49.7442 12.7153 49.7626 12.6602C50.1482 12.7153 50.5338 12.8807 50.9194 13.0462C51.1672 13.1289 51.36 13.2116 51.6079 13.3219C51.7732 13.4046 51.8007 13.4598 51.7732 13.6803C51.663 14.195 51.5528 14.7097 51.4427 15.2244C51.204 16.2905 50.9653 17.3659 50.7266 18.4504C50.6531 18.818 50.5797 19.1856 50.5062 19.5533C50.4511 19.7187 50.3961 19.7463 50.2584 19.6636C50.24 19.6452 50.2216 19.636 50.2033 19.636C49.68 19.25 49.1016 18.9467 48.4957 18.7812C48.4406 18.7537 48.413 18.7261 48.3855 18.6985Z" fill="#2B418C"/>
<path d="M41.4996 7.80078C42.5738 7.82835 43.2899 8.65553 43.3174 9.73085C43.3449 10.9716 42.4085 11.6609 41.4996 11.6609C40.7009 11.6609 39.737 10.9716 39.7094 9.78599C39.6819 8.73824 40.5081 7.82835 41.4996 7.80078Z" fill="#B8B6B7"/>
<path d="M30.0681 22.6111C30.1232 21.3152 31.1422 20.5156 32.299 20.7638C32.9875 20.9017 33.6761 21.6461 33.6761 22.6111C33.6761 23.5486 33.1252 24.2655 32.2439 24.5136C31.1422 24.7894 30.2609 23.8519 30.1232 23.0247C30.0956 22.8593 30.013 22.7214 30.0681 22.6111Z" fill="#B8B6B7"/>
<path d="M33.8422 31.373C34.9164 31.373 35.66 32.2554 35.66 33.3031C35.66 34.5163 34.696 35.2332 33.8973 35.2332C32.8783 35.2332 32.1622 34.4612 32.052 33.3031C32.1071 32.3932 32.6579 31.373 33.8422 31.373Z" fill="#B8B6B7"/>
<path d="M30.2059 27.9619C30.2059 27.438 30.3712 26.9692 30.7292 26.6108C31.0322 26.2799 31.4178 26.0318 31.8309 26.0318C33.1805 26.0042 33.8139 27.052 33.7864 27.9343C33.7864 29.0096 33.1254 29.8919 31.9135 29.8919C30.8119 29.8644 30.1784 28.8442 30.2059 27.9619Z" fill="#B8B6B7"/>
<path d="M33.5942 19.0598C32.5751 19.1425 31.804 18.0948 31.804 17.1573C31.8315 15.9993 32.7128 15.1997 33.6217 15.2273C34.5306 15.2273 35.4119 16.0269 35.4119 17.1298C35.4119 18.1775 34.5581 19.115 33.5942 19.0598Z" fill="#B8B6B7"/>
<path d="M54.2513 40.2843C54.3064 41.1942 53.5627 42.242 52.406 42.1868C51.442 42.1593 50.6157 41.3045 50.6708 40.174C50.7259 39.0987 51.5246 38.2991 52.5712 38.3543C53.5352 38.4094 54.2513 39.2917 54.2513 40.2843Z" fill="#B8B6B7"/>
<path d="M37.2853 35.7114C38.2492 35.6562 39.103 36.5661 39.103 37.6414C39.103 38.5238 38.3594 39.5715 37.3128 39.5715C36.1836 39.5439 35.5501 38.5789 35.495 37.6966C35.4675 36.5385 36.3213 35.6838 37.2853 35.7114Z" fill="#B8B6B7"/>
<path d="M52.0212 11.4936C51.0848 11.4936 50.2585 10.6113 50.2585 9.59114C50.2585 8.35038 51.3051 7.60592 52.1039 7.66107C53.2331 7.71621 53.839 8.57096 53.8941 9.59114C53.7564 10.694 53.178 11.4936 52.0212 11.4936Z" fill="#B8B6B7"/>
<path d="M45.1898 41.3386C45.1348 40.4287 45.9335 39.4085 46.9525 39.4361C47.9716 39.4361 48.7428 40.2633 48.7703 41.3662C48.7978 42.3864 47.9165 43.3514 47.0076 43.3238C45.8509 43.2962 45.1072 42.3036 45.1898 41.3386Z" fill="#B8B6B7"/>
<path d="M45.1897 8.60158C45.1071 7.74683 45.9333 6.6715 46.9799 6.72665C48.1642 6.78179 48.7151 7.66411 48.7977 8.68429C48.6875 9.86991 47.8337 10.6144 46.9249 10.5868C45.9058 10.5868 45.1071 9.59419 45.1897 8.60158Z" fill="#B8B6B7"/>
<path d="M54.913 12.3812C54.8855 11.1956 55.8219 10.4512 56.7308 10.4512C57.7774 10.4787 58.521 11.4162 58.521 12.3812C58.521 13.3187 57.7223 14.3113 56.7032 14.3113C55.6842 14.3113 54.8579 13.3463 54.913 12.3812Z" fill="#B8B6B7"/>
<path d="M61.9364 16.7061C61.964 17.8366 61 18.6362 60.1187 18.6086C59.1822 18.6086 58.3009 17.809 58.356 16.6234C58.3835 15.6308 59.0445 14.7484 60.1737 14.776C61.303 14.8036 61.964 15.7962 61.9364 16.7061Z" fill="#B8B6B7"/>
<path d="M36.9543 14.618C35.9077 14.5628 35.1641 13.7632 35.1641 12.6603C35.1916 11.6126 35.9903 10.7578 37.0369 10.7578C37.9183 10.7578 38.7996 11.6953 38.7721 12.7155C38.717 13.9011 37.8081 14.618 36.9543 14.618Z" fill="#B8B6B7"/>
<path d="M57.0058 39.2394C56.0694 39.2669 55.2431 38.4673 55.2156 37.3369C55.2156 36.3443 55.9592 35.4068 57.0333 35.4068C58.0249 35.3792 58.8511 36.3994 58.8236 37.3093C58.8236 38.3846 58.0249 39.2669 57.0058 39.2394Z" fill="#B8B6B7"/>
<path d="M43.7023 40.4203C43.7023 41.4405 42.9862 42.3504 41.8845 42.3504C40.9756 42.3504 40.1494 41.5232 40.1218 40.4203C40.1218 39.2898 41.0307 38.4902 41.9121 38.4902C42.9862 38.4902 43.7574 39.4553 43.7023 40.4203Z" fill="#B8B6B7"/>
<path d="M41.7191 45.0171C41.7191 45.7064 41.1407 46.313 40.4797 46.313C39.8187 46.313 39.2678 45.7064 39.2678 44.9895C39.2678 44.2726 39.7911 43.666 40.5348 43.666C41.2233 43.6936 41.7466 44.4105 41.7191 45.0171Z" fill="#B8B6B7"/>
<path d="M30.0136 37.1144C29.3526 37.1144 28.7742 36.5078 28.7742 35.8185C28.8017 35.0741 29.3525 34.4675 30.0411 34.495C30.6746 34.495 31.2254 35.1016 31.2254 35.8185C31.2529 36.5078 30.7021 37.0869 30.0136 37.1144Z" fill="#B8B6B7"/>
<path d="M45.8233 46.1709C45.7682 45.5367 46.2915 44.9026 47.0352 44.875C47.6686 44.875 48.2745 45.5092 48.247 46.1985C48.2195 47.0808 47.5585 47.5495 46.9801 47.522C46.3191 47.4944 45.7958 46.9154 45.8233 46.1709Z" fill="#B8B6B7"/>
<path d="M53.5363 3.69922C54.1422 3.72679 54.7481 4.2231 54.7481 5.05028C54.7206 5.90502 54.0596 6.34618 53.5087 6.3186C52.7651 6.3186 52.2969 5.73958 52.2969 4.99513C52.2969 4.08524 52.9854 3.69922 53.5363 3.69922Z" fill="#B8B6B7"/>
<path d="M46.9801 2.95508C47.6135 2.98265 48.2195 3.47895 48.2195 4.30613C48.1919 5.1333 47.5309 5.60203 46.9801 5.57446C46.2089 5.54689 45.7407 4.99544 45.7682 4.22341C45.7682 3.34109 46.4568 2.95508 46.9801 2.95508Z" fill="#B8B6B7"/>
<path d="M54.1144 46.051C53.4534 46.051 52.875 45.4444 52.9026 44.7551C52.9301 43.8728 53.536 43.4592 54.1695 43.4316C54.803 43.4316 55.3813 44.0658 55.3538 44.7275C55.3538 45.4996 54.803 46.051 54.1144 46.051Z" fill="#B8B6B7"/>
<path d="M65.2415 14.1965C65.2139 14.9134 64.6907 15.4924 64.0021 15.52C63.3411 15.52 62.7627 14.9134 62.7903 14.1965C62.7903 13.3418 63.4513 12.873 63.9746 12.873C64.6631 12.873 65.2415 13.4796 65.2415 14.1965Z" fill="#B8B6B7"/>
<path d="M61.2479 40.9811C61.2754 41.6428 60.5869 42.277 60.0085 42.2494C59.3199 42.2218 58.7966 41.6152 58.7966 40.8708C58.7966 40.209 59.4301 39.5749 60.0636 39.6024C60.7246 39.6576 61.2479 40.2642 61.2479 40.9811Z" fill="#B8B6B7"/>
<path d="M35.7142 41.3977C35.7142 42.0594 35.1909 42.6936 34.5023 42.6936C33.9515 42.7212 33.2629 42.28 33.2629 41.3701C33.2629 40.6532 33.8138 40.0742 34.4748 40.0742C35.1633 40.0742 35.7142 40.736 35.7142 41.3977Z" fill="#B8B6B7"/>
<path d="M60.7247 8.60134C60.7247 9.3458 60.2014 9.89724 59.5404 9.92482C58.9345 9.95239 58.301 9.37337 58.301 8.60134C58.301 7.96717 58.8243 7.333 59.4853 7.30543C60.284 7.27786 60.7798 8.02232 60.7247 8.60134Z" fill="#B8B6B7"/>
<path d="M27.3696 23.2691C26.7361 23.2691 26.1577 22.635 26.1853 21.9457C26.2128 21.2288 26.7912 20.6222 27.4247 20.6773C28.1132 20.7049 28.6365 21.2012 28.6365 21.9732C28.664 22.6625 28.0857 23.3243 27.3696 23.2691Z" fill="#B8B6B7"/>
<path d="M33.9796 10.4001C33.2635 10.4001 32.7402 9.79349 32.7402 9.04903C32.7678 8.35972 33.3462 7.72555 33.9796 7.78069C34.7783 7.83584 35.1915 8.49757 35.1915 9.10417C35.1639 9.79348 34.6406 10.4001 33.9796 10.4001Z" fill="#B8B6B7"/>
<path d="M28.8008 28.9036C28.7732 29.6204 28.2775 30.1995 27.5614 30.1995C26.983 30.1995 26.3495 29.7032 26.3771 28.876C26.3771 28.1867 26.8453 27.5801 27.5889 27.5801C28.1949 27.5801 28.8008 28.104 28.8008 28.9036Z" fill="#B8B6B7"/>
<path d="M29.6549 13.5715C30.3159 13.5715 30.8392 14.1505 30.8392 14.8949C30.8668 15.5291 30.371 16.1633 29.6274 16.1633C28.9939 16.1633 28.4155 15.6118 28.4155 14.8398C28.4155 14.2056 28.9664 13.5163 29.6549 13.5715Z" fill="#B8B6B7"/>
<path d="M41.0589 5.27409C41.0865 5.99097 40.5356 6.57 39.8746 6.57C39.1586 6.57 38.6353 5.99097 38.6353 5.24651C38.6353 4.52963 39.1035 4.00576 39.8196 3.95061C40.4806 3.89547 41.0589 4.52963 41.0589 5.27409Z" fill="#B8B6B7"/>
<path d="M47.0079 50.8479C46.5397 50.8479 46.1816 50.4619 46.1816 49.938C46.1816 49.4968 46.5948 49.0557 47.0079 49.0833C47.4761 49.1108 47.8617 49.4693 47.8617 49.9656C47.8892 50.4343 47.4761 50.8479 47.0079 50.8479Z" fill="#B8B6B7"/>
<path d="M23.9258 20.5449C24.394 20.5725 24.7796 20.9585 24.7521 21.4272C24.7521 21.9235 24.3665 22.3371 23.8983 22.3096C23.4576 22.3096 23.072 21.9236 23.0995 21.4548C23.1271 20.8482 23.4576 20.6001 23.9258 20.5449Z" fill="#B8B6B7"/>
<path d="M67.0325 13.175C66.6194 13.175 66.1787 12.7063 66.1787 12.2651C66.2063 11.824 66.5918 11.3828 67.005 11.3828C67.5283 11.3828 67.8588 11.8515 67.8588 12.2651C67.8863 12.7339 67.4732 13.175 67.0325 13.175Z" fill="#B8B6B7"/>
<path d="M33.0708 44.3181C33.0708 44.7593 32.6576 45.228 32.272 45.228C31.7763 45.2004 31.4182 44.7041 31.4182 44.3181C31.3907 43.9045 31.7487 43.4082 32.272 43.4082C32.7127 43.4358 33.0708 43.8494 33.0708 44.3181Z" fill="#B8B6B7"/>
<path d="M63.1762 43.7703C63.1762 44.2391 62.7355 44.7078 62.3224 44.6802C61.9092 44.6802 61.4961 44.2115 61.4961 43.7428C61.4961 43.274 61.9918 42.8605 62.3774 42.888C62.7906 42.9156 63.2037 43.3567 63.1762 43.7703Z" fill="#B8B6B7"/>
<path d="M27.3695 13.0939C27.3419 13.5627 26.9839 13.9487 26.5432 13.9487C26.075 13.9211 25.6894 13.5075 25.717 13.0388C25.717 12.5976 26.1301 12.1289 26.5157 12.1289C27.0114 12.1289 27.3695 12.5425 27.3695 13.0939Z" fill="#B8B6B7"/>
<path d="M26.1304 37.7183C26.1304 37.1944 26.6261 36.8359 26.9842 36.8359C27.4524 36.8359 27.7829 37.2219 27.8104 37.7458C27.8104 38.187 27.4799 38.6006 26.9566 38.6006C26.516 38.6006 26.1304 38.187 26.1304 37.7183Z" fill="#B8B6B7"/>
<path d="M61.7715 4.82227C62.2397 4.82227 62.5978 5.23586 62.5978 5.73216C62.5978 6.17332 62.1846 6.61447 61.7715 6.5869C61.3859 6.5869 60.9177 6.25604 60.9453 5.70459C60.9453 5.20828 61.3033 4.82227 61.7715 4.82227Z" fill="#B8B6B7"/>
<path d="M54.3616 1.38477C54.8023 1.38477 55.1603 1.79836 55.1603 2.29466C55.1603 2.73582 54.7747 3.17698 54.3616 3.17698C53.9485 3.1494 53.5078 2.84611 53.5078 2.26709C53.5354 1.77078 53.8934 1.38477 54.3616 1.38477Z" fill="#B8B6B7"/>
<path d="M47.0076 0C47.4483 0 47.8063 0.413592 47.8063 0.909896C47.8063 1.35106 47.3932 1.79221 46.9801 1.79221C46.5945 1.76464 46.1538 1.46134 46.1538 0.882322C46.1814 0.386018 46.5394 0 47.0076 0Z" fill="#B8B6B7"/>
<path d="M38.4417 1.38477C38.8824 1.38477 39.2404 1.79836 39.2404 2.29466C39.2404 2.73582 38.8273 3.17698 38.4141 3.17698C38.0286 3.1494 37.5879 2.84611 37.5879 2.26709C37.6154 1.77078 37.9735 1.38477 38.4417 1.38477Z" fill="#B8B6B7"/>
<path d="M23.2927 29.5579C23.3203 29.0616 23.6783 28.7031 24.1741 28.7031C24.6147 28.7031 24.9452 29.0891 24.9452 29.5854C24.9452 30.1645 24.5321 30.4678 24.0914 30.4678C23.6508 30.4678 23.2927 30.0817 23.2927 29.5579Z" fill="#B8B6B7"/>
<path d="M40.1489 48.5718C40.1489 49.0129 39.7633 49.4541 39.3501 49.4541C38.7718 49.4541 38.4963 49.0405 38.4963 48.5442C38.4963 48.1031 38.8819 47.6895 39.2951 47.6895C39.7633 47.6895 40.1489 48.0755 40.1489 48.5718Z" fill="#B8B6B7"/>
<path d="M32.465 6.26536C32.5201 6.65138 32.0794 7.14769 31.6388 7.12011C31.2256 7.12011 30.8125 6.70652 30.8125 6.26536C30.8125 5.76906 31.2256 5.35547 31.6938 5.35547C32.0794 5.38304 32.5201 5.82421 32.465 6.26536Z" fill="#B8B6B7"/>
<path d="M56.2354 48.2866C56.2354 48.7554 55.8223 49.1689 55.3816 49.1689C54.9134 49.1689 54.5278 48.7554 54.5553 48.2591C54.5829 47.7903 54.8858 47.4043 55.4091 47.4043C55.8498 47.4043 56.1803 47.7352 56.2354 48.2866Z" fill="#B8B6B7"/>
<path d="M91.629 21.8698C91.629 21.9525 91.5739 21.9801 91.5187 21.9525C91.436 21.8974 91.4912 21.8423 91.5463 21.7871C91.5647 21.8239 91.5923 21.8515 91.629 21.8698Z" fill="#B8B6B7"/>
</g>
<g clip-path="url(#clip1_979_1190)">
<path fill-rule="evenodd" clip-rule="evenodd" d="M91.832 59.4949C91.7489 60.0214 91.652 60.5342 91.5413 61.033C91.2921 62.4188 91.0291 63.7907 90.7523 65.1488C90.6277 65.8555 90.4616 66.6039 90.2954 67.3522C90.1293 68.0589 89.714 68.3915 89.0496 68.5578C88.925 68.5578 88.8004 68.5578 88.6759 68.5578C87.8453 68.5578 87.0286 68.5717 86.2257 68.5994C85.9765 68.5994 85.7274 68.5994 85.5197 68.4747C85.2706 68.2668 85.0214 68.2252 84.7307 68.4747C84.6061 68.641 84.3985 68.5994 84.1908 68.5994C83.7756 68.5994 83.3187 68.5578 82.9035 68.5994C82.5712 68.5994 82.2805 68.5578 81.9898 68.3499C81.8791 68.2391 81.7684 68.2391 81.6576 68.3499C81.45 68.5578 81.2423 68.5578 80.9932 68.5578C80.4533 68.5994 79.9134 68.5578 79.3736 68.5994C79.0414 68.5994 78.7922 68.3915 78.5015 68.2668C78.2523 68.4331 78.0032 68.5994 77.6709 68.5994C76.4251 68.5578 75.1793 68.5994 73.9334 68.5162C73.8504 68.5162 73.7673 68.5162 73.6842 68.5162C73.1859 68.4331 72.6876 68.2252 72.1892 68.2252C71.6909 68.2252 71.1926 68.4331 70.6527 68.4747C70.0713 68.5578 69.5314 68.5578 68.9501 68.5578C68.0088 68.5855 67.0813 68.5855 66.1677 68.5578C65.877 68.5578 65.7109 68.6825 65.5448 68.932C65.0049 69.6387 64.4235 70.3039 63.7591 70.8859C63.5514 71.0522 63.5099 71.0522 63.3022 70.8859C62.8039 70.4702 62.3056 70.096 61.7242 69.6803C62.3471 69.0567 62.9285 68.5578 63.3853 67.8511C63.0531 67.6848 62.8039 67.5185 62.5132 67.3522C62.181 67.1305 61.918 66.8395 61.7242 66.4792C61.4197 65.9248 61.3781 65.3567 61.5996 64.7746C61.6827 64.5529 61.7934 64.3312 61.9318 64.1095C62.3886 63.3612 62.887 62.696 63.5514 62.1971C63.9252 61.8645 64.3405 61.6151 64.8388 61.6566C65.4617 61.7398 66.0846 61.8229 66.583 62.3218C66.9982 62.7791 67.1643 63.3196 67.2059 63.9432C67.2474 64.5668 67.1643 65.232 66.9982 65.8556C66.9706 65.9941 66.9429 66.1466 66.9152 66.3128C66.9152 66.3544 66.9567 66.4376 67.0398 66.4376C67.0675 66.4653 67.109 66.4792 67.1644 66.4792H69.4484C69.4761 66.4792 69.5038 66.4792 69.5314 66.4792C69.7391 66.4376 69.8221 66.3544 69.6976 66.1466C69.2823 65.6061 69.0331 64.9825 68.8255 64.3173C68.6871 63.9293 68.5901 63.5274 68.5348 63.1117C68.4517 62.2802 68.8255 61.7398 69.656 61.6982C70.1959 61.6982 70.7358 61.6982 71.3172 61.6982H74.058C74.2518 61.6982 74.4318 61.7121 74.5979 61.7398C75.3038 61.8229 75.7191 62.2387 75.5945 63.1533C75.4699 64.2342 75.1793 65.2735 74.5148 66.1881C74.5148 66.2297 74.4733 66.3129 74.4318 66.3544C74.5148 66.5207 74.6394 66.4792 74.7224 66.4792C75.2762 66.4792 75.816 66.4792 76.342 66.4792C76.7573 66.4792 76.8404 66.396 76.9234 65.9387C77.0895 65.2735 77.2141 64.6499 77.3387 63.9848C77.4495 63.3473 77.574 62.696 77.7125 62.0308C77.7401 61.8091 77.8647 61.7259 78.0862 61.7814C78.3631 61.8645 78.6399 61.9615 78.9168 62.0724C79.249 62.1971 79.5812 62.2387 79.8719 62.4881C79.8719 62.8623 79.7473 63.1949 79.7058 63.569C79.5397 64.3173 79.3736 65.0656 79.2075 65.814C79.1659 66.0634 79.1659 66.2297 79.3736 66.3544C79.5397 66.5207 79.7889 66.4792 79.955 66.3544C80.0796 66.2297 80.2041 66.105 80.2457 65.9803C80.301 65.7585 80.3564 65.5368 80.4118 65.3151C80.6056 64.2342 80.8132 63.1533 81.0347 62.0724C81.0762 61.7398 81.1593 61.6982 81.45 61.8229C81.976 61.9892 82.4882 62.1555 82.9865 62.3218C83.2357 62.405 83.2357 62.4465 83.1942 62.696C83.0696 63.3611 82.9035 64.0679 82.7789 64.7746C82.6958 65.1072 82.6128 65.4814 82.5297 65.8556C82.4882 66.0634 82.5297 66.2297 82.6958 66.396C82.8619 66.5207 83.1942 66.4792 83.3603 66.2713C83.5264 66.105 83.6094 65.8555 83.651 65.6061C83.7617 64.9964 83.8724 64.4005 83.9832 63.8185C84.0939 63.2364 84.1908 62.6683 84.2739 62.114C84.3569 61.7814 84.4815 61.6982 84.7307 61.8229C85.229 61.9892 85.7412 62.1555 86.2672 62.3218C86.5164 62.4465 86.5579 62.4881 86.4749 62.7791C86.3088 63.6937 86.1426 64.6222 85.9765 65.5645C85.935 65.7724 85.935 65.9803 85.935 66.1881C85.935 66.3129 86.0181 66.4376 86.1426 66.4376C86.3918 66.4791 86.5995 66.4792 86.8071 66.4792C87.1393 66.4792 87.43 66.4792 87.7622 66.4792C88.0529 66.4792 88.2606 66.3128 88.3436 66.0218C88.399 65.8001 88.4405 65.5922 88.4682 65.3982C88.8281 63.4859 89.188 61.5874 89.5479 59.7027V59.5364C89.631 59.287 89.6725 59.2454 89.9217 59.2454C90.4754 59.2177 91.0429 59.2177 91.6243 59.2454C91.7905 59.2454 91.8735 59.3286 91.832 59.4949ZM65.3371 64.3589C65.3371 63.9847 65.0049 63.7769 64.6727 63.9848C64.2989 64.1926 64.0082 64.5252 63.7591 64.8994C63.5514 65.2735 63.6345 65.7308 63.9252 65.8556C64.382 66.105 64.5481 66.2297 64.8388 65.6477C64.9218 65.4814 65.0049 65.3289 65.088 65.1904C65.2264 64.9409 65.3094 64.6638 65.3371 64.3589ZM73.2274 64.151C73.2274 63.9847 73.1029 63.8185 72.9367 63.8185C72.6599 63.8185 72.383 63.8185 72.1062 63.8185C71.8155 63.8185 71.5248 63.7769 71.2756 63.8185C70.9849 63.8185 70.8603 64.0263 70.9019 64.3173C70.9019 64.4005 70.9157 64.4698 70.9434 64.5252C71.151 65.1072 71.5663 65.5645 72.0231 65.9387C72.1477 66.0219 72.3553 65.9803 72.4384 65.814C72.7291 65.4398 72.9783 65.0657 73.1444 64.6084C73.1859 64.4421 73.1859 64.2758 73.2274 64.151Z" fill="#2B418C"/>
<path d="M127.587 68.6019C127.171 68.6019 126.756 68.6019 126.341 68.6019C126.05 68.6019 125.759 68.5604 125.51 68.3525C125.344 68.2278 125.22 68.2694 125.095 68.3941C124.929 68.5603 124.721 68.6019 124.472 68.6019C123.974 68.6019 123.434 68.5603 122.894 68.6019C122.52 68.6019 122.271 68.2693 121.981 68.3109C121.731 68.3525 121.482 68.6019 121.15 68.6019C120.693 68.5603 120.278 68.5603 119.821 68.6019C119.448 68.6019 119.115 68.6019 118.825 68.3109C118.742 68.2693 118.617 68.2694 118.534 68.3525C118.326 68.5188 118.077 68.6019 117.828 68.5604C116.998 68.5604 116.167 68.5604 115.337 68.5604C115.046 68.5604 114.797 68.5188 114.548 68.4356C114.215 68.2694 114.215 68.2694 113.966 68.6019C113.44 69.3225 112.831 69.946 112.139 70.4726C111.807 70.722 111.682 70.722 111.35 70.4726C110.99 70.2232 110.63 69.946 110.271 69.6412C109.938 69.3917 109.98 69.3086 110.229 69.0592C110.506 68.8375 110.769 68.6019 111.018 68.3525C112.139 67.1885 112.887 65.7751 113.177 64.0708C113.288 63.3779 113.413 62.6851 113.551 61.9922C113.579 61.7983 113.676 61.729 113.842 61.7844C114.368 61.923 114.894 62.0754 115.42 62.2417C115.793 62.3664 115.752 62.4911 115.71 62.7821C115.544 63.6412 115.378 64.5003 115.212 65.3594C115.17 65.5257 115.129 65.692 115.129 65.8998C115.129 66.1493 115.254 66.3987 115.503 66.4403C115.918 66.5234 116.375 66.5234 116.79 66.4403C116.928 66.4125 117.011 66.3294 117.039 66.1908C117.081 65.983 117.164 65.8167 117.164 65.6504C117.357 64.6527 117.551 63.6412 117.745 62.6158C117.773 62.4772 117.8 62.3525 117.828 62.2417C117.953 61.7428 118.036 61.7012 118.451 61.8675C118.866 62.0338 119.323 62.1585 119.78 62.3248C120.07 62.4079 120.112 62.4911 120.029 62.8237C119.835 63.7382 119.641 64.6527 119.448 65.5673C119.406 65.7751 119.448 65.983 119.448 66.1908C119.448 66.3571 119.572 66.4403 119.697 66.4403C120.029 66.5234 120.361 66.3155 120.444 65.8998C120.527 65.5119 120.61 65.1239 120.693 64.7359C120.832 63.9599 120.97 63.1839 121.109 62.408C121.136 62.2417 121.178 62.0754 121.233 61.9091C121.275 61.826 121.358 61.7428 121.482 61.7844C122.036 61.9507 122.604 62.1447 123.185 62.3664C123.392 62.4495 123.434 62.5326 123.351 62.7821C123.185 63.655 122.977 64.5696 122.811 65.4426C122.77 65.692 122.77 65.8999 122.728 66.1493C122.728 66.3987 122.977 66.4818 123.143 66.4818C123.517 66.3987 123.725 66.1493 123.808 65.7751C123.891 65.3594 123.96 64.9437 124.015 64.528C124.154 63.752 124.306 62.9899 124.472 62.2417C124.472 62.1308 124.5 62.02 124.555 61.9091C124.611 61.7705 124.694 61.729 124.804 61.7844C125.081 61.8675 125.344 61.9507 125.593 62.0338C125.759 62.0892 125.912 62.1447 126.05 62.2001C126.881 62.4911 126.715 62.4495 126.59 63.2394C126.507 64.0292 126.299 64.7775 126.175 65.5257C126.009 66.3987 126.05 66.4818 126.881 66.4818C127.213 66.4818 127.559 66.4818 127.919 66.4818C128.251 66.4818 128.417 66.3156 128.5 65.983C128.611 65.4564 128.722 64.916 128.832 64.3617C129.109 62.8098 129.4 61.2717 129.704 59.7474C129.732 59.6366 129.76 59.5257 129.787 59.4149C129.843 59.2763 129.926 59.207 130.037 59.207C130.618 59.207 131.199 59.207 131.781 59.207C131.974 59.2347 132.057 59.3456 132.03 59.5396C131.947 60.0107 131.85 60.4819 131.739 60.953C131.379 62.8098 131.019 64.6666 130.659 66.5234C130.604 66.7728 130.535 67.0361 130.452 67.3132C130.327 67.9784 129.995 68.4772 129.04 68.5604C128.542 68.6019 128.043 68.5604 127.587 68.5604V68.6019Z" fill="#2B418C"/>
<path d="M110.768 59.207C110.657 59.207 110.547 59.207 110.436 59.207C109.578 59.207 108.733 59.207 107.903 59.207C107.529 59.207 107.197 59.207 106.865 59.207C106.533 59.207 106.325 59.3733 106.2 59.6643C106.034 59.9553 105.951 60.2878 105.868 60.6204C105.744 60.9114 105.785 61.2024 105.951 61.535C106.311 62.1724 106.643 62.8375 106.948 63.5303C107.322 64.3202 107.529 65.1516 107.737 65.983C107.778 66.2324 107.654 66.3987 107.446 66.4403C107.363 66.468 107.266 66.4818 107.155 66.4818C106.325 66.4818 105.453 66.4818 104.622 66.4818C103.958 66.4818 103.792 66.2324 103.916 65.5257V65.4841C104.083 64.9022 104.166 64.2786 104.249 63.6551C104.29 63.4056 104.332 63.1146 104.29 62.8652C104.249 62.3248 104.041 61.9922 103.584 61.8675C103.377 61.7844 103.169 61.7428 102.92 61.7428C102.172 61.6597 101.383 61.7013 100.636 61.7013C99.9716 61.7013 99.5563 62.0754 99.2657 62.6989C99.0996 63.1146 99.0165 63.5719 98.9335 64.0292C98.8089 64.9022 98.6013 65.8167 98.4767 66.6897C98.3936 67.0223 98.3521 67.3132 98.4352 67.6458C98.5182 68.1862 98.7674 68.4772 99.2657 68.5188C99.8055 68.5603 100.345 68.5604 100.885 68.5604C101.01 68.5604 101.093 68.4772 101.134 68.3525C101.162 68.2694 101.19 68.1724 101.217 68.0615C101.3 67.7289 101.3 67.3548 101.466 67.0638C101.466 66.8698 101.453 66.6897 101.425 66.5234C101.3 66.5234 101.176 66.4818 101.051 66.4818C100.636 66.5234 100.636 66.3571 100.719 66.0661C100.802 65.4841 100.885 64.9437 100.968 64.3617C100.996 64.1955 101.037 64.043 101.093 63.9045C101.217 63.4472 101.467 63.2394 101.923 63.2394C102.006 63.2394 102.089 63.2809 102.089 63.4056C102.089 63.4611 102.089 63.5303 102.089 63.6135C101.923 64.5834 101.757 65.5534 101.591 66.5234C101.591 66.6897 101.633 66.856 101.591 67.0638C101.619 67.1747 101.646 67.2855 101.674 67.3964C101.84 67.9507 102.186 68.3109 102.712 68.4772C103.044 68.5603 103.377 68.5604 103.709 68.5604H109.024C109.273 68.5604 109.522 68.4356 109.689 68.1862C109.979 67.8121 110.145 67.3132 110.145 66.8144C110.104 66.0661 110.062 65.3594 109.855 64.6527C109.578 63.5996 109.19 62.6158 108.692 61.7013C108.609 61.535 108.443 61.4103 108.526 61.1608C108.609 61.1608 108.692 61.1608 108.775 61.1608C109.273 61.1608 109.785 61.147 110.311 61.1193C110.561 61.1193 110.602 61.0777 110.644 60.8283C110.754 60.3571 110.851 59.8999 110.934 59.4564C110.976 59.2902 110.893 59.2486 110.768 59.207Z" fill="#2B418C"/>
<path d="M35.9352 68.6019C35.4369 68.6019 34.9386 68.5603 34.4403 68.6019C34.1081 68.6019 33.8174 68.4772 33.5683 68.2694C33.2776 68.3525 33.0284 68.6019 32.6547 68.6019C31.4505 68.5603 30.2462 68.6019 29.0005 68.6019C28.9451 68.6019 28.8897 68.5881 28.8344 68.5604C28.7098 68.5188 28.6267 68.4356 28.6683 68.3109C28.6683 68.2278 28.7098 68.1447 28.7513 68.0199C28.779 67.8537 28.8067 67.6874 28.8344 67.5211C28.9174 67.1885 28.8759 66.7728 29.1251 66.565C29.3742 66.3571 29.7479 66.4818 30.0386 66.4818C30.4539 66.4818 30.8691 66.4818 31.2844 66.4818C31.5889 66.4818 31.7965 66.3156 31.9072 65.983C31.9903 65.7751 32.0318 65.5673 32.1149 65.3594C32.3363 64.1123 32.5578 62.8791 32.7793 61.6597C32.89 61.0223 33.0146 60.3987 33.153 59.789C33.1807 59.6781 33.2084 59.5673 33.2361 59.4564C33.2776 59.2902 33.3191 59.207 33.4852 59.207C34.0942 59.207 34.6894 59.207 35.2708 59.207C35.4369 59.207 35.5061 59.304 35.4784 59.498C35.423 59.8583 35.3538 60.2186 35.2708 60.5788C34.9663 62.2417 34.6617 63.9045 34.3572 65.5673C34.3295 65.7613 34.3019 65.9553 34.2742 66.1493C34.2742 66.3156 34.3572 66.4403 34.5233 66.4403C34.6064 66.468 34.6894 66.4818 34.7725 66.4818C35.2708 66.4818 35.7691 66.4818 36.2259 66.4818C36.7657 66.4818 36.9318 66.3156 37.0149 65.7751C37.1394 64.9853 37.3055 64.237 37.4716 63.4472C37.7208 62.1724 37.9561 60.9114 38.1776 59.6643C38.2052 59.6089 38.2191 59.5396 38.2191 59.4564C38.2606 59.3317 38.3437 59.207 38.5098 59.207C39.0911 59.207 39.6863 59.2209 40.2953 59.2486C40.4199 59.2486 40.503 59.3317 40.4614 59.4564C40.4614 59.6227 40.4476 59.7752 40.4199 59.9137C39.9493 62.2417 39.4925 64.5696 39.0496 66.8975C39.0081 67.0638 38.9665 67.1885 38.925 67.3548C38.8004 68.0615 38.2606 68.5188 37.5547 68.5604C37.1394 68.5604 36.7242 68.5604 36.3089 68.5604C36.1982 68.5604 36.0736 68.5604 35.9352 68.5604V68.6019Z" fill="#2B418C"/>
<path fill-rule="evenodd" clip-rule="evenodd" d="M54.374 62.8687C54.1802 63.8941 53.9726 64.9195 53.7511 65.9449C53.6681 66.4437 53.5435 66.901 53.4189 67.3999C53.2944 68.0234 52.9206 68.3975 52.3393 68.5222C52.1178 68.5777 51.8825 68.5915 51.6334 68.5638C50.4983 68.5638 49.3633 68.5638 48.2283 68.5638C47.9791 68.5638 47.7715 68.5638 47.5223 68.4807C46.941 68.3144 46.5673 67.8987 46.4427 67.2751C46.4012 67.1088 46.4842 66.9426 46.2766 66.8179C46.1935 67.289 46.0967 67.7463 45.9859 68.1897C45.9029 68.5222 45.8613 68.5638 45.5707 68.5638C45.1554 68.5638 44.7402 68.5638 44.3249 68.5638C44.2142 68.5638 44.0896 68.55 43.9512 68.5222C43.5359 68.3975 43.2868 68.1065 43.2453 67.6493C43.2037 67.3998 43.2037 67.1089 43.2453 66.8179C43.439 65.737 43.6328 64.6701 43.8266 63.6169C43.882 63.3121 43.965 63.0211 44.0758 62.744C44.3249 62.1204 44.7402 61.7463 45.363 61.7047C46.152 61.6632 46.9825 61.7047 47.7715 61.7463C48.0207 61.7463 48.2698 61.7879 48.519 61.9126C48.8512 62.0511 49.0449 62.3144 49.1003 62.7024C49.1418 63.2428 49.1003 63.7417 48.9757 64.2405C48.8927 64.6978 48.8096 65.1966 48.7266 65.6955C48.6989 65.7786 48.6851 65.8618 48.6851 65.9449C48.6851 66.1943 48.8512 66.4022 49.0588 66.4437C49.1142 66.4714 49.1834 66.4853 49.2664 66.4853C49.8062 66.4853 50.3461 66.4853 50.9274 66.4853C51.3012 66.4437 51.4257 66.3606 51.5088 65.9449C51.7164 64.7394 51.924 63.5338 52.1732 62.3283C52.1732 62.2451 52.1732 62.162 52.2147 62.0788C52.2978 61.8294 52.4223 61.7047 52.713 61.8294C53.1698 61.9957 53.6266 62.1204 54.0833 62.3283C54.4571 62.453 54.4571 62.4946 54.374 62.8687ZM46.6503 63.2428C46.152 63.326 45.9444 63.5338 45.8613 64.0742C45.7229 64.7671 45.5983 65.4738 45.4876 66.1943C45.4461 66.3606 45.5291 66.4437 45.6952 66.4437C45.7783 66.4853 45.9029 66.4853 45.9859 66.4853C46.1243 66.4853 46.2489 66.4992 46.3596 66.5269C46.4842 66.4022 46.4427 66.2774 46.4427 66.1112C46.6088 65.252 46.7611 64.3929 46.8995 63.5338C46.941 63.2844 46.8579 63.2013 46.6503 63.2428Z" fill="#2B418C"/>
<path d="M3.58502 70.6305H1.55027C1.4257 70.6305 1.30113 70.6305 1.17655 70.5889C0.470621 70.5057 0.0138419 70.0069 0.0138419 69.2171C-0.0138416 68.9676 -4.70269e-07 68.7182 0.0553665 68.4688C0.304518 67.1801 0.553671 65.933 0.802822 64.6443C0.968923 63.7575 1.14886 62.8707 1.34265 61.9839C1.38417 61.776 1.50875 61.6929 1.67485 61.776C2.20084 61.97 2.74066 62.164 3.29433 62.358C3.46043 62.3995 3.50196 62.5243 3.46044 62.649C3.43275 62.9815 3.39123 63.3002 3.33586 63.6051C3.08671 64.8522 2.8514 66.0855 2.62993 67.3048C2.57457 67.5266 2.53304 67.7483 2.50536 67.97C2.46383 68.2194 2.58841 68.3857 2.79603 68.3857C3.54349 68.4134 4.30478 68.4134 5.07992 68.3857C5.3706 68.3857 5.5367 68.2194 5.61975 67.9284C5.78585 67.4296 5.91043 66.9307 6.035 66.4319C6.28415 65.0462 6.54714 63.6605 6.82398 62.2748C6.82398 62.1085 6.86551 61.9838 6.94856 61.9007C6.99008 61.776 7.07313 61.7344 7.19771 61.776C7.7237 61.97 8.24968 62.164 8.77567 62.358C8.94177 62.3995 9.02482 62.5242 8.9833 62.6905C8.90025 63.1617 8.81719 63.619 8.73414 64.0624C8.42962 65.642 8.12511 67.2217 7.82059 68.8014C7.77906 69.1339 7.61296 69.4665 7.48839 69.7575C7.32228 70.1732 7.03161 70.381 6.65788 70.4642C6.32568 70.5473 5.95195 70.6305 5.57822 70.6305C4.91382 70.5889 4.24942 70.6305 3.58502 70.6305Z" fill="#2B418C"/>
<path fill-rule="evenodd" clip-rule="evenodd" d="M27.8365 63.9946C27.8919 65.3248 27.615 66.5442 27.006 67.6528C26.3139 68.9276 25.428 70.0223 24.3484 70.9368C24.3069 70.9784 24.2653 70.9784 24.1823 71.0615C23.6425 70.6458 23.1026 70.2301 22.5628 69.8144C22.4382 69.7313 22.4382 69.6066 22.5628 69.4819C22.9504 69.0939 23.3379 68.7059 23.7255 68.3179C23.8501 68.1932 23.9747 68.0269 24.0162 67.8191C23.684 67.6943 23.3933 67.5281 23.1026 67.3202C22.7289 67.0708 22.4798 66.6966 22.2721 66.3225C22.023 65.7821 22.0645 65.2001 22.3137 64.6597C22.4798 64.2024 22.7289 63.7867 23.0196 63.4542C23.3933 63.0385 23.767 62.6228 24.1823 62.2486C24.556 61.8745 25.0128 61.6251 25.5526 61.6666C26.1755 61.7498 26.7569 61.8745 27.2136 62.3318C27.6704 62.789 27.8365 63.371 27.8365 63.9946ZM25.9679 64.3687C25.9679 63.9946 25.7187 63.7867 25.3865 63.953C25.3588 63.953 25.3312 63.953 25.3035 63.953C24.8882 64.2856 24.5145 64.6181 24.3484 65.1585C24.2653 65.2833 24.3069 65.408 24.3484 65.5742C24.4314 65.9068 24.7221 65.99 25.0128 66.0731C25.2619 66.1147 25.3865 65.8652 25.5111 65.699C25.6357 65.4495 25.7603 65.1586 25.8848 64.9091C25.9679 64.7428 25.9679 64.5765 25.9679 64.3687Z" fill="#2B418C"/>
<path fill-rule="evenodd" clip-rule="evenodd" d="M15.1292 65.4892C14.8801 67.0273 14.1326 68.2744 13.1775 69.4384C12.7623 69.9373 12.347 70.4777 11.8072 70.8518C11.5581 71.0597 11.5581 71.0597 11.3089 70.8518C10.866 70.5192 10.4369 70.1867 10.0216 69.8541C9.82784 69.7155 9.814 69.577 9.9801 69.4384C10.4369 69.1058 10.7691 68.6902 11.1428 68.2329C11.2259 68.1497 11.3089 68.0666 11.3504 67.8587C11.1013 67.6925 10.8521 67.54 10.603 67.4015C10.2292 67.1936 9.93857 66.861 9.73094 66.4453C9.44027 65.9465 9.44027 65.4061 9.60637 64.8657C9.77247 64.3253 10.0631 63.868 10.3953 63.4523C10.8521 62.9119 11.2674 62.413 11.8487 61.9973C12.264 61.7063 12.7208 61.6232 13.2191 61.7063C13.3852 61.7341 13.5374 61.7756 13.6758 61.831C14.5479 62.0389 15.0047 62.6625 15.1708 63.577C15.2953 64.2006 15.2123 64.8241 15.1292 65.4892ZM13.1775 63.9927C13.053 63.868 12.8453 63.868 12.7208 63.9511C12.264 64.2421 11.9318 64.6163 11.7242 65.1151C11.5996 65.4477 11.7657 65.8218 12.0564 65.9465C12.1394 65.9881 12.2225 65.9881 12.3055 66.0296C12.4301 66.1128 12.5547 66.0712 12.6377 65.9465C13.053 65.5724 13.2191 64.9904 13.3436 64.5747C13.3852 64.2837 13.3436 64.1174 13.1775 63.9927Z" fill="#2B418C"/>
<path d="M56.2011 68.5579C55.7305 68.5856 55.2598 68.5856 54.7892 68.5579C54.4985 68.5579 54.4155 68.4747 54.4985 68.2253C54.6093 67.7265 54.7062 67.2276 54.7892 66.7288C54.8446 66.5625 54.9553 66.4793 55.1214 66.4793C55.7028 66.4793 56.298 66.4793 56.907 66.4793C57.8206 66.4793 58.0282 66.2715 58.1943 65.3154C58.2773 64.9828 58.3604 64.6503 58.3189 64.3177C58.3189 64.0267 58.2358 63.902 57.9451 63.8188C57.779 63.7773 57.5714 63.7773 57.4053 63.7773C56.824 63.7773 56.2426 63.7773 55.6612 63.7773C55.4121 63.7773 55.329 63.6941 55.4121 63.4447C55.4675 63.1122 55.5505 62.7796 55.6612 62.447C55.7858 62.0313 56.035 61.8235 56.4502 61.7403C56.6579 61.7403 56.8655 61.6988 57.0731 61.6988C57.8206 61.6988 58.568 61.7403 59.3155 61.6988C60.1875 61.6572 60.8104 62.4886 60.6858 63.2784C60.6443 63.7357 60.5612 64.1514 60.4782 64.5671C60.3536 65.2322 60.229 65.8974 60.1045 66.5209C59.9384 67.186 59.6062 67.8096 59.0248 68.1422C58.6095 68.3916 58.1943 68.4747 57.7375 68.5163C57.2392 68.5578 56.6994 68.5579 56.2011 68.5994V68.5579Z" fill="#2B418C"/>
<path d="M133.734 59.207C134.398 59.207 135.062 59.207 135.727 59.207C135.851 59.207 135.893 59.2902 135.893 59.4149C135.851 59.8722 135.81 60.2878 135.727 60.7036C135.256 63.1423 134.786 65.5812 134.315 68.0199C134.315 68.1031 134.301 68.1724 134.273 68.2278C134.232 68.4772 134.149 68.5604 133.9 68.5604C133.346 68.5604 132.779 68.5604 132.197 68.5604C131.99 68.5604 131.948 68.4356 131.99 68.2278C132.211 66.9253 132.446 65.6227 132.696 64.3202C132.972 62.8791 133.249 61.4241 133.526 59.9553C133.568 59.7059 133.651 59.498 133.734 59.207Z" fill="#2B418C"/>
<path d="M95.6529 59.2928C95.7359 59.7085 95.6114 60.0826 95.5283 60.4983C95.2376 62.1611 94.9054 63.7824 94.5732 65.4452C94.4071 66.3043 94.2549 67.1496 94.1165 67.981C94.0888 68.0918 94.0611 68.2027 94.0334 68.3136C94.0057 68.4798 93.9088 68.563 93.7427 68.563C93.3275 68.563 92.9122 68.563 92.497 68.563C92.3032 68.563 92.1232 68.563 91.9571 68.563C91.8326 68.563 91.7495 68.4383 91.7495 68.3136C91.8049 68.0641 91.8464 67.8286 91.8741 67.6069C92.2063 65.8609 92.5385 64.1011 92.8707 62.3274C93.0368 61.3852 93.2167 60.4429 93.4105 59.5007C93.4105 59.376 93.4936 59.2512 93.6181 59.2097C93.8673 59.1681 95.3207 59.2097 95.6529 59.2928Z" fill="#2B418C"/>
<path d="M20.8193 62.8525C20.7363 63.3514 20.6117 63.9749 20.4871 64.5985C20.4456 64.8063 20.4041 65.0142 20.3625 65.222C19.9888 67.1758 18.9922 68.7139 17.6634 70.0858C17.4973 70.252 17.2897 70.4183 17.1236 70.5846C16.9575 70.7093 16.7914 70.7509 16.6668 70.6262C16.1685 70.2659 15.684 69.9056 15.2134 69.5453C15.1304 69.4622 15.1304 69.2959 15.2134 69.2128C15.6563 68.8525 16.0578 68.4645 16.4176 68.0488C17.4973 66.8433 18.0786 65.4299 18.3693 63.8086C18.4524 63.2544 18.5354 62.714 18.6185 62.1874C18.66 61.8133 18.7846 61.7301 19.1583 61.8548C19.6289 61.9934 20.0995 62.132 20.5702 62.2705C20.8193 62.3537 20.8608 62.4368 20.8193 62.8525Z" fill="#2B418C"/>
<path d="M30.2457 65.8167C29.9412 65.8167 29.6505 65.8167 29.3736 65.8167C29.2491 65.8167 29.166 65.7336 29.166 65.6088C29.166 65.498 29.1799 65.3733 29.2075 65.2347C29.5674 63.4333 29.9273 61.6042 30.2872 59.7474C30.3702 59.207 30.3702 59.207 30.9516 59.207C31.4222 59.207 31.8928 59.207 32.3635 59.207C32.5849 59.207 32.668 59.3317 32.6126 59.5811C32.4742 60.3017 32.3358 61.0361 32.1974 61.7844C32.0036 62.8098 31.7959 63.8352 31.5745 64.8606C31.5468 65.0546 31.5191 65.2347 31.4914 65.401C31.3669 65.8167 31.3669 65.8167 30.9516 65.8167C30.7301 65.8167 30.4948 65.8167 30.2457 65.8167Z" fill="#2B418C"/>
<path d="M121.4 61.1608C121.262 61.1608 121.123 61.1608 120.985 61.1608C120.404 61.1608 120.404 61.1193 120.487 60.5788C120.57 60.1216 120.57 59.6643 120.819 59.2902C121.193 59.1655 121.566 59.2486 121.94 59.207C122.106 59.207 122.258 59.207 122.397 59.207C122.729 59.2486 122.729 59.2486 122.687 59.6227C122.604 59.9969 122.563 60.371 122.48 60.7451C122.438 61.0361 122.314 61.1193 122.065 61.1608C121.954 61.1608 121.843 61.1608 121.732 61.1608H121.4Z" fill="#2B418C"/>
<path d="M123.85 61.1193C123.656 61.1193 123.476 61.1331 123.31 61.1608C122.854 61.1608 122.895 61.0361 122.937 60.7036C123.02 60.2878 123.103 59.9137 123.144 59.498C123.2 59.304 123.31 59.207 123.476 59.207C123.975 59.207 124.473 59.2209 124.971 59.2486C125.137 59.2486 125.22 59.3733 125.179 59.498C125.124 59.886 125.054 60.274 124.971 60.662C124.888 61.1193 124.847 61.1193 124.431 61.1608C124.238 61.1608 124.044 61.1608 123.85 61.1608V61.1193Z" fill="#2B418C"/>
<path d="M48.1448 59.207C48.2555 59.207 48.3524 59.207 48.4355 59.207C49.266 59.207 49.1414 59.3317 49.0168 59.9137C48.7261 61.3271 49.0583 61.1193 47.688 61.1608C47.4942 61.1608 47.2866 61.147 47.0651 61.1193C46.899 61.1193 46.816 61.0361 46.8575 60.8698C46.9406 60.371 47.0236 59.8721 47.1067 59.3733C47.1482 59.2486 47.2728 59.207 47.3558 59.207C47.6326 59.207 47.8956 59.207 48.1448 59.207Z" fill="#2B418C"/>
<path d="M52.132 71.4905H51.7582C51.1353 71.4905 51.1353 71.4489 51.2599 70.8253C51.3014 70.4928 51.3845 70.1602 51.4675 69.7861C51.5229 69.6198 51.6198 69.5505 51.7582 69.5782C52.2288 69.5782 52.7133 69.5782 53.2116 69.5782C53.3777 69.5782 53.4608 69.6614 53.4192 69.8276C53.3639 70.2988 53.2808 70.7699 53.1701 71.241C53.1701 71.4073 53.0455 71.4489 52.9209 71.4489C52.6441 71.4766 52.3811 71.4766 52.132 71.4489V71.4905Z" fill="#2B418C"/>
<path d="M5.41229 59.2454C5.68912 59.2454 5.95211 59.2454 6.20126 59.2454C6.32584 59.2454 6.40889 59.3701 6.40889 59.4948C6.32584 59.966 6.24279 60.4232 6.15974 60.8666C6.11822 61.0329 6.03517 61.1161 5.86907 61.1161C5.37076 61.1438 4.87246 61.1438 4.37415 61.1161C4.20805 61.1161 4.125 60.9913 4.125 60.8251C4.20805 60.3539 4.30495 59.8828 4.41568 59.4117C4.45721 59.287 4.54025 59.2454 4.66483 59.2454C4.91398 59.2177 5.16313 59.2177 5.41229 59.2454Z" fill="#2B418C"/>
<path d="M49.7634 71.4943C49.5143 71.4943 49.279 71.4804 49.0575 71.4527C48.8914 71.4527 48.7668 71.3696 48.8083 71.2033C48.8637 70.7599 48.9329 70.3164 49.016 69.873C49.0575 69.6652 49.1821 69.582 49.3897 69.582C49.8465 69.582 50.3448 69.582 50.8016 69.582C50.9677 69.582 51.0507 69.7068 51.0507 69.9146C50.9677 70.3303 50.8846 70.7599 50.8016 71.2033C50.8016 71.3696 50.7185 71.4943 50.5109 71.4527C50.2617 71.4527 50.0126 71.4527 49.7634 71.4527V71.4943Z" fill="#2B418C"/>
<path d="M20.0303 59.207C20.2794 59.2902 20.6116 59.1239 20.9023 59.3317C20.9438 59.6227 20.8192 59.9553 20.7777 60.2463C20.7777 60.371 20.7362 60.4541 20.7362 60.5788C20.6116 61.2024 20.6116 61.1608 20.0303 61.1608C19.6427 61.1608 19.2413 61.147 18.826 61.1193C18.6599 61.1193 18.6184 61.0361 18.6184 60.8698C18.7291 60.4264 18.826 59.983 18.9091 59.5396C18.9506 59.2902 19.0337 59.2486 19.2828 59.207C19.4904 59.207 19.7396 59.207 20.0303 59.207Z" fill="#2B418C"/>
<path d="M121.981 58.7549C121.981 58.2144 122.106 57.674 122.23 57.1336C122.23 57.0089 122.313 56.9258 122.438 56.9258C122.936 56.9258 123.448 56.9258 123.974 56.9258C124.141 56.9258 124.224 57.0505 124.224 57.2583C124.141 57.7018 124.057 58.1452 123.974 58.5886C123.933 58.7549 123.85 58.838 123.684 58.838C123.158 58.838 122.632 58.838 122.106 58.838C122.064 58.838 122.023 58.7964 121.981 58.7549Z" fill="#2B418C"/>
<path d="M103.335 59.207C103.529 59.207 103.709 59.207 103.875 59.207C104.29 59.2486 104.332 59.2486 104.249 59.7059C104.166 60.1216 104.083 60.5234 104 60.9114C104 61.0361 103.917 61.1193 103.792 61.1193C103.266 61.1193 102.74 61.1193 102.214 61.1193C102.089 61.1193 102.006 61.0361 102.048 60.9114C102.089 60.662 102.089 60.4541 102.172 60.2047C102.214 59.9137 102.214 59.5396 102.422 59.2486L103.335 59.207Z" fill="#2B418C"/>
<path d="M100.927 59.2486C101.176 59.2209 101.411 59.2209 101.633 59.2486C101.799 59.2486 101.882 59.3317 101.84 59.498C101.785 59.9692 101.716 60.4403 101.633 60.9114C101.591 61.0361 101.508 61.1193 101.383 61.1193C100.857 61.1193 100.331 61.1193 99.8055 61.1193C99.7225 61.1193 99.6394 61.0361 99.6394 60.953C99.6394 60.8976 99.6394 60.8421 99.6394 60.7867C99.6948 60.3987 99.7501 60.0246 99.8055 59.6643C99.8886 59.3317 100.013 59.2486 100.304 59.207C100.525 59.207 100.733 59.207 100.927 59.207V59.2486Z" fill="#2B418C"/>
<path d="M45.4041 61.1109C45.1273 61.1109 44.8504 61.1109 44.5736 61.1109C44.4906 61.1109 44.4075 61.0278 44.449 60.9446C44.5321 60.4181 44.629 59.8915 44.7397 59.3649C44.7397 59.2818 44.8228 59.2402 44.9058 59.2402C45.4318 59.2402 45.9716 59.2402 46.5253 59.2402C46.6083 59.2402 46.6914 59.3234 46.6914 59.4481C46.6083 59.9192 46.5253 60.3904 46.4422 60.8615C46.4007 61.0278 46.3177 61.1525 46.11 61.1525C45.8886 61.1248 45.6533 61.1248 45.4041 61.1525V61.1109Z" fill="#2B418C"/>
<path d="M31.2842 58.496C31.0627 58.496 30.8551 58.496 30.6613 58.496C30.5367 58.496 30.3706 58.5375 30.3291 58.3713C30.2876 58.1634 30.4121 57.914 30.5782 57.8724C30.6613 57.8447 30.7305 57.8447 30.7859 57.8724C31.035 57.914 31.1181 57.7061 31.1596 57.4983C31.2011 57.3735 31.2011 57.2904 31.2426 57.1657C31.2842 56.8331 31.4087 56.75 31.7409 56.75C31.9901 56.75 32.2393 56.75 32.4884 56.75C32.696 56.75 32.8206 56.8747 32.8206 56.9994C32.8206 57.1657 32.696 57.3736 32.5299 57.4151C32.4469 57.4151 32.3223 57.4151 32.2393 57.4151C32.1562 57.4567 32.1147 57.4567 32.0732 57.4983C32.0316 57.5398 32.0316 57.623 31.9901 57.7061C31.9901 57.7893 32.0732 57.8308 32.1147 57.8308C32.1977 57.8308 32.2808 57.8308 32.3638 57.8308C32.613 57.8724 32.696 58.0803 32.5715 58.2881C32.4469 58.4128 32.3638 58.496 32.1977 58.496C31.8932 58.496 31.5887 58.496 31.2842 58.496Z" fill="#2B418C"/>
</g>
<g clip-path="url(#clip2_979_1190)">
<path d="M6.85277 80.0605L7.11463 79.7211L7.50743 79.2362C7.65291 79.3655 7.87113 79.5433 8.16209 79.7695L8.55489 80.0605C8.64217 79.9958 8.81675 79.7695 9.07861 79.3817L9.47141 78.8483L8.99133 78.4604C8.67127 78.2018 8.45305 77.9917 8.33667 77.8301L8.03116 78.1695C7.88568 78.3634 7.75475 78.5574 7.63836 78.7513C7.60927 78.719 7.55107 78.6705 7.46378 78.6059C7.40559 78.5412 7.36194 78.4766 7.33285 78.4119C7.21646 78.3473 7.10009 78.2665 6.9837 78.1695C6.80912 78.0079 6.69274 77.8947 6.63455 77.8301L6.19811 78.3634C5.93624 78.719 5.77621 78.9776 5.71802 79.1392C5.8344 79.2685 6.06717 79.4625 6.41633 79.7211L6.85277 80.0605Z" fill="#2E3180"/>
<path d="M13.7933 87.3906L13.5314 87.73C13.3859 87.924 13.255 88.1179 13.1386 88.3119C13.0804 88.2796 13.0222 88.2311 12.964 88.1664C12.9058 88.1018 12.8622 88.0533 12.8331 88.0209C12.7167 87.924 12.6003 87.827 12.4839 87.73C12.2803 87.5684 12.1639 87.4553 12.1348 87.3906L11.6547 87.924C11.4219 88.2796 11.2765 88.5381 11.2183 88.6998C11.3346 88.8291 11.5674 89.023 11.9166 89.2816L12.353 89.621L12.6149 89.2816L13.0077 88.7967C13.1241 88.926 13.3423 89.1038 13.6623 89.3301L14.0551 89.621C14.1133 89.5564 14.2879 89.3301 14.5789 88.9422L14.9717 88.4089L14.4916 88.0694C14.1715 87.7785 13.9387 87.5522 13.7933 87.3906Z" fill="#2E3180"/>
<path fill-rule="evenodd" clip-rule="evenodd" d="M31.1628 84.0199V84.5047L30.9883 85.523L30.8573 86.2503C30.741 86.6058 30.5664 86.7675 30.3336 86.7351H22.7832C22.3176 86.7675 22.0267 86.4442 21.9103 85.7654C21.7357 86.3149 21.5466 86.6382 21.3429 86.7351L18.8116 86.7836C18.1714 86.719 17.895 85.8947 17.9823 84.3108L17.7641 84.6987C17.5895 84.9896 17.4004 85.3775 17.1967 85.8624C16.9931 86.3472 16.7603 86.622 16.4984 86.6866C16.2656 86.719 16.0765 86.7351 15.931 86.7351H15.1455C14.5926 86.7675 14.2144 86.7675 14.0107 86.7351C13.807 86.7351 13.6179 86.6705 13.4433 86.5412C13.2688 86.4442 13.1087 86.2018 12.9632 85.8139L12.5268 86.7351H10.9556C10.6356 86.7351 10.3155 86.622 9.99545 86.3957C9.6172 86.1371 9.35533 85.4422 9.20985 84.3108C9.03528 84.8927 8.87525 85.3129 8.72977 85.5715C8.43881 85.8624 7.92963 85.927 7.20223 85.7654C6.41663 85.6361 6.03838 85.4422 6.06748 85.1836C6.21296 84.4078 6.34389 83.8744 6.46027 83.5835C6.57666 83.2926 6.79488 83.0502 7.11493 82.8562L8.81706 81.5471L8.72977 80.8683L9.42807 79.4622C9.66084 80.2703 9.82087 81.1269 9.90816 82.0319C10.0245 82.937 10.1264 83.5027 10.2137 83.729C10.3301 83.9552 10.461 84.0684 10.6065 84.0684C10.781 84.1007 11.0865 84.1169 11.523 84.1169H12.8323C12.8614 83.7613 12.8905 83.3572 12.9196 82.9047C13.5888 81.935 13.9525 81.5148 14.0107 81.6441C14.0398 81.8057 14.0398 82.0804 14.0107 82.4683C13.9816 82.8239 13.938 83.131 13.8798 83.3896C13.8507 83.6482 13.8507 83.8259 13.8798 83.9229C13.938 83.9875 14.0107 84.0361 14.098 84.0684C14.1562 84.1007 14.2726 84.1169 14.4471 84.1169H16.5421C17.0658 83.9876 17.444 83.7451 17.6768 83.3896C17.2695 83.1633 16.8621 83.0501 16.4548 83.0501C16.0474 83.0501 15.771 83.0986 15.6255 83.1956C15.4801 83.3249 15.3928 83.3411 15.3637 83.2441C15.3346 83.1148 15.3637 82.8239 15.451 82.3714C15.5382 81.8865 15.6837 81.4986 15.8874 81.2077C16.062 80.9491 16.3093 80.8198 16.6294 80.8198C16.9494 80.7875 17.2549 80.8844 17.5459 81.1107C17.8368 81.3046 18.2442 81.4986 18.7679 81.6925C19.2916 81.8865 19.8736 81.935 20.5137 81.838C20.4846 82.0966 20.3246 82.6623 20.0336 83.535C19.7426 83.535 19.4808 83.5512 19.248 83.5835C19.0152 83.6158 18.7825 83.6967 18.5497 83.826C18.4915 84.0522 18.8261 84.1492 19.5535 84.1169H21.2993C21.6775 84.1169 21.8812 84.0522 21.9103 83.9229C21.9394 83.7613 21.9685 83.4542 21.9976 83.0017L22.7395 81.9834C22.7686 82.4037 22.7686 82.7592 22.7395 83.0501C22.6813 83.3411 22.6668 83.5835 22.6959 83.7774C22.725 84.0037 22.8559 84.1169 23.0887 84.1169C23.7288 83.535 24.238 83.0825 24.6162 82.7592C24.9945 82.4683 25.4018 82.1612 25.8383 81.838C26.2747 81.5147 26.6675 81.3693 27.0167 81.4016C27.3949 81.4016 27.715 81.6279 27.9768 82.0804C28.2387 82.5653 28.3696 82.9047 28.3696 83.1471C28.3405 83.3734 28.2532 83.6966 28.1078 84.1169H28.4569H30.2463L29.8972 81.5471C29.8972 81.3208 29.8681 81.0945 29.8099 80.8683C29.7226 80.739 29.6644 80.642 29.6353 80.5773C29.5771 80.5127 29.5335 80.4319 29.5044 80.3349C29.4462 80.2379 29.4171 80.1248 29.4171 79.9955C29.4462 79.8662 29.548 79.5753 29.7226 79.1228L30.159 78.25C30.2172 78.25 30.2463 78.2985 30.2463 78.3955C30.2463 78.5248 30.2754 78.6702 30.3336 78.8318C30.3918 78.9934 30.45 79.1066 30.5082 79.1712C30.5664 79.2359 30.6246 79.3167 30.6828 79.4137C30.7409 79.4783 31.0465 79.7369 31.5993 80.1895L30.9883 81.6925L31.0756 82.8562L31.1628 83.632V84.0199ZM9.07892 83.3411L8.90434 82.3229C8.67158 82.7754 8.22058 83.1633 7.55137 83.4865C7.92962 83.5835 8.27878 83.6158 8.59884 83.5835C8.8898 83.5512 9.04982 83.4704 9.07892 83.3411ZM26.973 84.1169C26.8857 83.9229 26.7984 83.7613 26.7111 83.632C26.653 83.5027 26.522 83.3734 26.3183 83.2441C26.1147 83.1148 25.8092 83.131 25.4018 83.2926C24.9945 83.4542 24.5289 83.729 24.0052 84.1169H26.973Z" fill="#2E3180"/>
<path d="M33.3037 85.7654C33.391 85.5391 33.4637 85.2159 33.5219 84.7957C33.551 84.5048 33.5656 84.133 33.5656 83.6805L33.5219 83.2441L33.4783 82.6623L33.4346 81.6441L33.391 81.3531L33.2164 79.4622L33.0418 78.25L32.9109 78.4439L32.8236 78.7349C32.7072 78.9288 32.6199 79.1227 32.5617 79.3167L32.3872 79.8015C32.2417 80.2218 32.1689 80.4965 32.1689 80.6258L32.78 86.7836C32.8963 86.622 32.9982 86.4604 33.0855 86.2988C33.1437 86.1695 33.2164 85.9917 33.3037 85.7654Z" fill="#2E3180"/>
<path fill-rule="evenodd" clip-rule="evenodd" d="M37.3183 84.278C37.3474 84.6336 37.3474 84.9891 37.3183 85.3447C37.2892 85.5386 37.2601 85.7164 37.231 85.8781C37.231 86.072 37.2019 86.2821 37.1437 86.5084C37.0273 87.1549 36.8673 87.7044 36.6636 88.1569C36.4017 88.7064 36.0671 89.0458 35.6598 89.1751C35.6307 89.2075 35.5725 89.2236 35.4852 89.2236C35.1361 89.2236 34.6851 89.1751 34.1322 89.0782C33.5503 88.9489 33.1575 88.7872 32.9539 88.5933C32.9539 88.561 32.9684 88.5448 32.9975 88.5448L33.0411 88.4963C33.303 88.4963 33.5503 88.4802 33.7831 88.4478C34.0741 88.3509 34.3505 88.2539 34.6123 88.1569C35.0779 87.8983 35.5289 87.4943 35.9653 86.9448C36.489 86.266 36.7363 85.6679 36.7072 85.1508L36.6636 85.2962L36.5763 85.4902C36.5181 85.7164 36.4454 85.8781 36.3581 85.975C36.2417 86.1043 36.0671 86.1851 35.8344 86.2175H35.7471H35.7034C35.4998 86.2175 35.3106 86.1851 35.1361 86.1205C34.9906 86.0235 34.8742 85.878 34.7869 85.6841C34.6996 85.5225 34.656 85.2639 34.656 84.9083C34.6269 84.5528 34.656 84.1972 34.7433 83.8416C34.8015 83.4537 34.976 82.9365 35.267 82.29C35.4707 81.9991 35.6452 81.7567 35.7907 81.5627C35.9362 81.4334 36.0526 81.3526 36.1399 81.3203C36.2272 81.3203 36.2999 81.3526 36.3581 81.4173C36.4454 81.4496 36.5181 81.5143 36.5763 81.6112C36.7509 81.8375 36.9255 82.1769 37.1 82.6295C37.1291 82.7264 37.1582 82.8234 37.1873 82.9204C37.1873 83.0173 37.2019 83.1628 37.231 83.3568C37.2892 83.6153 37.3183 83.9224 37.3183 84.278ZM36.3581 83.9386C36.329 83.777 36.2563 83.6315 36.1399 83.5022C36.0235 83.3729 35.9071 83.3083 35.7907 83.3083C35.6743 83.3083 35.558 83.3891 35.4416 83.5507C35.3543 83.68 35.3106 83.8093 35.3106 83.9386C35.3979 84.0679 35.5143 84.1487 35.6598 84.181C35.8053 84.2134 35.9217 84.2134 36.0089 84.181C36.1253 84.1487 36.2417 84.0679 36.3581 83.9386Z" fill="#2E3180"/>
<path d="M41.5959 80.0605L41.8577 79.7211L42.2069 79.2362C42.3524 79.3655 42.5851 79.5433 42.9052 79.7695L43.298 80.0605C43.3562 79.9958 43.5162 79.7695 43.7781 79.3817L44.2145 78.8483L43.7344 78.4604C43.4144 78.2018 43.1816 77.9917 43.0361 77.8301L42.7743 78.1695C42.6288 78.3634 42.4833 78.5574 42.3378 78.7513C42.3087 78.719 42.2651 78.6705 42.2069 78.6059C42.1487 78.5412 42.0905 78.4766 42.0323 78.4119C41.945 78.3473 41.8432 78.2665 41.7268 78.1695C41.5231 78.0079 41.3922 77.8947 41.334 77.8301L40.8976 78.3634C40.6648 78.719 40.5048 78.9776 40.4175 79.1392C40.563 79.2685 40.7957 79.4625 41.1158 79.7211L41.5959 80.0605Z" fill="#2E3180"/>
<path d="M48.5356 87.3906L48.2738 87.73C48.1283 87.924 47.9828 88.1179 47.8373 88.3119C47.8082 88.2796 47.7646 88.2311 47.7064 88.1664C47.6482 88.1018 47.59 88.0533 47.5318 88.0209C47.4154 87.924 47.3136 87.827 47.2263 87.73C47.0226 87.5684 46.8917 87.4553 46.8335 87.3906L46.3971 87.924C46.1643 88.2796 46.0043 88.5381 45.917 88.6998C46.0625 88.8291 46.2952 89.023 46.6153 89.2816L47.0954 89.621L47.3572 89.2816L47.7064 88.7967C47.8519 88.926 48.0846 89.1038 48.4047 89.3301L48.7975 89.621C48.8557 89.5564 49.0157 89.3301 49.2776 88.9422L49.6704 88.4089L49.2339 88.0694C48.8848 87.7785 48.652 87.5522 48.5356 87.3906Z" fill="#2E3180"/>
<path d="M50.8056 81.2432H51.3293L50.9802 81.6796C50.8929 81.8089 50.8347 81.9544 50.8056 82.116C51.0675 81.8251 51.3002 81.5826 51.5039 81.3887C51.5912 81.324 51.6494 81.2917 51.6785 81.2917C51.7367 81.2594 51.7949 81.227 51.8531 81.1947C51.9694 81.1301 52.1004 81.0816 52.2459 81.0493L52.3331 81.0008C52.3622 80.9038 52.3913 80.823 52.4204 80.7583C52.4495 80.6937 52.4641 80.6452 52.4641 80.6129C52.4641 80.5806 52.4641 80.5644 52.4641 80.5644H52.4204H52.3768L51.6785 80.6614C51.2711 80.6937 50.9656 80.6129 50.762 80.4189C50.8201 80.322 50.8783 80.2412 50.9365 80.1765C51.2275 79.9502 51.4748 79.9664 51.6785 80.225C51.7949 80.0634 51.8531 79.8856 51.8531 79.6917C51.824 79.5947 51.7803 79.53 51.7221 79.4977C51.6639 79.4654 51.6057 79.4492 51.5475 79.4492C51.4894 79.4492 51.4457 79.4492 51.4166 79.4492C51.242 79.4815 51.0966 79.5624 50.9802 79.6917C50.8638 79.7886 50.762 79.9341 50.6747 80.128C50.5874 80.322 50.5292 80.4836 50.5001 80.6129C50.471 80.7745 50.471 80.92 50.5001 81.0493C50.5583 81.1786 50.6601 81.2432 50.8056 81.2432Z" fill="#2E3180"/>
<path d="M55.737 87.3906L55.4315 87.73C55.2861 87.924 55.1551 88.1179 55.0388 88.3119C55.0097 88.2796 54.966 88.2311 54.9078 88.1664C54.8496 88.1018 54.7914 88.0533 54.7332 88.0209C54.6169 87.924 54.5005 87.827 54.3841 87.73C54.2095 87.5684 54.0931 87.4553 54.0349 87.3906L53.5985 87.924C53.3366 88.2796 53.1766 88.5381 53.1184 88.6998C53.2348 88.8291 53.4676 89.023 53.8167 89.2816L54.2968 89.621L54.515 89.2816L54.9078 88.7967C55.0533 88.926 55.2715 89.1038 55.5625 89.3301L55.9553 89.621C56.0426 89.5564 56.2171 89.3301 56.479 88.9422L56.8718 88.4089L56.3917 88.0694C56.0717 87.7785 55.8534 87.5522 55.737 87.3906Z" fill="#2E3180"/>
<path d="M58.1818 87.3906L57.2217 88.6513C57.5417 89.1038 57.92 89.4271 58.3564 89.621L59.3166 88.4573C58.822 88.1341 58.4437 87.7785 58.1818 87.3906Z" fill="#2E3180"/>
<path fill-rule="evenodd" clip-rule="evenodd" d="M62.6321 84.0199V84.5047L62.4575 85.523L62.2829 86.2503C62.1956 86.6058 62.0356 86.7675 61.8028 86.7351H60.5372C59.9843 86.7675 59.6061 86.7675 59.4024 86.7351C59.1987 86.7351 59.0096 86.6705 58.835 86.5412C58.6605 86.4442 58.515 86.2018 58.3986 85.8139L57.9185 86.7351H57.0456C56.4928 86.7675 56.1146 86.7675 55.9109 86.7351C55.7072 86.7351 55.5181 86.6705 55.3435 86.5412C55.198 86.4442 55.0525 86.2018 54.9071 85.8139L54.427 86.7351H53.3795C52.8267 86.7675 52.4484 86.7675 52.2448 86.7351C52.0411 86.7351 51.852 86.6705 51.6774 86.5412C51.5028 86.4442 51.3428 86.2018 51.1973 85.8139L50.7609 86.7351H49.8444C49.2915 86.7675 48.9278 86.7675 48.7532 86.7351C48.5496 86.7351 48.3604 86.6705 48.1859 86.5412C48.0113 86.4442 47.8513 86.2018 47.7058 85.8139L47.2693 86.7351H45.6545C45.3345 86.7351 45.029 86.622 44.738 86.3957C44.3306 86.1371 44.0688 85.4422 43.9524 84.3108C43.7778 84.8927 43.6178 85.3129 43.4723 85.5715C43.1813 85.8624 42.6722 85.927 41.9448 85.7654C41.1301 85.6361 40.7518 85.4422 40.81 85.1836C40.9555 84.4078 41.0864 83.8744 41.2028 83.5835C41.2901 83.2926 41.5083 83.0502 41.8575 82.8562L43.5596 81.5471L43.4287 80.8683L44.1706 79.4622C44.3743 80.2703 44.5343 81.1269 44.6507 82.0319C44.738 82.937 44.8398 83.5027 44.9562 83.729C45.0435 83.9552 45.1744 84.0684 45.349 84.0684C45.5236 84.1007 45.8291 84.1169 46.2655 84.1169H47.5749C47.5749 83.7613 47.604 83.3572 47.6621 82.9047C48.3023 81.935 48.6514 81.5148 48.7096 81.6441C48.7678 81.8057 48.7823 82.0804 48.7532 82.4683C48.7242 82.8239 48.6805 83.131 48.6223 83.3896C48.5932 83.6482 48.5932 83.8259 48.6223 83.9229C48.6514 83.9875 48.7096 84.0361 48.7969 84.0684C48.8842 84.1007 49.0006 84.1169 49.146 84.1169H51.0664C51.0955 83.7613 51.1391 83.3572 51.1973 82.9047C51.8374 81.935 52.1866 81.5148 52.2448 81.6441C52.2739 81.8057 52.2739 82.0804 52.2448 82.4683C52.2157 82.8239 52.1866 83.131 52.1575 83.3896C52.0993 83.6482 52.0847 83.8259 52.1138 83.9229C52.172 83.9875 52.2448 84.0361 52.3321 84.0684C52.3903 84.1007 52.5066 84.1169 52.6812 84.1169H54.7761C54.7761 83.7613 54.8052 83.3572 54.8634 82.9047C55.5035 81.935 55.8527 81.5148 55.9109 81.6441C55.94 81.8057 55.9545 82.0804 55.9545 82.4683C55.8963 82.8239 55.8527 83.131 55.8236 83.3896C55.7654 83.6482 55.7654 83.8259 55.8236 83.9229C55.8527 83.9875 55.9109 84.0361 55.9982 84.0684C56.0855 84.1007 56.2018 84.1169 56.3473 84.1169H58.224C58.2531 83.7613 58.2968 83.3572 58.3549 82.9047C58.9951 81.935 59.3442 81.5148 59.4024 81.6441C59.4606 81.8057 59.4751 82.0804 59.446 82.4683C59.417 82.8239 59.3733 83.131 59.3151 83.3896C59.2569 83.6482 59.2569 83.8259 59.3151 83.9229C59.3442 83.9875 59.4024 84.0361 59.4897 84.0684C59.5479 84.1007 59.6643 84.1169 59.8389 84.1169H59.9261H61.7155L61.3664 81.5471C61.3664 81.3208 61.3373 81.0945 61.2791 80.8683C61.1918 80.739 61.1191 80.642 61.0609 80.5773C61.0318 80.5127 60.9882 80.4319 60.93 80.3349C60.9009 80.2379 60.8863 80.1248 60.8863 79.9955C60.8863 79.8662 60.9881 79.5753 61.1918 79.1228L61.6283 78.25C61.6864 78.25 61.7155 78.2985 61.7155 78.3955C61.7155 78.5248 61.7447 78.6702 61.8028 78.8318C61.861 78.9934 61.9192 79.1066 61.9774 79.1712C62.0356 79.2359 62.0938 79.3167 62.152 79.4137C62.2102 79.4783 62.5157 79.7369 63.0685 80.1895L62.4575 81.6925L62.5011 82.8562L62.5884 83.632L62.6321 84.0199ZM43.8215 83.3411L43.6469 82.3228C43.4141 82.7754 42.9631 83.1633 42.2939 83.4865C42.7013 83.5835 43.0504 83.6158 43.3414 83.5835C43.6614 83.5512 43.8215 83.4704 43.8215 83.3411Z" fill="#2E3180"/>
<path d="M64.9899 83.2441L64.9463 82.6623L64.9026 81.6441L64.859 81.3531L64.6844 79.4622L64.5098 78.25L64.3789 78.4439L64.248 78.7349C64.1607 78.9288 64.0879 79.1227 64.0298 79.3167L63.8552 79.8015C63.7097 80.2218 63.637 80.4965 63.637 80.6258L64.248 86.7836C64.3644 86.622 64.4517 86.4604 64.5098 86.2988C64.5971 86.1695 64.6844 85.9917 64.7717 85.7654C64.859 85.5391 64.9317 85.2159 64.9899 84.7957C65.019 84.5048 65.0336 84.133 65.0336 83.6805L64.9899 83.2441Z" fill="#2E3180"/>
<path d="M73.2831 86.6866C73.3704 85.8785 73.414 85.4098 73.414 85.2805L73.1522 81.741L73.8068 80.2379C73.254 79.8177 72.9339 79.543 72.8467 79.4137C72.7303 79.3167 72.6139 79.1874 72.4975 79.0258C72.352 78.8642 72.2793 78.6056 72.2793 78.25C72.2211 78.2823 72.1338 78.4601 72.0174 78.7833C71.901 79.0743 71.8137 79.3328 71.7556 79.5591C71.6683 79.7531 71.6246 79.9147 71.6246 80.044C71.5955 80.1733 71.6101 80.2864 71.6683 80.3834C71.7265 80.4804 71.7992 80.5612 71.8865 80.6258C71.9738 80.7228 72.032 80.9491 72.0611 81.3046L72.5411 85.8624C72.5411 86.0886 72.3084 86.2988 71.8428 86.4927C71.3482 86.6867 70.8972 86.7836 70.4899 86.7836C70.228 86.7836 69.9371 86.7351 69.617 86.6382C69.326 86.5412 69.1515 86.2826 69.0933 85.8624C69.0351 85.4745 69.0933 84.9735 69.2678 84.3593C69.4424 83.7451 69.4715 83.4542 69.3551 83.4865C69.2096 83.6805 69.0351 84.0361 68.8314 84.5532C68.5986 85.0704 68.4677 85.5553 68.4386 86.0078C68.3804 86.4604 68.3513 86.8321 68.3513 87.123C68.3513 87.7695 68.5259 88.2867 68.875 88.6746C69.0496 88.8685 69.2533 88.9978 69.4861 89.0625C69.7188 89.1595 70.0098 89.2079 70.3589 89.2079C70.8536 89.2079 71.29 89.1271 71.6683 88.9655C72.0465 88.7716 72.3084 88.5938 72.4539 88.4322C72.6284 88.2705 72.7885 88.1089 72.934 87.9473C72.963 87.8827 72.9921 87.8341 73.0212 87.8018C73.0503 87.7695 73.0794 87.721 73.1085 87.6564C73.1376 87.5594 73.1958 87.2362 73.2831 86.6866Z" fill="#2E3180"/>
<path fill-rule="evenodd" clip-rule="evenodd" d="M89.4326 83.988V84.4728L89.2581 85.4911L89.0835 86.2183C88.9962 86.5739 88.8362 86.7355 88.6034 86.7032H87.7742L85.2428 86.7517C84.5736 86.687 84.2972 85.8628 84.4136 84.2789L84.1517 84.6668C84.0062 84.9577 83.8316 85.3456 83.628 85.8304C83.4243 86.3476 83.1915 86.6224 82.9297 86.6547C82.6678 86.687 82.4641 86.7032 82.3186 86.7032H80.4856C79.8164 86.7032 79.4381 86.186 79.3508 85.1516L78.7835 86.7032H77.0814C76.9941 87.1234 76.9068 87.4628 76.8195 87.7214C76.7322 88.0123 76.6158 88.2709 76.4703 88.4972C76.4412 88.5618 76.3976 88.6265 76.3394 88.6911C76.2812 88.7558 76.2085 88.8366 76.1212 88.9336C75.9757 89.0952 75.8593 89.176 75.772 89.176H75.5102C75.161 89.176 74.7391 89.1114 74.2445 88.9821C73.7789 88.8528 73.4152 88.6588 73.1534 88.4002C73.0661 88.3356 73.037 88.3033 73.0661 88.3033C73.0952 88.3033 73.1243 88.3033 73.1534 88.3033L73.4152 88.3517C73.5898 88.3841 73.808 88.3841 74.0699 88.3517C74.3027 88.3194 74.5645 88.2225 74.8555 88.0608C75.1756 87.8992 75.452 87.7053 75.6847 87.479C75.9175 87.2527 76.1357 86.9295 76.3394 86.5093L76.1648 86.5577L75.903 86.6547C75.5247 86.6547 75.2483 86.5739 75.0737 86.4123C74.8991 86.2507 74.7827 86.0567 74.7246 85.8304L74.6809 85.6365L74.6373 85.3456C74.6664 84.99 74.7246 84.6183 74.8119 84.2304C74.8409 83.9718 74.9137 83.697 75.0301 83.4061C75.1174 83.1152 75.2192 82.7919 75.3356 82.4364C75.452 82.2101 75.5683 82.0162 75.6847 81.8546C75.8593 81.6606 76.0484 81.5636 76.2521 81.5636C76.3976 81.5636 76.5285 81.6444 76.6449 81.8061C76.674 81.8707 76.7613 82.0647 76.9068 82.3879C76.9941 82.5818 77.0813 82.8889 77.1686 83.3092C77.2268 83.5354 77.2705 83.697 77.2996 83.794C77.3287 83.891 77.3432 83.988 77.3432 84.0849H79.089C79.0599 83.2122 79.0308 82.6465 79.0017 82.3879C78.958 82.1455 78.9144 81.2727 78.8707 79.7696L79.7436 78.1211C79.9764 81.3859 80.0928 83.1475 80.0928 83.4061C80.0928 83.6324 80.1364 83.8102 80.2237 83.9395C80.311 84.0364 80.5729 84.0849 81.0093 84.0849H82.9297C83.4825 83.9556 83.8753 83.7132 84.108 83.3576C83.6716 83.1314 83.2497 83.0182 82.8424 83.0182C82.435 83.0182 82.1586 83.0667 82.0131 83.1637C81.8676 83.293 81.7804 83.3092 81.7513 83.2122C81.7513 83.0829 81.7804 82.7758 81.8386 82.2909C81.9258 81.8384 82.0713 81.4667 82.275 81.1757C82.4787 80.9171 82.7405 80.7879 83.0606 80.7879C83.3515 80.7555 83.6425 80.8525 83.9335 81.0788C84.2535 81.2727 84.6609 81.4667 85.1555 81.6606C85.6792 81.8546 86.2757 81.903 86.9449 81.8061C86.8867 82.0647 86.7121 82.6303 86.4212 83.5031C86.1302 83.5031 85.8684 83.5193 85.6356 83.5516C85.4028 83.5839 85.1701 83.6647 84.9373 83.794C84.9082 84.0203 85.2573 84.1173 85.9847 84.0849H87.7742H86.7267H88.4725L88.167 81.5152C88.167 81.2889 88.1379 81.0626 88.0797 80.8363C87.9633 80.707 87.8905 80.6101 87.8614 80.5454C87.8323 80.4808 87.7887 80.4 87.7305 80.303C87.7014 80.206 87.6869 80.0929 87.6869 79.9636C87.6869 79.8343 87.7887 79.5434 87.9924 79.0908L88.4288 78.2181C88.4579 78.2181 88.487 78.2666 88.5161 78.3635C88.5161 78.4928 88.5452 78.6383 88.6034 78.7999C88.6616 78.9615 88.7052 79.0747 88.7343 79.1393C88.7925 79.2039 88.8653 79.2848 88.9525 79.3817C89.0107 79.4464 89.3017 79.705 89.8254 80.1575L89.2581 81.6606L89.3017 82.8243L89.389 83.6001L89.4326 83.988ZM76.514 84.0849C76.4267 83.794 76.3249 83.5839 76.2085 83.4546C76.1212 83.3253 76.0339 83.2607 75.9466 83.2607C75.8884 83.2283 75.8157 83.2607 75.7284 83.3576C75.6702 83.4223 75.612 83.5192 75.5538 83.6485C75.5829 83.9071 75.903 84.0526 76.514 84.0849Z" fill="#2E3180"/>
<path d="M91.7466 85.7654C91.8338 85.5391 91.9066 85.2159 91.9648 84.7957C91.9939 84.5048 92.0084 84.133 92.0084 83.6805L91.9648 83.2441L91.9211 82.6623L91.8775 81.6441L91.8338 81.3531L91.6593 79.4622L91.4847 78.25L91.3538 78.4439L91.2665 78.7349C91.1501 78.9288 91.0628 79.1227 91.0046 79.3167L90.83 79.8015C90.6846 80.2218 90.6118 80.4965 90.6118 80.6258L91.2228 86.7836C91.3392 86.622 91.4265 86.4604 91.4847 86.2988C91.572 86.1695 91.6593 85.9917 91.7466 85.7654Z" fill="#2E3180"/>
<path fill-rule="evenodd" clip-rule="evenodd" d="M95.7619 84.278C95.7619 84.6336 95.7473 84.9891 95.7182 85.3447C95.7182 85.5386 95.7037 85.7164 95.6746 85.8781C95.6455 86.072 95.6164 86.2821 95.5873 86.5084C95.4709 87.1549 95.3109 87.7044 95.1072 88.1569C94.8162 88.7064 94.4816 89.0458 94.1034 89.1751C94.0452 89.2075 93.9725 89.2236 93.8852 89.2236C93.5651 89.2236 93.1287 89.1751 92.5759 89.0782C91.9939 88.9489 91.6011 88.7872 91.3975 88.5933C91.3975 88.561 91.3975 88.5448 91.3975 88.5448L91.4848 88.4963C91.7466 88.4963 91.9939 88.4802 92.2267 88.4478C92.5177 88.3509 92.7941 88.2539 93.0559 88.1569C93.5215 87.8983 93.9725 87.4943 94.4089 86.9448C94.9326 86.266 95.18 85.6679 95.1509 85.1508L95.1072 85.2962L95.0199 85.4902C94.9617 85.7164 94.889 85.8781 94.8017 85.975C94.6853 86.1043 94.5107 86.1851 94.278 86.2175H94.1907H94.1034C93.9288 86.2175 93.7542 86.1851 93.5797 86.1205C93.4342 86.0235 93.3178 85.878 93.2305 85.6841C93.1432 85.5225 93.0996 85.2639 93.0996 84.9083C93.0705 84.5528 93.0996 84.1972 93.1869 83.8416C93.2451 83.4537 93.4196 82.9365 93.7106 82.29C93.9143 81.9991 94.0888 81.7567 94.2343 81.5627C94.3798 81.4334 94.4962 81.3526 94.5835 81.3203C94.6708 81.3203 94.7435 81.3526 94.8017 81.4173C94.889 81.4496 94.9617 81.5143 95.0199 81.6112C95.1945 81.8375 95.3691 82.1769 95.5437 82.6295C95.5727 82.7264 95.5873 82.8234 95.5873 82.9204C95.6164 83.0173 95.6455 83.1628 95.6746 83.3568C95.7328 83.6153 95.7619 83.9224 95.7619 84.278ZM94.8017 83.9386C94.7726 83.777 94.6999 83.6315 94.5835 83.5022C94.4671 83.3729 94.3507 83.3083 94.2343 83.3083C94.1179 83.3083 94.0016 83.3891 93.8852 83.5507C93.7979 83.68 93.7397 83.8093 93.7106 83.9386C93.827 84.0679 93.9579 84.1487 94.1034 84.181C94.2489 84.2134 94.3653 84.2134 94.4525 84.181C94.5689 84.1487 94.6853 84.0679 94.8017 83.9386Z" fill="#2E3180"/>
<path d="M105.582 87.4275L105.276 87.7669C105.131 87.9608 105 88.1548 104.884 88.3487L104.491 88.0578C104.171 87.7992 103.967 87.5891 103.88 87.4275L103.443 88.0093C103.211 88.3002 103.051 88.5265 102.963 88.6881C102.818 88.6881 102.643 88.6881 102.44 88.6881C102.09 88.6881 101.625 88.5912 101.043 88.3972C100.432 88.171 100.097 87.6214 100.039 86.7487C100.126 86.2961 100.286 85.8436 100.519 85.3911C100.752 84.9385 100.985 84.6476 101.218 84.5183C101.392 85.3911 101.61 85.9567 101.872 86.2153C102.105 86.5386 102.44 86.7002 102.876 86.7002H103.356H105.975C106.237 86.7002 106.397 86.6194 106.455 86.4578C106.513 86.2638 106.6 85.8113 106.717 85.1001C106.833 84.389 106.891 83.9041 106.891 83.6455C106.891 83.3869 106.862 83.096 106.804 82.7728C106.775 82.4495 106.688 82.1425 106.542 81.8515C106.426 81.5283 106.237 81.1565 105.975 80.7363L105.189 82.3364C105.538 82.9182 105.771 83.5001 105.887 84.0819H104.054H103.487C103.283 84.0819 103.08 84.0496 102.876 83.9849C102.643 83.9203 102.498 83.791 102.44 83.597L102.789 82.5788C102.905 81.997 102.774 81.5768 102.396 81.3182C102.105 81.0273 101.756 80.8818 101.348 80.8818C100.941 80.8495 100.446 81.0273 99.8646 81.4152C99.69 81.9647 99.5445 82.6112 99.4281 83.3546C100.039 83.1283 100.476 83.2415 100.737 83.694C99.8064 84.987 99.2681 86.1507 99.1226 87.1851C99.0062 88.5427 99.3408 89.4639 100.126 89.9488C100.476 90.2074 100.999 90.3205 101.698 90.2882C102.28 90.2235 102.832 89.8357 103.356 89.1245C103.443 89.1892 103.545 89.2538 103.662 89.3184L104.142 89.6579L104.36 89.3184L104.753 88.8336C104.898 88.9629 105.116 89.1407 105.407 89.367L105.8 89.6579C105.887 89.5932 106.062 89.3669 106.324 88.979L106.717 88.4457L106.237 88.1063C105.917 87.8477 105.698 87.6214 105.582 87.4275Z" fill="#2E3180"/>
<path d="M110.34 84.5673C110.282 84.1147 110.093 83.6137 109.773 83.0642C109.482 82.5793 109.249 82.2884 109.074 82.1914C109.016 82.2561 108.929 82.4985 108.813 82.9187C108.725 83.145 108.667 83.3228 108.638 83.4521C108.58 83.6137 108.536 83.7591 108.507 83.8884C108.769 84.1794 108.987 84.4703 109.162 84.7612C109.336 85.0845 109.438 85.3107 109.467 85.44C109.496 85.4723 109.511 85.5047 109.511 85.537L109.467 85.7309C109.467 85.7956 109.453 85.8441 109.424 85.8764C109.278 86.2643 108.987 86.6522 108.551 87.0401C108.085 87.4603 107.692 87.6704 107.372 87.6704C107.11 87.6704 106.892 87.6381 106.718 87.5734C106.601 87.5411 106.499 87.5088 106.412 87.4764C106.325 87.4441 106.238 87.3956 106.15 87.331C106.121 87.331 106.092 87.3471 106.063 87.3795V87.428C106.383 87.8805 106.776 88.2522 107.241 88.5432C107.707 88.8664 108.1 89.028 108.42 89.028C108.682 89.028 108.958 88.8179 109.249 88.3977C109.54 88.0421 109.787 87.6219 109.991 87.137C110.195 86.6845 110.311 86.3128 110.34 86.0219L110.384 85.5855C110.384 85.5855 110.384 85.5532 110.384 85.4885V85.343V85.1491V84.9067L110.34 84.5673Z" fill="#2E3180"/>
<path d="M117.585 79.0995C117.644 79.0349 117.804 78.8086 118.065 78.4207L118.458 77.8874L118.022 77.548C117.673 77.257 117.44 77.0308 117.324 76.8691L116.887 77.451C116.654 77.7742 116.494 78.0167 116.407 78.1783C116.552 78.3076 116.785 78.5015 117.105 78.7601L117.585 79.0995Z" fill="#2E3180"/>
<path d="M116.843 80.8495L117.061 80.5586L117.454 80.0252C117.6 80.1869 117.818 80.3808 118.109 80.6071L118.502 80.8495C118.589 80.7849 118.764 80.5748 119.025 80.2192L119.418 79.6373L118.938 79.2979C118.618 79.0393 118.4 78.8131 118.283 78.6191L117.978 79.007C117.832 79.201 117.702 79.3787 117.585 79.5404L117.192 79.2495C116.872 78.9909 116.669 78.7808 116.581 78.6191L116.145 79.201C115.883 79.5242 115.723 79.7667 115.665 79.9283C115.781 80.0899 116.014 80.3 116.363 80.5586L116.843 80.8495Z" fill="#2E3180"/>
<path fill-rule="evenodd" clip-rule="evenodd" d="M131.42 83.988V84.4728L131.246 85.4911L131.115 86.2183C130.998 86.5739 130.824 86.7355 130.591 86.7032H128.321C127.681 86.7032 127.318 86.186 127.23 85.1516L126.663 86.7032H124.874C124.641 86.7032 124.393 86.5416 124.132 86.2183C123.899 86.7355 123.739 86.9941 123.652 86.9941C123.564 86.9941 123.375 86.8648 123.084 86.6062C122.793 86.3476 122.371 85.8951 121.818 85.2486C121.673 86.0891 121.411 86.5901 121.033 86.7517H120.029V86.7032H119.854C119.534 86.7032 119.302 86.5093 119.156 86.1214C119.04 86.38 118.923 86.5416 118.807 86.6062C118.72 86.6709 118.516 86.7032 118.196 86.7032C117.876 86.6709 117.556 86.5416 117.236 86.3153C117.003 86.5092 116.756 86.6224 116.494 86.6547C116.203 86.687 115.941 86.687 115.708 86.6547C115.446 86.6224 115.272 86.5901 115.185 86.5577C115.126 86.4931 115.025 86.4123 114.879 86.3153C114.704 86.5739 114.428 86.7032 114.05 86.7032H111.649L111.257 79.9151L112.26 78.1696C112.435 81.7576 112.551 83.7294 112.61 84.0849H114.006C114.443 84.0526 114.734 83.9879 114.879 83.891C114.995 83.794 115.112 83.6324 115.228 83.4061C115.374 83.1798 115.49 83.0182 115.577 82.9212C115.897 82.695 116.043 82.6303 116.014 82.7273C115.985 82.8566 115.912 83.0829 115.796 83.4061C115.65 83.7617 115.592 83.9556 115.621 83.988C115.621 83.988 115.752 84.0203 116.014 84.0849C116.247 84.1173 116.494 84.1173 116.756 84.0849C116.989 84.0849 117.163 83.9395 117.279 83.6485C117.396 83.293 117.469 83.0667 117.498 82.9697C117.527 82.9051 117.585 82.8404 117.672 82.7758C117.73 82.7111 117.847 82.6142 118.021 82.4849C117.934 83.1637 117.861 83.5677 117.803 83.697C117.774 83.8587 117.847 83.9718 118.021 84.0365C118.225 84.1011 118.4 84.1173 118.545 84.0849C118.691 84.0526 118.778 84.0041 118.807 83.9395C118.865 83.9072 118.953 83.5839 119.069 82.9697C119.564 82.3879 119.811 82.1616 119.811 82.2909C119.84 82.4202 119.825 82.6788 119.767 83.0667C119.709 83.4223 119.738 83.6809 119.854 83.8425C119.971 84.0041 120.102 84.0849 120.247 84.0849H120.946C121.149 84.0849 121.295 84.0364 121.382 83.9395C121.498 83.8425 121.615 83.6809 121.731 83.4546C121.848 83.196 121.993 82.9051 122.168 82.5819C122.342 82.2909 122.517 82.0485 122.691 81.8546C122.837 81.6929 122.997 81.5636 123.171 81.4666C123.317 81.402 123.462 81.3858 123.608 81.4182C123.753 81.4505 123.841 81.499 123.87 81.5636C123.928 81.6606 124.001 81.8707 124.088 82.1939C124.175 82.5172 124.263 82.8081 124.35 83.0667C124.437 83.3253 124.568 83.5678 124.743 83.794C124.917 84.0203 125.383 84.1173 126.139 84.0849H126.968C126.939 83.2122 126.91 82.6465 126.881 82.3879C126.852 82.1293 126.794 81.2565 126.707 79.7696L127.579 78.1211C127.812 81.3859 127.943 83.1475 127.972 83.4061C127.972 83.6324 128.016 83.8102 128.103 83.9395C128.191 84.0364 128.409 84.0849 128.758 84.0849H130.504L130.154 81.5152C130.154 81.3212 130.14 81.0949 130.111 80.8363C129.994 80.707 129.922 80.6101 129.893 80.5454C129.834 80.4808 129.791 80.4 129.762 80.303C129.704 80.206 129.674 80.0929 129.674 79.9636C129.704 79.8343 129.805 79.5434 129.98 79.0908L130.416 78.2181C130.475 78.2181 130.504 78.2666 130.504 78.3635C130.504 78.4928 130.533 78.6383 130.591 78.7999C130.649 78.9615 130.707 79.0747 130.766 79.1393C130.824 79.2039 130.882 79.2848 130.94 79.3817C131.027 79.4464 131.333 79.705 131.857 80.1575L131.289 81.6606L131.333 82.8243L131.42 83.6001V83.988ZM123.521 84.0849C123.491 83.6647 123.448 83.3576 123.39 83.1637C123.361 83.0021 123.302 82.9051 123.215 82.8728C123.128 82.8081 123.04 82.792 122.953 82.8243C122.837 82.8889 122.735 83.0021 122.648 83.1637C122.793 83.3899 123.084 83.697 123.521 84.0849Z" fill="#2E3180"/>
</g>
<defs>
<clipPath id="clip0_979_1190">
<rect width="90.2041" height="52" fill="white" transform="translate(22.8979)"/>
</clipPath>
<clipPath id="clip1_979_1190">
<rect width="136" height="16" fill="white" transform="translate(0 56)"/>
</clipPath>
<clipPath id="clip2_979_1190">
<rect width="135" height="15.8824" fill="white" transform="translate(0.5 76)"/>
</clipPath>
</defs>
</svg>
