<svg width="136" height="72" viewBox="0 0 136 72" fill="none" xmlns="http://www.w3.org/2000/svg">
<g clip-path="url(#clip0_834_1604)">
<path d="M44.199 37.4707C43.841 37.4707 43.538 37.3328 43.2075 37.2225C42.2434 36.8916 41.3345 36.4504 40.4806 35.8713C39.6268 35.2923 38.8831 34.6029 38.1945 33.8584C37.3682 32.9393 36.6979 31.919 36.1838 30.7977C35.6513 29.6579 35.2749 28.4538 35.0545 27.1854C34.8892 26.1376 34.8892 25.0622 34.9443 24.0143C34.9994 22.9114 35.2198 21.8635 35.5778 20.8157C36.2389 18.7476 37.3406 16.9829 38.8555 15.5214C39.994 14.4185 41.2794 13.582 42.7117 13.0122C43.2442 12.8099 43.7859 12.6445 44.3367 12.5158C45.2732 12.3228 46.2097 12.1849 47.1738 12.2125C47.5318 12.2401 47.8623 12.2952 48.2204 12.3228C48.6611 12.3779 49.0743 12.4882 49.4874 12.5434C49.5701 12.571 49.6802 12.571 49.7629 12.6537C49.873 12.8743 49.7904 13.0673 49.7353 13.2879C49.3681 14.9424 49.0008 16.5968 48.6336 18.2513C48.606 18.4167 48.606 18.6373 48.3857 18.6925C48.248 18.6649 48.1378 18.6925 48.0001 18.6373C47.4767 18.4719 46.9259 18.4719 46.375 18.527C46.0169 18.527 45.6864 18.6098 45.3559 18.6925C44.7499 18.8579 44.1439 19.1337 43.6206 19.4921C42.6566 20.1539 41.9129 21.0087 41.4171 22.0841C40.8387 23.325 40.6459 24.621 40.8111 25.9721C40.8938 26.5788 41.059 27.1578 41.3069 27.7369C41.7476 28.7847 42.4087 29.6395 43.2625 30.3013C43.9052 30.816 44.6214 31.1745 45.411 31.3767C45.466 31.3767 45.5211 31.3767 45.5487 31.4319C45.6588 31.6249 45.5762 31.7903 45.5487 31.9834C45.1631 33.693 44.7774 35.375 44.3918 37.0846C44.3643 37.2501 44.3092 37.3879 44.199 37.4707Z" fill="#E02626"/>
<path d="M52.4337 13.7598C53.1774 14.1734 53.8384 14.6697 54.4444 15.2212C55.6288 16.269 56.5653 17.5099 57.2814 18.9438C57.8874 20.1019 58.273 21.3427 58.5209 22.6387C58.6586 23.3005 58.6586 23.9899 58.7412 24.6517C58.7596 24.9826 58.7504 25.3318 58.7137 25.6995C58.6586 26.058 58.6586 26.4164 58.6035 26.7749C58.5209 27.4918 58.3556 28.2088 58.1628 28.8981C57.7221 30.3871 57.0335 31.7383 56.1246 32.9791C54.8575 34.6887 53.2875 35.9847 51.387 36.8396C50.423 37.2807 49.4314 37.5565 48.4123 37.6944C48.0542 37.7495 47.6962 37.7495 47.3381 37.8047C47.2279 37.8322 47.1728 37.7495 47.2004 37.6116C47.3473 36.9131 47.5034 36.2145 47.6686 35.516C47.8706 34.5233 48.0726 33.5306 48.2746 32.5379C48.3572 32.1795 48.4674 31.821 48.5225 31.4625C48.5776 31.3247 48.6327 31.2419 48.7704 31.2144C49.0825 31.0857 49.3855 30.9386 49.6793 30.7732C51.4697 29.6978 52.5163 28.0433 52.8193 25.8925C52.957 24.955 52.8744 24.0175 52.599 23.1075C52.3235 22.1148 51.8553 21.2324 51.1667 20.5155C51.0014 20.3225 50.9739 20.157 51.029 19.9364C51.1575 19.3666 51.2769 18.8059 51.387 18.2544C51.6625 16.986 51.9287 15.7267 52.1858 14.4767C52.2409 14.2561 52.296 14.0079 52.4337 13.7598Z" fill="#2B418C"/>
<path d="M91.6283 21.8633C92.2158 21.2751 92.8585 20.788 93.5562 20.402C94.052 20.0987 94.5753 19.9332 95.1261 19.7954C95.5668 19.7127 96.0075 19.7402 96.4757 19.7678C96.9163 19.7678 97.3295 19.9057 97.7426 20.0711C98.3761 20.3468 98.8167 20.8431 99.0371 21.5049C99.3125 22.2493 99.3676 22.9938 99.3125 23.7934C99.2023 24.8411 99.0095 25.8613 98.8167 26.8815C98.6515 27.7638 98.5138 28.6461 98.3485 29.5285C98.2108 30.3832 98.018 31.2379 97.8803 32.0927C97.8069 32.5155 97.7334 32.9382 97.66 33.361C97.66 33.4162 97.6508 33.4713 97.6324 33.5265C97.5773 33.7195 97.5223 33.7746 97.357 33.747C97.0265 33.7195 96.696 33.7195 96.338 33.6643C95.9248 33.6092 95.4842 33.6368 95.0435 33.6643C94.713 33.7011 94.3825 33.7378 94.052 33.7746C93.9051 33.7746 93.85 33.7011 93.8867 33.554C94.1805 31.9365 94.4743 30.3281 94.7681 28.7289C94.8782 27.9844 95.0159 27.2675 95.1261 26.5231C95.2087 26.137 95.2914 25.751 95.3464 25.365C95.4015 24.786 95.4566 24.207 95.374 23.6004C95.3373 23.3798 95.2638 23.1684 95.1537 22.9662C94.9609 22.5526 94.6579 22.3045 94.2723 22.2493C93.7766 22.1942 93.2808 22.1942 92.8126 22.4423C92.3168 22.6905 91.9863 23.1041 91.7385 23.628C91.4079 24.3448 91.1601 25.1169 90.9673 25.8889C90.6368 27.2399 90.444 28.6186 90.1961 29.9972C90.1135 30.4383 90.0033 30.8795 89.9207 31.3207C89.7922 32.0375 89.6636 32.7544 89.5351 33.4713C89.5167 33.5265 89.5076 33.5816 89.5076 33.6368C89.48 33.7195 89.4249 33.7746 89.3423 33.747C89.0393 33.747 88.7088 33.747 88.4059 33.6919C87.8826 33.6368 87.3593 33.6368 86.836 33.6919C86.533 33.747 86.2301 33.747 85.8996 33.7746C85.8169 33.7746 85.7618 33.6919 85.7894 33.5816C85.8445 33.2875 85.8996 32.9842 85.9546 32.6717C86.1566 31.5321 86.3678 30.3924 86.5881 29.2527C86.8084 27.966 87.038 26.6885 87.2767 25.4202C87.5337 23.968 87.7908 22.525 88.0478 21.0913C88.0846 20.8156 88.1305 20.549 88.1855 20.2917C88.2406 20.0711 88.2682 20.0435 88.4885 20.0435C88.6538 20.0435 88.8466 20.0435 89.0393 20.0711C89.7004 20.1446 90.3614 20.1446 91.0224 20.0711C91.2427 20.0435 91.4355 20.0435 91.6558 20.0435C91.766 20.0435 91.8211 20.0987 91.7935 20.209C91.7935 20.3468 91.766 20.4571 91.7385 20.5674C91.665 20.9718 91.6007 21.3762 91.5457 21.7806C91.5181 21.8909 91.5181 21.9185 91.6283 21.8633Z" fill="#2B418C"/>
<path fill-rule="evenodd" clip-rule="evenodd" d="M84.9351 25.4783C84.88 26.2227 84.7699 26.9672 84.5495 27.7116C83.9711 29.7244 82.9246 31.4339 81.272 32.6471C80.0327 33.5294 78.6831 34.0257 77.1958 34.0257C76.6175 34.0257 76.0391 34.0257 75.4607 33.9154C74.6069 33.7224 73.8082 33.4191 73.1472 32.8125C72.4035 32.1784 71.9353 31.3512 71.715 30.3586C71.4947 29.4211 71.5222 28.4561 71.6599 27.4911C71.8802 26.0573 72.3209 24.7062 73.0645 23.4931C74.001 21.949 75.2679 20.8185 76.8929 20.2119C77.7467 19.8811 78.628 19.7156 79.5369 19.7432C80.3632 19.7432 81.1619 19.8535 81.933 20.1292C83.2 20.5979 84.1089 21.4527 84.6322 22.7762C84.9351 23.6585 85.0177 24.5408 84.9351 25.4783ZM81.0517 22.8313C81.0517 22.6107 80.9691 22.3626 80.8865 22.142C80.6661 21.5906 80.2805 21.177 79.6746 21.1218C79.0136 21.0667 78.4352 21.2321 77.9119 21.7008C77.4162 22.142 77.0581 22.721 76.7827 23.3276C76.4522 24.0445 76.2319 24.789 76.0391 25.561C75.7636 26.719 75.5433 27.9046 75.4332 29.0903C75.3781 29.752 75.4056 30.4137 75.5433 31.0755C75.5984 31.3512 75.6535 31.5994 75.7912 31.8475C76.0391 32.2887 76.3696 32.592 76.8653 32.6471C77.3978 32.7206 77.8936 32.5828 78.3526 32.2335C78.7933 31.9027 79.0962 31.4339 79.3716 30.9376C79.7021 30.3126 79.9776 29.6601 80.1979 28.98C80.5284 27.9598 80.8038 26.912 80.9691 25.8367C81.0792 25.2025 81.1619 24.5684 81.1619 23.7964C81.1894 23.5482 81.1068 23.1898 81.0517 22.8313Z" fill="#2B418C"/>
<path fill-rule="evenodd" clip-rule="evenodd" d="M113.002 24.0407C113.002 24.923 112.919 25.8054 112.671 26.6877C112.616 26.9634 112.616 26.9634 112.341 26.9634H105.538C105.455 26.9634 105.345 26.9634 105.263 26.9634C105.152 26.9634 105.097 27.0185 105.07 27.1564C105.042 27.3494 104.987 27.5149 104.96 27.7354C104.877 28.4247 104.794 29.1416 104.932 29.8585C105.125 30.9063 105.648 31.6783 106.64 31.954C107.191 32.0919 107.741 32.147 108.32 32.0643C109.229 31.8989 110.055 31.5404 110.826 31.0166C110.863 30.9982 110.89 30.9798 110.909 30.9614C111.102 30.8511 111.267 30.9063 111.349 31.1268C111.377 31.1544 111.349 31.2096 111.349 31.2371C111.092 31.6967 110.835 32.1562 110.578 32.6158C110.523 32.7261 110.441 32.8088 110.303 32.8915C109.89 33.1672 109.421 33.3878 108.953 33.5532C108.127 33.8565 107.273 34.0495 106.392 34.022C105.621 34.022 104.877 33.9392 104.161 33.7187C102.472 33.1305 101.453 31.9081 101.104 30.0515C100.966 29.3898 100.966 28.7556 100.994 28.0939C101.049 26.798 101.324 25.5572 101.847 24.3716C102.426 22.993 103.28 21.8625 104.436 21.0078C105.263 20.4287 106.144 20.0703 107.108 19.8773C107.907 19.7118 108.678 19.7119 109.477 19.7946C110.248 19.9049 110.991 20.153 111.625 20.6769C112.093 21.0629 112.396 21.5592 112.644 22.1107C112.892 22.7172 112.974 23.379 113.002 24.0407ZM109.284 22.0004C109.229 21.8165 109.155 21.6511 109.063 21.5041C108.926 21.311 108.76 21.1732 108.54 21.1456C107.962 21.0078 107.438 21.2008 106.998 21.5868C106.695 21.8349 106.502 22.1934 106.337 22.5794C105.951 23.3514 105.676 24.1786 105.455 25.0333C105.437 25.1436 105.419 25.2447 105.4 25.3366C105.364 25.4469 105.4 25.5113 105.511 25.5296H107.273C107.824 25.5296 108.384 25.5296 108.953 25.5296C109.146 25.5296 109.146 25.5021 109.201 25.3366C109.219 25.1896 109.247 25.0425 109.284 24.8955C109.311 24.5646 109.366 24.2337 109.394 23.9029C109.449 23.2687 109.449 22.6345 109.284 22.0004Z" fill="#2B418C"/>
<path d="M63.0378 33.6419C61.2567 33.6419 59.4757 33.6419 57.6946 33.6419C57.309 33.6419 57.309 33.6419 57.3917 33.2283C57.4192 32.9802 57.4192 32.7045 57.5294 32.4839C57.6396 32.2357 57.8323 32.0427 58.0251 31.8497C59.1268 30.4987 60.256 29.1752 61.3577 27.8517C62.2666 26.7488 63.1755 25.6459 64.0568 24.543C64.7362 23.7158 65.4064 22.8887 66.0674 22.0615C66.1225 21.988 66.1775 21.9144 66.2326 21.8409C66.2602 21.8133 66.2051 21.7306 66.15 21.7306C66.1316 21.7306 66.1041 21.7306 66.0674 21.7306C64.9657 21.7582 63.864 21.8133 62.7624 21.8409C61.9912 21.8685 61.2475 21.9512 60.5039 22.0063C60.4856 22.0063 60.4764 22.0063 60.4764 22.0063C60.3387 22.0063 60.2836 21.9236 60.3111 21.8133C60.3295 21.7398 60.357 21.6663 60.3937 21.5928C60.559 21.2619 60.5865 20.8759 60.5865 20.4899C60.5865 19.9936 60.6141 20.0487 60.9997 20.0487C64.3598 20.0487 67.7107 20.0487 71.0525 20.0487C71.1351 20.0487 71.1902 20.0487 71.2728 20.0487C71.383 20.0487 71.4289 20.1038 71.4105 20.2141C71.3738 20.4899 71.3279 20.7564 71.2728 21.0137C71.2453 21.1516 71.1902 21.2343 71.1076 21.3446C70.7587 21.7674 70.4007 22.1993 70.0334 22.6405C69.1888 23.6331 68.3534 24.6257 67.5271 25.6183C66.7835 26.4731 66.0674 27.3278 65.3238 28.2101C64.4149 29.3406 63.506 30.4711 62.5971 31.6016C62.542 31.6567 62.4869 31.721 62.4318 31.7946C62.4318 31.8497 62.4319 31.9049 62.4869 31.9049C62.5787 31.9049 62.6614 31.9049 62.7348 31.9049C63.2857 31.9049 63.8089 31.9324 64.3598 31.9049C65.1493 31.8865 65.948 31.8497 66.7559 31.7946C67.4169 31.767 68.0779 31.7119 68.739 31.6567C68.8124 31.6567 68.8858 31.6567 68.9593 31.6567C69.0419 31.6567 69.097 31.7394 69.0695 31.8497C69.0144 31.9876 68.9593 32.1254 68.9042 32.2633C68.8216 32.5942 68.8216 32.9526 68.7665 33.2835C68.7665 33.3662 68.7665 33.4489 68.739 33.5316C68.739 33.6144 68.6839 33.6419 68.6012 33.6419C68.5094 33.6419 68.4084 33.6419 68.2983 33.6419H63.0378Z" fill="#2B418C"/>
<path d="M44.942 23.0548C44.5564 22.9721 44.2259 22.9721 43.8954 22.8618C43.8128 22.8342 43.7577 22.8067 43.7852 22.6964C43.9229 21.9519 44.2259 21.2902 44.8318 20.7939C45.3276 20.4078 45.8784 20.2424 46.4843 20.2148C47.1729 20.2148 47.7788 20.3803 48.3296 20.8214C49.0733 21.4556 49.3487 22.3103 49.211 23.2754C49.1559 23.689 48.9631 24.0474 48.6877 24.2956C48.5224 24.461 48.3572 24.5989 48.1919 24.7367C48.1644 24.8194 48.247 24.8194 48.3021 24.8194C48.3296 24.8746 48.3847 24.8746 48.4398 24.9022C49.1284 25.233 49.4864 25.8396 49.6517 26.6116C49.9271 27.9903 49.1834 29.3689 48.0542 29.9479C47.0903 30.4442 45.8233 30.3891 44.9695 29.8376C44.281 29.3689 43.8678 28.7072 43.7026 27.88C43.6751 27.7697 43.675 27.687 43.675 27.6043C43.675 27.494 43.7301 27.4388 43.8403 27.4112C44.1157 27.3837 44.3911 27.3285 44.6666 27.301C44.7767 27.2734 44.8318 27.3285 44.8869 27.4664C44.942 27.7054 45.0154 27.9443 45.1072 28.1833C45.4102 28.845 45.8784 29.1759 46.5394 29.2035C47.5034 29.2586 48.2746 28.4039 48.3847 27.6043C48.4673 26.9701 48.3572 26.4186 47.9716 25.9499C47.5585 25.4536 47.0076 25.3157 46.4017 25.3709C46.3742 25.3709 46.3466 25.3985 46.3191 25.3985C45.8509 25.5088 45.8784 25.4812 45.9059 25.0125C45.9059 24.9757 45.9059 24.9389 45.9059 24.9022C45.9335 24.7367 45.9335 24.5713 46.0161 24.4334C46.0987 24.2956 46.2915 24.3783 46.4568 24.3507C46.8148 24.2956 47.1729 24.1853 47.4758 23.9647C47.7788 23.7441 47.9441 23.4132 47.9991 23.0548C48.0818 22.4758 47.9441 21.9795 47.4758 21.5935C47.283 21.4556 47.0627 21.3453 46.8148 21.3177C46.7047 21.3177 46.5945 21.3177 46.4843 21.3177C45.8233 21.3453 45.3551 21.7038 45.1348 22.3655C45.0521 22.5861 44.9971 22.8067 44.942 23.0548Z" fill="#2B418C"/>
<path d="M44.198 37.47C44.6203 35.5583 45.0426 33.6466 45.4649 31.7349C45.5016 31.643 45.5292 31.5419 45.5476 31.4316C45.9331 31.4592 46.2912 31.5695 46.6492 31.5419C47.0073 31.5144 47.3653 31.5695 47.7234 31.4592C47.806 31.4316 47.8886 31.5144 47.8611 31.6247C47.8427 31.7533 47.8152 31.8912 47.7785 32.0382C47.6132 32.8286 47.4479 33.6191 47.2827 34.4095C47.044 35.4756 46.8145 36.5417 46.5941 37.6079C46.5391 37.7733 46.484 37.8285 46.3187 37.8285C45.6302 37.7733 44.9692 37.6906 44.3082 37.5527C44.2531 37.5252 44.2255 37.4976 44.198 37.47Z" fill="#2B418C"/>
<path d="M48.3855 18.6985C48.5232 18.1471 48.6609 17.6232 48.7711 17.0718C49.0832 15.6564 49.4045 14.2502 49.7351 12.8532C49.7351 12.7796 49.7442 12.7153 49.7626 12.6602C50.1482 12.7153 50.5338 12.8807 50.9194 13.0462C51.1672 13.1289 51.36 13.2116 51.6079 13.3219C51.7732 13.4046 51.8007 13.4598 51.7732 13.6803C51.663 14.195 51.5528 14.7097 51.4427 15.2244C51.204 16.2905 50.9653 17.3659 50.7266 18.4504C50.6531 18.818 50.5797 19.1856 50.5062 19.5533C50.4511 19.7187 50.3961 19.7463 50.2584 19.6636C50.24 19.6452 50.2216 19.636 50.2033 19.636C49.68 19.25 49.1016 18.9467 48.4957 18.7812C48.4406 18.7537 48.413 18.7261 48.3855 18.6985Z" fill="#2B418C"/>
<path d="M41.4996 7.80078C42.5738 7.82835 43.2899 8.65553 43.3174 9.73085C43.3449 10.9716 42.4085 11.6609 41.4996 11.6609C40.7009 11.6609 39.737 10.9716 39.7094 9.78599C39.6819 8.73824 40.5081 7.82835 41.4996 7.80078Z" fill="#B8B6B7"/>
<path d="M30.0681 22.6111C30.1232 21.3152 31.1422 20.5156 32.299 20.7638C32.9875 20.9017 33.6761 21.6461 33.6761 22.6111C33.6761 23.5486 33.1252 24.2655 32.2439 24.5136C31.1422 24.7894 30.2609 23.8519 30.1232 23.0247C30.0956 22.8593 30.013 22.7214 30.0681 22.6111Z" fill="#B8B6B7"/>
<path d="M33.8422 31.373C34.9164 31.373 35.66 32.2554 35.66 33.3031C35.66 34.5163 34.696 35.2332 33.8973 35.2332C32.8783 35.2332 32.1622 34.4612 32.052 33.3031C32.1071 32.3932 32.6579 31.373 33.8422 31.373Z" fill="#B8B6B7"/>
<path d="M30.2059 27.9619C30.2059 27.438 30.3712 26.9692 30.7292 26.6108C31.0322 26.2799 31.4178 26.0318 31.8309 26.0318C33.1805 26.0042 33.8139 27.052 33.7864 27.9343C33.7864 29.0096 33.1254 29.8919 31.9135 29.8919C30.8119 29.8644 30.1784 28.8442 30.2059 27.9619Z" fill="#B8B6B7"/>
<path d="M33.5942 19.0598C32.5751 19.1425 31.804 18.0948 31.804 17.1573C31.8315 15.9993 32.7128 15.1997 33.6217 15.2273C34.5306 15.2273 35.4119 16.0269 35.4119 17.1298C35.4119 18.1775 34.5581 19.115 33.5942 19.0598Z" fill="#B8B6B7"/>
<path d="M54.2513 40.2843C54.3064 41.1942 53.5627 42.242 52.406 42.1868C51.442 42.1593 50.6157 41.3045 50.6708 40.174C50.7259 39.0987 51.5246 38.2991 52.5712 38.3543C53.5352 38.4094 54.2513 39.2917 54.2513 40.2843Z" fill="#B8B6B7"/>
<path d="M37.2853 35.7114C38.2492 35.6562 39.103 36.5661 39.103 37.6414C39.103 38.5238 38.3594 39.5715 37.3128 39.5715C36.1836 39.5439 35.5501 38.5789 35.495 37.6966C35.4675 36.5385 36.3213 35.6838 37.2853 35.7114Z" fill="#B8B6B7"/>
<path d="M52.0212 11.4936C51.0848 11.4936 50.2585 10.6113 50.2585 9.59114C50.2585 8.35038 51.3051 7.60592 52.1039 7.66107C53.2331 7.71621 53.839 8.57096 53.8941 9.59114C53.7564 10.694 53.178 11.4936 52.0212 11.4936Z" fill="#B8B6B7"/>
<path d="M45.1898 41.3386C45.1348 40.4287 45.9335 39.4085 46.9525 39.4361C47.9716 39.4361 48.7428 40.2633 48.7703 41.3662C48.7978 42.3864 47.9165 43.3514 47.0076 43.3238C45.8509 43.2962 45.1072 42.3036 45.1898 41.3386Z" fill="#B8B6B7"/>
<path d="M45.1897 8.60158C45.1071 7.74683 45.9333 6.6715 46.9799 6.72665C48.1642 6.78179 48.7151 7.66411 48.7977 8.68429C48.6875 9.86991 47.8337 10.6144 46.9249 10.5868C45.9058 10.5868 45.1071 9.59419 45.1897 8.60158Z" fill="#B8B6B7"/>
<path d="M54.913 12.3812C54.8855 11.1956 55.8219 10.4512 56.7308 10.4512C57.7774 10.4787 58.521 11.4162 58.521 12.3812C58.521 13.3187 57.7223 14.3113 56.7032 14.3113C55.6842 14.3113 54.8579 13.3463 54.913 12.3812Z" fill="#B8B6B7"/>
<path d="M61.9364 16.7061C61.964 17.8366 61 18.6362 60.1187 18.6086C59.1822 18.6086 58.3009 17.809 58.356 16.6234C58.3835 15.6308 59.0445 14.7484 60.1737 14.776C61.303 14.8036 61.964 15.7962 61.9364 16.7061Z" fill="#B8B6B7"/>
<path d="M36.9543 14.618C35.9077 14.5628 35.1641 13.7632 35.1641 12.6603C35.1916 11.6126 35.9903 10.7578 37.0369 10.7578C37.9183 10.7578 38.7996 11.6953 38.7721 12.7155C38.717 13.9011 37.8081 14.618 36.9543 14.618Z" fill="#B8B6B7"/>
<path d="M57.0058 39.2394C56.0694 39.2669 55.2431 38.4673 55.2156 37.3369C55.2156 36.3443 55.9592 35.4068 57.0333 35.4068C58.0249 35.3792 58.8511 36.3994 58.8236 37.3093C58.8236 38.3846 58.0249 39.2669 57.0058 39.2394Z" fill="#B8B6B7"/>
<path d="M43.7023 40.4203C43.7023 41.4405 42.9862 42.3504 41.8845 42.3504C40.9756 42.3504 40.1494 41.5232 40.1218 40.4203C40.1218 39.2898 41.0307 38.4902 41.9121 38.4902C42.9862 38.4902 43.7574 39.4553 43.7023 40.4203Z" fill="#B8B6B7"/>
<path d="M41.7191 45.0171C41.7191 45.7064 41.1407 46.313 40.4797 46.313C39.8187 46.313 39.2678 45.7064 39.2678 44.9895C39.2678 44.2726 39.7911 43.666 40.5348 43.666C41.2233 43.6936 41.7466 44.4105 41.7191 45.0171Z" fill="#B8B6B7"/>
<path d="M30.0136 37.1144C29.3526 37.1144 28.7742 36.5078 28.7742 35.8185C28.8017 35.0741 29.3525 34.4675 30.0411 34.495C30.6746 34.495 31.2254 35.1016 31.2254 35.8185C31.2529 36.5078 30.7021 37.0869 30.0136 37.1144Z" fill="#B8B6B7"/>
<path d="M45.8233 46.1709C45.7682 45.5367 46.2915 44.9026 47.0352 44.875C47.6686 44.875 48.2745 45.5092 48.247 46.1985C48.2195 47.0808 47.5585 47.5495 46.9801 47.522C46.3191 47.4944 45.7958 46.9154 45.8233 46.1709Z" fill="#B8B6B7"/>
<path d="M53.5363 3.69922C54.1422 3.72679 54.7481 4.2231 54.7481 5.05028C54.7206 5.90502 54.0596 6.34618 53.5087 6.3186C52.7651 6.3186 52.2969 5.73958 52.2969 4.99513C52.2969 4.08524 52.9854 3.69922 53.5363 3.69922Z" fill="#B8B6B7"/>
<path d="M46.9801 2.95508C47.6135 2.98265 48.2195 3.47895 48.2195 4.30613C48.1919 5.1333 47.5309 5.60203 46.9801 5.57446C46.2089 5.54689 45.7407 4.99544 45.7682 4.22341C45.7682 3.34109 46.4568 2.95508 46.9801 2.95508Z" fill="#B8B6B7"/>
<path d="M54.1144 46.051C53.4534 46.051 52.875 45.4444 52.9026 44.7551C52.9301 43.8728 53.536 43.4592 54.1695 43.4316C54.803 43.4316 55.3813 44.0658 55.3538 44.7275C55.3538 45.4996 54.803 46.051 54.1144 46.051Z" fill="#B8B6B7"/>
<path d="M65.2415 14.1965C65.2139 14.9134 64.6907 15.4924 64.0021 15.52C63.3411 15.52 62.7627 14.9134 62.7903 14.1965C62.7903 13.3418 63.4513 12.873 63.9746 12.873C64.6631 12.873 65.2415 13.4796 65.2415 14.1965Z" fill="#B8B6B7"/>
<path d="M61.2479 40.9811C61.2754 41.6428 60.5869 42.277 60.0085 42.2494C59.3199 42.2218 58.7966 41.6152 58.7966 40.8708C58.7966 40.209 59.4301 39.5749 60.0636 39.6024C60.7246 39.6576 61.2479 40.2642 61.2479 40.9811Z" fill="#B8B6B7"/>
<path d="M35.7142 41.3977C35.7142 42.0594 35.1909 42.6936 34.5023 42.6936C33.9515 42.7212 33.2629 42.28 33.2629 41.3701C33.2629 40.6532 33.8138 40.0742 34.4748 40.0742C35.1633 40.0742 35.7142 40.736 35.7142 41.3977Z" fill="#B8B6B7"/>
<path d="M60.7247 8.60134C60.7247 9.3458 60.2014 9.89724 59.5404 9.92482C58.9345 9.95239 58.301 9.37337 58.301 8.60134C58.301 7.96717 58.8243 7.333 59.4853 7.30543C60.284 7.27786 60.7798 8.02232 60.7247 8.60134Z" fill="#B8B6B7"/>
<path d="M27.3696 23.2691C26.7361 23.2691 26.1577 22.635 26.1853 21.9457C26.2128 21.2288 26.7912 20.6222 27.4247 20.6773C28.1132 20.7049 28.6365 21.2012 28.6365 21.9732C28.664 22.6625 28.0857 23.3243 27.3696 23.2691Z" fill="#B8B6B7"/>
<path d="M33.9796 10.4001C33.2635 10.4001 32.7402 9.79349 32.7402 9.04903C32.7678 8.35972 33.3462 7.72555 33.9796 7.78069C34.7783 7.83584 35.1915 8.49757 35.1915 9.10417C35.1639 9.79348 34.6406 10.4001 33.9796 10.4001Z" fill="#B8B6B7"/>
<path d="M28.8008 28.9036C28.7732 29.6204 28.2775 30.1995 27.5614 30.1995C26.983 30.1995 26.3495 29.7032 26.3771 28.876C26.3771 28.1867 26.8453 27.5801 27.5889 27.5801C28.1949 27.5801 28.8008 28.104 28.8008 28.9036Z" fill="#B8B6B7"/>
<path d="M29.6549 13.5715C30.3159 13.5715 30.8392 14.1505 30.8392 14.8949C30.8668 15.5291 30.371 16.1633 29.6274 16.1633C28.9939 16.1633 28.4155 15.6118 28.4155 14.8398C28.4155 14.2056 28.9664 13.5163 29.6549 13.5715Z" fill="#B8B6B7"/>
<path d="M41.0589 5.27409C41.0865 5.99097 40.5356 6.57 39.8746 6.57C39.1586 6.57 38.6353 5.99097 38.6353 5.24651C38.6353 4.52963 39.1035 4.00576 39.8196 3.95061C40.4806 3.89547 41.0589 4.52963 41.0589 5.27409Z" fill="#B8B6B7"/>
<path d="M47.0079 50.8479C46.5397 50.8479 46.1816 50.4619 46.1816 49.938C46.1816 49.4968 46.5948 49.0557 47.0079 49.0833C47.4761 49.1108 47.8617 49.4693 47.8617 49.9656C47.8892 50.4343 47.4761 50.8479 47.0079 50.8479Z" fill="#B8B6B7"/>
<path d="M23.9258 20.5449C24.394 20.5725 24.7796 20.9585 24.7521 21.4272C24.7521 21.9235 24.3665 22.3371 23.8983 22.3096C23.4576 22.3096 23.072 21.9236 23.0995 21.4548C23.1271 20.8482 23.4576 20.6001 23.9258 20.5449Z" fill="#B8B6B7"/>
<path d="M67.0325 13.175C66.6194 13.175 66.1787 12.7063 66.1787 12.2651C66.2063 11.824 66.5918 11.3828 67.005 11.3828C67.5283 11.3828 67.8588 11.8515 67.8588 12.2651C67.8863 12.7339 67.4732 13.175 67.0325 13.175Z" fill="#B8B6B7"/>
<path d="M33.0708 44.3181C33.0708 44.7593 32.6576 45.228 32.272 45.228C31.7763 45.2004 31.4182 44.7041 31.4182 44.3181C31.3907 43.9045 31.7487 43.4082 32.272 43.4082C32.7127 43.4358 33.0708 43.8494 33.0708 44.3181Z" fill="#B8B6B7"/>
<path d="M63.1762 43.7703C63.1762 44.2391 62.7355 44.7078 62.3224 44.6802C61.9092 44.6802 61.4961 44.2115 61.4961 43.7428C61.4961 43.274 61.9918 42.8605 62.3774 42.888C62.7906 42.9156 63.2037 43.3567 63.1762 43.7703Z" fill="#B8B6B7"/>
<path d="M27.3695 13.0939C27.3419 13.5627 26.9839 13.9487 26.5432 13.9487C26.075 13.9211 25.6894 13.5075 25.717 13.0388C25.717 12.5976 26.1301 12.1289 26.5157 12.1289C27.0114 12.1289 27.3695 12.5425 27.3695 13.0939Z" fill="#B8B6B7"/>
<path d="M26.1304 37.7183C26.1304 37.1944 26.6261 36.8359 26.9842 36.8359C27.4524 36.8359 27.7829 37.2219 27.8104 37.7458C27.8104 38.187 27.4799 38.6006 26.9566 38.6006C26.516 38.6006 26.1304 38.187 26.1304 37.7183Z" fill="#B8B6B7"/>
<path d="M61.7715 4.82227C62.2397 4.82227 62.5978 5.23586 62.5978 5.73216C62.5978 6.17332 62.1846 6.61447 61.7715 6.5869C61.3859 6.5869 60.9177 6.25604 60.9453 5.70459C60.9453 5.20828 61.3033 4.82227 61.7715 4.82227Z" fill="#B8B6B7"/>
<path d="M54.3616 1.38477C54.8023 1.38477 55.1603 1.79836 55.1603 2.29466C55.1603 2.73582 54.7747 3.17698 54.3616 3.17698C53.9485 3.1494 53.5078 2.84611 53.5078 2.26709C53.5354 1.77078 53.8934 1.38477 54.3616 1.38477Z" fill="#B8B6B7"/>
<path d="M47.0076 0C47.4483 0 47.8063 0.413592 47.8063 0.909896C47.8063 1.35106 47.3932 1.79221 46.9801 1.79221C46.5945 1.76464 46.1538 1.46134 46.1538 0.882322C46.1814 0.386018 46.5394 0 47.0076 0Z" fill="#B8B6B7"/>
<path d="M38.4417 1.38477C38.8824 1.38477 39.2404 1.79836 39.2404 2.29466C39.2404 2.73582 38.8273 3.17698 38.4141 3.17698C38.0286 3.1494 37.5879 2.84611 37.5879 2.26709C37.6154 1.77078 37.9735 1.38477 38.4417 1.38477Z" fill="#B8B6B7"/>
<path d="M23.2927 29.5579C23.3203 29.0616 23.6783 28.7031 24.1741 28.7031C24.6147 28.7031 24.9452 29.0891 24.9452 29.5854C24.9452 30.1645 24.5321 30.4678 24.0914 30.4678C23.6508 30.4678 23.2927 30.0817 23.2927 29.5579Z" fill="#B8B6B7"/>
<path d="M40.1489 48.5718C40.1489 49.0129 39.7633 49.4541 39.3501 49.4541C38.7718 49.4541 38.4963 49.0405 38.4963 48.5442C38.4963 48.1031 38.8819 47.6895 39.2951 47.6895C39.7633 47.6895 40.1489 48.0755 40.1489 48.5718Z" fill="#B8B6B7"/>
<path d="M32.465 6.26536C32.5201 6.65138 32.0794 7.14769 31.6388 7.12011C31.2256 7.12011 30.8125 6.70652 30.8125 6.26536C30.8125 5.76906 31.2256 5.35547 31.6938 5.35547C32.0794 5.38304 32.5201 5.82421 32.465 6.26536Z" fill="#B8B6B7"/>
<path d="M56.2354 48.2866C56.2354 48.7554 55.8223 49.1689 55.3816 49.1689C54.9134 49.1689 54.5278 48.7554 54.5553 48.2591C54.5829 47.7903 54.8858 47.4043 55.4091 47.4043C55.8498 47.4043 56.1803 47.7352 56.2354 48.2866Z" fill="#B8B6B7"/>
<path d="M91.629 21.8698C91.629 21.9525 91.5739 21.9801 91.5187 21.9525C91.436 21.8974 91.4912 21.8423 91.5463 21.7871C91.5647 21.8239 91.5923 21.8515 91.629 21.8698Z" fill="#B8B6B7"/>
</g>
<g clip-path="url(#clip1_834_1604)">
<path fill-rule="evenodd" clip-rule="evenodd" d="M91.832 59.4949C91.7489 60.0214 91.652 60.5342 91.5413 61.033C91.2921 62.4188 91.0291 63.7907 90.7523 65.1488C90.6277 65.8555 90.4616 66.6039 90.2954 67.3522C90.1293 68.0589 89.714 68.3915 89.0496 68.5578C88.925 68.5578 88.8004 68.5578 88.6759 68.5578C87.8453 68.5578 87.0286 68.5717 86.2257 68.5994C85.9765 68.5994 85.7274 68.5994 85.5197 68.4747C85.2706 68.2668 85.0214 68.2252 84.7307 68.4747C84.6061 68.641 84.3985 68.5994 84.1908 68.5994C83.7756 68.5994 83.3187 68.5578 82.9035 68.5994C82.5712 68.5994 82.2805 68.5578 81.9898 68.3499C81.8791 68.2391 81.7684 68.2391 81.6576 68.3499C81.45 68.5578 81.2423 68.5578 80.9932 68.5578C80.4533 68.5994 79.9134 68.5578 79.3736 68.5994C79.0414 68.5994 78.7922 68.3915 78.5015 68.2668C78.2523 68.4331 78.0032 68.5994 77.6709 68.5994C76.4251 68.5578 75.1793 68.5994 73.9334 68.5162C73.8504 68.5162 73.7673 68.5162 73.6842 68.5162C73.1859 68.4331 72.6876 68.2252 72.1892 68.2252C71.6909 68.2252 71.1926 68.4331 70.6527 68.4747C70.0713 68.5578 69.5314 68.5578 68.9501 68.5578C68.0088 68.5855 67.0813 68.5855 66.1677 68.5578C65.877 68.5578 65.7109 68.6825 65.5448 68.932C65.0049 69.6387 64.4235 70.3039 63.7591 70.8859C63.5514 71.0522 63.5099 71.0522 63.3022 70.8859C62.8039 70.4702 62.3056 70.096 61.7242 69.6803C62.3471 69.0567 62.9285 68.5578 63.3853 67.8511C63.0531 67.6848 62.8039 67.5185 62.5132 67.3522C62.181 67.1305 61.918 66.8395 61.7242 66.4792C61.4197 65.9248 61.3781 65.3567 61.5996 64.7746C61.6827 64.5529 61.7934 64.3312 61.9318 64.1095C62.3886 63.3612 62.887 62.696 63.5514 62.1971C63.9252 61.8645 64.3405 61.6151 64.8388 61.6566C65.4617 61.7398 66.0846 61.8229 66.583 62.3218C66.9982 62.7791 67.1643 63.3196 67.2059 63.9432C67.2474 64.5668 67.1643 65.232 66.9982 65.8556C66.9706 65.9941 66.9429 66.1466 66.9152 66.3128C66.9152 66.3544 66.9567 66.4376 67.0398 66.4376C67.0675 66.4653 67.109 66.4792 67.1644 66.4792H69.4484C69.4761 66.4792 69.5038 66.4792 69.5314 66.4792C69.7391 66.4376 69.8221 66.3544 69.6976 66.1466C69.2823 65.6061 69.0331 64.9825 68.8255 64.3173C68.6871 63.9293 68.5901 63.5274 68.5348 63.1117C68.4517 62.2802 68.8255 61.7398 69.656 61.6982C70.1959 61.6982 70.7358 61.6982 71.3172 61.6982H74.058C74.2518 61.6982 74.4318 61.7121 74.5979 61.7398C75.3038 61.8229 75.7191 62.2387 75.5945 63.1533C75.4699 64.2342 75.1793 65.2735 74.5148 66.1881C74.5148 66.2297 74.4733 66.3129 74.4318 66.3544C74.5148 66.5207 74.6394 66.4792 74.7224 66.4792C75.2762 66.4792 75.816 66.4792 76.342 66.4792C76.7573 66.4792 76.8404 66.396 76.9234 65.9387C77.0895 65.2735 77.2141 64.6499 77.3387 63.9848C77.4495 63.3473 77.574 62.696 77.7125 62.0308C77.7401 61.8091 77.8647 61.7259 78.0862 61.7814C78.3631 61.8645 78.6399 61.9615 78.9168 62.0724C79.249 62.1971 79.5812 62.2387 79.8719 62.4881C79.8719 62.8623 79.7473 63.1949 79.7058 63.569C79.5397 64.3173 79.3736 65.0656 79.2075 65.814C79.1659 66.0634 79.1659 66.2297 79.3736 66.3544C79.5397 66.5207 79.7889 66.4792 79.955 66.3544C80.0796 66.2297 80.2041 66.105 80.2457 65.9803C80.301 65.7585 80.3564 65.5368 80.4118 65.3151C80.6056 64.2342 80.8132 63.1533 81.0347 62.0724C81.0762 61.7398 81.1593 61.6982 81.45 61.8229C81.976 61.9892 82.4882 62.1555 82.9865 62.3218C83.2357 62.405 83.2357 62.4465 83.1942 62.696C83.0696 63.3611 82.9035 64.0679 82.7789 64.7746C82.6958 65.1072 82.6128 65.4814 82.5297 65.8556C82.4882 66.0634 82.5297 66.2297 82.6958 66.396C82.8619 66.5207 83.1942 66.4792 83.3603 66.2713C83.5264 66.105 83.6094 65.8555 83.651 65.6061C83.7617 64.9964 83.8724 64.4005 83.9832 63.8185C84.0939 63.2364 84.1908 62.6683 84.2739 62.114C84.3569 61.7814 84.4815 61.6982 84.7307 61.8229C85.229 61.9892 85.7412 62.1555 86.2672 62.3218C86.5164 62.4465 86.5579 62.4881 86.4749 62.7791C86.3088 63.6937 86.1426 64.6222 85.9765 65.5645C85.935 65.7724 85.935 65.9803 85.935 66.1881C85.935 66.3129 86.0181 66.4376 86.1426 66.4376C86.3918 66.4791 86.5995 66.4792 86.8071 66.4792C87.1393 66.4792 87.43 66.4792 87.7622 66.4792C88.0529 66.4792 88.2606 66.3128 88.3436 66.0218C88.399 65.8001 88.4405 65.5922 88.4682 65.3982C88.8281 63.4859 89.188 61.5874 89.5479 59.7027V59.5364C89.631 59.287 89.6725 59.2454 89.9217 59.2454C90.4754 59.2177 91.0429 59.2177 91.6243 59.2454C91.7905 59.2454 91.8735 59.3286 91.832 59.4949ZM65.3371 64.3589C65.3371 63.9847 65.0049 63.7769 64.6727 63.9848C64.2989 64.1926 64.0082 64.5252 63.7591 64.8994C63.5514 65.2735 63.6345 65.7308 63.9252 65.8556C64.382 66.105 64.5481 66.2297 64.8388 65.6477C64.9218 65.4814 65.0049 65.3289 65.088 65.1904C65.2264 64.9409 65.3094 64.6638 65.3371 64.3589ZM73.2274 64.151C73.2274 63.9847 73.1029 63.8185 72.9367 63.8185C72.6599 63.8185 72.383 63.8185 72.1062 63.8185C71.8155 63.8185 71.5248 63.7769 71.2756 63.8185C70.9849 63.8185 70.8603 64.0263 70.9019 64.3173C70.9019 64.4005 70.9157 64.4698 70.9434 64.5252C71.151 65.1072 71.5663 65.5645 72.0231 65.9387C72.1477 66.0219 72.3553 65.9803 72.4384 65.814C72.7291 65.4398 72.9783 65.0657 73.1444 64.6084C73.1859 64.4421 73.1859 64.2758 73.2274 64.151Z" fill="#2B418C"/>
<path d="M127.587 68.6019C127.171 68.6019 126.756 68.6019 126.341 68.6019C126.05 68.6019 125.759 68.5604 125.51 68.3525C125.344 68.2278 125.22 68.2694 125.095 68.3941C124.929 68.5603 124.721 68.6019 124.472 68.6019C123.974 68.6019 123.434 68.5603 122.894 68.6019C122.52 68.6019 122.271 68.2693 121.981 68.3109C121.731 68.3525 121.482 68.6019 121.15 68.6019C120.693 68.5603 120.278 68.5603 119.821 68.6019C119.448 68.6019 119.115 68.6019 118.825 68.3109C118.742 68.2693 118.617 68.2694 118.534 68.3525C118.326 68.5188 118.077 68.6019 117.828 68.5604C116.998 68.5604 116.167 68.5604 115.337 68.5604C115.046 68.5604 114.797 68.5188 114.548 68.4356C114.215 68.2694 114.215 68.2694 113.966 68.6019C113.44 69.3225 112.831 69.946 112.139 70.4726C111.807 70.722 111.682 70.722 111.35 70.4726C110.99 70.2232 110.63 69.946 110.271 69.6412C109.938 69.3917 109.98 69.3086 110.229 69.0592C110.506 68.8375 110.769 68.6019 111.018 68.3525C112.139 67.1885 112.887 65.7751 113.177 64.0708C113.288 63.3779 113.413 62.6851 113.551 61.9922C113.579 61.7983 113.676 61.729 113.842 61.7844C114.368 61.923 114.894 62.0754 115.42 62.2417C115.793 62.3664 115.752 62.4911 115.71 62.7821C115.544 63.6412 115.378 64.5003 115.212 65.3594C115.17 65.5257 115.129 65.692 115.129 65.8998C115.129 66.1493 115.254 66.3987 115.503 66.4403C115.918 66.5234 116.375 66.5234 116.79 66.4403C116.928 66.4125 117.011 66.3294 117.039 66.1908C117.081 65.983 117.164 65.8167 117.164 65.6504C117.357 64.6527 117.551 63.6412 117.745 62.6158C117.773 62.4772 117.8 62.3525 117.828 62.2417C117.953 61.7428 118.036 61.7012 118.451 61.8675C118.866 62.0338 119.323 62.1585 119.78 62.3248C120.07 62.4079 120.112 62.4911 120.029 62.8237C119.835 63.7382 119.641 64.6527 119.448 65.5673C119.406 65.7751 119.448 65.983 119.448 66.1908C119.448 66.3571 119.572 66.4403 119.697 66.4403C120.029 66.5234 120.361 66.3155 120.444 65.8998C120.527 65.5119 120.61 65.1239 120.693 64.7359C120.832 63.9599 120.97 63.1839 121.109 62.408C121.136 62.2417 121.178 62.0754 121.233 61.9091C121.275 61.826 121.358 61.7428 121.482 61.7844C122.036 61.9507 122.604 62.1447 123.185 62.3664C123.392 62.4495 123.434 62.5326 123.351 62.7821C123.185 63.655 122.977 64.5696 122.811 65.4426C122.77 65.692 122.77 65.8999 122.728 66.1493C122.728 66.3987 122.977 66.4818 123.143 66.4818C123.517 66.3987 123.725 66.1493 123.808 65.7751C123.891 65.3594 123.96 64.9437 124.015 64.528C124.154 63.752 124.306 62.9899 124.472 62.2417C124.472 62.1308 124.5 62.02 124.555 61.9091C124.611 61.7705 124.694 61.729 124.804 61.7844C125.081 61.8675 125.344 61.9507 125.593 62.0338C125.759 62.0892 125.912 62.1447 126.05 62.2001C126.881 62.4911 126.715 62.4495 126.59 63.2394C126.507 64.0292 126.299 64.7775 126.175 65.5257C126.009 66.3987 126.05 66.4818 126.881 66.4818C127.213 66.4818 127.559 66.4818 127.919 66.4818C128.251 66.4818 128.417 66.3156 128.5 65.983C128.611 65.4564 128.722 64.916 128.832 64.3617C129.109 62.8098 129.4 61.2717 129.704 59.7474C129.732 59.6366 129.76 59.5257 129.787 59.4149C129.843 59.2763 129.926 59.207 130.037 59.207C130.618 59.207 131.199 59.207 131.781 59.207C131.974 59.2347 132.057 59.3456 132.03 59.5396C131.947 60.0107 131.85 60.4819 131.739 60.953C131.379 62.8098 131.019 64.6666 130.659 66.5234C130.604 66.7728 130.535 67.0361 130.452 67.3132C130.327 67.9784 129.995 68.4772 129.04 68.5604C128.542 68.6019 128.043 68.5604 127.587 68.5604V68.6019Z" fill="#2B418C"/>
<path d="M110.768 59.207C110.657 59.207 110.547 59.207 110.436 59.207C109.578 59.207 108.733 59.207 107.903 59.207C107.529 59.207 107.197 59.207 106.865 59.207C106.533 59.207 106.325 59.3733 106.2 59.6643C106.034 59.9553 105.951 60.2878 105.868 60.6204C105.744 60.9114 105.785 61.2024 105.951 61.535C106.311 62.1724 106.643 62.8375 106.948 63.5303C107.322 64.3202 107.529 65.1516 107.737 65.983C107.778 66.2324 107.654 66.3987 107.446 66.4403C107.363 66.468 107.266 66.4818 107.155 66.4818C106.325 66.4818 105.453 66.4818 104.622 66.4818C103.958 66.4818 103.792 66.2324 103.916 65.5257V65.4841C104.083 64.9022 104.166 64.2786 104.249 63.6551C104.29 63.4056 104.332 63.1146 104.29 62.8652C104.249 62.3248 104.041 61.9922 103.584 61.8675C103.377 61.7844 103.169 61.7428 102.92 61.7428C102.172 61.6597 101.383 61.7013 100.636 61.7013C99.9716 61.7013 99.5563 62.0754 99.2657 62.6989C99.0996 63.1146 99.0165 63.5719 98.9335 64.0292C98.8089 64.9022 98.6013 65.8167 98.4767 66.6897C98.3936 67.0223 98.3521 67.3132 98.4352 67.6458C98.5182 68.1862 98.7674 68.4772 99.2657 68.5188C99.8055 68.5603 100.345 68.5604 100.885 68.5604C101.01 68.5604 101.093 68.4772 101.134 68.3525C101.162 68.2694 101.19 68.1724 101.217 68.0615C101.3 67.7289 101.3 67.3548 101.466 67.0638C101.466 66.8698 101.453 66.6897 101.425 66.5234C101.3 66.5234 101.176 66.4818 101.051 66.4818C100.636 66.5234 100.636 66.3571 100.719 66.0661C100.802 65.4841 100.885 64.9437 100.968 64.3617C100.996 64.1955 101.037 64.043 101.093 63.9045C101.217 63.4472 101.467 63.2394 101.923 63.2394C102.006 63.2394 102.089 63.2809 102.089 63.4056C102.089 63.4611 102.089 63.5303 102.089 63.6135C101.923 64.5834 101.757 65.5534 101.591 66.5234C101.591 66.6897 101.633 66.856 101.591 67.0638C101.619 67.1747 101.646 67.2855 101.674 67.3964C101.84 67.9507 102.186 68.3109 102.712 68.4772C103.044 68.5603 103.377 68.5604 103.709 68.5604H109.024C109.273 68.5604 109.522 68.4356 109.689 68.1862C109.979 67.8121 110.145 67.3132 110.145 66.8144C110.104 66.0661 110.062 65.3594 109.855 64.6527C109.578 63.5996 109.19 62.6158 108.692 61.7013C108.609 61.535 108.443 61.4103 108.526 61.1608C108.609 61.1608 108.692 61.1608 108.775 61.1608C109.273 61.1608 109.785 61.147 110.311 61.1193C110.561 61.1193 110.602 61.0777 110.644 60.8283C110.754 60.3571 110.851 59.8999 110.934 59.4564C110.976 59.2902 110.893 59.2486 110.768 59.207Z" fill="#2B418C"/>
<path d="M35.9352 68.6019C35.4369 68.6019 34.9386 68.5603 34.4403 68.6019C34.1081 68.6019 33.8174 68.4772 33.5683 68.2694C33.2776 68.3525 33.0284 68.6019 32.6547 68.6019C31.4505 68.5603 30.2462 68.6019 29.0005 68.6019C28.9451 68.6019 28.8897 68.5881 28.8344 68.5604C28.7098 68.5188 28.6267 68.4356 28.6683 68.3109C28.6683 68.2278 28.7098 68.1447 28.7513 68.0199C28.779 67.8537 28.8067 67.6874 28.8344 67.5211C28.9174 67.1885 28.8759 66.7728 29.1251 66.565C29.3742 66.3571 29.7479 66.4818 30.0386 66.4818C30.4539 66.4818 30.8691 66.4818 31.2844 66.4818C31.5889 66.4818 31.7965 66.3156 31.9072 65.983C31.9903 65.7751 32.0318 65.5673 32.1149 65.3594C32.3363 64.1123 32.5578 62.8791 32.7793 61.6597C32.89 61.0223 33.0146 60.3987 33.153 59.789C33.1807 59.6781 33.2084 59.5673 33.2361 59.4564C33.2776 59.2902 33.3191 59.207 33.4852 59.207C34.0942 59.207 34.6894 59.207 35.2708 59.207C35.4369 59.207 35.5061 59.304 35.4784 59.498C35.423 59.8583 35.3538 60.2186 35.2708 60.5788C34.9663 62.2417 34.6617 63.9045 34.3572 65.5673C34.3295 65.7613 34.3019 65.9553 34.2742 66.1493C34.2742 66.3156 34.3572 66.4403 34.5233 66.4403C34.6064 66.468 34.6894 66.4818 34.7725 66.4818C35.2708 66.4818 35.7691 66.4818 36.2259 66.4818C36.7657 66.4818 36.9318 66.3156 37.0149 65.7751C37.1394 64.9853 37.3055 64.237 37.4716 63.4472C37.7208 62.1724 37.9561 60.9114 38.1776 59.6643C38.2052 59.6089 38.2191 59.5396 38.2191 59.4564C38.2606 59.3317 38.3437 59.207 38.5098 59.207C39.0911 59.207 39.6863 59.2209 40.2953 59.2486C40.4199 59.2486 40.503 59.3317 40.4614 59.4564C40.4614 59.6227 40.4476 59.7752 40.4199 59.9137C39.9493 62.2417 39.4925 64.5696 39.0496 66.8975C39.0081 67.0638 38.9665 67.1885 38.925 67.3548C38.8004 68.0615 38.2606 68.5188 37.5547 68.5604C37.1394 68.5604 36.7242 68.5604 36.3089 68.5604C36.1982 68.5604 36.0736 68.5604 35.9352 68.5604V68.6019Z" fill="#2B418C"/>
<path fill-rule="evenodd" clip-rule="evenodd" d="M54.374 62.8687C54.1802 63.8941 53.9726 64.9195 53.7511 65.9449C53.6681 66.4437 53.5435 66.901 53.4189 67.3999C53.2944 68.0234 52.9206 68.3975 52.3393 68.5222C52.1178 68.5777 51.8825 68.5915 51.6334 68.5638C50.4983 68.5638 49.3633 68.5638 48.2283 68.5638C47.9791 68.5638 47.7715 68.5638 47.5223 68.4807C46.941 68.3144 46.5673 67.8987 46.4427 67.2751C46.4012 67.1088 46.4842 66.9426 46.2766 66.8179C46.1935 67.289 46.0967 67.7463 45.9859 68.1897C45.9029 68.5222 45.8613 68.5638 45.5707 68.5638C45.1554 68.5638 44.7402 68.5638 44.3249 68.5638C44.2142 68.5638 44.0896 68.55 43.9512 68.5222C43.5359 68.3975 43.2868 68.1065 43.2453 67.6493C43.2037 67.3998 43.2037 67.1089 43.2453 66.8179C43.439 65.737 43.6328 64.6701 43.8266 63.6169C43.882 63.3121 43.965 63.0211 44.0758 62.744C44.3249 62.1204 44.7402 61.7463 45.363 61.7047C46.152 61.6632 46.9825 61.7047 47.7715 61.7463C48.0207 61.7463 48.2698 61.7879 48.519 61.9126C48.8512 62.0511 49.0449 62.3144 49.1003 62.7024C49.1418 63.2428 49.1003 63.7417 48.9757 64.2405C48.8927 64.6978 48.8096 65.1966 48.7266 65.6955C48.6989 65.7786 48.6851 65.8618 48.6851 65.9449C48.6851 66.1943 48.8512 66.4022 49.0588 66.4437C49.1142 66.4714 49.1834 66.4853 49.2664 66.4853C49.8062 66.4853 50.3461 66.4853 50.9274 66.4853C51.3012 66.4437 51.4257 66.3606 51.5088 65.9449C51.7164 64.7394 51.924 63.5338 52.1732 62.3283C52.1732 62.2451 52.1732 62.162 52.2147 62.0788C52.2978 61.8294 52.4223 61.7047 52.713 61.8294C53.1698 61.9957 53.6266 62.1204 54.0833 62.3283C54.4571 62.453 54.4571 62.4946 54.374 62.8687ZM46.6503 63.2428C46.152 63.326 45.9444 63.5338 45.8613 64.0742C45.7229 64.7671 45.5983 65.4738 45.4876 66.1943C45.4461 66.3606 45.5291 66.4437 45.6952 66.4437C45.7783 66.4853 45.9029 66.4853 45.9859 66.4853C46.1243 66.4853 46.2489 66.4992 46.3596 66.5269C46.4842 66.4022 46.4427 66.2774 46.4427 66.1112C46.6088 65.252 46.7611 64.3929 46.8995 63.5338C46.941 63.2844 46.8579 63.2013 46.6503 63.2428Z" fill="#2B418C"/>
<path d="M3.58502 70.6305H1.55027C1.4257 70.6305 1.30113 70.6305 1.17655 70.5889C0.470621 70.5057 0.0138419 70.0069 0.0138419 69.2171C-0.0138416 68.9676 -4.70269e-07 68.7182 0.0553665 68.4688C0.304518 67.1801 0.553671 65.933 0.802822 64.6443C0.968923 63.7575 1.14886 62.8707 1.34265 61.9839C1.38417 61.776 1.50875 61.6929 1.67485 61.776C2.20084 61.97 2.74066 62.164 3.29433 62.358C3.46043 62.3995 3.50196 62.5243 3.46044 62.649C3.43275 62.9815 3.39123 63.3002 3.33586 63.6051C3.08671 64.8522 2.8514 66.0855 2.62993 67.3048C2.57457 67.5266 2.53304 67.7483 2.50536 67.97C2.46383 68.2194 2.58841 68.3857 2.79603 68.3857C3.54349 68.4134 4.30478 68.4134 5.07992 68.3857C5.3706 68.3857 5.5367 68.2194 5.61975 67.9284C5.78585 67.4296 5.91043 66.9307 6.035 66.4319C6.28415 65.0462 6.54714 63.6605 6.82398 62.2748C6.82398 62.1085 6.86551 61.9838 6.94856 61.9007C6.99008 61.776 7.07313 61.7344 7.19771 61.776C7.7237 61.97 8.24968 62.164 8.77567 62.358C8.94177 62.3995 9.02482 62.5242 8.9833 62.6905C8.90025 63.1617 8.81719 63.619 8.73414 64.0624C8.42962 65.642 8.12511 67.2217 7.82059 68.8014C7.77906 69.1339 7.61296 69.4665 7.48839 69.7575C7.32228 70.1732 7.03161 70.381 6.65788 70.4642C6.32568 70.5473 5.95195 70.6305 5.57822 70.6305C4.91382 70.5889 4.24942 70.6305 3.58502 70.6305Z" fill="#2B418C"/>
<path fill-rule="evenodd" clip-rule="evenodd" d="M27.8365 63.9946C27.8919 65.3248 27.615 66.5442 27.006 67.6528C26.3139 68.9276 25.428 70.0223 24.3484 70.9368C24.3069 70.9784 24.2653 70.9784 24.1823 71.0615C23.6425 70.6458 23.1026 70.2301 22.5628 69.8144C22.4382 69.7313 22.4382 69.6066 22.5628 69.4819C22.9504 69.0939 23.3379 68.7059 23.7255 68.3179C23.8501 68.1932 23.9747 68.0269 24.0162 67.8191C23.684 67.6943 23.3933 67.5281 23.1026 67.3202C22.7289 67.0708 22.4798 66.6966 22.2721 66.3225C22.023 65.7821 22.0645 65.2001 22.3137 64.6597C22.4798 64.2024 22.7289 63.7867 23.0196 63.4542C23.3933 63.0385 23.767 62.6228 24.1823 62.2486C24.556 61.8745 25.0128 61.6251 25.5526 61.6666C26.1755 61.7498 26.7569 61.8745 27.2136 62.3318C27.6704 62.789 27.8365 63.371 27.8365 63.9946ZM25.9679 64.3687C25.9679 63.9946 25.7187 63.7867 25.3865 63.953C25.3588 63.953 25.3312 63.953 25.3035 63.953C24.8882 64.2856 24.5145 64.6181 24.3484 65.1585C24.2653 65.2833 24.3069 65.408 24.3484 65.5742C24.4314 65.9068 24.7221 65.99 25.0128 66.0731C25.2619 66.1147 25.3865 65.8652 25.5111 65.699C25.6357 65.4495 25.7603 65.1586 25.8848 64.9091C25.9679 64.7428 25.9679 64.5765 25.9679 64.3687Z" fill="#2B418C"/>
<path fill-rule="evenodd" clip-rule="evenodd" d="M15.1292 65.4892C14.8801 67.0273 14.1326 68.2744 13.1775 69.4384C12.7623 69.9373 12.347 70.4777 11.8072 70.8518C11.5581 71.0597 11.5581 71.0597 11.3089 70.8518C10.866 70.5192 10.4369 70.1867 10.0216 69.8541C9.82784 69.7155 9.814 69.577 9.9801 69.4384C10.4369 69.1058 10.7691 68.6902 11.1428 68.2329C11.2259 68.1497 11.3089 68.0666 11.3504 67.8587C11.1013 67.6925 10.8521 67.54 10.603 67.4015C10.2292 67.1936 9.93857 66.861 9.73094 66.4453C9.44027 65.9465 9.44027 65.4061 9.60637 64.8657C9.77247 64.3253 10.0631 63.868 10.3953 63.4523C10.8521 62.9119 11.2674 62.413 11.8487 61.9973C12.264 61.7063 12.7208 61.6232 13.2191 61.7063C13.3852 61.7341 13.5374 61.7756 13.6758 61.831C14.5479 62.0389 15.0047 62.6625 15.1708 63.577C15.2953 64.2006 15.2123 64.8241 15.1292 65.4892ZM13.1775 63.9927C13.053 63.868 12.8453 63.868 12.7208 63.9511C12.264 64.2421 11.9318 64.6163 11.7242 65.1151C11.5996 65.4477 11.7657 65.8218 12.0564 65.9465C12.1394 65.9881 12.2225 65.9881 12.3055 66.0296C12.4301 66.1128 12.5547 66.0712 12.6377 65.9465C13.053 65.5724 13.2191 64.9904 13.3436 64.5747C13.3852 64.2837 13.3436 64.1174 13.1775 63.9927Z" fill="#2B418C"/>
<path d="M56.2011 68.5579C55.7305 68.5856 55.2598 68.5856 54.7892 68.5579C54.4985 68.5579 54.4155 68.4747 54.4985 68.2253C54.6093 67.7265 54.7062 67.2276 54.7892 66.7288C54.8446 66.5625 54.9553 66.4793 55.1214 66.4793C55.7028 66.4793 56.298 66.4793 56.907 66.4793C57.8206 66.4793 58.0282 66.2715 58.1943 65.3154C58.2773 64.9828 58.3604 64.6503 58.3189 64.3177C58.3189 64.0267 58.2358 63.902 57.9451 63.8188C57.779 63.7773 57.5714 63.7773 57.4053 63.7773C56.824 63.7773 56.2426 63.7773 55.6612 63.7773C55.4121 63.7773 55.329 63.6941 55.4121 63.4447C55.4675 63.1122 55.5505 62.7796 55.6612 62.447C55.7858 62.0313 56.035 61.8235 56.4502 61.7403C56.6579 61.7403 56.8655 61.6988 57.0731 61.6988C57.8206 61.6988 58.568 61.7403 59.3155 61.6988C60.1875 61.6572 60.8104 62.4886 60.6858 63.2784C60.6443 63.7357 60.5612 64.1514 60.4782 64.5671C60.3536 65.2322 60.229 65.8974 60.1045 66.5209C59.9384 67.186 59.6062 67.8096 59.0248 68.1422C58.6095 68.3916 58.1943 68.4747 57.7375 68.5163C57.2392 68.5578 56.6994 68.5579 56.2011 68.5994V68.5579Z" fill="#2B418C"/>
<path d="M133.734 59.207C134.398 59.207 135.062 59.207 135.727 59.207C135.851 59.207 135.893 59.2902 135.893 59.4149C135.851 59.8722 135.81 60.2878 135.727 60.7036C135.256 63.1423 134.786 65.5812 134.315 68.0199C134.315 68.1031 134.301 68.1724 134.273 68.2278C134.232 68.4772 134.149 68.5604 133.9 68.5604C133.346 68.5604 132.779 68.5604 132.197 68.5604C131.99 68.5604 131.948 68.4356 131.99 68.2278C132.211 66.9253 132.446 65.6227 132.696 64.3202C132.972 62.8791 133.249 61.4241 133.526 59.9553C133.568 59.7059 133.651 59.498 133.734 59.207Z" fill="#2B418C"/>
<path d="M95.6529 59.2928C95.7359 59.7085 95.6114 60.0826 95.5283 60.4983C95.2376 62.1611 94.9054 63.7824 94.5732 65.4452C94.4071 66.3043 94.2549 67.1496 94.1165 67.981C94.0888 68.0918 94.0611 68.2027 94.0334 68.3136C94.0057 68.4798 93.9088 68.563 93.7427 68.563C93.3275 68.563 92.9122 68.563 92.497 68.563C92.3032 68.563 92.1232 68.563 91.9571 68.563C91.8326 68.563 91.7495 68.4383 91.7495 68.3136C91.8049 68.0641 91.8464 67.8286 91.8741 67.6069C92.2063 65.8609 92.5385 64.1011 92.8707 62.3274C93.0368 61.3852 93.2167 60.4429 93.4105 59.5007C93.4105 59.376 93.4936 59.2512 93.6181 59.2097C93.8673 59.1681 95.3207 59.2097 95.6529 59.2928Z" fill="#2B418C"/>
<path d="M20.8193 62.8525C20.7363 63.3514 20.6117 63.9749 20.4871 64.5985C20.4456 64.8063 20.4041 65.0142 20.3625 65.222C19.9888 67.1758 18.9922 68.7139 17.6634 70.0858C17.4973 70.252 17.2897 70.4183 17.1236 70.5846C16.9575 70.7093 16.7914 70.7509 16.6668 70.6262C16.1685 70.2659 15.684 69.9056 15.2134 69.5453C15.1304 69.4622 15.1304 69.2959 15.2134 69.2128C15.6563 68.8525 16.0578 68.4645 16.4176 68.0488C17.4973 66.8433 18.0786 65.4299 18.3693 63.8086C18.4524 63.2544 18.5354 62.714 18.6185 62.1874C18.66 61.8133 18.7846 61.7301 19.1583 61.8548C19.6289 61.9934 20.0995 62.132 20.5702 62.2705C20.8193 62.3537 20.8608 62.4368 20.8193 62.8525Z" fill="#2B418C"/>
<path d="M30.2457 65.8167C29.9412 65.8167 29.6505 65.8167 29.3736 65.8167C29.2491 65.8167 29.166 65.7336 29.166 65.6088C29.166 65.498 29.1799 65.3733 29.2075 65.2347C29.5674 63.4333 29.9273 61.6042 30.2872 59.7474C30.3702 59.207 30.3702 59.207 30.9516 59.207C31.4222 59.207 31.8928 59.207 32.3635 59.207C32.5849 59.207 32.668 59.3317 32.6126 59.5811C32.4742 60.3017 32.3358 61.0361 32.1974 61.7844C32.0036 62.8098 31.7959 63.8352 31.5745 64.8606C31.5468 65.0546 31.5191 65.2347 31.4914 65.401C31.3669 65.8167 31.3669 65.8167 30.9516 65.8167C30.7301 65.8167 30.4948 65.8167 30.2457 65.8167Z" fill="#2B418C"/>
<path d="M121.4 61.1608C121.262 61.1608 121.123 61.1608 120.985 61.1608C120.404 61.1608 120.404 61.1193 120.487 60.5788C120.57 60.1216 120.57 59.6643 120.819 59.2902C121.193 59.1655 121.566 59.2486 121.94 59.207C122.106 59.207 122.258 59.207 122.397 59.207C122.729 59.2486 122.729 59.2486 122.687 59.6227C122.604 59.9969 122.563 60.371 122.48 60.7451C122.438 61.0361 122.314 61.1193 122.065 61.1608C121.954 61.1608 121.843 61.1608 121.732 61.1608H121.4Z" fill="#2B418C"/>
<path d="M123.85 61.1193C123.656 61.1193 123.476 61.1331 123.31 61.1608C122.854 61.1608 122.895 61.0361 122.937 60.7036C123.02 60.2878 123.103 59.9137 123.144 59.498C123.2 59.304 123.31 59.207 123.476 59.207C123.975 59.207 124.473 59.2209 124.971 59.2486C125.137 59.2486 125.22 59.3733 125.179 59.498C125.124 59.886 125.054 60.274 124.971 60.662C124.888 61.1193 124.847 61.1193 124.431 61.1608C124.238 61.1608 124.044 61.1608 123.85 61.1608V61.1193Z" fill="#2B418C"/>
<path d="M48.1448 59.207C48.2555 59.207 48.3524 59.207 48.4355 59.207C49.266 59.207 49.1414 59.3317 49.0168 59.9137C48.7261 61.3271 49.0583 61.1193 47.688 61.1608C47.4942 61.1608 47.2866 61.147 47.0651 61.1193C46.899 61.1193 46.816 61.0361 46.8575 60.8698C46.9406 60.371 47.0236 59.8721 47.1067 59.3733C47.1482 59.2486 47.2728 59.207 47.3558 59.207C47.6326 59.207 47.8956 59.207 48.1448 59.207Z" fill="#2B418C"/>
<path d="M52.132 71.4905H51.7582C51.1353 71.4905 51.1353 71.4489 51.2599 70.8253C51.3014 70.4928 51.3845 70.1602 51.4675 69.7861C51.5229 69.6198 51.6198 69.5505 51.7582 69.5782C52.2288 69.5782 52.7133 69.5782 53.2116 69.5782C53.3777 69.5782 53.4608 69.6614 53.4192 69.8276C53.3639 70.2988 53.2808 70.7699 53.1701 71.241C53.1701 71.4073 53.0455 71.4489 52.9209 71.4489C52.6441 71.4766 52.3811 71.4766 52.132 71.4489V71.4905Z" fill="#2B418C"/>
<path d="M5.41229 59.2454C5.68912 59.2454 5.95211 59.2454 6.20126 59.2454C6.32584 59.2454 6.40889 59.3701 6.40889 59.4948C6.32584 59.966 6.24279 60.4232 6.15974 60.8666C6.11822 61.0329 6.03517 61.1161 5.86907 61.1161C5.37076 61.1438 4.87246 61.1438 4.37415 61.1161C4.20805 61.1161 4.125 60.9913 4.125 60.8251C4.20805 60.3539 4.30495 59.8828 4.41568 59.4117C4.45721 59.287 4.54025 59.2454 4.66483 59.2454C4.91398 59.2177 5.16313 59.2177 5.41229 59.2454Z" fill="#2B418C"/>
<path d="M49.7634 71.4943C49.5143 71.4943 49.279 71.4804 49.0575 71.4527C48.8914 71.4527 48.7668 71.3696 48.8083 71.2033C48.8637 70.7599 48.9329 70.3164 49.016 69.873C49.0575 69.6652 49.1821 69.582 49.3897 69.582C49.8465 69.582 50.3448 69.582 50.8016 69.582C50.9677 69.582 51.0507 69.7068 51.0507 69.9146C50.9677 70.3303 50.8846 70.7599 50.8016 71.2033C50.8016 71.3696 50.7185 71.4943 50.5109 71.4527C50.2617 71.4527 50.0126 71.4527 49.7634 71.4527V71.4943Z" fill="#2B418C"/>
<path d="M20.0303 59.207C20.2794 59.2902 20.6116 59.1239 20.9023 59.3317C20.9438 59.6227 20.8192 59.9553 20.7777 60.2463C20.7777 60.371 20.7362 60.4541 20.7362 60.5788C20.6116 61.2024 20.6116 61.1608 20.0303 61.1608C19.6427 61.1608 19.2413 61.147 18.826 61.1193C18.6599 61.1193 18.6184 61.0361 18.6184 60.8698C18.7291 60.4264 18.826 59.983 18.9091 59.5396C18.9506 59.2902 19.0337 59.2486 19.2828 59.207C19.4904 59.207 19.7396 59.207 20.0303 59.207Z" fill="#2B418C"/>
<path d="M121.981 58.7549C121.981 58.2144 122.106 57.674 122.23 57.1336C122.23 57.0089 122.313 56.9258 122.438 56.9258C122.936 56.9258 123.448 56.9258 123.974 56.9258C124.141 56.9258 124.224 57.0505 124.224 57.2583C124.141 57.7018 124.057 58.1452 123.974 58.5886C123.933 58.7549 123.85 58.838 123.684 58.838C123.158 58.838 122.632 58.838 122.106 58.838C122.064 58.838 122.023 58.7964 121.981 58.7549Z" fill="#2B418C"/>
<path d="M103.335 59.207C103.529 59.207 103.709 59.207 103.875 59.207C104.29 59.2486 104.332 59.2486 104.249 59.7059C104.166 60.1216 104.083 60.5234 104 60.9114C104 61.0361 103.917 61.1193 103.792 61.1193C103.266 61.1193 102.74 61.1193 102.214 61.1193C102.089 61.1193 102.006 61.0361 102.048 60.9114C102.089 60.662 102.089 60.4541 102.172 60.2047C102.214 59.9137 102.214 59.5396 102.422 59.2486L103.335 59.207Z" fill="#2B418C"/>
<path d="M100.927 59.2486C101.176 59.2209 101.411 59.2209 101.633 59.2486C101.799 59.2486 101.882 59.3317 101.84 59.498C101.785 59.9692 101.716 60.4403 101.633 60.9114C101.591 61.0361 101.508 61.1193 101.383 61.1193C100.857 61.1193 100.331 61.1193 99.8055 61.1193C99.7225 61.1193 99.6394 61.0361 99.6394 60.953C99.6394 60.8976 99.6394 60.8421 99.6394 60.7867C99.6948 60.3987 99.7501 60.0246 99.8055 59.6643C99.8886 59.3317 100.013 59.2486 100.304 59.207C100.525 59.207 100.733 59.207 100.927 59.207V59.2486Z" fill="#2B418C"/>
<path d="M45.4041 61.1109C45.1273 61.1109 44.8504 61.1109 44.5736 61.1109C44.4906 61.1109 44.4075 61.0278 44.449 60.9446C44.5321 60.4181 44.629 59.8915 44.7397 59.3649C44.7397 59.2818 44.8228 59.2402 44.9058 59.2402C45.4318 59.2402 45.9716 59.2402 46.5253 59.2402C46.6083 59.2402 46.6914 59.3234 46.6914 59.4481C46.6083 59.9192 46.5253 60.3904 46.4422 60.8615C46.4007 61.0278 46.3177 61.1525 46.11 61.1525C45.8886 61.1248 45.6533 61.1248 45.4041 61.1525V61.1109Z" fill="#2B418C"/>
<path d="M31.2842 58.496C31.0627 58.496 30.8551 58.496 30.6613 58.496C30.5367 58.496 30.3706 58.5375 30.3291 58.3713C30.2876 58.1634 30.4121 57.914 30.5782 57.8724C30.6613 57.8447 30.7305 57.8447 30.7859 57.8724C31.035 57.914 31.1181 57.7061 31.1596 57.4983C31.2011 57.3735 31.2011 57.2904 31.2426 57.1657C31.2842 56.8331 31.4087 56.75 31.7409 56.75C31.9901 56.75 32.2393 56.75 32.4884 56.75C32.696 56.75 32.8206 56.8747 32.8206 56.9994C32.8206 57.1657 32.696 57.3736 32.5299 57.4151C32.4469 57.4151 32.3223 57.4151 32.2393 57.4151C32.1562 57.4567 32.1147 57.4567 32.0732 57.4983C32.0316 57.5398 32.0316 57.623 31.9901 57.7061C31.9901 57.7893 32.0732 57.8308 32.1147 57.8308C32.1977 57.8308 32.2808 57.8308 32.3638 57.8308C32.613 57.8724 32.696 58.0803 32.5715 58.2881C32.4469 58.4128 32.3638 58.496 32.1977 58.496C31.8932 58.496 31.5887 58.496 31.2842 58.496Z" fill="#2B418C"/>
</g>
<defs>
<clipPath id="clip0_834_1604">
<rect width="90.2041" height="52" fill="white" transform="translate(22.8979)"/>
</clipPath>
<clipPath id="clip1_834_1604">
<rect width="136" height="16" fill="white" transform="translate(0 56)"/>
</clipPath>
</defs>
</svg>
