<svg width="85" height="46" viewBox="0 0 85 46" fill="none" xmlns="http://www.w3.org/2000/svg">
<g clip-path="url(#clip0_802_1136)">
<path d="M20.0721 32.6596C19.7347 32.6596 19.4492 32.5394 19.1378 32.4433C18.2294 32.1548 17.3728 31.7703 16.5683 31.2656C15.7637 30.7608 15.0629 30.16 14.414 29.511C13.6354 28.7099 13.0038 27.8206 12.5193 26.8432C12.0175 25.8497 11.6628 24.8002 11.4552 23.6946C11.2995 22.7813 11.2994 21.8439 11.3514 20.9306C11.4033 19.9692 11.6109 19.0559 11.9483 18.1425C12.5712 16.3399 13.6094 14.8017 15.0369 13.5279C16.1097 12.5665 17.3209 11.8374 18.6706 11.3407C19.1724 11.1644 19.6828 11.0202 20.2019 10.9081C21.0844 10.7398 21.9668 10.6197 22.8752 10.6437C23.2127 10.6677 23.5241 10.7158 23.8615 10.7398C24.2768 10.7879 24.6661 10.884 25.0554 10.9321C25.1333 10.9561 25.2371 10.9561 25.315 11.0282C25.4188 11.2205 25.3409 11.3888 25.289 11.581C24.943 13.0231 24.5969 14.4652 24.2508 15.9073C24.2249 16.0515 24.2249 16.2438 24.0173 16.2919C23.8875 16.2678 23.7837 16.2919 23.6539 16.2438C23.1607 16.0996 22.6417 16.0996 22.1226 16.1477C21.7851 16.1477 21.4737 16.2198 21.1622 16.2919C20.5912 16.4361 20.0202 16.6764 19.5271 16.9889C18.6187 17.5657 17.9179 18.3108 17.4507 19.2481C16.9057 20.3297 16.724 21.4594 16.8797 22.6371C16.9576 23.1658 17.1133 23.6706 17.3469 24.1753C17.7622 25.0886 18.3851 25.8337 19.1897 26.4105C19.7953 26.8592 20.4701 27.1716 21.2141 27.3479C21.2661 27.3479 21.318 27.3479 21.3439 27.396C21.4477 27.5642 21.3699 27.7084 21.3439 27.8766C20.9806 29.3668 20.6172 30.8329 20.2538 32.3231C20.2279 32.4673 20.176 32.5875 20.0721 32.6596Z" fill="#E02626"/>
<path d="M27.8317 11.9941C28.5325 12.3547 29.1554 12.7873 29.7264 13.268C30.8424 14.1813 31.7249 15.2629 32.3997 16.5127C32.9707 17.5222 33.3341 18.6037 33.5677 19.7334C33.6974 20.3102 33.6974 20.9111 33.7753 21.4879C33.7926 21.7763 33.784 22.0808 33.7494 22.4012C33.6974 22.7137 33.6974 23.0261 33.6455 23.3386C33.5677 23.9635 33.4119 24.5884 33.2303 25.1893C32.815 26.4871 32.1661 27.6648 31.3096 28.7464C30.1157 30.2366 28.6363 31.3662 26.8454 32.1113C25.937 32.4958 25.0026 32.7362 24.0423 32.8564C23.7049 32.9044 23.3675 32.9044 23.0301 32.9525C22.9262 32.9765 22.8743 32.9044 22.9003 32.7843C23.0387 32.1754 23.1858 31.5665 23.3415 30.9576C23.5319 30.0924 23.7222 29.2271 23.9125 28.3619C23.9904 28.0494 24.0942 27.7369 24.1461 27.4245C24.198 27.3043 24.2499 27.2322 24.3797 27.2082C24.6739 27.096 24.9594 26.9678 25.2362 26.8236C26.9233 25.8863 27.9095 24.4442 28.1951 22.5695C28.3248 21.7523 28.247 20.9351 27.9874 20.1419C27.7279 19.2767 27.2866 18.5076 26.6378 17.8827C26.482 17.7144 26.4561 17.5702 26.508 17.3779C26.6291 16.8812 26.7416 16.3925 26.8454 15.9118C27.1049 14.8062 27.3558 13.7086 27.5981 12.619C27.65 12.4268 27.7019 12.2105 27.8317 11.9941Z" fill="#2B418C"/>
<path d="M64.7651 19.0576C65.3188 18.5449 65.9244 18.1203 66.5818 17.7838C67.049 17.5195 67.5421 17.3753 68.0612 17.2551C68.4764 17.183 68.8917 17.207 69.3329 17.2311C69.7481 17.2311 70.1374 17.3512 70.5267 17.4954C71.1236 17.7358 71.5389 18.1684 71.7465 18.7451C72.006 19.394 72.0579 20.0429 72.006 20.7399C71.9022 21.6532 71.7205 22.5424 71.5389 23.4316C71.3831 24.2007 71.2534 24.9697 71.0977 25.7388C70.9679 26.4838 70.7862 27.2288 70.6565 27.9739C70.5873 28.3424 70.518 28.7109 70.4488 29.0794C70.4488 29.1274 70.4402 29.1755 70.4229 29.2236C70.371 29.3918 70.3191 29.4399 70.1634 29.4158C69.8519 29.3918 69.5405 29.3918 69.2031 29.3437C68.8138 29.2957 68.3986 29.3197 67.9833 29.3437C67.6719 29.3758 67.3604 29.4078 67.049 29.4399C66.9106 29.4399 66.8587 29.3758 66.8933 29.2476C67.1701 27.8377 67.4469 26.4357 67.7238 25.0418C67.8276 24.3929 67.9574 23.7681 68.0612 23.1192C68.139 22.7827 68.2169 22.4462 68.2688 22.1098C68.3207 21.6051 68.3726 21.1004 68.2947 20.5717C68.2601 20.3794 68.1909 20.1951 68.0871 20.0189C67.9054 19.6584 67.62 19.4421 67.2566 19.394C66.7895 19.346 66.3223 19.346 65.8811 19.5623C65.414 19.7786 65.1025 20.1391 64.8689 20.5957C64.5575 21.2206 64.3239 21.8935 64.1423 22.5664C63.8308 23.744 63.6492 24.9457 63.4156 26.1473C63.3377 26.5319 63.2339 26.9164 63.156 27.3009C63.0349 27.9258 62.9138 28.5507 62.7927 29.1755C62.7754 29.2236 62.7668 29.2716 62.7668 29.3197C62.7408 29.3918 62.6889 29.4399 62.611 29.4158C62.3256 29.4158 62.0141 29.4158 61.7286 29.3678C61.2355 29.3197 60.7424 29.3197 60.2493 29.3678C59.9638 29.4158 59.6784 29.4158 59.3669 29.4399C59.2891 29.4399 59.2371 29.3678 59.2631 29.2717C59.315 29.0153 59.3669 28.7509 59.4188 28.4786C59.6091 27.4852 59.8081 26.4918 60.0157 25.4985C60.2234 24.3769 60.4396 23.2634 60.6646 22.1579C60.9068 20.8921 61.149 19.6344 61.3912 18.3846C61.4258 18.1443 61.4691 17.912 61.521 17.6877C61.5729 17.4954 61.5989 17.4714 61.8065 17.4714C61.9622 17.4714 62.1439 17.4714 62.3256 17.4954C62.9484 17.5595 63.5713 17.5595 64.1942 17.4954C64.4018 17.4714 64.5835 17.4714 64.7911 17.4714C64.8949 17.4714 64.9468 17.5195 64.9209 17.6156C64.9209 17.7358 64.8949 17.8319 64.8689 17.928C64.7997 18.2805 64.7392 18.633 64.6873 18.9855C64.6613 19.0816 64.6613 19.1056 64.7651 19.0576Z" fill="#2B418C"/>
<path fill-rule="evenodd" clip-rule="evenodd" d="M58.458 22.2065C58.4061 22.8554 58.3023 23.5043 58.0946 24.1532C57.5496 25.9076 56.5634 27.3977 55.0062 28.4552C53.8384 29.2242 52.5667 29.6568 51.1652 29.6568C50.6202 29.6568 50.0752 29.6568 49.5302 29.5607C48.7256 29.3925 47.973 29.1281 47.3501 28.5994C46.6494 28.0466 46.2082 27.3256 46.0006 26.4604C45.7929 25.6433 45.8189 24.8021 45.9487 23.961C46.1563 22.7112 46.5715 21.5336 47.2723 20.4762C48.1547 19.1303 49.3485 18.145 50.8797 17.6162C51.6843 17.3278 52.5148 17.1836 53.3712 17.2077C54.1498 17.2077 54.9024 17.3038 55.6291 17.5441C56.823 17.9527 57.6794 18.6977 58.1725 19.8513C58.458 20.6204 58.5359 21.3894 58.458 22.2065ZM54.7986 19.8994C54.7986 19.7071 54.7208 19.4908 54.6429 19.2985C54.4353 18.8179 54.0719 18.4574 53.501 18.4093C52.8781 18.3613 52.3331 18.5055 51.84 18.914C51.3728 19.2985 51.0354 19.8032 50.7759 20.332C50.4645 20.9568 50.2568 21.6057 50.0752 22.2787C49.8156 23.288 49.608 24.3215 49.5042 25.3549C49.4523 25.9317 49.4783 26.5085 49.608 27.0853C49.6599 27.3256 49.7118 27.5419 49.8416 27.7582C50.0752 28.1427 50.3866 28.4071 50.8538 28.4552C51.3555 28.5192 51.8227 28.3991 52.2552 28.0947C52.6705 27.8063 52.956 27.3977 53.2155 26.9651C53.5269 26.4204 53.7865 25.8516 53.9941 25.2588C54.3055 24.3695 54.565 23.4563 54.7208 22.519C54.8246 21.9662 54.9024 21.4135 54.9024 20.7405C54.9284 20.5242 54.8505 20.2118 54.7986 19.8994Z" fill="#2B418C"/>
<path fill-rule="evenodd" clip-rule="evenodd" d="M84.9058 20.9555C84.9058 21.7245 84.828 22.4936 84.5944 23.2627C84.5425 23.503 84.5425 23.503 84.283 23.503H77.8726C77.7947 23.503 77.6909 23.503 77.6131 23.503C77.5092 23.503 77.4573 23.5511 77.4314 23.6712C77.4054 23.8395 77.3535 23.9837 77.3276 24.1759C77.2497 24.7768 77.1719 25.4016 77.3016 26.0265C77.4833 26.9397 77.9764 27.6127 78.9107 27.853C79.4298 27.9732 79.9488 28.0212 80.4938 27.9491C81.3503 27.8049 82.1289 27.4925 82.8556 27.0359C82.8902 27.0198 82.9161 27.0038 82.9334 26.9878C83.1151 26.8917 83.2708 26.9397 83.3487 27.132C83.3746 27.156 83.3487 27.2041 83.3487 27.2281C83.1064 27.6287 82.8642 28.0292 82.622 28.4298C82.5701 28.5259 82.4922 28.598 82.3624 28.6701C81.9732 28.9105 81.532 29.1027 81.0908 29.2469C80.3122 29.5113 79.5076 29.6795 78.6771 29.6555C77.9504 29.6555 77.2497 29.5834 76.5749 29.3911C74.9832 28.8784 74.0229 27.8129 73.6942 26.1947C73.5644 25.6179 73.5644 25.0651 73.5903 24.4884C73.6423 23.3588 73.9018 22.2773 74.3949 21.2439C74.9399 20.0422 75.7444 19.0569 76.8345 18.3118C77.6131 17.8072 78.4436 17.4947 79.3519 17.3265C80.1045 17.1823 80.8312 17.1823 81.5839 17.2544C82.3105 17.3505 83.0113 17.5668 83.6082 18.0234C84.0494 18.3599 84.3349 18.7925 84.5685 19.2732C84.802 19.8019 84.8799 20.3787 84.9058 20.9555ZM81.4022 19.177C81.3503 19.0168 81.2811 18.8726 81.1946 18.7444C81.0648 18.5762 80.9091 18.456 80.7015 18.432C80.1564 18.3118 79.6633 18.4801 79.2481 18.8165C78.9626 19.0328 78.7809 19.3453 78.6252 19.6817C78.2619 20.3547 78.0024 21.0757 77.7947 21.8207C77.7774 21.9168 77.7601 22.0049 77.7428 22.085C77.7082 22.1812 77.7428 22.2373 77.8466 22.2533H79.5076C80.0267 22.2533 80.5544 22.2533 81.0908 22.2533C81.2724 22.2533 81.2724 22.2292 81.3243 22.085C81.3416 21.9569 81.3676 21.8287 81.4022 21.7005C81.4281 21.4121 81.4801 21.1237 81.506 20.8353C81.5579 20.2826 81.5579 19.7298 81.4022 19.177Z" fill="#2B418C"/>
<path d="M37.824 29.3245C36.1457 29.3245 34.4674 29.3245 32.7891 29.3245C32.4258 29.3245 32.4258 29.3245 32.5036 28.964C32.5296 28.7477 32.5296 28.5074 32.6334 28.3151C32.7372 28.0988 32.9189 27.9306 33.1006 27.7624C34.1387 26.5847 35.2027 25.4312 36.2409 24.2776C37.0973 23.3162 37.9538 22.3549 38.7843 21.3936C39.4244 20.6726 40.056 19.9516 40.6788 19.2306C40.7307 19.1665 40.7826 19.1024 40.8345 19.0384C40.8605 19.0143 40.8086 18.9422 40.7567 18.9422C40.7394 18.9422 40.7134 18.9422 40.6788 18.9422C39.6407 18.9663 38.6026 19.0143 37.5645 19.0384C36.8378 19.0624 36.1371 19.1345 35.4363 19.1826C35.419 19.1826 35.4104 19.1826 35.4104 19.1826C35.2806 19.1826 35.2287 19.1104 35.2546 19.0143C35.272 18.9502 35.2979 18.8861 35.3325 18.8221C35.4882 18.5337 35.5142 18.1972 35.5142 17.8607C35.5142 17.4281 35.5401 17.4762 35.9035 17.4762C39.0697 17.4762 42.2274 17.4762 45.3763 17.4762C45.4542 17.4762 45.5061 17.4762 45.5839 17.4762C45.6878 17.4762 45.731 17.5243 45.7137 17.6204C45.6791 17.8607 45.6358 18.093 45.5839 18.3174C45.558 18.4375 45.5061 18.5096 45.4282 18.6058C45.0995 18.9743 44.7621 19.3508 44.4161 19.7353C43.6202 20.6005 42.8329 21.4657 42.0543 22.3309C41.3536 23.0759 40.6788 23.8209 39.9781 24.59C39.1216 25.5754 38.2652 26.5607 37.4088 27.5461C37.3568 27.5941 37.3049 27.6502 37.253 27.7143C37.253 27.7624 37.253 27.8104 37.3049 27.8104C37.3915 27.8104 37.4693 27.8104 37.5385 27.8104C38.0576 27.8104 38.5507 27.8345 39.0697 27.8104C39.8137 27.7944 40.5664 27.7624 41.3277 27.7143C41.9505 27.6903 42.5734 27.6422 43.1963 27.5941C43.2655 27.5941 43.3347 27.5941 43.4039 27.5941C43.4818 27.5941 43.5337 27.6662 43.5077 27.7624C43.4558 27.8825 43.4039 28.0027 43.352 28.1229C43.2741 28.4113 43.2741 28.7237 43.2222 29.0121C43.2222 29.0842 43.2222 29.1563 43.1963 29.2284C43.1963 29.3005 43.1444 29.3245 43.0665 29.3245C42.98 29.3245 42.8848 29.3245 42.781 29.3245H37.824Z" fill="#2B418C"/>
<path d="M20.7722 20.0965C20.4089 20.0244 20.0974 20.0244 19.786 19.9283C19.7081 19.9042 19.6562 19.8802 19.6822 19.7841C19.8119 19.1352 20.0974 18.5584 20.6684 18.1258C21.1356 17.7893 21.6546 17.6451 22.2256 17.6211C22.8744 17.6211 23.4454 17.7653 23.9644 18.1498C24.6652 18.7026 24.9247 19.4476 24.7949 20.2888C24.743 20.6493 24.5613 20.9617 24.3018 21.178C24.1461 21.3222 23.9904 21.4424 23.8347 21.5625C23.8087 21.6346 23.8866 21.6346 23.9385 21.6346C23.9644 21.6827 24.0163 21.6827 24.0682 21.7067C24.7171 21.9951 25.0545 22.5238 25.2102 23.1968C25.4697 24.3984 24.769 25.6001 23.7049 26.1048C22.7965 26.5374 21.6027 26.4893 20.7982 26.0086C20.1493 25.6001 19.76 25.0233 19.6043 24.3023C19.5784 24.2062 19.5784 24.1341 19.5784 24.062C19.5784 23.9658 19.6303 23.9178 19.7341 23.8937C19.9936 23.8697 20.2531 23.8216 20.5127 23.7976C20.6165 23.7736 20.6684 23.8216 20.7203 23.9418C20.7722 24.1501 20.8414 24.3584 20.9279 24.5667C21.2134 25.1435 21.6546 25.4318 22.2775 25.4559C23.1858 25.5039 23.9125 24.7589 24.0163 24.062C24.0942 23.5092 23.9904 23.0285 23.627 22.62C23.2377 22.1874 22.7187 22.0672 22.1477 22.1153C22.1218 22.1153 22.0958 22.1393 22.0699 22.1393C21.6287 22.2354 21.6546 22.2114 21.6806 21.8029C21.6806 21.7708 21.6806 21.7388 21.6806 21.7067C21.7065 21.5625 21.7065 21.4183 21.7844 21.2982C21.8622 21.178 22.0439 21.2501 22.1996 21.2261C22.537 21.178 22.8744 21.0819 23.1599 20.8896C23.4454 20.6973 23.6011 20.4089 23.653 20.0965C23.7309 19.5918 23.6011 19.1592 23.1599 18.8227C22.9782 18.7026 22.7706 18.6065 22.537 18.5824C22.4332 18.5824 22.3294 18.5824 22.2256 18.5824C21.6027 18.6065 21.1615 18.9189 20.9539 19.4957C20.876 19.6879 20.8241 19.8802 20.7722 20.0965Z" fill="#2B418C"/>
<path d="M20.0712 32.6617C20.4691 30.9954 20.8671 29.3291 21.265 27.6628C21.2996 27.5827 21.3256 27.4946 21.3429 27.3984C21.7062 27.4225 22.0436 27.5186 22.381 27.4946C22.7184 27.4705 23.0558 27.5186 23.3931 27.4225C23.471 27.3984 23.5489 27.4705 23.5229 27.5667C23.5056 27.6788 23.4797 27.799 23.4451 27.9272C23.2893 28.6161 23.1336 29.3051 22.9779 29.994C22.753 30.9233 22.5367 31.8526 22.3291 32.7819C22.2772 32.9261 22.2253 32.9741 22.0695 32.9741C21.4207 32.9261 20.7978 32.854 20.175 32.7338C20.1231 32.7098 20.0971 32.6857 20.0712 32.6617Z" fill="#2B418C"/>
<path d="M24.0171 16.2984C24.1469 15.8178 24.2766 15.3611 24.3804 14.8805C24.6746 13.6468 24.9773 12.4211 25.2888 11.2034C25.2888 11.1393 25.2974 11.0832 25.3147 11.0352C25.6781 11.0832 26.0414 11.2274 26.4048 11.3716C26.6383 11.4437 26.82 11.5158 27.0536 11.612C27.2093 11.6841 27.2353 11.7321 27.2093 11.9244C27.1055 12.373 27.0017 12.8216 26.8979 13.2702C26.6729 14.1995 26.448 15.1368 26.2231 16.0821C26.1539 16.4026 26.0847 16.723 26.0155 17.0434C25.9636 17.1876 25.9117 17.2117 25.7819 17.1396C25.7646 17.1236 25.7473 17.1155 25.73 17.1155C25.2369 16.7791 24.6919 16.5147 24.1209 16.3705C24.069 16.3465 24.043 16.3224 24.0171 16.2984Z" fill="#2B418C"/>
<path d="M17.5284 6.80078C18.5406 6.82481 19.2153 7.54581 19.2413 8.4831C19.2672 9.56459 18.3848 10.1654 17.5284 10.1654C16.7758 10.1654 15.8674 9.56458 15.8415 8.53116C15.8155 7.6179 16.5941 6.82481 17.5284 6.80078Z" fill="#B8B6B7"/>
<path d="M6.75647 19.71C6.80838 18.5805 7.76864 17.8835 8.85867 18.0998C9.50749 18.22 10.1563 18.8689 10.1563 19.71C10.1563 20.5271 9.63725 21.152 8.80676 21.3683C7.76864 21.6086 6.93814 20.7915 6.80838 20.0705C6.78243 19.9263 6.70457 19.8062 6.75647 19.71Z" fill="#B8B6B7"/>
<path d="M10.3128 27.3457C11.325 27.3457 12.0257 28.1148 12.0257 29.028C12.0257 30.0855 11.1173 30.7103 10.3647 30.7103C9.40444 30.7103 8.72967 30.0374 8.62585 29.028C8.67776 28.2349 9.19682 27.3457 10.3128 27.3457Z" fill="#B8B6B7"/>
<path d="M6.88619 24.3722C6.88619 23.9156 7.04191 23.507 7.37929 23.1946C7.66478 22.9062 8.02812 22.6899 8.41741 22.6899C9.68911 22.6659 10.286 23.5791 10.2601 24.3482C10.2601 25.2855 9.6372 26.0546 8.49527 26.0546C7.45715 26.0305 6.86024 25.1413 6.88619 24.3722Z" fill="#B8B6B7"/>
<path d="M10.079 16.6127C9.11877 16.6848 8.39209 15.7715 8.39209 14.9544C8.41804 13.945 9.24854 13.2481 10.105 13.2721C10.9614 13.2721 11.7919 13.969 11.7919 14.9304C11.7919 15.8436 10.9874 16.6608 10.079 16.6127Z" fill="#B8B6B7"/>
<path d="M29.5444 35.1124C29.5963 35.9055 28.8956 36.8188 27.8056 36.7707C26.8972 36.7467 26.1186 36.0016 26.1705 35.0163C26.2225 34.079 26.9751 33.382 27.9613 33.4301C28.8697 33.4781 29.5444 34.2472 29.5444 35.1124Z" fill="#B8B6B7"/>
<path d="M13.5572 31.1271C14.4655 31.079 15.2701 31.8721 15.2701 32.8094C15.2701 33.5785 14.5694 34.4917 13.5831 34.4917C12.5191 34.4677 11.9221 33.6265 11.8702 32.8575C11.8443 31.8481 12.6488 31.103 13.5572 31.1271Z" fill="#B8B6B7"/>
<path d="M27.443 10.0189C26.5606 10.0189 25.782 9.24982 25.782 8.3606C25.782 7.27911 26.7682 6.63021 27.5208 6.67828C28.5849 6.72634 29.1559 7.47137 29.2078 8.3606C29.078 9.32192 28.533 10.0189 27.443 10.0189Z" fill="#B8B6B7"/>
<path d="M21.006 36.0318C20.9541 35.2387 21.7067 34.3495 22.667 34.3735C23.6273 34.3735 24.3539 35.0945 24.3799 36.0558C24.4059 36.9451 23.5754 37.7862 22.7189 37.7622C21.6289 37.7382 20.9282 36.873 21.006 36.0318Z" fill="#B8B6B7"/>
<path d="M21.0059 7.49736C20.928 6.75233 21.7066 5.81504 22.6929 5.8631C23.8088 5.91117 24.3279 6.68023 24.4057 7.56946C24.3019 8.60288 23.4974 9.25177 22.6409 9.22774C21.6807 9.22774 20.928 8.36255 21.0059 7.49736Z" fill="#B8B6B7"/>
<path d="M30.168 10.7917C30.142 9.75827 31.0244 9.10938 31.8809 9.10938C32.8671 9.13341 33.5678 9.95053 33.5678 10.7917C33.5678 11.6088 32.8152 12.474 31.8549 12.474C30.8947 12.474 30.1161 11.6329 30.168 10.7917Z" fill="#B8B6B7"/>
<path d="M36.7864 14.5618C36.8123 15.5471 35.904 16.2441 35.0735 16.2201C34.1911 16.2201 33.3606 15.5231 33.4125 14.4897C33.4384 13.6245 34.0613 12.8554 35.1254 12.8795C36.1894 12.9035 36.8123 13.7687 36.7864 14.5618Z" fill="#B8B6B7"/>
<path d="M13.2453 12.7416C12.2591 12.6935 11.5583 11.9966 11.5583 11.0352C11.5843 10.122 12.3369 9.37695 13.3232 9.37695C14.1536 9.37695 14.9841 10.1941 14.9582 11.0833C14.9063 12.1167 14.0498 12.7416 13.2453 12.7416Z" fill="#B8B6B7"/>
<path d="M32.1401 34.2024C31.2577 34.2264 30.4791 33.5295 30.4531 32.5441C30.4531 31.6789 31.1539 30.8618 32.166 30.8618C33.1003 30.8378 33.8789 31.727 33.853 32.5201C33.853 33.4574 33.1003 34.2264 32.1401 34.2024Z" fill="#B8B6B7"/>
<path d="M19.6042 35.2311C19.6042 36.1204 18.9295 36.9135 17.8913 36.9135C17.0349 36.9135 16.2563 36.1925 16.2303 35.2311C16.2303 34.2458 17.0868 33.5488 17.9173 33.5488C18.9295 33.5488 19.6561 34.39 19.6042 35.2311Z" fill="#B8B6B7"/>
<path d="M17.7354 39.2382C17.7354 39.839 17.1903 40.3677 16.5675 40.3677C15.9446 40.3677 15.4255 39.839 15.4255 39.2141C15.4255 38.5893 15.9186 38.0605 16.6194 38.0605C17.2682 38.0846 17.7613 38.7094 17.7354 39.2382Z" fill="#B8B6B7"/>
<path d="M6.70512 32.3503C6.08224 32.3503 5.53723 31.8216 5.53723 31.2208C5.56318 30.5719 6.08224 30.0432 6.73107 30.0672C7.32798 30.0672 7.84705 30.5959 7.84705 31.2208C7.873 31.8216 7.35394 32.3263 6.70512 32.3503Z" fill="#B8B6B7"/>
<path d="M21.6027 40.2428C21.5508 39.6901 22.0439 39.1373 22.7447 39.1133C23.3416 39.1133 23.9126 39.6661 23.8866 40.2669C23.8607 41.0359 23.2378 41.4445 22.6928 41.4205C22.0699 41.3964 21.5768 40.8917 21.6027 40.2428Z" fill="#B8B6B7"/>
<path d="M28.8708 3.22461C29.4417 3.24864 30.0127 3.68124 30.0127 4.40224C29.9867 5.14726 29.3639 5.53179 28.8448 5.50776C28.1441 5.50776 27.7029 5.00306 27.7029 4.35417C27.7029 3.56108 28.3517 3.22461 28.8708 3.22461Z" fill="#B8B6B7"/>
<path d="M22.6928 2.57617C23.2897 2.6002 23.8607 3.0328 23.8607 3.75379C23.8348 4.47479 23.2119 4.88335 22.6928 4.85932C21.9661 4.83528 21.5249 4.35462 21.5509 3.6817C21.5509 2.91264 22.1997 2.57617 22.6928 2.57617Z" fill="#B8B6B7"/>
<path d="M29.4155 40.1386C28.7927 40.1386 28.2476 39.6099 28.2736 39.0091C28.2995 38.24 28.8705 37.8795 29.4674 37.8555C30.0644 37.8555 30.6094 38.4082 30.5834 38.985C30.5834 39.6579 30.0644 40.1386 29.4155 40.1386Z" fill="#B8B6B7"/>
<path d="M39.9006 12.3743C39.8746 12.9992 39.3815 13.5039 38.7327 13.5279C38.1098 13.5279 37.5648 12.9992 37.5907 12.3743C37.5907 11.6293 38.2136 11.2207 38.7067 11.2207C39.3555 11.2207 39.9006 11.7494 39.9006 12.3743Z" fill="#B8B6B7"/>
<path d="M36.1375 35.72C36.1634 36.2968 35.5146 36.8495 34.9696 36.8255C34.3207 36.8015 33.8276 36.2727 33.8276 35.6239C33.8276 35.0471 34.4246 34.4943 35.0215 34.5183C35.6443 34.5664 36.1375 35.0951 36.1375 35.72Z" fill="#B8B6B7"/>
<path d="M12.077 36.0833C12.077 36.6601 11.5839 37.2128 10.9351 37.2128C10.416 37.2369 9.76721 36.8523 9.76721 36.0592C9.76721 35.4344 10.2863 34.9297 10.9091 34.9297C11.558 34.9297 12.077 35.5065 12.077 36.0833Z" fill="#B8B6B7"/>
<path d="M35.6446 7.4974C35.6446 8.14629 35.1515 8.62695 34.5286 8.65098C33.9576 8.67501 33.3607 8.17032 33.3607 7.4974C33.3607 6.94463 33.8538 6.39187 34.4767 6.36784C35.2293 6.3438 35.6965 6.9927 35.6446 7.4974Z" fill="#B8B6B7"/>
<path d="M4.21355 20.2797C3.61663 20.2797 3.07162 19.727 3.09757 19.1261C3.12352 18.5013 3.66854 17.9726 4.26546 18.0206C4.91428 18.0447 5.40739 18.4773 5.40739 19.1502C5.43334 19.751 4.88833 20.3278 4.21355 20.2797Z" fill="#B8B6B7"/>
<path d="M10.4423 9.06341C9.76752 9.06341 9.27441 8.53468 9.27441 7.88579C9.30037 7.28496 9.84538 6.7322 10.4423 6.78026C11.1949 6.82833 11.5842 7.40512 11.5842 7.93385C11.5583 8.53468 11.0652 9.06341 10.4423 9.06341Z" fill="#B8B6B7"/>
<path d="M5.56239 25.1927C5.53643 25.8175 5.06928 26.3222 4.3945 26.3222C3.84949 26.3222 3.25257 25.8896 3.27853 25.1686C3.27853 24.5678 3.71973 24.0391 4.42046 24.0391C4.99142 24.0391 5.56239 24.4957 5.56239 25.1927Z" fill="#B8B6B7"/>
<path d="M6.36698 11.8289C6.98985 11.8289 7.48296 12.3336 7.48296 12.9825C7.50891 13.5352 7.04176 14.088 6.34103 14.088C5.74411 14.088 5.1991 13.6073 5.1991 12.9344C5.1991 12.3816 5.71816 11.7808 6.36698 11.8289Z" fill="#B8B6B7"/>
<path d="M17.1132 4.59596C17.1392 5.22082 16.6201 5.72552 15.9972 5.72552C15.3225 5.72552 14.8293 5.22082 14.8293 4.57192C14.8293 3.94706 15.2705 3.49044 15.9453 3.44237C16.5682 3.3943 17.1132 3.94706 17.1132 4.59596Z" fill="#B8B6B7"/>
<path d="M22.7189 44.3204C22.2777 44.3204 21.9403 43.984 21.9403 43.5273C21.9403 43.1428 22.3296 42.7583 22.7189 42.7823C23.1601 42.8064 23.5234 43.1188 23.5234 43.5514C23.5494 43.9599 23.1601 44.3204 22.7189 44.3204Z" fill="#B8B6B7"/>
<path d="M0.968499 17.9082C1.4097 17.9322 1.77304 18.2687 1.74709 18.6773C1.74709 19.1099 1.38375 19.4704 0.942546 19.4463C0.527298 19.4463 0.163956 19.1099 0.189909 18.7013C0.215862 18.1726 0.527298 17.9563 0.968499 17.9082Z" fill="#B8B6B7"/>
<path d="M41.5881 11.486C41.1988 11.486 40.7836 11.0774 40.7836 10.6929C40.8095 10.3084 41.1729 9.92383 41.5622 9.92383C42.0553 9.92383 42.3667 10.3324 42.3667 10.6929C42.3927 11.1014 42.0034 11.486 41.5881 11.486Z" fill="#B8B6B7"/>
<path d="M9.58592 38.629C9.58592 39.0136 9.19663 39.4221 8.83329 39.4221C8.36613 39.3981 8.02874 38.9655 8.02874 38.629C8.00279 38.2685 8.34018 37.8359 8.83329 37.8359C9.24854 37.86 9.58592 38.2205 9.58592 38.629Z" fill="#B8B6B7"/>
<path d="M37.9545 38.151C37.9545 38.5596 37.5392 38.9682 37.1499 38.9441C36.7606 38.9441 36.3713 38.5356 36.3713 38.127C36.3713 37.7185 36.8385 37.358 37.2018 37.382C37.5911 37.406 37.9804 37.7905 37.9545 38.151Z" fill="#B8B6B7"/>
<path d="M4.2134 11.4134C4.18744 11.822 3.85005 12.1585 3.43481 12.1585C2.99361 12.1344 2.63026 11.7739 2.65622 11.3654C2.65622 10.9808 3.04551 10.5723 3.40886 10.5723C3.87601 10.5723 4.2134 10.9328 4.2134 11.4134Z" fill="#B8B6B7"/>
<path d="M3.0459 32.8765C3.0459 32.4199 3.51305 32.1074 3.85044 32.1074C4.29164 32.1074 4.60308 32.4439 4.62903 32.9005C4.62903 33.285 4.31759 33.6455 3.82449 33.6455C3.40924 33.6455 3.0459 33.285 3.0459 32.8765Z" fill="#B8B6B7"/>
<path d="M36.6308 4.20312C37.072 4.20312 37.4093 4.56363 37.4093 4.99622C37.4093 5.38075 37.0201 5.76528 36.6308 5.74124C36.2674 5.74124 35.8262 5.45285 35.8522 4.97219C35.8522 4.53959 36.1896 4.20312 36.6308 4.20312Z" fill="#B8B6B7"/>
<path d="M29.6487 1.20508C30.0639 1.20508 30.4013 1.56558 30.4013 1.99818C30.4013 2.38271 30.038 2.76723 29.6487 2.76723C29.2594 2.7432 28.8441 2.47884 28.8441 1.97414C28.8701 1.54154 29.2075 1.20508 29.6487 1.20508Z" fill="#B8B6B7"/>
<path d="M22.7186 0C23.1339 0 23.4712 0.360501 23.4712 0.793097C23.4712 1.17763 23.0819 1.56215 22.6927 1.56215C22.3293 1.53812 21.9141 1.27376 21.9141 0.769063C21.94 0.336467 22.2774 0 22.7186 0Z" fill="#B8B6B7"/>
<path d="M14.6471 1.20508C15.0623 1.20508 15.3997 1.56558 15.3997 1.99818C15.3997 2.38271 15.0104 2.76723 14.6211 2.76723C14.2578 2.7432 13.8425 2.47884 13.8425 1.97414C13.8685 1.54154 14.2059 1.20508 14.6471 1.20508Z" fill="#B8B6B7"/>
<path d="M0.37207 25.7626C0.398023 25.33 0.735413 25.0176 1.20257 25.0176C1.61781 25.0176 1.92925 25.354 1.92925 25.7866C1.92925 26.2913 1.53996 26.5557 1.12471 26.5557C0.70946 26.5557 0.37207 26.2192 0.37207 25.7626Z" fill="#B8B6B7"/>
<path d="M16.2557 42.3355C16.2557 42.72 15.8923 43.1045 15.503 43.1045C14.958 43.1045 14.6985 42.744 14.6985 42.3114C14.6985 41.9269 15.0618 41.5664 15.4511 41.5664C15.8923 41.5664 16.2557 41.9029 16.2557 42.3355Z" fill="#B8B6B7"/>
<path d="M9.01519 5.46107C9.06709 5.79753 8.65185 6.23013 8.2366 6.20609C7.8473 6.20609 7.45801 5.8456 7.45801 5.46107C7.45801 5.02847 7.8473 4.66797 8.2885 4.66797C8.65184 4.692 9.06709 5.07654 9.01519 5.46107Z" fill="#B8B6B7"/>
<path d="M31.4142 42.0894C31.4142 42.4979 31.0249 42.8584 30.6096 42.8584C30.1684 42.8584 29.8051 42.4979 29.831 42.0653C29.857 41.6568 30.1425 41.3203 30.6356 41.3203C31.0508 41.3203 31.3622 41.6087 31.4142 42.0894Z" fill="#B8B6B7"/>
<path d="M76.2375 47.0321C76.2375 46.7196 76.3154 46.4072 76.3933 46.0948C76.3933 46.0227 76.4452 45.9746 76.523 45.9746C76.8345 45.9746 77.1546 45.9746 77.4833 45.9746C77.5871 45.9746 77.639 46.0467 77.639 46.1669C77.5871 46.4232 77.5352 46.6796 77.4833 46.9359C77.4573 47.0321 77.4054 47.0801 77.3016 47.0801C76.9729 47.0801 76.6441 47.0801 76.3154 47.0801C76.2895 47.0801 76.2635 47.0561 76.2375 47.0321Z" fill="#2B418C"/>
<path d="M19.5525 46.8844C19.4141 46.8844 19.2843 46.8844 19.1632 46.8844C19.0854 46.8844 18.9815 46.9084 18.9556 46.8123C18.9296 46.6921 19.0075 46.5479 19.1113 46.5239C19.1632 46.5079 19.2065 46.5079 19.2411 46.5239C19.3968 46.5479 19.4487 46.4278 19.4747 46.3076C19.5006 46.2355 19.5006 46.1874 19.5266 46.1153C19.5525 45.9231 19.6304 45.875 19.838 45.875C19.9937 45.875 20.1494 45.875 20.3051 45.875C20.4349 45.875 20.5128 45.9471 20.5128 46.0192C20.5128 46.1153 20.4349 46.2355 20.3311 46.2595C20.2792 46.2595 20.2013 46.2595 20.1494 46.2595C20.0975 46.2836 20.0716 46.2836 20.0456 46.3076C20.0197 46.3316 20.0197 46.3797 19.9937 46.4278C19.9937 46.4758 20.0456 46.4999 20.0716 46.4999C20.1235 46.4999 20.1754 46.4999 20.2273 46.4999C20.383 46.5239 20.4349 46.6441 20.3571 46.7642C20.2792 46.8363 20.2273 46.8844 20.1235 46.8844C19.9332 46.8844 19.7428 46.8844 19.5525 46.8844Z" fill="#2B418C"/>
<path d="M64.7657 19.0623C64.7657 19.1344 64.7138 19.1585 64.6618 19.1344C64.5839 19.0864 64.6358 19.0383 64.6878 18.9902C64.7051 19.0223 64.7311 19.0463 64.7657 19.0623Z" fill="#B8B6B7"/>
</g>
<defs>
<clipPath id="clip0_802_1136">
<rect width="85" height="46" fill="white"/>
</clipPath>
</defs>
</svg>
