<svg width="48" height="48" viewBox="0 0 48 48" fill="none" xmlns="http://www.w3.org/2000/svg">
<path d="M20.7188 8.36523C21.9735 8.36523 22.9941 9.38584 22.9941 10.6406V22.8281C22.9941 32.0954 15.4548 39.6348 6.1875 39.6348C5.70779 39.6348 5.31836 39.2455 5.31836 38.7656V32.6719C5.31836 32.192 5.70779 31.8027 6.1875 31.8027C10.2734 31.8027 13.8371 28.9847 14.8564 25.1035H7.59375C6.33896 25.1035 5.31836 24.0829 5.31836 22.8281V10.6406C5.31836 9.38584 6.33896 8.36523 7.59375 8.36523H20.7188ZM40.4062 8.36523C41.6611 8.36523 42.6816 9.38585 42.6816 10.6406V22.8281C42.6816 32.0954 35.1423 39.6348 25.875 39.6348C25.3951 39.6348 25.0059 39.2455 25.0059 38.7656V32.6719C25.0059 32.192 25.3951 31.8027 25.875 31.8027C29.9612 31.8027 33.5256 28.9848 34.5449 25.1035H27.2812C26.0265 25.1035 25.0059 24.0829 25.0059 22.8281V10.6406C25.0059 9.38584 26.0265 8.36523 27.2812 8.36523H40.4062ZM7.59375 10.1035C7.29773 10.1035 7.05664 10.3446 7.05664 10.6406V22.8281C7.05664 23.1241 7.29773 23.3652 7.59375 23.3652H15.9189C16.1705 23.3652 16.4101 23.4748 16.5752 23.665C16.7404 23.8554 16.815 24.1082 16.7793 24.3574C16.4168 26.8852 15.1555 29.2067 13.2285 30.8945C11.4992 32.4092 9.33444 33.3175 7.05664 33.5029V37.8711C14.9624 37.4194 21.2559 30.8451 21.2559 22.8281V10.6406C21.2559 10.3446 21.0148 10.1035 20.7188 10.1035H7.59375ZM27.2812 10.1035C26.9852 10.1035 26.7441 10.3446 26.7441 10.6406V22.8281C26.7441 23.1241 26.9852 23.3652 27.2812 23.3652H35.6074C35.8592 23.3653 36.0987 23.4748 36.2637 23.665C36.4285 23.8552 36.5025 24.108 36.4668 24.3574C36.1043 26.8853 34.8432 29.2067 32.916 30.8945C31.1867 32.4092 29.022 33.3176 26.7441 33.5029V37.8711C34.6499 37.4194 40.9434 30.8451 40.9434 22.8281V10.6406C40.9434 10.3446 40.7023 10.1035 40.4062 10.1035H27.2812Z" fill="#ED2024" stroke="#ED2024" stroke-width="0.8"/>
</svg>
