<svg width="708" height="580" viewBox="0 0 708 580" fill="none" xmlns="http://www.w3.org/2000/svg">
<g clip-path="url(#clip0_18_8277)">
<mask id="mask0_18_8277" style="mask-type:luminance" maskUnits="userSpaceOnUse" x="0" y="0" width="709" height="580">
<path d="M517.057 181.6V181.8L516.957 182H516.757V181.8C516.857 181.7 516.957 181.6 517.057 181.6ZM512.952 162.6C513.052 162.7 512.952 163 512.752 163.1L512.552 163V162.8L512.652 162.7L512.952 162.6ZM508.146 154.9H507.946L507.846 154.7L507.946 154.5L508.146 154.6V154.9ZM524.467 160.5L524.367 160.6L524.266 160.5L524.467 160.4V160.5ZM529.673 242.1C529.673 242.2 529.773 242.3 529.773 242.4C529.974 243.5 529.974 243.2 530.274 244.2V244.4H530.074C529.573 243.9 529.673 243.3 529.373 242.8C529.173 242.5 528.572 242.3 528.572 241.9L528.672 241.7H528.872L528.972 241.8C529.173 241.8 529.373 242 529.673 242.1ZM528.672 210.6C528.672 210.9 528.872 211.3 528.872 211.6H528.772C528.672 211.4 528.572 210.7 528.672 210.6ZM527.27 206.4L527.17 206.6C527.07 206.4 527.07 206 526.97 205.9V205.7C527.27 205.9 527.17 206.2 527.27 206.4ZM521.163 206.1L520.962 206.2L520.862 206.1C520.462 205.4 519.861 205.7 519.661 205.2L519.761 205C520.161 205.1 520.562 204.5 520.762 204.2C520.862 204.1 520.962 204.1 521.062 204.1C521.263 205.1 521.263 205.1 521.163 206.1ZM508.046 177.7L507.946 177.9C507.545 177.9 507.245 178.1 506.844 178C506.544 178 506.444 177.7 506.143 177.6C505.843 177.5 504.541 177.8 504.341 178C504.241 178.1 504.141 178.3 503.941 178.4L503.841 178.3L503.74 178.1L503.54 178.2H503.34L503.24 178C503.14 177.9 502.939 177.9 502.839 177.9V177.7C503.04 177.6 503.34 177.5 503.44 177.3V177.1C503.34 176.9 502.939 176.8 502.739 176.7C501.037 176.3 500.636 178.2 500.236 178.6L500.036 178.7C499.735 178.2 500.236 177.2 500.636 176.9C501.037 176.6 501.538 175.8 502.038 175.8C503.14 175.7 503.24 176.2 504.041 176.7C504.541 177 507.445 177.6 508.046 177.7ZM501.337 178.8C501.337 178.9 501.337 179.1 501.337 179.2C501.638 179.4 501.638 179.8 501.538 180.1C501.638 180.2 501.738 180.2 501.938 180.3L502.038 180.2L502.138 180H502.339C502.339 180.1 502.439 180.2 502.539 180.3H502.739L502.839 180.5C502.739 180.9 503.14 181.2 502.939 181.5L502.839 181.6H502.639C502.539 181.5 502.439 181.4 502.439 181.3C502.238 181.2 502.038 181.2 501.838 181.2C501.638 181.1 501.738 180.8 501.638 180.7C501.538 180.5 500.837 180.4 500.737 180.1C500.737 179.9 500.937 179.8 500.937 179.5C500.937 179.2 500.837 178.9 500.937 178.6H501.137L501.337 178.8ZM497.132 180.8C497.032 181.1 496.832 181.1 496.531 181.2H496.331L496.231 181V180.8C496.431 180.7 496.631 180.5 496.832 180.4H497.032L497.132 180.8ZM496.731 179.7C496.731 179.9 496.431 180.1 496.231 180.2L496.031 180.1V179.9C496.131 179.7 496.331 179.5 496.631 179.5L496.731 179.7ZM495.63 175.1C495.33 175.3 495.129 175.6 494.829 175.8L494.629 175.7L494.529 175.5V175.3C494.829 175.1 495.23 174.9 495.43 174.6H495.63C495.63 174.7 495.63 175 495.63 175.1ZM492.626 174C492.526 174.1 492.426 174.2 492.426 174.3L492.226 174.2C492.126 174 492.226 173.7 492.226 173.5L492.326 173.4H492.526C492.626 173.5 492.626 173.8 492.626 174ZM473.302 145.9C473.302 146.2 472.801 146.8 472.501 146.9L472.401 146.8C472.601 146.5 472.801 146.3 472.901 146C472.901 145.9 472.901 145.7 472.901 145.6C473.101 145.7 473.202 145.8 473.302 145.9ZM1.30166 152.9C1.1014 153 0.901143 153.2 0.700888 153.2C0.600761 153.2 0.300379 153 0.200252 153C-0.200258 153.2 0.700894 153.7 0.801021 153.8C2.30293 154.3 1.40179 154 2.30293 153.7C2.50319 153.6 2.70344 153.8 2.90369 153.7C3.00382 153.7 2.90369 153.9 2.90369 154C2.90369 154.2 2.90369 154.5 3.00382 154.6C3.10395 154.7 4.4056 155.2 4.00509 155.6C3.80484 155.7 3.70471 155.7 3.50446 155.7C3.40433 155.7 3.40433 155.9 3.3042 155.9H3.20407C3.10394 155.9 3.00382 155.8 3.00382 155.8C2.70344 155.7 2.2028 156.1 1.90242 155.9C1.70217 155.8 1.60204 155.6 1.40178 155.5C1.30166 155.5 1.20153 155.5 1.1014 155.4C1.1014 155.3 1.1014 155.1 1.00127 155C0.901146 154.9 0.500633 155 0.200252 154.6C0.100124 154.5 0.200252 154.3 0.200252 154.1C0.200252 153.8 0 153.5 0 153.1C0 153 0.100126 152.9 0.100126 152.8V152.7V152.6C0.100126 152.4 0.200258 152.6 0.300385 152.5C0.300385 152.4 0.300383 152.4 0.400511 152.3C0.500638 152.2 0.700893 152.1 0.901147 152C1.00127 152 1.00127 152 1.1014 152C1.20153 152.1 2.30293 152.3 2.00255 152.8C1.70216 153 1.40179 152.9 1.30166 152.9ZM7.3093 154.3C7.40942 154.4 7.50955 154.4 7.50955 154.5C7.50955 154.5 7.40942 154.7 7.50955 154.7C7.50955 154.7 7.7098 154.6 7.7098 154.7C7.80993 154.7 7.7098 154.8 7.7098 154.9C7.7098 155 7.91006 155.1 8.01018 155.1C8.01018 155.1 8.11031 155.1 8.11031 155.2C8.21044 155.3 8.21043 155.4 8.21043 155.5C8.31056 155.9 7.91005 155.8 7.7098 155.9C7.7098 155.9 7.60967 156.2 7.50955 156.2L7.40942 156.1C7.30929 156.1 7.20916 156.4 7.10904 156.3C7.10904 156.3 7.10904 156 7.10904 155.9C7.00891 155.8 6.80865 155.9 6.70853 155.7C6.70853 155.6 6.90879 155.6 6.80866 155.4C6.70853 155.1 6.30802 154.8 6.00764 154.8C5.90751 154.8 5.90751 155.4 5.90751 155.5C5.90751 155.5 5.80739 155.5 5.80739 155.6C5.70726 155.8 5.507 155.7 5.30675 155.7C5.00637 155.6 5.90751 155.3 5.60713 155H5.507C5.40687 155 5.40687 154.7 5.507 154.7C5.60713 154.6 6.30802 154.4 6.40815 154.4C6.6084 154 7.00891 154.3 7.3093 154.3ZM5.80739 151.5C5.80739 151.6 5.80739 151.6 5.80739 151.7H5.70725V151.6C5.70725 151.5 5.80739 151.4 5.80739 151.5ZM5.90751 150.7C5.80738 150.9 5.60713 151.6 5.507 151C5.40687 150.8 5.60713 151 5.70725 151C5.70725 150.9 5.80738 150.7 5.90751 150.7C6.00764 150.6 5.90751 150.7 5.90751 150.7ZM7.10904 151C7.20916 150.9 7.20916 150.8 7.20916 150.8C7.60967 150.4 7.30929 151.2 7.10904 151.2C7.00891 151.2 6.80865 151 7.10904 151ZM7.20916 149.6C7.30929 149.6 7.7098 149.6 7.80993 149.7C7.91006 149.8 7.91006 150.3 7.80993 150.1C7.60968 149.9 6.90878 149.7 7.20916 149.6ZM8.8112 149.8C8.71108 149.8 8.71107 149.9 8.71107 150C8.71107 150.1 9.41197 150.2 9.31184 150.4C9.31184 150.4 9.11158 150.4 9.01146 150.4H8.31057C8.21044 150.4 8.21044 150.1 8.31057 150.1C8.8112 150.2 8.71107 149.5 8.61095 149.3C8.61095 148.7 9.11159 149.8 8.8112 149.8ZM9.71234 150.3C9.71234 150.3 10.0127 150.2 9.9126 150.3C9.9126 150.3 9.61222 150.4 9.61222 150.5C9.21171 150.7 9.41196 150.5 9.71234 150.3ZM13.9177 155.3C13.9177 155.3 13.6173 155.4 13.6173 155.3L13.7174 155.1V154.9C13.8176 154.8 14.3182 155 13.9177 155.3ZM17.9228 149.9C17.9228 149.9 18.5236 150.6 18.4234 150.6C18.4234 150.6 18.2232 150.6 18.2232 150.7C18.123 150.7 18.123 150.8 18.0229 150.8C17.322 150.9 17.9228 149.6 17.9228 149.9ZM20.0255 150C20.1256 150.5 19.4247 150 19.3246 149.9C19.3246 149.9 19.2244 149.8 19.3246 149.8C19.4247 149.7 19.5248 150 19.6249 150C19.7251 150.2 19.8252 150.1 20.0255 150ZM19.2244 156.3C19.3246 156.8 18.9241 156 19.2244 155.9C19.3246 156 19.5248 156 19.4247 156.1C19.4247 156.2 19.3246 156.2 19.2244 156.3ZM23.5299 153.6C23.63 153.7 23.5299 153.9 23.63 154C23.63 154.1 23.9304 154.4 24.0306 154.5C24.1307 154.6 24.2308 154.6 24.4311 154.7C24.4311 154.7 24.5312 154.7 24.5312 154.8C24.5312 154.9 23.9304 154.8 23.8303 154.7C23.4298 154.4 23.2295 154 23.2295 153.5C23.2295 153.4 23.4298 153.3 23.5299 153.3C23.4298 153.5 23.2295 153.5 23.5299 153.6ZM22.5286 160.3C22.7289 160.5 22.7289 160.3 22.829 160.4C23.0293 160.5 22.6288 160.6 22.5286 160.6C22.1281 160.6 22.3284 160.1 22.5286 160.3ZM21.227 160.2C21.3271 160.4 21.8278 160.3 21.8278 160.9H21.7276C21.6275 160.8 21.1269 160.3 21.227 160.2C21.227 160.3 21.1269 160.1 21.227 160.2ZM144.484 338L144.584 338.2C144.884 338.3 144.984 338.5 145.185 338.6L145.385 338.5V338.3C145.185 338.2 144.684 337.9 144.484 338ZM147.788 339.6L147.688 339.7C147.588 340 148.188 340.8 148.489 340.9H148.689C148.889 340.7 148.689 340.2 148.489 340C148.188 340.1 147.988 339.8 147.788 339.6ZM42.2537 186.5C41.7531 186.4 41.3526 185 41.2524 184.6C41.8532 184.9 42.1536 185.9 42.2537 186.5ZM61.6784 218.4C61.7785 218.5 61.8787 218.6 61.9788 218.8V219L61.8787 219.1C61.5783 219.1 61.1778 218.8 61.378 218.5L61.5783 218.4H61.6784ZM67.4858 235.1L67.5859 235.2C67.7862 235.1 68.1867 234.5 68.1867 234.3L68.2868 234.4C68.3869 234.7 68.2868 235.1 68.0866 235.4V235.6C68.2868 235.8 68.5872 236 68.5872 236.4H68.3869C67.9864 236.2 67.5859 235.4 67.2855 235.3C67.0853 234.9 66.5847 233.7 66.885 233.4H67.0853C67.4858 233.7 67.3857 234.7 67.4858 235.1ZM66.1841 238.3C65.9839 238.4 65.9839 238.6 65.8838 238.8L65.9839 238.9H66.084C66.1841 238.8 66.2843 238.7 66.2843 238.6C66.3844 238.7 66.3844 238.8 66.4845 238.9C66.7849 238.9 67.2855 239 67.3857 239.3V239.5C67.0853 239.5 66.3844 239.8 66.084 239.7C65.7836 239.5 65.3831 239.1 65.3831 238.6C65.5834 238.3 65.5834 238.1 65.8838 237.9H66.084L66.1841 238.3ZM77.7989 246.1C78.5999 245.9 78.5999 247.3 78.8002 247.9C78.9003 248.1 79.1006 248.6 79.0004 248.9L78.9003 249H78.7001C78.3997 248.8 78.3997 248.2 78.2995 247.9C77.7989 247.2 76.0967 247.3 76.6975 246.1C76.7976 245.8 76.8978 245.5 77.2983 245.6C77.2983 245.7 77.4985 246 77.7989 246.1ZM86.51 264.3L86.4099 264.4C86.1095 264.4 85.9092 264.2 85.6088 264.1C85.4086 264.1 85.3084 264.2 85.0081 264.1H84.9079C84.8078 263.8 84.908 262.9 85.2083 262.7H85.4086C85.709 263 86.51 264.1 86.51 264.3ZM88.7128 264.7H88.5125C88.5125 264.6 88.5125 264.4 88.5125 264.3C88.6126 264.2 88.7128 264.2 88.8129 264.1H89.0132C88.913 264.4 88.8129 264.5 88.7128 264.7ZM82.1044 245.4C82.3046 245.5 82.605 245.6 82.9054 245.7L83.0055 245.9C83.0055 246.1 82.9054 246.3 82.7051 246.4C82.5049 246.4 82.4048 246.2 82.3046 246.1C82.0042 246 81.7039 246.2 81.5036 246.1L81.4035 246V245.8L81.5036 245.7C81.6037 245.6 81.6038 245.5 81.7039 245.3C81.6038 245.2 81.6037 245 81.6037 244.9L81.7039 244.8C81.9041 244.9 82.0042 245 82.1044 245.4ZM80.9029 243.1C81.1031 243.3 81.4035 243.5 81.6037 243.7V243.9C81.6037 243.9 80.4022 243.9 80.3021 243.8C80.3021 243.7 80.202 243.5 80.3021 243.4C80.5023 243.3 80.5023 243.1 80.9029 243.1ZM80.8027 242.2C80.9028 242.3 80.9028 242.5 80.8027 242.7L80.7026 242.9L80.5023 242.8C80.5023 242.7 80.4022 242.6 80.3021 242.5V242.3C80.5023 242.2 80.7026 242.2 80.8027 242.2ZM79.4009 241.7C79.4009 242 79.8015 242.5 79.7013 242.8L79.5011 242.7L79.3008 242.4C79.2007 242.4 79.0004 242.3 78.9003 242.3C78.8002 242.1 78.9003 241.6 79.0004 241.4H79.1006C79.2007 241.5 79.3008 241.6 79.4009 241.7ZM79.7013 240C79.8015 240.1 79.8014 240.3 79.8014 240.4C79.7013 240.6 79.6012 240.7 79.5011 240.8H79.4009C79.3008 240.6 79.2007 240.2 79.1006 240.1V239.9L79.3008 239.8C79.4009 239.9 79.6012 239.9 79.7013 240ZM77.2983 241.1C77.5986 241.2 77.6988 241.9 77.5986 242.2C77.2983 242.2 77.098 242.4 76.8978 242.5C76.6975 242.4 76.5974 242.2 76.5974 242.1C76.5974 241.6 76.9979 241.1 77.2983 241.1ZM75.8965 245.1L75.7964 245.3C75.496 245.1 74.8952 244.3 74.8952 244H75.0955C75.3959 244.3 75.9966 244.5 75.8965 245.1ZM70.4896 236C70.6899 235.8 70.79 235.4 70.5897 235.3H70.4896L70.2894 235.6L70.3895 235.7L70.4896 235.6H70.5897V235.7L70.4896 236ZM71.7913 236.9H71.8914C71.8914 236.8 71.8914 236.6 71.8914 236.5H71.7913L71.6911 236.7L71.7913 236.9ZM74.3946 238.1L74.4947 237.9L74.695 237.8V237.7L74.4947 237.4C74.3946 237.5 74.2944 237.8 74.2944 237.9V238L74.3946 238.1ZM74.7951 249.7H74.9953V249.5C74.8952 249.5 74.5948 249.4 74.4947 249.2L74.3946 249.3C74.4947 249.5 74.695 249.6 74.7951 249.7ZM81.003 249.8V249.9H81.2032C81.3034 249.8 81.4035 249.7 81.6037 249.7L81.804 249.4V249.3H81.4035L81.003 249.8ZM80.4022 253.4L80.8027 253.2V253L80.4022 253.2V253.4ZM27.535 159.5V159.3C27.535 159.1 26.734 158.4 26.5337 158H26.4336L26.3335 158.1C26.3335 158.2 26.4336 158.5 26.5337 158.6L26.2333 158.7V158.8L26.3335 158.9L26.734 159H26.5337L26.6339 159.1C27.0344 158.9 27.2346 159.2 27.4349 159.5H27.535ZM28.7365 166.1L28.8367 166C28.5363 165.9 28.2359 165.3 28.1358 165.1C27.9355 165 27.4349 164.8 27.2346 164.9V165C27.4349 165.2 27.7353 165.2 27.9355 165.3C28.2359 165.5 28.336 165.9 28.5363 166.1H28.7365ZM49.0624 197H49.1625C49.1625 196.8 49.1625 196.5 49.1625 196.3L49.0624 196.2L48.9622 196.3C48.9622 196.5 48.9622 196.8 49.0624 197ZM52.5668 201.2L52.667 200.9L52.5668 200.8H52.4667L52.2664 201.2C52.2664 201.3 52.5668 201.8 52.667 201.9H52.8672C52.7671 201.7 52.667 201.3 52.5668 201.2ZM53.3679 204.4C53.5681 203.9 52.5668 203 52.2664 202.8C52.0662 202.6 51.6657 202.7 51.5656 202.5C51.4654 202.5 51.2652 202.6 51.165 202.6C50.8647 202.5 50.364 202.5 50.0636 202.5V202.6L50.1638 202.7C50.7645 202.8 51.5656 202.8 52.0662 203C52.2664 203.1 52.3666 203.4 52.5668 203.4C52.5668 203.6 52.7671 203.8 52.9673 203.9C52.9673 204.1 53.0675 204.4 53.2677 204.5L53.3679 204.4ZM113.945 305.8C113.945 305.7 113.745 305.2 113.644 305.2L113.544 305.5C113.544 305.6 113.845 305.7 113.945 305.8ZM126.261 306.5L126.06 306.6C126.06 306.4 125.96 306.2 125.96 305.9H126.06C126.16 306 126.461 306.3 126.261 306.5ZM116.148 308.6C116.148 308.4 115.547 307.9 115.447 307.9V308C115.547 308.2 115.947 308.6 116.148 308.6ZM129.465 311.1L129.565 311.2V311.4L129.765 311.5V311.6L129.465 311.4C129.465 311.3 129.465 311.1 129.364 311.1H129.465ZM132.268 314.8L132.168 315H131.968L131.868 315.1H131.567L131.667 314.9L132.068 314.8H132.268ZM125.159 317.5L125.059 317.4C125.059 317.2 124.759 316.4 124.658 316.4V316.2H124.859L125.159 317.5ZM131.067 317.2C130.966 317.3 130.967 317.4 130.967 317.5H130.866V317.2H131.067ZM150.091 347.8V347.9L149.891 347.8L149.59 347.9V348L149.29 348.2L149.39 348.5L149.29 348.7L149.09 348.2L149.19 348C149.29 348 149.59 347.9 149.59 347.8C149.59 347.8 149.991 347.7 150.091 347.8ZM147.988 352.5L148.289 352.3L148.188 352.2L148.389 351.9V351.8H148.289L147.988 352.3V352.5ZM157.4 0C157.3 0.1 157.3 0.100001 157.2 0.200001C154.997 2 152.894 3.9 150.692 5.7C150.692 5.7 150.591 5.8 150.491 5.8C150.191 5.9 149.69 6 149.39 6.1C148.589 6.3 147.888 6.5 147.087 6.7C144.584 7.4 141.98 8 139.477 8.7C137.875 9.1 136.173 9.6 134.571 10C131.467 10.8 128.363 11.6 125.359 12.5C123.357 13 121.354 13.6 119.352 14.1C118.951 14.2 118.651 14.3 118.35 14.4C116.748 14.9 115.046 15.3 113.444 15.7C111.942 16.1 110.44 16.6 109.039 17C108.137 17.2 107.336 17.5 106.435 17.7L101.93 19C101.129 19.2 100.428 19.5 99.6267 19.7C98.8256 19.9 98.0246 20.1 97.2236 20.4C92.7179 21.6 88.3123 22.9 83.8065 24.1C85.6088 26 87.4111 28 89.2134 29.9C89.9143 30.6 90.6152 31.4 91.216 32.1C91.5163 32.4 91.8167 32.8 92.1171 33.1C92.2172 33.2 92.2172 33.2 92.3174 33.3C92.4175 33.4 92.6178 33.6 92.7179 33.7C92.9181 33.9 93.2185 34.2 93.4188 34.4V34.5C94.2198 35.3 94.9207 36.1 95.6216 36.9C97.1235 38.6 98.7255 40.3 100.227 42C100.428 42.2 100.628 42.4 100.828 42.6C100.928 42.7 101.329 43.1 101.429 43.3C101.629 43.5 101.829 43.8 102.13 44C102.33 44.2 102.53 44.3 102.63 44.5C104.533 46.6 106.535 48.8 108.538 50.9C108.738 51.1 108.738 51.3 108.938 51.5C109.139 51.8 109.339 52.1 109.539 52.3C109.74 52.5 109.94 52.7 110.14 52.9C110.741 53.6 111.342 54.3 111.942 54.9C112.042 55 112.243 55.2 112.343 55.3C112.944 55.9 113.544 56.6 114.045 57.2C115.046 58.3 116.048 59.5 117.049 60.6L117.149 60.7C116.648 61 116.148 61.2 115.647 61.5C114.245 62.3 112.843 63.1 111.342 63.8C109.539 64.8 107.737 65.8 106.035 66.8C105.134 68.7 104.333 70.6 103.431 72.5C103.031 73.4 102.63 74.4 102.23 75.4C101.629 76.6 101.129 77.9 100.528 79.1C99.6266 79.3 95.221 80.1 94.0195 80.3C92.017 80.7 90.1146 81.1 88.112 81.4C83.9067 82.2 79.8015 83 75.5961 83.8C75.2957 84.3 74.9953 84.8 74.695 85.3C74.2945 86 73.7938 86.6 73.3933 87.3C73.0929 87.9 72.6924 88.4 72.392 89C71.6911 90.1 70.9902 91.3 70.2894 92.4C69.6886 93.4 67.686 96.6 67.2855 97.3C67.2855 97.3 59.5757 103.4 58.7747 104C56.7722 105.6 54.7696 107.2 52.7671 108.8C51.7658 108.7 50.7645 108.5 49.7633 108.4C48.8621 108.2 47.961 108 46.9597 107.9C46.1587 107.7 45.2575 107.6 44.4565 107.4C43.9559 107.3 43.5554 107.2 43.0547 107.1C42.7544 107.1 42.454 107 42.2537 107C41.3526 106.9 40.5516 106.8 39.6504 106.6C37.8481 106.3 36.0458 105.9 34.2435 105.6C34.0433 105.6 33.9431 105.6 33.7429 105.5C33.2423 105.4 32.7416 105.4 32.241 105.3C31.6402 105.2 31.1396 105.1 30.5388 105C29.4374 104.8 28.2359 104.6 27.1345 104.4C25.2321 104.1 23.4298 103.8 21.5274 103.4C20.3258 103.2 19.1243 103 17.9228 102.8C17.5223 103 17.2219 103 16.9215 102.9C16.4209 102.9 16.0204 102.8 15.6199 102.7C15.5197 102.7 15.5197 102.8 15.4196 102.8C15.3195 103 15.0191 103.8 15.1192 104C15.1192 104.2 15.5197 104.5 15.4196 104.8C15.3195 104.9 15.0191 104.7 14.8188 104.8L14.7187 105C14.5185 105.5 14.5185 105.5 14.8188 106V106.4C14.8188 106.4 14.7187 106.5 14.7187 106.6C14.7187 106.7 14.919 106.6 14.919 106.7C14.919 107.2 13.8176 106.9 13.8176 107.8C13.9177 107.9 14.0178 107.7 14.0178 107.8C14.0178 108.1 13.6173 108.3 13.5172 108.6C13.3169 109 13.5172 109.4 13.4171 109.7C13.3169 110 13.1167 110.2 13.0165 110.4C13.0165 110.5 13.0165 110.6 13.0165 110.7C12.9164 111.1 12.9164 111.5 12.9164 111.9C12.8163 112.1 12.7162 112.4 12.7162 112.7C12.7162 112.8 12.8163 112.9 12.7162 113.2C12.616 113.6 12.1154 113.7 12.0153 114.4C11.9151 115.1 12.3157 114.8 12.3157 115.8C12.3157 116.4 11.9152 116.5 11.815 116.8C11.7149 117.1 11.9152 117.6 11.815 117.9C11.7149 118.1 11.6148 118.2 11.4145 118.4C11.3144 118.5 11.2143 119.3 11.014 119.6C11.014 119.6 10.9139 119.7 10.9139 119.8C10.9139 119.9 11.1141 119.8 11.2143 119.9C11.3144 119.9 11.6148 120.3 11.6148 120.4C11.6148 120.4 11.3144 120.8 11.3144 121C11.3144 121.1 11.5146 121.1 11.5146 121.2C11.4145 121.6 11.2143 121.7 11.3144 122.1C11.7149 122.4 10.8138 123.3 10.8138 123.5C10.8138 124 10.7136 123.7 10.6135 124C10.6135 124.2 10.6135 124.3 10.6135 124.5C10.7136 124.8 10.5134 124.9 10.5134 125C10.3131 125.3 10.1129 126.4 10.0127 126.7C10.0127 126.9 10.0127 127 9.9126 127.1C9.81248 127.2 9.71235 127.3 9.61222 127.4C9.51209 127.6 9.51209 127.9 9.51209 128.1C9.51209 128.2 9.81248 128.3 9.9126 128.5C9.9126 128.7 9.81248 129 9.9126 129.1C10.1129 129.5 10.213 129.6 10.213 130.1C10.213 130.4 10.0127 130.6 10.1129 130.9C10.1129 131 10.1129 131.2 10.213 131.3C10.4132 131.7 10.7136 132.6 10.5134 133C10.3131 133.3 10.213 134 10.0127 134.3C9.81247 134.6 9.41197 134.7 9.31184 135.1C9.31184 135.2 9.31184 135.5 9.31184 135.5C9.31184 135.6 9.11158 135.6 9.11158 135.7C9.01145 135.9 9.01146 136.3 8.91133 136.6C8.71108 136.9 8.4107 137.2 8.31057 137.6C8.21044 137.9 8.21044 138.4 8.11031 138.7C8.01018 139 7.80993 139.1 7.7098 139.4C7.60967 139.6 7.7098 139.7 7.60967 139.8C7.50955 140.1 7.30929 140.4 7.20916 140.7C7.00891 141.2 6.70853 141.9 6.40815 142.3C6.40815 142.4 6.20789 142.4 6.20789 142.5C6.20789 142.7 6.6084 142.3 6.6084 142.5C6.6084 143 6.10776 142.6 6.10776 142.8C6.10776 142.9 6.00764 143.1 6.00764 143.2C6.00764 143.3 6.20789 143.3 6.10776 143.4C6.10776 143.5 5.90751 143.5 5.80739 143.6C5.80739 143.7 5.80739 143.9 5.80739 144C5.70726 144.2 5.60713 144.3 5.507 144.5C5.507 144.7 6.00764 144.5 5.80739 144.8C5.507 145.2 5.30675 145 5.00636 145.4C5.00636 145.4 5.10649 145.7 5.10649 145.8L5.20662 145.7C5.30674 145.6 5.40688 145.7 5.40688 145.8C5.40688 146.1 5.00636 145.8 5.10649 146.1C5.20662 146.2 5.30675 146.1 5.40688 146.1C5.507 146.1 5.507 146.4 5.507 146.5C5.40687 146.5 5.10649 146.6 5.00636 146.6C5.00636 146.6 5.00637 146.4 4.90624 146.4C4.80611 146.4 4.80611 146.3 4.70598 146.3C4.80611 146.2 4.80611 146.2 4.70598 146.1C4.10522 146.1 4.30547 146.8 4.20534 146.8C4.10522 146.9 4.00509 146.8 3.90497 146.9C3.80484 147 3.90497 147.2 3.80484 147.3H3.70471C3.60458 147.4 3.80484 147.5 3.80484 147.5C3.70471 147.5 3.60458 147.4 3.50446 147.4C3.20407 147.5 3.00382 148.1 2.70343 148.4C2.60331 148.5 2.70343 148.6 2.70343 148.6V148.7C2.50318 148.9 2.50318 148.8 2.60331 149C2.70344 149.5 2.70344 149.2 3.00382 149.2C3.10395 149.2 3.10394 148.5 3.60458 148.9C3.60458 148.9 3.70471 149 3.80484 149C3.80484 149.1 3.70471 149.1 3.70471 149.1C3.70471 149.2 3.80484 149.2 3.80484 149.2C3.90497 149.3 3.80484 149.3 3.80484 149.4C3.80484 149.5 3.90496 149.5 4.00509 149.6L3.80484 150C3.70471 150.2 3.90496 150.3 4.00509 150.5C4.00509 150.6 4.00509 150.8 4.00509 150.9C4.10522 150.9 4.10522 150.7 4.10522 150.7C4.20534 150.7 4.20535 150.7 4.30548 150.8C4.30548 150.9 4.30547 151.1 4.20534 151.1C4.10522 151.1 4.20534 151.2 4.20534 151.3C4.20534 151.3 4.10522 151.3 4.10522 151.4C4.00509 151.5 4.30548 151.7 4.4056 151.7C4.50573 151.7 4.4056 151.6 4.50573 151.6C4.60586 151.6 4.70598 151.8 4.70598 151.7V151.6H4.80611C4.80611 151.6 4.70599 151.4 4.80611 151.3C4.90624 151.2 5.00636 151.4 5.00636 151.3C5.10649 151.2 4.80611 150.1 5.40688 150.2C5.507 150.2 5.507 150.3 5.60713 150.3C5.80738 150 5.10649 149.5 5.10649 149.3C5.10649 149 5.70726 148.7 5.80739 148.6C6.00764 148.4 5.90751 147.9 6.10776 147.8C6.40814 147.7 6.40814 148 6.6084 148C6.90878 148 6.70853 147.4 7.00891 147.5C7.20917 147.7 7.10903 147.8 7.20916 148C7.20916 148.2 7.40942 148.2 7.50955 148.3C7.40942 148.3 7.30929 148.3 7.20916 148.4C7.10903 148.5 7.20917 148.7 7.50955 148.4C7.7098 148.4 7.91006 148.7 8.01018 148.8C8.11031 148.7 8.21044 148.6 8.31057 148.6L8.8112 149.1H8.91133V149H9.01146C9.11158 149.2 9.11159 149.3 9.31184 149.2C9.41197 149.2 9.61222 149.3 9.61222 149.2C9.61222 149.1 9.51209 149.1 9.61222 149C9.71235 148.9 9.81248 149 9.9126 149C9.81248 148.7 10.0127 148.8 10.213 148.7C10.4132 148.7 10.4132 148.6 10.8138 148.7C11.014 148.7 10.6135 148.9 10.6135 149.1C10.6135 149.3 10.9139 149.2 10.6135 149.5C10.5134 149.6 10.1129 149.4 10.213 149.7C9.9126 149.8 10.3131 149.9 10.0127 150.1H9.9126C9.9126 150.2 10.3131 150.3 10.3131 150.3C10.4132 150.2 10.4132 150 10.5134 150C10.5134 149.8 10.7136 149.6 10.8138 149.5C11.014 149.4 11.014 149.5 11.014 149.5C11.014 149.5 11.014 149.5 11.1141 149.3C11.1141 149.1 10.7136 149.2 10.9139 149H11.014C11.3144 149.1 11.4145 148.8 11.5146 148.8C11.7149 148.7 11.9151 149 12.1154 148.9C12.3157 149.1 11.6148 149.3 11.5146 149.3C11.014 149.7 11.5146 149.7 11.5146 149.9C11.5146 149.9 11.3144 150 11.2143 150.2C11.2143 150.3 11.4145 150.2 11.4145 150.2C11.4145 150.2 11.4145 150.3 11.5146 150.4H11.6148C11.7149 150.3 11.815 150.4 11.9151 150.2V150.1C12.0153 149.8 12.1154 150 12.2155 150H12.3157C12.4158 149.9 12.5159 149.8 12.7162 149.9C12.9164 149.8 12.9164 149.8 12.9164 150.1C13.1167 150.1 13.5172 150.2 13.6173 150.2C13.8176 150.2 14.0178 150.1 14.2181 150.1C14.2181 150.2 14.4183 150.2 14.5185 150.2C14.5185 150.1 15.6199 149.4 15.1192 149.6C15.0191 149.6 15.0191 149.7 14.919 149.7V149.6C15.0191 149.4 15.5197 149.4 15.72 149.3C15.8201 149.4 16.8214 149 17.0216 148.9C17.0216 148.9 17.322 149.1 17.322 149.2C17.4222 149.3 17.4221 149.5 17.5223 149.6C17.8227 149.6 17.8227 149.6 17.7225 149.5C17.8227 149.3 17.7225 149.1 17.4221 149.1V149C17.4221 148.8 17.322 149 17.2219 149.1C16.8214 148.9 17.2219 148.5 17.6224 148.9C17.7225 148.9 18.123 149.1 18.3233 149.1C18.7238 148.6 19.2244 149.4 19.2244 149.4C19.6249 149.5 20.1256 149.9 20.3258 150.1C20.426 150.2 20.426 150.3 20.5261 150.4C20.6262 150.5 21.7276 150.3 21.8278 150.4C22.028 150.6 21.8278 150.8 22.3284 150.9C22.3284 151.1 22.4285 151.1 22.5286 151V150.9C22.5286 150.9 22.6288 150.9 22.6288 150.8C22.7289 150.8 23.0293 151.1 23.0293 151.1C23.2295 151.1 23.63 151.1 23.8303 151C24.1307 151.3 24.4311 151.4 24.4311 151.8C24.2308 152.1 23.9304 151.7 24.0306 152C23.8303 152.1 23.7302 151.9 23.5299 151.9C23.0293 152 22.9292 152.4 22.3284 152.4L22.2283 152.5C22.2283 152.7 22.2283 152.8 22.3284 152.9C22.6288 153 22.7289 153.1 23.0293 153H23.1294C23.2295 153.3 23.8303 153.4 23.9304 153.5C23.9304 153.7 24.4311 154 24.5312 154C24.6313 154.4 25.132 154.2 25.4323 154.5C25.7327 154.8 25.6326 155.3 25.8328 155.6C26.1332 156 26.9342 156.7 27.3348 157.1C28.5363 158.3 27.9355 159.2 28.5363 160.2C28.8367 160.7 29.5376 160.5 29.9381 160.9C30.5388 161.5 30.639 162.2 31.0395 162.9C31.1396 163.1 31.44 163.3 31.5401 163.5C31.6402 163.8 31.6402 164.1 31.7403 164.3C32.1409 165.4 32.5414 165.8 33.5426 166.3C33.6428 166.6 33.843 167.1 33.9432 167.4C34.0433 167.8 33.7429 168.5 33.9432 168.9C33.9432 169.2 33.9432 169.4 33.9432 169.6C34.0433 170 35.0446 171.9 35.4451 172.2C35.5452 172.3 35.7454 172.4 35.8456 172.6C35.9457 172.8 35.9457 173.1 35.9457 173.3C36.2461 173.6 36.4463 173.7 36.7467 174C37.1472 174.6 37.9482 176.2 38.549 176.6C39.4502 177.2 41.4527 177.4 41.4527 178.8C41.4527 179.6 42.8545 180.5 43.3551 181.9C43.7556 183.2 43.0547 183.2 42.9546 184.2C42.8545 184.6 43.255 185.4 43.3551 185.8C43.8558 186 45.1574 188.4 45.658 188.9C45.9584 189.2 46.2588 189.3 46.5592 189.5C46.9597 189.7 47.16 190.3 47.5605 190.6C47.8608 190.9 48.2614 190.9 48.5617 191.1C49.0624 191.5 49.0624 192 49.563 192.4C49.9635 192.8 50.7645 192.8 51.0649 193.2C51.165 193.3 51.3653 193.6 51.3653 193.6C51.5656 194.1 51.2652 194.6 51.3653 195.1C51.3653 195.3 51.4654 195.3 51.5656 195.5C51.9661 196.2 52.1663 196.9 52.3666 197.7C52.4667 198.1 53.2677 199.4 53.5681 199.6C53.8685 199.8 54.1689 199.9 54.4692 200.2C54.7696 200.6 54.8698 201.2 55.1701 201.6C55.871 202.4 56.672 202.9 57.4731 203.6C57.7734 203.8 57.6733 204.4 57.8736 204.5C57.9737 204.6 58.0738 204.6 58.2741 204.6C58.5745 205 58.5745 205.8 58.7747 206.1C59.8761 206.6 59.4756 207.1 59.776 207.9C59.8761 208.1 60.0764 208.3 60.1765 208.5C60.577 209.2 60.1765 209.4 60.9775 210C61.1778 210.3 61.0777 210.7 61.1778 211C61.4782 211.7 61.9788 212.3 62.2792 212.9C62.5796 213.5 62.6797 214.2 62.9801 214.7C63.0802 214.9 63.4807 215 63.681 215.3C63.7811 215.4 65.1829 217.7 65.1829 217.9C64.8825 218.8 65.5834 219.1 65.5834 219.9L65.4832 220.1V220.2C65.5834 220.2 65.6835 220.4 65.7836 220.5C65.6835 220.6 65.6835 220.8 65.6835 220.9C66.1841 221.3 65.9839 221.2 66.5846 221.3C66.6848 221.5 66.6848 221.8 66.885 222C67.2855 222.1 67.7862 222.8 68.1867 223H68.3869C68.4871 223.1 68.5872 223.3 68.7874 223.4C69.3882 223.7 72.1918 223.2 72.5923 224.1C72.6924 224.3 72.6924 224.6 72.6924 224.8C73.4934 225.6 72.7925 226.4 72.5923 227.1C72.392 228.1 72.4921 228.8 71.9915 229.7C71.7913 230.1 71.2906 230.4 70.9902 230.7C70.9902 231 71.4909 231.1 71.591 231.3C71.9915 231.7 72.1918 233.2 72.7925 233.1L72.8927 233.2C72.9928 233.5 72.6924 234.1 73.0929 234.3C73.193 234.3 73.3933 234.3 73.4934 234.2C73.5936 234.4 73.7938 234.9 73.9941 234.9C74.2944 234.4 75.0955 234.9 75.3959 235.2H75.5961L75.6962 235C75.5961 234.9 75.496 234.7 75.3959 234.5C75.3959 234.4 75.496 234.2 75.5961 234.1H75.7964C75.9966 234.2 76.0967 234.4 76.297 234.6C77.098 234.9 76.8978 235.4 77.3984 235.8C77.9992 236.4 79.0004 236.8 79.5011 237.5C80.0017 238.1 79.5011 238.3 80.6025 239.2C80.8027 239.9 80.8027 240.5 80.9029 241.2C81.804 241.2 81.5036 242.3 81.7039 242.9C81.9041 243.1 82.2045 243.2 82.4048 243.5C82.5049 243.6 82.605 244 82.8053 244.1C82.9054 244.2 83.2058 244.2 83.3059 244.3C83.6063 244.5 83.9067 244.8 84.3072 245L84.4073 245.2L84.2071 245.7C84.2071 246 84.5074 246.1 84.4073 246.4C84.3072 246.5 84.2071 246.7 84.1069 246.8C84.0068 247.1 84.6076 248.1 84.8078 248.3C85.0081 248.6 84.8078 249.2 85.0081 249.7C85.2083 250.1 86.6101 251.6 87.0106 252C87.311 252.1 87.6114 251.9 87.9118 252C88.2122 252.3 88.112 252.6 88.3123 252.9C88.6126 253.3 89.0132 253.5 89.3135 253.9C89.9143 254.6 90.8155 256.3 90.8155 257.2C90.8155 257.9 90.1146 258.2 90.3148 258.9C90.6152 260 91.3161 260.1 91.6165 261.4C93.1184 262.2 91.1158 263.9 90.9156 264.8C91.1158 265.4 91.9169 267.4 91.9169 267.6C91.9169 267.7 91.8167 267.9 91.7166 267.9C91.4162 268.2 91.0157 268.2 90.7153 268.4C90.5151 268.5 90.3148 268.8 90.1146 268.8C89.6139 268.9 89.2134 268.3 88.5125 268.6L88.4124 268.8C88.5125 269.4 89.1133 269.5 89.3135 269.9C89.4137 270.1 89.4137 270.4 89.5138 270.7C89.6139 270.9 89.9143 270.9 90.0144 271.2C90.5151 271.2 90.8155 270.9 91.216 270.9L91.3161 271C91.4162 271.2 91.4162 271.6 91.216 271.8C91.1158 271.8 90.9156 271.9 90.7153 271.9L90.6152 272C90.6152 272.1 90.6152 272.3 90.6152 272.4C91.7166 273.2 91.216 274 91.6165 274.4C91.9169 274.5 92.1171 274.7 92.4175 274.8C93.5189 275.3 93.4188 274.7 94.0195 276.1C94.7204 276.3 94.9207 277.1 95.3212 277.6C95.4213 277.6 95.5214 277.5 95.6216 277.4L95.8218 277.5C95.8218 277.6 95.922 277.9 95.922 278C96.4226 278.2 96.5227 278.6 96.9232 278.9C97.0233 279.6 97.2236 280.5 97.8244 281C97.9245 281.1 98.1247 281.2 98.325 281.3C98.8256 282.2 98.1247 282.5 99.3263 283.1C99.5265 283.3 99.4264 283.7 99.4264 284C99.7268 284.2 100.027 284.6 100.127 285V285.2C100.027 285.1 99.6267 284.9 99.4264 284.9L99.3263 285C99.3263 285.8 99.3263 285.4 98.9258 286.1C99.0259 286.4 99.927 286.6 100.227 286.8C100.428 288.6 100.728 287.9 101.229 288.5C101.429 288.7 101.429 289.1 101.529 289.4C102.33 290.1 102.33 289.7 103.031 289.8C103.532 289.9 103.932 291.3 105.234 290.5L105.334 290.3C105.234 290.1 105.034 290 104.933 289.9C104.933 289.8 104.833 289.6 104.833 289.5C104.933 289 105.534 289.3 105.835 289.4L106.035 289.3C106.035 289.2 106.435 288.8 106.535 288.8H106.736C107.336 289.1 107.537 289.5 107.737 289.6C107.937 289.7 108.137 289.6 108.238 289.9C108.338 290 108.338 290.3 108.438 290.4C108.738 290.5 108.938 290.2 109.239 290.2C109.539 290.4 109.439 290.6 109.539 290.9C109.539 291 109.639 291 109.74 291.1C109.84 291.5 110.34 291.6 110.541 291.9C110.841 292.3 111.141 292.9 111.442 293.2C111.942 293.6 113.344 293.2 113.644 293.6C113.745 293.6 113.945 293.6 114.045 293.5L114.145 293.4C114.045 293.3 113.845 292.3 113.845 292.2C113.845 292.1 115.046 291.5 115.146 291.5L115.347 291.6L115.447 291.8C115.347 292.4 114.946 292.4 114.746 292.8V293L114.846 293.1C115.146 293 115.547 292.8 115.847 292.9V293.1C115.847 293.2 115.747 293.3 115.647 293.4H115.447L115.347 293.5C115.146 293.6 114.946 293.6 114.846 293.7C115.146 294 115.747 294.2 115.947 294.6C116.348 294.7 118.05 296.1 118.05 296.5C118.25 296.7 118.551 296.9 118.851 296.9C118.951 296.8 119.051 296.7 119.051 296.6C119.352 296.5 119.452 296.4 119.852 296.4C119.952 296.4 120.053 296.5 120.153 296.6C120.153 296.7 120.153 296.8 120.153 296.9C120.253 297.1 121.454 297.8 121.655 298.1C121.755 298 121.955 298 122.055 298C122.155 298.1 122.155 298.2 122.155 298.4L122.456 298.6C122.756 299.8 123.257 299.7 123.958 300.1C124.258 300.3 124.358 300.7 124.658 300.9C125.159 300.8 126.361 301.6 126.661 302C126.861 302.2 127.062 302.8 127.162 303V303.1C127.863 304.1 128.363 303.4 129.064 304.2C129.364 304.5 130.366 306.5 130.466 306.5C130.666 306.6 132.068 306.5 132.569 307.5C132.769 307.9 132.569 308.5 132.669 309.1C132.769 309.6 133.169 309.9 133.37 310.4C133.57 310.9 133.77 311.4 133.87 311.9C133.97 312 134.07 312.1 134.07 312.3C134.171 312.6 134.171 312.9 134.371 313.1V313.4C134.471 313.5 134.571 313.5 134.671 313.6C134.771 314.3 134.972 315 135.272 315.7C135.372 315.9 135.472 316 135.572 316.2C135.672 316.4 135.572 316.7 135.672 316.9C135.873 317.3 136.273 317.5 136.674 317.6C136.874 317.6 136.974 317.6 137.174 317.4V317.2C136.974 316.7 135.973 317.1 135.973 316.1L136.073 315.9H136.273L136.574 316.1C136.874 316.1 137.174 315.8 137.375 315.7H137.475C137.174 316.7 137.775 316.9 138.076 317.7C138.176 317.8 138.376 317.8 138.476 317.8C138.576 317.9 139.177 320.6 139.177 320.8L139.277 320.9C139.477 320.8 139.577 320.7 139.678 320.6C140.278 321 139.978 322.7 139.978 323.3C140.078 323.5 140.178 323.8 140.278 324C140.378 324 140.479 324 140.679 323.9V324C140.579 324.3 140.479 324.5 140.378 324.8C140.479 324.9 140.479 325 140.479 325.2C140.378 325.3 140.378 325.5 140.378 325.6C140.479 326.1 141.079 326.3 140.979 326.7L140.779 326.8V327C140.979 327.5 141.179 327.7 141.58 328.1C141.68 328.2 141.88 328.4 141.78 328.5C141.88 328.7 142.081 328.9 142.281 329C142.481 329.1 142.681 329.1 142.882 328.9H143.082V329.1C142.882 329.4 142.581 329.8 142.882 330.1L143.082 330C143.182 329.8 143.282 329.6 143.382 329.5H143.583C143.783 329.9 144.384 330.5 144.283 331C144.083 331.2 143.883 331.3 143.783 331.5V331.7C144.584 332.9 144.484 333.8 143.583 334.9C143.883 335.6 143.783 335.8 144.283 336.4C144.283 336.6 144.484 337 144.584 337.1C144.784 337.2 144.984 337.1 145.185 337C145.485 337 145.585 337.2 145.885 337.2C145.986 337.1 146.086 337.1 146.186 337H146.386C146.486 337.2 146.586 337.3 146.686 337.5L146.887 337.6C146.987 337.6 147.187 337.6 147.287 337.6C147.488 337.8 147.788 338.7 147.888 339C149.09 339.5 148.689 339.8 149.19 340.7C149.39 340.7 149.49 340.9 149.59 341.1C149.59 341.4 149.39 341.6 149.29 341.9L149.19 342H148.989C148.689 341.7 148.389 341.8 147.988 341.8C147.888 341.7 147.988 341.4 147.888 341.2C147.488 340.8 147.087 340.1 147.087 339.5C147.087 339.5 145.885 339 145.885 338.9L145.685 339C145.785 339.3 146.086 339.3 146.186 339.5C146.386 339.9 146.486 340.4 146.686 340.8C146.787 340.9 146.987 341.1 147.087 341.2C147.187 341.4 147.187 341.6 147.287 341.7C147.688 342.4 148.389 343 148.789 343.7C148.989 344.1 149.19 344.5 149.49 344.9C149.59 345.1 149.79 345.4 149.991 345.5L150.091 345.3C149.79 344.6 149.79 343.3 149.09 343.1C149.09 343 148.989 342.9 148.889 342.8V342.6L148.989 342.4H149.19C149.59 342.6 150.291 344.2 151.493 344.9V345.1C151.192 345.9 150.491 345.7 150.191 346.3C150.391 347.1 150.992 346.6 151.192 347.8C152.093 348.4 151.693 349.5 151.893 349.8C152.093 349.9 152.193 350 152.394 350C152.394 350.1 152.494 350.2 152.494 350.2C152.594 351.6 153.395 351.4 153.495 352C153.695 352.6 153.395 353.1 153.295 353.7C153.195 354.5 153.595 354.7 153.595 355.4C153.595 356 153.395 356.8 153.395 357.5C153.395 357.8 153.595 358 153.595 358.3C153.896 358.8 153.896 358.6 153.896 359.2L153.996 359.4C154.597 359.4 154.597 358.4 154.597 358L154.697 357.8C154.997 357.7 155.598 357.7 155.798 358.1C155.798 358.3 155.698 358.5 155.698 358.7C154.697 359.1 154.797 360.3 154.196 361C154.096 361.2 153.796 361.2 153.595 361.4C153.395 361.9 153.695 362.5 153.395 363.1C152.994 364 151.693 364.1 152.093 365.5C152.093 365.7 151.893 365.8 151.793 366C151.693 366.4 151.893 366.4 151.993 366.7V367.2C151.793 367.5 151.292 368.2 151.493 368.6H151.693L151.793 368.5C151.893 368.1 152.093 367.8 152.193 367.4L152.394 367.3V367.4C152.394 367.5 151.993 370.1 151.993 370.2C151.793 370.5 151.392 370.7 151.292 371C151.192 371.3 151.392 371.6 151.292 371.9C151.292 372.1 151.092 372.2 151.092 372.5C151.092 372.8 151.392 372.8 151.292 373.3C151.192 373.8 150.892 374.2 150.892 374.7C150.892 375 151.192 375.1 151.192 375.4C151.192 375.7 150.892 375.9 150.992 376.2C151.392 376.3 151.292 377 151.292 377.3C151.493 377.5 151.392 377.9 151.392 378.1C151.693 378.2 151.793 378.3 151.893 378.6C151.893 378.7 151.793 378.8 151.693 378.9C151.092 378.7 151.292 378.3 150.992 377.8C150.892 377.6 150.792 377.5 150.692 377.3C150.591 376.9 150.692 376.4 150.491 376C150.291 375.9 150.091 376 149.891 376C149.59 376 149.39 375.8 149.09 375.7L148.889 375.8C148.989 376.2 149.19 376.3 149.49 376.4L149.59 376.6C149.49 376.9 149.39 377.1 149.39 377.4C149.79 378.2 150.591 378.3 150.892 379.2C151.092 379.2 151.292 379.3 151.392 379.5C151.392 379.7 151.392 379.9 151.593 380.1H151.793C152.193 380.4 151.993 381.1 152.093 381.5C152.193 381.8 152.594 381.9 152.694 382.1C152.794 382.3 152.794 382.5 152.794 382.7L152.894 382.8C153.695 383 153.796 382 153.996 381.5H154.196C154.296 381.6 154.396 381.8 154.496 382L154.396 382.2C154.296 382.3 154.196 382.4 154.096 382.4C153.996 382.6 153.996 382.8 153.996 383C153.896 383.2 153.595 383.2 153.395 383.4C152.794 384.1 153.395 384.4 153.495 385.1C153.595 385.6 153.796 386.4 153.796 386.8C153.695 387.2 153.595 387.5 153.595 387.9C153.796 388.2 154.096 388.5 154.196 388.8L154.096 389C154.196 389.4 154.396 389.4 154.296 390C154.396 390.1 154.597 390.3 154.697 390.4L154.797 390.3C154.997 390 154.997 389.7 155.197 389.5L155.398 389.4L155.598 389.5C155.598 389.6 155.698 389.8 155.598 389.9C155.498 390 155.498 390.1 155.398 390.2C155.498 390.2 155.898 390.6 155.998 390.7V390.9C155.798 391.1 155.698 391.3 155.498 391.4V391.5C155.698 391.7 156.098 391.8 156.199 392.1C156.399 392.8 156.199 394.7 155.798 395.3C155.598 395.6 155.097 395.6 154.997 396.1H154.897C154.797 396.1 154.797 396.1 154.797 396.2C154.496 396.5 154.396 396.9 153.996 397.1C153.695 397.3 153.495 397.3 153.295 397.5C153.295 397.8 153.595 398 153.595 398.2C153.595 398.3 153.595 398.5 153.695 398.6C154.196 398.8 154.296 398.9 154.396 399.4C154.897 399.7 155.398 399.7 155.097 400.6C155.197 400.8 156.199 401.2 156.199 402.3C155.898 402.6 155.698 403.3 155.798 403.6C156.199 404.1 156.199 404.8 156.499 405.4C156.799 405.8 158.201 406.4 158.401 406.8C158.401 407.3 158.301 407.4 158.702 407.8C158.802 407.8 158.902 407.9 159.102 407.9C159.403 408.3 159.202 409.3 159.102 409.8C159.102 409.9 159.202 409.9 159.202 410C159.603 410.4 159.503 410.5 159.703 410.9C159.903 411 160.104 411 160.204 411.1C160.404 411.3 160.304 411.6 160.504 411.8C160.604 411.9 160.804 411.9 160.905 411.9C161.706 411.3 161.906 412 162.406 411.9L162.507 412C162.607 412.3 162.707 412.7 162.707 413C162.306 413 162.306 412.6 162.006 412.5L161.906 412.6C161.706 412.9 162.206 413.8 162.406 414C163.308 414.2 163.508 415.1 164.209 415.5L164.309 415.4C164.309 415.2 164.309 414.9 164.309 414.7L164.409 414.6H164.609C164.709 414.7 164.81 414.8 164.91 414.8L165.01 415.2C165.21 415.3 165.41 415.3 165.611 415.3L165.711 415.5C165.711 415.7 165.711 415.9 165.811 416.1C165.911 416.1 166.011 416.3 166.011 416.4L165.911 416.5C165.11 416.7 165.11 416 164.81 415.9L164.709 416L164.609 416.2C164.709 416.5 165.01 416.9 165.01 416.9L164.91 417.1C165.01 418.1 165.711 418.5 166.612 418.6C166.412 418.4 166.111 418.2 166.011 417.9L166.111 417.7H166.311C166.812 417.8 166.812 418.3 167.513 418.2V418.4C167.313 418.7 167.012 418.9 166.912 419.1C166.812 419.4 167.313 420.4 167.513 420.5C167.913 420.7 168.014 420.6 168.214 421.1C168.314 421.4 168.214 421.7 168.314 422C168.514 422.4 168.614 422.8 168.815 423.2C169.015 423.5 169.315 423.7 169.516 424C169.716 424.2 170.116 424.1 170.317 424.2C170.417 424.3 170.517 424.4 170.517 424.5L170.417 424.6C170.216 424.7 169.816 424.7 169.716 424.8C169.916 425.1 170.216 425.4 170.417 425.6C170.617 425.9 170.617 426.2 170.817 426.5C170.917 426.8 171.218 426.9 171.418 427.2C171.718 427.6 172.419 429.2 173.02 429.6C173.12 429.7 173.621 429.8 173.821 429.8C174.021 430 174.121 430.1 174.221 430.4C174.422 430.6 174.622 430.8 174.922 431C175.423 431.5 175.824 432.1 176.224 432.7C176.324 432.8 176.424 433 176.524 433.1C176.825 433.3 177.426 433.3 177.826 433.5C178.827 434.2 180.83 435.7 181.831 436.1C182.031 436.2 182.132 436.2 182.332 436.2L182.432 436.1V435.9C182.232 435.5 180.73 435.5 180.93 434.5C181.731 434.4 183.433 435.8 183.734 435.9H183.934L184.134 435.6C184.334 435.5 184.535 435.7 184.735 435.7C185.135 435.7 185.736 435.1 186.537 435.3C186.838 435.4 186.838 435.7 187.338 435.7L187.538 435.6L187.739 435.7C187.839 436.1 188.44 436.4 188.64 436.8C188.74 437 188.54 437.2 188.74 437.4L188.84 437.5H189.04C189.241 437.7 189.741 438.3 189.941 438.4C190.442 438.4 192.244 438.7 192.445 439.2C192.445 439.4 192.445 439.6 192.244 439.8C192.445 440.1 192.745 440.2 192.845 440.4C193.346 441 193.146 441.3 193.947 441.8C194.247 442 194.647 442 194.848 442.2C195.148 442.4 195.348 442.8 195.549 442.9C196.049 443.2 196.95 443.1 197.551 443.4C197.651 443.5 197.852 443.6 197.852 443.7C198.352 444.7 198.152 444.2 198.853 444.7C199.053 444.8 199.153 445.2 199.454 445.4C200.154 445.9 201.857 446.4 202.257 447.2C202.558 447.8 202.057 448.4 202.057 449.1C202.157 449.2 203.359 449.6 203.559 450.1C203.759 450.5 203.759 451.1 204.16 451.5C204.36 451.8 204.86 451.7 205.061 452.1C205.661 453.1 204.66 453.1 205.962 454.3C206.062 454.4 206.062 454.4 206.162 454.5L206.362 454.4C206.362 454.1 205.962 454 205.862 453.7V453.4C206.362 452.7 207.364 453.2 207.964 453.3C208.065 453.3 208.565 453.2 208.765 453.2C209.867 454.2 211.369 456.5 211.269 458.1C211.269 458.4 211.068 458.8 210.968 459.1C210.868 459.5 211.269 460 211.068 460.3L210.968 460.4C210.468 460.2 210.568 459.8 209.867 459.7L209.767 459.8L212.77 462.8C213.471 463 214.272 463.1 215.073 463.3C215.374 463.6 215.574 463.7 215.975 463.9L215.874 464.1C216.375 464.6 216.475 465.3 216.375 466C216.275 466.2 215.874 466.5 215.874 466.7C215.674 467.2 216.375 468.8 216.575 469.4C216.575 469.5 216.575 469.7 216.475 469.8C216.375 469.8 216.275 470 216.275 470.1L216.375 470.3L216.575 470.4C216.675 470.4 216.876 470.3 216.876 470.4L216.976 470.6C217.176 470.7 217.677 470.7 217.777 470.8C217.877 471 217.877 471.2 217.977 471.3H218.177C218.578 471.5 218.378 472.1 218.478 472.4C218.578 472.6 218.878 472.7 219.079 472.8C219.179 472.9 219.88 474.1 219.88 474.2C219.679 474.3 219.379 474.5 219.379 474.6C219.079 475.5 220.38 478 221.081 478.5C221.682 478.9 222.483 478.7 223.084 479C223.384 479.1 223.584 479.5 223.885 479.7C223.985 479.8 223.985 480 223.885 480.1C223.684 480.7 223.384 481.2 223.284 481.9C223.284 482 223.284 482.1 223.184 482.3C222.983 482.8 222.783 483.2 222.683 483.8C222.583 483.9 222.483 484 222.483 484.1C222.483 484.7 222.583 484.5 222.883 484.9C223.084 485.2 223.584 486.8 223.785 487.2C223.985 487.3 224.586 487.3 224.886 487.3C224.986 487.4 225.286 487.9 225.387 488C225.887 488.1 226.087 488 226.388 488.5C226.388 488.8 226.087 489 225.987 489.2C225.787 489.9 225.286 490.5 225.186 491.2C225.086 491.6 225.286 492.2 225.186 492.6C225.086 493 224.886 493 224.886 493.5C225.286 493.7 226.788 496.1 226.788 496.5C226.788 496.7 226.788 496.8 226.788 497C227.189 497.4 227.489 497.2 227.79 498C227.89 498.1 228.09 498.1 228.19 498.1C228.39 498 228.49 497.8 228.691 497.6C228.891 497.6 229.292 497.9 229.392 498.1C230.093 498.1 230.293 498.8 230.193 499.5C230.493 499.6 231.494 500.2 231.695 500.5C231.795 500.8 231.795 501.1 231.995 501.4C232.195 501.5 232.395 501.5 232.496 501.7C233.096 502.1 232.596 503.6 232.596 504.2C232.696 504.3 232.796 504.3 232.896 504.4C232.996 504.7 232.796 505.2 232.896 505.5C232.896 505.7 233.096 505.9 233.196 506.2C233.297 506.4 233.196 506.6 233.297 506.8C233.397 507.2 233.797 507.7 233.997 508C234.098 508.4 233.797 508.4 233.797 508.6C234.198 508.9 234.698 508.6 234.999 508.8L235.099 509V509.1L234.999 509.2L234.899 509.4C235.099 509.9 234.698 510.2 234.698 510.7L234.798 510.8H234.999C235.099 510.7 235.099 510.6 235.199 510.4H235.399C235.6 510.7 236.1 510.7 236.1 511.2C236 511.2 235.8 511.2 235.7 511.3C235.7 511.4 235.7 511.6 235.7 511.8C236.1 511.9 236.501 511.9 236.901 512.1V512.3C236.801 512.4 236.801 512.6 236.801 512.7L236.901 512.8C237.001 512.9 237.202 512.9 237.302 512.9C237.702 513.3 237.502 513.7 237.702 513.9C237.902 514.2 238.203 514.2 238.203 514.6C238.203 515 238.003 515.3 238.103 515.6C238.203 515.7 238.303 515.8 238.403 515.8C238.603 516 238.603 516.4 238.804 516.7C239.104 517.1 240.005 517.1 240.105 517.7V517.9C240.005 518 239.905 518.1 239.905 518.2V518.4C240.105 518.6 240.506 518.7 240.806 518.7L240.906 518.8C240.906 519.1 240.506 519.1 240.506 519.4L240.606 519.6L240.806 519.8C240.906 520.1 240.806 520.4 240.906 520.7C241.107 520.8 241.407 520.9 241.607 521.1C242.208 521.7 242.408 523 243.309 523.4C243.61 523.5 244.01 523.8 244.311 523.8C244.511 524 244.411 524.7 244.511 525C244.811 525.1 245.011 524.9 245.212 524.8C245.612 524.8 246.113 525.8 246.614 525.9C246.814 525.8 247.114 525.7 247.314 525.6C248.115 525.6 248.015 526.6 248.316 527C248.416 527.1 249.317 527.4 249.517 527.6C249.918 527.9 250.919 529.4 251.019 529.5H251.219C251.319 529.4 251.52 529.3 251.72 529.3C251.82 529.3 251.92 529.4 252.02 529.5C252.02 529.6 252.02 529.8 252.02 529.9C252.02 530.3 252.922 530.4 253.422 531.5C253.923 531.9 254.323 531.6 254.824 531.7C254.924 531.9 255.024 532.3 255.024 532.5C255.425 533 255.725 533.1 255.925 533.8C256.025 534.1 255.925 534.6 256.226 534.7H256.426L256.526 534.6L256.426 534.4C256.827 534.4 257.227 535.1 257.427 535.3C257.628 535.5 258.028 535.5 258.228 535.8C258.429 536 258.529 536.3 258.729 536.5C258.929 536.7 259.23 536.8 259.43 537C259.93 537.4 260.331 538.2 260.731 538.7C261.032 538.9 261.532 539 261.833 539C261.933 539.2 262.033 539.9 262.033 540.2C262.133 540.7 262.333 540.8 262.333 541.4C262.233 542.1 261.833 542.6 262.033 543.3H262.133C262.133 543.2 262.233 543 262.233 542.9L262.333 543C262.534 543.3 262.333 543.8 262.434 544.1C262.534 544.3 262.634 544.4 262.634 544.6C262.734 545.5 262.333 546.3 262.434 547.2C262.534 548.4 263.135 549.5 263.335 550.7C263.435 551.2 263.335 551.9 263.335 552.4C263.335 553.2 263.435 554.1 263.635 554.8H263.735C263.835 554.7 264.036 554.6 264.136 554.5C264.036 554.3 263.936 554.2 263.936 554.1C263.835 553.7 263.936 553.3 263.835 552.9C263.735 552.5 263.435 551.7 263.835 551.3L264.036 551.2L264.236 551.3L264.336 551.1L263.535 549.5C263.535 549.3 263.535 549.2 263.535 549C263.735 548.9 264.636 549.4 264.837 549.6C265.037 549.6 265.237 549.7 265.437 549.7C265.437 550.2 265.237 550.6 265.237 551C266.038 551.8 265.938 553.3 266.739 554C267.14 554.3 268.241 554 268.842 554.4C269.342 555 268.541 555 269.743 555.2L269.843 555.3C269.943 555.9 269.643 556 269.743 556.6C269.743 557 269.743 557.7 269.943 558.1C270.043 558.3 270.143 558.4 270.143 558.6C270.143 559.1 269.443 559.4 269.543 560L269.643 560.2C269.743 560.3 269.943 560.3 270.043 560.4L270.143 560.5C270.244 560.8 270.444 561.2 270.644 561.5L270.844 561.6C271.045 561.6 271.245 561.5 271.445 561.5C271.645 561.7 271.745 561.8 271.946 562C272.146 562 272.346 561.9 272.547 561.9C272.647 562 272.847 562.1 272.947 562.3C273.047 562.3 273.247 562.4 273.247 562.5C273.348 562.8 273.348 563.1 273.548 563.4C273.648 563.4 273.848 563.4 273.948 563.4L274.148 563.5C274.549 564.3 274.249 564.8 275.35 565C275.45 565.2 275.55 565.4 275.45 565.6C275.35 565.6 275.25 565.5 275.15 565.5L275.05 565.6L274.95 565.8C275.15 566.3 275.45 566.2 275.45 566.9L275.55 567L275.751 566.9L275.851 567C275.851 567.2 275.851 567.3 275.851 567.5L275.951 567.6L276.351 567.5C276.552 567.8 275.851 570.6 275.751 571.2C275.751 571.6 276.151 573.2 276.552 573.3C276.752 573.6 276.852 574 277.252 574.1C277.553 574.5 277.353 574.8 277.953 575.1C278.354 575.8 278.053 576.3 277.653 576.9C277.753 577.1 277.953 577.3 277.953 577.5C278.053 577.9 278.053 578.1 278.053 578.3C278.354 578.4 278.554 578.6 278.754 578.8C278.854 578.9 278.955 578.9 278.955 578.9C279.355 578.7 279.555 578.7 280.056 578.7H280.156C280.957 578.5 281.658 578.2 282.259 577.6H283.46V577.3L283.561 576.6C283.561 576.2 283.16 575.4 282.96 575V574.8C283.26 574.6 283.56 574.5 283.761 574.3C283.961 574.2 284.061 573.9 284.161 573.8C284.362 573.6 284.962 573.7 285.163 573.6C285.363 573.6 285.563 573.5 285.763 573.4C286.564 573 286.765 572.9 287.566 572.8C287.566 572.8 287.866 572.6 287.966 572.6C288.266 572.5 288.567 572.6 288.767 572.4L288.967 572.1L288.767 571.3C288.867 571 288.967 570.8 288.967 570.5C289.168 569.9 289.268 569.9 289.268 569.3C289.268 569 289.568 568.6 289.668 568.4V568.2L289.268 567.6V567.4L289.768 567.2H289.868L290.069 567.4C290.269 567.4 290.77 567.7 290.87 567.9C291.07 568 291.37 568 291.571 568.1L291.871 568.4C292.171 568.5 292.372 568.4 292.672 568.2C292.772 568 292.672 567.6 292.672 567.4L292.372 567.1L292.472 566.5C292.372 566.2 292.171 565.8 292.171 565.5L292.572 565.2C292.672 564.9 292.672 564.9 292.572 564.6C292.772 564.6 293.373 564.8 293.473 564.8L293.974 564.5L293.773 563.8L293.473 563.6C293.773 563.2 293.773 562.8 293.673 562.3L293.573 562.2L293.173 562.3L292.672 561.8C292.572 561.4 292.572 561.2 292.372 560.9H292.071L291.971 560.7L291.871 560.6H291.471C291.27 560.5 291.17 560.5 290.97 560.5C290.77 560.3 290.569 560 290.369 559.7C290.269 559.5 290.269 559.4 290.069 559.3L289.768 559.4C289.868 559.1 289.768 558.8 289.468 558.5L289.568 558.3C289.568 558.2 289.468 557.9 289.568 557.9C289.969 557.7 289.969 557.7 290.369 557.6L290.97 557.2C290.77 557 290.77 556.6 290.77 556.4L290.67 554.4C290.67 553.7 293.173 554.2 293.273 553.4L291.07 551.4C290.87 551.4 290.269 551.7 290.169 551.8C290.069 551.5 290.069 551 290.069 550.7L290.169 550.5L290.77 550.2L290.87 549.1L290.67 548.9V548.7C290.87 548.7 291.27 548.5 291.37 548.4L291.27 548.2L291.37 548C291.671 547.9 291.871 547.6 292.171 547.4V547.1C291.971 546.8 291.671 546.4 291.571 546L291.771 545.4C292.171 545.2 292.572 545.1 292.972 545L293.273 544.7C293.573 544.6 294.074 544.6 294.374 544.7L294.875 544.3H295.175L295.275 544.1C295.576 544 295.976 544 296.177 544.1C296.377 543.7 295.976 543.3 295.676 543.1H295.275L295.075 543L295.275 542.7V542.5C294.975 542 294.675 542.1 294.374 541.9C294.174 541.8 293.874 541.5 293.673 541.3L292.972 541.2C292.872 541.2 292.672 540.9 292.672 540.7L292.772 540.6C292.972 539.7 292.572 539.7 292.572 539C292.672 537.3 293.373 535.8 294.374 534.4C294.474 534.3 294.975 533.9 294.975 533.9L295.476 533.7C296.577 533.3 297.478 533.3 298.58 533.8C299.08 534 299.481 534.4 299.981 534.7L300.282 534.6C300.382 534.7 300.582 534.8 300.682 534.9C301.083 535.3 301.583 535.7 302.084 536.1C302.585 536.5 303.286 536.9 303.886 537.2C304.287 537.4 304.587 537.9 304.888 538.3L305.589 539.4C305.689 539.4 305.889 539.5 306.089 539.5C306.89 539.9 307.191 540.9 307.591 541.1C307.691 541.2 307.891 541.2 308.092 541.3C308.292 541.4 308.893 541.7 309.093 541.7L309.794 541.2C309.894 541.2 310.795 541.3 310.795 541.3C310.795 541.3 310.995 541.5 311.096 541.5C311.196 541.6 311.296 541.6 311.396 541.6V542L311.496 542.3L311.796 542.1H312.097L312.497 542.4C312.798 542.3 313.298 542.4 313.499 542.6L313.799 542.3L313.999 542.4V542.5C313.999 542.8 313.899 543.5 314.199 543.8L316.402 544.1L317.604 542.9C317.804 542.7 318.705 541.3 318.905 540.9V540.7L319.006 540.6L319.206 540.8H320.207C320.708 540.8 320.708 540.8 321.008 541.2L322.21 542.5C323.111 541.3 323.011 541.4 323.611 540.2L324.513 540.8C324.513 540.8 328.818 539.6 330.22 539.3C331.521 539.1 334.525 538.9 335.627 539.5C336.728 540.1 337.529 540.4 338.13 540.2L340.633 539.2H359.357C359.757 539.2 361.059 539.7 361.66 540C362.261 540.3 364.864 542.5 365.465 542.7C366.065 542.9 370.671 543.4 371.572 543.5C372.474 543.6 393.2 546.1 394.802 546.4C396.404 546.6 403.413 546 405.215 545.7C407.017 545.4 411.223 544.8 411.223 544.8L419.533 556.7H424.94C425.541 556.7 426.342 556.2 426.642 556C426.943 555.8 434.753 551.2 434.753 551.2C434.753 551.2 435.554 549.9 435.654 549.5C435.754 549.1 438.958 539.3 439.659 538.4C440.26 537.4 458.283 513.5 458.583 512.9C458.883 512.3 460.886 511.3 461.387 511L490.423 495.8L518.359 492.6C518.359 492.6 536.182 490.7 553.203 488C570.125 485.3 586.245 481.8 586.245 481.8V481.9L686.573 445.2L700.691 398.6L708.901 371.7L693.682 345.8L686.373 352.2L605.269 336.6L580.037 304.2L572.528 293.9V288.7C572.328 288.9 571.927 289 571.527 289C571.326 289 571.226 289 571.026 288.9C570.425 288.6 570.425 287.2 568.923 286.8C568.723 286.7 568.423 286.8 568.222 286.8C568.022 286.8 567.822 286.6 567.622 286.6C565.219 286.4 566.32 287 565.018 287.5C564.518 287.7 563.717 287.6 563.216 287.5C561.914 287.4 562.315 285.7 562.515 285.6C562.615 285.7 562.815 285.7 562.916 285.7C563.216 285.5 563.116 283.6 563.717 282.6C564.418 281.4 566.821 280.7 566.921 279.3C566.921 279 567.021 278.8 567.121 278.6L567.321 278.5L567.622 278.7C567.822 278.5 567.722 278.2 567.922 278C568.323 277.6 568.723 277.8 569.224 277.6C569.424 277.5 569.524 277.3 569.824 277.2V277C569.524 276.9 569.424 276.6 569.124 276.4H568.923C568.823 276.5 568.723 276.7 568.523 276.8H568.323L568.122 276.7C568.022 276.3 568.122 276 568.022 275.6L567.922 275.5H567.722C567.521 275.6 567.521 275.8 567.321 275.9L567.121 275.8C567.021 275.7 566.921 275.5 566.821 275.3H566.62C566.42 275.6 566.62 275.9 566.52 276.3C566.22 276.9 565.419 277.1 565.118 277.6C564.918 277.9 565.118 278.2 564.918 278.5C564.618 278.6 563.917 279.2 563.717 279.5L563.516 279.6H563.316C562.916 279.3 563.216 279.1 563.216 278.8C563.216 278.4 563.016 277.6 563.116 277.3C563.216 276.9 563.617 276.8 563.717 276.3L563.617 276.1C563.316 276.2 562.916 276.3 562.615 276.1C562.515 275.9 562.615 275.7 562.415 275.5H562.215C562.014 275.7 561.714 275.8 561.514 275.6C561.213 275.6 560.913 275.7 560.713 275.7C560.613 275.8 559.211 277.1 559.111 277.1C558.911 277.2 558.71 277.2 558.51 277.3C558.41 277.3 557.108 278.1 557.008 278.1C555.807 277.9 552.602 277.4 552.302 277.3C552.202 277.1 548.898 273.4 548.898 273.2C548.898 273.1 547.796 271.1 547.696 270.9L546.194 272C545.994 272.1 545.694 272.1 545.493 272.2C544.993 272.4 544.793 273.3 544.292 273C544.092 272.8 544.092 272.3 543.891 272.1C543.591 271.8 543.291 271.6 543.191 271.1C543.09 270.7 543.391 270.4 543.391 270C543.391 269.6 542.99 269.1 542.99 268.7C542.89 268.3 543.09 267.8 542.99 267.3C542.99 267.2 542.39 266.7 542.289 266.5C542.089 266.5 541.488 266.3 541.388 266.2C540.988 265.8 541.288 265.2 541.188 264.7C540.888 263.8 538.885 260.8 538.084 260.3C537.884 260.4 537.784 260.6 537.784 260.8C537.884 260.9 537.884 261.1 537.884 261.2L537.784 261.3L537.583 261.2C537.283 260.5 537.383 259.5 537.083 258.8C536.482 258.4 537.083 257.4 537.083 256.4C536.983 255.2 536.081 255 535.981 254.3C535.881 253.5 536.382 252.6 536.182 251.8C536.182 251.7 536.082 251.6 536.082 251.5C535.981 251.1 535.781 250.8 535.681 250.4C535.581 250.1 535.581 249.7 535.481 249.4C535.381 249.1 535.08 249 534.98 248.6C534.98 248.3 535.08 247.8 534.88 247.5C534.68 247.1 534.379 246.6 534.079 246.4C533.779 246.1 533.378 246.3 532.978 246.2C532.577 246.1 532.677 245.9 532.477 245.7C532.277 245.4 531.876 245.3 531.676 245V244.8C531.876 244.5 531.776 244.2 531.476 244C531.275 244.2 530.775 244.5 530.775 244.8C530.975 245.2 531.476 245.5 531.175 246L531.075 246.1L530.975 245.9L530.875 245.7C530.775 245.5 530.474 245.5 530.374 245.3C530.174 245.1 530.074 244.8 529.874 244.5C529.673 244.2 529.273 244.1 529.073 243.8C528.872 243.5 529.073 243.1 528.872 242.8C528.672 242.5 527.971 242.2 527.771 242C527.571 241.8 527.571 241.5 527.37 241.3C527.37 241.3 526.169 239.9 525.969 239.6C525.668 239.2 525.869 239.1 525.869 238.8C525.869 238.5 525.568 238.4 525.468 238.2C525.368 238 525.468 237.8 525.268 237.7L525.068 237.8C525.068 237.9 524.967 238.1 524.967 238.2C524.667 238.1 524.667 237.9 524.467 237.7C523.666 237.1 523.766 237.3 523.465 236.2L523.566 236.1C523.966 235.9 524.367 236.3 524.467 236.6L524.667 236.7C524.867 236.9 524.867 237.2 525.068 237.3C525.168 237.3 525.368 237.4 525.468 237.4C525.568 237.5 525.668 237.5 525.768 237.6C527.07 237.7 526.569 238.3 526.67 239H526.87L526.97 239.1C526.97 239.3 527.07 239.7 527.27 239.8L527.37 239.7C527.471 239.5 527.27 239.3 527.37 239C527.571 237.8 526.67 238 526.369 237.1C526.169 236.5 526.069 235.8 525.568 235.4C525.268 235.1 524.567 234.9 524.367 234.5C524.267 234.3 524.166 234 524.066 233.8C523.866 233.4 523.465 233 523.265 232.6C523.165 232.5 522.564 230.7 522.564 230.6C522.564 230.3 522.564 230 522.464 229.7C522.364 229.4 522.264 229 522.464 228.7C522.564 228.6 522.765 228.6 522.865 228.6L523.065 228.5C523.065 228.3 522.865 228 522.765 227.8C522.664 227.2 522.765 226.4 522.064 226.1C521.763 226 521.163 226.5 520.862 226.1C520.862 225.9 521.062 225.8 520.962 225.5L520.762 225.4C520.662 225.5 520.462 225.5 520.362 225.5C520.261 225.4 519.861 224.9 519.861 224.8L519.761 224.7H519.561C519.46 225 519.861 225.4 519.561 225.7C519.26 225.7 519.16 226 519.06 226.2C518.96 226.2 518.86 226.3 518.659 226.3L518.459 226.2C518.259 225.9 518.459 224.9 518.559 224.5C518.459 224.2 518.259 223.9 518.359 223.5C518.559 223.3 518.86 223.2 518.96 223.1C519.16 222.8 518.86 222.3 518.559 222.2C518.459 221.9 518.159 221.6 517.958 221.3C517.958 221.2 517.958 221 517.958 220.8C518.459 220.2 518.76 219.9 519.06 219.1C519.16 218.9 519.16 218.7 519.36 218.6C519.761 218.6 519.761 218.7 520.061 218.9C521.363 219.5 520.662 220 520.962 221.1C521.062 221.5 522.164 221.6 522.564 222.6C522.664 222.9 522.464 223.3 522.564 223.7C522.664 223.9 522.765 224 522.865 224.2C522.965 224.4 522.965 224.6 523.065 224.7H523.265C523.465 224.6 523.466 224.4 523.566 224.2C523.666 223.8 523.466 223.5 523.566 223.1C523.666 222.8 523.866 222.5 523.866 222.2C523.866 222 523.766 221.7 523.866 221.5C523.866 221.2 524.066 221 524.066 220.7C524.066 220.4 523.866 219.9 523.966 219.6C524.066 219.4 524.267 219.3 524.367 219.3C524.467 219.3 524.567 219.4 524.667 219.5L524.767 220.1H524.967C526.269 218.7 525.668 217.7 525.668 216.1C525.668 215.7 525.969 215.3 525.969 214.9C525.969 214.4 525.768 214 525.668 213.5C525.668 213.1 525.869 212.7 525.768 212.3C525.668 211.9 525.368 211.6 525.068 211.3C524.867 211.1 524.667 210.6 524.567 210.5C524.267 210.3 523.866 210.3 523.566 210.2C523.165 210.1 522.765 209.8 522.364 209.6C521.663 209.4 520.862 209.5 520.261 208.8C520.161 208.7 518.76 205.4 518.659 205.2C518.559 205 518.559 204.5 518.559 204.3C518.559 204.1 518.759 203.9 518.759 203.7C518.759 203.5 518.659 203.3 518.659 203C518.659 202.7 519.06 202.4 518.96 202C518.759 201.7 518.359 201.6 518.159 201.3C517.858 200.7 518.259 199.1 518.459 198.5L518.659 198.4C518.76 198.5 518.759 198.7 518.759 198.8C519.36 199.4 518.86 199.7 519.16 200.1C519.36 200.4 519.661 200.6 519.861 200.8H520.061C520.662 200.3 520.762 200.8 521.163 200.5L521.363 200.6C521.563 200.9 521.964 200.8 522.264 200.9C522.765 201.1 523.265 202 523.666 202.4H523.866L524.066 202.3C524.066 200.7 522.064 200.3 521.163 199.4C520.762 199 520.662 198.5 520.362 198.1C520.261 197.9 519.961 197.8 519.861 197.6C519.26 197 517.758 194.8 517.057 194.5C516.156 194.1 514.854 194.5 514.254 194.3C513.853 194.1 513.653 193.8 513.253 193.5C512.952 193.3 512.752 193.4 512.451 193.3C512.251 193.2 511.751 192.9 511.45 192.7C510.849 192.3 510.349 191.7 509.748 191.3C509.247 190.9 508.146 190.7 507.545 189.9C507.345 189.6 507.445 189.1 507.245 188.7C507.045 188.4 506.744 188.1 506.544 187.9C506.344 187.6 506.244 187.2 506.043 186.9C505.943 186.8 505.743 186.7 505.643 186.6C505.543 186.5 505.543 186.3 505.543 186.2C505.342 186 504.942 186 504.742 185.7C504.441 185.3 503.74 183.9 503.841 183.4C503.841 183 504.541 182.6 504.541 182H504.441C504.141 182.1 503.941 182.6 503.54 182.7L503.34 182.6C503.14 182.4 503.04 182.2 502.839 182.1C502.238 181.9 501.738 182.5 501.838 183.1C501.938 183.5 502.539 183.6 502.839 183.9V184.1L502.739 184.3C502.238 184.4 501.738 183.7 501.237 183.7C500.837 183.7 500.636 184.2 500.236 184.1C499.936 183.7 500.336 183.4 500.136 183.1L499.936 183C499.635 183.3 499.635 183.9 499.335 184.2H499.135C499.034 184.1 499.034 183.8 498.834 183.7C498.434 183.6 498.033 183.9 497.633 183.4V183.2L497.733 183.1C498.133 183.1 498.334 183.3 498.634 183.2L498.734 183.1V182.9L498.634 182.7L498.734 182.5L498.834 182.4C498.934 182.2 499.235 181.5 499.135 181.3L498.934 181.2C498.834 181.2 498.634 181.3 498.534 181.2C498.334 181.1 498.334 180.9 498.133 180.8L497.933 180.7C497.132 181 497.633 181.5 497.032 182.3L496.832 182.4L496.631 182.3C496.531 182 496.732 181.6 496.531 181.4L496.231 181.6H496.031L495.93 181.5C495.83 181.3 495.93 180.8 495.83 180.5C495.73 180.3 495.43 180.2 495.53 179.9C495.63 179.5 495.83 179 495.83 178.6C495.73 178.2 495.23 177.4 495.33 176.6C495.43 176.5 495.53 176.4 495.53 176.3L495.43 176.1C494.028 175.2 493.728 176.2 492.726 176.8L492.526 176.7C492.526 176.3 492.827 176.2 492.927 175.8C492.927 175.5 492.827 175.2 492.927 174.9L493.027 174.8H493.327C493.527 174.8 494.028 173.9 494.028 173.8C493.828 173.7 493.527 173.6 493.527 173.3L493.327 173.2L493.127 173.3C493.027 173.6 492.927 174.1 492.626 174.3C492.326 174.3 492.126 174.4 491.825 174.2C491.825 174.1 491.725 174 491.625 173.9C490.524 174 491.024 172.8 489.723 173C489.622 172.9 489.522 172.8 489.422 172.7V172.5C489.422 172.4 489.622 172.3 489.723 172.3H489.923L490.023 172.4H490.223C490.524 172 490.423 171.8 491.124 171.8C491.224 171.9 491.325 172 491.425 172.1C491.425 172.2 491.425 172.5 491.625 172.6C491.925 172.4 492.025 172.2 492.226 171.9L492.426 171.8C492.626 171.8 493.027 171.9 493.127 172.1C493.327 172.2 493.527 172.2 493.728 172.2C494.929 172.1 494.328 172 494.929 171.3H495.129C495.33 171.6 495.129 171.9 495.129 172.1C495.23 172.2 495.53 172.3 495.73 172.3C495.73 172.2 495.63 170.8 495.53 170.6C495.23 170.3 494.829 170.3 494.529 170C494.128 169.6 494.028 169 493.628 168.6C493.227 168.2 492.827 168.5 492.426 168.4C491.925 168.3 491.725 168.1 491.124 168.2C490.824 168.3 490.524 168.5 490.223 168.6C489.322 168.7 488.421 168.3 487.92 168.2V168.3L488.02 168.4L487.92 168.6C487.62 168.9 487.119 168.9 486.919 168.5C487.119 168.2 487.52 168.4 487.52 167.8L487.42 167.7C485.717 167.5 485.017 165.6 484.115 165.5C483.815 165.5 483.615 165.8 483.314 165.9C482.914 166.1 482.413 166.3 482.113 166.7V166.9C482.213 166.9 482.313 167 482.413 167.1C482.513 167.2 482.513 167.4 482.513 167.5C482.313 167.7 482.013 167.8 481.813 167.8C481.212 167.3 481.813 166.4 482.113 165.9V165.7L482.013 165.5L481.813 165.6C481.612 166 481.412 166.4 481.012 166.6C480.711 166.6 479.81 166.5 479.71 166.1C479.81 166 480.01 165.8 480.21 165.8C480.411 165.9 480.911 166.2 481.112 166.1V165.9C481.012 165.7 480.811 165.5 480.711 165.3L480.811 165.1C480.911 165.1 481.112 165 481.312 165L481.412 164.9C481.412 164.4 481.512 164.2 481.512 163.6L481.412 163.4C481.212 163.7 481.012 164.3 480.511 164.3L480.311 164.2C480.211 164.1 480.311 163.1 480.21 162.7L480.11 162.6C479.91 162.7 479.81 163 479.71 163.2C479.61 163.3 479.409 163.3 479.309 163.2C478.709 162.8 479.309 161.9 479.009 161.3L478.809 161.2C478.508 161.5 478.809 161.9 478.108 162.3H477.908L477.807 162.1C477.908 161.7 478.208 161.4 478.308 161C478.308 160.8 478.308 160.5 478.308 160.3C478.308 160.1 478.508 159.9 478.608 159.6C478.709 159.2 478.608 157.7 479.51 157.8C479.81 158 479.51 158.7 479.51 159C479.409 159.2 479.209 159.3 479.009 159.6C479.109 160 478.909 160.1 478.809 160.4V160.6H479.009C479.81 160.3 479.61 159 479.81 158.8C480.01 158.7 480.11 158.5 480.411 158.4L480.611 158.5C480.611 158.7 480.711 158.9 480.811 159.1C480.811 159.4 480.411 159.5 480.311 159.9V160.1C480.711 160.2 480.511 161 480.511 161.3C480.411 161.3 480.311 161.4 480.21 161.5L480.311 161.7L480.511 161.8C480.911 161.7 481.412 160.6 481.612 160.3C481.612 159.9 481.312 159.6 481.412 159.3C481.612 157.8 482.213 158.2 480.911 157.1C480.611 156.9 480.21 156.9 480.11 156.6C480.11 156.5 480.11 156.3 480.01 156.2C479.91 156.1 479.81 156.1 479.71 156C479.61 155.8 479.61 155.6 479.61 155.3L479.51 155.2H479.309C478.108 154.9 478.508 154.3 477.908 153.8C477.607 153.5 476.706 153.2 477.207 152.5C477.307 152.3 477.507 152.2 477.707 152.2C477.908 152.2 478.008 152.5 478.108 152.5L478.308 152.4C478.408 152.2 478.608 152 478.809 151.9C478.809 151.3 478.108 151.6 477.807 151.5C477.207 150.7 476.706 151.1 476.005 151C475.805 151 475.605 150.7 475.404 150.5C474.904 150.4 474.003 150.9 473.902 150C474.003 149.9 474.103 149.8 474.103 149.7C474.103 149.1 471.6 147.8 472.501 144.9C472.601 144.5 473.001 144.6 473.202 144.3V144.1C472.801 143.6 472.401 143.4 472.1 142.8C472 142.7 472 142.6 471.9 142.6C471.499 142.3 471.099 142.1 470.698 141.7C469.897 140.9 469.297 139.2 469.697 138.1C469.797 137.6 470.198 137.4 470.298 136.9L470.198 136.8L469.998 136.9C469.397 137.6 469.697 137.7 468.596 137.9C468.395 137.9 468.195 138 468.095 137.9C467.995 137.7 468.095 137.5 468.295 137.4C468.395 137.4 468.496 137.5 468.596 137.6L468.796 137.7C469.197 137.5 469.797 137.2 469.797 136.7C469.597 136.4 469.297 136.1 469.196 135.8C469.096 135.4 469.497 134.3 469.196 133.9C468.796 133.7 468.396 133.7 467.995 133.5C467.795 133.4 467.294 132.9 466.894 132.5C458.783 132.6 450.673 132.7 442.563 132.9L442.763 132.2C442.563 132 440.76 130 440.66 129.9C440.56 129.6 440.46 129.2 440.36 128.9C440.16 128.8 439.459 128 439.359 127.8L439.058 127C439.058 126.9 438.958 125.4 438.958 125.4C438.958 124.6 439.258 124.1 439.058 123.3L438.758 121.8C438.457 121 438.457 121.1 437.857 120.4C437.556 120.1 437.456 119.4 437.056 119L436.255 118C436.054 117.8 435.554 116.8 435.353 116.4C435.153 116.1 435.153 116.1 434.853 115.9L434.352 115.5C424.239 114.2 414.227 112.9 404.114 111.7C404.014 111.8 399.808 113.2 399.708 113.2C399.708 113.2 399.408 113.2 399.308 113.2C380.484 111.4 361.56 109.7 342.736 108.2C341.734 107.4 329.219 97.1 326.815 95.2C319.907 89.6 292.171 67.3 288.166 64.2C284.362 61.2 254.924 38.1 254.524 37.9L252.02 36.8C245.712 34 239.404 31.2 233.096 28.4C232.496 28.1 231.795 27.6 231.294 27.3C231.294 27.3 204.86 11 198.853 7.4C198.853 7.4 198.653 7.3 198.653 7.2C197.351 7.4 170.317 2.3 157.4 0ZM26.4336 157.9C26.4336 158.1 26.5337 158.3 26.6339 158.4L26.3335 158.5V158.6L26.4336 158.7L26.8341 158.8L26.5337 159L26.6339 159.1C27.0344 158.9 27.2346 159.2 27.4349 159.5H27.535V159.3C27.535 159.1 26.734 158.4 26.5337 158L26.4336 157.9ZM27.3348 164.8C27.2346 164.8 27.2346 164.8 27.3348 164.8L27.2346 164.9C27.4349 165.1 27.7353 165.1 27.9355 165.2C28.2359 165.4 28.2359 165.8 28.5363 166L28.7365 166.1L28.8367 166C28.5363 165.9 28.2359 165.3 28.1358 165.1C27.9355 164.9 27.535 164.8 27.3348 164.8ZM49.0624 196.2C48.9622 196.5 48.9622 196.8 49.0624 197H49.1625C49.1625 196.8 49.1625 196.5 49.1625 196.3L49.0624 196.2ZM52.5668 200.8H52.4667L52.2664 201.2C52.2664 201.3 52.5668 201.8 52.667 201.9H52.8672C52.8672 201.7 52.7671 201.3 52.5668 201.2L52.667 200.9L52.5668 200.8ZM50.364 202.5C50.2639 202.5 50.1638 202.5 50.0636 202.5V202.6L50.1638 202.7C50.7645 202.8 51.5656 202.7 52.1663 203C52.3666 203.1 52.4667 203.4 52.667 203.4C52.667 203.6 52.8672 203.8 53.0675 203.9C53.0675 204.1 53.1676 204.4 53.3679 204.5H53.468C53.6682 204 52.667 203.1 52.3666 202.9C52.1663 202.7 51.7658 202.8 51.6657 202.6C51.5656 202.6 51.3653 202.7 51.2652 202.7C50.9648 202.5 50.6644 202.5 50.364 202.5ZM70.5897 235.3H70.4896L70.2894 235.6L70.3895 235.7L70.4896 235.5H70.5897L70.6899 235.6L70.5897 235.9V236H70.6899C70.6899 235.8 70.79 235.4 70.5897 235.3ZM71.7913 236.5L71.591 236.7L71.7913 236.9H71.8914C71.8914 236.8 71.8914 236.6 71.7913 236.4V236.5ZM74.4947 237.5C74.3946 237.6 74.2944 237.9 74.2944 238L74.3946 238.1H74.4947L74.5948 237.9L74.7951 237.8V237.7L74.4947 237.5ZM74.4947 249.2L74.3946 249.3C74.4947 249.4 74.695 249.6 74.7951 249.6L74.9953 249.5V249.3C74.8952 249.5 74.5948 249.4 74.4947 249.2ZM81.804 249.5H81.4035L81.003 249.8V249.9H81.2032C81.3034 249.8 81.4035 249.7 81.6037 249.7L81.804 249.5ZM80.7026 253L80.3021 253.2V253.3L80.4022 253.4L80.8027 253.2L80.7026 253ZM113.644 305.2L113.544 305.5C113.644 305.6 113.845 305.8 113.945 305.8C113.945 305.7 113.745 305.2 113.644 305.2ZM115.447 307.9V308C115.547 308.2 115.947 308.6 116.148 308.6C116.148 308.4 115.547 307.9 115.447 307.9ZM144.684 338C144.584 338 144.484 338 144.484 338.1L144.584 338.3C144.884 338.4 144.984 338.6 145.185 338.7L145.385 338.6V338.4C145.185 338.2 144.884 338 144.684 338ZM147.788 339.6L147.688 339.7C147.588 340 148.188 340.8 148.489 340.9H148.689C148.889 340.7 148.689 340.2 148.489 340C148.188 340.1 147.988 339.8 147.788 339.6ZM148.289 351.8L147.988 352.3V352.5L148.289 352.3L148.188 352.2L148.389 351.9L148.289 351.8ZM148.689 372C148.489 372 148.389 372.2 148.389 372.4L148.489 372.6C148.589 372.7 148.789 372.6 148.889 372.6L148.989 372.5C148.989 372.4 148.989 372.2 148.889 372.1L148.689 372ZM191.443 440.8L191.243 440.9C191.143 440.9 190.943 440.9 190.742 440.9L190.542 441L190.442 441.1L190.542 441.2C190.943 441.3 191.143 441.3 191.544 441.1V440.9L191.443 440.8ZM208.064 463.4L207.864 463.5C207.864 463.6 207.764 463.8 207.764 463.9C207.764 464 207.864 464.2 207.864 464.3C207.964 464.3 208.165 464.3 208.265 464.3C208.465 464.1 208.565 463.8 208.365 463.6C208.365 463.4 208.265 463.4 208.064 463.4ZM214.473 479L214.373 479.2L214.473 479.4V479.5L214.573 479.7H214.673L214.773 479.5L214.473 479ZM244.21 557.8L244.11 557.9L244.01 558.1L244.11 558.3C244.21 558.4 244.411 558.5 244.411 558.7L244.611 558.8C244.711 558.7 244.911 558.6 244.911 558.4C244.811 558.2 244.411 557.8 244.21 557.8ZM264.737 557.3L264.636 557.4C264.036 557.4 263.635 556.8 263.735 556.2L263.835 556.1C264.236 556.2 264.837 556.8 264.737 557.3ZM251.019 562.8C251.119 562.6 251.32 562.6 251.52 562.5C251.62 562.5 251.72 562.6 251.82 562.7C251.82 563.3 251.119 563.5 250.619 563.3L250.518 563.1L250.619 562.9C250.719 563 250.819 562.9 251.019 562.8ZM246.313 556.6C246.614 556.6 248.416 557.1 248.616 557.3C249.517 557.4 249.017 559.4 248.916 559.9C249.117 560.2 250.018 562 249.918 562.2H249.717L249.417 562C249.217 562 248.616 562.2 248.516 562.3C248.416 563.4 248.816 563.6 249.717 563.6L249.918 563.7C250.118 564.2 250.318 565 250.619 565.5C250.619 565.7 250.418 565.8 250.318 565.9C249.717 565.9 249.517 565.3 249.117 565.3C248.916 565.3 248.716 565.5 248.516 565.4C247.815 564.4 247.915 564.7 247.014 564.2C246.814 564 247.014 563.7 246.814 563.4C246.313 563.2 245.312 561.7 245.312 561.2C245.312 561 245.412 560.8 245.512 560.6C246.313 560.2 246.714 560.8 247.715 559.7C247.715 559.6 247.715 559.4 247.815 559.3C248.015 559.4 248.115 559.5 248.316 559.6C248.616 559.5 248.616 558.9 248.616 558.6C248.516 557.1 246.513 557.5 245.612 557L245.512 556.8C245.612 556.1 246.313 556.6 246.614 556.8L246.313 556.6ZM242.709 561.2C243.71 561.3 243.409 561.7 243.91 561.9C244.11 562 244.311 562 244.511 562.1C244.611 562.1 244.611 562.2 244.711 562.3C245.011 562.7 245.412 562.9 245.712 563.2C245.913 563.4 245.913 563.7 246.013 563.8C246.113 563.9 246.313 564 246.413 564.2C246.513 564.5 246.413 564.8 246.714 565.1C246.814 565.9 246.714 565.6 247.214 566C247.314 566.1 247.314 566.3 247.515 566.4C247.615 566.5 247.815 566.4 247.915 566.5C248.115 566.6 248.115 566.8 248.316 566.9C248.416 567 248.616 567 248.716 567C249.417 567.3 249.818 567.8 250.418 566.8L250.619 566.7C250.819 566.8 251.019 567 251.119 567.2C251.319 567.4 253.222 567.5 253.522 567.3C253.422 567 253.022 566.3 252.721 566.3L252.821 566.5L252.721 566.7L252.521 566.8C252.321 566.8 251.62 566.5 251.52 566.3C251.42 566.1 251.52 565.9 251.52 565.7C252.02 565.5 252.221 564.2 252.421 563.8C252.922 563.8 252.721 563.6 253.322 563.7L253.422 563.6L253.522 563.7C253.622 564.3 253.923 564.5 254.123 565C254.323 565.4 254.323 565.9 254.524 566.3L254.624 566.4L254.724 566.3C254.824 566.4 254.924 566.6 255.024 566.8C255.124 566.9 255.224 566.9 255.325 567L255.425 567.1C255.525 567.2 255.725 567.2 255.825 567.2L255.925 567.3C256.025 567.2 256.226 567.2 256.326 567.2C256.426 567.3 256.426 567.4 256.426 567.6C256.326 567.6 256.126 567.7 256.025 567.7V567.8C256.126 567.9 256.326 567.9 256.426 567.9C256.726 568.4 256.126 569 256.025 569.4C255.925 570.5 256.726 571.5 256.726 572.6L256.626 572.7C256.326 572.8 256.226 572.6 255.925 572.5C255.625 572.4 255.425 572.6 255.124 572.4C254.924 572.3 253.522 571 253.422 570.9C253.622 570.8 253.923 570.8 254.223 570.7C254.323 570.6 254.423 570.1 254.423 569.9C253.923 568.6 252.02 568.3 250.919 568.9C250.518 569.1 250.318 569.6 249.818 569.8C249.417 570 247.715 569 247.715 568.5C247.515 568.4 247.314 568.4 247.114 568.4C246.714 568 246.313 567.6 245.812 567.2C245.612 567 245.312 567.1 245.112 566.9C244.711 566.4 244.711 565.5 244.311 565.2C243.209 565 243.109 565.4 242.809 564.2C244.411 562.7 242.608 563.1 242.709 561.2ZM244.21 557.8L244.11 557.9L244.01 558.1V558.3C244.11 558.4 244.311 558.5 244.311 558.7L244.511 558.8C244.611 558.7 244.811 558.6 244.811 558.4C244.811 558.2 244.411 557.8 244.21 557.8ZM241.307 554.9C241.307 554.8 241.307 554.7 241.407 554.6C241.707 554.4 242.108 554.4 242.408 554.5C242.508 554.7 242.608 554.8 242.709 554.9L242.608 555C242.208 555.1 241.607 555.1 241.307 554.9ZM238.804 559.8C239.504 559.4 239.104 558.5 239.805 558.3C239.905 558.3 240.005 558.4 240.205 558.5C240.305 558.6 240.305 558.8 240.305 558.9C240.506 559.2 241.507 560 241.407 560.4C241.107 560.7 240.806 561.6 240.506 561.7C239.905 561.6 239.004 560.2 238.804 559.8ZM241.307 561.1C241.307 560.8 241.607 560.5 241.908 560.5L242.008 560.6C242.008 560.7 241.908 560.8 241.807 560.9C241.707 561 241.507 561.1 241.307 561.1ZM236 561.1C236.1 561.2 236.2 561.6 236.3 561.8C236.401 562.2 236.801 562.6 237.001 563.1C237.302 563.3 237.602 563.6 237.602 563.9L237.502 564C237.402 564 237.202 564 237.101 563.9C237.001 563.7 237.001 563.5 236.901 563.4C236.401 562.5 236 562.9 235.9 561.4L236 561.2V561.1ZM242.508 564.7C242.709 564.8 242.709 565.7 242.508 565.9H242.308C242.008 565.5 241.607 565.6 241.507 565.4V565.2C241.707 564.9 242.208 564.5 242.508 564.7ZM237.402 569.8L237.502 569.6L237.702 569.5H237.902C238.003 569.6 238.103 569.8 238.103 570L238.003 570.1C237.802 570.1 237.702 570 237.502 569.9L237.402 569.8ZM242.608 567.3C243.309 567.5 243.71 567.6 244.411 567.7C244.511 567.7 244.611 567.9 244.611 568L244.511 568.2L244.411 568.3H244.21C244.411 568.9 244.811 568.8 245.212 569C245.312 569.2 245.512 569.4 245.512 569.6L245.412 569.7H245.212C245.011 569.6 244.911 569.4 244.811 569.4C244.411 569.1 243.81 569.3 243.309 569.2C243.209 569.2 242.008 568.3 241.807 568.2C241.707 568.1 241.607 567.8 241.707 567.6L241.807 567.5C241.908 567.5 242.108 567.5 242.208 567.5C242.308 567.3 242.508 567.3 242.608 567.3ZM252.02 570C253.022 570.4 252.521 572.3 252.121 572.4H252.02C252.02 572.1 252.02 571.8 252.02 571.5C251.92 571.4 251.82 571.4 251.62 571.4L251.52 571.5C251.52 571.6 251.62 571.8 251.52 572L251.42 572.1L251.219 572C251.019 571.8 251.119 571.5 250.919 571.3C250.819 571.3 250.619 571.2 250.518 571.1C250.619 570.4 251.32 570.2 252.02 570ZM252.121 573.9C252.321 573.8 252.521 573.7 252.721 573.5C252.821 573.7 252.721 574.1 252.721 574.4L252.922 574.5L253.022 574.4C253.122 574.2 253.122 574 253.122 573.7C253.222 573.6 253.322 573.5 253.422 573.5L253.522 573.6C253.622 574.2 253.322 575.1 252.721 575.3C252.02 575.1 252.221 574.4 252.121 573.9ZM219.279 497.9C219.98 497.9 220.38 498.8 219.98 499.3C219.479 499.6 219.179 499.2 218.978 498.8C218.978 498.6 218.878 498.3 218.978 498.1C218.978 498.1 219.179 498 219.279 497.9ZM219.579 501.5C219.679 501.4 219.88 501.3 220.08 501.3C220.48 501.7 219.679 502.8 219.379 503.1L219.179 503C219.079 502.4 219.179 502.4 219.379 501.8C219.479 501.7 219.579 501.6 219.579 501.5ZM228.791 515.7C229.292 516.2 229.292 515.9 229.492 516.7C229.292 516.8 228.991 516.9 228.791 517C228.691 516.8 228.691 516.6 228.591 516.4C228.691 516.2 228.791 515.9 228.791 515.7ZM236.601 515.2C236.1 515.4 235.399 514.8 235.399 514.3C235.7 514.3 237.001 514.3 236.601 515.2ZM186.337 437.2C186.437 437.3 186.437 437.4 186.437 437.5C186.337 437.6 186.237 437.6 186.036 437.6C185.736 437.4 185.235 437.7 184.735 437.1C185.135 437.1 186.137 437 186.337 437.2ZM183.633 437.5C183.834 437.5 184.034 437.4 184.234 437.4C184.935 438.3 185.936 437.9 186.737 438.2C186.938 438.3 187.038 438.4 187.238 438.5C187.438 438.6 187.739 438.7 187.939 438.8C188.139 439 188.44 439.2 188.64 439.4C189.241 439.7 189.841 440.1 190.442 440.4C190.542 440.5 190.542 440.7 190.542 440.8C189.941 441.2 189.341 440.4 188.94 440.1C188.139 440 188.44 439.8 188.039 439.5C187.839 439.4 187.538 439.3 187.338 439.2C187.138 439.1 186.938 438.9 186.737 438.8L186.637 438.7C185.336 437.9 185.235 439 183.633 437.5ZM191.243 440.9C191.143 440.9 190.943 440.9 190.742 440.9L190.542 441L190.442 441.1L190.542 441.2C190.943 441.3 191.143 441.3 191.544 441.1V440.9L191.343 440.8L191.243 440.9ZM188.64 448.2C188.54 448.3 188.44 448.5 188.239 448.5C187.939 448.3 187.839 447.9 187.438 447.6V447.4C187.739 447.4 188.54 447.8 188.64 448.2ZM202.958 455L203.058 454.9C203.258 454.8 203.459 454.9 203.659 454.9L203.759 455V455.2L203.659 455.4C203.459 455.5 203.058 455.6 202.858 455.5C202.958 455.3 202.958 455.2 202.958 455ZM207.964 458.1C208.065 457.9 208.465 457.9 208.665 458C208.765 458.1 208.765 458.3 208.765 458.4L208.665 458.6C208.365 458.6 208.065 458.6 207.964 458.4V458.1ZM208.966 458.9L209.366 458.8C209.667 459 209.466 459.7 209.266 459.9H209.066C208.665 459.7 208.866 459.2 208.966 458.9ZM203.659 459.7C204.059 459.9 204.76 460.3 205.061 460.8C204.66 461.2 203.559 460.4 203.459 459.9V459.7H203.659ZM207.764 463.9C207.764 464 207.864 464.2 207.864 464.3C207.964 464.3 208.165 464.4 208.265 464.3C208.465 464.1 208.565 463.8 208.365 463.5C208.265 463.4 208.165 463.4 208.064 463.4L207.864 463.5C207.864 463.6 207.864 463.8 207.764 463.9ZM210.568 467C210.668 466.7 210.568 466 210.968 465.9L211.168 466C211.269 466.3 211.168 467 211.168 467.3C211.369 467.7 212.17 468.2 212.17 468.5C212.17 468.6 212.07 468.7 212.07 468.8C211.269 469 210.568 467.7 210.668 467.1L210.568 467ZM152.294 362.8L152.193 362.9C152.193 362.8 152.294 362.5 152.394 362.4L152.794 362.3C153.195 362.6 152.694 363.5 152.193 363.5C152.193 363.2 152.193 362.9 152.294 362.6V362.8ZM150.091 371.8C149.891 371.8 149.69 371.9 149.49 371.8C149.59 371.6 149.79 371.4 149.991 371.4L150.091 371.5L150.191 371.7L150.091 371.8ZM148.989 373.2L149.09 373.3C149.19 373.5 148.989 373.9 148.789 373.9L148.689 374C148.589 373.7 148.589 373.4 148.589 373.1L148.689 373C148.789 373 148.989 373 149.09 373.1L148.989 373.2ZM148.789 374.4C149.09 374.4 149.29 374.3 149.59 374.3C149.79 374.4 149.991 374.9 149.991 375.1C149.991 375.2 149.59 375.5 149.49 375.6V375.8L149.39 375.9C149.29 375.8 149.19 375.8 149.09 375.7C148.789 375 148.589 375.1 148.789 374.4ZM148.689 372C148.489 372 148.389 372.3 148.389 372.4L148.489 372.6C148.589 372.7 148.789 372.7 148.889 372.6L148.989 372.4C148.989 372.3 148.989 372.1 148.889 372H148.689ZM154.096 396.9C154.096 396.6 154.096 396.3 154.496 396.2L154.597 396.3V396.5C154.496 396.6 154.496 396.7 154.396 396.9L154.296 397L154.096 396.9ZM153.495 397.1L153.395 396.9L153.495 396.7H153.695L153.796 396.9C153.796 397 153.695 397.1 153.695 397.3L153.495 397.4L153.395 397.3L153.495 397.1ZM247.915 579.1C248.015 579.3 247.915 579.8 247.815 580H247.615C247.415 579.8 247.014 579.9 246.814 579.9C246.714 579.9 246.614 579.8 246.513 579.7L246.413 579.3C246.513 579.2 247.815 579 247.915 579.1ZM148.689 357.3L148.589 357.2C148.689 357.1 148.589 356.8 148.489 356.7C148.589 356.6 148.689 356.6 148.789 356.6V356.7L148.589 356.8V356.9H148.689V357C148.889 357.2 148.789 357.3 148.689 357.3ZM213.371 470.4V470.7L213.672 471.2V472H213.572C213.371 471.7 213.471 470.8 213.171 470.7C213.271 470.6 213.271 470.5 213.371 470.4ZM213.972 472.6C214.072 472.7 214.272 472.9 214.272 473L214.172 473.1L213.972 473.2H213.872C213.872 473.1 213.772 472.8 213.672 472.7C213.772 472.7 213.872 472.7 213.972 472.6ZM214.473 479L214.373 479.2V479.4V479.5L214.473 479.7H214.573L214.673 479.5L214.473 479Z" fill="white"/>
</mask>
<g mask="url(#mask0_18_8277)">
<path d="M714.408 -7H-74.5947V600.9H714.408V-7Z" fill="#E5E9F5"/>
</g>
</g>
<defs>
<clipPath id="clip0_18_8277">
<rect width="708" height="580" fill="white"/>
</clipPath>
</defs>
</svg>
