<svg width="32" height="32" viewBox="0 0 32 32" fill="none" xmlns="http://www.w3.org/2000/svg">
<path d="M25.9983 24.8486L25.3309 23.7343C24.1307 21.7554 22.4742 19.4841 20.3015 19.4841C19.899 19.4841 19.5004 19.5651 19.1058 19.729L17.9396 20.2291C17.8331 20.2733 17.7296 20.3235 17.6201 20.3768C17.3216 20.522 16.9832 20.6864 16.6351 20.6864C15.7763 20.6864 14.7813 19.5688 13.8338 17.5398C12.9039 15.5482 12.9632 14.5041 13.1767 13.9788C13.4122 13.3992 13.96 13.1514 14.5484 12.9287C14.6302 12.8976 14.7041 12.8695 14.776 12.8399L15.9569 12.3427C19.0333 11.0562 17.8888 6.56023 17.5136 5.08622L17.1953 3.81889C16.9233 2.77439 16.2019 0 13.8093 0C13.3663 0 12.8938 0.103194 12.4053 0.306839C12.0847 0.434135 7.67352 2.23476 6.07539 5.39811C4.16537 9.16346 4.51854 14.2127 7.12407 20.4025C9.71012 26.6 13.0636 30.3908 17.0913 31.6692C17.7822 31.8887 18.563 31.9999 19.4122 31.9999H19.4126C22.1922 31.9999 24.936 30.8172 25.1587 30.7191C26.117 30.3131 26.7365 29.6961 26.9998 28.8851C27.446 27.5098 26.6974 26.0031 25.9983 24.8486ZM24.9403 28.2169C24.8792 28.4054 24.6664 28.5774 24.3085 28.7281C24.3026 28.7307 24.2954 28.7337 24.2893 28.7365C24.2645 28.7475 21.7809 29.8352 19.4121 29.8351C18.7854 29.8351 18.225 29.758 17.7464 29.6059C14.3531 28.5288 11.4516 25.152 9.12054 19.5658C6.7722 13.9866 6.39695 9.54939 8.00677 6.37593C9.25679 3.90173 13.1702 2.33218 13.2086 2.31717C13.2164 2.31399 13.224 2.31096 13.2317 2.30779C13.4545 2.21426 13.6543 2.1649 13.8093 2.1649C14.2863 2.1649 14.7204 2.90472 15.0977 4.35477L15.4145 5.61677C16.098 8.30125 15.994 9.98034 15.1189 10.3464L13.9437 10.8414C13.8969 10.8607 13.8422 10.8811 13.7819 10.904C13.1327 11.1498 11.7818 11.661 11.1708 13.1638C10.6165 14.5274 10.846 16.2584 11.8717 18.4559C13.2532 21.4136 14.8112 22.8514 16.6348 22.8514C17.4811 22.8514 18.1605 22.5212 18.5663 22.324C18.6411 22.2877 18.7079 22.2543 18.7798 22.2246L19.9477 21.7238C20.0682 21.6736 20.1839 21.6492 20.3014 21.6492C20.8636 21.6492 21.8715 22.2058 23.4767 24.8519L24.1437 25.9656C24.9656 27.3227 25.0306 27.9389 24.9403 28.2169Z" fill="#092892"/>
</svg>
