<svg width="17" height="17" viewBox="0 0 17 17" fill="none" xmlns="http://www.w3.org/2000/svg">
<g clip-path="url(#clip0_18_17339)">
<path fill-rule="evenodd" clip-rule="evenodd" d="M13.9211 2.79626C12.4529 1.32635 10.5003 0.516487 8.42017 0.515625C4.1338 0.515625 0.645323 4.00401 0.643599 8.29153C0.643024 9.66211 1.00107 11 1.68162 12.1793L0.578369 16.209L4.70085 15.1276C5.83676 15.7472 7.11558 16.0738 8.41701 16.0741H8.42027C12.7062 16.0741 16.195 12.5855 16.1967 8.29776C16.1975 6.2198 15.3894 4.26608 13.9211 2.79626ZM8.42017 14.7608H8.41749C7.25773 14.7604 6.12029 14.4487 5.12776 13.8599L4.89185 13.7197L2.4455 14.3615L3.09847 11.9764L2.94473 11.7318C2.29771 10.7027 1.95604 9.51326 1.95662 8.29201C1.95796 4.72834 4.85755 1.82903 8.42276 1.82903C10.1492 1.8296 11.7721 2.50278 12.9924 3.72451C14.2127 4.94625 14.8843 6.57018 14.8837 8.29728C14.8822 11.8612 11.9828 14.7608 8.42017 14.7608ZM11.9656 9.91997C11.7713 9.82265 10.8159 9.35273 10.6378 9.28779C10.4598 9.22294 10.3301 9.19066 10.2007 9.3851C10.0711 9.57955 9.6988 10.0173 9.58539 10.1469C9.47199 10.2766 9.35877 10.2929 9.16442 10.1955C8.97007 10.0983 8.34402 9.89305 7.60179 9.23108C7.02421 8.71586 6.63427 8.07956 6.52086 7.88511C6.40764 7.69048 6.5199 7.59546 6.60611 7.48857C6.81645 7.22736 7.02708 6.95351 7.09183 6.82392C7.15668 6.69422 7.12421 6.58072 7.07555 6.4835C7.02708 6.38627 6.63848 5.42986 6.4766 5.04069C6.31875 4.66196 6.15869 4.71311 6.03935 4.70717C5.92613 4.70152 5.79653 4.70037 5.66694 4.70037C5.53743 4.70037 5.3269 4.74893 5.14874 4.94356C4.97068 5.1381 4.46876 5.60812 4.46876 6.56453C4.46876 7.52094 5.16502 8.44488 5.26215 8.57457C5.35927 8.70427 6.63235 10.6669 8.58148 11.5085C9.04507 11.7088 9.40695 11.8283 9.68923 11.9178C10.1547 12.0657 10.5782 12.0449 10.9131 11.9949C11.2864 11.939 12.0626 11.5247 12.2246 11.0709C12.3865 10.617 12.3865 10.228 12.3379 10.1469C12.2894 10.0658 12.1598 10.0173 11.9656 9.91997Z" fill="#092892"/>
</g>
<defs>
<clipPath id="clip0_18_17339">
<rect width="16.7396" height="16.7396" fill="white"/>
</clipPath>
</defs>
</svg>
