<svg width="1506" height="996" viewBox="0 0 1506 996" fill="none" xmlns="http://www.w3.org/2000/svg">
<g opacity="0.5">
<path d="M752.986 397.42L666.023 422.988V503.718C666.023 534.462 681.459 563.159 707.128 580.139L752.986 610.474L798.845 580.139C824.514 563.159 839.949 534.462 839.949 503.718V422.988L752.986 397.42ZM723.566 524.205L737.701 502.403C731.344 497.718 727.219 490.187 727.219 481.693C727.219 467.484 738.756 455.965 752.987 455.965C767.219 455.965 778.756 467.484 778.756 481.693C778.756 490.188 774.63 497.718 768.273 502.403L782.408 524.205H723.566Z" fill="url(#paint0_linear_18_10882)"/>
<path opacity="0.24" d="M752.987 410.729L676.888 433.103V503.747C676.888 530.65 690.395 555.762 712.857 570.62L752.987 597.165L793.116 570.62C815.578 555.761 829.086 530.65 829.086 503.747V433.103L752.987 410.729ZM723.567 524.205L737.702 502.403C731.345 497.718 727.219 490.187 727.219 481.693C727.219 467.484 738.756 455.965 752.988 455.965C767.219 455.965 778.756 467.484 778.756 481.693C778.756 490.188 774.63 497.718 768.273 502.403L782.409 524.205H723.567Z" fill="url(#paint1_linear_18_10882)"/>
</g>
<path d="M752.986 638.889C830.643 638.889 893.597 576.034 893.597 498.497C893.597 420.961 830.643 358.105 752.986 358.105C675.328 358.105 612.374 420.961 612.374 498.497C612.374 576.034 675.328 638.889 752.986 638.889Z" stroke="url(#paint2_linear_18_10882)" stroke-width="5" stroke-miterlimit="10" stroke-linecap="round" stroke-linejoin="round"/>
<path d="M856.456 630.371C827.95 652.698 792.025 666.011 752.986 666.011C732.171 666.011 712.242 662.226 693.85 655.309C654.175 640.386 621.657 610.883 602.848 573.342" stroke="url(#paint3_linear_18_10882)" stroke-width="5" stroke-miterlimit="10" stroke-linecap="round" stroke-linejoin="round"/>
<path d="M860.64 370.012C870.352 378.132 879.129 387.33 886.788 397.42C908.11 425.514 920.762 460.531 920.762 498.498" stroke="url(#paint4_linear_18_10882)" stroke-width="5" stroke-miterlimit="10" stroke-linecap="round" stroke-linejoin="round"/>
<path d="M585.212 498.498C585.212 447.491 608.045 401.809 644.062 371.085C657.449 359.665 672.658 350.312 689.193 343.52C708.86 335.441 730.402 330.986 752.986 330.986" stroke="url(#paint5_linear_18_10882)" stroke-width="5" stroke-miterlimit="10" stroke-linecap="round" stroke-linejoin="round"/>
<path d="M662.123 622.096C635.49 602.546 615.408 574.62 605.769 542.209" stroke="url(#paint6_linear_18_10882)" stroke-width="5" stroke-miterlimit="10" stroke-linecap="round" stroke-linejoin="round"/>
<path d="M899.63 544.088C880.19 606.495 821.888 651.807 752.986 651.807" stroke="url(#paint7_linear_18_10882)" stroke-width="5" stroke-miterlimit="10" stroke-linecap="round" stroke-linejoin="round"/>
<path d="M752.986 345.189C820.268 345.189 877.444 388.396 898.196 448.536" stroke="url(#paint8_linear_18_10882)" stroke-width="5" stroke-miterlimit="10" stroke-linecap="round" stroke-linejoin="round"/>
<path d="M633.748 401.898C652.215 379.202 677.053 361.88 705.541 352.648" stroke="url(#paint9_linear_18_10882)" stroke-width="5" stroke-miterlimit="10" stroke-linecap="round" stroke-linejoin="round"/>
<g opacity="0.3">
<path d="M752.986 800.617C920.106 800.617 1055.58 665.351 1055.58 498.493C1055.58 331.635 920.106 196.369 752.986 196.369C585.867 196.369 450.39 331.635 450.39 498.493C450.39 665.351 585.867 800.617 752.986 800.617Z" stroke="url(#paint10_linear_18_10882)" stroke-width="5" stroke-miterlimit="10" stroke-linecap="round" stroke-linejoin="round"/>
<path d="M975.654 782.283C914.31 830.331 836.999 858.98 752.987 858.98C708.192 858.98 665.305 850.835 625.726 835.95C540.345 803.835 470.367 740.345 429.889 659.557" stroke="url(#paint11_linear_18_10882)" stroke-width="5" stroke-miterlimit="10" stroke-linecap="round" stroke-linejoin="round"/>
<path d="M984.656 221.992C1005.56 239.466 1024.44 259.261 1040.93 280.974C1086.81 341.433 1114.04 416.789 1114.04 498.494" stroke="url(#paint12_linear_18_10882)" stroke-width="5" stroke-miterlimit="10" stroke-linecap="round" stroke-linejoin="round"/>
<path d="M391.936 498.494C391.936 388.727 441.072 290.419 518.581 224.301C547.389 199.725 580.119 179.597 615.704 164.981C658.027 147.595 704.384 138.008 752.986 138.008" stroke="url(#paint13_linear_18_10882)" stroke-width="5" stroke-miterlimit="10" stroke-linecap="round" stroke-linejoin="round"/>
<path d="M557.449 764.474C500.135 722.402 456.918 662.305 436.175 592.557" stroke="url(#paint14_linear_18_10882)" stroke-width="5" stroke-miterlimit="10" stroke-linecap="round" stroke-linejoin="round"/>
<path d="M1068.56 596.605C1026.73 730.905 901.261 828.417 752.984 828.417" stroke="url(#paint15_linear_18_10882)" stroke-width="5" stroke-miterlimit="10" stroke-linecap="round" stroke-linejoin="round"/>
<path d="M752.984 168.578C897.776 168.578 1020.82 261.56 1065.48 390.981" stroke="url(#paint16_linear_18_10882)" stroke-width="5" stroke-miterlimit="10" stroke-linecap="round" stroke-linejoin="round"/>
<path d="M496.385 290.615C536.125 241.773 589.576 204.496 650.884 184.629" stroke="url(#paint17_linear_18_10882)" stroke-width="5" stroke-miterlimit="10" stroke-linecap="round" stroke-linejoin="round"/>
</g>
<g opacity="0.3">
<path d="M752.982 37.963C1007.73 37.963 1214.24 244.15 1214.24 498.495C1214.24 752.84 1007.73 959.027 752.982 959.027C498.239 959.027 291.729 752.84 291.729 498.495C291.729 244.15 498.239 37.963 752.982 37.963Z" stroke="url(#paint18_linear_18_10882)" stroke-width="5" stroke-miterlimit="10" stroke-linecap="round" stroke-linejoin="round"/>
<path d="M1092.4 65.9104C998.892 -7.32956 881.045 -51.0005 752.985 -51.0005C684.703 -51.0005 619.329 -38.5845 558.998 -15.8945C428.851 33.0579 322.181 129.838 260.48 252.984" stroke="url(#paint19_linear_18_10882)" stroke-width="5" stroke-miterlimit="10" stroke-linecap="round" stroke-linejoin="round"/>
<path d="M1106.12 919.963C1137.98 893.327 1166.77 863.154 1191.89 830.056C1261.84 737.898 1303.34 623.031 1303.34 498.486" stroke="url(#paint20_linear_18_10882)" stroke-width="5" stroke-miterlimit="10" stroke-linecap="round" stroke-linejoin="round"/>
<path d="M202.628 498.49C202.628 665.81 277.527 815.662 395.675 916.446C439.589 953.908 489.478 984.589 543.721 1006.87C608.235 1033.37 678.899 1047.98 752.982 1047.98" stroke="url(#paint21_linear_18_10882)" stroke-width="5" stroke-miterlimit="10" stroke-linecap="round" stroke-linejoin="round"/>
<path d="M454.922 93.0536C367.559 157.184 301.682 248.791 270.062 355.109" stroke="url(#paint22_linear_18_10882)" stroke-width="5" stroke-miterlimit="10" stroke-linecap="round" stroke-linejoin="round"/>
<path d="M1234.02 348.941C1170.25 144.226 979.001 -4.41259 752.98 -4.41259" stroke="url(#paint23_linear_18_10882)" stroke-width="5" stroke-miterlimit="10" stroke-linecap="round" stroke-linejoin="round"/>
<path d="M752.98 1001.38C973.688 1001.38 1161.24 859.652 1229.32 662.372" stroke="url(#paint24_linear_18_10882)" stroke-width="5" stroke-miterlimit="10" stroke-linecap="round" stroke-linejoin="round"/>
<path d="M361.841 815.362C422.418 889.812 503.894 946.634 597.346 976.918" stroke="url(#paint25_linear_18_10882)" stroke-width="5" stroke-miterlimit="10" stroke-linecap="round" stroke-linejoin="round"/>
</g>
<g opacity="0.3">
<path d="M124.705 498.494C124.705 152.041 406 -128.814 752.994 -128.814C1099.99 -128.814 1381.28 152.041 1381.28 498.494C1381.28 844.946 1099.99 1125.8 752.994 1125.8C406 1125.8 124.705 844.946 124.705 498.494Z" stroke="url(#paint26_linear_18_10882)" stroke-width="5" stroke-miterlimit="10" stroke-linecap="round" stroke-linejoin="round"/>
<path d="M162.828 36.8851C62.9091 164.056 3.33024 324.328 3.33024 498.492C3.33024 591.355 20.269 680.265 51.2243 762.315C118.008 939.316 250.042 1084.39 418.047 1168.3" stroke="url(#paint27_linear_18_10882)" stroke-width="5" stroke-miterlimit="10" stroke-linecap="round" stroke-linejoin="round"/>
<path d="M1327.99 18.2227C1291.65 -25.106 1250.49 -64.2614 1205.33 -98.4302C1079.61 -193.555 922.896 -249.998 752.985 -249.998" stroke="url(#paint28_linear_18_10882)" stroke-width="5" stroke-miterlimit="10" stroke-linecap="round" stroke-linejoin="round"/>
<path d="M752.981 1246.98C981.25 1246.98 1185.69 1145.12 1323.19 984.433C1374.29 924.71 1416.15 856.86 1446.55 783.089C1482.7 695.35 1502.64 599.247 1502.64 498.492" stroke="url(#paint29_linear_18_10882)" stroke-width="5" stroke-miterlimit="10" stroke-linecap="round" stroke-linejoin="round"/>
<path d="M199.858 903.857C287.349 1022.67 412.325 1112.27 557.372 1155.27" stroke="url(#paint30_linear_18_10882)" stroke-width="5" stroke-miterlimit="10" stroke-linecap="round" stroke-linejoin="round"/>
<path d="M548.963 -155.723C269.676 -68.9946 66.8936 191.107 66.8936 498.496" stroke="url(#paint31_linear_18_10882)" stroke-width="5" stroke-miterlimit="10" stroke-linecap="round" stroke-linejoin="round"/>
<path d="M1439.06 498.496C1439.06 198.332 1245.7 -56.7426 976.558 -149.325" stroke="url(#paint32_linear_18_10882)" stroke-width="5" stroke-miterlimit="10" stroke-linecap="round" stroke-linejoin="round"/>
<path d="M1185.28 1030.45C1286.85 948.062 1364.37 837.253 1405.69 710.158" stroke="url(#paint33_linear_18_10882)" stroke-width="5" stroke-miterlimit="10" stroke-linecap="round" stroke-linejoin="round"/>
</g>
<defs>
<linearGradient id="paint0_linear_18_10882" x1="722.18" y1="592.878" x2="764.259" y2="423.084" gradientUnits="userSpaceOnUse">
<stop stop-color="#5A72C0"/>
<stop offset="1" stop-color="#2F4BA3"/>
</linearGradient>
<linearGradient id="paint1_linear_18_10882" x1="768.747" y1="452.462" x2="703.838" y2="563.388" gradientUnits="userSpaceOnUse">
<stop stop-color="white" stop-opacity="0"/>
<stop offset="1" stop-color="white"/>
</linearGradient>
<linearGradient id="paint2_linear_18_10882" x1="718.501" y1="637.213" x2="787.267" y2="359.731" gradientUnits="userSpaceOnUse">
<stop stop-color="#5A72C0"/>
<stop offset="1" stop-color="#2F4BA3"/>
</linearGradient>
<linearGradient id="paint3_linear_18_10882" x1="714.18" y1="664.093" x2="730.887" y2="596.676" gradientUnits="userSpaceOnUse">
<stop stop-color="#5A72C0"/>
<stop offset="1" stop-color="#2F4BA3"/>
</linearGradient>
<linearGradient id="paint4_linear_18_10882" x1="876.798" y1="490.179" x2="904.521" y2="378.311" gradientUnits="userSpaceOnUse">
<stop stop-color="#5A72C0"/>
<stop offset="1" stop-color="#2F4BA3"/>
</linearGradient>
<linearGradient id="paint5_linear_18_10882" x1="641.597" y1="515.048" x2="691.619" y2="313.202" gradientUnits="userSpaceOnUse">
<stop stop-color="#5A72C0"/>
<stop offset="1" stop-color="#2F4BA3"/>
</linearGradient>
<linearGradient id="paint6_linear_18_10882" x1="625.624" y1="615.627" x2="642.219" y2="548.666" gradientUnits="userSpaceOnUse">
<stop stop-color="#5A72C0"/>
<stop offset="1" stop-color="#2F4BA3"/>
</linearGradient>
<linearGradient id="paint7_linear_18_10882" x1="808.838" y1="668.224" x2="843.677" y2="527.645" gradientUnits="userSpaceOnUse">
<stop stop-color="#5A72C0"/>
<stop offset="1" stop-color="#2F4BA3"/>
</linearGradient>
<linearGradient id="paint8_linear_18_10882" x1="817.101" y1="431.015" x2="835.126" y2="358.281" gradientUnits="userSpaceOnUse">
<stop stop-color="#5A72C0"/>
<stop offset="1" stop-color="#2F4BA3"/>
</linearGradient>
<linearGradient id="paint9_linear_18_10882" x1="661.192" y1="411.275" x2="678.048" y2="343.259" gradientUnits="userSpaceOnUse">
<stop stop-color="#5A72C0"/>
<stop offset="1" stop-color="#2F4BA3"/>
</linearGradient>
<linearGradient id="paint10_linear_18_10882" x1="678.775" y1="797.009" x2="826.761" y2="199.868" gradientUnits="userSpaceOnUse">
<stop stop-color="#5A72C0"/>
<stop offset="1" stop-color="#2F4BA3"/>
</linearGradient>
<linearGradient id="paint11_linear_18_10882" x1="669.475" y1="854.854" x2="705.43" y2="709.772" gradientUnits="userSpaceOnUse">
<stop stop-color="#5A72C0"/>
<stop offset="1" stop-color="#2F4BA3"/>
</linearGradient>
<linearGradient id="paint12_linear_18_10882" x1="1019.43" y1="480.591" x2="1079.09" y2="239.851" gradientUnits="userSpaceOnUse">
<stop stop-color="#5A72C0"/>
<stop offset="1" stop-color="#2F4BA3"/>
</linearGradient>
<linearGradient id="paint13_linear_18_10882" x1="513.277" y1="534.108" x2="620.924" y2="99.736" gradientUnits="userSpaceOnUse">
<stop stop-color="#5A72C0"/>
<stop offset="1" stop-color="#2F4BA3"/>
</linearGradient>
<linearGradient id="paint14_linear_18_10882" x1="478.905" y1="750.552" x2="514.616" y2="606.453" gradientUnits="userSpaceOnUse">
<stop stop-color="#5A72C0"/>
<stop offset="1" stop-color="#2F4BA3"/>
</linearGradient>
<linearGradient id="paint15_linear_18_10882" x1="873.177" y1="863.746" x2="948.15" y2="561.221" gradientUnits="userSpaceOnUse">
<stop stop-color="#5A72C0"/>
<stop offset="1" stop-color="#2F4BA3"/>
</linearGradient>
<linearGradient id="paint16_linear_18_10882" x1="890.959" y1="353.275" x2="929.75" y2="196.751" gradientUnits="userSpaceOnUse">
<stop stop-color="#5A72C0"/>
<stop offset="1" stop-color="#2F4BA3"/>
</linearGradient>
<linearGradient id="paint17_linear_18_10882" x1="555.443" y1="310.794" x2="591.717" y2="164.423" gradientUnits="userSpaceOnUse">
<stop stop-color="#5A72C0"/>
<stop offset="1" stop-color="#2F4BA3"/>
</linearGradient>
<linearGradient id="paint18_linear_18_10882" x1="639.862" y1="43.4619" x2="865.438" y2="953.693" gradientUnits="userSpaceOnUse">
<stop stop-color="#5A72C0"/>
<stop offset="1" stop-color="#2F4BA3"/>
</linearGradient>
<linearGradient id="paint19_linear_18_10882" x1="625.686" y1="-44.7108" x2="680.493" y2="176.44" gradientUnits="userSpaceOnUse">
<stop stop-color="#5A72C0"/>
<stop offset="1" stop-color="#2F4BA3"/>
</linearGradient>
<linearGradient id="paint20_linear_18_10882" x1="1159.12" y1="525.776" x2="1250.07" y2="892.74" gradientUnits="userSpaceOnUse">
<stop stop-color="#5A72C0"/>
<stop offset="1" stop-color="#2F4BA3"/>
</linearGradient>
<linearGradient id="paint21_linear_18_10882" x1="387.59" y1="444.202" x2="551.679" y2="1106.32" gradientUnits="userSpaceOnUse">
<stop stop-color="#5A72C0"/>
<stop offset="1" stop-color="#2F4BA3"/>
</linearGradient>
<linearGradient id="paint22_linear_18_10882" x1="335.197" y1="114.275" x2="389.631" y2="333.927" gradientUnits="userSpaceOnUse">
<stop stop-color="#5A72C0"/>
<stop offset="1" stop-color="#2F4BA3"/>
</linearGradient>
<linearGradient id="paint23_linear_18_10882" x1="936.192" y1="-58.2655" x2="1050.47" y2="402.879" gradientUnits="userSpaceOnUse">
<stop stop-color="#5A72C0"/>
<stop offset="1" stop-color="#2F4BA3"/>
</linearGradient>
<linearGradient id="paint24_linear_18_10882" x1="963.298" y1="719.848" x2="1022.43" y2="958.441" gradientUnits="userSpaceOnUse">
<stop stop-color="#5A72C0"/>
<stop offset="1" stop-color="#2F4BA3"/>
</linearGradient>
<linearGradient id="paint25_linear_18_10882" x1="451.865" y1="784.602" x2="507.158" y2="1007.72" gradientUnits="userSpaceOnUse">
<stop stop-color="#5A72C0"/>
<stop offset="1" stop-color="#2F4BA3"/>
</linearGradient>
<linearGradient id="paint26_linear_18_10882" x1="132.207" y1="652.339" x2="1373.56" y2="343.741" gradientUnits="userSpaceOnUse">
<stop stop-color="#5A72C0"/>
<stop offset="1" stop-color="#2F4BA3"/>
</linearGradient>
<linearGradient id="paint27_linear_18_10882" x1="11.9111" y1="671.618" x2="313.51" y2="596.641" gradientUnits="userSpaceOnUse">
<stop stop-color="#5A72C0"/>
<stop offset="1" stop-color="#2F4BA3"/>
</linearGradient>
<linearGradient id="paint28_linear_18_10882" x1="790.215" y1="-53.8628" x2="1290.67" y2="-178.276" gradientUnits="userSpaceOnUse">
<stop stop-color="#5A72C0"/>
<stop offset="1" stop-color="#2F4BA3"/>
</linearGradient>
<linearGradient id="paint29_linear_18_10882" x1="678.918" y1="995.428" x2="1581.9" y2="770.948" gradientUnits="userSpaceOnUse">
<stop stop-color="#5A72C0"/>
<stop offset="1" stop-color="#2F4BA3"/>
</linearGradient>
<linearGradient id="paint30_linear_18_10882" x1="228.81" y1="1066.68" x2="528.365" y2="992.216" gradientUnits="userSpaceOnUse">
<stop stop-color="#5A72C0"/>
<stop offset="1" stop-color="#2F4BA3"/>
</linearGradient>
<linearGradient id="paint31_linear_18_10882" x1="-6.57607" y1="249.327" x2="622.32" y2="92.984" gradientUnits="userSpaceOnUse">
<stop stop-color="#5A72C0"/>
<stop offset="1" stop-color="#2F4BA3"/>
</linearGradient>
<linearGradient id="paint32_linear_18_10882" x1="1054.97" y1="212.463" x2="1380.36" y2="131.572" gradientUnits="userSpaceOnUse">
<stop stop-color="#5A72C0"/>
<stop offset="1" stop-color="#2F4BA3"/>
</linearGradient>
<linearGradient id="paint33_linear_18_10882" x1="1143.32" y1="908.014" x2="1447.6" y2="832.371" gradientUnits="userSpaceOnUse">
<stop stop-color="#5A72C0"/>
<stop offset="1" stop-color="#2F4BA3"/>
</linearGradient>
</defs>
</svg>
