<svg width="24" height="24" viewBox="0 0 24 24" fill="none" xmlns="http://www.w3.org/2000/svg">
<path d="M21.252 19.8365L14.94 8.0135V2.0105H15.5645C15.841 2.0105 16.0645 1.787 16.0645 1.5105V0.5C16.0645 0.224 15.841 0 15.5645 0H14.94H8.52101H7.94901C7.67251 0 7.44901 0.224 7.44901 0.5V1.5105C7.44901 1.787 7.67251 2.0105 7.94901 2.0105H8.52101V8.014L2.71051 19.785C1.22551 22.113 2.25951 24 5.02101 24H19.0205C21.7815 24 22.7805 22.1355 21.252 19.8365ZM10.314 8.899L10.5205 8.4805V8.014V2.0105H12.94V8.014V8.5145L13.1755 8.956L15.8805 14.022H7.78551L10.314 8.899Z" fill="white"/>
</svg>
