<svg width="24" height="24" viewBox="0 0 24 24" fill="none" xmlns="http://www.w3.org/2000/svg">
<path fill-rule="evenodd" clip-rule="evenodd" d="M5.75264 2.77148C5.75067 2.77321 5.7487 2.77509 5.74661 2.77671C5.67552 2.83239 5.60896 2.89315 5.54016 2.95143C5.5395 2.95197 5.53542 2.95563 5.53494 2.95585C5.52525 2.96026 5.51066 2.96212 5.5004 2.96468C5.47631 2.97069 5.45212 2.97689 5.4281 2.98316C5.3472 3.00429 5.26593 3.02484 5.1851 3.04622C5.13293 3.06001 5.08181 3.07418 5.02966 3.08799C4.93173 3.11392 4.83374 3.13959 4.73605 3.16631C4.67284 3.1836 4.60959 3.20095 4.54647 3.21853C4.5353 3.22164 4.52429 3.22543 4.51313 3.22857C4.46159 3.24304 4.40966 3.25675 4.35809 3.27115C4.31081 3.28434 4.26393 3.29835 4.21671 3.31171C4.18964 3.31937 4.16222 3.32649 4.13517 3.33421L3.99058 3.37517C3.96649 3.38201 3.94278 3.38972 3.91868 3.39646C3.89298 3.40365 3.86691 3.4103 3.84116 3.41735C3.69902 3.45624 3.55711 3.49592 3.41541 3.53624C3.47205 3.59823 3.52933 3.65953 3.58611 3.7214C3.60777 3.745 3.62942 3.76857 3.65118 3.79209C3.66071 3.80239 3.67015 3.81312 3.6801 3.82302C3.68202 3.82491 3.68413 3.82682 3.68612 3.82864C3.69048 3.83264 3.69422 3.83752 3.69817 3.8419C3.70532 3.84984 3.71265 3.85771 3.71986 3.86559L3.72108 3.8668C3.74529 3.89247 3.7689 3.919 3.79257 3.94512C3.84163 3.99924 3.89077 4.05301 3.93998 4.10699C3.94565 4.11321 3.95184 4.11898 3.95765 4.12506C3.96065 4.1282 3.97412 4.14237 3.97774 4.14635C3.98455 4.15384 3.99135 4.1613 3.99862 4.16844C4.0043 4.17402 4.01014 4.17904 4.01549 4.18491C4.07744 4.25285 4.13938 4.32066 4.20186 4.38815C4.20782 4.39459 4.20962 4.40112 4.21431 4.40783C4.2204 4.41655 4.22712 4.42573 4.23399 4.43394C4.23978 4.44085 4.24655 4.44719 4.25247 4.45402C4.27132 4.47575 4.29035 4.49715 4.3099 4.51828C4.31412 4.52285 4.31787 4.52806 4.32195 4.53274C4.33998 4.5534 4.35862 4.57348 4.37658 4.5942C4.40829 4.63078 4.44085 4.66644 4.47257 4.70305L4.47417 4.70465C4.45801 4.71292 4.44225 4.72202 4.42637 4.73076C4.38137 4.75553 4.33618 4.78057 4.29101 4.80507C4.23385 4.83606 4.17772 4.86845 4.12151 4.90106C4.09249 4.96026 4.06628 5.02068 4.03998 5.081C4.02685 5.11111 4.01436 5.14136 4.00102 5.17138C3.98335 5.21112 3.96454 5.25067 3.94559 5.28986C3.94559 5.29019 3.94503 5.29077 3.94479 5.29107C3.91535 5.29797 3.77638 5.32344 3.73673 5.33083C3.67453 5.34244 3.61248 5.35448 3.55037 5.36658C3.41777 5.39242 3.28502 5.41831 3.15233 5.4437C3.14233 5.45954 3.13323 5.47555 3.12341 5.4915C3.11023 5.5129 3.09627 5.53386 3.08325 5.55536C3.0723 5.57343 3.06217 5.59198 3.05111 5.60998C3.02865 5.64653 3.00574 5.6831 2.98323 5.71964C2.96396 5.75091 2.89903 5.85302 2.88764 5.87427C2.88764 5.87469 2.64317 6.06763 2.61732 6.08835C2.55356 6.13948 2.48904 6.19044 2.42614 6.24259C2.39446 6.23825 2.36242 6.23406 2.33094 6.22853C2.30168 6.2234 2.27253 6.2174 2.24338 6.21166C2.21647 6.20637 2.18952 6.20145 2.16265 6.196C2.14752 6.19293 2.13249 6.18978 2.11726 6.18716C2.1085 6.18566 2.09955 6.18477 2.09075 6.18355C2.06308 6.1797 2.03514 6.1754 2.00761 6.17069C1.95067 6.16095 1.8943 6.14844 1.83731 6.13896C1.83234 6.13813 1.82701 6.13799 1.82205 6.13736C1.80585 6.13528 1.78957 6.13265 1.77345 6.13013C1.75531 6.12729 1.73732 6.12393 1.71922 6.12089C1.68317 6.11483 1.64717 6.10874 1.61118 6.10241C1.55162 6.09194 1.49195 6.08174 1.43244 6.07108C1.39418 6.06423 1.3559 6.05703 1.31757 6.0506C1.30802 6.049 1.29827 6.04815 1.28865 6.04698C1.28818 6.04694 1.28781 6.04701 1.28743 6.04698C1.2729 6.04578 1.25926 6.04263 1.24485 6.04096C1.24485 6.04101 1.24439 6.04091 1.24439 6.04096C1.24256 6.0422 1.24026 6.04312 1.23916 6.04538C1.23602 6.05176 1.22702 6.0766 1.22832 6.08233C1.22959 6.08787 1.24146 6.10015 1.23716 6.10804C1.23472 6.11246 1.22324 6.10516 1.21828 6.10762C1.21706 6.10822 1.21664 6.11358 1.21627 6.11485C1.21103 6.1321 1.20843 6.13167 1.2195 6.14859L1.2203 6.16023C1.21959 6.16167 1.21627 6.16264 1.21748 6.16505C1.21875 6.16758 1.22542 6.16491 1.22512 6.16867C1.2239 6.18363 1.18868 6.1739 1.19057 6.20522C1.19329 6.2075 1.19692 6.20109 1.1974 6.2048C1.19852 6.21357 1.18566 6.22098 1.18133 6.2297C1.17555 6.24136 1.18016 6.25462 1.17772 6.26625C1.17566 6.27604 1.16992 6.28031 1.16688 6.28834C1.16594 6.29079 1.16688 6.29443 1.16608 6.29718C1.16233 6.30956 1.16416 6.32351 1.16167 6.33533C1.16003 6.34322 1.15549 6.35277 1.15445 6.36024C1.15398 6.36339 1.15838 6.36611 1.15567 6.3751C1.15154 6.38867 1.13766 6.39113 1.13478 6.41325C1.13183 6.43608 1.14442 6.42596 1.14442 6.45663C1.14442 6.47417 1.13166 6.47765 1.12916 6.48957C1.12691 6.50031 1.1322 6.51369 1.12995 6.52451C1.12831 6.53246 1.1228 6.53512 1.11871 6.54018C1.11599 6.54353 1.11348 6.56713 1.10505 6.57874C1.10421 6.57988 1.1028 6.58245 1.10303 6.58396C1.1035 6.58682 1.10985 6.58552 1.11147 6.58597C1.11522 6.587 1.12508 6.59738 1.12472 6.60244C1.12472 6.60262 1.11556 6.61617 1.11468 6.62292C1.11421 6.62642 1.12159 6.6251 1.12031 6.62935C1.11684 6.64078 1.11061 6.64534 1.11388 6.65947C1.12755 6.6678 1.09861 6.6976 1.09861 6.70365C1.09861 6.71909 1.0943 6.71107 1.09299 6.72052C1.09234 6.72543 1.09412 6.73077 1.09252 6.73619C1.09093 6.74196 1.08619 6.74446 1.08369 6.74904C1.07887 6.75787 1.0705 6.79164 1.06923 6.80286C1.06867 6.80773 1.06834 6.81268 1.06642 6.81732C1.06468 6.82147 1.05945 6.82419 1.05798 6.82776C1.05601 6.83257 1.05437 6.84355 1.05517 6.84865C1.05564 6.85095 1.06589 6.85477 1.06722 6.8611C1.06834 6.86636 1.06525 6.87613 1.06675 6.87958C1.07294 6.89319 1.07587 6.89535 1.07478 6.91211C1.07422 6.92111 1.06968 6.92907 1.07075 6.93862C1.07122 6.94234 1.0715 6.94851 1.07277 6.95188C1.07766 6.9648 1.08825 6.99282 1.0824 7.0057C1.07738 7.01674 1.0739 7.03744 1.06794 7.04586C1.06142 7.05508 1.0478 7.05885 1.04505 7.07197C1.0443 7.07544 1.04585 7.08333 1.04552 7.08442C1.04458 7.087 1.04046 7.08783 1.03909 7.09085C1.03581 7.09803 1.03576 7.1107 1.03186 7.11856C1.02636 7.12966 1.01662 7.13779 1.01178 7.14949C1.00756 7.15976 1.00902 7.17492 1.00536 7.18604C1.0025 7.19471 0.995451 7.20035 0.992503 7.20813C0.990487 7.21342 0.992034 7.21655 0.990909 7.22139C0.988612 7.23059 0.981736 7.242 0.978459 7.25191C0.973336 7.26741 0.961519 7.29098 0.953156 7.30413C0.951703 7.30643 0.945895 7.30852 0.945525 7.31055C0.944447 7.31651 0.959578 7.30519 0.957975 7.31136C0.957506 7.3287 0.94319 7.31468 0.941906 7.31939C0.941297 7.32171 0.940312 7.33044 0.940312 7.33304C0.940312 7.33751 0.945815 7.33549 0.944719 7.33867C0.944156 7.3403 0.937851 7.34245 0.936689 7.3463C0.935564 7.34997 0.937486 7.35431 0.93622 7.35835C0.934298 7.36465 0.929517 7.36844 0.926981 7.37401C0.926512 7.37951 0.94214 7.37562 0.936619 7.38245C0.926873 7.39451 0.920072 7.38853 0.911315 7.40092C0.910331 7.40235 0.914644 7.41192 0.915347 7.41217C0.916237 7.4125 0.917175 7.40909 0.917362 7.40896C0.920597 7.40648 0.92264 7.4103 0.922987 7.41298C0.924347 7.42352 0.90989 7.41456 0.91455 7.42262C0.916565 7.42607 0.92069 7.42141 0.924192 7.42304C0.926254 7.42399 0.928645 7.43347 0.927004 7.43509C0.925364 7.43667 0.913026 7.43896 0.911339 7.43709C0.910261 7.43592 0.91223 7.4324 0.908948 7.42986C0.906886 7.42829 0.905198 7.42817 0.902925 7.42745C0.904612 7.42474 0.905034 7.42289 0.902925 7.42223C0.884062 7.42176 0.890095 7.44305 0.888061 7.44593C0.885951 7.4489 0.882609 7.44704 0.880026 7.44874C0.876604 7.45099 0.878948 7.45756 0.875995 7.46039C0.875526 7.46086 0.871964 7.46034 0.871589 7.46081C0.869948 7.4629 0.875433 7.46667 0.873183 7.46764C0.869761 7.46915 0.866569 7.46509 0.863142 7.46603C0.854836 7.46832 0.847669 7.48956 0.837436 7.49857C0.834811 7.50253 0.837436 7.50356 0.838654 7.50499L0.838186 7.50781C0.832654 7.51336 0.833325 7.50991 0.834576 7.51745C0.837389 7.5343 0.836451 7.52236 0.847833 7.52307C0.851208 7.5233 0.850598 7.5019 0.865908 7.51263C0.866798 7.51324 0.870454 7.51535 0.870726 7.51624C0.871898 7.51977 0.867117 7.51883 0.86632 7.52026C0.865289 7.52209 0.870351 7.52298 0.870726 7.52347C0.872648 7.52586 0.869508 7.527 0.869508 7.52909C0.869508 7.53183 0.873961 7.53334 0.874331 7.53512L0.868706 7.54917C0.866972 7.55489 0.872503 7.55899 0.873928 7.56404C0.874725 7.56693 0.873928 7.57455 0.875147 7.57649C0.877022 7.57517 0.878662 7.57156 0.879178 7.57127C0.881194 7.57007 0.88349 7.5715 0.8844 7.57327C0.885712 7.57592 0.885384 7.58286 0.881165 7.58251C0.879244 7.58154 0.881822 7.58625 0.881165 7.58773C0.88065 7.58882 0.87765 7.58887 0.877134 7.58974C0.875306 7.59296 0.883617 7.59876 0.886373 7.59898C0.890639 7.5993 0.886373 7.59549 0.89078 7.59657C0.892889 7.59711 0.895753 7.60151 0.898008 7.59857C0.898008 7.59708 0.896508 7.59517 0.897539 7.59415C0.898008 7.59378 0.900867 7.59429 0.90157 7.59295C0.902039 7.59203 0.899648 7.58699 0.902367 7.58491C0.904851 7.58301 0.908287 7.58685 0.909998 7.58371C0.911592 7.58078 0.903647 7.54462 0.923653 7.54756C0.926419 7.5491 0.927731 7.55154 0.931284 7.55037C0.939033 7.54144 0.914419 7.52477 0.914419 7.51985C0.914419 7.51032 0.933548 7.50215 0.938114 7.49776C0.94537 7.49077 0.942426 7.47692 0.948961 7.47366C0.957961 7.46915 0.957473 7.48121 0.964622 7.48008C0.974344 7.47856 0.967153 7.46032 0.977878 7.46522C0.983625 7.47084 0.981253 7.47612 0.982697 7.48049C0.98429 7.48532 0.990272 7.48689 0.992339 7.49053C0.989761 7.49107 0.985326 7.4916 0.9831 7.49254C0.981365 7.49461 0.984084 7.50111 0.991134 7.49334C0.996211 7.4942 1.00233 7.5024 1.0076 7.50499C1.01116 7.5025 1.01276 7.4995 1.01764 7.50017L1.03491 7.51543L1.03735 7.51623L1.03857 7.51222C1.03936 7.51164 1.0404 7.5112 1.04138 7.51141C1.04396 7.51805 1.04372 7.52238 1.05062 7.51704C1.05254 7.5177 1.05905 7.52179 1.05905 7.51704C1.05905 7.51511 1.05596 7.51296 1.05783 7.51061C1.05961 7.50841 1.06537 7.51209 1.06627 7.50941C1.06383 7.50145 1.07077 7.5019 1.07551 7.49936C1.08225 7.50029 1.08337 7.49429 1.09439 7.49856C1.09923 7.49993 1.08876 7.50635 1.08876 7.50981C1.08876 7.51637 1.09964 7.51238 1.08923 7.52226C1.08496 7.52627 1.07376 7.51869 1.07557 7.52668C1.06649 7.52951 1.07778 7.53424 1.06955 7.53873L1.06716 7.53792C1.06786 7.54042 1.08043 7.54511 1.08121 7.54475C1.08548 7.5428 1.08407 7.53614 1.08804 7.53431C1.08912 7.52826 1.09511 7.52309 1.09849 7.51784C1.10496 7.5151 1.10536 7.51704 1.10532 7.51704C1.10532 7.51705 1.10485 7.51575 1.10771 7.51061C1.10677 7.50556 1.09345 7.5088 1.10288 7.50258L1.10612 7.50138C1.11453 7.50493 1.11763 7.49541 1.12259 7.49415C1.1305 7.49214 1.13401 7.49875 1.14146 7.49575C1.14798 7.5024 1.12597 7.50913 1.12218 7.50981C1.10695 7.52156 1.12312 7.52247 1.12218 7.52869C1.12218 7.53 1.11483 7.53331 1.11415 7.53753C1.11542 7.53981 1.11939 7.53619 1.12018 7.53672C1.12154 7.53765 1.11872 7.54111 1.12379 7.54395H1.1266C1.12843 7.54125 1.13383 7.54292 1.13463 7.53833L1.13384 7.53552C1.13749 7.52674 1.13951 7.53257 1.14427 7.53431L1.14709 7.53351C1.14976 7.53014 1.15463 7.52857 1.15874 7.5303C1.1659 7.52605 1.16516 7.52833 1.16516 7.53512C1.17076 7.53512 1.18341 7.53835 1.18605 7.53793C1.19229 7.53695 1.19747 7.53472 1.20412 7.53472C1.20525 7.53786 1.21012 7.53736 1.21256 7.53633C1.21303 7.53282 1.24835 7.51152 1.23224 7.51785C1.22966 7.51886 1.22779 7.52108 1.22501 7.52146L1.22379 7.51905C1.22557 7.51136 1.24243 7.51105 1.2499 7.50982C1.25459 7.51359 1.28614 7.499 1.29207 7.49576C1.29273 7.49696 1.30086 7.50276 1.30252 7.5054C1.30505 7.5094 1.30458 7.5146 1.30894 7.51745C1.31976 7.51893 1.31775 7.51826 1.31497 7.51383C1.31811 7.50701 1.31347 7.50098 1.30653 7.50098L1.30733 7.49817C1.30583 7.49201 1.30372 7.49914 1.3001 7.50017C1.28647 7.49255 1.3009 7.48089 1.31135 7.49375C1.31603 7.49417 1.32743 7.50156 1.33223 7.50058C1.34511 7.48513 1.36122 7.50883 1.36115 7.50941C1.37445 7.51226 1.38824 7.52363 1.3977 7.53231C1.39995 7.53435 1.40047 7.54055 1.40293 7.54155C1.40724 7.54327 1.44071 7.53923 1.44349 7.54197C1.44833 7.54984 1.44541 7.55628 1.45916 7.55683C1.45916 7.56395 1.46192 7.56171 1.46639 7.55844L1.46718 7.55562C1.46803 7.55475 1.46929 7.55439 1.47037 7.55402C1.47206 7.5545 1.48285 7.5631 1.48403 7.56486C1.49106 7.56486 1.50421 7.56431 1.51094 7.56325C1.52021 7.57141 1.52942 7.57538 1.52942 7.58936C1.52377 7.59792 1.51469 7.58651 1.51616 7.59619C1.50907 7.59919 1.50554 7.59314 1.5005 7.59418C1.48567 7.59723 1.48095 7.61025 1.46153 7.61025C1.4606 7.6113 1.45957 7.61253 1.45914 7.61386C1.46041 7.6187 1.46064 7.62221 1.46153 7.62631C1.47104 7.63042 1.47543 7.63249 1.48564 7.63033L1.48803 7.63113C1.49136 7.63923 1.51147 7.64354 1.51253 7.6472C1.51192 7.65199 1.52984 7.66389 1.53221 7.66326C1.5368 7.67711 1.55142 7.66943 1.56113 7.67893C1.57153 7.68909 1.56665 7.70609 1.57278 7.71508C1.58215 7.72883 1.60918 7.75102 1.62178 7.76328C1.66 7.80047 1.64135 7.83069 1.65913 7.86329C1.66809 7.87971 1.69123 7.87281 1.70332 7.88458C1.72172 7.90249 1.7264 7.92663 1.73826 7.94723C1.7421 7.95388 1.74978 7.95823 1.75272 7.96491C1.75623 7.97286 1.75614 7.98242 1.75914 7.99061C1.77203 8.02604 1.78337 8.03734 1.81537 8.05608C1.81941 8.06502 1.82562 8.08223 1.82782 8.09143C1.8312 8.10555 1.82038 8.12656 1.82782 8.13802C1.82914 8.14646 1.82717 8.15474 1.82862 8.16132C1.83172 8.17524 1.8642 8.23328 1.87481 8.24406C1.8788 8.24811 1.88431 8.24991 1.88686 8.25571C1.8894 8.26149 1.89057 8.27201 1.8901 8.2782C1.89814 8.28646 1.9072 8.29051 1.9154 8.30069C1.92962 8.31837 1.95259 8.36966 1.97123 8.38223C1.99849 8.4006 2.06456 8.40835 2.06281 8.45292C2.06178 8.47856 2.10878 8.50668 2.12426 8.55253C2.13802 8.59329 2.11594 8.59288 2.1102 8.62443C2.10795 8.6367 2.12064 8.66141 2.12306 8.67584C2.13741 8.68121 2.18117 8.75805 2.19495 8.77384C2.20375 8.78393 2.21287 8.7874 2.22347 8.79433C2.23527 8.80203 2.24241 8.81926 2.25399 8.82927C2.26333 8.83733 2.27665 8.83792 2.28613 8.84574C2.30107 8.85807 2.30097 8.87374 2.31826 8.88751C2.33246 8.89883 2.35486 8.89982 2.36686 8.91201C2.36869 8.91384 2.37634 8.92395 2.3773 8.92607C2.38514 8.94331 2.37383 8.95742 2.37651 8.97427C2.3773 8.9792 2.37904 8.98137 2.38132 8.98552C2.39367 9.00815 2.39982 9.03135 2.40743 9.0558C2.41109 9.06751 2.43483 9.10841 2.44439 9.11565C2.45472 9.1235 2.46413 9.12524 2.4729 9.13613C2.48189 9.1473 2.48535 9.16762 2.4954 9.17911C2.51632 9.20302 2.54408 9.22083 2.56729 9.24257C2.57561 9.25037 2.57411 9.26731 2.57894 9.27149C2.58264 9.27346 2.58687 9.27472 2.59099 9.27552C2.60014 9.28956 2.59983 9.31487 2.60786 9.32332C2.64361 9.33818 2.62941 9.35353 2.63999 9.37915C2.64262 9.38555 2.64911 9.39311 2.65245 9.39963C2.66386 9.42196 2.65245 9.42834 2.67775 9.44743C2.6828 9.45778 2.6808 9.46875 2.68498 9.47916C2.69376 9.50105 2.70982 9.51996 2.72072 9.54061C2.73014 9.55846 2.7334 9.58104 2.74362 9.59845C2.74784 9.60562 2.7592 9.6094 2.76531 9.61612C2.76873 9.61987 2.81291 9.69348 2.81391 9.69726C2.8057 9.72478 2.82706 9.73484 2.82555 9.76273L2.82237 9.76755L2.82359 9.77158C2.82682 9.77285 2.82995 9.77599 2.83122 9.77921C2.82958 9.78315 2.82892 9.78823 2.8292 9.79247C2.84398 9.8059 2.8381 9.80057 2.85611 9.80653C2.85827 9.81436 2.85944 9.82155 2.86455 9.82822C2.87778 9.8307 2.89335 9.8527 2.90632 9.85874L2.91355 9.85827C2.91669 9.86244 2.91992 9.86925 2.9248 9.87153C2.945 9.88095 3.03371 9.86423 3.04569 9.89322C3.04804 9.89892 3.04757 9.90787 3.04851 9.9141C3.07378 9.93872 3.05104 9.96404 3.04649 9.98721C3.0405 10.0177 3.04237 10.0419 3.02601 10.0703C3.0182 10.0839 3.00396 10.0918 2.99388 10.1033C2.99449 10.1116 3.00921 10.1173 3.01436 10.123C3.02609 10.1359 3.03204 10.182 3.05171 10.1808L3.05612 10.1848C3.05893 10.1958 3.04878 10.2124 3.06174 10.2202C3.06633 10.2202 3.07138 10.2194 3.0758 10.2182C3.08011 10.2248 3.08459 10.2398 3.09227 10.2411C3.10305 10.2267 3.12816 10.2406 3.13725 10.2503L3.14248 10.2508L3.14407 10.2443C3.14023 10.2396 3.1368 10.2336 3.13604 10.2275C3.1366 10.2236 3.1382 10.2192 3.14086 10.2162H3.14768C3.155 10.2203 3.15855 10.2267 3.16295 10.2335C3.18838 10.2445 3.1815 10.2582 3.19789 10.2729C3.21757 10.2905 3.25008 10.3059 3.26577 10.3255C3.28178 10.3455 3.26662 10.3521 3.29992 10.3805C3.30573 10.4026 3.30557 10.4209 3.30875 10.4428C3.33622 10.4439 3.32902 10.4782 3.33446 10.4978C3.3408 10.5054 3.35112 10.5088 3.35775 10.5155C3.36235 10.5201 3.3651 10.5309 3.3702 10.5343C3.37492 10.5375 3.38229 10.5386 3.38747 10.5416C3.39854 10.5478 3.40785 10.5584 3.4192 10.5649L3.42164 10.5701L3.41401 10.587C3.41401 10.5959 3.42394 10.5985 3.42164 10.6098C3.4177 10.6136 3.41469 10.6186 3.4116 10.6231C3.40953 10.6312 3.42896 10.6631 3.43409 10.6713C3.4391 10.6793 3.43292 10.7003 3.44092 10.7163C3.44753 10.7295 3.49169 10.7753 3.50438 10.7882C3.51353 10.7911 3.52274 10.785 3.53209 10.7887C3.54013 10.7975 3.53942 10.8061 3.54535 10.8156C3.5534 10.8284 3.569 10.8353 3.57828 10.8469C3.59616 10.8691 3.62628 10.9231 3.62568 10.9517C3.62516 10.9755 3.60298 10.9822 3.60881 11.0059C3.61747 11.0412 3.64019 11.0434 3.65018 11.0851C3.69691 11.1115 3.63337 11.1643 3.62929 11.1935C3.63413 11.2137 3.6609 11.2772 3.66142 11.2831C3.66021 11.2858 3.65744 11.2916 3.6554 11.2935C3.64678 11.3019 3.6325 11.3028 3.62206 11.308C3.61553 11.3113 3.61004 11.3192 3.60238 11.32C3.58677 11.3217 3.5741 11.3046 3.55057 11.3128L3.54696 11.3176C3.54879 11.3354 3.5677 11.3411 3.57588 11.3546C3.58038 11.362 3.57916 11.3714 3.58391 11.3787C3.58776 11.3846 3.59473 11.3857 3.59917 11.3943C3.6151 11.3956 3.62393 11.3849 3.63653 11.3855L3.64094 11.3887C3.64394 11.3967 3.64365 11.4079 3.63775 11.4145C3.6332 11.416 3.6276 11.4161 3.62289 11.4157L3.61848 11.4185C3.61736 11.4219 3.61722 11.4286 3.61928 11.4317C3.65446 11.4559 3.63996 11.4811 3.65141 11.4968C3.66207 11.4989 3.66707 11.5063 3.67591 11.5101C3.71203 11.5255 3.70801 11.508 3.72652 11.5498C3.74773 11.5562 3.75661 11.5805 3.76749 11.5972C3.77068 11.5972 3.77414 11.5946 3.77593 11.592L3.78275 11.594C3.78345 11.5972 3.78636 11.6073 3.78477 11.6101C3.80094 11.616 3.80401 11.6306 3.81529 11.6402C3.8182 11.6634 3.82506 11.6899 3.84461 11.7061C3.8493 11.7099 3.85509 11.7112 3.85947 11.7153C3.87437 11.7454 3.85188 11.7523 3.89201 11.7719C3.89746 11.7767 3.89557 11.7919 3.89604 11.7989C3.90707 11.8061 3.91554 11.8193 3.91934 11.8318L3.91854 11.8374C3.91399 11.8349 3.90161 11.8274 3.89725 11.8266L3.89284 11.8306C3.89176 11.8571 3.89411 11.8443 3.88119 11.8643C3.88405 11.8752 3.9129 11.879 3.92176 11.8872C3.92674 11.9447 3.93743 11.9237 3.95429 11.9423C3.96118 11.9498 3.96066 11.9625 3.96473 11.9716C3.99121 11.9929 3.98962 11.9799 4.01414 11.9828C4.02983 11.9847 4.04139 12.0291 4.08523 12.0061L4.08767 12.0005C4.08551 11.995 4.07935 11.9924 4.07482 11.9893C4.07369 11.9847 4.07294 11.9799 4.0728 11.9752C4.07674 11.9604 4.09592 11.9698 4.10453 11.9732L4.11015 11.9708C4.11142 11.9682 4.12221 11.9549 4.12462 11.9531L4.13225 11.9526C4.15185 11.9626 4.15635 11.9746 4.16317 11.9783C4.16873 11.9814 4.17542 11.9801 4.17964 11.9868C4.1825 11.9913 4.1817 11.9987 4.18687 12.0016C4.19732 12.0035 4.2038 11.9944 4.21217 11.9964C4.22317 12.0037 4.21789 12.01 4.22182 12.0181C4.22317 12.0209 4.22575 12.0228 4.22704 12.0261C4.2314 12.0373 4.24507 12.0416 4.25234 12.0506C4.26233 12.0631 4.27 12.0828 4.28166 12.0932C4.29707 12.107 4.34142 12.0939 4.35235 12.1073C4.35634 12.108 4.36256 12.1073 4.36601 12.1049L4.3676 12.1009C4.36502 12.0986 4.35872 12.0671 4.35957 12.0627C4.3606 12.061 4.3988 12.0413 4.40134 12.0418L4.40575 12.0458L4.40734 12.0523C4.40331 12.0715 4.39031 12.0724 4.38404 12.0852V12.0916L4.38845 12.0952C4.39711 12.0918 4.40952 12.0861 4.41898 12.088L4.42057 12.0944C4.41949 12.0979 4.41644 12.1013 4.41374 12.1037L4.40691 12.1045L4.4033 12.1085C4.39846 12.1101 4.3924 12.1118 4.38884 12.1157C4.3996 12.1253 4.4178 12.1321 4.42499 12.1447C4.43616 12.1474 4.4915 12.1929 4.49327 12.2041C4.50112 12.209 4.5088 12.2174 4.51858 12.2178C4.52134 12.2154 4.52398 12.2121 4.52581 12.2089C4.53557 12.2055 4.53983 12.2015 4.55111 12.2013C4.55453 12.2025 4.55805 12.2053 4.56035 12.2081C4.56035 12.2117 4.55984 12.2151 4.55913 12.2186C4.56124 12.2247 4.59963 12.2467 4.60853 12.2587C4.61224 12.2565 4.61713 12.2553 4.62139 12.2555C4.62401 12.2584 4.62575 12.2632 4.62579 12.2671L4.63543 12.274C4.64543 12.3125 4.66212 12.3081 4.68243 12.323C4.69091 12.3292 4.69405 12.3415 4.70492 12.3483C4.72031 12.3452 4.75919 12.3713 4.76798 12.3832C4.77305 12.3901 4.7807 12.4097 4.78565 12.4133C4.78565 12.4142 4.78565 12.4151 4.78612 12.4157C4.80913 12.4461 4.82585 12.4269 4.84597 12.4519C4.85437 12.4623 4.88739 12.5239 4.89175 12.5266C4.89681 12.5297 4.94243 12.5271 4.95763 12.5575C4.96438 12.5711 4.95716 12.5907 4.96166 12.6069C4.96606 12.6237 4.97713 12.6334 4.98455 12.6483C4.9921 12.6634 4.99562 12.6794 5.00142 12.6949C5.00311 12.6994 5.00732 12.7017 5.00905 12.7057C5.01332 12.7157 5.01079 12.7245 5.0195 12.7322L5.01997 12.7403C5.02273 12.7427 5.02616 12.745 5.0296 12.7463C5.03401 12.7692 5.0405 12.792 5.04888 12.8138C5.05094 12.8191 5.05575 12.8244 5.05731 12.8294C5.05938 12.836 5.05642 12.8446 5.05891 12.8511C5.06389 12.864 5.07777 12.8719 5.09064 12.8724C5.09657 12.8729 5.10208 12.8715 5.1059 12.8664L5.10712 12.8608C5.09996 12.845 5.06767 12.8566 5.06816 12.8266L5.07097 12.8218L5.0766 12.821L5.08624 12.8278C5.09471 12.8286 5.10467 12.8183 5.11275 12.8166L5.11716 12.8178C5.10616 12.8499 5.12495 12.8566 5.13603 12.8817C5.13997 12.8834 5.14465 12.8839 5.14889 12.8837C5.1517 12.8861 5.17255 12.9717 5.17178 12.9797L5.17539 12.9837C5.18055 12.981 5.18442 12.9765 5.18945 12.9737C5.20779 12.9871 5.19928 13.0407 5.19909 13.0592C5.20331 13.066 5.20598 13.0746 5.20873 13.0821C5.21243 13.0821 5.21665 13.0809 5.21997 13.0793L5.22157 13.0841C5.21974 13.0926 5.21376 13.0997 5.21273 13.1082C5.21493 13.1113 5.21634 13.1157 5.21634 13.1195C5.21432 13.1231 5.21278 13.1274 5.21193 13.1315C5.21559 13.1482 5.23417 13.1528 5.23001 13.1673L5.22358 13.1689L5.22278 13.1741C5.22974 13.191 5.23466 13.1964 5.24648 13.2094C5.24859 13.2118 5.25468 13.2175 5.25211 13.2211C5.25619 13.2272 5.26255 13.233 5.26737 13.2387C5.27262 13.2409 5.28137 13.2402 5.28544 13.2359L5.29107 13.2372L5.29154 13.2424C5.28556 13.2504 5.27473 13.2655 5.28631 13.2737L5.29274 13.2725C5.29574 13.2672 5.29775 13.2613 5.30077 13.256L5.30639 13.2552C5.31303 13.2679 5.33164 13.2884 5.32889 13.3026C5.32387 13.3081 5.31659 13.3122 5.31322 13.3191L5.31276 13.3255C5.33767 13.3639 5.3357 13.3915 5.30633 13.4275C5.31502 13.4513 5.3127 13.4546 5.32963 13.4741C5.33019 13.4799 5.33449 13.4935 5.33926 13.497C5.34578 13.4989 5.35306 13.4975 5.35935 13.4954C5.36801 13.4963 5.37269 13.5019 5.38304 13.5018C5.38595 13.4994 5.38927 13.497 5.39269 13.4954L5.39871 13.497C5.40148 13.5023 5.40547 13.5069 5.40714 13.5127L5.41197 13.5163C5.41609 13.5151 5.42103 13.5149 5.42522 13.5158C5.432 13.521 5.44267 13.551 5.4445 13.56C5.4837 13.5757 5.47127 13.5867 5.48627 13.6146C5.49159 13.616 5.49575 13.6211 5.49792 13.6259C5.49741 13.634 5.49036 13.6414 5.48868 13.65L5.48465 13.6528L5.47822 13.6536C5.46807 13.6444 5.45907 13.6472 5.44689 13.6476C5.44394 13.6431 5.44689 13.6344 5.44567 13.6287C5.4332 13.615 5.41852 13.5927 5.42037 13.5737C5.41962 13.5729 5.3835 13.5564 5.38101 13.556L5.37578 13.5592C5.37752 13.5682 5.38796 13.5688 5.39225 13.5761C5.39962 13.5887 5.40041 13.6053 5.40792 13.6175C5.41073 13.622 5.41639 13.6255 5.41916 13.6299C5.42216 13.6347 5.42333 13.642 5.42599 13.6472C5.43737 13.6693 5.46062 13.6892 5.47339 13.711C5.4812 13.7244 5.4871 13.7371 5.49548 13.75C5.49918 13.7557 5.50416 13.7677 5.51114 13.7693L5.51273 13.7625C5.50354 13.74 5.50342 13.6996 5.4806 13.6918C5.47924 13.6884 5.47694 13.6849 5.47417 13.6825L5.47338 13.6753L5.47661 13.6697L5.48424 13.6709C5.49695 13.6769 5.51917 13.7268 5.55774 13.7496L5.55854 13.7556C5.55011 13.7802 5.52532 13.7759 5.51677 13.7934C5.52298 13.8173 5.54068 13.8039 5.5473 13.8424C5.57706 13.8621 5.56264 13.8967 5.57099 13.9051C5.57666 13.9073 5.58179 13.9105 5.58746 13.9127C5.58802 13.9146 5.59013 13.9183 5.59027 13.9199C5.59421 13.9652 5.61871 13.9578 5.62321 13.9766C5.62803 13.9967 5.61885 14.0106 5.61598 14.0296C5.61218 14.0547 5.6251 14.0619 5.62602 14.0826C5.62691 14.1031 5.61839 14.1268 5.61839 14.1481C5.61839 14.1573 5.62522 14.1625 5.62321 14.175C5.6312 14.1894 5.63282 14.1858 5.63325 14.2043L5.63644 14.2091C5.65676 14.208 5.6558 14.1785 5.65572 14.1637L5.65933 14.1589C5.66939 14.1571 5.68947 14.1569 5.69306 14.1693C5.69353 14.1764 5.69109 14.1831 5.68903 14.1898C5.65613 14.2011 5.66121 14.2414 5.64204 14.2633C5.6374 14.2687 5.6292 14.2717 5.62316 14.2758C5.61776 14.2933 5.62602 14.3113 5.61713 14.3308C5.60394 14.3599 5.56214 14.3643 5.57577 14.4071C5.5752 14.4128 5.57086 14.4171 5.56773 14.4216C5.56529 14.4342 5.57172 14.435 5.57536 14.4441L5.57457 14.4589C5.56668 14.4682 5.552 14.492 5.5593 14.5039L5.56493 14.5051L5.56934 14.5015C5.57182 14.4898 5.57897 14.4786 5.58259 14.467L5.58821 14.4654L5.58868 14.4678C5.58915 14.47 5.57559 14.5553 5.57462 14.557C5.56876 14.5671 5.55625 14.5712 5.55293 14.5835C5.55031 14.5931 5.55514 14.6037 5.5534 14.6136C5.55223 14.62 5.54669 14.6245 5.54738 14.6317C5.54818 14.6401 5.55601 14.64 5.55381 14.657C5.55174 14.6727 5.54124 14.6848 5.54296 14.7028C5.54376 14.7111 5.55321 14.7167 5.553 14.7253C5.553 14.7345 5.54375 14.74 5.54698 14.7502C5.55963 14.7548 5.55784 14.7764 5.55742 14.7867C5.56369 14.7926 5.55915 14.8053 5.56065 14.8132C5.56861 14.8168 5.57458 14.8209 5.57511 14.8305C5.57427 14.8338 5.57108 14.838 5.56788 14.8393C5.54752 14.8318 5.55391 14.82 5.547 14.8048C5.54451 14.7993 5.53962 14.7959 5.53776 14.7899C5.53354 14.7764 5.53672 14.7626 5.53093 14.7498C5.52424 14.7475 5.51734 14.7503 5.51045 14.7502C5.50106 14.7502 5.49522 14.7443 5.48634 14.7426L5.48072 14.7446C5.48429 14.7577 5.48995 14.7592 5.5008 14.7647L5.50282 14.7703C5.49823 14.7788 5.49549 14.7861 5.49599 14.796C5.50951 14.8205 5.53458 14.8249 5.54258 14.8531C5.54829 14.8541 5.55524 14.8564 5.55865 14.8615C5.55968 14.8669 5.55973 14.8754 5.56467 14.8788L5.5711 14.8796C5.58367 14.8889 5.57597 14.913 5.58074 14.9253C5.58435 14.9347 5.59687 14.9362 5.60163 14.9442C5.60477 14.9495 5.60369 14.9579 5.60566 14.9639L5.61006 14.9679C5.63598 14.9748 5.63812 14.9432 5.64622 14.9278L5.65184 14.929C5.65652 14.9329 5.65685 14.9394 5.66027 14.9443L5.65868 14.9507C5.65624 14.9534 5.65302 14.9558 5.64984 14.9575C5.64731 14.964 5.64712 14.9711 5.64703 14.978C5.64291 14.9838 5.63345 14.9852 5.62815 14.9912C5.60857 15.0137 5.62769 15.0237 5.63055 15.0471C5.63369 15.0615 5.64115 15.0878 5.63898 15.1021C5.6372 15.114 5.63184 15.1236 5.63215 15.1366C5.63824 15.1465 5.64887 15.1543 5.65022 15.1664L5.64821 15.1724C5.65224 15.1865 5.65765 15.1861 5.65584 15.2041C5.66053 15.2079 5.66459 15.2124 5.6699 15.2154L5.67271 15.2138C5.67772 15.205 5.68044 15.1947 5.68636 15.1865L5.69239 15.1852L5.69922 15.1873C5.70034 15.1912 5.70081 15.1956 5.70044 15.1997C5.6979 15.2026 5.69566 15.2065 5.69441 15.2102C5.69662 15.2112 5.71162 15.2228 5.71289 15.2246L5.71335 15.2322C5.70831 15.2376 5.70288 15.2435 5.69729 15.2483L5.69776 15.2519C5.70464 15.2584 5.7158 15.2602 5.71945 15.2704C5.72717 15.2919 5.72067 15.3541 5.7074 15.3736C5.70065 15.3835 5.6857 15.3846 5.6825 15.3977L5.67889 15.3985C5.67673 15.399 5.67673 15.399 5.67565 15.3997C5.66454 15.4079 5.66146 15.4223 5.65035 15.4291C5.64218 15.434 5.63377 15.4335 5.62746 15.4423C5.62891 15.4518 5.63557 15.4579 5.63709 15.4656C5.63798 15.4701 5.63709 15.474 5.6407 15.4777C5.6555 15.4841 5.65876 15.4881 5.66199 15.5042C5.67888 15.5149 5.69291 15.5133 5.68529 15.5419C5.68979 15.5492 5.71899 15.5591 5.71862 15.5945C5.71057 15.6038 5.70385 15.625 5.70537 15.6371C5.71877 15.6534 5.71694 15.6772 5.72706 15.6941C5.73502 15.7075 5.78182 15.7253 5.78851 15.7371C5.78964 15.7521 5.78683 15.7557 5.79775 15.7681C5.80146 15.7693 5.8051 15.7707 5.80859 15.7725C5.81809 15.7855 5.8107 15.818 5.80813 15.8327C5.80906 15.835 5.81052 15.8377 5.81216 15.8395C5.82405 15.8526 5.82074 15.8553 5.82742 15.8693C5.83282 15.8721 5.83849 15.8733 5.84389 15.8761C5.84958 15.8824 5.84745 15.8922 5.85313 15.899C5.85669 15.9006 5.8613 15.9015 5.86518 15.901C5.89129 15.8832 5.89737 15.9047 5.91177 15.901L5.91617 15.9046C5.92067 15.9147 5.92164 15.9258 5.92139 15.9367C5.90815 15.9355 5.90943 15.9241 5.89971 15.9207L5.89567 15.9243C5.89072 15.9326 5.90671 15.9619 5.91335 15.9673C5.94122 15.9722 5.94878 16.0019 5.96958 16.0142L5.97361 16.0119C5.97436 16.0044 5.97361 15.9972 5.97281 15.9898L5.97684 15.9874H5.98327C5.98632 15.9895 5.98926 15.9922 5.9917 15.995L5.99409 16.0083C5.99962 16.0116 6.00638 16.0116 6.01257 16.0127L6.0166 16.0179C6.01731 16.0246 6.01735 16.0314 6.01899 16.038C6.02213 16.039 6.02549 16.0433 6.02622 16.0464L6.02341 16.0508C5.99944 16.056 5.99831 16.0352 5.98646 16.0327L5.98205 16.0368L5.98046 16.0432C5.98425 16.0528 5.99354 16.0644 5.99371 16.0649L5.98968 16.0713C5.99348 16.1028 6.01372 16.1163 6.0435 16.1195C6.03773 16.1124 6.02914 16.1059 6.02623 16.097L6.02946 16.0922L6.03629 16.0906C6.05073 16.0933 6.05313 16.1105 6.07364 16.1079L6.07444 16.1135C6.06947 16.1246 6.05894 16.1291 6.05637 16.1352C6.05473 16.1436 6.06786 16.1746 6.07444 16.1786C6.08583 16.1854 6.08977 16.1818 6.09653 16.1962C6.10056 16.2048 6.09653 16.2145 6.10094 16.224C6.10632 16.2354 6.11174 16.2504 6.11781 16.2609C6.12315 16.2702 6.13289 16.2757 6.1387 16.2862C6.14555 16.2913 6.1564 16.2903 6.1644 16.293C6.16736 16.2952 6.16938 16.2995 6.17002 16.3031L6.16684 16.3075C6.15967 16.3099 6.14845 16.3096 6.14314 16.3151C6.14848 16.325 6.1589 16.3327 6.16443 16.342C6.1694 16.3504 6.17148 16.3612 6.17567 16.3702C6.17961 16.3785 6.18778 16.3842 6.19335 16.3914C6.20305 16.4041 6.22519 16.4543 6.24315 16.469C6.24737 16.4724 6.26248 16.4753 6.26805 16.4754C6.27539 16.481 6.27713 16.4864 6.28211 16.4935C6.28756 16.5012 6.29587 16.5064 6.3026 16.5127C6.31797 16.5271 6.33297 16.5477 6.34517 16.565C6.34841 16.5695 6.35129 16.5741 6.35562 16.5778C6.364 16.5849 6.3856 16.5835 6.39819 16.5919C6.4299 16.613 6.49292 16.6614 6.52391 16.6754C6.5289 16.6777 6.53436 16.68 6.53998 16.679L6.54401 16.675L6.54321 16.6698C6.5374 16.6585 6.49012 16.6553 6.49541 16.624C6.52189 16.6219 6.57465 16.6672 6.58418 16.6698L6.5902 16.669L6.59542 16.6581C6.60293 16.6546 6.60715 16.6598 6.6139 16.6605C6.62731 16.6621 6.64579 16.6422 6.67013 16.6485C6.6804 16.6511 6.67918 16.661 6.69664 16.6621L6.70226 16.6597L6.70748 16.6625C6.71137 16.675 6.7304 16.685 6.7352 16.6975C6.73759 16.7037 6.73351 16.7112 6.73679 16.716L6.7412 16.7196L6.74843 16.7204C6.75486 16.7264 6.77077 16.7452 6.77695 16.7485C6.79311 16.7497 6.84946 16.759 6.85527 16.7734C6.85574 16.78 6.85457 16.7875 6.85087 16.7931C6.85638 16.8024 6.86496 16.8051 6.87095 16.8131C6.88562 16.833 6.8816 16.8431 6.9067 16.8577C6.91521 16.8627 6.92843 16.8642 6.93521 16.8694C6.94363 16.8758 6.94952 16.8871 6.95851 16.8927C6.97505 16.9029 7.00285 16.8984 7.02157 16.9099C7.02579 16.9126 7.02926 16.9165 7.03161 16.9208C7.04822 16.9512 7.04088 16.937 7.06415 16.9537C7.0706 16.9584 7.07223 16.9688 7.08182 16.9758C7.10538 16.9931 7.15904 17.0079 7.17018 17.0316C7.17939 17.0513 7.16355 17.071 7.16536 17.0919C7.1671 17.095 7.20545 17.108 7.21396 17.1228C7.22151 17.1359 7.22088 17.1559 7.23164 17.1682C7.2392 17.1769 7.25257 17.1759 7.25935 17.1879C7.27738 17.2198 7.24799 17.2209 7.28666 17.2574C7.28896 17.2595 7.29137 17.2617 7.29429 17.263L7.29992 17.2606C7.29921 17.2525 7.28696 17.2465 7.28264 17.2385L7.28311 17.2293C7.29967 17.2071 7.33094 17.2237 7.35059 17.226C7.35467 17.2265 7.36951 17.2223 7.37589 17.222C7.4109 17.2553 7.45977 17.3266 7.45502 17.3775C7.45404 17.3882 7.44714 17.3981 7.44538 17.4084C7.44318 17.4213 7.45344 17.4357 7.44819 17.4473L7.44501 17.4502C7.43005 17.4449 7.43279 17.4298 7.41006 17.4285L7.40524 17.4317C7.40571 17.4325 7.50193 17.5259 7.50244 17.5261C7.52543 17.5329 7.55125 17.5359 7.57474 17.5405C7.58526 17.5505 7.58977 17.5549 7.60366 17.5598L7.60085 17.5655C7.61672 17.5822 7.62016 17.6034 7.61772 17.6261C7.61296 17.6328 7.60285 17.6418 7.60004 17.649C7.59335 17.6662 7.6148 17.7168 7.62213 17.7341C7.6226 17.7378 7.62087 17.7418 7.61932 17.745C7.61627 17.7465 7.61384 17.75 7.61249 17.753L7.61409 17.759L7.62051 17.7611C7.62319 17.76 7.62827 17.7591 7.63095 17.7606L7.63297 17.7666C7.63933 17.7686 7.65344 17.7692 7.65747 17.7739C7.65963 17.7794 7.66103 17.7855 7.6647 17.7903L7.67153 17.7915C7.68276 17.7977 7.67895 17.8166 7.68197 17.8281C7.68643 17.8332 7.69458 17.8367 7.70005 17.8413C7.70366 17.8444 7.72607 17.8827 7.72495 17.8863C7.71973 17.8893 7.71029 17.8945 7.70808 17.9004C7.69782 17.9278 7.73815 18.0097 7.7619 18.0249C7.7814 18.0374 7.80532 18.031 7.82536 18.0414C7.8342 18.046 7.84125 18.0572 7.84986 18.0635C7.85263 18.0671 7.85178 18.073 7.85066 18.0771C7.84518 18.0974 7.83477 18.112 7.83298 18.1346C7.83252 18.1384 7.83233 18.1426 7.83097 18.1462C7.8247 18.163 7.81665 18.1757 7.8141 18.1944C7.81133 18.1969 7.80856 18.1997 7.80647 18.2028C7.80712 18.2231 7.80989 18.2168 7.82012 18.2285C7.82794 18.2375 7.84214 18.2876 7.84784 18.3028C7.85362 18.3076 7.87456 18.3053 7.88278 18.3061C7.88541 18.3108 7.89568 18.3263 7.89925 18.3294C7.91522 18.3327 7.92207 18.3281 7.93098 18.3454C7.93154 18.3545 7.92018 18.3602 7.91773 18.3683C7.91125 18.3897 7.89563 18.411 7.89122 18.4326C7.88831 18.4468 7.89506 18.4636 7.89169 18.4752C7.88794 18.4879 7.88246 18.4888 7.88245 18.5049C7.89624 18.5127 7.94188 18.5858 7.9435 18.6001C7.94407 18.6049 7.94242 18.6112 7.94228 18.6162C7.95517 18.6302 7.96611 18.6231 7.97482 18.6475C7.97791 18.6501 7.98419 18.651 7.98807 18.6507C7.9956 18.6462 7.99853 18.6408 8.00494 18.6362C8.01209 18.6362 8.0241 18.6468 8.02783 18.6527C8.0509 18.6522 8.05706 18.6761 8.05394 18.6957C8.06328 18.6987 8.09574 18.7197 8.09973 18.7282C8.10446 18.7383 8.10142 18.7468 8.10937 18.7583C8.11417 18.7609 8.12126 18.7627 8.12544 18.7659C8.14308 18.7798 8.12755 18.8276 8.12783 18.8455C8.13106 18.8473 8.134 18.8497 8.13666 18.8523C8.14093 18.8622 8.13451 18.8767 8.13666 18.8881C8.13812 18.8956 8.14384 18.9023 8.1463 18.9093C8.14855 18.9157 8.14827 18.9233 8.14954 18.9298C8.15221 18.9439 8.1642 18.9576 8.17163 18.9696C8.17402 18.9814 8.16449 18.9835 8.164 18.9901C8.17758 19.0006 8.19345 18.9896 8.20135 18.9961L8.20496 19.0009L8.20416 19.0053L8.20013 19.0089L8.19854 19.0154C8.20601 19.0328 8.19056 19.0404 8.19091 19.0575L8.19452 19.0616L8.20014 19.0611C8.20225 19.0574 8.20366 19.0532 8.20455 19.0491H8.20977C8.21483 19.0577 8.23334 19.0596 8.23267 19.0736C8.22882 19.074 8.22445 19.075 8.22102 19.0767C8.2197 19.0813 8.21952 19.0865 8.22022 19.0912C8.23272 19.0928 8.24735 19.0936 8.25838 19.1008L8.25959 19.1077C8.25725 19.1113 8.2558 19.1162 8.25556 19.1205L8.25795 19.1241C8.26142 19.1268 8.26689 19.1286 8.27121 19.1285C8.28322 19.1417 8.27847 19.1526 8.28487 19.1603C8.29153 19.1682 8.30133 19.1698 8.30133 19.1832C8.30133 19.1947 8.29392 19.205 8.29974 19.2165C8.30232 19.2191 8.30588 19.2213 8.30938 19.2225C8.31504 19.2299 8.31469 19.2421 8.32103 19.2502C8.33001 19.2618 8.36012 19.2623 8.362 19.2812L8.36078 19.2868C8.35797 19.2889 8.35525 19.2921 8.35355 19.2952L8.35435 19.3004C8.36085 19.3079 8.37364 19.3098 8.38287 19.3113L8.38648 19.3153C8.38498 19.3237 8.37568 19.3257 8.37402 19.3342L8.37562 19.3406L8.38325 19.3475C8.38615 19.3565 8.38278 19.3662 8.38606 19.3756C8.39269 19.3797 8.40066 19.3815 8.40654 19.3868C8.42641 19.4046 8.43329 19.4465 8.45956 19.4595C8.46899 19.4637 8.48281 19.4714 8.4925 19.4732C8.49899 19.4792 8.49667 19.5034 8.49933 19.5129C8.50735 19.5146 8.51489 19.5103 8.52222 19.5077C8.53653 19.5089 8.55001 19.5402 8.5664 19.5419C8.5737 19.5393 8.58155 19.5369 8.58849 19.5334C8.61242 19.5343 8.61001 19.565 8.62183 19.578C8.62591 19.5825 8.65167 19.5916 8.65838 19.5969C8.67155 19.6072 8.70164 19.6555 8.70738 19.6583L8.71461 19.6588C8.71832 19.6548 8.72404 19.6525 8.72907 19.6508C8.73273 19.6515 8.73724 19.6533 8.73992 19.656C8.74095 19.6608 8.7394 19.6651 8.73992 19.6696C8.74123 19.6812 8.76974 19.6864 8.78289 19.7215C8.79729 19.7327 8.81015 19.7246 8.82708 19.7263C8.83073 19.7312 8.83235 19.7441 8.8331 19.7504C8.8474 19.7661 8.85522 19.7713 8.86282 19.7926C8.86578 19.8008 8.86428 19.8165 8.87206 19.8219L8.87889 19.8211L8.88292 19.8179L8.8817 19.8111C8.89376 19.8104 8.90743 19.8327 8.91383 19.8404C8.91977 19.8475 8.93225 19.8482 8.93793 19.8556C8.94335 19.8627 8.94668 19.8726 8.9532 19.8789C8.95994 19.8855 8.96866 19.89 8.97609 19.8954C8.99252 19.9075 9.00568 19.9328 9.01626 19.9496C9.02687 19.9555 9.04014 19.9603 9.05241 19.9601C9.05705 19.9671 9.05803 19.9894 9.05963 19.9982C9.06231 20.013 9.07028 20.0189 9.06847 20.0364C9.06622 20.0582 9.05349 20.0738 9.05924 20.097L9.06364 20.0954C9.06519 20.0913 9.06674 20.0873 9.06767 20.083L9.06969 20.0862C9.07508 20.0951 9.06903 20.1125 9.0717 20.1216C9.07339 20.1273 9.07877 20.1314 9.07934 20.1376C9.08182 20.165 9.07019 20.1918 9.07331 20.22C9.07753 20.258 9.09593 20.2929 9.10303 20.33C9.10622 20.3466 9.10223 20.367 9.10223 20.3839C9.10223 20.4084 9.10603 20.4365 9.11067 20.4606L9.1147 20.4618C9.11934 20.4587 9.12391 20.4556 9.12876 20.453C9.12689 20.448 9.12278 20.4439 9.12113 20.4389C9.1171 20.4266 9.12272 20.4137 9.11991 20.4019C9.11691 20.3895 9.10724 20.3628 9.11869 20.3517L9.12391 20.3501L9.13034 20.3517L9.13315 20.3469L9.10785 20.2951C9.10729 20.2901 9.10879 20.2852 9.10785 20.2798C9.11323 20.2776 9.1434 20.2925 9.14841 20.2971C9.15497 20.2965 9.16085 20.2995 9.16689 20.3015C9.16689 20.316 9.16053 20.3294 9.16087 20.3437C9.18478 20.3689 9.18379 20.4176 9.20947 20.4381C9.2222 20.4482 9.25597 20.4393 9.27775 20.4513C9.29221 20.4708 9.26735 20.4699 9.30586 20.4774L9.30989 20.4818C9.31449 20.4998 9.304 20.5051 9.30586 20.522C9.30741 20.536 9.30694 20.5579 9.31149 20.5706C9.31332 20.5757 9.31803 20.5812 9.31831 20.5871C9.31902 20.6016 9.29763 20.6122 9.29984 20.6317L9.30265 20.6365C9.30742 20.6384 9.31224 20.641 9.31631 20.6441C9.31696 20.6446 9.31917 20.6482 9.31992 20.6461C9.32334 20.6553 9.32969 20.6702 9.33478 20.6787L9.3408 20.6807C9.34663 20.6798 9.35258 20.6759 9.35848 20.6775C9.36476 20.683 9.36756 20.688 9.37294 20.694C9.37944 20.693 9.38508 20.6897 9.39181 20.6899C9.39622 20.6933 9.39961 20.6977 9.40306 20.702C9.40667 20.7026 9.41104 20.7045 9.4135 20.7072C9.418 20.7167 9.41753 20.7274 9.42234 20.7373C9.42674 20.7381 9.43194 20.7379 9.4364 20.7373L9.44162 20.7406C9.45339 20.7657 9.44317 20.783 9.47817 20.7892C9.48248 20.7942 9.48455 20.8014 9.4822 20.8076C9.47939 20.8061 9.47603 20.8052 9.47296 20.8044L9.46893 20.8076L9.46692 20.8145C9.47447 20.8312 9.48133 20.8267 9.48419 20.8506L9.4878 20.8534L9.49262 20.8502L9.49501 20.8534C9.49562 20.8582 9.49501 20.8636 9.49421 20.8683L9.49782 20.8711L9.51027 20.8683C9.51812 20.8771 9.49336 20.9664 9.4922 20.9844C9.49135 20.997 9.50607 21.0475 9.51911 21.051C9.52498 21.0604 9.52863 21.0733 9.5412 21.0755C9.55125 21.0884 9.54401 21.0985 9.56449 21.1077C9.57813 21.1294 9.5673 21.1468 9.55485 21.1647C9.55724 21.1722 9.56468 21.1763 9.5661 21.1848C9.56798 21.1961 9.5683 21.2029 9.56849 21.2081C9.57714 21.2124 9.58496 21.2165 9.59219 21.2238C9.59397 21.2255 9.59683 21.2278 9.59942 21.2282C9.6117 21.2205 9.61884 21.2225 9.63356 21.2217C9.6345 21.2217 9.63581 21.2212 9.6368 21.2209C9.66167 21.2141 9.68419 21.2051 9.70347 21.1868L9.74002 21.1856L9.74124 21.1747L9.74363 21.153C9.74279 21.1411 9.73114 21.1151 9.72596 21.1024L9.72718 21.0968C9.73548 21.0915 9.7461 21.0867 9.75328 21.0803C9.75811 21.076 9.76312 21.0682 9.76734 21.0631C9.77339 21.0557 9.7925 21.0588 9.80028 21.0574C9.80595 21.0565 9.81235 21.0538 9.81795 21.0522C9.84308 21.0404 9.85093 21.0362 9.87659 21.0345C9.87715 21.0345 9.88731 21.0269 9.88864 21.0265C9.89744 21.0238 9.90641 21.0258 9.91475 21.0201L9.91957 21.0117L9.91314 20.9855C9.91722 20.9763 9.92041 20.9702 9.92117 20.9598C9.92865 20.9421 9.93098 20.9414 9.93081 20.9229C9.93081 20.9139 9.93936 20.9021 9.94487 20.896L9.94534 20.8912L9.93209 20.8735L9.93162 20.8667L9.94768 20.8598L9.95171 20.8606L9.95734 20.8679C9.963 20.8683 9.97846 20.8793 9.98384 20.8827C9.98988 20.8865 10.0004 20.8873 10.0071 20.8891L10.0164 20.8972C10.0269 20.899 10.0325 20.8972 10.0417 20.892C10.0437 20.8862 10.0422 20.8735 10.0409 20.8679L10.0312 20.8578L10.0353 20.8393C10.0315 20.8292 10.0249 20.8182 10.0264 20.8072L10.0377 20.7988C10.0393 20.7905 10.0399 20.7896 10.0365 20.7807C10.0437 20.7814 10.0609 20.7886 10.0658 20.7871L10.0807 20.7771L10.0746 20.7538L10.0658 20.749C10.0741 20.736 10.0744 20.7238 10.0726 20.7076L10.0694 20.706L10.0581 20.7076L10.0413 20.6923C10.0382 20.6812 10.0369 20.6744 10.0312 20.665L10.0224 20.6658L10.0184 20.6586L10.0143 20.6562L10.0007 20.6578C9.99518 20.6532 9.9898 20.6541 9.9834 20.6538C9.97766 20.646 9.97092 20.6382 9.96573 20.6301C9.96217 20.6245 9.96147 20.621 9.95649 20.6168L9.94725 20.62C9.94913 20.6093 9.94599 20.5992 9.93882 20.5919L9.94121 20.5863C9.94121 20.5842 9.9391 20.573 9.94042 20.5722C9.9526 20.5653 9.9546 20.5651 9.96733 20.5638L9.9862 20.5493C9.9803 20.5437 9.97925 20.5312 9.97857 20.5244L9.97618 20.4626C9.97562 20.4391 10.0564 20.4549 10.0593 20.4317L9.98944 20.3674C9.98282 20.3659 9.96456 20.3771 9.95931 20.3806C9.95594 20.3714 9.95556 20.3566 9.9557 20.3469L9.95851 20.3405L9.97779 20.33L9.9814 20.2951L9.97658 20.2887L9.97612 20.283C9.98098 20.2822 9.99619 20.2776 9.99861 20.2722L9.99622 20.2646L9.99861 20.2589C10.0088 20.2555 10.0158 20.2458 10.0231 20.2381L10.0236 20.2284C10.0165 20.2183 10.0073 20.2076 10.0055 20.1947L10.0103 20.1774C10.0227 20.1713 10.035 20.1679 10.0481 20.1642L10.0577 20.1537C10.0676 20.1515 10.0816 20.1508 10.0915 20.1542L10.1063 20.1417L10.116 20.1409L10.1188 20.1345C10.1274 20.132 10.1396 20.1327 10.1481 20.1353C10.1538 20.1222 10.1409 20.1095 10.1324 20.1028L10.1208 20.1016L10.116 20.0979L10.1224 20.0891L10.1219 20.0839C10.1123 20.0692 10.1032 20.0731 10.0918 20.0658C10.0849 20.0614 10.0772 20.0532 10.0709 20.0477L10.0496 20.0453C10.0465 20.0439 10.0397 20.0342 10.04 20.0308C10.0404 20.0304 10.0431 20.0279 10.0432 20.0276C10.0491 19.9993 10.0354 19.9985 10.0364 19.9754C10.0386 19.9201 10.0621 19.8751 10.0946 19.83C10.0975 19.8276 10.1138 19.8134 10.1151 19.8127L10.1304 19.8071C10.1656 19.7944 10.1942 19.7945 10.2292 19.8107C10.2449 19.818 10.2586 19.8301 10.2726 19.8404L10.281 19.8364C10.2848 19.8391 10.2895 19.8417 10.293 19.8448C10.3073 19.8576 10.3213 19.8718 10.336 19.8838C10.3534 19.8979 10.373 19.9094 10.3922 19.9204C10.4046 19.9274 10.4154 19.942 10.4232 19.9537L10.4457 19.9878C10.4499 19.9891 10.4564 19.9898 10.4601 19.9919C10.4847 20.0052 10.4958 20.0361 10.5071 20.0417C10.5112 20.0436 10.5164 20.0448 10.5224 20.0469C10.5277 20.0494 10.5472 20.0604 10.5525 20.0585L10.5758 20.0445C10.5785 20.0445 10.6073 20.046 10.6087 20.0465C10.6098 20.047 10.6157 20.0513 10.6172 20.0521C10.6202 20.0537 10.6239 20.0546 10.6272 20.0557L10.6264 20.0678L10.6297 20.0758L10.6393 20.0698L10.6485 20.0702L10.6598 20.0787C10.6684 20.0768 10.6837 20.0792 10.6907 20.0851L10.6999 20.0763L10.706 20.0783L10.7072 20.0807C10.7061 20.0917 10.7041 20.1133 10.7124 20.1221L10.7819 20.1321L10.8205 20.0947C10.8275 20.0879 10.8552 20.0432 10.8626 20.0321V20.0249L10.8654 20.022L10.8731 20.0281L10.9056 20.0297C10.9217 20.0303 10.9201 20.0306 10.9305 20.0417L10.9691 20.0827C10.9964 20.0458 10.9932 20.0493 11.0121 20.0088L11.0402 20.0281C11.0402 20.0281 11.1774 19.989 11.2201 19.9819C11.2628 19.9747 11.3571 19.9676 11.3908 19.9867C11.4245 20.0057 11.4515 20.0155 11.4695 20.0084L11.5483 19.9774H12.1423C12.1558 19.9774 12.1962 19.994 12.2142 20.0035C12.2322 20.0131 12.3153 20.082 12.3355 20.0891C12.3557 20.0962 12.4999 20.1128 12.5291 20.1152C12.5583 20.1176 13.2172 20.1985 13.2689 20.2056C13.3207 20.2127 13.5433 20.1938 13.5995 20.1843C13.6557 20.1748 13.7907 20.1558 13.7907 20.1558L14.0562 20.5337H14.2293C14.2473 20.5337 14.2745 20.5172 14.2835 20.51C14.2925 20.5029 14.5398 20.3578 14.5398 20.3578C14.5398 20.3578 14.5646 20.3175 14.5691 20.3032C14.5736 20.2889 14.6746 19.9795 14.6948 19.9485C14.7151 19.9176 15.2865 19.1566 15.2977 19.1376C15.309 19.1185 15.3722 19.0853 15.3857 19.0781L16.3099 18.5925L17.1963 18.4905C17.1963 18.4905 17.7643 18.4296 18.3049 18.3431C18.8429 18.2571 19.3536 18.1454 19.3544 18.1451L19.3536 18.1479L22.5416 16.9791L22.9906 15.4974L23.2501 14.6411L22.7657 13.8161L22.5319 14.0197L19.9541 13.5249L19.1512 12.4938L18.911 12.1669L18.9105 12.0006L18.8929 11.8528L18.8816 11.6616C18.8816 11.6616 18.8125 11.5845 18.7547 11.5636C18.6969 11.5427 18.7033 11.5796 18.7001 11.5925C18.6968 11.6053 18.684 11.6182 18.6615 11.6375C18.639 11.6568 18.6165 11.6471 18.6262 11.6182C18.6358 11.5893 18.6326 11.5861 18.6037 11.57C18.5748 11.5539 18.529 11.5821 18.529 11.5821C18.5277 11.5839 18.4792 11.6284 18.4776 11.6294C18.4721 11.6329 18.4655 11.6335 18.4595 11.6355C18.4558 11.6366 18.4148 11.6595 18.4105 11.6616C18.371 11.6552 18.2699 11.6393 18.2595 11.6363C18.2549 11.6303 18.1526 11.5106 18.1502 11.5065C18.1491 11.5047 18.1158 11.4392 18.1121 11.4338L17.8574 10.5743L17.5208 9.98909L17.8646 8.2925L16.8589 6.9815L15.5615 7.00158C15.3042 7.00518 15.0465 7.0095 14.7892 7.01443L14.7944 6.99355C14.7888 6.98723 14.7304 6.9227 14.7289 6.91964C14.7243 6.91019 14.7213 6.89681 14.7181 6.8867C14.7128 6.88211 14.689 6.85913 14.6855 6.85297C14.6851 6.85254 14.6773 6.82899 14.6771 6.82806C14.6763 6.82468 14.6729 6.77799 14.6731 6.77585C14.6744 6.75092 14.6822 6.73366 14.6775 6.70717C14.6775 6.70717 14.6687 6.66064 14.6682 6.65937C14.6581 6.63339 14.6577 6.63619 14.6393 6.61398C14.6312 6.60416 14.626 6.5806 14.6152 6.56779L14.5895 6.53727C14.583 6.52945 14.5673 6.49803 14.5614 6.48746C14.556 6.47789 14.5555 6.47772 14.5465 6.47099L14.5297 6.45814C14.2096 6.41749 13.8896 6.37491 13.5689 6.33885C13.5651 6.3411 13.4318 6.38684 13.4303 6.38705C13.4297 6.38714 13.4204 6.38637 13.4191 6.38624C12.8196 6.32903 12.2199 6.27563 11.6197 6.22679C11.5877 6.20043 11.1891 5.87318 11.1144 5.81228C10.8955 5.63379 10.0125 4.92544 9.88734 4.82622C9.76501 4.72928 8.83013 3.99726 8.81813 3.99037L8.7382 3.95463C8.53841 3.86481 8.33849 3.77577 8.13813 3.68712C8.11776 3.67811 8.0983 3.66309 8.07949 3.65138C8.07949 3.65138 7.23854 3.13283 7.04884 3.01756C7.04753 3.01678 7.04175 3.0129 7.04121 3.01274C7.02359 3.00796 6.16422 2.84647 5.7527 2.77175L5.75264 2.77148ZM1.02556 7.51583C1.02443 7.51579 1.02354 7.51693 1.02317 7.51985C1.0257 7.52691 1.02762 7.54784 1.01272 7.54515C1.01141 7.54558 1.01193 7.55398 1.01352 7.55479L1.03682 7.55399C1.03818 7.55409 1.04451 7.55666 1.04565 7.5552C1.04973 7.54998 1.02876 7.54735 1.02758 7.54395C1.02758 7.54167 1.02758 7.53889 1.02997 7.53793C1.03917 7.53852 1.03043 7.516 1.02556 7.51583ZM0.978567 7.5331L0.975754 7.53391C0.971067 7.53562 0.992526 7.54001 0.996642 7.54756C1.00058 7.55477 1.00025 7.53897 0.997439 7.53551C0.995095 7.53261 0.982565 7.53271 0.978567 7.5331ZM1.36295 7.53792C1.36248 7.53793 1.36201 7.53806 1.36173 7.53835C1.36126 7.53881 1.36258 7.54118 1.36295 7.54156C1.36647 7.54544 1.38984 7.56267 1.38866 7.54518H1.38585C1.38022 7.54849 1.37619 7.55007 1.37018 7.54475C1.36891 7.54363 1.36537 7.53787 1.36295 7.53792ZM1.32037 7.53993C1.31672 7.54082 1.30334 7.57278 1.32319 7.57005C1.32567 7.56973 1.3275 7.5684 1.32961 7.56724C1.33135 7.56629 1.3367 7.56633 1.33765 7.56483C1.33915 7.5625 1.32158 7.54212 1.32158 7.54154C1.32158 7.5402 1.32089 7.5398 1.32037 7.53993ZM1.06291 7.55399C1.06132 7.55413 1.05907 7.55492 1.05851 7.55519C1.05051 7.55886 1.04379 7.56705 1.05369 7.56162C1.05547 7.56064 1.06288 7.55801 1.06373 7.5568C1.06532 7.55456 1.06446 7.55384 1.06291 7.55399ZM0.940008 7.56483C0.939445 7.56465 0.938133 7.56532 0.937195 7.56604C0.934945 7.56777 0.932554 7.57386 0.931575 7.57447C0.929981 7.57545 0.924159 7.56975 0.92595 7.57568C0.931439 7.59378 0.938358 7.57107 0.940008 7.56564C0.940008 7.56536 0.940008 7.5649 0.940008 7.56483ZM0.984192 7.56644C0.983536 7.56578 0.981895 7.56682 0.97897 7.57006C0.97747 7.57171 0.978267 7.57533 0.975736 7.57729C0.967228 7.57495 0.973439 7.58278 0.974939 7.58291C0.979678 7.58333 0.986194 7.56841 0.984192 7.56644ZM0.933178 7.59014C0.932287 7.59064 0.931444 7.59148 0.931162 7.59175C0.930553 7.593 0.930225 7.59524 0.930694 7.59657H0.933084C0.934772 7.59551 0.934912 7.59265 0.934678 7.59094C0.934678 7.58972 0.933975 7.58964 0.933084 7.59014L0.933178 7.59014ZM0.774122 7.61384C0.773137 7.61382 0.772153 7.61407 0.770934 7.61464C0.765586 7.61709 0.760176 7.6201 0.756473 7.62468C0.755114 7.62638 0.756005 7.62909 0.75488 7.6307C0.751739 7.63457 0.748833 7.62733 0.750473 7.63673L0.752067 7.63954C0.75277 7.64315 0.749817 7.6451 0.750051 7.64878C0.750848 7.65971 0.756394 7.66977 0.757683 7.67971C0.758339 7.68466 0.753886 7.69076 0.757214 7.69497C0.766167 7.70605 0.780534 7.70389 0.783323 7.70662C0.786698 7.7099 0.785386 7.71755 0.786558 7.71947C0.787636 7.72128 0.793101 7.72142 0.79499 7.72228C0.800465 7.7248 0.804679 7.73197 0.810253 7.73433C0.821719 7.73918 0.835851 7.72866 0.846403 7.73032C0.848653 7.73069 0.85117 7.73305 0.854437 7.73353H0.856453C0.858984 7.73261 0.860578 7.72779 0.863283 7.7271C0.869123 7.72562 0.872958 7.72785 0.880148 7.72389C0.894108 7.71024 0.850036 7.69493 0.84802 7.69216C0.845536 7.68877 0.844176 7.6779 0.845208 7.67248C0.845676 7.67199 0.849754 7.66382 0.845208 7.66444C0.837103 7.66556 0.831604 7.66133 0.825525 7.66324C0.796031 7.67251 0.824728 7.68122 0.777731 7.66645C0.77272 7.66488 0.746344 7.64938 0.758048 7.64235C0.761142 7.64049 0.768759 7.64873 0.773311 7.64757C0.779076 7.64611 0.788498 7.64053 0.793392 7.63793C0.795876 7.6376 0.804895 7.64064 0.806245 7.63873C0.816445 7.62431 0.781462 7.61648 0.776925 7.61383C0.775847 7.61402 0.775106 7.61385 0.774122 7.61384ZM1.49027 7.6532C1.48755 7.65362 1.48392 7.65629 1.48425 7.65882C1.48636 7.67494 1.48967 7.68636 1.50393 7.69577C1.50712 7.69788 1.5258 7.70159 1.52723 7.69738C1.5277 7.69614 1.52418 7.69585 1.52362 7.69577C1.51992 7.69523 1.51424 7.69431 1.51237 7.69055C1.50989 7.68554 1.50075 7.67568 1.50032 7.67368C1.49957 7.67003 1.50164 7.66186 1.49831 7.65963C1.49073 7.6567 1.49592 7.65575 1.49269 7.6536C1.49203 7.65318 1.49121 7.65308 1.49027 7.6532ZM0.961294 7.6773C0.959137 7.67749 0.957075 7.67825 0.95527 7.68011C0.950629 7.68148 0.929676 7.68768 0.92595 7.69096C0.92459 7.69216 0.924778 7.70077 0.927169 7.701H0.929981C0.938475 7.70937 0.910008 7.71919 0.919139 7.72349C0.924628 7.72349 0.929911 7.72591 0.933197 7.72108C0.934556 7.72089 0.936197 7.72045 0.937228 7.71947C0.937697 7.71678 0.938072 7.69782 0.940415 7.69738C0.949167 7.69577 0.962939 7.70646 0.964917 7.71586C0.965761 7.71999 0.960323 7.72123 0.960886 7.72429C0.962198 7.73164 0.970012 7.72892 0.972136 7.73192C0.973776 7.73426 0.973167 7.74269 0.97373 7.74317C0.976776 7.74568 0.981548 7.73696 0.983372 7.73714C0.984637 7.73729 0.986325 7.74209 0.987403 7.74196C0.987872 7.74192 0.991434 7.73457 0.99262 7.73353C0.998658 7.72822 1.0095 7.7332 1.00788 7.71987C1.00741 7.71637 1.00718 7.71253 1.00549 7.70943C1.0047 7.708 1.00268 7.70809 1.00146 7.70742C0.998133 7.70561 0.993914 7.70353 0.993426 7.69979C0.992958 7.69773 0.995911 7.6946 0.994223 7.69337C0.993004 7.69247 0.987867 7.69527 0.987394 7.69497C0.986597 7.69449 0.988753 7.69035 0.988612 7.68935C0.98805 7.686 0.984534 7.68413 0.982589 7.68172C0.975487 7.68172 0.967819 7.67673 0.961294 7.6773ZM1.18984 7.69979C1.18871 7.7004 1.18984 7.705 1.18904 7.70622C1.18852 7.70715 1.18425 7.71156 1.18501 7.71305C1.18548 7.71371 1.19227 7.71161 1.19385 7.71184C1.20498 7.70378 1.19143 7.69892 1.18984 7.69979ZM1.36054 7.73032C1.35385 7.734 1.36453 7.75957 1.36214 7.74437C1.36354 7.74228 1.36724 7.74306 1.36856 7.73955C1.37044 7.73463 1.36459 7.73336 1.36054 7.73032ZM1.5923 7.79579L1.59028 7.7982C1.59028 7.8029 1.59384 7.81 1.59751 7.81306L1.58707 7.81707L1.58585 7.81908L1.58866 7.82189L1.60232 7.8239L1.59469 7.83073L1.5975 7.83233C1.61047 7.8258 1.6154 7.83636 1.6216 7.84519H1.62521L1.62643 7.83876C1.62643 7.83149 1.60056 7.81156 1.5955 7.79739L1.5923 7.79579ZM1.4228 7.86849V7.8709C1.4228 7.87168 1.43679 7.88943 1.43967 7.89379L1.4437 7.89337C1.44623 7.87397 1.42939 7.87613 1.42603 7.87087C1.42546 7.87083 1.42383 7.86737 1.4228 7.86849ZM1.46377 7.8717C1.45997 7.87296 1.4588 7.88133 1.46899 7.88134C1.47067 7.88134 1.48333 7.87831 1.47742 7.87571C1.47367 7.87406 1.47461 7.88036 1.46819 7.8733C1.46664 7.8716 1.46503 7.87128 1.46377 7.8717ZM1.6184 8.01509C1.61728 8.01518 1.61639 8.01546 1.61559 8.01589L1.61512 8.0179C1.62179 8.02345 1.63037 8.02463 1.63761 8.02874C1.64659 8.03384 1.64861 8.04706 1.65689 8.05404L1.66291 8.05565L1.66652 8.05324C1.65856 8.04925 1.64823 8.03067 1.64483 8.02312C1.64006 8.02029 1.62611 8.01427 1.61833 8.01509L1.6184 8.01509ZM2.06062 8.64608C2.06567 8.66026 2.07801 8.702 2.09396 8.70633C2.09167 8.68742 2.07971 8.65481 2.06062 8.64608ZM2.31045 9.014L2.30886 9.01639C2.30769 9.02508 2.30835 9.03214 2.31125 9.04009L2.31449 9.0393C2.31599 9.03148 2.31449 9.02353 2.31402 9.0156L2.31041 9.01401L2.31045 9.014ZM2.42171 9.16101L2.4181 9.16147L2.41288 9.17433C2.4119 9.17855 2.42184 9.19266 2.42413 9.19642H2.42895C2.42843 9.19007 2.42477 9.17868 2.42051 9.17513L2.42412 9.16509L2.42173 9.16106L2.42171 9.16101ZM2.35062 9.21443C2.34757 9.21442 2.34451 9.21443 2.34179 9.2149V9.21851L2.34497 9.2209C2.36303 9.22399 2.39113 9.22277 2.40723 9.23054C2.41308 9.23335 2.4164 9.24228 2.4237 9.24339C2.42445 9.24875 2.43129 9.25546 2.43575 9.25785C2.43626 9.26275 2.43968 9.27338 2.44418 9.27633L2.44821 9.27712C2.45501 9.26111 2.42401 9.23337 2.41447 9.22491C2.4082 9.21935 2.39519 9.2228 2.39077 9.21527C2.38768 9.21396 2.38046 9.21734 2.37792 9.21888C2.37018 9.21574 2.3598 9.21448 2.35061 9.21448L2.35062 9.21443ZM2.70568 9.72091L2.70006 9.72373C2.69537 9.73433 2.70677 9.7431 2.71612 9.74421L2.72095 9.74182L2.72175 9.73419C2.71931 9.72945 2.71506 9.72581 2.7113 9.72214L2.70891 9.72293L2.70568 9.72091ZM2.8784 10.2001C2.8691 10.2108 2.88515 10.2491 2.89125 10.2603C2.90111 10.2623 2.91606 10.2882 2.9278 10.2945L2.93342 10.2937C2.93417 10.2816 2.92631 10.2758 2.91896 10.268V10.262C2.92552 10.2542 2.92968 10.2411 2.92579 10.2314L2.92176 10.2286C2.91951 10.2347 2.90754 10.2533 2.90167 10.2555L2.89727 10.2527C2.89107 10.2409 2.89464 10.2082 2.88482 10.2013L2.8784 10.2001ZM2.99327 10.2587L2.98924 10.2599L2.98241 10.268L2.98564 10.2712L2.99005 10.2668H2.99206L2.99366 10.2708L2.99047 10.2792L2.99169 10.2808L2.9945 10.2804C2.9982 10.2753 3.00023 10.2618 2.99328 10.2587L2.99327 10.2587ZM3.03102 10.2953L3.0262 10.3025L3.03263 10.3105L3.03586 10.3101C3.03633 10.3056 3.03586 10.3003 3.03427 10.296L3.03104 10.2952L3.03102 10.2953ZM3.11738 10.3294C3.11513 10.3326 3.10987 10.3421 3.11055 10.3463L3.11214 10.3487L3.11617 10.3492L3.11899 10.3427L3.12381 10.3403L3.1246 10.3383L3.11737 10.3295L3.11738 10.3294ZM2.84345 10.3403C2.83312 10.3454 2.8336 10.3536 2.82779 10.362C2.82825 10.3756 2.83945 10.3884 2.85028 10.3957C2.85958 10.398 2.88037 10.3913 2.89085 10.3901L2.89244 10.3836C2.89019 10.3744 2.87312 10.3719 2.86513 10.3704C2.86419 10.3672 2.86246 10.3634 2.85991 10.3612C2.85878 10.3648 2.85621 10.369 2.85308 10.3712L2.84826 10.3724L2.84423 10.3684C2.84657 10.3633 2.84793 10.3565 2.85307 10.3535L2.84866 10.3419L2.84345 10.3403ZM3.27202 10.4033L3.2664 10.4061L3.26518 10.4118C3.26879 10.4164 3.27261 10.4279 3.27481 10.4339L3.27885 10.4351C3.28349 10.4317 3.28658 10.4261 3.28889 10.421C3.28889 10.4173 3.28739 10.4115 3.28486 10.4086C3.28022 10.4047 3.27544 10.4058 3.27202 10.4033ZM3.20895 10.4431C3.19665 10.4449 3.18528 10.4603 3.18486 10.4724C3.18668 10.4779 3.19012 10.484 3.1957 10.4865C3.20407 10.4851 3.21047 10.4789 3.219 10.478C3.22331 10.47 3.2183 10.4468 3.20895 10.4431ZM3.268 10.4519L3.26397 10.4524C3.26303 10.4585 3.25951 10.4759 3.26115 10.4809C3.26505 10.4826 3.26949 10.4841 3.2736 10.4849L3.27923 10.4942L3.28485 10.4962C3.28799 10.4881 3.27504 10.4722 3.27481 10.4625C3.27172 10.4603 3.26852 10.4557 3.26798 10.452L3.268 10.4519ZM3.31298 10.4784C3.31059 10.4784 3.30821 10.4789 3.30656 10.4797L3.30703 10.4873C3.30956 10.4901 3.31167 10.4937 3.31265 10.4973L3.31787 10.4989L3.32106 10.4941C3.3219 10.4897 3.32153 10.4842 3.31947 10.48C3.31787 10.4792 3.31544 10.4785 3.31304 10.4785L3.31298 10.4784ZM3.31821 10.507C3.30967 10.5076 3.30937 10.5129 3.30294 10.5182C3.30158 10.5215 3.30191 10.527 3.30341 10.5302C3.30496 10.5307 3.34281 10.5325 3.34398 10.5323L3.34477 10.525C3.337 10.5198 3.3297 10.5129 3.32228 10.507C3.32069 10.507 3.31947 10.507 3.31825 10.507L3.31821 10.507ZM3.13264 10.5331C3.13049 10.5432 3.15161 10.5692 3.16035 10.574L3.16359 10.5692C3.16471 10.5527 3.14611 10.5447 3.13829 10.5343L3.13264 10.5331ZM3.34471 10.5576L3.34031 10.5616C3.34078 10.5656 3.34237 10.5701 3.34434 10.5736C3.34364 10.5775 3.34157 10.5818 3.33912 10.5849L3.33471 10.5869L3.33349 10.5929L3.33752 10.5973C3.34679 10.6011 3.35493 10.5941 3.36404 10.5973C3.3683 10.6011 3.37222 10.6061 3.37809 10.6074C3.38385 10.605 3.38749 10.5987 3.38693 10.5925L3.38374 10.5877C3.37662 10.5863 3.36604 10.5826 3.35964 10.5793C3.35753 10.5667 3.35466 10.5642 3.34478 10.5576L3.34471 10.5576ZM3.19851 10.5841C3.19008 10.5845 3.18703 10.5927 3.18365 10.6001C3.1659 10.6392 3.22006 10.6351 3.23466 10.6584C3.24022 10.6672 3.24037 10.6862 3.24872 10.6917L3.25635 10.6929L3.26117 10.6897C3.26295 10.6818 3.25577 10.667 3.25314 10.6592C3.24738 10.6422 3.24659 10.5967 3.22221 10.6034C3.21423 10.6008 3.20829 10.5906 3.20253 10.5845C3.20107 10.584 3.19973 10.5841 3.19851 10.5841ZM3.11899 10.7026L3.11617 10.7074C3.11786 10.7112 3.12557 10.7156 3.12903 10.7174L3.13385 10.7158L3.13464 10.711C3.13099 10.7101 3.12106 10.7062 3.11899 10.7026ZM3.34954 10.7102L3.33749 10.7107L3.32504 10.7215V10.7255L3.33146 10.7263C3.33531 10.7239 3.3383 10.7215 3.34311 10.7211L3.34954 10.7127V10.7103V10.7102ZM3.3162 10.8239L3.30495 10.8287L3.30374 10.8319L3.30613 10.8347L3.31737 10.8291L3.31615 10.8239L3.3162 10.8239ZM3.4624 11.1339C3.45187 11.1393 3.44865 11.1674 3.45356 11.1781C3.46056 11.1807 3.46448 11.177 3.47124 11.1773C3.48004 11.1778 3.48666 11.1869 3.49534 11.1858L3.49937 11.1817C3.50026 11.1749 3.47374 11.141 3.46804 11.1347L3.4624 11.1339ZM3.57285 11.1757C3.56967 11.1766 3.56606 11.1787 3.56402 11.1813C3.56233 11.1847 3.56214 11.1903 3.56355 11.1938L3.56918 11.195C3.57353 11.1892 3.57691 11.1838 3.57841 11.1765L3.57279 11.1757L3.57285 11.1757ZM4.36131 12.4819L4.35807 12.4915C4.36051 12.4958 4.36792 12.5004 4.37213 12.5024C4.37063 12.4977 4.3655 12.4849 4.36131 12.4819ZM4.76015 12.5036L4.75733 12.5044C4.75687 12.5116 4.7586 12.5186 4.75972 12.5257L4.76494 12.5241C4.76939 12.5169 4.75983 12.5103 4.76015 12.5036ZM4.41834 12.569L4.41787 12.5727C4.42223 12.5781 4.43426 12.5904 4.44157 12.5919C4.44284 12.5865 4.42199 12.5685 4.41827 12.569L4.41834 12.569ZM4.86538 12.6695L4.86219 12.6731C4.86444 12.6754 4.86571 12.6804 4.86501 12.6835L4.87465 12.6895L4.87512 12.6851L4.86829 12.6803L4.86782 12.6735L4.86543 12.6695L4.86538 12.6695ZM4.95134 12.7896L4.94932 12.7919L4.93687 12.7935L4.93326 12.7988L4.94249 12.798L4.94568 12.7952L4.95211 12.7947L4.9545 12.7899L4.95131 12.7894L4.95134 12.7896ZM4.71114 12.8349V12.8402C4.71433 12.8426 4.72276 12.8677 4.7236 12.8731L4.72763 12.8759L4.71678 12.8357L4.71114 12.8349ZM4.91438 12.8619L4.91035 12.8663L4.91157 12.8763L4.91396 12.8747C4.91326 12.8713 4.91349 12.8668 4.91556 12.8639L4.91434 12.8618L4.91438 12.8619ZM5.34897 13.5266C5.3463 13.5261 5.34386 13.5266 5.34174 13.5282L5.34456 13.5334C5.35257 13.5361 5.35649 13.5419 5.36223 13.5475L5.36785 13.5459L5.36907 13.5403C5.36602 13.5344 5.35692 13.5273 5.34897 13.5266ZM5.44657 13.5792L5.44217 13.5828C5.44025 13.5936 5.45714 13.6173 5.46667 13.6218H5.4731C5.47806 13.6144 5.47174 13.6006 5.46667 13.5945C5.45926 13.5945 5.453 13.583 5.44657 13.5792ZM5.51084 13.8379C5.50653 13.8379 5.50222 13.8379 5.5004 13.8383C5.49777 13.8419 5.49033 13.8448 5.48634 13.846L5.48273 13.8536L5.48916 13.8689L5.49197 13.8633L5.48958 13.8528L5.50002 13.848L5.50124 13.8452L5.51208 13.8408L5.51971 13.844L5.52093 13.84C5.51957 13.8384 5.51519 13.8381 5.51089 13.838L5.51084 13.8379ZM5.46465 13.9668L5.46226 13.968L5.45422 13.9837L5.45502 13.9893L5.46346 13.9825L5.46144 13.9789L5.46626 13.97L5.46467 13.9669L5.46465 13.9668ZM5.48152 14.1194C5.47838 14.1195 5.47381 14.1194 5.47108 14.1215C5.47365 14.1255 5.47515 14.1337 5.47347 14.1383L5.47708 14.1403C5.47942 14.1396 5.48134 14.1366 5.48189 14.1343L5.48068 14.1303L5.47744 14.1295L5.47664 14.1259L5.48267 14.1239L5.48145 14.1195L5.48152 14.1194ZM5.60322 14.2998L5.59198 14.3038C5.59052 14.3055 5.58912 14.3086 5.58794 14.3114L5.59113 14.3151L5.58673 14.3195C5.58593 14.3172 5.58673 14.3143 5.58794 14.3114L5.58635 14.3098C5.58307 14.3195 5.58363 14.3288 5.58476 14.3387C5.5989 14.338 5.61505 14.3102 5.60322 14.2998ZM5.51727 14.5886C5.50987 14.5886 5.50228 14.5959 5.49999 14.6026C5.50686 14.6041 5.51402 14.6022 5.52088 14.6018L5.52412 14.5982L5.5221 14.5918L5.51727 14.5886ZM5.4755 14.6091C5.46993 14.6105 5.46689 14.6174 5.46505 14.6223L5.46707 14.6279C5.4703 14.6297 5.47661 14.6299 5.47992 14.6284L5.48316 14.6236C5.48409 14.6203 5.48316 14.6143 5.48077 14.6115L5.47554 14.6091L5.4755 14.6091ZM5.4747 14.6396L5.47109 14.644C5.47109 14.6522 5.47315 14.6637 5.47512 14.6717L5.47836 14.6733C5.48556 14.6711 5.49065 14.6596 5.4884 14.6528L5.48479 14.6484L5.48638 14.644C5.48404 14.6412 5.47821 14.6391 5.4747 14.6396ZM5.50643 14.6809C5.4983 14.6815 5.48879 14.6824 5.48072 14.6838C5.47432 14.7064 5.47974 14.7058 5.48916 14.7247C5.49291 14.7262 5.49652 14.728 5.5 14.73L5.50482 14.7284L5.50402 14.7211C5.50679 14.7203 5.51939 14.7093 5.52049 14.7067C5.51923 14.7003 5.51125 14.6854 5.50643 14.6809ZM5.65946 15.3774C5.64806 15.381 5.64664 15.3905 5.64781 15.4011H5.65584L5.65987 15.3975C5.66044 15.3937 5.66203 15.3892 5.66469 15.3863L5.66422 15.3802L5.65941 15.3774L5.65946 15.3774ZM5.63094 15.3955L5.62733 15.4003L5.62972 15.4059L5.62611 15.4124L5.63015 15.4168L5.63497 15.4132C5.63665 15.4094 5.63834 15.4055 5.63937 15.4015L5.63656 15.3963L5.63094 15.3955ZM6.64994 16.6808C6.64017 16.6813 6.63007 16.6825 6.62544 16.6844C6.63987 16.7031 6.65601 16.6936 6.66561 16.6993C6.6694 16.6993 6.6736 16.6974 6.67645 16.6949C6.67692 16.6914 6.67565 16.6866 6.67326 16.684C6.66928 16.6812 6.65971 16.6804 6.64994 16.6808ZM6.60656 16.6892C6.60097 16.6918 6.59449 16.6926 6.58849 16.6936C6.63804 16.7403 6.6418 16.7068 6.67926 16.725C6.68085 16.7257 6.68217 16.7273 6.68367 16.7282C6.69051 16.7322 6.69543 16.7375 6.70214 16.7418C6.70882 16.7462 6.71742 16.7474 6.72383 16.7515C6.73599 16.7593 6.72833 16.7673 6.75315 16.7696C6.7653 16.78 6.78577 16.8046 6.80336 16.7933C6.80425 16.7898 6.80336 16.7843 6.80134 16.7812C6.78188 16.7727 6.76277 16.7604 6.74391 16.7507C6.73631 16.7467 6.72954 16.7378 6.72181 16.733C6.715 16.7288 6.70634 16.7275 6.69972 16.7234C6.69474 16.7203 6.69097 16.7159 6.68527 16.7137C6.66059 16.7042 6.62887 16.718 6.60656 16.6892ZM6.83591 16.7965L6.83028 16.8001C6.82564 16.8005 6.82032 16.7996 6.81582 16.7985L6.8102 16.8009L6.80819 16.8049L6.81179 16.8093C6.82333 16.8132 6.83229 16.8126 6.84232 16.8053L6.8411 16.7989L6.83588 16.7964L6.83591 16.7965ZM6.70577 17.0101L6.70736 17.0166C6.71999 17.0249 6.7232 17.0384 6.73387 17.0451C6.73978 17.0444 6.74391 17.0387 6.74713 17.0342C6.74314 17.0213 6.71849 17.0086 6.70577 17.0101ZM7.20944 17.2459C7.20776 17.2459 7.20584 17.2465 7.20422 17.2471L7.20061 17.2512C7.19949 17.2568 7.20108 17.261 7.20422 17.2656C7.2107 17.2685 7.22255 17.2661 7.22872 17.2628L7.23074 17.2568L7.22952 17.2504L7.22511 17.2463C7.22009 17.2459 7.21458 17.2453 7.20945 17.2459L7.20944 17.2459ZM7.37131 17.3427C7.36681 17.3432 7.36254 17.3452 7.36047 17.3487L7.35967 17.354C7.36481 17.3619 7.374 17.3627 7.38256 17.3616L7.3858 17.3568C7.38669 17.3533 7.3858 17.3477 7.38378 17.3447C7.38055 17.343 7.37583 17.3423 7.37131 17.3427ZM7.40184 17.3712L7.39059 17.3748C7.38919 17.3853 7.38143 17.3995 7.39219 17.4074L7.39781 17.4066C7.40507 17.4 7.41109 17.3775 7.40184 17.3712ZM7.22471 17.3994L7.21788 17.4002L7.21666 17.4058C7.21924 17.4189 7.25444 17.4445 7.26767 17.4331C7.26113 17.4183 7.23847 17.4065 7.22471 17.3994ZM7.36448 17.517L7.35886 17.5194C7.35816 17.5238 7.3567 17.5284 7.35445 17.5323C7.35445 17.5363 7.35633 17.5412 7.35886 17.5443C7.36237 17.5459 7.36733 17.5461 7.37091 17.5448C7.37599 17.5393 7.37962 17.5275 7.37532 17.5207C7.37232 17.5186 7.36815 17.5172 7.36447 17.5171L7.36448 17.517ZM7.45486 17.597C7.44215 17.6005 7.44515 17.6217 7.44201 17.6315L7.4444 17.6363C7.43889 17.6563 7.46341 17.6971 7.48737 17.6918C7.48901 17.6884 7.49047 17.6842 7.49098 17.6805C7.48901 17.6696 7.46515 17.6551 7.45845 17.6424C7.45845 17.6306 7.4637 17.6103 7.46004 17.5998L7.45486 17.597ZM7.53197 17.7412C7.53005 17.7435 7.52921 17.7471 7.52874 17.75C7.53667 17.7549 7.53586 17.7816 7.5428 17.791V17.7661L7.53315 17.7504L7.53437 17.7432L7.53197 17.7412ZM7.55085 17.811C7.54809 17.8118 7.54445 17.8129 7.54242 17.8151C7.54584 17.8183 7.54893 17.8252 7.54884 17.8299L7.55325 17.8315L7.55968 17.8287L7.56127 17.8247C7.56174 17.8207 7.55359 17.8131 7.55085 17.811ZM7.56692 18.0127L7.56453 18.0199L7.56612 18.0247L7.5649 18.028L7.56851 18.0336L7.57175 18.0352L7.57376 18.0304L7.56692 18.0127ZM7.71834 18.6152C7.71492 18.6179 7.71108 18.6205 7.7071 18.6224C7.70386 18.6283 7.70607 18.6368 7.7063 18.6433C7.71335 18.6556 7.72446 18.6674 7.73964 18.6593C7.75384 18.6431 7.73917 18.6157 7.71834 18.6152ZM7.74525 18.7224C7.73934 18.7229 7.7343 18.7263 7.72959 18.7296C7.72903 18.7338 7.72631 18.7376 7.72276 18.7397C7.71663 18.7576 7.71435 18.7563 7.71674 18.7762L7.72196 18.7795C7.73185 18.7704 7.75877 18.7347 7.74525 18.7224ZM8.23326 19.1357C8.23261 19.1521 8.25472 19.1736 8.27062 19.1662C8.28464 19.138 8.24235 19.1379 8.23326 19.1357ZM8.0228 19.1827C8.02279 19.1883 8.01886 19.199 8.01677 19.2044C8.01832 19.2103 8.01846 19.2174 8.02239 19.2225C8.02941 19.2216 8.03937 19.2186 8.04489 19.214C8.03918 19.1875 8.0396 19.1981 8.0228 19.1827ZM8.43811 20.4146C8.43212 20.415 8.42624 20.4166 8.42204 20.4198C8.42077 20.4228 8.41984 20.4266 8.42002 20.4298C8.42964 20.4367 8.44896 20.4356 8.45979 20.4322L8.46382 20.4286C8.46129 20.4239 8.45731 20.4202 8.45498 20.4154C8.45008 20.4148 8.44409 20.4141 8.43811 20.4146ZM9.13578 20.4684L9.13217 20.472C9.12908 20.4903 9.14248 20.5093 9.16109 20.5106L9.1647 20.5062C9.16625 20.491 9.14997 20.471 9.13578 20.4684ZM8.56664 20.4732C8.56182 20.4732 8.55799 20.4763 8.557 20.4841L8.56023 20.4901C8.58736 20.5056 8.65226 20.4935 8.65422 20.5411C8.65469 20.5507 8.65473 20.5697 8.64377 20.574C8.6385 20.5723 8.63417 20.5686 8.62932 20.566C8.62772 20.5703 8.62679 20.5751 8.6265 20.5797C8.59605 20.6161 8.58195 20.5946 8.55702 20.6086C8.55444 20.6146 8.55059 20.6202 8.55059 20.6271C8.55059 20.6444 8.58073 20.6906 8.59718 20.6973C8.60272 20.7042 8.59718 20.7154 8.60361 20.7218C8.63262 20.7397 8.62982 20.7297 8.65181 20.7608C8.65959 20.7639 8.66422 20.758 8.67109 20.7584C8.68348 20.7591 8.69046 20.7758 8.70804 20.7769C8.7123 20.7745 8.718 20.7704 8.71889 20.7652C8.71068 20.7491 8.70319 20.7265 8.6972 20.709L8.69197 20.7062C8.66327 20.7062 8.64785 20.7 8.65261 20.666C8.65509 20.6624 8.67514 20.6551 8.67992 20.6564L8.68876 20.6636H8.69478C8.69525 20.6569 8.66683 20.5981 8.66185 20.5889C8.664 20.5711 8.67883 20.509 8.6514 20.505C8.647 20.498 8.60341 20.4847 8.58554 20.4825L8.59156 20.4829C8.58554 20.4799 8.57469 20.4729 8.56666 20.4733L8.56664 20.4732ZM8.51161 20.5218L8.5072 20.5246L8.50481 20.5311L8.50641 20.5379C8.51095 20.5409 8.51556 20.5451 8.51725 20.5503L8.52327 20.5524C8.52744 20.5501 8.53346 20.5459 8.53372 20.5407C8.53193 20.5347 8.51807 20.5222 8.51161 20.5218ZM8.36983 20.5359C8.34712 20.542 8.36223 20.5716 8.3389 20.5849C8.34742 20.5975 8.37385 20.6437 8.39071 20.6423C8.4015 20.6375 8.41156 20.6107 8.41963 20.6005C8.42301 20.5877 8.39159 20.5631 8.38429 20.5531C8.38485 20.5498 8.38372 20.5432 8.38105 20.5407C8.37763 20.5386 8.37369 20.5369 8.36983 20.5359ZM8.4365 20.6082C8.42735 20.6088 8.41989 20.6166 8.42003 20.6262C8.427 20.6274 8.43122 20.6222 8.43771 20.6214C8.44066 20.6192 8.443 20.615 8.44373 20.6114L8.4405 20.6082C8.43914 20.6082 8.43781 20.6082 8.4365 20.6082ZM8.25134 20.6275V20.6335L8.24853 20.6383C8.25148 20.6839 8.26235 20.671 8.27905 20.7006C8.28215 20.706 8.28112 20.7129 8.28468 20.7182C8.28744 20.7205 8.29379 20.7211 8.29713 20.7202L8.30116 20.7162C8.30069 20.7045 8.28942 20.6963 8.28107 20.6897C8.27556 20.676 8.26261 20.6619 8.25938 20.6491C8.25788 20.6431 8.25595 20.6318 8.25134 20.6275ZM8.46542 20.6303L8.46744 20.6335C8.46207 20.6902 8.51959 20.6767 8.47989 20.7254C8.48766 20.7635 8.49304 20.7518 8.52688 20.758C8.53716 20.7661 8.53895 20.7962 8.55098 20.8106C8.5568 20.8175 8.56683 20.8148 8.57347 20.8198C8.58857 20.8313 8.5994 20.8461 8.61324 20.8584C8.61971 20.8596 8.62825 20.8584 8.63372 20.8624C8.63424 20.8788 8.68698 20.9079 8.6996 20.903C8.71356 20.8976 8.72085 20.8819 8.73374 20.8753C8.7687 20.8572 8.82833 20.8664 8.84419 20.9074C8.84372 20.9135 8.84025 20.927 8.83616 20.9315C8.82846 20.9348 8.81973 20.933 8.81246 20.9375C8.8142 20.9425 8.85864 20.9822 8.86628 20.9857C8.87637 20.9904 8.88392 20.9843 8.89279 20.9881C8.90094 20.9916 8.90465 20.9987 8.91528 20.9961L8.91852 20.9917C8.91945 20.9578 8.89207 20.9253 8.89602 20.8905C8.89761 20.8767 8.91819 20.8575 8.90767 20.8423C8.90354 20.8417 8.89941 20.8401 8.89562 20.8383L8.89483 20.8359C8.8982 20.8337 8.90287 20.8322 8.90687 20.8318C8.90687 20.8281 8.90537 20.8235 8.90284 20.8206C8.899 20.8197 8.89305 20.8201 8.88959 20.8222L8.88518 20.8178C8.88101 20.8182 8.87617 20.8173 8.87233 20.8157L8.86872 20.8113C8.86497 20.8108 8.86081 20.8089 8.85787 20.8065C8.85614 20.8013 8.85347 20.7956 8.84944 20.7917L8.84541 20.7957L8.84059 20.7933C8.83578 20.7796 8.83455 20.7641 8.82935 20.7511C8.82295 20.7352 8.81429 20.7279 8.80966 20.7085L8.80563 20.7062L8.8016 20.7094C8.78233 20.7057 8.7863 20.7114 8.77188 20.7126C8.76511 20.7271 8.76011 20.7673 8.74417 20.7733C8.7437 20.7795 8.74093 20.7859 8.74417 20.7918C8.74754 20.798 8.76731 20.8099 8.77469 20.8086L8.77991 20.8054L8.78193 20.799L8.77991 20.7933C8.78947 20.7938 8.80324 20.8165 8.80643 20.8247C8.79849 20.8293 8.73777 20.827 8.73051 20.8214C8.7277 20.8159 8.72142 20.8068 8.71525 20.805L8.71003 20.8074C8.68861 20.8383 8.67839 20.8244 8.655 20.8142C8.65139 20.8127 8.646 20.8128 8.64255 20.8106C8.63833 20.8079 8.6359 20.801 8.6309 20.799C8.62692 20.7974 8.62129 20.7983 8.61724 20.7966C8.61135 20.794 8.61134 20.7872 8.6072 20.7833C8.59184 20.769 8.59274 20.7776 8.59033 20.7536C8.58209 20.7441 8.58569 20.7355 8.58149 20.7247C8.57939 20.7192 8.57319 20.717 8.56985 20.7122C8.56558 20.7062 8.56417 20.697 8.559 20.6917C8.54918 20.6818 8.53755 20.6759 8.52767 20.664C8.52617 20.6623 8.52374 20.6599 8.52165 20.6588C8.51609 20.6559 8.50892 20.657 8.50317 20.654C8.48793 20.6461 8.49669 20.635 8.46542 20.6303ZM8.74337 20.6728C8.7381 20.6743 8.73198 20.6769 8.72891 20.6817C8.72343 20.683 8.71833 20.6854 8.71364 20.6885L8.71083 20.6941L8.71285 20.6998C8.72821 20.7036 8.75193 20.699 8.75181 20.6797C8.75017 20.6767 8.7466 20.6739 8.74337 20.6728ZM8.45016 20.7399C8.44073 20.7407 8.43156 20.7489 8.42847 20.7576L8.42969 20.7632C8.43353 20.7687 8.44596 20.7658 8.45459 20.7785L8.45981 20.7793C8.46494 20.7749 8.46562 20.7461 8.45934 20.7419C8.4563 20.7402 8.45324 20.7397 8.4501 20.7399L8.45016 20.7399ZM8.4602 20.8239C8.45706 20.8243 8.45321 20.8252 8.45056 20.8271C8.44648 20.8257 8.44114 20.8256 8.4369 20.8263L8.4325 20.8299C8.43072 20.8352 8.4325 20.8437 8.43653 20.8476C8.4407 20.8514 8.47882 20.8797 8.48272 20.8809C8.49678 20.8853 8.51507 20.8785 8.52891 20.8873C8.53327 20.8901 8.53639 20.8956 8.54136 20.8986L8.54859 20.8991L8.55341 20.8958C8.5521 20.8872 8.54728 20.8821 8.54257 20.8753C8.52849 20.8683 8.51674 20.872 8.51084 20.8533H8.51766L8.52248 20.85L8.5245 20.844C8.52347 20.8407 8.52042 20.8371 8.51727 20.8356C8.49439 20.8342 8.48174 20.8312 8.46024 20.8239L8.4602 20.8239ZM8.30315 20.897L8.29793 20.899L8.29512 20.9046L8.29591 20.9102C8.29952 20.9142 8.30457 20.9172 8.30997 20.9175L8.31437 20.9142C8.31358 20.9089 8.31222 20.9022 8.30835 20.8982L8.30315 20.897ZM8.75943 20.9106C8.73932 20.9151 8.71578 20.9215 8.71766 20.948C8.71977 20.9508 8.72553 20.9528 8.72891 20.9528C8.73449 20.9581 8.73111 20.9679 8.73854 20.9741L8.74457 20.9761L8.74898 20.9725C8.74964 20.9678 8.74968 20.9622 8.74818 20.9576L8.7502 20.954C8.75367 20.954 8.75908 20.9557 8.76145 20.9584C8.76145 20.9681 8.7606 20.9771 8.76098 20.9869L8.76379 20.9882C8.77434 20.9835 8.78985 20.9225 8.75939 20.9106L8.75943 20.9106ZM8.78152 21.0207C8.77616 21.0261 8.76843 21.0292 8.76225 21.0335C8.76623 21.0492 8.76178 21.0723 8.78313 21.0769C8.80316 21.0706 8.81176 21.0429 8.80844 21.0239L8.8044 21.0207C8.80094 21.0212 8.79682 21.0234 8.79476 21.0263C8.79476 21.0335 8.79284 21.0403 8.79073 21.0472L8.7867 21.0508L8.78188 21.0484C8.78005 21.04 8.78586 21.0273 8.78141 21.0207L8.78152 21.0207ZM8.62649 21.1978C8.61611 21.1973 8.58509 21.2016 8.58351 21.2038L8.58791 21.2155C8.59058 21.218 8.59381 21.2204 8.59715 21.2219C8.60424 21.2211 8.61712 21.2189 8.62205 21.2255L8.62727 21.2263C8.63004 21.2193 8.63218 21.2057 8.62966 21.1986C8.62919 21.1981 8.62794 21.1979 8.62649 21.1978Z" fill="white"/>
</svg>
