<svg width="24" height="24" viewBox="0 0 24 24" fill="none" xmlns="http://www.w3.org/2000/svg">
<path fill-rule="evenodd" clip-rule="evenodd" d="M22.0315 14.1116C21.2781 13.6776 20.8101 12.8689 20.8101 12.0003C20.8101 11.1322 21.278 10.3235 22.0293 9.88987C22.8004 9.44658 23.1211 8.52548 22.7916 7.69992C22.3786 6.65709 21.8162 5.68308 21.1243 4.80455C20.5729 4.10508 19.6151 3.92189 18.844 4.36805C18.0928 4.80455 17.1569 4.80586 16.4034 4.37133C15.6521 3.9368 15.1864 3.12684 15.1886 2.2567C15.1886 1.36655 14.5516 0.627796 13.6707 0.50039C12.5635 0.34003 11.4388 0.340921 10.3272 0.503671C9.44846 0.631968 8.81143 1.3703 8.81358 2.25867C8.81358 3.12773 8.34783 3.93722 7.59657 4.37133C6.84305 4.80539 5.90944 4.8045 5.15597 4.36847C4.38493 3.92231 3.42713 4.10639 2.87574 4.80586C2.53304 5.2417 2.21668 5.70764 1.93772 6.19158C1.65872 6.67467 1.41488 7.18102 1.2084 7.6957C0.876661 8.52258 1.19743 9.44498 1.96847 9.88941C2.72199 10.323 3.1899 11.1321 3.1899 12.0003C3.1899 12.8685 2.72199 13.6769 1.97068 14.1112C1.19963 14.5545 0.878911 15.4751 1.2084 16.3005C1.62141 17.3439 2.18377 18.318 2.87574 19.196C3.42713 19.8955 4.38493 20.0787 5.15597 19.6325C5.90729 19.196 6.8431 19.1951 7.59657 19.6292C8.34783 20.0638 8.81358 20.8737 8.81358 21.7439C8.81138 22.6338 9.45061 23.3725 10.3293 23.5002C10.8807 23.58 11.4343 23.6197 11.9879 23.6197C12.5503 23.6197 13.1126 23.5788 13.6728 23.4969C14.5515 23.3684 15.1885 22.6307 15.1885 21.7423C15.1863 20.8728 15.652 20.0633 16.4033 19.6292C17.1568 19.1952 18.0905 19.1961 18.8439 19.6321C19.615 20.0782 20.5728 19.8946 21.1242 19.1947C21.4669 18.7586 21.7832 18.2927 22.0622 17.8094C22.339 17.3264 22.5872 16.82 22.7915 16.3049C23.1233 15.478 22.8026 14.5553 22.0315 14.1116ZM14.9887 13.7263C14.5296 14.5246 13.7849 15.096 12.893 15.3346C12.0033 15.5731 11.0719 15.4508 10.2744 14.9895C8.62688 14.0378 8.06011 11.923 9.0113 10.2743C9.64838 9.16842 10.8127 8.54939 12.0055 8.54939C12.592 8.54939 13.183 8.69789 13.7256 9.01116C15.3731 9.96258 15.9399 12.078 14.9887 13.7263Z" fill="white"/>
</svg>
