<svg width="24" height="24" viewBox="0 0 24 24" fill="none" xmlns="http://www.w3.org/2000/svg">
<path d="M21.892 9.92865L20.8 8.83865C20.6669 8.70594 20.5613 8.5482 20.4894 8.37452C20.4175 8.20083 20.3807 8.01464 20.381 7.82665V6.54965C20.3803 5.77272 20.0713 5.02782 19.5221 4.47835C18.9728 3.92888 18.228 3.61971 17.451 3.61865H16.174C15.7952 3.61764 15.432 3.46747 15.163 3.20065L14.072 2.10865C13.522 1.56004 12.7769 1.25195 12 1.25195C11.2232 1.25195 10.4781 1.56004 9.92804 2.10865L8.83804 3.20065C8.56877 3.46771 8.20529 3.6182 7.82604 3.61965H6.54804C5.77111 3.62071 5.02632 3.92989 4.47704 4.47935C3.92776 5.02882 3.61884 5.77372 3.61804 6.55065V7.82665C3.61854 8.01457 3.58186 8.20072 3.51012 8.3744C3.43838 8.54808 3.333 8.70586 3.20004 8.83865L2.10804 9.92865C1.55943 10.4787 1.25134 11.2238 1.25134 12.0007C1.25134 12.7775 1.55943 13.5226 2.10804 14.0727L3.20004 15.1627C3.33318 15.2954 3.43875 15.4531 3.51066 15.6268C3.58257 15.8005 3.61941 15.9867 3.61904 16.1747V17.4517C3.61984 18.2286 3.92876 18.9735 4.47804 19.523C5.02732 20.0724 5.77211 20.3816 6.54904 20.3827H7.82604C8.20503 20.3839 8.56825 20.5345 8.83704 20.8017L9.92804 21.8927C10.4779 22.4415 11.2231 22.7498 12 22.7498C12.777 22.7498 13.5222 22.4415 14.072 21.8927L15.162 20.8017C15.4313 20.5346 15.7948 20.3841 16.174 20.3827H17.452C18.229 20.3816 18.9738 20.0724 19.5231 19.523C20.0723 18.9735 20.3813 18.2286 20.382 17.4517V16.1747C20.3817 15.9867 20.4185 15.8005 20.4904 15.6268C20.5623 15.4531 20.6679 15.2954 20.801 15.1627L21.892 14.0727C22.4407 13.5226 22.7487 12.7775 22.7487 12.0007C22.7487 11.2238 22.4407 10.4787 21.892 9.92865ZM15.53 10.5287L11.53 14.5287C11.4605 14.5984 11.378 14.6538 11.287 14.6916C11.196 14.7294 11.0985 14.7488 11 14.7488C10.9016 14.7488 10.804 14.7294 10.7131 14.6916C10.6221 14.6538 10.5395 14.5984 10.47 14.5287L8.47004 12.5287C8.33756 12.3865 8.26544 12.1984 8.26887 12.0041C8.2723 11.8098 8.35101 11.6244 8.48842 11.487C8.62583 11.3496 8.81122 11.2709 9.00552 11.2675C9.19982 11.2641 9.38787 11.3362 9.53004 11.4687L11 12.9397L14.47 9.47065C14.6122 9.33817 14.8003 9.26605 14.9946 9.26948C15.1889 9.27291 15.3743 9.35162 15.5117 9.48903C15.6491 9.62645 15.7278 9.81183 15.7312 10.0061C15.7346 10.2004 15.6625 10.3885 15.53 10.5307V10.5287Z" fill="white"/>
</svg>
